<?xml version="1.0" standalone="no"?>
<!DOCTYPE svg PUBLIC "-//W3C//DTD SVG 1.1//EN" "http://www.w3.org/Graphics/SVG/1.1/DTD/svg11.dtd" >
<svg xmlns="http://www.w3.org/2000/svg" xmlns:xlink="http://www.w3.org/1999/xlink" version="1.1">
<metadata></metadata>
<defs>
<font id="sf_ui_textultrathin" horiz-adv-x="1304" >
<font-face units-per-em="2048" ascent="1638" descent="-410" />
<missing-glyph horiz-adv-x="501" />
<glyph horiz-adv-x="0" />
<glyph unicode="&#xd;" horiz-adv-x="0" />
<glyph unicode=" "  horiz-adv-x="501" />
<glyph unicode="&#x09;" horiz-adv-x="501" />
<glyph unicode="&#xa0;" horiz-adv-x="501" />
<glyph unicode="!" horiz-adv-x="572" d="M219 57q0 28 20 47.5t47 19.5q28 0 47.5 -19.5t19.5 -47.5t-19.5 -47.5t-47.5 -19.5q-27 0 -47 19.5t-20 47.5zM266 406v1037h40v-1037h-40z" />
<glyph unicode="&#x22;" horiz-adv-x="594" d="M160 1003v440h40v-440h-40zM394 1003v440h40v-440h-40z" />
<glyph unicode="#" horiz-adv-x="1361" d="M106 454l7 38h261l92 463h-247l7 38h247l95 457h41l-95 -457h412l95 457h41l-95 -457h287l-8 -38h-286l-92 -463h273l-8 -38h-273l-95 -454h-42l96 454h-413l-95 -454h-41l96 454h-260zM415 492h412l91 463h-411z" />
<glyph unicode="$" d="M150 381h40q7 -146 137 -251.5t310 -111.5v709h1q-253 60 -352.5 140.5t-99.5 224.5q0 156 127.5 261t323.5 110v133h37v-133q184 -7 314.5 -110.5t135.5 -246.5h-41q-5 125 -125 218.5t-284 100.5v-667q267 -61 373.5 -148t106.5 -245q0 -160 -136 -269t-344 -117v-158 h-37v158q-99 3 -188 35.5t-154 85.5t-103.5 126t-41.5 155zM226 1093q0 -126 91 -198t320 -128v658q-176 -5 -293.5 -100t-117.5 -232zM674 18q185 6 312.5 106.5t127.5 240.5q0 139 -97.5 217.5t-342.5 136.5v-701z" />
<glyph unicode="%" horiz-adv-x="1610" d="M127 1133q0 144 76 232.5t200 88.5t200.5 -88.5t76.5 -232.5t-76.5 -233.5t-200.5 -89.5q-123 0 -199.5 89.5t-76.5 233.5zM167 1133q0 -128 65 -206.5t171 -78.5t171 78.5t65 206.5t-65 205.5t-171 77.5t-171 -77.5t-65 -205.5zM241 0l548 733l532 710h51l-551 -735 l-530 -708h-50zM930 312q0 144 76 232.5t200 88.5t200.5 -88.5t76.5 -232.5t-76.5 -233.5t-200.5 -89.5q-123 0 -199.5 89.5t-76.5 233.5zM970 312q0 -128 65 -206.5t171 -78.5t171 78.5t65 206.5t-65 205.5t-171 77.5t-171 -77.5t-65 -205.5z" />
<glyph unicode="&#x26;" horiz-adv-x="1505" d="M136 359q0 222 273 369l121 65q-135 135 -184 213.5t-49 159.5q0 124 98 210t238 86q139 0 232 -83t93 -209q0 -103 -86 -196t-279 -190l487 -512q66 98 105.5 217t39.5 219v92h40v-90q0 -106 -43.5 -235t-112.5 -227l243 -248h-53l-214 220q-94 -111 -230 -175.5 t-275 -64.5q-196 0 -320 106.5t-124 272.5zM176 357q0 -144 113 -241.5t291 -97.5q124 0 257.5 63.5t216.5 162.5l-497 519l-125 -67q-129 -68 -192.5 -155t-63.5 -184zM337 1166q0 -71 47 -144t183 -211q351 168 351 358q0 106 -83.5 180.5t-202.5 74.5q-118 0 -206.5 -77 t-88.5 -181z" />
<glyph unicode="'" horiz-adv-x="360" d="M160 1003v440h40v-440h-40z" />
<glyph unicode="(" horiz-adv-x="672" d="M209 597q0 242 69 459.5t199 386.5h46q-130 -174 -202 -395t-72 -451t72 -451.5t202 -394.5h-46q-130 169 -199 386.5t-69 459.5z" />
<glyph unicode=")" horiz-adv-x="672" d="M149 -249q130 173 202 394.5t72 451.5t-72 451t-202 395h46q130 -169 199 -386.5t69 -459.5t-69 -459.5t-199 -386.5h-46z" />
<glyph unicode="*" horiz-adv-x="1048" d="M223 956l262 151l-262 150l20 35l261 -152v303h38v-303l262 152l20 -33l-263 -151l264 -151l-20 -35l-263 153v-304h-38v304l-261 -152z" />
<glyph unicode="+" d="M169 560v38h463v478h40v-478h463v-38h-463v-503h-40v503h-463z" />
<glyph unicode="," horiz-adv-x="560" d="M184 -278l62 449h72l-98 -449h-36z" />
<glyph unicode="-" horiz-adv-x="994" d="M169 566v38h656v-38h-656z" />
<glyph unicode="." horiz-adv-x="560" d="M214 56q0 28 19.5 47t46.5 19t46.5 -19t19.5 -47q0 -27 -19.5 -46.5t-46.5 -19.5t-46.5 19.5t-19.5 46.5z" />
<glyph unicode="/" horiz-adv-x="658" d="M84 -332l448 1775h42l-449 -1775h-41z" />
<glyph unicode="0" horiz-adv-x="1264" d="M129 722q0 342 135.5 541.5t367.5 199.5t367.5 -199.5t135.5 -541.5q0 -343 -135.5 -542.5t-367.5 -199.5t-367.5 199.5t-135.5 542.5zM169 722q0 -323 125.5 -513.5t337.5 -190.5t337.5 190.5t125.5 513.5q0 322 -125.5 512.5t-337.5 190.5t-337.5 -190.5t-125.5 -512.5 z" />
<glyph unicode="1" horiz-adv-x="819" d="M95 1151v45q138 92 400 247h40v-1443h-40v1396h-4q-159 -91 -396 -245z" />
<glyph unicode="2" horiz-adv-x="1190" d="M153 1063q5 175 126.5 287.5t305.5 112.5q181 0 304 -112.5t123 -279.5q0 -112 -64.5 -220.5t-243.5 -297.5l-484 -511v-4h856v-38h-917v35l515 544q175 184 236.5 285.5t61.5 206.5q0 150 -111.5 252t-275.5 102q-166 0 -276.5 -102t-115.5 -260h-40z" />
<glyph unicode="3" horiz-adv-x="1206" d="M129 355h40q2 -135 128.5 -236t294.5 -101q188 0 316.5 107.5t128.5 265.5q0 160 -124.5 251t-342.5 91h-157v38h157q176 0 285 91t109 238q0 134 -111 229.5t-268 95.5q-155 0 -264.5 -91t-117.5 -228h-40q7 154 127.5 255.5t294.5 101.5q176 0 297.5 -105.5 t121.5 -257.5q0 -135 -80 -226t-222 -119v-4q173 -14 274 -111.5t101 -248.5q0 -176 -139 -293.5t-347 -117.5q-122 0 -228.5 51t-169.5 137.5t-64 186.5z" />
<glyph unicode="4" horiz-adv-x="1299" d="M124 385v38q95 146 214 306.5t545 720.5h53v-1027h239v-38h-239v-385h-40v385h-772zM176 423h720v975h-4q-415 -546 -522 -690.5t-194 -280.5v-4z" />
<glyph unicode="5" horiz-adv-x="1230" d="M151 347h40q9 -130 135.5 -229.5t283.5 -99.5q189 0 320 126.5t131 310.5q0 181 -130 305.5t-319 124.5q-125 0 -237 -62t-159 -158h-45l75 778h750v-38h-714l-62 -668h4q51 82 159 134t229 52q211 0 350 -133t139 -335q0 -203 -140.5 -339t-350.5 -136q-117 0 -220 49.5 t-167.5 134t-71.5 183.5z" />
<glyph unicode="6" horiz-adv-x="1250" d="M134 679q0 358 141.5 571t380.5 213q171 0 292 -97t143 -253h-40q-21 136 -132 224t-263 88q-235 0 -363.5 -225t-118.5 -619h4q34 158 166.5 260.5t304.5 102.5q204 0 341.5 -136.5t137.5 -338.5q0 -209 -136.5 -349t-340.5 -140q-224 0 -362 158q-155 179 -155 541z M202 488q0 -199 129.5 -334.5t319.5 -135.5q185 0 311 130t126 321q0 184 -127 310.5t-312 126.5q-117 0 -220.5 -57.5t-165 -154t-61.5 -206.5z" />
<glyph unicode="7" horiz-adv-x="1149" d="M129 1405v38h906v-41l-702 -1402h-51l709 1401v4h-862z" />
<glyph unicode="8" horiz-adv-x="1264" d="M139 397q0 138 97.5 241t251.5 128v4q-134 22 -216 110t-82 210q0 164 124 268.5t317 104.5q194 0 318 -104.5t124 -268.5q0 -116 -83 -206t-213 -114v-4q153 -24 250.5 -127.5t97.5 -241.5q0 -187 -136 -302t-358 -115q-220 0 -356 115t-136 302zM179 397 q0 -168 126 -273.5t326 -105.5q201 0 327.5 105.5t126.5 273.5q0 156 -125.5 252.5t-327.5 96.5t-327.5 -97t-125.5 -252zM230 1091q0 -133 113 -218.5t288 -85.5q176 0 289 85.5t113 218.5q0 146 -113 240t-288 94t-288.5 -94.5t-113.5 -239.5z" />
<glyph unicode="9" horiz-adv-x="1250" d="M122 966q0 213 135.5 355t341.5 142q222 0 362 -161q155 -181 155 -538q0 -359 -140 -571.5t-382 -212.5q-176 0 -294.5 97t-140.5 252h40q21 -135 127.5 -223t267.5 -88q223 0 349 197.5t134 539.5q1 35 -1 107h-1h-1q-33 -153 -168 -258t-305 -105q-207 0 -343 134 t-136 333zM162 966q0 -179 124.5 -304t314.5 -125q89 0 172 35t143 92t96 134t36 157q0 197 -129 333.5t-320 136.5q-188 0 -312.5 -131.5t-124.5 -327.5z" />
<glyph unicode=":" horiz-adv-x="560" d="M214 56q0 28 19.5 47t46.5 19t46.5 -19t19.5 -47q0 -27 -19.5 -46.5t-46.5 -19.5t-46.5 19.5t-19.5 46.5zM214 839q0 28 19.5 47t46.5 19t46.5 -19t19.5 -47q0 -27 -19.5 -46.5t-46.5 -19.5t-46.5 19.5t-19.5 46.5z" />
<glyph unicode=";" horiz-adv-x="560" d="M184 -278l62 449h72l-98 -449h-36zM214 839q0 28 19.5 47t46.5 19t46.5 -19t19.5 -47q0 -27 -19.5 -46.5t-46.5 -19.5t-46.5 19.5t-19.5 46.5z" />
<glyph unicode="&#x3c;" d="M236 512v36l832 579v-47l-787 -548v-4l787 -548v-47z" />
<glyph unicode="=" d="M169 373v38h966v-38h-966zM169 745v38h966v-38h-966z" />
<glyph unicode="&#x3e;" d="M236 -20l787 548v4l-787 548v47l832 -579v-36l-832 -579v47z" />
<glyph unicode="?" horiz-adv-x="952" d="M85 1108q11 152 119.5 253t263.5 101q162 0 270 -100.5t108 -249.5q0 -97 -48.5 -172.5t-166.5 -161.5q-106 -76 -142.5 -134.5t-36.5 -150.5v-100h-40v100q0 100 41 166.5t153 147.5q110 80 155 148.5t45 155.5q0 136 -97.5 224.5t-240.5 88.5q-138 0 -234 -87.5 t-110 -228.5h-39zM374 57q0 28 19.5 47.5t47.5 19.5q27 0 47 -19.5t20 -47.5t-20 -47.5t-47 -19.5q-28 0 -47.5 19.5t-19.5 47.5z" />
<glyph unicode="@" horiz-adv-x="1850" d="M126 610q0 176 61.5 328.5t169 260.5t260 170t327.5 62q232 0 413 -96t281.5 -269.5t100.5 -394.5q0 -238 -77 -368t-218 -130q-104 0 -168.5 58t-72.5 160h-4q-39 -104 -111 -159.5t-169 -55.5q-155 0 -253 116t-98 299q0 186 98 304t253 118q96 0 174 -56.5t106 -147.5 h4v182h40v-549q0 -114 51 -172.5t150 -58.5q122 0 188.5 120t66.5 341q0 210 -95.5 374t-268 255.5t-392.5 91.5q-221 0 -398.5 -101t-278 -280.5t-100.5 -401.5q0 -174 57 -323t158 -254t244.5 -164t311.5 -59q209 0 325 34v-40q-107 -32 -325 -32q-177 0 -328 62 t-257 171.5t-166 265.5t-60 339zM608 591q0 -167 86.5 -272t224.5 -105q128 0 206 107t78 284q0 171 -76.5 270.5t-207.5 99.5t-221 -111t-90 -273z" />
<glyph unicode="A" horiz-adv-x="1326" d="M86 0l556 1443h42l556 -1443h-45l-193 507h-678l-193 -507h-45zM339 546h648l-322 839h-4z" />
<glyph unicode="B" horiz-adv-x="1260" d="M188 0v1443h444q202 0 318.5 -93t116.5 -255q0 -139 -79 -224t-220 -110v-4q165 -11 270.5 -112.5t105.5 -257.5q0 -185 -129 -286t-372 -101h-455zM228 38h415q222 0 341.5 91t119.5 258q0 164 -127 257.5t-350 93.5h-399v-700zM228 776h400q181 0 290 84.5t109 234.5 q0 144 -107 227t-287 83h-405v-629z" />
<glyph unicode="C" horiz-adv-x="1431" d="M126 722q0 341 170.5 541t461.5 200q139 0 261.5 -62.5t201.5 -171.5t94 -239h-40q-23 182 -173.5 308.5t-343.5 126.5q-269 0 -430.5 -191.5t-161.5 -511.5q0 -321 161 -512.5t431 -191.5q205 0 351.5 116.5t165.5 295.5h40q-19 -199 -174.5 -324.5t-382.5 -125.5 q-293 0 -462.5 199t-169.5 543z" />
<glyph unicode="D" horiz-adv-x="1436" d="M188 0v1443h431q172 0 304 -51.5t216.5 -146.5t127.5 -226.5t43 -296.5q0 -336 -175.5 -529t-515.5 -193h-431zM229 38h390q312 0 481 183t169 501t-169 500.5t-481 182.5h-390v-1367z" />
<glyph unicode="E" horiz-adv-x="1145" d="M188 0v1443h821v-38h-781v-645h745v-38h-745v-684h781v-38h-821z" />
<glyph unicode="F" horiz-adv-x="1116" d="M188 0v1443h812v-38h-772v-645h711v-38h-711v-722h-40z" />
<glyph unicode="G" horiz-adv-x="1455" d="M126 722q0 219 76 387.5t216.5 261t323.5 92.5q212 0 367.5 -118t194.5 -306h-40q-42 174 -184.5 280t-337.5 106q-171 0 -302.5 -88t-202.5 -247.5t-71 -367.5q0 -311 163 -507.5t423 -196.5q251 0 394 146.5t143 398.5v85h-516v38h556v-125q0 -269 -155 -425t-422 -156 q-184 0 -326.5 93t-221 262t-78.5 387z" />
<glyph unicode="H" horiz-adv-x="1416" d="M188 0v1443h40v-682h960v682h40v-1443h-40v723h-960v-723h-40z" />
<glyph unicode="I" horiz-adv-x="416" d="M188 0v1443h40v-1443h-40z" />
<glyph unicode="J" horiz-adv-x="1057" d="M106 313h40q7 -127 102.5 -211t232.5 -84q163 0 255.5 98.5t92.5 271.5v1055h40v-1070q0 -180 -105 -286.5t-283 -106.5q-158 0 -264 94t-111 239z" />
<glyph unicode="K" horiz-adv-x="1226" d="M188 0v1443h40v-846h4l795 846h51l-582 -622l654 -821h-52l-631 793l-239 -255v-538h-40z" />
<glyph unicode="L" horiz-adv-x="1084" d="M188 0v1443h40v-1405h781v-38h-821z" />
<glyph unicode="M" horiz-adv-x="1698" d="M188 0v1443h42l617 -1393h4l614 1393h45v-1443h-41v1344h-4l-593 -1344h-46l-593 1344h-4v-1344h-41z" />
<glyph unicode="N" horiz-adv-x="1436" d="M188 0v1443h46l970 -1364h4v1364h40v-1443h-36l-980 1376h-4v-1376h-40z" />
<glyph unicode="O" horiz-adv-x="1520" d="M126 722q0 343 170.5 542t463.5 199t463.5 -199t170.5 -542q0 -344 -170 -543t-464 -199t-464 199t-170 543zM166 722q0 -321 161.5 -512.5t432.5 -191.5t432.5 191.5t161.5 512.5t-161.5 512t-432.5 191t-432.5 -191t-161.5 -512z" />
<glyph unicode="P" horiz-adv-x="1208" d="M188 0v1443h440q213 0 338.5 -113t125.5 -305t-125.5 -304.5t-338.5 -112.5h-400v-608h-40zM228 646h400q193 0 309 103t116 276t-115.5 276.5t-309.5 103.5h-400v-759z" />
<glyph unicode="Q" horiz-adv-x="1520" d="M126 722q0 343 170.5 542t463.5 199t463.5 -199t170.5 -542q0 -228 -77.5 -397t-223.5 -258l183 -250h-48l-169 231q-130 -68 -299 -68q-294 0 -464 199t-170 543zM166 722q0 -321 161.5 -512.5t432.5 -191.5q154 0 275 64l-200 274h48l185 -254q137 85 211 246t74 374 q0 321 -161 512t-432 191t-432.5 -191t-161.5 -512z" />
<glyph unicode="R" horiz-adv-x="1245" d="M188 0v1443h440q217 0 340.5 -108t123.5 -297q0 -157 -93 -261.5t-258 -133.5l385 -643h-46l-383 637q-33 -3 -69 -3h-400v-634h-40zM228 672h400q197 0 311 98t114 268t-114 268.5t-311 98.5h-400v-733z" />
<glyph unicode="S" horiz-adv-x="1236" d="M116 371h40q6 -98 71 -179.5t172.5 -127.5t232.5 -46q196 0 322 102t126 252q0 124 -95.5 207.5t-300.5 132.5l-121 29q-219 52 -314.5 133t-95.5 213q0 157 131.5 266.5t328.5 109.5q198 0 332 -100.5t145 -246.5h-40q-12 128 -135.5 218.5t-301.5 90.5q-179 0 -299 -99 t-120 -239q0 -116 89 -188.5t290 -119.5l123 -29q220 -52 322 -144.5t102 -233.5q0 -169 -137.5 -280.5t-351.5 -111.5q-211 0 -358.5 111.5t-156.5 279.5z" />
<glyph unicode="T" horiz-adv-x="1240" d="M75 1405v38h1090v-38h-525v-1405h-40v1405h-525z" />
<glyph unicode="U" horiz-adv-x="1428" d="M188 510v933h40v-933q0 -219 134.5 -350t351.5 -131t351.5 131t134.5 350v933h40v-933q0 -241 -143.5 -380t-382.5 -139t-382.5 139t-143.5 380z" />
<glyph unicode="V" horiz-adv-x="1326" d="M85 1443h44l532 -1383h4l532 1383h44l-557 -1443h-42z" />
<glyph unicode="W" horiz-adv-x="1898" d="M106 1443h41l381 -1356h4l401 1356h32l401 -1356h4l381 1356h41l-407 -1443h-31l-403 1353h-4l-403 -1353h-31z" />
<glyph unicode="X" horiz-adv-x="1312" d="M106 0l526 721l-526 722h48l502 -688l502 688h48l-525 -721l525 -722h-48l-501 688l-503 -688h-48z" />
<glyph unicode="Y" horiz-adv-x="1270" d="M86 1443h49l499 -766h4l498 766h48l-528 -811v-632h-40v632z" />
<glyph unicode="Z" horiz-adv-x="1268" d="M126 0v36l964 1365v4h-935v38h987v-37l-963 -1364v-4h963v-38h-1016z" />
<glyph unicode="[" horiz-adv-x="678" d="M209 -235v1678h338v-38h-298v-1602h313v-38h-353z" />
<glyph unicode="\" horiz-adv-x="658" d="M84 1443h42l448 -1775h-41z" />
<glyph unicode="]" horiz-adv-x="678" d="M116 -197h313v1602h-298v38h338v-1678h-353v38z" />
<glyph unicode="^" horiz-adv-x="866" d="M116 826l302 583h30l302 -583h-46l-270 524h-2l-270 -524h-46z" />
<glyph unicode="_" horiz-adv-x="927" d="M-3 -155h933v-38h-933v38z" />
<glyph unicode="`" horiz-adv-x="790" d="M248 1580h52l246 -304h-48z" />
<glyph unicode="a" horiz-adv-x="1114" d="M124 288q0 134 96.5 211.5t281.5 91.5l395 31v117q0 151 -84 233t-238 82q-144 0 -244.5 -66t-122.5 -176h-41q21 127 132.5 203.5t275.5 76.5q172 0 267 -92t95 -259v-741h-40v244h-4q-42 -118 -154 -189t-256 -71q-161 0 -260 84t-99 220zM164 288q0 -118 88.5 -192 t230.5 -74q113 0 208.5 50.5t150.5 137.5t55 190v184l-386 -30q-169 -13 -258 -81.5t-89 -184.5z" />
<glyph unicode="b" horiz-adv-x="1240" d="M194 0v1506h40v-728h4q46 145 159 229.5t260 84.5q202 0 328 -153t126 -399t-126.5 -401t-327.5 -155q-150 0 -263.5 88t-155.5 238h-4v-310h-40zM234 540q0 -227 119 -372.5t304 -145.5q184 0 299 144.5t115 374.5q0 229 -114.5 371t-299.5 142q-186 0 -304.5 -144 t-118.5 -370z" />
<glyph unicode="c" horiz-adv-x="1143" d="M129 541q0 253 126 402t341 149q159 0 275 -85t143 -221h-40q-32 122 -135 195t-243 73q-195 0 -311 -139t-116 -374q0 -236 116.5 -377.5t310.5 -141.5q143 0 245.5 69.5t129.5 184.5h42q-29 -135 -141 -213.5t-276 -78.5q-214 0 -340.5 150.5t-126.5 406.5z" />
<glyph unicode="d" horiz-adv-x="1250" d="M129 537q0 244 130.5 399.5t333.5 155.5q147 0 260 -85.5t159 -230.5h4v730h40v-1506h-40v310h-4q-41 -149 -155 -237.5t-264 -88.5q-204 0 -334 155t-130 398zM169 538q0 -226 119 -371t305 -145t304.5 144.5t118.5 371.5q0 226 -119 371t-304 145q-186 0 -305 -145 t-119 -371z" />
<glyph unicode="e" horiz-adv-x="1182" d="M129 537q0 254 128 404.5t344 150.5q208 0 330 -139.5t122 -376.5v-38h-884v-1q0 -234 119 -374.5t317 -140.5q136 0 239 59t139 157h46q-41 -116 -156 -185t-268 -69q-218 0 -347 150t-129 403zM170 576h843q0 218 -112.5 348t-299.5 130t-304.5 -130t-126.5 -348z" />
<glyph unicode="f" horiz-adv-x="668" d="M78 1038v38h179v149q0 125 62 193t177 68q46 0 81 -9v-38q-37 9 -81 9q-94 0 -146.5 -58.5t-52.5 -164.5v-149h269v-38h-269v-1038h-40v1038h-179z" />
<glyph unicode="g" horiz-adv-x="1230" d="M129 545q0 243 127.5 395t331.5 152q148 0 261.5 -89.5t152.5 -235.5h4v309h40v-1084q0 -166 -123 -270t-318 -104q-162 0 -273 65t-135 174h43q26 -91 127 -146t240 -55q179 0 289 95.5t110 251.5v308h-4q-42 -146 -152 -228.5t-262 -82.5q-205 0 -332 151t-127 394z M169 546q0 -226 116 -367t303 -141q188 0 303 137.5t115 362.5q0 228 -116.5 372t-301.5 144q-186 0 -302.5 -141t-116.5 -367z" />
<glyph unicode="h" horiz-adv-x="1196" d="M194 0v1506h40v-680h4q49 125 155 195.5t246 70.5q177 0 278.5 -103.5t101.5 -282.5v-706h-40v693q0 172 -89 266.5t-252 94.5q-173 0 -288.5 -117t-115.5 -293v-644h-40z" />
<glyph unicode="i" horiz-adv-x="428" d="M167 1410q0 20 13.5 33.5t33.5 13.5t33.5 -13.5t13.5 -33.5t-13.5 -33.5t-33.5 -13.5t-33.5 13.5t-13.5 33.5zM194 0v1076h40v-1076h-40z" />
<glyph unicode="j" horiz-adv-x="428" d="M-20 -322h11q103 0 153 52t50 164v1182h40v-1178q0 -258 -241 -258h-13v38zM167 1410q0 20 13.5 33.5t33.5 13.5t33.5 -13.5t13.5 -33.5t-13.5 -33.5t-33.5 -13.5t-33.5 13.5t-13.5 33.5z" />
<glyph unicode="k" horiz-adv-x="1047" d="M194 0v1506h40v-1010h4l655 580h59l-520 -463l521 -613h-54l-500 589l-165 -151v-438h-40z" />
<glyph unicode="l" horiz-adv-x="428" d="M194 0v1506h40v-1506h-40z" />
<glyph unicode="m" horiz-adv-x="1751" d="M184 0v1076h40v-250h4q33 120 124 193t209 73q123 0 208.5 -70.5t114.5 -195.5h4q37 123 131 194.5t219 71.5q157 0 246.5 -99.5t89.5 -272.5v-720h-40v710q0 161 -78.5 252.5t-217.5 91.5q-151 0 -245 -109t-94 -284v-661h-40v697q0 161 -82 259t-216 98 q-142 0 -239.5 -118t-97.5 -292v-644h-40z" />
<glyph unicode="n" horiz-adv-x="1186" d="M184 0v1076h40v-250h4q49 125 155 195.5t246 70.5q177 0 278.5 -103.5t101.5 -282.5v-706h-40v693q0 171 -89 266t-252 95q-173 0 -288.5 -117t-115.5 -293v-644h-40z" />
<glyph unicode="o" horiz-adv-x="1204" d="M129 538q0 253 128.5 403.5t344.5 150.5t344.5 -150.5t128.5 -403.5t-128.5 -403.5t-344.5 -150.5t-344.5 150.5t-128.5 403.5zM169 538q0 -234 118.5 -375t314.5 -141t314.5 141.5t118.5 374.5t-118.5 374.5t-314.5 141.5t-314.5 -141t-118.5 -375z" />
<glyph unicode="p" horiz-adv-x="1230" d="M184 -350v1426h38v-310h4q44 149 157.5 237.5t263.5 88.5q202 0 328 -154t126 -400t-126.5 -400t-327.5 -154q-147 0 -260 85.5t-159 230.5h-4v-650h-40zM224 538q0 -226 119 -371t304 -145q184 0 299 143t115 372t-115 373t-299 144q-186 0 -304.5 -144.5t-118.5 -371.5 z" />
<glyph unicode="q" horiz-adv-x="1240" d="M129 539q0 243 130 398t334 155q150 0 263.5 -88.5t157.5 -237.5h4v310h38v-1426h-40v650h-4q-46 -145 -159 -230.5t-260 -85.5q-203 0 -333.5 155.5t-130.5 399.5zM169 538q0 -226 119 -371t305 -145t304.5 144.5t118.5 371.5t-118.5 371.5t-304.5 144.5t-305 -145 t-119 -371z" />
<glyph unicode="r" horiz-adv-x="728" d="M184 0v1076h40v-216h4q34 109 114.5 170.5t189.5 61.5q72 0 133 -19v-41q-61 22 -133 22q-130 0 -219 -108t-89 -266v-680h-40z" />
<glyph unicode="s" horiz-adv-x="1027" d="M119 260h42q22 -111 121 -174.5t247 -63.5q140 0 239.5 73t99.5 179q0 101 -70 158t-230 94l-113 26q-152 35 -223.5 95t-71.5 164q0 118 107 199.5t253 81.5q147 0 249 -70.5t122 -187.5h-40q-18 99 -110 159.5t-221 60.5t-224.5 -71t-95.5 -172q0 -89 65.5 -140 t207.5 -84l108 -25q171 -40 249.5 -104.5t78.5 -180.5q0 -126 -110 -209.5t-270 -83.5q-169 0 -279.5 73.5t-130.5 202.5z" />
<glyph unicode="t" horiz-adv-x="678" d="M64 1038v38h180v281h40v-281h270v-38h-270v-797q0 -109 45 -156t150 -47h75v-38h-75q-126 0 -180.5 55.5t-54.5 185.5v797h-180z" />
<glyph unicode="u" horiz-adv-x="1186" d="M177 370v706h40v-693q0 -162 98 -261.5t258 -99.5q170 0 279.5 115t109.5 294v645h40v-1076h-38v250h-4q-39 -123 -143 -194.5t-245 -71.5q-176 0 -285.5 107t-109.5 279z" />
<glyph unicode="v" horiz-adv-x="1006" d="M64 1076h44l393 -1039h4l393 1039h44l-409 -1076h-60z" />
<glyph unicode="w" horiz-adv-x="1521" d="M64 1076h41l299 -1032h4l321 1032h58l321 -1032h4l304 1032h41l-317 -1076h-59l-321 1029h-4l-321 -1029h-59z" />
<glyph unicode="x" horiz-adv-x="988" d="M64 0l405 548l-405 528h52l376 -495h4l375 495h53l-406 -528l406 -548h-51l-378 514h-4l-377 -514h-50z" />
<glyph unicode="y" horiz-adv-x="1006" d="M64 1076h44l393 -1039h4l393 1039h44l-416 -1098q-55 -143 -95.5 -212.5t-86.5 -97.5t-119 -28h-25v38h31q73 0 121 49.5t100 179.5l29 73z" />
<glyph unicode="z" horiz-adv-x="1032" d="M119 0v41l744 993v4h-744v38h794v-41l-747 -993v-4h747v-38h-794z" />
<glyph unicode="{" horiz-adv-x="777" d="M150 588v83q95 0 134 51.5t39 178.5v295q0 166 73 234.5t250 68.5h47v-38h-73q-131 0 -193.5 -59t-62.5 -184v-350q0 -111 -39.5 -165t-125.5 -62v-20q87 -8 126 -62t39 -165v-418q0 -120 65 -181.5t191 -61.5h73v-38h-47q-175 0 -249 71.5t-74 240.5v354 q0 125 -38.5 176t-134.5 51z" />
<glyph unicode="|" horiz-adv-x="628" d="M294 -332v1775h40v-1775h-40z" />
<glyph unicode="}" horiz-adv-x="777" d="M84 -267h73q126 0 191 61.5t65 181.5v418q0 111 39 165t126 62v20q-86 8 -125.5 62t-39.5 165v350q0 125 -62.5 184t-193.5 59h-73v38h47q177 0 250 -68.5t73 -234.5v-295q0 -127 39 -178.5t134 -51.5v-83q-96 0 -134.5 -51t-38.5 -176v-354q0 -169 -74 -240.5 t-249 -71.5h-47v38z" />
<glyph unicode="~" horiz-adv-x="1210" d="M165 560q0 122 59 197.5t155 75.5q53 0 99 -25t128 -99q69 -62 118.5 -88t97.5 -26q76 0 130.5 72t58.5 177h40q0 -118 -67 -202.5t-162 -84.5q-64 0 -111 24t-131 100q-74 67 -115.5 90.5t-85.5 23.5q-76 0 -124 -65.5t-50 -169.5h-40z" />
<glyph unicode="&#xa1;" horiz-adv-x="572" d="M219 1050q0 28 20 47.5t47 19.5q28 0 47.5 -19.5t19.5 -47.5t-19.5 -47.5t-47.5 -19.5q-27 0 -47 19.5t-20 47.5zM266 -336v1037h40v-1037h-40z" />
<glyph unicode="&#xa2;" d="M170 692q0 244 138.5 394t351.5 157v210h40v-211q160 -7 283 -96.5t151 -208.5h-40q-34 114 -151.5 191t-265.5 77q-199 0 -333 -141.5t-134 -371.5q0 -231 134 -375.5t333 -144.5q155 0 272 74.5t142 179.5h42q-29 -123 -149 -204.5t-284 -87.5v-228h-40v228 q-213 7 -351.5 160t-138.5 398z" />
<glyph unicode="&#xa3;" d="M119 0v44q81 21 143 48.5t117 68.5t84 101t29 137q0 111 -71 294h-255v38h240q-28 73 -43 118.5t-29.5 115t-14.5 132.5q0 170 116 273t323 103q107 0 196 -19t132 -42v-41q-47 27 -133 45.5t-193 18.5q-192 0 -296.5 -93.5t-104.5 -246.5q0 -61 15.5 -131.5t29.5 -110.5 t45 -122h468v-38h-453q67 -179 67 -295q0 -77 -27.5 -139.5t-74 -103t-98 -66t-108.5 -37.5v-14h962v-38h-1066z" />
<glyph unicode="&#xa4;" d="M206 238l167 168q-95 108 -95 249q0 144 96 250l-168 167l29 29l167 -168q107 97 250 97q142 0 250 -95l167 166l29 -29l-167 -167q96 -106 96 -250q0 -142 -97 -250l168 -167l-29 -29l-167 168q-108 -97 -250 -97t-249 96l-168 -167zM318 655q0 -139 98 -237t236 -98 t236.5 98.5t98.5 236.5q0 139 -98 237.5t-237 98.5q-138 0 -236 -98.5t-98 -237.5z" />
<glyph unicode="&#xa5;" d="M103 1443h49l499 -736h4l498 736h48l-502 -743h338v-38h-364v-224h364v-38h-364v-400h-40v400h-366v38h366v224h-366v38h340z" />
<glyph unicode="&#xa6;" horiz-adv-x="628" d="M294 -332v705h40v-705h-40zM294 744v699h40v-699h-40z" />
<glyph unicode="&#xa7;" horiz-adv-x="1048" d="M133 585q0 107 75.5 180t206.5 94v2q-130 34 -191 96.5t-61 160.5q0 118 100.5 195.5t255.5 77.5q158 0 262.5 -71t117.5 -187h-40q-15 99 -108.5 159.5t-231.5 60.5q-137 0 -226.5 -66.5t-89.5 -167.5q0 -91 66.5 -148t209.5 -88l103 -23q172 -38 252.5 -107.5 t80.5 -179.5q0 -107 -75 -179.5t-207 -94.5v-2q131 -35 192 -97t61 -160q0 -118 -100.5 -195.5t-255.5 -77.5q-158 0 -262.5 71t-117.5 187h40q15 -99 108.5 -159.5t231.5 -60.5q137 0 226.5 66.5t89.5 167.5q0 91 -66.5 148t-209.5 88l-103 23q-173 38 -253.5 107.5 t-80.5 179.5zM174 587q0 -96 72 -155.5t231 -95.5l76 -17q142 2 231.5 72t89.5 180q0 97 -71.5 156t-230.5 95l-76 17q-143 -2 -232.5 -72.5t-89.5 -179.5z" />
<glyph unicode="&#xa8;" horiz-adv-x="790" d="M198 1288q0 25 17.5 42.5t42.5 17.5t42.5 -17.5t17.5 -42.5t-17.5 -42.5t-42.5 -17.5t-42.5 17.5t-17.5 42.5zM472 1288q0 25 17.5 42.5t42.5 17.5t42.5 -17.5t17.5 -42.5t-17.5 -42.5t-42.5 -17.5t-42.5 17.5t-17.5 42.5z" />
<glyph unicode="&#xa9;" horiz-adv-x="1742" d="M110 626q0 161 59 302.5t161 242.5t242.5 159t298.5 58q159 0 299.5 -58t242 -159t160.5 -242.5t59 -302.5q0 -160 -59 -301.5t-160.5 -242.5t-242.5 -159.5t-299 -58.5t-299 58.5t-242.5 159.5t-160.5 242.5t-59 301.5zM150 626q0 -152 56 -287t152.5 -230.5t230 -150.5 t282.5 -55q150 0 283.5 55t229.5 150.5t152 230t56 287.5t-56 288t-152 230t-229.5 150t-283.5 55t-283 -55t-229.5 -150t-152.5 -230t-56 -288zM470 633q0 198 110.5 314t281.5 116q138 0 233.5 -75t117.5 -182h-40q-27 97 -108.5 158t-202.5 61q-155 0 -253.5 -105.5 t-98.5 -286.5q0 -182 98.5 -289.5t253.5 -107.5q128 0 207.5 58t100.5 150h42q-25 -112 -116.5 -179t-233.5 -67q-171 0 -281.5 118t-110.5 317z" />
<glyph unicode="&#xaa;" horiz-adv-x="991" d="M146 813q0 107 77 168.5t225 73.5l310 25v89q0 115 -72 182.5t-195 67.5q-110 0 -182.5 -50t-89.5 -138h-38q16 103 99.5 163t211.5 60q141 0 223.5 -76.5t82.5 -206.5v-590h-38v193h-4q-30 -89 -120.5 -146.5t-202.5 -57.5q-128 0 -207.5 67t-79.5 176zM185 813 q0 -92 69.5 -149.5t180.5 -57.5q133 0 228 83.5t95 200.5v156l-301 -25q-133 -11 -202.5 -64.5t-69.5 -143.5z" />
<glyph unicode="&#xab;" horiz-adv-x="1300" d="M199 566v4l378 407h52l-371 -406v-6l371 -406h-52zM588 566v4l378 407h52l-371 -406v-6l371 -406h-52z" />
<glyph unicode="&#xac;" d="M169 690v38h966v-541h-40v503h-926z" />
<glyph unicode="&#xad;" horiz-adv-x="994" d="M169 566v38h656v-38h-656z" />
<glyph unicode="&#xae;" horiz-adv-x="1260" d="M129 983q0 138 66.5 253t182 181.5t252.5 66.5q210 0 355.5 -145.5t145.5 -355.5q0 -137 -66.5 -252.5t-181.5 -182t-253 -66.5q-209 0 -355 146t-146 355zM169 983q0 -193 133.5 -327t327.5 -134t327.5 133.5t133.5 327.5t-133.5 327.5t-327.5 133.5t-327.5 -133.5 t-133.5 -327.5zM454 719v551h196q78 0 128 -44t50 -123q0 -66 -39.5 -109t-93.5 -49l160 -226h-49l-157 220h-155v-220h-40zM494 977h144q73 0 111.5 35t38.5 93q0 56 -40 91.5t-111 35.5h-143v-255z" />
<glyph unicode="&#xaf;" horiz-adv-x="848" d="M105 1306v38h638v-38h-638z" />
<glyph unicode="&#xb0;" horiz-adv-x="766" d="M103 1182q0 117 82 199t198 82q117 0 198.5 -82t81.5 -199q0 -116 -82 -198t-198 -82t-198 82t-82 198zM146 1182q0 -97 70.5 -168.5t166.5 -71.5q97 0 167.5 71.5t70.5 168.5q0 98 -70.5 169t-167.5 71q-96 0 -166.5 -71.5t-70.5 -168.5z" />
<glyph unicode="&#xb1;" d="M169 113v38h966v-38h-966zM169 690v38h463v348h40v-348h463v-38h-463v-373h-40v373h-463z" />
<glyph unicode="&#xb2;" horiz-adv-x="747" d="M105 907v29l317 335q97 102 133 159t36 112q0 87 -63 143.5t-161 56.5q-95 0 -157 -58t-65 -148h-39q2 107 75.5 174.5t186.5 67.5q115 0 189 -66t74 -168q0 -63 -39 -127.5t-143 -172.5l-285 -296v-4h503v-37h-562z" />
<glyph unicode="&#xb3;" horiz-adv-x="768" d="M90 1118h41q2 -77 75.5 -133.5t171.5 -56.5q110 0 184 60.5t74 149.5q0 91 -72 143t-198 52h-98v38h97q102 0 165 51t63 134q0 77 -63.5 130.5t-155.5 53.5q-91 0 -154 -51t-69 -129h-41q6 95 80.5 155.5t184.5 60.5q109 0 184 -63t75 -154q0 -79 -48 -134t-131 -69v-4 q102 -7 162.5 -65t60.5 -150q0 -105 -86 -175t-215 -70q-117 0 -201.5 66t-85.5 160z" />
<glyph unicode="&#xb4;" horiz-adv-x="790" d="M244 1276l246 304h52l-250 -304h-48z" />
<glyph unicode="&#xb5;" horiz-adv-x="1249" d="M194 -350v1426h40v-685q0 -172 93.5 -270.5t257.5 -98.5q166 0 270 115t104 294v645h40v-891q0 -82 28 -119.5t88 -37.5q36 0 65 10v-38q-25 -10 -70 -10q-77 0 -114 47t-37 144v62h-4q-40 -120 -138.5 -189.5t-231.5 -69.5q-134 0 -228 60.5t-119 162.5h-4v-557h-40z " />
<glyph unicode="&#xb6;" horiz-adv-x="1305" d="M273 1007q0 198 127.5 317t347.5 119h59v-1583h-40v715h-20q-211 0 -342.5 122.5t-131.5 309.5zM992 -140v1583h40v-1583h-40z" />
<glyph unicode="&#xb7;" horiz-adv-x="630" d="M249 739q0 28 19.5 47t46.5 19t46.5 -19t19.5 -47q0 -27 -19.5 -46.5t-46.5 -19.5t-46.5 19.5t-19.5 46.5z" />
<glyph unicode="&#xb8;" horiz-adv-x="790" d="M213 -398q58 -25 137 -25q68 0 114.5 35.5t46.5 90.5q0 56 -44 86.5t-123 30.5h-50v30l71 160h38v-10l-60 -142q96 0 152.5 -39t56.5 -115q0 -72 -58.5 -118.5t-144.5 -46.5q-78 0 -136 24v39z" />
<glyph unicode="&#xb9;" horiz-adv-x="537" d="M65 1576v43q168 106 243 149h38v-861h-37v818h-4q-62 -36 -240 -149z" />
<glyph unicode="&#xba;" horiz-adv-x="1051" d="M149 1011q0 203 103 323t273 120q171 0 274.5 -120t103.5 -323q0 -202 -103.5 -321.5t-274.5 -119.5t-273.5 119.5t-102.5 321.5zM189 1011q0 -185 92 -293.5t244 -108.5q153 0 245.5 109t92.5 293q0 186 -93 296t-245 110t-244 -110t-92 -296z" />
<glyph unicode="&#xbb;" horiz-adv-x="1300" d="M282 159l371 406v6l-371 406h52l378 -407v-4l-378 -407h-52zM671 159l371 406v6l-371 406h52l378 -407v-4l-378 -407h-52z" />
<glyph unicode="&#xbc;" horiz-adv-x="1948" d="M65 1251v43q168 106 243 149h38v-861h-37v818h-4q-62 -36 -240 -149zM536 0l325 737l312 706h42l-318 -721l-319 -722h-42zM1138 220v36q67 102 154 219t296 386h55v-605h142v-36h-142v-220h-39v220h-466zM1183 255h421v565h-3q-199 -257 -277 -362t-141 -201v-2z" />
<glyph unicode="&#xbd;" horiz-adv-x="1936" d="M65 1251v43q168 106 243 149h38v-861h-37v818h-4q-62 -36 -240 -149zM536 0l325 737l312 706h42l-318 -721l-319 -722h-42zM1229 0v29l317 335q97 102 133 159t36 112q0 87 -63 143.5t-161 56.5q-95 0 -157 -58t-65 -148h-39q2 107 75.5 174.5t186.5 67.5q115 0 189 -66 t74 -168q0 -63 -39 -127.5t-143 -172.5l-285 -296v-4h503v-37h-562z" />
<glyph unicode="&#xbe;" horiz-adv-x="2134" d="M90 793h41q2 -77 75.5 -133.5t171.5 -56.5q110 0 184 60.5t74 149.5q0 91 -72 143t-198 52h-98v38h97q102 0 165 51t63 134q0 77 -63.5 130.5t-155.5 53.5q-91 0 -154 -51t-69 -129h-41q6 95 80.5 155.5t184.5 60.5q109 0 184 -63t75 -154q0 -79 -48 -134t-131 -69v-4 q102 -7 162.5 -65t60.5 -150q0 -105 -86 -175t-215 -70q-117 0 -201.5 66t-85.5 160zM726 0l325 737l312 706h42l-318 -721l-319 -722h-42zM1328 220v36q67 102 154 219t296 386h55v-605h142v-36h-142v-220h-39v220h-466zM1373 255h421v565h-3q-199 -257 -277 -362 t-141 -201v-2z" />
<glyph unicode="&#xbf;" horiz-adv-x="951" d="M106 -14q0 97 48.5 173t165.5 161q104 76 141.5 134.5t37.5 149.5v100h40v-100q0 -100 -40 -167t-151 -146q-110 -79 -156 -149.5t-46 -154.5q0 -136 97.5 -225t240.5 -89q135 0 232.5 87.5t110.5 228.5h39q-10 -152 -118.5 -253t-263.5 -101q-162 0 -270 100.5 t-108 250.5zM442 1050q0 28 20 47.5t47 19.5q28 0 47.5 -19.5t19.5 -47.5t-19.5 -47.5t-47.5 -19.5q-27 0 -47 19.5t-20 47.5z" />
<glyph unicode="&#xc0;" horiz-adv-x="1326" d="M86 0l556 1443h42l556 -1443h-45l-193 507h-678l-193 -507h-45zM339 546h648l-322 839h-4zM351 1876h58l308 -296h-54z" />
<glyph unicode="&#xc1;" horiz-adv-x="1326" d="M86 0l556 1443h42l556 -1443h-45l-193 507h-678l-193 -507h-45zM339 546h648l-322 839h-4zM619 1580l308 296h58l-312 -296h-54z" />
<glyph unicode="&#xc2;" horiz-adv-x="1326" d="M86 0l556 1443h42l556 -1443h-45l-193 507h-678l-193 -507h-45zM339 546h648l-322 839h-4zM381 1580l264 296h36l264 -296h-52l-229 258h-2l-229 -258h-52z" />
<glyph unicode="&#xc3;" horiz-adv-x="1326" d="M86 0l556 1443h42l556 -1443h-45l-193 507h-678l-193 -507h-45zM339 546h648l-322 839h-4zM373 1580q0 88 44 143t113 55q38 0 69.5 -16.5t52.5 -40t41 -47t46 -40t57 -16.5q50 0 83.5 46t33.5 114h40q0 -88 -44 -143t-113 -55q-38 0 -69.5 16.5t-52.5 40t-41 47t-46 40 t-57 16.5q-50 0 -83.5 -46t-33.5 -114h-40z" />
<glyph unicode="&#xc4;" horiz-adv-x="1326" d="M86 0l556 1443h42l556 -1443h-45l-193 507h-678l-193 -507h-45zM339 546h648l-322 839h-4zM466 1613q0 25 17.5 42.5t42.5 17.5t42.5 -17.5t17.5 -42.5t-17.5 -42.5t-42.5 -17.5t-42.5 17.5t-17.5 42.5zM740 1613q0 25 17.5 42.5t42.5 17.5t42.5 -17.5t17.5 -42.5 t-17.5 -42.5t-42.5 -17.5t-42.5 17.5t-17.5 42.5z" />
<glyph unicode="&#xc5;" horiz-adv-x="1326" d="M86 0l556 1443h42l556 -1443h-45l-193 507h-678l-193 -507h-45zM339 546h648l-322 839h-4zM493 1737q0 71 49.5 120.5t120.5 49.5t120.5 -49.5t49.5 -120.5t-49.5 -120.5t-120.5 -49.5t-120.5 49.5t-49.5 120.5zM532 1737q0 -55 38 -93t93 -38q54 0 92.5 38t38.5 93 t-38 93t-93 38t-93 -38t-38 -93z" />
<glyph unicode="&#xc6;" horiz-adv-x="1931" d="M86 0l736 1443h973v-38h-719v-645h683v-38h-683v-684h719v-38h-757v407h-700l-207 -407h-45zM357 446h681v959h-194z" />
<glyph unicode="&#xc7;" horiz-adv-x="1431" d="M126 722q0 341 170.5 541t461.5 200q139 0 261.5 -62.5t201.5 -171.5t94 -239h-40q-23 182 -173.5 308.5t-343.5 126.5q-269 0 -430.5 -191.5t-161.5 -511.5q0 -321 161 -512.5t431 -191.5q205 0 351.5 116.5t165.5 295.5h40q-19 -195 -169.5 -320t-372.5 -130l-52 -122 q96 0 152.5 -39t56.5 -115q0 -72 -58.5 -118.5t-144.5 -46.5q-78 0 -136 24v39q58 -25 137 -25q68 0 114.5 35.5t46.5 90.5q0 56 -44 86.5t-123 30.5h-50v30l58 130q-281 11 -442.5 208.5t-161.5 533.5z" />
<glyph unicode="&#xc8;" horiz-adv-x="1145" d="M188 0v1443h821v-38h-781v-645h745v-38h-745v-684h781v-38h-821zM287 1876h58l308 -296h-54z" />
<glyph unicode="&#xc9;" horiz-adv-x="1145" d="M188 0v1443h821v-38h-781v-645h745v-38h-745v-684h781v-38h-821zM555 1580l308 296h58l-312 -296h-54z" />
<glyph unicode="&#xca;" horiz-adv-x="1145" d="M188 0v1443h821v-38h-781v-645h745v-38h-745v-684h781v-38h-821zM317 1580l264 296h36l264 -296h-52l-229 258h-2l-229 -258h-52z" />
<glyph unicode="&#xcb;" horiz-adv-x="1145" d="M188 0v1443h821v-38h-781v-645h745v-38h-745v-684h781v-38h-821zM402 1613q0 25 17.5 42.5t42.5 17.5t42.5 -17.5t17.5 -42.5t-17.5 -42.5t-42.5 -17.5t-42.5 17.5t-17.5 42.5zM676 1613q0 25 17.5 42.5t42.5 17.5t42.5 -17.5t17.5 -42.5t-17.5 -42.5t-42.5 -17.5 t-42.5 17.5t-17.5 42.5z" />
<glyph unicode="&#xcc;" horiz-adv-x="416" d="M-104 1876h58l308 -296h-54zM188 0v1443h40v-1443h-40z" />
<glyph unicode="&#xcd;" horiz-adv-x="416" d="M164 1580l308 296h58l-312 -296h-54zM188 0v1443h40v-1443h-40z" />
<glyph unicode="&#xce;" horiz-adv-x="416" d="M-74 1580l264 296h36l264 -296h-52l-229 258h-2l-229 -258h-52zM188 0v1443h40v-1443h-40z" />
<glyph unicode="&#xcf;" horiz-adv-x="416" d="M11 1613q0 25 17.5 42.5t42.5 17.5t42.5 -17.5t17.5 -42.5t-17.5 -42.5t-42.5 -17.5t-42.5 17.5t-17.5 42.5zM188 0v1443h40v-1443h-40zM285 1613q0 25 17.5 42.5t42.5 17.5t42.5 -17.5t17.5 -42.5t-17.5 -42.5t-42.5 -17.5t-42.5 17.5t-17.5 42.5z" />
<glyph unicode="&#xd0;" horiz-adv-x="1436" d="M14 721v38h174v684h431q172 0 304 -51.5t216.5 -146.5t127.5 -226.5t43 -296.5q0 -336 -175.5 -529t-515.5 -193h-431v721h-174zM229 38h390q312 0 481 183t169 501t-169 500.5t-481 182.5h-390v-646h325v-38h-325v-683z" />
<glyph unicode="&#xd1;" horiz-adv-x="1436" d="M188 0v1443h46l970 -1364h4v1364h40v-1443h-36l-980 1376h-4v-1376h-40zM428 1580q0 88 44 143t113 55q38 0 69.5 -16.5t52.5 -40t41 -47t46 -40t57 -16.5q50 0 83.5 46t33.5 114h40q0 -88 -44 -143t-113 -55q-38 0 -69.5 16.5t-52.5 40t-41 47t-46 40t-57 16.5 q-50 0 -83.5 -46t-33.5 -114h-40z" />
<glyph unicode="&#xd2;" horiz-adv-x="1520" d="M126 722q0 343 170.5 542t463.5 199t463.5 -199t170.5 -542q0 -344 -170 -543t-464 -199t-464 199t-170 543zM166 722q0 -321 161.5 -512.5t432.5 -191.5t432.5 191.5t161.5 512.5t-161.5 512t-432.5 191t-432.5 -191t-161.5 -512zM448 1876h58l308 -296h-54z" />
<glyph unicode="&#xd3;" horiz-adv-x="1520" d="M126 722q0 343 170.5 542t463.5 199t463.5 -199t170.5 -542q0 -344 -170 -543t-464 -199t-464 199t-170 543zM166 722q0 -321 161.5 -512.5t432.5 -191.5t432.5 191.5t161.5 512.5t-161.5 512t-432.5 191t-432.5 -191t-161.5 -512zM716 1580l308 296h58l-312 -296h-54z " />
<glyph unicode="&#xd4;" horiz-adv-x="1520" d="M126 722q0 343 170.5 542t463.5 199t463.5 -199t170.5 -542q0 -344 -170 -543t-464 -199t-464 199t-170 543zM166 722q0 -321 161.5 -512.5t432.5 -191.5t432.5 191.5t161.5 512.5t-161.5 512t-432.5 191t-432.5 -191t-161.5 -512zM478 1580l264 296h36l264 -296h-52 l-229 258h-2l-229 -258h-52z" />
<glyph unicode="&#xd5;" horiz-adv-x="1520" d="M126 722q0 343 170.5 542t463.5 199t463.5 -199t170.5 -542q0 -344 -170 -543t-464 -199t-464 199t-170 543zM166 722q0 -321 161.5 -512.5t432.5 -191.5t432.5 191.5t161.5 512.5t-161.5 512t-432.5 191t-432.5 -191t-161.5 -512zM470 1580q0 88 44 143t113 55 q38 0 69.5 -16.5t52.5 -40t41 -47t46 -40t57 -16.5q50 0 83.5 46t33.5 114h40q0 -88 -44 -143t-113 -55q-38 0 -69.5 16.5t-52.5 40t-41 47t-46 40t-57 16.5q-50 0 -83.5 -46t-33.5 -114h-40z" />
<glyph unicode="&#xd6;" horiz-adv-x="1520" d="M126 722q0 343 170.5 542t463.5 199t463.5 -199t170.5 -542q0 -344 -170 -543t-464 -199t-464 199t-170 543zM166 722q0 -321 161.5 -512.5t432.5 -191.5t432.5 191.5t161.5 512.5t-161.5 512t-432.5 191t-432.5 -191t-161.5 -512zM563 1613q0 25 17.5 42.5t42.5 17.5 t42.5 -17.5t17.5 -42.5t-17.5 -42.5t-42.5 -17.5t-42.5 17.5t-17.5 42.5zM837 1613q0 25 17.5 42.5t42.5 17.5t42.5 -17.5t17.5 -42.5t-17.5 -42.5t-42.5 -17.5t-42.5 17.5t-17.5 42.5z" />
<glyph unicode="&#xd7;" d="M296 907l29 29l327 -329l328 327l28 -27l-327 -328l327 -326l-29 -29l-326 327l-328 -327l-28 27l327 328z" />
<glyph unicode="&#xd8;" horiz-adv-x="1484" d="M89 -99l210 274q-173 201 -173 547q0 343 170.5 542t463.5 199q249 0 413 -147l190 248l32 -22l-194 -253q193 -201 193 -567q0 -344 -170 -543t-464 -199q-267 0 -434 167l-205 -268zM166 722q0 -320 160 -511l821 1071q-155 143 -387 143q-271 0 -432.5 -191 t-161.5 -512zM353 182q159 -164 407 -164q271 0 432.5 191.5t161.5 512.5q0 339 -180 532z" />
<glyph unicode="&#xd9;" horiz-adv-x="1428" d="M188 510v933h40v-933q0 -219 134.5 -350t351.5 -131t351.5 131t134.5 350v933h40v-933q0 -241 -143.5 -380t-382.5 -139t-382.5 139t-143.5 380zM402 1876h58l308 -296h-54z" />
<glyph unicode="&#xda;" horiz-adv-x="1428" d="M188 510v933h40v-933q0 -219 134.5 -350t351.5 -131t351.5 131t134.5 350v933h40v-933q0 -241 -143.5 -380t-382.5 -139t-382.5 139t-143.5 380zM670 1580l308 296h58l-312 -296h-54z" />
<glyph unicode="&#xdb;" horiz-adv-x="1428" d="M188 510v933h40v-933q0 -219 134.5 -350t351.5 -131t351.5 131t134.5 350v933h40v-933q0 -241 -143.5 -380t-382.5 -139t-382.5 139t-143.5 380zM432 1580l264 296h36l264 -296h-52l-229 258h-2l-229 -258h-52z" />
<glyph unicode="&#xdc;" horiz-adv-x="1428" d="M188 510v933h40v-933q0 -219 134.5 -350t351.5 -131t351.5 131t134.5 350v933h40v-933q0 -241 -143.5 -380t-382.5 -139t-382.5 139t-143.5 380zM517 1613q0 25 17.5 42.5t42.5 17.5t42.5 -17.5t17.5 -42.5t-17.5 -42.5t-42.5 -17.5t-42.5 17.5t-17.5 42.5zM791 1613 q0 25 17.5 42.5t42.5 17.5t42.5 -17.5t17.5 -42.5t-17.5 -42.5t-42.5 -17.5t-42.5 17.5t-17.5 42.5z" />
<glyph unicode="&#xdd;" horiz-adv-x="1270" d="M86 1443h49l499 -766h4l498 766h48l-528 -811v-632h-40v632zM591 1580l308 296h58l-312 -296h-54z" />
<glyph unicode="&#xde;" horiz-adv-x="1248" d="M188 0v1443h41v-293h416q207 0 327.5 -106.5t120.5 -292.5t-119 -291t-329 -105h-416v-355h-41zM229 393h417q192 0 300 96.5t108 261.5t-108 263t-300 98h-417v-719z" />
<glyph unicode="&#xdf;" horiz-adv-x="1128" d="M179 0v1101q0 179 96 282t269 103q165 0 268 -97t103 -246q0 -127 -72.5 -226.5t-181.5 -125.5v-2q158 -15 267.5 -128t109.5 -273q0 -173 -127.5 -290.5t-315.5 -117.5q-86 0 -181 17v41q78 -20 181 -20q168 0 285.5 105.5t117.5 264.5q0 164 -123.5 270.5t-326.5 106.5 h-113v38h113q134 0 230 98.5t96 240.5q0 136 -91.5 221t-237.5 85q-161 0 -243.5 -94.5t-82.5 -259.5v-1094h-40z" />
<glyph unicode="&#xe0;" horiz-adv-x="1114" d="M124 288q0 134 96.5 211.5t281.5 91.5l395 31v117q0 151 -84 233t-238 82q-144 0 -244.5 -66t-122.5 -176h-41q21 127 132.5 203.5t275.5 76.5q172 0 267 -92t95 -259v-741h-40v244h-4q-42 -118 -154 -189t-256 -71q-161 0 -260 84t-99 220zM164 288q0 -118 88.5 -192 t230.5 -74q113 0 208.5 50.5t150.5 137.5t55 190v184l-386 -30q-169 -13 -258 -81.5t-89 -184.5zM318 1580h52l246 -304h-48z" />
<glyph unicode="&#xe1;" horiz-adv-x="1114" d="M124 288q0 134 96.5 211.5t281.5 91.5l395 31v117q0 151 -84 233t-238 82q-144 0 -244.5 -66t-122.5 -176h-41q21 127 132.5 203.5t275.5 76.5q172 0 267 -92t95 -259v-741h-40v244h-4q-42 -118 -154 -189t-256 -71q-161 0 -260 84t-99 220zM164 288q0 -118 88.5 -192 t230.5 -74q113 0 208.5 50.5t150.5 137.5t55 190v184l-386 -30q-169 -13 -258 -81.5t-89 -184.5zM540 1276l246 304h52l-250 -304h-48z" />
<glyph unicode="&#xe2;" horiz-adv-x="1114" d="M124 288q0 134 96.5 211.5t281.5 91.5l395 31v117q0 151 -84 233t-238 82q-144 0 -244.5 -66t-122.5 -176h-41q21 127 132.5 203.5t275.5 76.5q172 0 267 -92t95 -259v-741h-40v244h-4q-42 -118 -154 -189t-256 -71q-161 0 -260 84t-99 220zM164 288q0 -118 88.5 -192 t230.5 -74q113 0 208.5 50.5t150.5 137.5t55 190v184l-386 -30q-169 -13 -258 -81.5t-89 -184.5zM292 1228l260 314h46l260 -314h-53l-229 279h-2l-229 -279h-53z" />
<glyph unicode="&#xe3;" horiz-adv-x="1114" d="M124 288q0 134 96.5 211.5t281.5 91.5l395 31v117q0 151 -84 233t-238 82q-144 0 -244.5 -66t-122.5 -176h-41q21 127 132.5 203.5t275.5 76.5q172 0 267 -92t95 -259v-741h-40v244h-4q-42 -118 -154 -189t-256 -71q-161 0 -260 84t-99 220zM164 288q0 -118 88.5 -192 t230.5 -74q113 0 208.5 50.5t150.5 137.5t55 190v184l-386 -30q-169 -13 -258 -81.5t-89 -184.5zM285 1228q0 87 43.5 142.5t113.5 55.5q38 0 69.5 -16.5t53.5 -40t42 -47t46 -40t56 -16.5q50 0 83 46t33 114h40q0 -87 -43.5 -142.5t-112.5 -55.5q-38 0 -69.5 16.5t-53.5 40 t-42 47t-46 40t-56 16.5q-50 0 -83.5 -46t-33.5 -114h-40z" />
<glyph unicode="&#xe4;" horiz-adv-x="1114" d="M124 288q0 134 96.5 211.5t281.5 91.5l395 31v117q0 151 -84 233t-238 82q-144 0 -244.5 -66t-122.5 -176h-41q21 127 132.5 203.5t275.5 76.5q172 0 267 -92t95 -259v-741h-40v244h-4q-42 -118 -154 -189t-256 -71q-161 0 -260 84t-99 220zM164 288q0 -118 88.5 -192 t230.5 -74q113 0 208.5 50.5t150.5 137.5t55 190v184l-386 -30q-169 -13 -258 -81.5t-89 -184.5zM378 1288q0 25 17.5 42.5t42.5 17.5t42.5 -17.5t17.5 -42.5t-17.5 -42.5t-42.5 -17.5t-42.5 17.5t-17.5 42.5zM652 1288q0 25 17.5 42.5t42.5 17.5t42.5 -17.5t17.5 -42.5 t-17.5 -42.5t-42.5 -17.5t-42.5 17.5t-17.5 42.5z" />
<glyph unicode="&#xe5;" horiz-adv-x="1114" d="M124 288q0 134 96.5 211.5t281.5 91.5l395 31v117q0 151 -84 233t-238 82q-144 0 -244.5 -66t-122.5 -176h-41q21 127 132.5 203.5t275.5 76.5q172 0 267 -92t95 -259v-741h-40v244h-4q-42 -118 -154 -189t-256 -71q-161 0 -260 84t-99 220zM164 288q0 -118 88.5 -192 t230.5 -74q113 0 208.5 50.5t150.5 137.5t55 190v184l-386 -30q-169 -13 -258 -81.5t-89 -184.5zM405 1398q0 71 49.5 120.5t120.5 49.5t120.5 -49.5t49.5 -120.5t-49.5 -120.5t-120.5 -49.5t-120.5 49.5t-49.5 120.5zM444 1398q0 -55 38 -93t93 -38q54 0 92.5 38t38.5 93 t-38 93t-93 38t-93 -38t-38 -93z" />
<glyph unicode="&#xe6;" horiz-adv-x="1950" d="M124 280q0 129 94 201t279 85l400 27v146q0 151 -84 233t-238 82q-144 0 -244.5 -66t-122.5 -176h-41q21 127 132.5 203.5t275.5 76.5q158 0 255.5 -84t101.5 -231h5q42 140 155.5 227.5t276.5 87.5q207 0 329.5 -138.5t122.5 -368.5v-38h-884v-7q0 -235 119 -376.5 t317 -141.5q136 0 239 59t139 157h46q-41 -116 -156 -185t-268 -69q-165 0 -279.5 85.5t-162.5 248.5h-4q-36 -153 -157.5 -243.5t-286.5 -90.5q-160 0 -259.5 82.5t-99.5 213.5zM164 280q0 -112 89 -185t230 -73q113 0 208.5 50.5t150.5 137.5t55 190v155l-391 -26 q-168 -11 -255 -74.5t-87 -174.5zM938 585h843q0 211 -112.5 340t-299.5 129t-304.5 -129t-126.5 -340z" />
<glyph unicode="&#xe7;" horiz-adv-x="1144" d="M129 541q0 253 126 402t341 149q159 0 275 -85t143 -221h-40q-32 122 -135 195t-243 73q-195 0 -311 -139t-116 -374q0 -236 116.5 -377.5t310.5 -141.5q143 0 245.5 69.5t129.5 184.5h42q-28 -132 -136 -210t-266 -82l-53 -126q96 0 152.5 -39t56.5 -115 q0 -72 -58.5 -118.5t-144.5 -46.5q-78 0 -136 24v39q58 -25 137 -25q68 0 114.5 35.5t46.5 90.5q0 56 -44 86.5t-123 30.5h-50v30l60 135q-203 10 -321.5 159.5t-118.5 396.5z" />
<glyph unicode="&#xe8;" horiz-adv-x="1182" d="M129 537q0 254 128 404.5t344 150.5q208 0 330 -139.5t122 -376.5v-38h-884v-1q0 -234 119 -374.5t317 -140.5q136 0 239 59t139 157h46q-41 -116 -156 -185t-268 -69q-218 0 -347 150t-129 403zM170 576h843q0 218 -112.5 348t-299.5 130t-304.5 -130t-126.5 -348z M339 1580h52l246 -304h-48z" />
<glyph unicode="&#xe9;" horiz-adv-x="1182" d="M129 537q0 254 128 404.5t344 150.5q208 0 330 -139.5t122 -376.5v-38h-884v-1q0 -234 119 -374.5t317 -140.5q136 0 239 59t139 157h46q-41 -116 -156 -185t-268 -69q-218 0 -347 150t-129 403zM170 576h843q0 218 -112.5 348t-299.5 130t-304.5 -130t-126.5 -348z M561 1276l246 304h52l-250 -304h-48z" />
<glyph unicode="&#xea;" horiz-adv-x="1182" d="M129 537q0 254 128 404.5t344 150.5q208 0 330 -139.5t122 -376.5v-38h-884v-1q0 -234 119 -374.5t317 -140.5q136 0 239 59t139 157h46q-41 -116 -156 -185t-268 -69q-218 0 -347 150t-129 403zM170 576h843q0 218 -112.5 348t-299.5 130t-304.5 -130t-126.5 -348z M313 1228l260 314h46l260 -314h-53l-229 279h-2l-229 -279h-53z" />
<glyph unicode="&#xeb;" horiz-adv-x="1182" d="M129 537q0 254 128 404.5t344 150.5q208 0 330 -139.5t122 -376.5v-38h-884v-1q0 -234 119 -374.5t317 -140.5q136 0 239 59t139 157h46q-41 -116 -156 -185t-268 -69q-218 0 -347 150t-129 403zM170 576h843q0 218 -112.5 348t-299.5 130t-304.5 -130t-126.5 -348z M399 1288q0 25 17.5 42.5t42.5 17.5t42.5 -17.5t17.5 -42.5t-17.5 -42.5t-42.5 -17.5t-42.5 17.5t-17.5 42.5zM673 1288q0 25 17.5 42.5t42.5 17.5t42.5 -17.5t17.5 -42.5t-17.5 -42.5t-42.5 -17.5t-42.5 17.5t-17.5 42.5z" />
<glyph unicode="&#xec;" horiz-adv-x="428" d="M-43 1580h52l246 -304h-48zM194 0v1076h40v-1076h-40z" />
<glyph unicode="&#xed;" horiz-adv-x="428" d="M179 1276l246 304h52l-250 -304h-48zM194 0v1076h40v-1076h-40z" />
<glyph unicode="&#xee;" horiz-adv-x="428" d="M-69 1228l260 314h46l260 -314h-53l-229 279h-2l-229 -279h-53zM194 0v1076h40v-1076h-40z" />
<glyph unicode="&#xef;" horiz-adv-x="428" d="M17 1288q0 25 17.5 42.5t42.5 17.5t42.5 -17.5t17.5 -42.5t-17.5 -42.5t-42.5 -17.5t-42.5 17.5t-17.5 42.5zM194 0v1076h40v-1076h-40zM291 1288q0 25 17.5 42.5t42.5 17.5t42.5 -17.5t17.5 -42.5t-17.5 -42.5t-42.5 -17.5t-42.5 17.5t-17.5 42.5z" />
<glyph unicode="&#xf0;" horiz-adv-x="1200" d="M129 537q0 223 131.5 369t332.5 146q135 0 240 -64.5t163 -184.5h4q-60 305 -240 486l-294 -128l-14 34l280 122q-77 71 -246 157h70q140 -73 212 -142l274 118l14 -34l-259 -111q259 -273 259 -751q0 -260 -124 -415t-332 -155t-339.5 154.5t-131.5 398.5zM169 538 q0 -228 120.5 -372t310.5 -144q184 0 300 140.5t116 363.5t-114.5 355.5t-308.5 132.5q-184 0 -304 -135t-120 -341z" />
<glyph unicode="&#xf1;" horiz-adv-x="1186" d="M184 0v1076h40v-250h4q49 125 155 195.5t246 70.5q177 0 278.5 -103.5t101.5 -282.5v-706h-40v693q0 171 -89 266t-252 95q-173 0 -288.5 -117t-115.5 -293v-644h-40zM339 1228q0 87 43.5 142.5t113.5 55.5q38 0 69.5 -16.5t53.5 -40t42 -47t46 -40t56 -16.5q50 0 83 46 t33 114h40q0 -87 -43.5 -142.5t-112.5 -55.5q-38 0 -69.5 16.5t-53.5 40t-42 47t-46 40t-56 16.5q-50 0 -83.5 -46t-33.5 -114h-40z" />
<glyph unicode="&#xf2;" horiz-adv-x="1204" d="M129 538q0 253 128.5 403.5t344.5 150.5t344.5 -150.5t128.5 -403.5t-128.5 -403.5t-344.5 -150.5t-344.5 150.5t-128.5 403.5zM169 538q0 -234 118.5 -375t314.5 -141t314.5 141.5t118.5 374.5t-118.5 374.5t-314.5 141.5t-314.5 -141t-118.5 -375zM345 1580h52 l246 -304h-48z" />
<glyph unicode="&#xf3;" horiz-adv-x="1204" d="M129 538q0 253 128.5 403.5t344.5 150.5t344.5 -150.5t128.5 -403.5t-128.5 -403.5t-344.5 -150.5t-344.5 150.5t-128.5 403.5zM169 538q0 -234 118.5 -375t314.5 -141t314.5 141.5t118.5 374.5t-118.5 374.5t-314.5 141.5t-314.5 -141t-118.5 -375zM567 1276l246 304h52 l-250 -304h-48z" />
<glyph unicode="&#xf4;" horiz-adv-x="1204" d="M129 538q0 253 128.5 403.5t344.5 150.5t344.5 -150.5t128.5 -403.5t-128.5 -403.5t-344.5 -150.5t-344.5 150.5t-128.5 403.5zM169 538q0 -234 118.5 -375t314.5 -141t314.5 141.5t118.5 374.5t-118.5 374.5t-314.5 141.5t-314.5 -141t-118.5 -375zM319 1228l260 314h46 l260 -314h-53l-229 279h-2l-229 -279h-53z" />
<glyph unicode="&#xf5;" horiz-adv-x="1204" d="M129 538q0 253 128.5 403.5t344.5 150.5t344.5 -150.5t128.5 -403.5t-128.5 -403.5t-344.5 -150.5t-344.5 150.5t-128.5 403.5zM169 538q0 -234 118.5 -375t314.5 -141t314.5 141.5t118.5 374.5t-118.5 374.5t-314.5 141.5t-314.5 -141t-118.5 -375zM312 1228 q0 87 43.5 142.5t113.5 55.5q38 0 69.5 -16.5t53.5 -40t42 -47t46 -40t56 -16.5q50 0 83 46t33 114h40q0 -87 -43.5 -142.5t-112.5 -55.5q-38 0 -69.5 16.5t-53.5 40t-42 47t-46 40t-56 16.5q-50 0 -83.5 -46t-33.5 -114h-40z" />
<glyph unicode="&#xf6;" horiz-adv-x="1204" d="M129 538q0 253 128.5 403.5t344.5 150.5t344.5 -150.5t128.5 -403.5t-128.5 -403.5t-344.5 -150.5t-344.5 150.5t-128.5 403.5zM169 538q0 -234 118.5 -375t314.5 -141t314.5 141.5t118.5 374.5t-118.5 374.5t-314.5 141.5t-314.5 -141t-118.5 -375zM405 1288 q0 25 17.5 42.5t42.5 17.5t42.5 -17.5t17.5 -42.5t-17.5 -42.5t-42.5 -17.5t-42.5 17.5t-17.5 42.5zM679 1288q0 25 17.5 42.5t42.5 17.5t42.5 -17.5t17.5 -42.5t-17.5 -42.5t-42.5 -17.5t-42.5 17.5t-17.5 42.5z" />
<glyph unicode="&#xf7;" d="M199 560v38h906v-38h-906zM587 223q0 28 19.5 47t46.5 19t46.5 -19t19.5 -47q0 -27 -19.5 -46.5t-46.5 -19.5t-46.5 19.5t-19.5 46.5zM587 910q0 28 19.5 47t46.5 19t46.5 -19t19.5 -47q0 -27 -19.5 -46.5t-46.5 -19.5t-46.5 19.5t-19.5 46.5z" />
<glyph unicode="&#xf8;" horiz-adv-x="1204" d="M114 -79l153 202q-138 152 -138 415q0 253 128.5 403.5t344.5 150.5q187 0 311 -115l146 193l32 -22l-151 -199q135 -152 135 -411q0 -253 -128.5 -403.5t-344.5 -150.5q-184 0 -307 112l-149 -197zM169 538q0 -239 123 -381l596 786q-116 111 -286 111 q-196 0 -314.5 -141t-118.5 -375zM320 129q112 -107 282 -107q196 0 314.5 141.5t118.5 374.5q0 235 -120 377z" />
<glyph unicode="&#xf9;" horiz-adv-x="1186" d="M177 370v706h40v-693q0 -162 98 -261.5t258 -99.5q170 0 279.5 115t109.5 294v645h40v-1076h-38v250h-4q-39 -123 -143 -194.5t-245 -71.5q-176 0 -285.5 107t-109.5 279zM333 1580h52l246 -304h-48z" />
<glyph unicode="&#xfa;" horiz-adv-x="1186" d="M177 370v706h40v-693q0 -162 98 -261.5t258 -99.5q170 0 279.5 115t109.5 294v645h40v-1076h-38v250h-4q-39 -123 -143 -194.5t-245 -71.5q-176 0 -285.5 107t-109.5 279zM555 1276l246 304h52l-250 -304h-48z" />
<glyph unicode="&#xfb;" horiz-adv-x="1186" d="M177 370v706h40v-693q0 -162 98 -261.5t258 -99.5q170 0 279.5 115t109.5 294v645h40v-1076h-38v250h-4q-39 -123 -143 -194.5t-245 -71.5q-176 0 -285.5 107t-109.5 279zM307 1228l260 314h46l260 -314h-53l-229 279h-2l-229 -279h-53z" />
<glyph unicode="&#xfc;" horiz-adv-x="1186" d="M177 370v706h40v-693q0 -162 98 -261.5t258 -99.5q170 0 279.5 115t109.5 294v645h40v-1076h-38v250h-4q-39 -123 -143 -194.5t-245 -71.5q-176 0 -285.5 107t-109.5 279zM393 1288q0 25 17.5 42.5t42.5 17.5t42.5 -17.5t17.5 -42.5t-17.5 -42.5t-42.5 -17.5t-42.5 17.5 t-17.5 42.5zM667 1288q0 25 17.5 42.5t42.5 17.5t42.5 -17.5t17.5 -42.5t-17.5 -42.5t-42.5 -17.5t-42.5 17.5t-17.5 42.5z" />
<glyph unicode="&#xfd;" horiz-adv-x="1006" d="M64 1076h44l393 -1039h4l393 1039h44l-416 -1098q-55 -143 -95.5 -212.5t-86.5 -97.5t-119 -28h-25v38h31q73 0 121 49.5t100 179.5l29 73zM468 1276l246 304h52l-250 -304h-48z" />
<glyph unicode="&#xfe;" horiz-adv-x="1240" d="M194 -395v1869h38v-708h4q44 149 157.5 237.5t263.5 88.5q202 0 328 -154t126 -400t-126.5 -400t-327.5 -154q-147 0 -260 85.5t-159 230.5h-4v-695h-40zM234 538q0 -226 119 -371t304 -145q184 0 299 143t115 372t-115 373t-299 144q-186 0 -304.5 -144.5t-118.5 -371.5 z" />
<glyph unicode="&#xff;" horiz-adv-x="1006" d="M64 1076h44l393 -1039h4l393 1039h44l-416 -1098q-55 -143 -95.5 -212.5t-86.5 -97.5t-119 -28h-25v38h31q73 0 121 49.5t100 179.5l29 73zM306 1288q0 25 17.5 42.5t42.5 17.5t42.5 -17.5t17.5 -42.5t-17.5 -42.5t-42.5 -17.5t-42.5 17.5t-17.5 42.5zM580 1288 q0 25 17.5 42.5t42.5 17.5t42.5 -17.5t17.5 -42.5t-17.5 -42.5t-42.5 -17.5t-42.5 17.5t-17.5 42.5z" />
<glyph unicode="&#x152;" horiz-adv-x="2311" d="M126 722q0 343 170.5 542t463.5 199q220 0 373 -115.5t217 -329.5h4v425h821v-38h-781v-645h745v-38h-745v-684h781v-38h-821v425h-4q-65 -215 -217.5 -330t-372.5 -115q-294 0 -464 199t-170 543zM166 722q0 -321 161.5 -512.5t432.5 -191.5t432 191.5t161 512.5 t-161 512t-432 191t-432.5 -191t-161.5 -512z" />
<glyph unicode="&#x153;" horiz-adv-x="2087" d="M129 538q0 253 128.5 404t343.5 151q177 0 303 -112.5t148 -288.5h4q21 176 145.5 288t299.5 112q205 0 331 -142.5t126 -373.5v-38h-884v-1q0 -232 120 -373.5t316 -141.5q136 0 239 59t139 157h46q-41 -116 -156 -185t-268 -69q-179 0 -306 111t-148 287h-4 q-20 -177 -145 -287.5t-306 -110.5q-216 0 -344 150t-128 404zM169 538q0 -234 118 -375t314 -141q197 0 315 140t118 372q0 235 -119 378t-314 143q-196 0 -314 -141.5t-118 -375.5zM1075 576h843q0 211 -116 344.5t-301 133.5q-182 0 -299.5 -131.5t-126.5 -346.5z" />
<glyph unicode="&#x178;" horiz-adv-x="1270" d="M86 1443h49l499 -766h4l498 766h48l-528 -811v-632h-40v632zM438 1613q0 25 17.5 42.5t42.5 17.5t42.5 -17.5t17.5 -42.5t-17.5 -42.5t-42.5 -17.5t-42.5 17.5t-17.5 42.5zM712 1613q0 25 17.5 42.5t42.5 17.5t42.5 -17.5t17.5 -42.5t-17.5 -42.5t-42.5 -17.5t-42.5 17.5 t-17.5 42.5z" />
<glyph unicode="&#x2c6;" horiz-adv-x="790" d="M112 1228l260 314h46l260 -314h-53l-229 279h-2l-229 -279h-53z" />
<glyph unicode="&#x2dc;" horiz-adv-x="790" d="M105 1228q0 87 43.5 142.5t113.5 55.5q38 0 69.5 -16.5t53.5 -40t42 -47t46 -40t56 -16.5q50 0 83 46t33 114h40q0 -87 -43.5 -142.5t-112.5 -55.5q-38 0 -69.5 16.5t-53.5 40t-42 47t-46 40t-56 16.5q-50 0 -83.5 -46t-33.5 -114h-40z" />
<glyph unicode="&#x2000;" horiz-adv-x="953" />
<glyph unicode="&#x2001;" horiz-adv-x="1907" />
<glyph unicode="&#x2002;" horiz-adv-x="953" />
<glyph unicode="&#x2003;" horiz-adv-x="1907" />
<glyph unicode="&#x2004;" horiz-adv-x="635" />
<glyph unicode="&#x2005;" horiz-adv-x="476" />
<glyph unicode="&#x2006;" horiz-adv-x="317" />
<glyph unicode="&#x2007;" horiz-adv-x="317" />
<glyph unicode="&#x2008;" horiz-adv-x="238" />
<glyph unicode="&#x2009;" horiz-adv-x="381" />
<glyph unicode="&#x200a;" horiz-adv-x="105" />
<glyph unicode="&#x2010;" horiz-adv-x="994" d="M169 566v38h656v-38h-656z" />
<glyph unicode="&#x2011;" horiz-adv-x="994" d="M169 566v38h656v-38h-656z" />
<glyph unicode="&#x2012;" horiz-adv-x="994" d="M169 566v38h656v-38h-656z" />
<glyph unicode="&#x2013;" horiz-adv-x="1024" d="M0 566v38h1024v-38h-1024z" />
<glyph unicode="&#x2014;" horiz-adv-x="2048" d="M0 566v38h2048v-38h-2048z" />
<glyph unicode="&#x2018;" horiz-adv-x="420" d="M134 1003l112 440h40l-112 -440h-40z" />
<glyph unicode="&#x2019;" horiz-adv-x="420" d="M124 1003l132 440h40l-132 -440h-40z" />
<glyph unicode="&#x201a;" horiz-adv-x="420" d="M124 -350l132 440h40l-132 -440h-40z" />
<glyph unicode="&#x201c;" horiz-adv-x="660" d="M134 1003l112 440h40l-112 -440h-40zM374 1003l112 440h40l-112 -440h-40z" />
<glyph unicode="&#x201d;" horiz-adv-x="660" d="M134 1003l112 440h40l-112 -440h-40zM374 1003l112 440h40l-112 -440h-40z" />
<glyph unicode="&#x201e;" horiz-adv-x="660" d="M134 -350l112 440h40l-112 -440h-40zM374 -350l112 440h40l-112 -440h-40z" />
<glyph unicode="&#x2022;" horiz-adv-x="1048" d="M348 558q0 73 52 124.5t124 51.5t124 -51.5t52 -124.5t-52 -124.5t-124 -51.5t-124 51.5t-52 124.5z" />
<glyph unicode="&#x2026;" horiz-adv-x="1590" d="M214 56q0 28 19.5 47t46.5 19t46.5 -19t19.5 -47q0 -27 -19.5 -46.5t-46.5 -19.5t-46.5 19.5t-19.5 46.5zM729 56q0 28 19.5 47t46.5 19t46.5 -19t19.5 -47q0 -27 -19.5 -46.5t-46.5 -19.5t-46.5 19.5t-19.5 46.5zM1244 56q0 28 19.5 47t46.5 19t46.5 -19t19.5 -47 q0 -27 -19.5 -46.5t-46.5 -19.5t-46.5 19.5t-19.5 46.5z" />
<glyph unicode="&#x202f;" horiz-adv-x="381" />
<glyph unicode="&#x2039;" horiz-adv-x="911" d="M199 566v4l378 407h52l-371 -406v-6l371 -406h-52z" />
<glyph unicode="&#x203a;" horiz-adv-x="911" d="M282 159l371 406v6l-371 406h52l378 -407v-4l-378 -407h-52z" />
<glyph unicode="&#x205f;" horiz-adv-x="476" />
<glyph unicode="&#x20ac;" d="M90 563v38h270q-7 55 -7 121q0 48 5 103h-268v38h273q27 191 126.5 328.5t243.5 204.5t318 67q84 0 133 -11v-39q-47 12 -133 12q-162 0 -297.5 -62.5t-229.5 -191.5t-121 -308h598v-38h-603q-5 -55 -5 -103q0 -54 7 -121h601v-38h-595q30 -174 124.5 -299t228 -185.5 t292.5 -60.5q87 0 133 12v-39q-49 -11 -133 -11q-171 0 -313.5 65t-242.5 198.5t-130 319.5h-275z" />
<glyph unicode="&#x2122;" horiz-adv-x="2035" d="M90 1406v37h684v-37h-322v-825h-40v825h-322zM950 581v862h45l356 -766l350 766h44v-862h-39v781l-338 -735h-34l-344 735v-781h-40z" />
<glyph unicode="&#x25fc;" horiz-adv-x="1075" d="M0 0v1075h1075v-1075h-1075z" />
<glyph unicode="&#xfb01;" horiz-adv-x="1096" d="M78 1038v38h179v149q0 125 62 193t177 68q46 0 81 -9v-38q-37 9 -81 9q-94 0 -146.5 -58.5t-52.5 -164.5v-149h269v-38h-269v-1038h-40v1038h-179zM835 1410q0 20 13.5 33.5t33.5 13.5t33.5 -13.5t13.5 -33.5t-13.5 -33.5t-33.5 -13.5t-33.5 13.5t-13.5 33.5zM862 0v1076 h40v-1076h-40z" />
<glyph unicode="&#xfb02;" horiz-adv-x="1096" d="M78 1038v38h179v149q0 125 62 193t177 68q46 0 81 -9v-38q-37 9 -81 9q-94 0 -146.5 -58.5t-52.5 -164.5v-149h269v-38h-269v-1038h-40v1038h-179zM862 0v1506h40v-1506h-40z" />
</font>
</defs>
</svg>
