<svg id="Layer_1" data-name="Layer 1" xmlns="http://www.w3.org/2000/svg" xmlns:xlink="http://www.w3.org/1999/xlink" viewBox="0 0 1400 785"><defs><style>.cls-1{fill:none;}.cls-2{fill:#95989d;fill-rule:evenodd;}.cls-3{fill:#1c212e;}.cls-4{fill:#f2f4fa;}.cls-5{fill:#dde1eb;}.cls-6{clip-path:url(#clip-path);}.cls-7{fill:#fff;}.cls-8{fill:#d81b77;}.cls-9{fill:#80858f;}.cls-10{fill:#90949e;}.cls-11{fill:#b7b8be;}.cls-12{fill:#4b5564;}.cls-13{fill:#b2b2b2;}.cls-14{fill:#cccbcb;}.cls-15{fill:#cdd1db;}.cls-16{fill:#111623;}.cls-17{clip-path:url(#clip-path-2);}.cls-18{fill:#272d3b;}.cls-19{clip-path:url(#clip-path-3);}.cls-20{fill:#d91c77;}.cls-21{fill:#7f838e;}.cls-22{fill:#91959e;}.cls-23{fill:#485160;}.cls-24{fill:#393e4a;}.cls-25{fill:#15171c;}.cls-26{clip-path:url(#clip-path-4);}.cls-27{fill:#7d828d;}.cls-28{fill:#484f5e;}.cls-29{fill:#90949d;}.cls-30{fill:#b5b7bd;}</style><clipPath id="clip-path"><rect id="Screen" class="cls-1" x="399.16" y="42.56" width="778.78" height="437.6"/></clipPath><clipPath id="clip-path-2"><rect id="Screen-2" data-name="Screen" class="cls-1" x="118.14" y="391.3" width="541.86" height="345"/></clipPath><clipPath id="clip-path-3"><rect id="Screen-3" data-name="Screen" class="cls-1" x="1011.12" y="307.34" width="293.63" height="387.25"/></clipPath><clipPath id="clip-path-4"><rect id="Screen-4" data-name="Screen" class="cls-1" x="1249.27" y="517.87" width="130.82" height="223.86"/></clipPath></defs><title>Artboard 1</title><g id="iMac"><g id="body"><path class="cls-2" d="M640.72,721.35h299c5.15,0,9.32.9,9.32,2v.42c0,1.1-4.17,2-9.32,2h-299c-5.15,0-9.32-.9-9.32-2v-.42C631.4,722.25,635.57,721.35,640.72,721.35Z"/><path class="cls-3" d="M1220.5,522.71V28.59A28.59,28.59,0,0,0,1191.91,0H385.19A28.59,28.59,0,0,0,356.6,28.59V522.71Z"/><path class="cls-4" d="M946.57,715.9c-6.1-1.41-22-4.62-30.7-6.63-10.93-2.52-9.67-13-9.67-13l-6.3-77.74H680.56l-6.3,77.74s1.26,10.5-9.67,13c-9.11,2.11-26.14,5.67-31.52,6.8-1.67.5-1.67,1.77-1.67,1.77v5.72H949.06V718S949.06,716.47,946.57,715.9Z"/><path class="cls-4" d="M356.6,522.71v67.22a28.58,28.58,0,0,0,28.59,28.58h806.72a28.58,28.58,0,0,0,28.59-28.58V522.71Z"/><polygon class="cls-5" points="901.88 642.89 899.9 618.51 680.56 618.51 678.59 642.89 901.88 642.89"/><path class="cls-5" d="M947.49,716.2H632.73a2,2,0,0,0-1.33,1.64v5.72H949.06V718S949.05,716.9,947.49,716.2Z"/></g><g id="Screen-5" data-name="Screen"><g class="cls-6"><rect id="Screen-6" data-name="Screen" class="cls-7" x="399.16" y="42.56" width="778.78" height="437.6"/><path class="cls-8" d="M805.3,74.4a16.7,16.7,0,1,1-16.7-16.7,16.73,16.73,0,0,1,16.7,16.7"/><path class="cls-9" d="M726.2,111.1a1.9,1.9,0,0,1-1.9,1.9H685.1a1.9,1.9,0,0,1-1.9-1.9v-5.8a1.9,1.9,0,0,1,1.9-1.9h39.2a1.9,1.9,0,0,1,1.9,1.9Z"/><path class="cls-9" d="M782.1,111.1a1.9,1.9,0,0,1-1.9,1.9H741a1.9,1.9,0,0,1-1.9-1.9v-5.8a1.9,1.9,0,0,1,1.9-1.9h39.2a1.9,1.9,0,0,1,1.9,1.9v5.8Z"/><path class="cls-9" d="M838,111.1a1.9,1.9,0,0,1-1.9,1.9H796.9a1.9,1.9,0,0,1-1.9-1.9v-5.8a1.9,1.9,0,0,1,1.9-1.9h39.2a1.9,1.9,0,0,1,1.9,1.9Z"/><path class="cls-9" d="M894,111.1a1.9,1.9,0,0,1-1.9,1.9H852.9a1.9,1.9,0,0,1-1.9-1.9v-5.8a1.9,1.9,0,0,1,1.9-1.9H892a1.9,1.9,0,0,1,1.9,1.9l.1,5.8Z"/><rect class="cls-10" x="372.1" y="128.6" width="825.6" height="2.5"/><rect class="cls-10" x="372.1" y="263.8" width="825.6" height="2.5"/><rect class="cls-11" x="372.1" y="131.2" width="825.6" height="132.6"/><path class="cls-12" d="M868.9,188.2a1.9,1.9,0,0,1-1.9,1.9H710.1a1.9,1.9,0,0,1-1.9-1.9V176a1.9,1.9,0,0,1,1.9-1.9H867a1.9,1.9,0,0,1,1.9,1.9Z"/><path class="cls-9" d="M888.2,204.3a1.9,1.9,0,0,1-1.9,1.9H690.8a1.9,1.9,0,0,1-1.9-1.9v-3.9a1.9,1.9,0,0,1,1.9-1.9H886.2a1.9,1.9,0,0,1,1.9,1.9v3.9Z"/><path class="cls-9" d="M688.9,212a1.9,1.9,0,0,1,1.9-1.9H886.2a1.9,1.9,0,0,1,1.9,1.9v3.9a1.9,1.9,0,0,1-1.9,1.9H690.8a1.9,1.9,0,0,1-1.9-1.9V212Z"/><polygon class="cls-10" points="975.9 196.2 967.2 189.7 967.2 191.1 974 196.2 967.2 201.3 967.2 202.8 975.9 196.2"/><polygon class="cls-10" points="600.9 196.2 609.5 202.8 609.5 201.3 602.8 196.2 609.5 191.1 609.5 189.7 600.9 196.2"/><path class="cls-9" d="M689.6,383.6a1.9,1.9,0,0,1-1.9,1.9H604.1a1.9,1.9,0,0,1-1.9-1.9V300a1.9,1.9,0,0,1,1.9-1.9h83.6a1.9,1.9,0,0,1,1.9,1.9Z"/><path class="cls-12" d="M642,397.7a1.9,1.9,0,0,1-1.9,1.9h-36a1.9,1.9,0,0,1-1.9-1.9v-3.9a1.9,1.9,0,0,1,1.9-1.9h36a1.9,1.9,0,0,1,1.9,1.9Z"/><path class="cls-9" d="M689.6,406.7a1.9,1.9,0,0,1-1.9,1.9H604.1a1.9,1.9,0,0,1-1.9-1.9v-1.9a1.9,1.9,0,0,1,1.9-1.9h83.6a1.9,1.9,0,0,1,1.9,1.9Z"/><path class="cls-9" d="M689.6,415.1a1.9,1.9,0,0,1-1.9,1.9H604.1a1.9,1.9,0,0,1-1.9-1.9v-1.9a1.9,1.9,0,0,1,1.9-1.9h83.6a1.9,1.9,0,0,1,1.9,1.9Z"/><path class="cls-9" d="M784.7,383.6a1.9,1.9,0,0,1-1.9,1.9H699.2a1.9,1.9,0,0,1-1.9-1.9V300a1.9,1.9,0,0,1,1.9-1.9h83.6a1.9,1.9,0,0,1,1.9,1.9Z"/><path class="cls-12" d="M737.1,397.7a1.9,1.9,0,0,1-1.9,1.9h-36a1.9,1.9,0,0,1-1.9-1.9v-3.9a1.9,1.9,0,0,1,1.9-1.9h36a1.9,1.9,0,0,1,1.9,1.9Z"/><path class="cls-9" d="M784.7,406.7a1.9,1.9,0,0,1-1.9,1.9H699.2a1.9,1.9,0,0,1-1.9-1.9v-1.9a1.9,1.9,0,0,1,1.9-1.9h83.6a1.9,1.9,0,0,1,1.9,1.9Z"/><path class="cls-9" d="M784.7,415.1a1.9,1.9,0,0,1-1.9,1.9H699.2a1.9,1.9,0,0,1-1.9-1.9v-1.9a1.9,1.9,0,0,1,1.9-1.9h83.6a1.9,1.9,0,0,1,1.9,1.9Z"/><path class="cls-9" d="M879.8,383.6a1.9,1.9,0,0,1-1.9,1.9H794.3a1.9,1.9,0,0,1-1.9-1.9V300a1.9,1.9,0,0,1,1.9-1.9h83.6a1.9,1.9,0,0,1,1.9,1.9Z"/><path class="cls-12" d="M832.3,397.7a1.9,1.9,0,0,1-1.9,1.9h-36a1.9,1.9,0,0,1-1.9-1.9v-3.9a1.9,1.9,0,0,1,1.9-1.9h36a1.9,1.9,0,0,1,1.9,1.9Z"/><path class="cls-9" d="M879.8,406.7a1.9,1.9,0,0,1-1.9,1.9H794.3a1.9,1.9,0,0,1-1.9-1.9v-1.9a1.9,1.9,0,0,1,1.9-1.9h83.6a1.9,1.9,0,0,1,1.9,1.9Z"/><path class="cls-9" d="M879.8,415.1a1.9,1.9,0,0,1-1.9,1.9H794.3a1.9,1.9,0,0,1-1.9-1.9v-1.9a1.9,1.9,0,0,1,1.9-1.9h83.6a1.9,1.9,0,0,1,1.9,1.9Z"/><path class="cls-9" d="M975,383.6a1.9,1.9,0,0,1-1.9,1.9H889.5a1.9,1.9,0,0,1-1.9-1.9V300a1.9,1.9,0,0,1,1.9-1.9H973a1.9,1.9,0,0,1,1.9,1.9l.1,83.6Z"/><path class="cls-12" d="M927.4,397.7a1.9,1.9,0,0,1-1.9,1.9h-36a1.9,1.9,0,0,1-1.9-1.9v-3.9a1.9,1.9,0,0,1,1.9-1.9h36a1.9,1.9,0,0,1,1.9,1.9Z"/><path class="cls-9" d="M975,406.7a1.9,1.9,0,0,1-1.9,1.9H889.5a1.9,1.9,0,0,1-1.9-1.9v-1.9a1.9,1.9,0,0,1,1.9-1.9H973a1.9,1.9,0,0,1,1.9,1.9l.1,1.9Z"/><path class="cls-9" d="M975,415.1a1.9,1.9,0,0,1-1.9,1.9H889.5a1.9,1.9,0,0,1-1.9-1.9v-1.9a1.9,1.9,0,0,1,1.9-1.9H973a1.9,1.9,0,0,1,1.9,1.9l.1,1.9Z"/><path class="cls-9" d="M689.6,514.7a1.9,1.9,0,0,1-1.9,1.9H604.1a1.9,1.9,0,0,1-1.9-1.9V431.1a1.9,1.9,0,0,1,1.9-1.9h83.6a1.9,1.9,0,0,1,1.9,1.9Z"/><path class="cls-12" d="M642,528.9a1.9,1.9,0,0,1-1.9,1.9h-36a1.9,1.9,0,0,1-1.9-1.9V525a1.9,1.9,0,0,1,1.9-1.9h36A1.9,1.9,0,0,1,642,525Z"/><path class="cls-9" d="M689.6,537.9a1.9,1.9,0,0,1-1.9,1.9H604.1a1.9,1.9,0,0,1-1.9-1.9V536a1.9,1.9,0,0,1,1.9-1.9h83.6a1.9,1.9,0,0,1,1.9,1.9Z"/><path class="cls-9" d="M689.6,546.2a1.9,1.9,0,0,1-1.9,1.9H604.1a1.9,1.9,0,0,1-1.9-1.9v-1.9a1.9,1.9,0,0,1,1.9-1.9h83.6a1.9,1.9,0,0,1,1.9,1.9Z"/><path class="cls-9" d="M784.7,514.7a1.9,1.9,0,0,1-1.9,1.9H699.2a1.9,1.9,0,0,1-1.9-1.9V431.1a1.9,1.9,0,0,1,1.9-1.9h83.6a1.9,1.9,0,0,1,1.9,1.9Z"/><path class="cls-12" d="M737.1,528.9a1.9,1.9,0,0,1-1.9,1.9h-36a1.9,1.9,0,0,1-1.9-1.9V525a1.9,1.9,0,0,1,1.9-1.9h36a1.9,1.9,0,0,1,1.9,1.9Z"/><path class="cls-9" d="M784.7,537.9a1.9,1.9,0,0,1-1.9,1.9H699.2a1.9,1.9,0,0,1-1.9-1.9V536a1.9,1.9,0,0,1,1.9-1.9h83.6a1.9,1.9,0,0,1,1.9,1.9Z"/><path class="cls-9" d="M784.7,546.2a1.9,1.9,0,0,1-1.9,1.9H699.2a1.9,1.9,0,0,1-1.9-1.9v-1.9a1.9,1.9,0,0,1,1.9-1.9h83.6a1.9,1.9,0,0,1,1.9,1.9Z"/><path class="cls-9" d="M879.8,514.7a1.9,1.9,0,0,1-1.9,1.9H794.3a1.9,1.9,0,0,1-1.9-1.9V431.1a1.9,1.9,0,0,1,1.9-1.9h83.6a1.9,1.9,0,0,1,1.9,1.9Z"/><path class="cls-12" d="M832.3,528.9a1.9,1.9,0,0,1-1.9,1.9h-36a1.9,1.9,0,0,1-1.9-1.9V525a1.9,1.9,0,0,1,1.9-1.9h36a1.9,1.9,0,0,1,1.9,1.9Z"/><path class="cls-9" d="M879.8,537.9a1.9,1.9,0,0,1-1.9,1.9H794.3a1.9,1.9,0,0,1-1.9-1.9V536a1.9,1.9,0,0,1,1.9-1.9h83.6a1.9,1.9,0,0,1,1.9,1.9Z"/><path class="cls-9" d="M879.8,546.2a1.9,1.9,0,0,1-1.9,1.9H794.3a1.9,1.9,0,0,1-1.9-1.9v-1.9a1.9,1.9,0,0,1,1.9-1.9h83.6a1.9,1.9,0,0,1,1.9,1.9Z"/><path class="cls-9" d="M975,514.7a1.9,1.9,0,0,1-1.9,1.9H889.5a1.9,1.9,0,0,1-1.9-1.9V431.1a1.9,1.9,0,0,1,1.9-1.9H973a1.9,1.9,0,0,1,1.9,1.9l.1,83.6Z"/><path class="cls-12" d="M927.4,528.9a1.9,1.9,0,0,1-1.9,1.9h-36a1.9,1.9,0,0,1-1.9-1.9V525a1.9,1.9,0,0,1,1.9-1.9h36a1.9,1.9,0,0,1,1.9,1.9Z"/><path class="cls-9" d="M975,537.9a1.9,1.9,0,0,1-1.9,1.9H889.5a1.9,1.9,0,0,1-1.9-1.9V536a1.9,1.9,0,0,1,1.9-1.9H973a1.9,1.9,0,0,1,1.9,1.9l.1,1.9Z"/><path class="cls-9" d="M975,546.2a1.9,1.9,0,0,1-1.9,1.9H889.5a1.9,1.9,0,0,1-1.9-1.9v-1.9a1.9,1.9,0,0,1,1.9-1.9H973a1.9,1.9,0,0,1,1.9,1.9l.1,1.9Z"/><rect class="cls-13" x="531.4" y="580.9" width="514.2" height="2.6"/><rect class="cls-14" x="531.4" y="583.5" width="514.2" height="87.4"/><path class="cls-12" d="M642,613.7a1.9,1.9,0,0,1-1.9,1.9h-36a1.9,1.9,0,0,1-1.9-1.9v-3.9a1.9,1.9,0,0,1,1.9-1.9h36a1.9,1.9,0,0,1,1.9,1.9Z"/><path class="cls-9" d="M676.7,627.9a1.9,1.9,0,0,1-1.9,1.9H604.1a1.9,1.9,0,0,1-1.9-1.9V626a1.9,1.9,0,0,1,1.9-1.9h70.7a1.9,1.9,0,0,1,1.9,1.9Z"/><path class="cls-9" d="M670.3,636.2a1.9,1.9,0,0,1-1.9,1.9H604.1a1.9,1.9,0,0,1-1.9-1.9v-1.9a1.9,1.9,0,0,1,1.9-1.9h64.3a1.9,1.9,0,0,1,1.9,1.9Z"/><path class="cls-9" d="M602.1,644.6a1.9,1.9,0,0,0,1.9,1.9h67.5a1.9,1.9,0,0,0,1.9-1.9v-1.9a1.9,1.9,0,0,0-1.9-1.9H604a1.9,1.9,0,0,0-1.9,1.9Z"/><path class="cls-12" d="M737.1,613.7a1.9,1.9,0,0,1-1.9,1.9h-36a1.9,1.9,0,0,1-1.9-1.9v-3.9a1.9,1.9,0,0,1,1.9-1.9h36a1.9,1.9,0,0,1,1.9,1.9Z"/><path class="cls-9" d="M771.8,627.9a1.9,1.9,0,0,1-1.9,1.9H699.2a1.9,1.9,0,0,1-1.9-1.9V626a1.9,1.9,0,0,1,1.9-1.9h70.7a1.9,1.9,0,0,1,1.9,1.9Z"/><path class="cls-9" d="M765.4,636.2a1.9,1.9,0,0,1-1.9,1.9H699.2a1.9,1.9,0,0,1-1.9-1.9v-1.9a1.9,1.9,0,0,1,1.9-1.9h64.3a1.9,1.9,0,0,1,1.9,1.9Z"/><path class="cls-9" d="M697.3,644.6a1.9,1.9,0,0,0,1.9,1.9h67.5a1.9,1.9,0,0,0,1.9-1.9v-1.9a1.9,1.9,0,0,0-1.9-1.9H699.2a1.9,1.9,0,0,0-1.9,1.9Z"/><path class="cls-12" d="M832.3,613.7a1.9,1.9,0,0,1-1.9,1.9h-36a1.9,1.9,0,0,1-1.9-1.9v-3.9a1.9,1.9,0,0,1,1.9-1.9h36a1.9,1.9,0,0,1,1.9,1.9Z"/><path class="cls-9" d="M867,627.9a1.9,1.9,0,0,1-1.9,1.9H794.4a1.9,1.9,0,0,1-1.9-1.9V626a1.9,1.9,0,0,1,1.9-1.9H865a1.9,1.9,0,0,1,1.9,1.9l.1,1.9Z"/><path class="cls-9" d="M860.5,636.2a1.9,1.9,0,0,1-1.9,1.9H794.3a1.9,1.9,0,0,1-1.9-1.9v-1.9a1.9,1.9,0,0,1,1.9-1.9h64.3a1.9,1.9,0,0,1,1.9,1.9Z"/><path class="cls-9" d="M792.4,644.6a1.9,1.9,0,0,0,1.9,1.9h67.5a1.9,1.9,0,0,0,1.9-1.9v-1.9a1.9,1.9,0,0,0-1.9-1.9H794.3a1.9,1.9,0,0,0-1.9,1.9Z"/><path class="cls-12" d="M946.7,613.7a1.9,1.9,0,0,1-1.9,1.9H889.5a1.9,1.9,0,0,1-1.9-1.9v-3.9a1.9,1.9,0,0,1,1.9-1.9h55.3a1.9,1.9,0,0,1,1.9,1.9Z"/><path class="cls-9" d="M910,644.6a1.9,1.9,0,0,1-1.9,1.9H889.5a1.9,1.9,0,0,1-1.9-1.9V626a1.9,1.9,0,0,1,1.9-1.9h18.6A1.9,1.9,0,0,1,910,626Z"/><path class="cls-9" d="M942.8,644.6a1.9,1.9,0,0,1-1.9,1.9H922.3a1.9,1.9,0,0,1-1.9-1.9V626a1.9,1.9,0,0,1,1.9-1.9h18.6a1.9,1.9,0,0,1,1.9,1.9Z"/><path class="cls-9" d="M975,644.6a1.9,1.9,0,0,1-1.9,1.9H954.5a1.9,1.9,0,0,1-1.9-1.9V626a1.9,1.9,0,0,1,1.9-1.9H973a1.9,1.9,0,0,1,1.9,1.9l.1,18.6Z"/></g></g></g><g id="Macbook"><g id="Body-2" data-name="Body"><path class="cls-2" d="M54,775.41H721.05c4.74,0,8.59.48,8.59,1.08v.23c0,.59-3.85,1.08-8.59,1.08H54c-4.75,0-8.59-.49-8.59-1.08v-.23C45.38,775.89,49.22,775.41,54,775.41Z"/><path class="cls-3" d="M120.15,372.61H658a15.53,15.53,0,0,1,15.53,15.53V747.8A15.52,15.52,0,0,1,658,763.33H120.15a15.53,15.53,0,0,1-15.53-15.53V388.13A15.53,15.53,0,0,1,120.15,372.61Z"/><path class="cls-4" d="M739.4,767.61A48.83,48.83,0,0,1,713,775.92H63.49c-12.9,0-27.49-8.31-27.49-8.31V754.77H739.4Z"/><path class="cls-5" d="M36,767.61s14.6,8.31,27.49,8.31H713a48.91,48.91,0,0,0,26.45-8.31Z"/><path class="cls-15" d="M337.83,754.77a11.64,11.64,0,0,0,11,7.91H427a11.65,11.65,0,0,0,11-7.91Z"/><path class="cls-15" d="M695.12,761.45a1.53,1.53,0,0,1-1.53,1.54H665.16a1.54,1.54,0,0,1-1.53-1.54h0a1.54,1.54,0,0,1,1.53-1.53h28.43a1.53,1.53,0,0,1,1.53,1.53Z"/><circle class="cls-16" cx="391.47" cy="382.46" r="1.63"/></g><g id="Screen-7" data-name="Screen"><rect id="Screen-8" data-name="Screen" x="118.14" y="391.3" width="541.86" height="345"/><g id="Layout"><g class="cls-17"><rect id="BG" class="cls-7" x="104.63" y="382.46" width="568.88" height="362.69"/><rect class="cls-10" x="94.64" y="473.9" width="588.36" height="2.2"/><rect class="cls-10" x="94.64" y="593.7" width="588.36" height="2.2"/><rect class="cls-11" x="94.64" y="476.2" width="588.36" height="117.6"/><path class="cls-8" d="M404.92,428.4a14.6,14.6,0,1,1-14.6-14.6,14.55,14.55,0,0,1,14.6,14.6"/><path class="cls-9" d="M335.72,460.5a1.75,1.75,0,0,1-1.7,1.7h-34.3a1.75,1.75,0,0,1-1.7-1.7v-5.1a1.75,1.75,0,0,1,1.7-1.7H334a1.75,1.75,0,0,1,1.7,1.7Z"/><path class="cls-9" d="M384.72,460.5a1.75,1.75,0,0,1-1.7,1.7h-34.3a1.75,1.75,0,0,1-1.7-1.7v-5.1a1.75,1.75,0,0,1,1.7-1.7H383a1.75,1.75,0,0,1,1.7,1.7Z"/><path class="cls-9" d="M433.62,460.5a1.75,1.75,0,0,1-1.7,1.7h-34.3a1.75,1.75,0,0,1-1.7-1.7v-5.1a1.75,1.75,0,0,1,1.7-1.7h34.3a1.75,1.75,0,0,1,1.7,1.7Z"/><path class="cls-9" d="M482.52,460.5a1.75,1.75,0,0,1-1.7,1.7h-34.3a1.75,1.75,0,0,1-1.7-1.7v-5.1a1.75,1.75,0,0,1,1.7-1.7h34.3a1.75,1.75,0,0,1,1.7,1.7Z"/><path class="cls-12" d="M460.62,528.2a1.75,1.75,0,0,1-1.7,1.7H321.72a1.75,1.75,0,0,1-1.7-1.7V517.5a1.75,1.75,0,0,1,1.7-1.7h137.2a1.75,1.75,0,0,1,1.7,1.7Z"/><path class="cls-9" d="M477.52,542.2a1.75,1.75,0,0,1-1.7,1.7h-171a1.75,1.75,0,0,1-1.7-1.7v-3.4a1.75,1.75,0,0,1,1.7-1.7h171a1.75,1.75,0,0,1,1.7,1.7Z"/><path class="cls-9" d="M303.12,549a1.75,1.75,0,0,1,1.7-1.7h171a1.75,1.75,0,0,1,1.7,1.7v3.4a1.75,1.75,0,0,1-1.7,1.7h-171a1.75,1.75,0,0,1-1.7-1.7Z"/><polygon class="cls-10" points="554.22 535.2 546.62 529.5 546.62 530.7 552.52 535.2 546.62 539.7 546.62 540.9 554.22 535.2"/><polygon class="cls-10" points="226.12 535.2 233.72 540.9 233.72 539.7 227.82 535.2 233.72 530.7 233.72 529.5 226.12 535.2"/><path class="cls-9" d="M303.72,699.4a1.75,1.75,0,0,1-1.7,1.7h-73.1a1.75,1.75,0,0,1-1.7-1.7V626.2a1.75,1.75,0,0,1,1.7-1.7H302a1.75,1.75,0,0,1,1.7,1.7Z"/><path class="cls-12" d="M262.12,711.8a1.75,1.75,0,0,1-1.7,1.7h-31.5a1.75,1.75,0,0,1-1.7-1.7v-3.4a1.75,1.75,0,0,1,1.7-1.7h31.5a1.75,1.75,0,0,1,1.7,1.7Z"/><path class="cls-9" d="M303.72,719.7a1.75,1.75,0,0,1-1.7,1.7h-73.1a1.75,1.75,0,0,1-1.7-1.7V718a1.75,1.75,0,0,1,1.7-1.7H302a1.75,1.75,0,0,1,1.7,1.7Z"/><path class="cls-9" d="M303.72,727.1a1.75,1.75,0,0,1-1.7,1.7h-73.1a1.75,1.75,0,0,1-1.7-1.7v-1.7a1.75,1.75,0,0,1,1.7-1.7H302a1.75,1.75,0,0,1,1.7,1.7Z"/><path class="cls-9" d="M386.92,699.4a1.75,1.75,0,0,1-1.7,1.7h-73.1a1.75,1.75,0,0,1-1.7-1.7V626.2a1.75,1.75,0,0,1,1.7-1.7h73.1a1.75,1.75,0,0,1,1.7,1.7Z"/><path class="cls-12" d="M345.32,711.8a1.75,1.75,0,0,1-1.7,1.7h-31.5a1.75,1.75,0,0,1-1.7-1.7v-3.4a1.75,1.75,0,0,1,1.7-1.7h31.5a1.75,1.75,0,0,1,1.7,1.7Z"/><path class="cls-9" d="M386.92,719.7a1.75,1.75,0,0,1-1.7,1.7h-73.1a1.75,1.75,0,0,1-1.7-1.7V718a1.75,1.75,0,0,1,1.7-1.7h73.1a1.75,1.75,0,0,1,1.7,1.7Z"/><path class="cls-9" d="M386.92,727.1a1.75,1.75,0,0,1-1.7,1.7h-73.1a1.75,1.75,0,0,1-1.7-1.7v-1.7a1.75,1.75,0,0,1,1.7-1.7h73.1a1.75,1.75,0,0,1,1.7,1.7Z"/><path class="cls-9" d="M470.12,699.4a1.75,1.75,0,0,1-1.7,1.7h-73a1.75,1.75,0,0,1-1.7-1.7V626.2a1.75,1.75,0,0,1,1.7-1.7h73.1a1.75,1.75,0,0,1,1.7,1.7l-.1,73.2Z"/><path class="cls-12" d="M428.52,711.8a1.75,1.75,0,0,1-1.7,1.7h-31.4a1.75,1.75,0,0,1-1.7-1.7v-3.4a1.75,1.75,0,0,1,1.7-1.7h31.5a1.75,1.75,0,0,1,1.7,1.7v3.4Z"/><path class="cls-9" d="M470.12,719.7a1.75,1.75,0,0,1-1.7,1.7h-73a1.75,1.75,0,0,1-1.7-1.7V718a1.75,1.75,0,0,1,1.7-1.7h73.1a1.75,1.75,0,0,1,1.7,1.7l-.1,1.7Z"/><path class="cls-9" d="M470.12,727.1a1.75,1.75,0,0,1-1.7,1.7h-73a1.75,1.75,0,0,1-1.7-1.7v-1.7a1.75,1.75,0,0,1,1.7-1.7h73.1a1.75,1.75,0,0,1,1.7,1.7l-.1,1.7Z"/><path class="cls-9" d="M553.42,699.4a1.75,1.75,0,0,1-1.7,1.7h-73.1a1.75,1.75,0,0,1-1.7-1.7V626.2a1.75,1.75,0,0,1,1.7-1.7h73.1a1.75,1.75,0,0,1,1.7,1.7Z"/><path class="cls-12" d="M511.82,711.8a1.75,1.75,0,0,1-1.7,1.7h-31.5a1.75,1.75,0,0,1-1.7-1.7v-3.4a1.75,1.75,0,0,1,1.7-1.7h31.5a1.75,1.75,0,0,1,1.7,1.7Z"/><path class="cls-9" d="M553.42,719.7a1.75,1.75,0,0,1-1.7,1.7h-73.1a1.75,1.75,0,0,1-1.7-1.7V718a1.75,1.75,0,0,1,1.7-1.7h73.1a1.75,1.75,0,0,1,1.7,1.7Z"/><path class="cls-9" d="M553.42,727.1a1.75,1.75,0,0,1-1.7,1.7h-73.1a1.75,1.75,0,0,1-1.7-1.7v-1.7a1.75,1.75,0,0,1,1.7-1.7h73.1a1.75,1.75,0,0,1,1.7,1.7Z"/><path class="cls-9" d="M303.72,814.4a1.75,1.75,0,0,1-1.7,1.7h-73.1a1.75,1.75,0,0,1-1.7-1.7V741.2a1.75,1.75,0,0,1,1.7-1.7H302a1.75,1.75,0,0,1,1.7,1.7Z"/><path class="cls-9" d="M386.92,814.4a1.75,1.75,0,0,1-1.7,1.7h-73.1a1.75,1.75,0,0,1-1.7-1.7V741.2a1.75,1.75,0,0,1,1.7-1.7h73.1a1.75,1.75,0,0,1,1.7,1.7Z"/><path class="cls-9" d="M470.12,814.4a1.75,1.75,0,0,1-1.7,1.7h-73a1.75,1.75,0,0,1-1.7-1.7V741.2a1.75,1.75,0,0,1,1.7-1.7h73.1a1.75,1.75,0,0,1,1.7,1.7l-.1,73.2Z"/><path class="cls-9" d="M553.42,814.4a1.75,1.75,0,0,1-1.7,1.7h-73.1a1.75,1.75,0,0,1-1.7-1.7V741.2a1.75,1.75,0,0,1,1.7-1.7h73.1a1.75,1.75,0,0,1,1.7,1.7Z"/></g></g></g></g><g id="iPad"><g id="Body-3" data-name="Body"><path class="cls-2" d="M1011.35,725.36h293.16c4.25,0,7.7.43,7.7,1v.2c0,.54-3.45,1-7.7,1H1011.35c-4.25,0-7.69-.43-7.69-1v-.2C1003.66,725.79,1007.1,725.36,1011.35,725.36Z"/><rect class="cls-3" x="998.69" y="276.29" width="318.49" height="449.35" rx="14" ry="14"/><path class="cls-18" d="M1303.18,726.43h-290.5a14.8,14.8,0,0,1-14.78-14.79V290.29a14.8,14.8,0,0,1,14.78-14.79h290.5A14.8,14.8,0,0,1,1318,290.29V711.64a14.8,14.8,0,0,1-14.78,14.79Zm-290.5-449.35a13.22,13.22,0,0,0-13.2,13.21V711.64a13.22,13.22,0,0,0,13.2,13.21h290.5a13.22,13.22,0,0,0,13.21-13.21V290.29a13.22,13.22,0,0,0-13.21-13.21Z"/><path class="cls-16" d="M1159.43,291a1.5,1.5,0,1,1-1.5-1.5A1.5,1.5,0,0,1,1159.43,291Z"/><path class="cls-18" d="M1317.33,304.9c0-.48.28-.87.63-.87h0c.36,0,.64.39.64.87v16c0,.48-.28.87-.64.87h0c-.35,0-.63-.39-.63-.87Z"/><path class="cls-18" d="M1317.33,326c0-.49.28-.88.63-.88h0c.36,0,.64.39.64.88v16c0,.48-.28.87-.64.87h0c-.35,0-.63-.39-.63-.87Z"/><path class="cls-18" d="M1157.93,719.61a8,8,0,1,1,8-8,8.05,8.05,0,0,1-8,8Zm0-15a6.91,6.91,0,1,0,6.91,6.91,6.92,6.92,0,0,0-6.91-6.91Z"/></g><g id="Screen-9" data-name="Screen"><g class="cls-19"><rect id="Screen-10" data-name="Screen" class="cls-7" x="1011.12" y="307.34" width="293.63" height="387.25"/><path class="cls-20" d="M1170.37,356.75A12.38,12.38,0,1,1,1158,344.37a12.41,12.41,0,0,1,12.38,12.38"/><path class="cls-21" d="M1105.74,383.79a1.5,1.5,0,0,1-1.48,1.47h-35.55a1.5,1.5,0,0,1-1.48-1.47v-4.32a1.51,1.51,0,0,1,1.48-1.48h35.55a1.51,1.51,0,0,1,1.48,1.48Z"/><path class="cls-21" d="M1153.22,383.79a1.5,1.5,0,0,1-1.48,1.47h-35.55a1.5,1.5,0,0,1-1.48-1.47v-4.32a1.51,1.51,0,0,1,1.48-1.48h35.55a1.51,1.51,0,0,1,1.48,1.48Z"/><path class="cls-21" d="M1200.7,383.79a1.5,1.5,0,0,1-1.48,1.47h-35.55a1.5,1.5,0,0,1-1.48-1.47v-4.32a1.51,1.51,0,0,1,1.48-1.48h35.55a1.51,1.51,0,0,1,1.48,1.48Z"/><path class="cls-21" d="M1248.18,383.79a1.5,1.5,0,0,1-1.48,1.47h-35.55a1.5,1.5,0,0,1-1.48-1.47v-4.32a1.51,1.51,0,0,1,1.48-1.48h35.55a1.51,1.51,0,0,1,1.48,1.48Z"/><rect class="cls-22" x="970.09" y="395.15" width="375.91" height="1.93"/><rect class="cls-22" x="970.09" y="496.24" width="375.91" height="1.93"/><rect class="cls-11" x="970.09" y="397.08" width="375.91" height="99.16"/><path class="cls-23" d="M1217.28,440.7a1.5,1.5,0,0,1-1.47,1.47H1099.94a1.5,1.5,0,0,1-1.47-1.47v-9a1.5,1.5,0,0,1,1.47-1.47h115.87a1.5,1.5,0,0,1,1.47,1.47Z"/><path class="cls-21" d="M1231.6,452.62a1.51,1.51,0,0,1-1.48,1.48H1085.86a1.5,1.5,0,0,1-1.48-1.48v-2.84a1.5,1.5,0,0,1,1.48-1.47h144.26a1.51,1.51,0,0,1,1.48,1.47Z"/><path class="cls-21" d="M1084.38,458.3a1.5,1.5,0,0,1,1.48-1.47h144.26a1.51,1.51,0,0,1,1.48,1.47v2.84a1.51,1.51,0,0,1-1.48,1.48H1085.86a1.5,1.5,0,0,1-1.48-1.48Z"/><path class="cls-21" d="M1106.19,585.07a1.5,1.5,0,0,1-1.47,1.48h-83a1.51,1.51,0,0,1-1.48-1.48V523.39a1.52,1.52,0,0,1,1.48-1.48h83a1.51,1.51,0,0,1,1.47,1.48Z"/><path class="cls-23" d="M1058.82,595.52a1.5,1.5,0,0,1-1.47,1.48h-35.56a1.5,1.5,0,0,1-1.47-1.48v-2.84a1.51,1.51,0,0,1,1.47-1.48h35.56a1.51,1.51,0,0,1,1.47,1.48Z"/><path class="cls-21" d="M1106.19,602.11a1.51,1.51,0,0,1-1.47,1.48h-83a1.52,1.52,0,0,1-1.48-1.48v-1.48a1.51,1.51,0,0,1,1.48-1.47h83a1.5,1.5,0,0,1,1.47,1.47Z"/><path class="cls-21" d="M1106.19,608.36a1.5,1.5,0,0,1-1.47,1.47h-83a1.51,1.51,0,0,1-1.48-1.47v-1.48a1.51,1.51,0,0,1,1.48-1.48h83a1.5,1.5,0,0,1,1.47,1.48Z"/><path class="cls-21" d="M1201.15,585.07a1.5,1.5,0,0,1-1.47,1.48h-83.49a1.5,1.5,0,0,1-1.48-1.48V523.39a1.51,1.51,0,0,1,1.48-1.48h83.49a1.51,1.51,0,0,1,1.47,1.48Z"/><path class="cls-23" d="M1153.67,595.52a1.5,1.5,0,0,1-1.47,1.48h-36.13a1.5,1.5,0,0,1-1.47-1.48v-2.84a1.51,1.51,0,0,1,1.47-1.48h36.13a1.51,1.51,0,0,1,1.47,1.48Z"/><path class="cls-21" d="M1201.15,602.11a1.51,1.51,0,0,1-1.47,1.48h-83.49a1.51,1.51,0,0,1-1.48-1.48v-1.48a1.5,1.5,0,0,1,1.48-1.47h83.49a1.5,1.5,0,0,1,1.47,1.47Z"/><path class="cls-21" d="M1201.15,608.36a1.5,1.5,0,0,1-1.47,1.47h-83.49a1.5,1.5,0,0,1-1.48-1.47v-1.48a1.5,1.5,0,0,1,1.48-1.48h83.49a1.5,1.5,0,0,1,1.47,1.48Z"/><path class="cls-21" d="M1296.12,585.07a1.51,1.51,0,0,1-1.48,1.48h-83.49a1.5,1.5,0,0,1-1.48-1.48V523.39a1.51,1.51,0,0,1,1.48-1.48h83.49a1.52,1.52,0,0,1,1.48,1.48Z"/><path class="cls-23" d="M1249.09,595.52a1.5,1.5,0,0,1-1.48,1.48H1211a1.5,1.5,0,0,1-1.48-1.48v-2.84a1.51,1.51,0,0,1,1.48-1.48h36.57a1.51,1.51,0,0,1,1.48,1.48Z"/><path class="cls-21" d="M1296.12,602.11a1.52,1.52,0,0,1-1.48,1.48h-83.49a1.51,1.51,0,0,1-1.48-1.48v-1.48a1.5,1.5,0,0,1,1.48-1.47h83.49a1.51,1.51,0,0,1,1.48,1.47Z"/><path class="cls-21" d="M1296.12,608.36a1.51,1.51,0,0,1-1.48,1.47h-83.49a1.5,1.5,0,0,1-1.48-1.47v-1.48a1.5,1.5,0,0,1,1.48-1.48h83.49a1.51,1.51,0,0,1,1.48,1.48Z"/><path class="cls-21" d="M1106.19,681.85a1.51,1.51,0,0,1-1.47,1.48h-83a1.52,1.52,0,0,1-1.48-1.48V620.17a1.51,1.51,0,0,1,1.48-1.48h83a1.5,1.5,0,0,1,1.47,1.48Z"/><path class="cls-23" d="M1058.82,692.3a1.51,1.51,0,0,1-1.47,1.48h-35.56a1.51,1.51,0,0,1-1.47-1.48v-2.84a1.5,1.5,0,0,1,1.47-1.48h35.56a1.5,1.5,0,0,1,1.47,1.48Z"/><path class="cls-21" d="M1106.19,699a1.5,1.5,0,0,1-1.47,1.48h-83a1.51,1.51,0,0,1-1.48-1.48v-1.48a1.51,1.51,0,0,1,1.48-1.47h83a1.5,1.5,0,0,1,1.47,1.47Z"/><path class="cls-21" d="M1106.19,705.13a1.5,1.5,0,0,1-1.47,1.48h-83a1.51,1.51,0,0,1-1.48-1.48v-1.47a1.51,1.51,0,0,1,1.48-1.48h83a1.5,1.5,0,0,1,1.47,1.48Z"/><path class="cls-21" d="M1201.15,681.85a1.51,1.51,0,0,1-1.47,1.48h-83.49a1.51,1.51,0,0,1-1.48-1.48V620.17a1.5,1.5,0,0,1,1.48-1.48h83.49a1.5,1.5,0,0,1,1.47,1.48Z"/><path class="cls-23" d="M1153.67,692.3a1.51,1.51,0,0,1-1.47,1.48h-36.13a1.51,1.51,0,0,1-1.47-1.48v-2.84a1.5,1.5,0,0,1,1.47-1.48h36.13a1.5,1.5,0,0,1,1.47,1.48Z"/><path class="cls-21" d="M1201.15,699a1.5,1.5,0,0,1-1.47,1.48h-83.49a1.5,1.5,0,0,1-1.48-1.48v-1.48a1.5,1.5,0,0,1,1.48-1.47h83.49a1.5,1.5,0,0,1,1.47,1.47Z"/><path class="cls-21" d="M1201.15,705.13a1.5,1.5,0,0,1-1.47,1.48h-83.49a1.5,1.5,0,0,1-1.48-1.48v-1.47a1.5,1.5,0,0,1,1.48-1.48h83.49a1.5,1.5,0,0,1,1.47,1.48Z"/><path class="cls-21" d="M1296.12,681.85a1.52,1.52,0,0,1-1.48,1.48h-83.49a1.51,1.51,0,0,1-1.48-1.48V620.17a1.5,1.5,0,0,1,1.48-1.48h83.49a1.51,1.51,0,0,1,1.48,1.48Z"/><path class="cls-23" d="M1248.63,692.3a1.51,1.51,0,0,1-1.47,1.48H1211a1.51,1.51,0,0,1-1.48-1.48v-2.84A1.5,1.5,0,0,1,1211,688h36.12a1.5,1.5,0,0,1,1.47,1.48Z"/><path class="cls-21" d="M1296.12,699a1.51,1.51,0,0,1-1.48,1.48h-83.49a1.5,1.5,0,0,1-1.48-1.48v-1.48a1.5,1.5,0,0,1,1.48-1.47h83.49a1.51,1.51,0,0,1,1.48,1.47Z"/><path class="cls-21" d="M1296.12,705.13a1.51,1.51,0,0,1-1.48,1.48h-83.49a1.5,1.5,0,0,1-1.48-1.48v-1.47a1.5,1.5,0,0,1,1.48-1.48h83.49a1.51,1.51,0,0,1,1.48,1.48Z"/><rect class="cls-13" x="972.59" y="730.81" width="370.91" height="1.93"/><rect class="cls-14" x="972.59" y="732.62" width="370.91" height="89.38"/><path class="cls-23" d="M1059.28,755a1.5,1.5,0,0,1-1.48,1.48h-36.12a1.51,1.51,0,0,1-1.48-1.48v-2.84a1.52,1.52,0,0,1,1.48-1.48h36.12a1.51,1.51,0,0,1,1.48,1.48Z"/><path class="cls-21" d="M1087.68,765.45a1.5,1.5,0,0,1-1.48,1.48h-64.52a1.51,1.51,0,0,1-1.48-1.48V764a1.51,1.51,0,0,1,1.48-1.47h64.52a1.5,1.5,0,0,1,1.48,1.47Z"/><path class="cls-21" d="M1083,771.59a1.5,1.5,0,0,1-1.48,1.47h-59.86a1.51,1.51,0,0,1-1.48-1.47v-1.48a1.51,1.51,0,0,1,1.48-1.48h59.86a1.5,1.5,0,0,1,1.48,1.48Z"/><path class="cls-21" d="M1020.32,777.72a1.51,1.51,0,0,0,1.47,1.48h62.14a1.52,1.52,0,0,0,1.48-1.48v-1.48a1.51,1.51,0,0,0-1.48-1.47h-62.14a1.5,1.5,0,0,0-1.47,1.47Z"/><path class="cls-23" d="M1153.67,755a1.5,1.5,0,0,1-1.47,1.48h-36.13a1.5,1.5,0,0,1-1.47-1.48v-2.84a1.51,1.51,0,0,1,1.47-1.48h36.13a1.51,1.51,0,0,1,1.47,1.48Z"/><path class="cls-21" d="M1183.09,765.45a1.5,1.5,0,0,1-1.47,1.48h-65.55a1.5,1.5,0,0,1-1.47-1.48V764a1.5,1.5,0,0,1,1.47-1.47h65.55a1.5,1.5,0,0,1,1.47,1.47Z"/><path class="cls-21" d="M1178.44,771.59a1.51,1.51,0,0,1-1.48,1.47h-60.77a1.5,1.5,0,0,1-1.48-1.47v-1.48a1.5,1.5,0,0,1,1.48-1.48H1177a1.51,1.51,0,0,1,1.48,1.48Z"/><path class="cls-21" d="M1114.82,777.72a1.52,1.52,0,0,0,1.48,1.48h63.16a1.51,1.51,0,0,0,1.47-1.48v-1.48a1.5,1.5,0,0,0-1.47-1.47H1116.3a1.51,1.51,0,0,0-1.48,1.47Z"/><path class="cls-23" d="M1267.6,755a1.5,1.5,0,0,1-1.47,1.48H1211a1.5,1.5,0,0,1-1.48-1.48v-2.84a1.51,1.51,0,0,1,1.48-1.48h55.09a1.51,1.51,0,0,1,1.47,1.48Z"/><path class="cls-21" d="M1227.73,777.72a1.51,1.51,0,0,1-1.47,1.48h-13.75a1.51,1.51,0,0,1-1.47-1.48V764a1.5,1.5,0,0,1,1.47-1.47h13.75a1.5,1.5,0,0,1,1.47,1.47Z"/><path class="cls-21" d="M1252.5,777.72a1.52,1.52,0,0,1-1.48,1.48h-13.74a1.51,1.51,0,0,1-1.48-1.48V764a1.5,1.5,0,0,1,1.48-1.47H1251a1.51,1.51,0,0,1,1.48,1.47Z"/><path class="cls-21" d="M1277.15,777.72a1.52,1.52,0,0,1-1.48,1.48h-13.75a1.51,1.51,0,0,1-1.47-1.48V764a1.5,1.5,0,0,1,1.47-1.47h13.75a1.51,1.51,0,0,1,1.48,1.47Z"/><rect class="cls-24" x="993.86" y="325.18" width="328.14" height="8.06"/><rect class="cls-25" x="993.86" y="299.67" width="328.14" height="32.1"/><path class="cls-24" d="M1046.9,325a1.5,1.5,0,0,1-1.48,1.47h-24.19a1.5,1.5,0,0,1-1.48-1.47V314.5a1.5,1.5,0,0,1,1.48-1.48h24.19a1.5,1.5,0,0,1,1.48,1.48V325Z"/><path class="cls-24" d="M1063,325a1.5,1.5,0,0,1-1.48,1.47H1051.1a1.51,1.51,0,0,1-1.48-1.47V314.5a1.51,1.51,0,0,1,1.48-1.48h10.45a1.5,1.5,0,0,1,1.48,1.48Z"/><path class="cls-24" d="M1095.29,325a1.5,1.5,0,0,1-1.48,1.47h-10.45a1.51,1.51,0,0,1-1.48-1.47V314.5a1.51,1.51,0,0,1,1.48-1.48h10.45a1.5,1.5,0,0,1,1.48,1.48Z"/><path class="cls-24" d="M1079.16,325a1.5,1.5,0,0,1-1.48,1.47h-10.45a1.51,1.51,0,0,1-1.48-1.47V314.5a1.51,1.51,0,0,1,1.48-1.48h10.45a1.5,1.5,0,0,1,1.48,1.48Z"/><path class="cls-7" d="M1231,325a1.5,1.5,0,0,1-1.48,1.47H1101.88a1.5,1.5,0,0,1-1.48-1.47V314.5a1.5,1.5,0,0,1,1.48-1.48h127.67a1.5,1.5,0,0,1,1.48,1.48V325Z"/><path class="cls-7" d="M1296.12,325a1.51,1.51,0,0,1-1.48,1.47h-57.93a1.5,1.5,0,0,1-1.48-1.47V314.5a1.5,1.5,0,0,1,1.48-1.48h57.93a1.51,1.51,0,0,1,1.48,1.48Z"/></g></g></g><g id="iPhone"><g id="Body-4" data-name="Body"><path class="cls-2" d="M1259.78,775.82h110.16c4.88,0,8.85.4,8.85.9v.18c0,.5-4,.9-8.85.9H1259.78c-4.89,0-8.85-.4-8.85-.9v-.18C1250.93,776.22,1254.89,775.82,1259.78,775.82Z"/><rect class="cls-18" x="1241.96" y="481.1" width="145.44" height="295.31" rx="17.16" ry="17.16"/><rect class="cls-3" x="1242.97" y="482.16" width="143.32" height="293.19" rx="16.1" ry="16.1"/><path class="cls-16" d="M1296.36,499.31a2.2,2.2,0,1,1-2.2-2.2A2.2,2.2,0,0,1,1296.36,499.31Z"/><path class="cls-16" d="M1316.11,490.7a1.62,1.62,0,1,1-1.61-1.61A1.61,1.61,0,0,1,1316.11,490.7Z"/><path class="cls-16" d="M1324.76,499.39a1.1,1.1,0,0,1-1.1,1.1h-18.33a1.1,1.1,0,0,1-1.1-1.1h0a1.1,1.1,0,0,1,1.1-1.1h18.33a1.1,1.1,0,0,1,1.1,1.1Z"/><path class="cls-18" d="M1314.54,767.91a9,9,0,1,1,9-9,9,9,0,0,1-9,9Zm0-16.73a7.73,7.73,0,1,0,7.73,7.73,7.74,7.74,0,0,0-7.73-7.73Z"/><rect class="cls-18" x="1241.39" y="515.8" width="1.62" height="11.25" rx="0.56" ry="0.56"/><rect class="cls-18" x="1241.39" y="537.51" width="1.62" height="19.23" rx="0.56" ry="0.56"/><rect class="cls-18" x="1386.38" y="537.51" width="1.62" height="19.23" rx="0.56" ry="0.56"/><rect class="cls-18" x="1241.39" y="561.41" width="1.62" height="19.23" rx="0.56" ry="0.56"/><rect class="cls-3" x="1385.12" y="500.49" width="2.27" height="4.84"/><rect class="cls-3" x="1241.97" y="500.49" width="2.27" height="4.84"/><rect class="cls-3" x="1385.12" y="752.63" width="2.27" height="4.84"/><rect class="cls-3" x="1241.97" y="752.63" width="2.27" height="4.84"/></g><g id="Screen-11" data-name="Screen"><g class="cls-26"><rect id="Screen-12" data-name="Screen" class="cls-7" x="1246.03" y="515.18" width="137.31" height="229.25"/><path class="cls-27" d="M1372.33,724.65a1.45,1.45,0,0,1-1.42,1.42H1258.23a1.45,1.45,0,0,1-1.42-1.42V663.77a1.45,1.45,0,0,1,1.42-1.42h112.68a1.45,1.45,0,0,1,1.42,1.42Z"/><path class="cls-28" d="M1331.35,738.64a1.45,1.45,0,0,1-1.42,1.42h-71.7a1.45,1.45,0,0,1-1.42-1.42v-4.16a1.45,1.45,0,0,1,1.42-1.42h71.7a1.45,1.45,0,0,1,1.42,1.42Z"/><path class="cls-27" d="M1372.33,747.27a1.44,1.44,0,0,1-1.42,1.42H1258.23a1.45,1.45,0,0,1-1.42-1.42v-1.42a1.45,1.45,0,0,1,1.42-1.42h112.68a1.45,1.45,0,0,1,1.42,1.42Z"/><path class="cls-27" d="M1372.33,754.81a1.44,1.44,0,0,1-1.42,1.42H1258.23a1.45,1.45,0,0,1-1.42-1.42v-1.42a1.45,1.45,0,0,1,1.42-1.42h112.68a1.45,1.45,0,0,1,1.42,1.42Z"/><path class="cls-27" d="M1372.33,829a1.44,1.44,0,0,1-1.42,1.42H1258.23a1.45,1.45,0,0,1-1.42-1.42V768.15a1.45,1.45,0,0,1,1.42-1.42h112.68a1.44,1.44,0,0,1,1.42,1.42Z"/><rect class="cls-29" x="1244.24" y="554.16" width="140.89" height="1.42"/><rect class="cls-29" x="1244.24" y="647.27" width="140.89" height="1.42"/><rect class="cls-30" x="1244.24" y="555.58" width="140.89" height="91.69"/><path class="cls-28" d="M1350.58,591.2a1,1,0,0,1-1,1h-69.84a1,1,0,0,1-1-1V584a1,1,0,0,1,1-1h69.84a1,1,0,0,1,1,1Z"/><path class="cls-27" d="M1360.86,604.21a1,1,0,0,1-1,1h-90.38a1,1,0,0,1-1-1v-3.39a1,1,0,0,1,1-1h90.38a1,1,0,0,1,1,1Z"/><path class="cls-27" d="M1367.74,613.06a1,1,0,0,1-1,1H1262.6a1,1,0,0,1-1-1v-3.39a1,1,0,0,1,1-1h104.05a1,1,0,0,1,1,1v3.39Z"/><path class="cls-27" d="M1360.86,622a1,1,0,0,1-1,1h-90.38a1,1,0,0,1-1-1v-3.38a1,1,0,0,1,1-1h90.38a1,1,0,0,1,1,1Z"/><rect class="cls-24" x="1246.03" y="530.77" width="137.31" height="5.79"/><rect class="cls-25" x="1246.03" y="514.33" width="137.31" height="21.13"/><path class="cls-24" d="M1262.28,530.55a1,1,0,0,1-1,1h-7.54a1,1,0,0,1-1-1V523a1,1,0,0,1,1-1h7.54a1,1,0,0,1,1,1Z"/><path class="cls-24" d="M1376.59,530.55a1,1,0,0,1-1,1h-7.54a1,1,0,0,1-1-1V523a1,1,0,0,1,1-1h7.54a1,1,0,0,1,1,1Z"/><path class="cls-7" d="M1363.59,530.55a1,1,0,0,1-1,1h-95.84a1,1,0,0,1-1-1V523a1,1,0,0,1,1-1h95.84a1,1,0,0,1,1,1Z"/><path class="cls-20" d="M1270.58,545.3a6.89,6.89,0,1,1-6.88-6.88,6.86,6.86,0,0,1,6.88,6.88"/><path class="cls-27" d="M1372.88,541.48a1,1,0,0,1-1,1H1362a1,1,0,0,1-1-1v-.22a1,1,0,0,1,1-1h9.94a1,1,0,0,1,1,1Z"/><path class="cls-27" d="M1372.88,545.41a1,1,0,0,1-1,1H1362a1,1,0,0,1-1-1v-.22a1,1,0,0,1,1-1h9.94a1,1,0,0,1,1,1Z"/><path class="cls-27" d="M1372.88,549.24a1,1,0,0,1-1,1H1362a1,1,0,0,1-1-1V549a1,1,0,0,1,1-1h9.94a1,1,0,0,1,1,1Z"/></g></g></g></svg>