<?xml version="1.0" standalone="no"?>
<!DOCTYPE svg PUBLIC "-//W3C//DTD SVG 1.1//EN" "http://www.w3.org/Graphics/SVG/1.1/DTD/svg11.dtd" >
<svg xmlns="http://www.w3.org/2000/svg" xmlns:xlink="http://www.w3.org/1999/xlink" version="1.1">
<metadata>
Created by FontForge 20170731 at Thu Jan  4 15:35:30 2018
 By Aleksey,,,
Jorge Cisterna
</metadata>
<defs>
<font id="FibraOne-LightIt" horiz-adv-x="0" >
  <font-face 
    font-family="Fibra One Light It"
    font-weight="300"
    font-style="italic"
    font-stretch="normal"
    units-per-em="1000"
    panose-1="0 0 4 0 0 0 0 0 0 0"
    ascent="800"
    descent="-200"
    x-height="520"
    cap-height="730"
    bbox="-764.182 -222 1288 972"
    underline-thickness="50"
    underline-position="-200"
    slope="-6"
    unicode-range="U+0020-FB02"
  />
<missing-glyph horiz-adv-x="600" 
 />
    <glyph glyph-name="fi" unicode="fi" horiz-adv-x="642" 
d="M88 456q-20 0 -18 20l3 24q3 20 22 20h84q8 0 10 9l10 98q8 83 49 120t116 37q41 0 86 -14q15 -4 12 -23l-6 -25q-4 -20 -25 -14q-34 9 -64 9q-43 0 -66 -21t-28 -69l-10 -98q0 -9 9 -9h139q20 0 17 -20l-2 -24q-3 -20 -22 -20h-139q-9 0 -11 -9l-45 -433q-3 -20 -22 -20
h-35q-20 0 -17 20l45 433q2 9 -9 9h-83zM585 636q-22 0 -37 15.5t-15 38.5q0 25 19 42.5t45 17.5q22 0 36.5 -15t14.5 -36q0 -26 -19 -44.5t-44 -18.5zM588 520q20 0 17 -20l-50 -480q-3 -20 -22 -20h-35q-20 0 -17 20l50 480q2 20 22 20h35z" />
    <glyph glyph-name="fl" unicode="fl" horiz-adv-x="642" 
d="M88 456q-20 0 -18 20l3 24q3 20 22 20h84q8 0 10 9l10 98q8 83 49 120t116 37q41 0 86 -14q15 -4 12 -23l-6 -25q-4 -20 -25 -14q-34 9 -64 9q-43 0 -66 -21t-28 -69l-10 -98q0 -9 9 -9h139q20 0 17 -20l-2 -24q-3 -20 -22 -20h-139q-9 0 -11 -9l-45 -433q-3 -20 -22 -20
h-35q-20 0 -17 20l45 433q2 9 -9 9h-83zM615 780q20 0 17 -20l-77 -740q-3 -20 -22 -20h-35q-20 0 -17 20l77 740q2 20 22 20h35z" />
    <glyph glyph-name=".notdef" horiz-adv-x="600" 
 />
    <glyph glyph-name=".null" 
 />
    <glyph glyph-name="nonmarkingreturn" horiz-adv-x="333" 
 />
    <glyph glyph-name="space" unicode=" " horiz-adv-x="270" 
 />
    <glyph glyph-name="exclam" unicode="!" horiz-adv-x="267" 
d="M233 780q18 0 17 -20l-67 -566q-3 -21 -25 -21h-14q-24 0 -19 21l51 566q3 20 22 20h35zM132 -10q-21 0 -35 15t-14 36q0 23 18.5 40.5t42.5 17.5q20 0 34.5 -14.5t14.5 -34.5q0 -24 -18.5 -42t-42.5 -18z" />
    <glyph glyph-name="quotedbl" unicode="&#x22;" horiz-adv-x="345" 
d="M190 780q18 0 17 -19l-21 -195q-1 -17 -19 -17h-20q-18 0 -17 19l21 195q1 17 18 17h21zM338 780q18 0 17 -19l-21 -195q-1 -17 -19 -17h-20q-18 0 -17 19l21 195q1 17 18 17h21z" />
    <glyph glyph-name="numbersign" unicode="#" horiz-adv-x="789" 
d="M59 202l2 19q2 20 22 20h121q24 0 32 25l39 138q8 30 -22 30h-98q-21 0 -19 20l3 20q2 20 22 20h113q27 0 33 25l46 159q4 18 23 18h27q21 0 15 -21l-44 -151q-9 -30 23 -30h154q26 0 32 25l46 159q4 18 24 18h26q21 0 15 -21l-44 -151q-8 -30 23 -30h110q21 0 18 -20
l-2 -20q-3 -20 -22 -20h-125q-26 0 -33 -25l-40 -137q-8 -31 23 -31h104q20 0 18 -20l-2 -19q-3 -20 -22 -20h-120q-27 0 -33 -25l-40 -139q-5 -18 -23 -18h-25q-22 0 -16 22l37 130q8 30 -22 30h-154q-27 0 -34 -25l-39 -139q-5 -18 -23 -18h-26q-21 0 -15 22l37 130
q8 30 -22 30h-105q-21 0 -18 20zM303 272q-8 -31 23 -31h154q24 0 32 25l40 138q8 30 -22 30h-154q-27 0 -34 -25z" />
    <glyph glyph-name="dollar" unicode="$" horiz-adv-x="612" 
d="M60 182q-3 22 20 22h30q16 0 21 -17q15 -55 55 -88t95 -39q14 -3 16 12l20 195q2 13 -10 14q-77 11 -129.5 55t-52.5 116q0 84 60 137t158 58q13 1 15 14l4 33q2 20 22 20h11q20 0 18 -20l-4 -35q0 -11 11 -14q72 -12 123.5 -60.5t58.5 -118.5q3 -22 -20 -22h-33
q-17 0 -20 17q-8 44 -38.5 74t-75.5 42q-13 3 -15 -12l-23 -210q-2 -13 10 -14q52 -7 92.5 -23.5t69.5 -52t29 -86.5q0 -81 -62 -130.5t-164 -56.5q-13 -1 -14 -13l-5 -47q-2 -20 -22 -20h-12q-20 0 -18 19l6 48q1 11 -11 13q-81 10 -142 61t-74 129zM199 460q0 -44 31 -73
t81 -35q14 -1 15 11l22 206q1 6 -4 9t-15 2q-60 -2 -95 -36.5t-35 -83.5zM384 272q-15 2 -17 -12l-20 -189q-1 -6 2.5 -9.5t10.5 -2.5q64 5 103 37t39 78q0 83 -118 98z" />
    <glyph glyph-name="percent" unicode="%" horiz-adv-x="917" 
d="M92 527q0 98 52.5 155.5t136.5 57.5q65 0 106.5 -47.5t41.5 -119.5q0 -97 -52.5 -155.5t-135.5 -58.5q-64 0 -106.5 48.5t-42.5 119.5zM280 51l387 666q11 18 27 10l22 -9q18 -9 7 -26l-385 -669q-10 -18 -27 -9l-23 10q-18 7 -8 27zM153 530q0 -53 25 -83t68 -30
q54 0 87.5 40.5t33.5 110.5q0 53 -25 83.5t-68 30.5q-53 0 -87 -41.5t-34 -110.5zM564 158q0 98 53 155.5t135 57.5q66 0 107.5 -47.5t41.5 -120.5q0 -95 -52.5 -154t-136.5 -59q-63 0 -105.5 49t-42.5 119zM627 161q0 -53 24.5 -83t67.5 -30q53 0 86 41.5t33 111.5
q0 52 -24.5 82t-66.5 30q-54 0 -87 -41.5t-33 -110.5z" />
    <glyph glyph-name="ampersand" unicode="&#x26;" horiz-adv-x="738" 
d="M69 181q0 127 126 184q21 11 7 26q-22 19 -35 53t-13 70q0 90 66 149t162 59q85 0 141.5 -47t70.5 -122q3 -22 -21 -22h-36q-17 0 -21 16q-12 48 -46.5 76.5t-82.5 28.5q-65 0 -110 -39.5t-45 -102.5q0 -49 28.5 -84t68.5 -35h68q20 0 17 -20l-2 -21q-3 -20 -22 -20h-75
q-77 0 -122.5 -40t-45.5 -101q0 -55 48 -92t131 -37q110 0 180.5 70.5t81.5 177.5q3 22 -19 22h-39q-21 0 -18 20l2 21q3 20 22 20h207q20 0 17 -20l-2 -21q-3 -20 -22 -20h-51q-21 0 -24 -21q-16 -138 -107 -228t-235 -90q-111 0 -180.5 54.5t-69.5 135.5z" />
    <glyph glyph-name="quotesingle" unicode="'" horiz-adv-x="197" 
d="M190 780q18 0 17 -19l-21 -195q-1 -17 -19 -17h-20q-18 0 -17 19l21 195q1 17 18 17h21z" />
    <glyph glyph-name="parenleft" unicode="(" horiz-adv-x="307" 
d="M342 746q16 -21 -5 -38q-173 -150 -173 -432q0 -96 28 -179.5t70 -130.5q14 -17 -5 -38l-9 -10q-20 -20 -38 -1q-58 60 -91.5 154t-33.5 194q0 328 212 493q22 18 38 -1z" />
    <glyph glyph-name="parenright" unicode=")" horiz-adv-x="307" 
d="M216 417q0 192 -99 291q-18 18 4 38l10 11q20 19 38 1q124 -124 124 -347q0 -169 -53 -288t-161 -206q-23 -20 -38 1l-7 10q-14 22 -3 32q185 156 185 457z" />
    <glyph glyph-name="asterisk" unicode="*" horiz-adv-x="354" 
d="M327 695q10 4 18 0.5t9 -13.5l2 -9q5 -20 -19 -27l-44 -12q-13 -4 -5 -15l26 -38q12 -17 -6 -31l-5 -3q-18 -15 -30 3l-26 43q-7 13 -15 0l-35 -43q-17 -19 -32 -4l-5 4q-14 15 1 31l36 38q10 12 -4 15l-40 12q-22 6 -14 27l3 8q10 22 31 15l35 -17q12 -5 14 9l5 48
q2 23 23 23h12q22 0 19 -23l-6 -48q-1 -6 3 -8.5t9 -0.5z" />
    <glyph glyph-name="plus" unicode="+" horiz-adv-x="495" 
d="M76 280l3 23q3 20 23 20h130q18 0 20 19l13 129q3 20 23 20h24q20 0 18 -20l-14 -129q-2 -19 17 -19h129q21 0 18 -20l-3 -23q-2 -20 -21 -20h-130q-18 0 -20 -19l-14 -130q-2 -20 -22 -20h-23q-21 0 -18 20l13 130q3 19 -16 19h-131q-21 0 -19 20z" />
    <glyph glyph-name="comma" unicode="," horiz-adv-x="215" 
d="M80 78q4 18 25 18h35q23 0 17 -21l-45 -148q-6 -17 -24 -17h-22q-23 0 -17 21z" />
    <glyph glyph-name="hyphen" unicode="-" horiz-adv-x="537" 
d="M467 297q13 0 20 -7.5t5 -20.5l-1 -6q-3 -27 -30 -27h-336q-13 0 -19.5 7t-4.5 20l1 6q3 28 29 28h336z" />
    <glyph glyph-name="period" unicode="." horiz-adv-x="248" 
d="M123 -10q-23 0 -38 16t-15 39q0 25 19.5 43.5t45.5 18.5q22 0 37.5 -15t15.5 -37q0 -26 -19.5 -45.5t-45.5 -19.5z" />
    <glyph glyph-name="slash" unicode="/" horiz-adv-x="460" 
d="M55 -10q-21 0 -11 21l380 709q6 13 21 13h34q23 0 13 -21l-377 -709q-7 -13 -21 -13h-39z" />
    <glyph glyph-name="zero" unicode="0" horiz-adv-x="757" 
d="M95 320q0 187 99 303.5t263 116.5q126 0 205 -93.5t79 -233.5q0 -188 -100 -305.5t-263 -117.5q-126 0 -204.5 94t-78.5 236zM174 324q0 -118 57 -191t155 -73q120 0 197 98.5t77 247.5q0 118 -56.5 191t-153.5 73q-121 0 -198.5 -98.5t-77.5 -247.5z" />
    <glyph glyph-name="one" unicode="1" horiz-adv-x="504" 
d="M129 537q-10 -2 -15.5 3t-3.5 15l3 31q3 17 21 22q57 8 114.5 39t96.5 71q12 12 27 12h8q20 0 18 -20l-65 -616q-2 -22 20 -22h120q20 0 18 -20l-4 -32q-2 -20 -22 -20h-378q-21 0 -18 20l3 32q3 20 23 20h137q21 0 24 22l51 488q1 12 -4.5 15.5t-16.5 -3.5
q-69 -47 -157 -57z" />
    <glyph glyph-name="two" unicode="2" horiz-adv-x="638" 
d="M128 514q-21 0 -18 21q20 92 94 148.5t183 56.5q104 0 169 -53.5t65 -137.5q0 -80 -49 -142.5t-164 -156.5l-185 -153q-11 -9 -9 -17t16 -8h348q21 0 18 -20l-3 -32q-3 -20 -23 -20h-496q-18 0 -18 20v6q0 13 14 25l293 247q7 6 33.5 28.5t32.5 28t27 24t26 25.5t19 23
t18 26.5t11 26t9 30.5t2 32q0 57 -43.5 94t-117.5 37q-71 0 -124.5 -39t-69.5 -101q-5 -19 -23 -19h-35z" />
    <glyph glyph-name="three" unicode="3" horiz-adv-x="659" 
d="M69 178q-3 10 3 16t16 6h35q19 0 25 -18q36 -124 196 -124q91 0 145.5 41t54.5 109q0 62 -46.5 94.5t-134.5 32.5h-57q-20 0 -17 20l3 29q2 20 22 20h56q76 0 125 38.5t56 95.5q8 61 -32 98t-113 37q-149 0 -198 -120q-8 -18 -23 -18h-35q-23 0 -17 22q65 183 280 183
q106 0 166 -54.5t51 -142.5q-5 -51 -36 -91.5t-80 -65.5q-8 -5 -10.5 -8t0 -6.5t11.5 -7.5q52 -20 79.5 -62t27.5 -94q0 -99 -78.5 -158.5t-207.5 -59.5q-106 0 -174.5 49.5t-92.5 138.5z" />
    <glyph glyph-name="four" unicode="4" horiz-adv-x="652" 
d="M64 154q-21 0 -18 20l2 11q1 13 10 25q242 292 288 507q3 19 21 19h40q22 0 17 -20q-25 -105 -92.5 -230.5t-162.5 -240.5q-10 -11 -7 -19.5t17 -8.5h242q22 0 25 22l19 187q2 20 22 20h35q20 0 17 -20l-19 -187q-3 -22 20 -22h98q20 0 18 -20l-3 -23q-3 -20 -22 -20h-98
q-22 0 -24 -23l-13 -114q-2 -21 -22 -21h-34q-21 0 -18 21l12 114q3 23 -20 23h-350z" />
    <glyph glyph-name="five" unicode="5" horiz-adv-x="615" 
d="M63 178q-3 10 2.5 16t16.5 6h38q15 0 21 -16q37 -127 187 -127q86 0 136.5 47.5t50.5 121.5q0 72 -49 113t-138 41h-164q-41 0 -38 42l30 285q3 23 26 23h389q20 0 17 -20l-3 -33q-2 -20 -22 -20h-319q-22 0 -25 -22l-17 -162q-2 -23 20 -23h108q122 0 193 -57.5
t71 -162.5q0 -107 -73 -173.5t-197 -66.5q-214 0 -261 188z" />
    <glyph glyph-name="six" unicode="6" horiz-adv-x="660" 
d="M95 303q0 213 91 325t242 112q85 0 144.5 -48.5t72.5 -126.5q1 -10 -4.5 -16.5t-14.5 -6.5l-37 1q-15 0 -21 16q-14 52 -53 82.5t-94 30.5q-99 0 -168 -75t-79 -212q0 -3 -0.5 -8.5t-0.5 -9.5q-2 -11 3.5 -12.5t14.5 6.5q82 76 221 76q98 -1 159 -65t56 -155
q-5 -103 -79.5 -165t-189.5 -62q-129 0 -196 82t-67 231zM178 254q-8 -17 -5 -32q28 -164 184 -164q82 0 138 48.5t56 120.5q0 63 -43.5 103.5t-114.5 40.5q-68 0 -127.5 -32t-87.5 -85z" />
    <glyph glyph-name="seven" unicode="7" horiz-adv-x="554" 
d="M111 657q-21 0 -18 20l3 33q3 20 23 20h460q25 0 25 -21v-5q0 -20 -12 -33q-149 -154 -231 -306t-107 -345q-3 -20 -24 -20h-45q-20 0 -17 20q32 182 102 325.5t207 286.5q9 10 5.5 17.5t-16.5 7.5h-355z" />
    <glyph glyph-name="eight" unicode="8" horiz-adv-x="669" 
d="M76 187q0 128 136 193q24 14 4 31q-64 49 -64 127q0 92 70 147t190 55q98 0 159 -47.5t61 -125.5q0 -98 -90 -160q-23 -17 -2 -30q96 -51 96 -155q0 -109 -81 -170.5t-222 -61.5q-110 0 -183.5 56.5t-73.5 140.5zM229 537q0 -52 39 -84.5t110 -32.5q82 0 130 40t48 100
q0 52 -41 85t-110 33q-78 0 -127 -39.5t-49 -101.5zM153 194q0 -63 51 -101.5t136 -38.5q96 0 157.5 46.5t61.5 119.5q0 64 -49.5 100.5t-137.5 36.5q-101 0 -160 -44.5t-59 -118.5z" />
    <glyph glyph-name="nine" unicode="9" horiz-adv-x="659" 
d="M640 423q-10 -433 -324 -433q-91 0 -150.5 51.5t-73.5 136.5q-1 10 4.5 16t15.5 6h36q16 0 20 -17q25 -126 158 -126q96 0 152 68.5t78 200.5q1 4 2 11t2 11q1 12 -5 14.5t-14 -5.5q-85 -83 -210 -83q-97 0 -160 64t-63 149q0 123 78 188t203 65q116 0 185.5 -81.5
t65.5 -235.5zM187 493q0 -64 42 -107.5t120 -43.5q62 0 120 33t88 88q8 18 4 35q-10 86 -58.5 130t-120.5 44q-85 0 -140 -48t-55 -131z" />
    <glyph glyph-name="colon" unicode=":" horiz-adv-x="261" 
d="M166 345q-22 0 -37.5 16t-15.5 39q0 25 20 43.5t46 18.5q22 0 37 -15t15 -37q0 -26 -19.5 -45.5t-45.5 -19.5zM129 -10q-23 0 -38 16t-15 39q0 25 19.5 43.5t45.5 18.5q22 0 37.5 -15t15.5 -37q0 -26 -19.5 -45.5t-45.5 -19.5z" />
    <glyph glyph-name="semicolon" unicode=";" horiz-adv-x="253" 
d="M164 346q-22 0 -37.5 16.5t-15.5 39.5q0 25 19.5 43.5t45.5 18.5q23 0 38 -15t15 -37q0 -27 -19.5 -46.5t-45.5 -19.5zM99 78q5 18 24 18h36q23 0 16 -21l-43 -145q-4 -18 -25 -18h-22q-22 0 -17 21z" />
    <glyph glyph-name="less" unicode="&#x3c;" horiz-adv-x="480" 
d="M89 233q-15 8 -12 25l3 29q2 17 16 23l345 160q11 5 17.5 0.5t4.5 -15.5l-4 -34q-2 -17 -18 -23l-259 -112q-12 -5 -13.5 -13t10.5 -14l237 -107q15 -6 13 -23l-4 -34q-3 -25 -25 -15z" />
    <glyph glyph-name="equal" unicode="=" horiz-adv-x="529" 
d="M471 375q21 0 18 -20l-2 -22q-3 -20 -22 -20h-335q-21 0 -19 20l3 22q3 20 22 20h335zM453 198q20 0 18 -20l-3 -23q-3 -20 -22 -20h-335q-21 0 -18 20l2 23q3 20 23 20h335z" />
    <glyph glyph-name="greater" unicode="&#x3e;" horiz-adv-x="480" 
d="M97 80q-11 -5 -17 -0.5t-5 15.5l4 37q2 17 17 23l259 107q33 13 3 26l-234 112q-17 7 -15 24l4 31q2 11 8.5 15.5t16.5 -0.5l310 -160q13 -6 13 -23l-4 -29q-1 -17 -18 -25z" />
    <glyph glyph-name="question" unicode="?" horiz-adv-x="559" 
d="M112 535q-10 0 -14.5 6.5t-0.5 16.5q35 87 102 134.5t160 47.5q92 0 152 -54.5t60 -142.5q0 -106 -58 -165.5t-168 -89.5q-24 -8 -27 -29l-10 -73q-5 -19 -24 -19h-15q-20 0 -18 19l6 115q1 33 36 39q93 17 146.5 69t53.5 127q0 61 -38.5 97.5t-103.5 36.5
q-59 0 -106.5 -31t-75.5 -87q-9 -17 -24 -17h-33zM209 41q0 23 18.5 40.5t42.5 17.5q20 0 34.5 -14.5t14.5 -34.5q0 -24 -18.5 -42t-41.5 -18q-21 0 -35.5 15t-14.5 36z" />
    <glyph glyph-name="at" unicode="@" horiz-adv-x="941" 
d="M83 266q0 204 147 340.5t376 136.5q142 0 240 -87.5t98 -222.5t-65.5 -221t-165.5 -86q-27 0 -50.5 15t-34.5 37q-8 14 -24 3q-65 -57 -166 -57q-64 0 -109 47t-45 118q0 114 70 184t179 70q96 0 138 -67q10 -14 18 3l16 40q7 16 25 16h6q22 0 16 -21l-73 -258
q-11 -38 4 -56.5t47 -18.5q66 0 108.5 72t42.5 172q0 114 -78.5 186t-208.5 72q-190 0 -319 -120.5t-129 -293.5q0 -122 76.5 -194.5t204.5 -72.5q97 0 184 34q17 6 24.5 1.5t3.5 -17.5l-5 -14q-6 -21 -27 -28q-86 -35 -196 -35q-144 0 -236 90t-92 233zM348 296
q0 -52 29 -83.5t77 -31.5q99 0 157 73q10 13 15 30l25 87q5 19 0 33q-27 82 -123 82q-77 0 -128.5 -52.5t-51.5 -137.5z" />
    <glyph glyph-name="A" unicode="A" horiz-adv-x="711" 
d="M35 0q-10 0 -14 6.5t1 16.5l356 691q8 16 25 16h60q16 0 21 -16l204 -691q3 -10 -1.5 -16.5t-15.5 -6.5h-41q-18 0 -22 16l-43 153q-3 10 -14 10h-357q-11 0 -17 -10l-77 -153q-7 -16 -25 -16h-40zM226 268q-4 -7 -1.5 -11.5t10.5 -4.5h290q17 0 13 16l-106 370
q-2 8 -7.5 8t-9.5 -8z" />
    <glyph glyph-name="B" unicode="B" horiz-adv-x="669" 
d="M129 0q-23 0 -21 23l73 684q2 23 25 23h218q103 0 163.5 -47.5t60.5 -123.5q0 -116 -117 -169q-24 -11 -1 -23q45 -18 74 -59t29 -95q0 -95 -71.5 -154t-194.5 -59h-238zM227 423q-2 -15 14 -15h145q77 0 130.5 41t53.5 102q0 56 -41 84t-114 28h-148q-15 0 -16 -15z
M191 82q0 -15 14 -15h165q88 0 137 42t49 105q0 38 -17 64.5t-45.5 39t-56 18t-56.5 5.5h-147q-16 0 -17 -15z" />
    <glyph glyph-name="C" unicode="C" horiz-adv-x="827" 
d="M89 330q0 179 124 294.5t296 115.5q134 0 222 -81t93 -194q2 -21 -21 -21h-40q-17 0 -19 18q-8 92 -72.5 149t-170.5 57q-133 0 -232.5 -94t-99.5 -238q0 -122 77.5 -198t191.5 -76q96 0 173 46.5t110 128.5q7 16 24 16h40q9 0 13.5 -6.5t0.5 -15.5q-41 -107 -139.5 -174
t-229.5 -67q-139 0 -240 95.5t-101 244.5z" />
    <glyph glyph-name="D" unicode="D" horiz-adv-x="801" 
d="M129 0q-23 0 -21 23l73 684q2 23 25 23h245q145 0 241 -95t96 -235q0 -179 -120.5 -289.5t-293.5 -110.5h-245zM193 82q-2 -15 13 -15h175q85 0 158.5 38t121 115t47.5 177q0 123 -76 194.5t-188 71.5h-175q-15 0 -17 -15z" />
    <glyph glyph-name="E" unicode="E" horiz-adv-x="567" 
d="M129 0q-23 0 -21 23l73 684q2 23 25 23h359q20 0 17 -20l-3 -27q-3 -20 -22 -20h-289q-15 0 -17 -15l-24 -236q-2 -15 13 -15h268q21 0 18 -20l-3 -28q-2 -20 -21 -20h-269q-15 0 -17 -15l-24 -231q-2 -15 14 -15h291q21 0 18 -20l-3 -28q-2 -20 -22 -20h-361z" />
    <glyph glyph-name="F" unicode="F" horiz-adv-x="551" 
d="M126 0q-20 0 -18 20l73 687q2 23 25 23h359q20 0 17 -20l-3 -28q-2 -20 -21 -20h-289q-15 0 -17 -15l-25 -243q-2 -15 13 -15h283q21 0 18 -20l-2 -28q-3 -20 -23 -20h-283q-15 0 -17 -15l-30 -286q-2 -20 -22 -20h-38z" />
    <glyph glyph-name="G" unicode="G" horiz-adv-x="824" 
d="M89 332q0 122 59 217t151.5 143t199.5 48q134 0 217 -75t97 -187q3 -22 -21 -22h-33q-17 0 -20 19q-10 83 -73.5 139.5t-169.5 56.5q-132 0 -229.5 -93.5t-97.5 -242.5q0 -123 78 -199.5t193 -76.5q105 0 178 50t100 137q5 16 -11 16h-210q-21 0 -18 20l3 27q2 20 22 20
h275q12 0 18.5 -6.5t4.5 -15.5l-2 -12q-20 -136 -117.5 -220.5t-249.5 -84.5q-143 0 -243.5 95t-100.5 247z" />
    <glyph glyph-name="H" unicode="H" horiz-adv-x="838" 
d="M126 0q-20 0 -18 20l73 690q2 20 22 20h38q20 0 18 -20l-30 -286q-3 -22 19 -22h426q22 0 25 22l30 286q2 20 22 20h38q20 0 18 -20l-72 -690q-3 -20 -23 -20h-38q-20 0 -17 20l29 286q3 22 -20 22h-426q-22 0 -24 -22l-30 -286q-2 -20 -22 -20h-38z" />
    <glyph glyph-name="I" unicode="I" horiz-adv-x="291" 
d="M241 730q20 0 18 -20l-73 -690q-2 -20 -22 -20h-38q-20 0 -18 20l73 690q2 20 22 20h38z" />
    <glyph glyph-name="J" unicode="J" horiz-adv-x="675" 
d="M47 222q0 22 21 22h35q17 0 20 -18q8 -77 57.5 -120.5t135.5 -43.5q90 0 146.5 57.5t67.5 159.5l38 358q3 22 -20 22h-256q-21 0 -18 20l3 31q3 20 23 20h327q28 0 25 -28l-44 -423q-15 -136 -89.5 -212.5t-210.5 -76.5q-110 0 -183 66t-78 166z" />
    <glyph glyph-name="K" unicode="K" horiz-adv-x="638" 
d="M241 730q20 0 18 -20l-73 -690q-2 -20 -22 -20h-38q-20 0 -18 20l73 690q2 20 22 20h38zM284 330q-10 11 -7 28l2 17q1 16 12 28l298 316q10 11 26 11h47q13 0 15 -7.5t-7 -17.5l-310 -331q-10 -11 -2 -22l261 -327q7 -10 3 -17.5t-17 -7.5h-51q-16 0 -23 11z" />
    <glyph glyph-name="L" unicode="L" horiz-adv-x="574" 
d="M134 0q-28 0 -25 28l72 682q2 20 22 20h38q20 0 18 -20l-66 -623q0 -15 14 -15h341q20 0 17 -20l-3 -32q-2 -20 -22 -20h-406z" />
    <glyph glyph-name="M" unicode="M" horiz-adv-x="895" 
d="M126 0q-21 0 -18 20l71 682q3 28 32 28h20q22 0 32 -19l210 -379q9 -16 21 0l286 379q13 19 36 19h22q27 0 25 -28l-72 -682q-2 -20 -22 -20h-32q-21 0 -18 20l57 550q2 11 -4.5 12.5t-13.5 -7.5l-250 -330q-12 -18 -34 -18h-1q-21 0 -32 18l-184 330q-5 9 -11.5 7
t-8.5 -13l-57 -549q-2 -20 -22 -20h-32z" />
    <glyph glyph-name="N" unicode="N" horiz-adv-x="828" 
d="M126 0q-20 0 -18 20l72 683q2 27 30 27h9q21 0 30 -16l398 -579q5 -8 11 -6t8 13l59 568q3 20 23 20h30q20 0 17 -20l-72 -683q-2 -27 -29 -27h-17q-21 0 -31 16l-391 558q-3 5 -7.5 6.5t-7.5 -2t-4 -10.5l-57 -548q-2 -20 -22 -20h-31z" />
    <glyph glyph-name="O" unicode="O" horiz-adv-x="872" 
d="M89 330q0 185 124 297.5t300 112.5q146 0 246.5 -93.5t100.5 -244.5q0 -179 -123 -295.5t-303 -116.5q-143 0 -244 92.5t-101 247.5zM169 336q0 -123 78 -200t195 -77q137 0 237.5 95t100.5 242q0 123 -78 199t-196 76q-136 0 -236.5 -94.5t-100.5 -240.5z" />
    <glyph glyph-name="P" unicode="P" horiz-adv-x="613" 
d="M126 0q-20 0 -18 20l73 687q2 23 25 23h148q121 0 199 -67.5t78 -169.5q0 -120 -94.5 -196t-236.5 -76h-78q-14 0 -16 -15l-20 -186q-2 -20 -22 -20h-38zM216 304q-2 -15 13 -15h80q102 0 172 58.5t70 145.5q0 77 -56 123t-147 46h-79q-15 0 -17 -15z" />
    <glyph glyph-name="Q" unicode="Q" horiz-adv-x="872" 
d="M729 99l51 -67q13 -18 -6 -33l-16 -13q-19 -15 -34 3l-52 67q-107 -66 -238 -66q-143 0 -244 92.5t-101 247.5q0 185 124 297.5t300 112.5q146 0 246.5 -93.5t100.5 -244.5q0 -185 -131 -303zM442 59q101 0 186 54l-106 136q-13 16 6 34l18 14q19 14 33 -3l104 -136
q97 97 97 238q0 123 -78 199t-196 76q-136 0 -236.5 -94.5t-100.5 -240.5q0 -123 78 -200t195 -77z" />
    <glyph glyph-name="R" unicode="R" horiz-adv-x="613" 
d="M108 20l73 687q2 23 25 23h135q120 0 196.5 -63t76.5 -162q0 -105 -83 -170.5t-191 -68.5l-11 -1q-8 -1 -10 -7.5t5 -13.5l219 -220q9 -9 5 -17t-18 -8l-53 1q-15 0 -26 12l-221 230q-6 8 -13 5t-8 -13l-23 -214q-2 -20 -22 -20h-38q-20 0 -18 20zM220 342q-2 -15 14 -15
h65q104 0 169.5 49.5t65.5 129.5q0 71 -54.5 113.5t-146.5 42.5h-64q-15 0 -17 -15z" />
    <glyph glyph-name="S" unicode="S" horiz-adv-x="622" 
d="M62 182q-2 10 3 16t16 6h38q15 0 20 -16q40 -128 194 -128q75 0 125 35.5t50 96.5q0 37 -20.5 63.5t-53.5 43t-73 30t-80 29.5t-73 36.5t-53.5 56t-20.5 83.5q0 92 67 149t177 57q91 0 156.5 -52t79.5 -130q2 -10 -3.5 -16.5t-16.5 -6.5h-36q-16 0 -21 17
q-14 54 -58.5 86t-107.5 32q-70 0 -114 -35.5t-44 -92.5q0 -36 20.5 -62.5t54 -43t73.5 -30.5t79.5 -30t73 -37t54 -57.5t20.5 -84.5q0 -95 -74.5 -151t-187.5 -56q-100 0 -172.5 53t-91.5 139z" />
    <glyph glyph-name="T" unicode="T" horiz-adv-x="592" 
d="M103 658q-20 0 -17 20l3 32q2 20 22 20h524q21 0 18 -20l-3 -32q-3 -20 -23 -20h-203q-20 0 -22 -20l-65 -618q-2 -20 -22 -20h-41q-20 0 -17 20l64 618q2 20 -18 20h-200z" />
    <glyph glyph-name="U" unicode="U" horiz-adv-x="793" 
d="M126 306l43 404q2 20 22 20h40q20 0 17 -20l-42 -408q-11 -106 42.5 -173t154.5 -67q98 0 167.5 66t80.5 174l42 408q3 20 23 20h39q20 0 18 -20l-43 -404q-15 -141 -104 -228.5t-231 -87.5q-129 0 -206 89t-63 227z" />
    <glyph glyph-name="V" unicode="V" horiz-adv-x="699" 
d="M93 707q-3 10 1.5 16.5t15.5 6.5h48q15 0 21 -16l174 -606q2 -7 6.5 -10t9.5 0t8 10l290 606q7 16 24 16h44q25 0 13 -23l-341 -685q-10 -22 -36 -22h-38q-24 0 -30 22z" />
    <glyph glyph-name="W" unicode="W" horiz-adv-x="990" 
d="M103 708q-3 22 19 22h41q18 0 21 -17l90 -560q1 -9 5 -12t9.5 0t8.5 11l230 559q7 19 29 19h42q18 0 23 -19l110 -563q1 -9 5.5 -12t9.5 0.5t8 12.5l204 563q7 18 24 18h35q23 0 15 -22l-259 -689q-8 -19 -27 -19h-39q-20 0 -25 19l-107 566q-1 8 -5.5 11t-9.5 0t-8 -11
l-236 -566q-8 -19 -29 -19h-38q-20 0 -23 19z" />
    <glyph glyph-name="X" unicode="X" horiz-adv-x="661" 
d="M36 0q-13 0 -15.5 7t5.5 17l287 335q12 13 4 27l-196 320q-7 10 -2.5 17t16.5 7h44q13 0 22 -13l166 -271q11 -20 26 0l230 272q11 12 26 12h43q12 0 14.5 -7t-5.5 -17l-274 -321q-11 -14 -4 -27l205 -334q6 -10 1.5 -17t-15.5 -7h-44q-16 0 -23 13l-174 284
q-10 19 -26 0l-239 -285q-10 -12 -26 -12h-46z" />
    <glyph glyph-name="Y" unicode="Y" horiz-adv-x="637" 
d="M98 706q-5 10 -0.5 17t16.5 7h46q16 0 22 -14l164 -346q10 -22 25 0l236 346q8 14 26 14h36q12 0 15 -7t-4 -17l-285 -416q-7 -12 -9 -24l-25 -243q-2 -23 -25 -23h-32q-23 0 -21 23l25 243q2 12 -3 24z" />
    <glyph glyph-name="Z" unicode="Z" horiz-adv-x="659" 
d="M43 0q-22 0 -19 19v5q3 14 11 25l516 585q9 11 6 19t-16 8h-408q-21 0 -18 20l3 29q2 20 22 20h531q19 0 19 -19l-1 -5q0 -13 -11 -26l-514 -585q-10 -11 -7 -19t17 -8h449q21 0 18 -20l-3 -28q-2 -20 -22 -20h-573z" />
    <glyph glyph-name="bracketleft" unicode="[" horiz-adv-x="324" 
d="M124 -106q-17 0 -25 9.5t-6 25.5l86 820q5 31 34 31h136q27 0 24 -27l-1 -13q-2 -28 -30 -28h-80q-17 0 -18 -16l-75 -716q-2 -18 16 -18h78q27 0 25 -28l-1 -13q-3 -27 -31 -27h-132z" />
    <glyph glyph-name="backslash" unicode="\" horiz-adv-x="455" 
d="M412 13q8 -23 -17 -23h-25q-18 0 -22 15l-230 705q-7 23 18 23h25q16 0 22 -15z" />
    <glyph glyph-name="bracketright" unicode="]" horiz-adv-x="324" 
d="M47 -106q-27 0 -24 27l1 13q2 28 30 28h79q18 0 19 16l75 716q2 18 -17 18h-78q-26 0 -24 28l1 13q3 27 31 27h140q26 0 23 -26l-87 -834q-3 -26 -29 -26h-140z" />
    <glyph glyph-name="asciicircum" unicode="^" horiz-adv-x="482" 
d="M141 625q-9 16 11 27l140 80q26 15 48 0l127 -80q16 -10 5 -27l-3 -4q-12 -16 -27 -8l-111 55q-20 10 -44 0l-119 -55q-18 -9 -25 8z" />
    <glyph glyph-name="underscore" unicode="_" horiz-adv-x="565" 
d="M490 0q24 0 24 -27v-7q-2 -27 -30 -27h-417q-24 0 -24 27l1 7q2 27 30 27h416z" />
    <glyph glyph-name="grave" unicode="`" horiz-adv-x="600" 
d="M301 732q9 18 27 7l155 -99q16 -12 6 -28l-4 -6q-12 -16 -28 -9l-166 80q-18 9 -7 27z" />
    <glyph glyph-name="a" unicode="a" horiz-adv-x="579" 
d="M58 128q0 76 62.5 119.5t172.5 43.5l131 -1q36 0 36 52q0 60 -34 91.5t-98 31.5q-54 0 -95.5 -26t-54.5 -66q-5 -17 -23 -17h-31q-23 0 -17 21q20 71 81.5 112t149.5 41q99 0 151.5 -59t41.5 -162l-30 -289q-3 -20 -23 -20h-11q-18 0 -21 17v18q-2 18 -12.5 22.5
t-27.5 -7.5q-87 -60 -192 -60q-65 0 -110.5 40t-45.5 98zM133 135q0 -37 29 -58t74 -21q80 0 182 64q21 14 24 39l4 37q3 33 -29 33h-129q-155 0 -155 -94z" />
    <glyph glyph-name="b" unicode="b" horiz-adv-x="659" 
d="M89 20l77 740q3 20 23 20h31q21 0 18 -20l-28 -266q-2 -20 6.5 -23.5t28.5 9.5q71 50 167 50q107 0 167.5 -67.5t60.5 -175.5q0 -133 -83.5 -215t-201.5 -82q-106 0 -168 65q-14 14 -25 9t-16 -25l-3 -21q-7 -18 -23 -18h-13q-21 0 -18 20zM181 193q-2 -24 7 -40
q48 -98 168 -98q83 0 145.5 65.5t62.5 159.5q0 80 -46.5 132.5t-118.5 52.5q-118 0 -189 -97q-12 -16 -14 -40z" />
    <glyph glyph-name="c" unicode="c" horiz-adv-x="598" 
d="M537 336q-17 0 -21 18q-9 45 -49.5 78t-101.5 33q-90 0 -152 -64t-62 -162q0 -82 49 -133t121 -51q61 0 106.5 28t65.5 76q7 17 24 17h33q10 0 15 -6t1 -16q-26 -73 -92 -118.5t-158 -45.5q-101 0 -171 71.5t-70 174.5q0 127 84 210.5t212 83.5q90 0 149.5 -51t68.5 -122
q3 -21 -20 -21h-32z" />
    <glyph glyph-name="d" unicode="d" horiz-adv-x="658" 
d="M75 235q0 129 84.5 212t208.5 83q84 0 144 -47q34 -23 38 17l27 260q3 20 23 20h32q21 0 18 -20l-77 -740q-3 -20 -23 -20h-10q-18 0 -21 17l2 21q-3 36 -36 9q-70 -57 -173 -57q-102 0 -169.5 70t-67.5 175zM151 242q0 -79 49 -133t121 -54q108 0 179 91q13 16 16 42
l15 145q2 27 -6 41q-50 91 -161 91q-84 0 -148.5 -64.5t-64.5 -158.5z" />
    <glyph glyph-name="e" unicode="e" horiz-adv-x="594" 
d="M75 235q0 124 78.5 209.5t199.5 85.5q111 0 167 -68t56 -165q0 -56 -36 -56l-356 1q-17 0 -26.5 -10t-8.5 -26q7 -69 52 -110t112 -41q118 0 161 89q8 16 25 16h30q10 0 14.5 -6.5t0.5 -15.5q-61 -148 -237 -148q-97 0 -164.5 69t-67.5 176zM173 341q-8 -17 -1 -27
t25 -10l270 -1q18 0 27.5 10t5.5 27q-9 55 -50 90.5t-102 35.5q-118 0 -175 -125z" />
    <glyph glyph-name="f" unicode="f" horiz-adv-x="389" 
d="M88 456q-20 0 -18 20l3 24q3 20 22 20h84q8 0 10 9l10 98q8 83 49 120t116 37q41 0 86 -14q15 -4 12 -23l-6 -25q-4 -20 -25 -14q-34 9 -64 9q-43 0 -66 -21t-28 -69l-10 -98q0 -9 9 -9h139q20 0 17 -20l-2 -24q-3 -20 -22 -20h-139q-9 0 -11 -9l-45 -433q-3 -20 -22 -20
h-35q-20 0 -17 20l45 433q2 9 -9 9h-83z" />
    <glyph glyph-name="g" unicode="g" horiz-adv-x="658" 
d="M74 238q0 125 84 208.5t209 83.5q93 0 158 -62q32 -30 41 13l2 21q5 18 25 18h13q20 0 18 -20l-51 -479q-11 -110 -83 -171t-193 -61q-78 0 -137 37t-75 95q-6 22 19 22h31q15 0 22 -16q11 -34 51 -54t95 -20q85 0 141.5 46t59.5 122l1 13q1 19 -7.5 21.5t-25.5 -10.5
q-62 -50 -159 -50q-106 0 -172.5 68.5t-66.5 174.5zM150 244q0 -78 49.5 -131.5t122.5 -53.5q114 0 180 94q12 16 15 42l14 136q3 23 -6 40q-49 94 -161 94q-84 0 -149 -65t-65 -156z" />
    <glyph glyph-name="h" unicode="h" horiz-adv-x="646" 
d="M107 0q-21 0 -18 20l77 740q3 20 23 20h31q20 0 17 -20l-27 -264q-2 -22 7.5 -26.5t35.5 9.5q97 51 188 51q82 0 125.5 -50t34.5 -141l-33 -319q-3 -20 -23 -20h-34q-21 0 -18 20l33 316q7 62 -21.5 95t-86.5 33q-80 0 -193 -68q-24 -14 -27 -40l-34 -336q-3 -20 -23 -20
h-34z" />
    <glyph glyph-name="i" unicode="i" horiz-adv-x="253" 
d="M196 636q-22 0 -37 15.5t-15 38.5q0 25 19 42.5t45 17.5q22 0 36.5 -15t14.5 -36q0 -26 -19 -44.5t-44 -18.5zM199 520q20 0 17 -20l-50 -480q-3 -20 -22 -20h-35q-20 0 -17 20l50 480q2 20 22 20h35z" />
    <glyph glyph-name="j" unicode="j" horiz-adv-x="259" 
d="M201 636q-22 0 -37 15.5t-15 38.5q0 25 19 42.5t45 17.5q22 0 36.5 -15t14.5 -36q0 -26 -19 -44.5t-44 -18.5zM24 -207q-39 0 -61 6q-16 4 -13 24l6 24q4 19 24 16q20 -4 34 -4q30 0 50 19t24 57l59 565q3 20 23 20h34q20 0 18 -20l-60 -570q-7 -64 -41.5 -100.5
t-96.5 -36.5z" />
    <glyph glyph-name="k" unicode="k" horiz-adv-x="561" 
d="M107 0q-21 0 -18 20l77 740q3 20 23 20h34q20 0 18 -20l-49 -476q-2 -24 9 -28.5t30 13.5l260 241q10 10 27 10h41q13 0 15 -7.5t-8 -17.5l-188 -180q-24 -22 -7 -46l172 -244q7 -10 3 -17.5t-17 -7.5h-42q-15 0 -24 12l-143 205q-18 28 -46 3l-81 -73q-18 -15 -21 -41
l-8 -86q-3 -20 -23 -20h-34z" />
    <glyph glyph-name="l" unicode="l" horiz-adv-x="253" 
d="M226 780q20 0 17 -20l-77 -740q-3 -20 -22 -20h-35q-20 0 -17 20l77 740q2 20 22 20h35z" />
    <glyph glyph-name="m" unicode="m" horiz-adv-x="1049" 
d="M107 0q-21 0 -18 20l50 480q3 20 23 20h14q14 0 19 -18l3 -22q5 -31 38 -11q104 61 204 61q83 0 134 -59q21 -25 50 -7q104 66 215 66q84 0 128.5 -50.5t35.5 -140.5l-33 -319q-3 -20 -23 -20h-34q-20 0 -18 20l33 316q7 62 -21.5 95t-85.5 33q-80 0 -193 -66
q-26 -15 -26 -35q0 -16 -1 -24l-33 -319q-3 -20 -23 -20h-34q-20 0 -18 20l33 316q7 62 -21 95t-86 33q-82 0 -194 -67q-24 -13 -26 -39l-35 -338q-3 -20 -23 -20h-34z" />
    <glyph glyph-name="n" unicode="n" horiz-adv-x="652" 
d="M107 0q-21 0 -18 20l50 480q3 20 23 20h15q19 0 20 -18l-1 -18q2 -39 41 -14q100 60 211 60q80 0 124.5 -51t34.5 -140l-33 -319q-3 -20 -22 -20h-35q-20 0 -18 20l34 316q7 63 -22.5 95.5t-89.5 32.5q-83 0 -196 -68q-24 -14 -27 -40l-34 -336q-3 -20 -23 -20h-34z" />
    <glyph glyph-name="o" unicode="o" horiz-adv-x="641" 
d="M75 236q0 126 84.5 210t217.5 84q105 0 174.5 -70.5t69.5 -172.5q0 -127 -84 -212t-217 -85q-106 0 -175.5 71t-69.5 175zM149 241q0 -81 49 -133.5t128 -52.5q94 0 157 65.5t63 159.5q0 79 -49 132t-128 53q-95 0 -157.5 -64.5t-62.5 -159.5z" />
    <glyph glyph-name="p" unicode="p" horiz-adv-x="658" 
d="M84 -220q-21 0 -18 20l73 700q3 20 23 20h16q19 0 19 -19l-2 -18q-1 -21 9.5 -22.5t29.5 13.5q69 56 173 56q109 0 170.5 -69.5t61.5 -173.5q0 -129 -85 -213t-205 -84q-94 0 -152 51q-34 29 -38 -14l-23 -227q-3 -20 -23 -20h-29zM181 190q-2 -26 6 -40q50 -95 162 -95
q85 0 149.5 65.5t64.5 159.5q0 81 -49 133t-122 52q-117 0 -182 -94q-11 -16 -14 -40z" />
    <glyph glyph-name="q" unicode="q" horiz-adv-x="658" 
d="M75 235q0 134 85.5 214.5t213.5 80.5q87 0 153 -61q14 -13 25.5 -10t14.5 22l3 21q3 18 24 18h12q20 0 18 -20l-72 -687q-3 -20 -23 -20h-28q-21 0 -18 20l22 214q2 20 -7 23t-26 -10q-62 -50 -153 -50q-106 0 -175 70t-69 175zM151 242q0 -82 50.5 -134.5t127.5 -52.5
q101 0 173 93q12 16 15 41l14 143q3 25 -5 41q-50 92 -154 92q-90 0 -155.5 -63.5t-65.5 -159.5z" />
    <glyph glyph-name="r" unicode="r" horiz-adv-x="406" 
d="M107 0q-21 0 -18 20l50 480q3 20 23 20h15q16 0 19 -18l-1 -18q4 -34 39 -10q78 56 159 56q13 0 37 -4q18 -4 12 -24l-7 -32q-5 -20 -25 -16q-15 4 -39 4q-63 0 -149 -67q-21 -15 -24 -41l-34 -330q-3 -20 -23 -20h-34z" />
    <glyph glyph-name="s" unicode="s" horiz-adv-x="542" 
d="M105 379q0 70 55 110.5t159 40.5q92 0 145 -42.5t56 -108.5q0 -21 -22 -21h-29q-17 0 -19 18q-3 42 -36 67.5t-99 25.5q-63 0 -99.5 -25t-36.5 -61t34 -56t82.5 -30t97.5 -22.5t83 -44t34 -83.5q0 -74 -64 -115.5t-169 -41.5q-82 0 -146 42t-74 111q-2 22 21 22h31
q16 0 20 -17q11 -47 53 -72t103 -25q68 0 109.5 24.5t41.5 69.5q0 36 -34 56.5t-82.5 30t-97 21.5t-83 43t-34.5 83z" />
    <glyph glyph-name="t" unicode="t" horiz-adv-x="413" 
d="M93 456q-20 0 -17 20l2 24q3 20 22 20h54q8 0 10 9l10 102q3 18 20 22l33 9q11 3 17 -2t4 -15l-12 -116q-2 -9 9 -9h179q21 0 18 -20l-2 -24q-3 -20 -23 -20h-179q-10 0 -11 -9l-31 -303q-10 -88 70 -88q50 0 108 20q23 8 23 -14v-23q0 -19 -17 -25q-69 -24 -133 -24
q-63 0 -98.5 38.5t-27.5 114.5l32 304q1 9 -9 9h-51z" />
    <glyph glyph-name="u" unicode="u" horiz-adv-x="632" 
d="M100 181l34 319q2 20 22 20h35q20 0 17 -20l-33 -316q-7 -62 21.5 -95t86.5 -33q70 0 178 60q23 12 26 39l37 345q2 20 22 20h35q20 0 17 -20l-50 -480q-3 -20 -22 -20h-15q-20 0 -20 18l1 11q0 38 -41 16q-100 -55 -194 -55q-78 0 -122 51t-35 140z" />
    <glyph glyph-name="v" unicode="v" horiz-adv-x="563" 
d="M79 497q-3 10 2 16.5t17 6.5h43q16 0 20 -16l118 -413q3 -10 11 -10t12 10l209 413q7 16 24 16h40q23 0 12 -23l-254 -477q-11 -20 -33 -20h-37q-21 0 -29 20z" />
    <glyph glyph-name="w" unicode="w" horiz-adv-x="808" 
d="M82 498q-5 22 20 22h33q17 0 20 -17l67 -385q2 -12 9.5 -12t12.5 12l169 383q9 20 30 20h32q20 0 25 -20l86 -387q1 -7 5.5 -10t9 0t7.5 11l152 388q7 17 25 17h33q22 0 13 -22l-197 -477q-9 -21 -30 -21h-35q-23 0 -26 21l-85 377q-1 7 -5 10t-8.5 0t-7.5 -10l-169 -377
q-9 -21 -31 -21h-33q-22 0 -25 21z" />
    <glyph glyph-name="x" unicode="x" horiz-adv-x="536" 
d="M46 0q-12 0 -15 7.5t6 16.5l204 233q11 11 2 23l-150 215q-7 10 -2 17.5t18 7.5h39q15 0 22 -12l121 -183q4 -7 10.5 -7t12.5 7l151 182q10 13 26 13h41q13 0 15.5 -7t-5.5 -17l-191 -220q-9 -12 -1 -24l159 -227q7 -10 2.5 -17.5t-17.5 -7.5h-41q-14 0 -23 12l-128 192
q-11 16 -23 0l-164 -192q-9 -12 -25 -12h-44z" />
    <glyph glyph-name="y" unicode="y" horiz-adv-x="553" 
d="M80 497q-3 10 2 16.5t16 6.5h41q17 0 21 -16l117 -409q4 -12 11.5 -12.5t13.5 12.5l197 409q9 16 25 16h42q11 0 14 -6t-2 -17l-287 -555q-31 -59 -52 -88t-57.5 -47t-91.5 -18q-38 0 -69 10q-18 4 -13 24l5 19q7 23 25 15q27 -8 62 -8q45 0 73.5 25.5t58.5 81.5l24 44
h-8q-13 0 -18 14z" />
    <glyph glyph-name="z" unicode="z" horiz-adv-x="524" 
d="M33 23q0 12 11 25l372 389q7 8 5 14.5t-13 6.5h-300q-20 0 -17 20l2 22q3 20 23 20h398q19 0 17 -19l-2 -19q-1 -13 -11 -24l-356 -375q-8 -8 -6 -14.5t13 -6.5h310q21 0 18 -20l-2 -22q-3 -20 -23 -20h-421q-20 0 -18 19v4z" />
    <glyph glyph-name="braceleft" unicode="{" horiz-adv-x="301" 
d="M221 430q-5 -43 -21 -66t-36 -28q47 -13 39 -87l-19 -186q-9 -87 52 -100q25 -6 22 -29v-12q-3 -30 -31 -27q-54 5 -90.5 42t-29.5 110l20 195q5 51 -28 58q-25 8 -23 29l2 16q3 20 28 28q35 7 41 64l22 199q8 72 44 105t107 38q13 1 19.5 -6.5t4.5 -21.5v-11
q-3 -23 -30 -28q-35 -4 -50.5 -25.5t-20.5 -66.5z" />
    <glyph glyph-name="bar" unicode="|" horiz-adv-x="263" 
d="M120 0q-20 0 -17 20l72 690q2 20 21 20l24 -1q20 0 18 -20l-72 -690q-3 -20 -23 -20z" />
    <glyph glyph-name="braceright" unicode="}" horiz-adv-x="301" 
d="M188 622q8 83 -51 91q-26 5 -23 27v11q2 14 10 21.5t21 6.5q61 -5 94 -43t26 -100l-19 -198q-6 -56 27 -63q26 -8 23 -29l-3 -19q-3 -21 -28 -28q-34 -9 -40 -59l-22 -193q-8 -79 -47 -112.5t-104 -39.5q-13 -1 -19.5 6t-4.5 21v12q3 23 29 29q63 10 73 100l19 184
q4 37 21.5 60t38.5 29q-20 6 -32 31.5t-8 64.5z" />
    <glyph glyph-name="asciitilde" unicode="~" horiz-adv-x="552" 
d="M496 319q17 -5 11 -24q-13 -36 -44.5 -57t-74.5 -20q-40 1 -89.5 25t-72.5 24q-41 0 -62 -34q-12 -19 -30 -12l-18 4q-20 5 -14 23q11 38 40.5 60.5t69.5 21.5q36 -1 89 -26t80 -25q43 -1 65 33q14 17 32 12z" />
    <glyph glyph-name="uni00A0" unicode="&#xa0;" horiz-adv-x="270" 
 />
    <glyph glyph-name="exclamdown" unicode="&#xa1;" horiz-adv-x="252" 
d="M235 524q0 -23 -18.5 -40.5t-41.5 -17.5q-21 0 -35 14t-14 35q0 24 18 42t43 18q20 0 34 -15t14 -36zM121 -215h-35q-20 0 -17 20l67 566q3 20 25 20h13q22 0 19 -20l-51 -566q-1 -20 -21 -20z" />
    <glyph glyph-name="cent" unicode="&#xa2;" horiz-adv-x="602" 
d="M80 276q0 117 73 197.5t183 93.5q12 2 14 14l9 90q3 20 22 20h13q21 0 18 -20l-9 -89q-2 -14 11 -14q74 -7 126.5 -58.5t56.5 -112.5q3 -21 -21 -21h-34q-16 0 -20 18q-6 38 -37 69t-76 37q-14 2 -16 -13l-39 -374q-1 -7 2 -10.5t10 -2.5q45 6 80.5 32.5t51.5 65.5
q8 18 24 18h35q23 0 17 -22q-24 -72 -80.5 -113.5t-136.5 -48.5q-11 -1 -13 -14l-8 -68q-2 -20 -21 -20h-13q-21 0 -19 20l8 69q2 14 -11 14q-83 12 -141.5 81t-58.5 162zM158 278q0 -68 34.5 -115t92.5 -61q14 -3 16 12l39 372q1 6 -2.5 9.5t-9.5 2.5q-73 -15 -121.5 -76
t-48.5 -144z" />
    <glyph glyph-name="sterling" unicode="&#xa3;" horiz-adv-x="662" 
d="M72 256l1 10q3 20 23 20h80q-14 92 -14 114q0 113 71 180t194 67q83 0 145.5 -51t72.5 -127q3 -22 -20 -22h-37q-16 0 -22 20q-14 50 -53 80.5t-94 30.5q-80 0 -129.5 -49.5t-49.5 -133.5q0 -16 9 -109h241q20 0 17 -20l-1 -10q-2 -20 -21 -20h-234q-3 -71 -63 -140
q-5 -6 -3.5 -10t8.5 -3q3 0 9.5 0.5t10.5 0.5q45 0 112.5 -19t111.5 -19q99 0 118 61q6 16 23 16h25q19 0 19 -18q-1 -55 -43.5 -91.5t-134.5 -36.5q-53 0 -129 18t-133 17q-38 -1 -68 -12q-24 -10 -33 12l-6 14q-8 20 9 38q90 94 95 172h-88q-21 0 -19 20z" />
    <glyph glyph-name="currency" unicode="&#xa4;" horiz-adv-x="659" 
d="M110 291q0 105 70 177l-44 48q-13 13 0 28l9 10q17 17 29 3l51 -54q74 48 166 48q80 0 143 -48l63 53q16 13 28 -2l9 -10q11 -13 -6 -28l-56 -49q48 -53 48 -141q0 -107 -77 -186l42 -44q13 -15 0 -28l-10 -10q-16 -14 -28 -2l-48 50q-80 -45 -160 -45q-86 0 -147 52
l-71 -57q-16 -13 -28 2l-7 10q-10 15 6 28l62 52q-44 56 -44 143zM186 289q0 -73 44 -118.5t116 -45.5q84 0 141 57.5t57 143.5q0 72 -44 116.5t-116 44.5q-84 0 -141 -56.5t-57 -141.5z" />
    <glyph glyph-name="yen" unicode="&#xa5;" horiz-adv-x="625" 
d="M124 606q-5 10 -0.5 17.5t16.5 7.5h42q16 0 22 -14l138 -292q7 -15 16 0l200 291q9 15 25 15h38q12 0 14.5 -7t-4.5 -18l-206 -292q-8 -13 6 -13h115q18 0 18 -20v-4q0 -20 -22 -20h-135q-22 0 -25 -22l-4 -31q0 -15 14 -15h116q18 0 18 -20v-5q-2 -20 -23 -20h-116
q-15 0 -17 -15l-11 -109q-2 -20 -22 -20h-37q-20 0 -17 20l11 109q2 15 -14 15h-133q-18 0 -18 20l1 5q0 20 22 20h133q15 0 17 15l3 31q3 22 -19 22h-153q-18 0 -18 20v4q0 20 22 20h131q6 0 9 3.5t0 9.5z" />
    <glyph glyph-name="brokenbar" unicode="&#xa6;" horiz-adv-x="263" 
d="M165 429q-20 0 -17 20l27 261q2 20 22 20h23q20 0 18 -20l-27 -261q-3 -20 -23 -20h-23zM175 303q20 0 18 -20l-27 -263q-3 -20 -23 -20h-23q-20 0 -17 20l27 263q3 20 22 20h23z" />
    <glyph glyph-name="section" unicode="&#xa7;" horiz-adv-x="631" 
d="M134 527q0 94 67.5 153.5t194.5 59.5q88 0 150.5 -50t76.5 -132q1 -10 -4.5 -16.5t-15.5 -6.5h-36q-16 0 -21 17q-16 56 -56.5 87t-100.5 31q-82 0 -129.5 -38.5t-47.5 -96.5q0 -36 20.5 -60t53 -36.5t72 -22t79.5 -20.5t72.5 -27.5t53 -48t20.5 -76.5q0 -26 -24 -23
l-36 7q-16 1 -16 16q-1 33 -29 54.5t-69.5 30.5t-89.5 22.5t-89 29.5t-68.5 53.5t-27.5 92.5zM50 1q-2 10 3.5 16.5t16.5 6.5h38q17 0 21 -16q18 -62 65 -95t115 -33q79 0 131.5 36.5t52.5 96.5q0 37 -21.5 60.5t-55.5 34.5t-75 19t-82 18t-75 26t-55.5 50t-21.5 83
q0 15 6.5 21t17.5 4l36 -7q16 -3 17 -23q3 -35 33.5 -57.5t73.5 -31t93 -21t92 -27.5t70 -51t28 -90q0 -97 -75 -154t-197 -57q-96 0 -164 52.5t-88 138.5z" />
    <glyph glyph-name="dieresis" unicode="&#xa8;" horiz-adv-x="600" 
d="M172 630q-19 0 -32 13.5t-13 33.5q0 22 16.5 38t38.5 16q20 0 33.5 -13t13.5 -32q0 -23 -17.5 -39.5t-39.5 -16.5zM350 630q-20 0 -32.5 13.5t-12.5 34.5q0 22 16.5 37.5t39.5 15.5q19 0 32.5 -13t13.5 -32q0 -23 -17 -39.5t-40 -16.5z" />
    <glyph glyph-name="copyright" unicode="&#xa9;" horiz-adv-x="911" 
d="M449 -62q-151 0 -257.5 109.5t-106.5 260.5q0 183 132.5 311t317.5 128q149 0 256 -109t107 -260q0 -119 -61 -220.5t-164.5 -160.5t-223.5 -59zM456 -1q152 0 266 111t114 263q0 132 -88 222.5t-220 90.5q-152 0 -266.5 -110.5t-114.5 -262.5q0 -132 88.5 -223
t220.5 -91zM657 410q-17 0 -20 17q-8 35 -41 60t-81 25q-73 0 -122 -52t-49 -132q0 -66 38 -107.5t97 -41.5q48 0 85.5 22t56.5 60q7 17 24 17h28q25 0 16 -22q-24 -60 -79.5 -96.5t-134.5 -36.5q-83 0 -142 59.5t-59 144.5q0 104 70 174t177 70q72 0 124 -42t60 -97
q3 -22 -21 -22h-27z" />
    <glyph glyph-name="ordfeminine" unicode="&#xaa;" horiz-adv-x="464" 
d="M108 557q0 82 52 132.5t130 50.5q69 0 109 -43q5 -5 9 -3.5t6 8.5l2 15q4 18 23 18h5q21 0 18 -20l-30 -286q-2 -20 -21 -20h-4q-18 0 -20 18v14q0 15 -13 4q-50 -42 -119 -42q-59 0 -103 44.5t-44 109.5zM173 562q0 -46 26.5 -74.5t67.5 -28.5q68 0 108 56q8 13 10 33
l5 44q2 20 -3 33q-23 58 -96 58q-50 0 -84 -33t-34 -88z" />
    <glyph glyph-name="guillemotleft" unicode="&#xab;" horiz-adv-x="528" 
d="M156 291q-23 -15 -3 -32l94 -82q13 -9 13 -33l-2 -24q-1 -17 -12 -21.5t-23 6.5l-135 121q-15 15 -12 33l4 34q2 21 18 33l160 116q15 11 24.5 6.5t7.5 -21.5l-2 -23q-3 -24 -20 -35zM366 291q-23 -15 -3 -32l94 -82q13 -9 13 -33l-2 -24q-1 -17 -12 -21.5t-23 6.5
l-135 121q-15 15 -12 33l4 34q2 21 18 33l160 116q15 11 24.5 6.5t7.5 -21.5l-2 -23q-3 -24 -20 -35z" />
    <glyph glyph-name="registered" unicode="&#xae;" horiz-adv-x="911" 
d="M85 308q0 118 61.5 219.5t165 160.5t223.5 59q151 0 257 -108t106 -261q0 -180 -132.5 -310t-316.5 -130q-150 0 -257 108.5t-107 261.5zM147 313q0 -132 88.5 -223t220.5 -91q152 0 266 111t114 263q0 132 -88 222.5t-220 90.5q-152 0 -266.5 -110.5t-114.5 -262.5z
M357 126q-21 0 -18 20l45 429q3 22 24 22h84q81 0 132.5 -40.5t51.5 -100.5q0 -62 -42.5 -101.5t-112.5 -51.5q-21 -5 -9 -20l114 -133q8 -10 4 -17.5t-17 -7.5l-35 1q-16 0 -24 11l-129 158h-8l-16 -149q-2 -20 -22 -20h-22zM424 365q-2 -17 16 -17h25q66 0 107 27.5
t41 77.5q0 43 -35 67t-94 24h-24q-16 0 -19 -17z" />
    <glyph glyph-name="macron" unicode="&#xaf;" horiz-adv-x="600" 
d="M243 682q3 20 22 20h243q21 0 19 -20l-3 -21q-3 -20 -22 -20h-244q-20 0 -17 20z" />
    <glyph glyph-name="degree" unicode="&#xb0;" horiz-adv-x="431" 
d="M259 406q-65 0 -108.5 44.5t-43.5 108.5q0 74 56 127.5t131 53.5q63 0 106 -44.5t43 -107.5q0 -74 -55.5 -128t-128.5 -54zM264 454q53 0 92 38t39 92q0 45 -30.5 77t-75.5 32q-53 0 -92.5 -39t-39.5 -91q0 -47 30.5 -78t76.5 -31z" />
    <glyph glyph-name="plusminus" unicode="&#xb1;" horiz-adv-x="534" 
d="M101 331l3 23q3 20 23 20h130q18 0 20 19l13 129q3 20 23 20h24q20 0 18 -20l-14 -129q-2 -19 17 -19h129q21 0 18 -20l-3 -23q-2 -20 -21 -20h-130q-18 0 -20 -19l-14 -130q-2 -20 -22 -20h-23q-21 0 -18 20l13 130q3 19 -16 19h-131q-21 0 -19 20zM478 62q21 0 18 -20
l-2 -23q-3 -20 -22 -20h-361q-21 0 -18 20l2 23q3 20 23 20h360z" />
    <glyph glyph-name="acute" unicode="&#xb4;" horiz-adv-x="600" 
d="M454 730q18 11 26 -8l11 -27q8 -19 -12 -27l-179 -75q-20 -9 -26 8l-2 6q-6 18 10 28z" />
    <glyph glyph-name="paragraph" unicode="&#xb6;" horiz-adv-x="752" 
d="M89 475q0 114 80.5 184.5t224.5 70.5h376q20 0 17 -20l-2 -24q-3 -20 -23 -20h-52q-22 0 -25 -23l-66 -629q-3 -20 -23 -20h-28q-21 0 -18 20l66 629q3 23 -20 23h-60q-23 0 -25 -23l-66 -629q-3 -20 -23 -20h-25q-20 0 -18 20l24 223q3 22 -20 22h-39q-123 0 -189 59
t-66 157z" />
    <glyph glyph-name="periodcentered" unicode="&#xb7;" horiz-adv-x="244" 
d="M149 257q-21 0 -35 15t-14 36q0 23 18.5 40.5t41.5 17.5q21 0 35.5 -14.5t14.5 -34.5q0 -24 -18.5 -42t-42.5 -18z" />
    <glyph glyph-name="cedilla" unicode="&#xb8;" horiz-adv-x="600" 
d="M253 -85q-11 0 -16 7t-1 18l23 63h55l-11 -32q-5 -14 8 -16q29 -5 47.5 -25t18.5 -50q0 -46 -35.5 -73t-89.5 -27q-47 0 -76 20q-14 9 -9 25l5 11q6 19 26 7q26 -13 55 -13q26 0 42 12.5t16 32.5q0 40 -48 40h-10z" />
    <glyph glyph-name="ordmasculine" unicode="&#xba;" horiz-adv-x="451" 
d="M108 555q0 83 53.5 134t141.5 51q68 0 114 -43.5t46 -107.5q0 -85 -53.5 -136t-142.5 -51q-67 0 -113 43.5t-46 109.5zM174 559q0 -44 26.5 -72.5t72.5 -28.5q54 0 88.5 36t34.5 89q0 44 -27 71.5t-73 27.5q-54 0 -88 -34.5t-34 -88.5z" />
    <glyph glyph-name="guillemotright" unicode="&#xbb;" horiz-adv-x="540" 
d="M220 292l-92 75q-14 10 -12 33l1 27q1 17 12 21.5t23 -6.5l135 -122q14 -11 12 -33l-3 -25q-3 -21 -19 -33l-160 -124q-15 -11 -24.5 -6.5t-7.5 21.5l2 29q3 21 19 32l110 80q23 15 4 31zM442 292l-92 75q-12 10 -12 32l2 27q1 18 11.5 22.5t22.5 -6.5l136 -122
q14 -13 11 -34l-3 -25q-1 -18 -18 -32l-161 -125q-14 -11 -23.5 -6.5t-8.5 21.5l3 29q1 20 19 33l110 79q23 17 3 32z" />
    <glyph glyph-name="onequarter" unicode="&#xbc;" horiz-adv-x="896" 
d="M118 377q-21 0 -18 20l1 14q3 20 23 20h72q13 0 14 13l19 183q1 6 -2.5 8.5t-8.5 -0.5q-33 -19 -73 -25q-10 -2 -15.5 3.5t-3.5 15.5l1 16q3 17 22 21q48 10 109 53q14 11 24 11h5q18 0 16 -20l-28 -266q-2 -13 11 -13h73q21 0 18 -20l-2 -14q-3 -20 -21 -20h-236z
M208 99q-15 13 1 28l495 480q15 15 29 2l16 -14q14 -13 0 -29l-495 -482q-14 -14 -29 -1zM553 79q-21 0 -18 18l1 3q3 17 11 26q105 110 123 216q5 19 25 19h28q20 0 17 -21q-20 -100 -105 -194q-5 -6 -3.5 -10t7.5 -4h85q9 0 11 11l8 71q3 20 22 20h21q21 0 19 -20l-8 -71
q-2 -11 10 -11h51q19 0 17 -20l-1 -13q-2 -20 -22 -20h-51q-10 0 -12 -11l-4 -48q-3 -20 -23 -20h-22q-20 0 -17 20l5 48q1 4 -2 7.5t-8 3.5h-165z" />
    <glyph glyph-name="onehalf" unicode="&#xbd;" horiz-adv-x="856" 
d="M94 397l1 14q2 20 23 20h70q17 0 19 17l19 179q1 6 -2.5 8t-9.5 -1q-34 -21 -76 -27q-10 -1 -15 4t-4 15l2 19q1 16 21 21q45 9 110 57q9 7 28 7h1q21 0 18 -20l-27 -262q-2 -17 15 -17h65q21 0 18 -20l-2 -14q-3 -20 -21 -20h-235q-21 0 -18 20zM203 127l495 479
q14 15 29 2l17 -16q13 -14 -2 -29l-495 -481q-15 -15 -28 -2l-17 19q-13 13 1 28zM539 19q0 8 12 20l142 118q62 52 72 66q13 18 13 38q0 23 -19 36.5t-49 13.5q-61 0 -83 -54q-9 -17 -23 -17h-19q-24 0 -16 22q16 44 54.5 72.5t91.5 28.5q51 0 85 -27t34 -66q0 -37 -18 -61
t-70 -69q-9 -8 -14 -12l-70 -58q-7 -6 -5.5 -10.5t9.5 -4.5h139q20 0 18 -20l-1 -15q-2 -20 -23 -20h-242q-18 0 -18 15v4z" />
    <glyph glyph-name="threequarters" unicode="&#xbe;" horiz-adv-x="875" 
d="M99 453q-3 22 21 22h17q16 0 20 -17q13 -52 86 -52q42 0 68.5 17.5t26.5 49.5q0 52 -84 52h-31q-21 0 -18 20v9q3 20 23 20h31q34 0 55 16t25 44q3 26 -15.5 41t-53.5 15q-59 0 -81 -49q-9 -16 -23 -16h-16q-24 0 -16 21q14 42 50 68t92 26q60 0 92.5 -27.5t30.5 -69.5
q-3 -54 -52 -82q-11 -7 0 -12q49 -21 49 -75q0 -55 -44.5 -86.5t-114.5 -31.5q-54 0 -93 27.5t-45 69.5zM199 104q-12 13 2 28l495 479q15 15 28 2l18 -18q15 -13 -1 -29l-495 -481q-14 -16 -28 -2zM530 79q-21 0 -18 18v3q6 19 12 26q57 59 87 108.5t40 107.5q5 19 23 19
h27q21 0 16 -21q-19 -100 -108 -197q-5 -5 -3.5 -9.5t8.5 -4.5h88q11 0 13 11l7 74q3 20 22 20h22q21 0 18 -20l-7 -74q-2 -11 9 -11h50q20 0 18 -20l-1 -10q-2 -20 -22 -20h-50q-10 0 -12 -11l-5 -48q-3 -20 -22 -20h-22q-20 0 -18 20l5 48q2 11 -10 11h-167z" />
    <glyph glyph-name="questiondown" unicode="&#xbf;" horiz-adv-x="555" 
d="M404 481q0 -23 -18 -40t-42 -17q-20 0 -34.5 14t-14.5 34q0 24 18.5 42t42.5 18q21 0 34.5 -14.5t13.5 -36.5zM502 -13q10 0 14.5 -6.5t0.5 -16.5q-33 -83 -100 -132.5t-162 -49.5t-153.5 55t-58.5 142q0 99 62.5 163.5t163.5 91.5q24 8 27 29l10 73q5 19 24 19h15
q20 0 18 -19l-6 -115q-1 -31 -36 -39q-93 -17 -146.5 -69t-53.5 -127q0 -61 38.5 -97.5t103.5 -36.5q60 0 107 31t75 88q10 16 24 16h33z" />
    <glyph glyph-name="Agrave" unicode="&#xc0;" horiz-adv-x="711" 
d="M333 888q6 19 25 13l173 -65q18 -8 11 -26l-2 -7q-8 -18 -26 -14l-179 43q-19 6 -12 25zM35 0q-10 0 -14 6.5t1 16.5l356 691q8 16 25 16h60q16 0 21 -16l204 -691q3 -10 -1.5 -16.5t-15.5 -6.5h-41q-18 0 -22 16l-43 153q-3 10 -14 10h-357q-11 0 -17 -10l-77 -153
q-7 -16 -25 -16h-40zM226 268q-4 -7 -1.5 -11.5t10.5 -4.5h290q17 0 13 16l-106 370q-2 8 -7.5 8t-9.5 -8z" />
    <glyph glyph-name="Aacute" unicode="&#xc1;" horiz-adv-x="711" 
d="M549 887q20 8 23 -14l4 -28q3 -20 -18 -24l-191 -30q-21 -4 -24 14v6q-1 19 16 25zM35 0q-10 0 -14 6.5t1 16.5l356 691q8 16 25 16h60q16 0 21 -16l204 -691q3 -10 -1.5 -16.5t-15.5 -6.5h-41q-18 0 -22 16l-43 153q-3 10 -14 10h-357q-11 0 -17 -10l-77 -153
q-7 -16 -25 -16h-40zM226 268q-4 -7 -1.5 -11.5t10.5 -4.5h290q17 0 13 16l-106 370q-2 8 -7.5 8t-9.5 -8z" />
    <glyph glyph-name="Acircumflex" unicode="&#xc2;" horiz-adv-x="711" 
d="M289 827q-6 18 9 24l136 66q22 10 41 0l125 -66q13 -8 4 -24l-8 -14q-8 -14 -21 -8l-109 42q-18 7 -38 0l-114 -42q-16 -5 -20 8zM35 0q-10 0 -14 6.5t1 16.5l356 691q8 16 25 16h60q16 0 21 -16l204 -691q3 -10 -1.5 -16.5t-15.5 -6.5h-41q-18 0 -22 16l-43 153
q-3 10 -14 10h-357q-11 0 -17 -10l-77 -153q-7 -16 -25 -16h-40zM226 268q-4 -7 -1.5 -11.5t10.5 -4.5h290q17 0 13 16l-106 370q-2 8 -7.5 8t-9.5 -8z" />
    <glyph glyph-name="Atilde" unicode="&#xc3;" horiz-adv-x="711" 
d="M600 890q22 -5 14 -24q-24 -67 -97 -67q-34 0 -73.5 23.5t-56.5 23.5q-30 0 -46 -23q-12 -15 -27 -12l-13 3q-22 5 -14 24q23 66 94 66q35 0 78 -23.5t56 -23.5q32 0 46 23q14 15 27 13zM35 0q-10 0 -14 6.5t1 16.5l356 691q8 16 25 16h60q16 0 21 -16l204 -691
q3 -10 -1.5 -16.5t-15.5 -6.5h-41q-18 0 -22 16l-43 153q-3 10 -14 10h-357q-11 0 -17 -10l-77 -153q-7 -16 -25 -16h-40zM226 268q-4 -7 -1.5 -11.5t10.5 -4.5h290q17 0 13 16l-106 370q-2 8 -7.5 8t-9.5 -8z" />
    <glyph glyph-name="Adieresis" unicode="&#xc4;" horiz-adv-x="711" 
d="M345 796q-20 0 -33 13.5t-13 34.5q0 23 17 39.5t40 16.5q20 0 34 -13.5t14 -32.5q0 -24 -18 -41t-41 -17zM530 796q-20 0 -33.5 13.5t-13.5 35.5t17.5 38.5t40.5 16.5q20 0 34 -13.5t14 -32.5q0 -24 -17.5 -41t-41.5 -17zM35 0q-10 0 -14 6.5t1 16.5l356 691q8 16 25 16
h60q16 0 21 -16l204 -691q3 -10 -1.5 -16.5t-15.5 -6.5h-41q-18 0 -22 16l-43 153q-3 10 -14 10h-357q-11 0 -17 -10l-77 -153q-7 -16 -25 -16h-40zM226 268q-4 -7 -1.5 -11.5t10.5 -4.5h290q17 0 13 16l-106 370q-2 8 -7.5 8t-9.5 -8z" />
    <glyph glyph-name="Aring" unicode="&#xc5;" horiz-adv-x="711" 
d="M438 769q-41 0 -70 27t-29 66q0 46 33.5 78t87.5 32q42 0 71 -26.5t29 -65.5q0 -47 -33.5 -79t-88.5 -32zM444 819q25 0 42 17t17 40q0 20 -13.5 34t-34.5 14q-24 0 -41 -17.5t-17 -40.5q0 -20 13 -33.5t34 -13.5zM35 0q-10 0 -14 6.5t1 16.5l356 691q8 16 25 16h60
q16 0 21 -16l204 -691q3 -10 -1.5 -16.5t-15.5 -6.5h-41q-18 0 -22 16l-43 153q-3 10 -14 10h-357q-11 0 -17 -10l-77 -153q-7 -16 -25 -16h-40zM226 268q-4 -7 -1.5 -11.5t10.5 -4.5h290q17 0 13 16l-106 370q-2 8 -7.5 8t-9.5 -8z" />
    <glyph glyph-name="AE" unicode="&#xc6;" horiz-adv-x="963" 
d="M9 0q-12 0 -15 7t4 17l504 691q10 15 28 15h409q21 0 18 -20l-3 -27q-3 -20 -22 -20h-277q-15 0 -17 -15l-24 -235q-2 -15 13 -15h300q20 0 18 -20l-3 -27q-2 -20 -22 -20h-300q-14 0 -16 -15l-25 -233q-2 -15 14 -15h291q20 0 17 -20l-2 -28q-3 -20 -23 -20h-362
q-21 0 -19 21l16 145q2 16 -14 16h-285q-12 0 -19 -10l-115 -158q-11 -14 -26 -14h-43zM267 273q-5 -7 -2.5 -12.5t10.5 -5.5h230q15 0 16 15l39 370q2 11 -4 13.5t-13 -7.5z" />
    <glyph glyph-name="Ccedilla" unicode="&#xc7;" horiz-adv-x="827" 
d="M824 465q2 -21 -21 -21h-40q-17 0 -19 18q-8 92 -72.5 149t-170.5 57q-133 0 -232.5 -94t-99.5 -238q0 -122 77.5 -198t191.5 -76q96 0 173 46.5t110 128.5q7 16 24 16h40q9 0 13.5 -6.5t0.5 -15.5q-39 -104 -133.5 -170.5t-219.5 -70.5l-7 -19q-5 -14 8 -16
q29 -5 47.5 -25t18.5 -50q0 -46 -35.5 -73t-89.5 -27q-47 0 -76 20q-14 9 -9 25l5 11q6 19 26 7q26 -13 55 -13q26 0 42 12.5t16 32.5q0 40 -48 40h-10q-11 0 -16 7t-1 18l19 52q-127 14 -214.5 107t-87.5 231q0 179 124 294.5t296 115.5q134 0 222 -81t93 -194z" />
    <glyph glyph-name="Egrave" unicode="&#xc8;" horiz-adv-x="567" 
d="M283 888q6 19 25 13l173 -65q18 -8 11 -26l-2 -7q-8 -18 -26 -14l-179 43q-19 6 -12 25zM129 0q-23 0 -21 23l73 684q2 23 25 23h359q20 0 17 -20l-3 -27q-3 -20 -22 -20h-289q-15 0 -17 -15l-24 -236q-2 -15 13 -15h268q21 0 18 -20l-3 -28q-2 -20 -21 -20h-269
q-15 0 -17 -15l-24 -231q-2 -15 14 -15h291q21 0 18 -20l-3 -28q-2 -20 -22 -20h-361z" />
    <glyph glyph-name="Eacute" unicode="&#xc9;" horiz-adv-x="567" 
d="M499 887q20 8 23 -14l4 -28q3 -20 -18 -24l-191 -30q-21 -4 -24 14v6q-1 19 16 25zM129 0q-23 0 -21 23l73 684q2 23 25 23h359q20 0 17 -20l-3 -27q-3 -20 -22 -20h-289q-15 0 -17 -15l-24 -236q-2 -15 13 -15h268q21 0 18 -20l-3 -28q-2 -20 -21 -20h-269
q-15 0 -17 -15l-24 -231q-2 -15 14 -15h291q21 0 18 -20l-3 -28q-2 -20 -22 -20h-361z" />
    <glyph glyph-name="Ecircumflex" unicode="&#xca;" horiz-adv-x="567" 
d="M239 827q-6 18 9 24l136 66q22 10 41 0l125 -66q13 -8 4 -24l-8 -14q-8 -14 -21 -8l-109 42q-18 7 -38 0l-114 -42q-16 -5 -20 8zM129 0q-23 0 -21 23l73 684q2 23 25 23h359q20 0 17 -20l-3 -27q-3 -20 -22 -20h-289q-15 0 -17 -15l-24 -236q-2 -15 13 -15h268
q21 0 18 -20l-3 -28q-2 -20 -21 -20h-269q-15 0 -17 -15l-24 -231q-2 -15 14 -15h291q21 0 18 -20l-3 -28q-2 -20 -22 -20h-361z" />
    <glyph glyph-name="Edieresis" unicode="&#xcb;" horiz-adv-x="567" 
d="M295 796q-20 0 -33 13.5t-13 34.5q0 23 17 39.5t40 16.5q20 0 34 -13.5t14 -32.5q0 -24 -18 -41t-41 -17zM480 796q-20 0 -33.5 13.5t-13.5 35.5t17.5 38.5t40.5 16.5q20 0 34 -13.5t14 -32.5q0 -24 -17.5 -41t-41.5 -17zM129 0q-23 0 -21 23l73 684q2 23 25 23h359
q20 0 17 -20l-3 -27q-3 -20 -22 -20h-289q-15 0 -17 -15l-24 -236q-2 -15 13 -15h268q21 0 18 -20l-3 -28q-2 -20 -21 -20h-269q-15 0 -17 -15l-24 -231q-2 -15 14 -15h291q21 0 18 -20l-3 -28q-2 -20 -22 -20h-361z" />
    <glyph glyph-name="Igrave" unicode="&#xcc;" horiz-adv-x="291" 
d="M119 888q6 19 25 13l173 -65q18 -8 11 -26l-2 -7q-8 -18 -26 -14l-179 43q-19 6 -12 25zM241 730q20 0 18 -20l-73 -690q-2 -20 -22 -20h-38q-20 0 -18 20l73 690q2 20 22 20h38z" />
    <glyph glyph-name="Iacute" unicode="&#xcd;" horiz-adv-x="291" 
d="M335 887q20 8 23 -14l4 -28q3 -20 -18 -24l-191 -30q-21 -4 -24 14v6q-1 19 16 25zM241 730q20 0 18 -20l-73 -690q-2 -20 -22 -20h-38q-20 0 -18 20l73 690q2 20 22 20h38z" />
    <glyph glyph-name="Icircumflex" unicode="&#xce;" horiz-adv-x="291" 
d="M75 827q-6 18 9 24l136 66q22 10 41 0l125 -66q13 -8 4 -24l-8 -14q-8 -14 -21 -8l-109 42q-18 7 -38 0l-114 -42q-16 -5 -20 8zM241 730q20 0 18 -20l-73 -690q-2 -20 -22 -20h-38q-20 0 -18 20l73 690q2 20 22 20h38z" />
    <glyph glyph-name="Idieresis" unicode="&#xcf;" horiz-adv-x="291" 
d="M131 796q-20 0 -33 13.5t-13 34.5q0 23 17 39.5t40 16.5q20 0 34 -13.5t14 -32.5q0 -24 -18 -41t-41 -17zM316 796q-20 0 -33.5 13.5t-13.5 35.5t17.5 38.5t40.5 16.5q20 0 34 -13.5t14 -32.5q0 -24 -17.5 -41t-41.5 -17zM241 730q20 0 18 -20l-73 -690q-2 -20 -22 -20
h-38q-20 0 -18 20l73 690q2 20 22 20h38z" />
    <glyph glyph-name="Eth" unicode="&#xd0;" horiz-adv-x="801" 
d="M451 730q145 0 241 -95t96 -235q0 -179 -120.5 -289.5t-293.5 -110.5h-245q-23 0 -21 23l34 315h-73q-19 0 -17 20l1 22q2 20 23 20h72l33 307q2 23 25 23h245zM381 67q85 0 158.5 38t121 115t47.5 177q0 123 -76 194.5t-188 71.5h-175q-15 0 -17 -15l-26 -248h141
q19 0 17 -20l-2 -22q-2 -20 -22 -20h-140l-27 -256q-2 -15 13 -15h175z" />
    <glyph glyph-name="Ntilde" unicode="&#xd1;" horiz-adv-x="828" 
d="M657 890q22 -5 14 -24q-24 -67 -97 -67q-34 0 -73.5 23.5t-56.5 23.5q-30 0 -46 -23q-12 -15 -27 -12l-13 3q-22 5 -14 24q23 66 94 66q35 0 78 -23.5t56 -23.5q32 0 46 23q14 15 27 13zM126 0q-20 0 -18 20l72 683q2 27 30 27h9q21 0 30 -16l398 -579q5 -8 11 -6t8 13
l59 568q3 20 23 20h30q20 0 17 -20l-72 -683q-2 -27 -29 -27h-17q-21 0 -31 16l-391 558q-3 5 -7.5 6.5t-7.5 -2t-4 -10.5l-57 -548q-2 -20 -22 -20h-31z" />
    <glyph glyph-name="Ograve" unicode="&#xd2;" horiz-adv-x="872" 
d="M409 888q6 19 25 13l173 -65q18 -8 11 -26l-2 -7q-8 -18 -26 -14l-179 43q-19 6 -12 25zM89 330q0 185 124 297.5t300 112.5q146 0 246.5 -93.5t100.5 -244.5q0 -179 -123 -295.5t-303 -116.5q-143 0 -244 92.5t-101 247.5zM169 336q0 -123 78 -200t195 -77
q137 0 237.5 95t100.5 242q0 123 -78 199t-196 76q-136 0 -236.5 -94.5t-100.5 -240.5z" />
    <glyph glyph-name="Oacute" unicode="&#xd3;" horiz-adv-x="872" 
d="M625 887q20 8 23 -14l4 -28q3 -20 -18 -24l-191 -30q-21 -4 -24 14v6q-1 19 16 25zM89 330q0 185 124 297.5t300 112.5q146 0 246.5 -93.5t100.5 -244.5q0 -179 -123 -295.5t-303 -116.5q-143 0 -244 92.5t-101 247.5zM169 336q0 -123 78 -200t195 -77q137 0 237.5 95
t100.5 242q0 123 -78 199t-196 76q-136 0 -236.5 -94.5t-100.5 -240.5z" />
    <glyph glyph-name="Ocircumflex" unicode="&#xd4;" horiz-adv-x="872" 
d="M365 827q-6 18 9 24l136 66q22 10 41 0l125 -66q13 -8 4 -24l-8 -14q-8 -14 -21 -8l-109 42q-18 7 -38 0l-114 -42q-16 -5 -20 8zM89 330q0 185 124 297.5t300 112.5q146 0 246.5 -93.5t100.5 -244.5q0 -179 -123 -295.5t-303 -116.5q-143 0 -244 92.5t-101 247.5z
M169 336q0 -123 78 -200t195 -77q137 0 237.5 95t100.5 242q0 123 -78 199t-196 76q-136 0 -236.5 -94.5t-100.5 -240.5z" />
    <glyph glyph-name="Otilde" unicode="&#xd5;" horiz-adv-x="872" 
d="M676 890q22 -5 14 -24q-24 -67 -97 -67q-34 0 -73.5 23.5t-56.5 23.5q-30 0 -46 -23q-12 -15 -27 -12l-13 3q-22 5 -14 24q23 66 94 66q35 0 78 -23.5t56 -23.5q32 0 46 23q14 15 27 13zM89 330q0 185 124 297.5t300 112.5q146 0 246.5 -93.5t100.5 -244.5
q0 -179 -123 -295.5t-303 -116.5q-143 0 -244 92.5t-101 247.5zM169 336q0 -123 78 -200t195 -77q137 0 237.5 95t100.5 242q0 123 -78 199t-196 76q-136 0 -236.5 -94.5t-100.5 -240.5z" />
    <glyph glyph-name="Odieresis" unicode="&#xd6;" horiz-adv-x="872" 
d="M421 796q-20 0 -33 13.5t-13 34.5q0 23 17 39.5t40 16.5q20 0 34 -13.5t14 -32.5q0 -24 -18 -41t-41 -17zM606 796q-20 0 -33.5 13.5t-13.5 35.5t17.5 38.5t40.5 16.5q20 0 34 -13.5t14 -32.5q0 -24 -17.5 -41t-41.5 -17zM89 330q0 185 124 297.5t300 112.5
q146 0 246.5 -93.5t100.5 -244.5q0 -179 -123 -295.5t-303 -116.5q-143 0 -244 92.5t-101 247.5zM169 336q0 -123 78 -200t195 -77q137 0 237.5 95t100.5 242q0 123 -78 199t-196 76q-136 0 -236.5 -94.5t-100.5 -240.5z" />
    <glyph glyph-name="multiply" unicode="&#xd7;" horiz-adv-x="480" 
d="M98 134q-14 14 3 29l110 99q14 13 3 26l-90 101q-12 14 4 29l14 12q16 15 29 -1l89 -100q13 -13 27 0l112 101q15 15 29 1l11 -13q14 -14 -2 -29l-112 -102q-14 -13 -3 -26l91 -102q12 -14 -4 -29l-14 -12q-15 -15 -29 1l-91 101q-11 14 -26 1l-110 -100q-16 -15 -29 0z
" />
    <glyph glyph-name="Oslash" unicode="&#xd8;" horiz-adv-x="872" 
d="M789 614q71 -88 71 -212q0 -179 -123 -295.5t-303 -116.5q-142 0 -241 90l-62 -56q-15 -17 -28 0l-11 12q-13 14 2 29l62 56q-67 86 -67 209q0 185 124 297.5t300 112.5q140 0 236 -84l55 49q16 16 28 0l13 -14q12 -14 -2 -29zM169 336q0 -92 46 -162l477 430
q-76 67 -186 67q-136 0 -236.5 -94.5t-100.5 -240.5zM442 59q137 0 237.5 95t100.5 242q0 96 -50 165l-479 -429q76 -73 191 -73z" />
    <glyph glyph-name="Ugrave" unicode="&#xd9;" horiz-adv-x="793" 
d="M369 888q6 19 25 13l173 -65q18 -8 11 -26l-2 -7q-8 -18 -26 -14l-179 43q-19 6 -12 25zM126 306l43 404q2 20 22 20h40q20 0 17 -20l-42 -408q-11 -106 42.5 -173t154.5 -67q98 0 167.5 66t80.5 174l42 408q3 20 23 20h39q20 0 18 -20l-43 -404q-15 -141 -104 -228.5
t-231 -87.5q-129 0 -206 89t-63 227z" />
    <glyph glyph-name="Uacute" unicode="&#xda;" horiz-adv-x="793" 
d="M585 887q20 8 23 -14l4 -28q3 -20 -18 -24l-191 -30q-21 -4 -24 14v6q-1 19 16 25zM126 306l43 404q2 20 22 20h40q20 0 17 -20l-42 -408q-11 -106 42.5 -173t154.5 -67q98 0 167.5 66t80.5 174l42 408q3 20 23 20h39q20 0 18 -20l-43 -404q-15 -141 -104 -228.5
t-231 -87.5q-129 0 -206 89t-63 227z" />
    <glyph glyph-name="Ucircumflex" unicode="&#xdb;" horiz-adv-x="793" 
d="M325 827q-6 18 9 24l136 66q22 10 41 0l125 -66q13 -8 4 -24l-8 -14q-8 -14 -21 -8l-109 42q-18 7 -38 0l-114 -42q-16 -5 -20 8zM126 306l43 404q2 20 22 20h40q20 0 17 -20l-42 -408q-11 -106 42.5 -173t154.5 -67q98 0 167.5 66t80.5 174l42 408q3 20 23 20h39
q20 0 18 -20l-43 -404q-15 -141 -104 -228.5t-231 -87.5q-129 0 -206 89t-63 227z" />
    <glyph glyph-name="Udieresis" unicode="&#xdc;" horiz-adv-x="793" 
d="M381 796q-20 0 -33 13.5t-13 34.5q0 23 17 39.5t40 16.5q20 0 34 -13.5t14 -32.5q0 -24 -18 -41t-41 -17zM566 796q-20 0 -33.5 13.5t-13.5 35.5t17.5 38.5t40.5 16.5q20 0 34 -13.5t14 -32.5q0 -24 -17.5 -41t-41.5 -17zM126 306l43 404q2 20 22 20h40q20 0 17 -20
l-42 -408q-11 -106 42.5 -173t154.5 -67q98 0 167.5 66t80.5 174l42 408q3 20 23 20h39q20 0 18 -20l-43 -404q-15 -141 -104 -228.5t-231 -87.5q-129 0 -206 89t-63 227z" />
    <glyph glyph-name="Yacute" unicode="&#xdd;" horiz-adv-x="637" 
d="M512 887q20 8 23 -14l4 -28q3 -20 -18 -24l-191 -30q-21 -4 -24 14v6q-1 19 16 25zM98 706q-5 10 -0.5 17t16.5 7h46q16 0 22 -14l164 -346q10 -22 25 0l236 346q8 14 26 14h36q12 0 15 -7t-4 -17l-285 -416q-7 -12 -9 -24l-25 -243q-2 -23 -25 -23h-32q-23 0 -21 23
l25 243q2 12 -3 24z" />
    <glyph glyph-name="Thorn" unicode="&#xde;" horiz-adv-x="627" 
d="M126 0q-20 0 -18 20l73 690q2 20 22 20h38q20 0 18 -20l-9 -78q-2 -15 14 -15h78q123 0 200.5 -65.5t77.5 -170.5q0 -118 -95 -193t-236 -75h-78q-16 0 -16 -15l-9 -78q-2 -20 -22 -20h-38zM204 191q-2 -15 14 -15h79q103 0 172.5 58t69.5 148q0 77 -56 124.5t-146 47.5
h-79q-17 0 -17 -15z" />
    <glyph glyph-name="germandbls" unicode="&#xdf;" horiz-adv-x="649" 
d="M107 0q-21 0 -18 20l58 561q9 88 71 140.5t167 52.5q97 0 152.5 -59t46.5 -152l-3 -24q-3 -28 -39 -34q-92 -15 -92 -89q0 -27 18.5 -47.5t45 -36t53 -34t45 -51t18.5 -77.5q1 -90 -58.5 -135t-146.5 -45q-78 0 -129 43t-59 110q-3 21 20 21h29q17 0 20 -17
q16 -91 126 -91q52 0 88 27.5t36 77.5q0 36 -18.5 61.5t-45 41t-53.5 32t-45.5 45t-18.5 68.5q0 51 28 88.5t75 54.5q33 13 32 39q-5 52 -38 84t-94 32q-64 0 -107 -35.5t-49 -94.5l-58 -557q-3 -20 -23 -20h-34z" />
    <glyph glyph-name="agrave" unicode="&#xe0;" horiz-adv-x="579" 
d="M257 735q9 18 27 7l155 -99q16 -12 6 -28l-4 -6q-12 -16 -28 -9l-166 80q-18 9 -7 27zM58 128q0 76 62.5 119.5t172.5 43.5l131 -1q36 0 36 52q0 60 -34 91.5t-98 31.5q-54 0 -95.5 -26t-54.5 -66q-5 -17 -23 -17h-31q-23 0 -17 21q20 71 81.5 112t149.5 41
q99 0 151.5 -59t41.5 -162l-30 -289q-3 -20 -23 -20h-11q-18 0 -21 17v18q-2 18 -12.5 22.5t-27.5 -7.5q-87 -60 -192 -60q-65 0 -110.5 40t-45.5 98zM133 135q0 -37 29 -58t74 -21q80 0 182 64q21 14 24 39l4 37q3 33 -29 33h-129q-155 0 -155 -94z" />
    <glyph glyph-name="aacute" unicode="&#xe1;" horiz-adv-x="579" 
d="M438 733q18 11 26 -8l11 -27q8 -19 -12 -27l-179 -75q-20 -9 -26 8l-2 6q-6 18 10 28zM58 128q0 76 62.5 119.5t172.5 43.5l131 -1q36 0 36 52q0 60 -34 91.5t-98 31.5q-54 0 -95.5 -26t-54.5 -66q-5 -17 -23 -17h-31q-23 0 -17 21q20 71 81.5 112t149.5 41
q99 0 151.5 -59t41.5 -162l-30 -289q-3 -20 -23 -20h-11q-18 0 -21 17v18q-2 18 -12.5 22.5t-27.5 -7.5q-87 -60 -192 -60q-65 0 -110.5 40t-45.5 98zM133 135q0 -37 29 -58t74 -21q80 0 182 64q21 14 24 39l4 37q3 33 -29 33h-129q-155 0 -155 -94z" />
    <glyph glyph-name="acircumflex" unicode="&#xe2;" horiz-adv-x="579" 
d="M199 642q-6 17 9 23l134 65q22 10 40 0l124 -65q12 -8 4 -23l-8 -14q-8 -14 -21 -8l-107 41q-18 7 -38 0l-112 -41q-16 -5 -20 8zM58 128q0 76 62.5 119.5t172.5 43.5l131 -1q36 0 36 52q0 60 -34 91.5t-98 31.5q-54 0 -95.5 -26t-54.5 -66q-5 -17 -23 -17h-31
q-23 0 -17 21q20 71 81.5 112t149.5 41q99 0 151.5 -59t41.5 -162l-30 -289q-3 -20 -23 -20h-11q-18 0 -21 17v18q-2 18 -12.5 22.5t-27.5 -7.5q-87 -60 -192 -60q-65 0 -110.5 40t-45.5 98zM133 135q0 -37 29 -58t74 -21q80 0 182 64q21 14 24 39l4 37q3 33 -29 33h-129
q-155 0 -155 -94z" />
    <glyph glyph-name="atilde" unicode="&#xe3;" horiz-adv-x="579" 
d="M500 703q22 -5 14 -24q-24 -67 -97 -67q-34 0 -73.5 23.5t-56.5 23.5q-30 0 -46 -23q-12 -15 -27 -12l-13 3q-22 5 -14 24q23 66 94 66q35 0 78 -23.5t56 -23.5q32 0 46 23q14 15 27 13zM58 128q0 76 62.5 119.5t172.5 43.5l131 -1q36 0 36 52q0 60 -34 91.5t-98 31.5
q-54 0 -95.5 -26t-54.5 -66q-5 -17 -23 -17h-31q-23 0 -17 21q20 71 81.5 112t149.5 41q99 0 151.5 -59t41.5 -162l-30 -289q-3 -20 -23 -20h-11q-18 0 -21 17v18q-2 18 -12.5 22.5t-27.5 -7.5q-87 -60 -192 -60q-65 0 -110.5 40t-45.5 98zM133 135q0 -37 29 -58t74 -21
q80 0 182 64q21 14 24 39l4 37q3 33 -29 33h-129q-155 0 -155 -94z" />
    <glyph glyph-name="adieresis" unicode="&#xe4;" horiz-adv-x="579" 
d="M263 633q-19 0 -32 13.5t-13 33.5q0 22 16.5 38t38.5 16q20 0 33.5 -13t13.5 -32q0 -23 -17.5 -39.5t-39.5 -16.5zM441 633q-20 0 -32.5 13.5t-12.5 34.5q0 22 16.5 37.5t39.5 15.5q19 0 32.5 -13t13.5 -32q0 -23 -17 -39.5t-40 -16.5zM58 128q0 76 62.5 119.5
t172.5 43.5l131 -1q36 0 36 52q0 60 -34 91.5t-98 31.5q-54 0 -95.5 -26t-54.5 -66q-5 -17 -23 -17h-31q-23 0 -17 21q20 71 81.5 112t149.5 41q99 0 151.5 -59t41.5 -162l-30 -289q-3 -20 -23 -20h-11q-18 0 -21 17v18q-2 18 -12.5 22.5t-27.5 -7.5q-87 -60 -192 -60
q-65 0 -110.5 40t-45.5 98zM133 135q0 -37 29 -58t74 -21q80 0 182 64q21 14 24 39l4 37q3 33 -29 33h-129q-155 0 -155 -94z" />
    <glyph glyph-name="aring" unicode="&#xe5;" horiz-adv-x="579" 
d="M346 589q-41 0 -70 27t-29 66q0 46 33.5 78t87.5 32q42 0 71 -26.5t29 -65.5q0 -47 -33.5 -79t-88.5 -32zM352 639q25 0 42 17t17 40q0 20 -13.5 34t-34.5 14q-24 0 -41 -17.5t-17 -40.5q0 -20 13 -33.5t34 -13.5zM58 128q0 76 62.5 119.5t172.5 43.5l131 -1q36 0 36 52
q0 60 -34 91.5t-98 31.5q-54 0 -95.5 -26t-54.5 -66q-5 -17 -23 -17h-31q-23 0 -17 21q20 71 81.5 112t149.5 41q99 0 151.5 -59t41.5 -162l-30 -289q-3 -20 -23 -20h-11q-18 0 -21 17v18q-2 18 -12.5 22.5t-27.5 -7.5q-87 -60 -192 -60q-65 0 -110.5 40t-45.5 98zM133 135
q0 -37 29 -58t74 -21q80 0 182 64q21 14 24 39l4 37q3 33 -29 33h-129q-155 0 -155 -94z" />
    <glyph glyph-name="ae" unicode="&#xe6;" horiz-adv-x="958" 
d="M57 123q0 80 63 123t172 43l125 -1q25 0 28 16l1 12q7 74 -25 111t-95 37q-52 0 -93.5 -26t-55.5 -65q-8 -17 -24 -17h-29q-23 0 -18 20q19 70 83 112t147 42q56 0 98.5 -24t60.5 -68q11 -17 27 -1q83 93 204 93q100 0 163.5 -77.5t49.5 -177.5q-4 -34 -36 -34l-363 1
q-30 0 -28 -28q6 -71 51.5 -115.5t114.5 -44.5q54 0 97 24.5t63 65.5q7 16 25 16h29q24 0 16 -22q-26 -65 -89 -106.5t-147 -41.5q-55 0 -104 23t-80 63q-14 19 -35 2q-105 -88 -231 -88q-72 0 -118.5 40t-46.5 93zM532 329q-6 -13 -0.5 -20.5t19.5 -7.5l294 -1q27 0 21 32
q-6 57 -46 95.5t-101 38.5q-58 0 -109.5 -37.5t-77.5 -99.5zM133 134q0 -36 30.5 -56t74.5 -20q97 0 194 78q16 12 13 34q-3 10 -5 34q-1 23 -25 23h-127q-155 0 -155 -93z" />
    <glyph glyph-name="ccedilla" unicode="&#xe7;" horiz-adv-x="598" 
d="M589 357q3 -21 -20 -21h-32q-17 0 -21 18q-9 45 -49.5 78t-101.5 33q-90 0 -152 -64t-62 -162q0 -82 49 -133t121 -51q61 0 106.5 28t65.5 76q7 17 24 17h33q10 0 15 -6t1 -16q-25 -71 -88 -116t-150 -48l-7 -19q-5 -14 8 -16q29 -5 47.5 -25t18.5 -50q0 -46 -35.5 -73
t-89.5 -27q-47 0 -76 20q-14 9 -9 25l5 11q6 19 26 7q26 -13 55 -13q26 0 42 12.5t16 32.5q0 40 -48 40h-10q-11 0 -16 7t-1 18l20 54q-87 15 -143 83t-56 159q0 127 84 210.5t212 83.5q90 0 149.5 -51t68.5 -122z" />
    <glyph glyph-name="egrave" unicode="&#xe8;" horiz-adv-x="594" 
d="M272 732q9 18 27 7l155 -99q16 -12 6 -28l-4 -6q-12 -16 -28 -9l-166 80q-18 9 -7 27zM75 235q0 124 78.5 209.5t199.5 85.5q111 0 167 -68t56 -165q0 -56 -36 -56l-356 1q-17 0 -26.5 -10t-8.5 -26q7 -69 52 -110t112 -41q118 0 161 89q8 16 25 16h30q10 0 14.5 -6.5
t0.5 -15.5q-61 -148 -237 -148q-97 0 -164.5 69t-67.5 176zM173 341q-8 -17 -1 -27t25 -10l270 -1q18 0 27.5 10t5.5 27q-9 55 -50 90.5t-102 35.5q-118 0 -175 -125z" />
    <glyph glyph-name="eacute" unicode="&#xe9;" horiz-adv-x="594" 
d="M453 730q18 11 26 -8l11 -27q8 -19 -12 -27l-179 -75q-20 -9 -26 8l-2 6q-6 18 10 28zM75 235q0 124 78.5 209.5t199.5 85.5q111 0 167 -68t56 -165q0 -56 -36 -56l-356 1q-17 0 -26.5 -10t-8.5 -26q7 -69 52 -110t112 -41q118 0 161 89q8 16 25 16h30q10 0 14.5 -6.5
t0.5 -15.5q-61 -148 -237 -148q-97 0 -164.5 69t-67.5 176zM173 341q-8 -17 -1 -27t25 -10l270 -1q18 0 27.5 10t5.5 27q-9 55 -50 90.5t-102 35.5q-118 0 -175 -125z" />
    <glyph glyph-name="ecircumflex" unicode="&#xea;" horiz-adv-x="594" 
d="M214 639q-6 17 9 23l134 65q22 10 40 0l124 -65q12 -8 4 -23l-8 -14q-8 -14 -21 -8l-107 41q-18 7 -38 0l-112 -41q-16 -5 -20 8zM75 235q0 124 78.5 209.5t199.5 85.5q111 0 167 -68t56 -165q0 -56 -36 -56l-356 1q-17 0 -26.5 -10t-8.5 -26q7 -69 52 -110t112 -41
q118 0 161 89q8 16 25 16h30q10 0 14.5 -6.5t0.5 -15.5q-61 -148 -237 -148q-97 0 -164.5 69t-67.5 176zM173 341q-8 -17 -1 -27t25 -10l270 -1q18 0 27.5 10t5.5 27q-9 55 -50 90.5t-102 35.5q-118 0 -175 -125z" />
    <glyph glyph-name="edieresis" unicode="&#xeb;" horiz-adv-x="594" 
d="M278 630q-19 0 -32 13.5t-13 33.5q0 22 16.5 38t38.5 16q20 0 33.5 -13t13.5 -32q0 -23 -17.5 -39.5t-39.5 -16.5zM456 630q-20 0 -32.5 13.5t-12.5 34.5q0 22 16.5 37.5t39.5 15.5q19 0 32.5 -13t13.5 -32q0 -23 -17 -39.5t-40 -16.5zM75 235q0 124 78.5 209.5
t199.5 85.5q111 0 167 -68t56 -165q0 -56 -36 -56l-356 1q-17 0 -26.5 -10t-8.5 -26q7 -69 52 -110t112 -41q118 0 161 89q8 16 25 16h30q10 0 14.5 -6.5t0.5 -15.5q-61 -148 -237 -148q-97 0 -164.5 69t-67.5 176zM173 341q-8 -17 -1 -27t25 -10l270 -1q18 0 27.5 10
t5.5 27q-9 55 -50 90.5t-102 35.5q-118 0 -175 -125z" />
    <glyph glyph-name="igrave" unicode="&#xec;" horiz-adv-x="253" 
d="M100 732q9 19 26 7l155 -99q16 -12 6 -28l-4 -6q-12 -16 -28 -9l-165 80q-18 9 -7 27zM199 520q20 0 17 -20l-50 -480q-3 -20 -22 -20h-35q-20 0 -17 20l50 480q2 20 22 20h35z" />
    <glyph glyph-name="iacute" unicode="&#xed;" horiz-adv-x="253" 
d="M274 730q17 11 25 -8l11 -27q6 -19 -12 -27l-171 -75q-19 -9 -25 8l-2 6q-6 18 10 28zM199 520q20 0 17 -20l-50 -480q-3 -20 -22 -20h-35q-20 0 -17 20l50 480q2 20 22 20h35z" />
    <glyph glyph-name="icircumflex" unicode="&#xee;" horiz-adv-x="253" 
d="M48 639q-6 17 8 23l126 65q21 10 37 0l116 -65q12 -8 4 -23l-7 -14q-8 -15 -20 -8l-100 41q-16 8 -36 0l-105 -41q-15 -6 -18 8zM199 520q20 0 17 -20l-50 -480q-3 -20 -22 -20h-35q-20 0 -17 20l50 480q2 20 22 20h35z" />
    <glyph glyph-name="idieresis" unicode="&#xef;" horiz-adv-x="253" 
d="M106 630q-19 0 -32 13.5t-13 33.5q0 22 16.5 38t38.5 16q20 0 33.5 -13t13.5 -32q0 -23 -17.5 -39.5t-39.5 -16.5zM284 630q-20 0 -32.5 13.5t-12.5 34.5q0 22 16.5 37.5t39.5 15.5q19 0 32.5 -13t13.5 -32q0 -23 -17 -39.5t-40 -16.5zM199 520q20 0 17 -20l-50 -480
q-3 -20 -22 -20h-35q-20 0 -17 20l50 480q2 20 22 20h35z" />
    <glyph glyph-name="eth" unicode="&#xf0;" horiz-adv-x="619" 
d="M421 603l-99 -33q-19 -6 -25 11l-4 16q-6 19 14 26l89 30l-48 103q-5 10 -0.5 17t16.5 7h33q15 0 22 -14l42 -92l116 39q20 7 25 -12l3 -16q3 -20 -15 -26l-107 -36l70 -151q43 -91 43 -187q0 -137 -77 -216t-211 -79q-97 0 -165 66.5t-68 171.5q0 121 77.5 196t202.5 75
q48 0 96 -23q17 -8 22.5 -2.5t-1.5 19.5zM151 233q0 -79 47 -128.5t117 -49.5q88 0 146.5 55t62.5 148q1 14 1 42q-6 67 -51.5 102t-116.5 35q-86 0 -146 -57.5t-60 -146.5z" />
    <glyph glyph-name="ntilde" unicode="&#xf1;" horiz-adv-x="652" 
d="M546 700q22 -5 14 -24q-24 -67 -97 -67q-34 0 -73.5 23.5t-56.5 23.5q-30 0 -46 -23q-12 -15 -27 -12l-13 3q-22 5 -14 24q23 66 94 66q35 0 78 -23.5t56 -23.5q32 0 46 23q14 15 27 13zM107 0q-21 0 -18 20l50 480q3 20 23 20h15q19 0 20 -18l-1 -18q2 -39 41 -14
q100 60 211 60q80 0 124.5 -51t34.5 -140l-33 -319q-3 -20 -22 -20h-35q-20 0 -18 20l34 316q7 63 -22.5 95.5t-89.5 32.5q-83 0 -196 -68q-24 -14 -27 -40l-34 -336q-3 -20 -23 -20h-34z" />
    <glyph glyph-name="ograve" unicode="&#xf2;" horiz-adv-x="641" 
d="M291 732q9 18 27 7l155 -99q16 -12 6 -28l-4 -6q-12 -16 -28 -9l-166 80q-18 9 -7 27zM75 236q0 126 84.5 210t217.5 84q105 0 174.5 -70.5t69.5 -172.5q0 -127 -84 -212t-217 -85q-106 0 -175.5 71t-69.5 175zM149 241q0 -81 49 -133.5t128 -52.5q94 0 157 65.5
t63 159.5q0 79 -49 132t-128 53q-95 0 -157.5 -64.5t-62.5 -159.5z" />
    <glyph glyph-name="oacute" unicode="&#xf3;" horiz-adv-x="641" 
d="M472 730q18 11 26 -8l11 -27q8 -19 -12 -27l-179 -75q-20 -9 -26 8l-2 6q-6 18 10 28zM75 236q0 126 84.5 210t217.5 84q105 0 174.5 -70.5t69.5 -172.5q0 -127 -84 -212t-217 -85q-106 0 -175.5 71t-69.5 175zM149 241q0 -81 49 -133.5t128 -52.5q94 0 157 65.5
t63 159.5q0 79 -49 132t-128 53q-95 0 -157.5 -64.5t-62.5 -159.5z" />
    <glyph glyph-name="ocircumflex" unicode="&#xf4;" horiz-adv-x="641" 
d="M233 639q-6 17 9 23l134 65q22 10 40 0l124 -65q12 -8 4 -23l-8 -14q-8 -14 -21 -8l-107 41q-18 7 -38 0l-112 -41q-16 -5 -20 8zM75 236q0 126 84.5 210t217.5 84q105 0 174.5 -70.5t69.5 -172.5q0 -127 -84 -212t-217 -85q-106 0 -175.5 71t-69.5 175zM149 241
q0 -81 49 -133.5t128 -52.5q94 0 157 65.5t63 159.5q0 79 -49 132t-128 53q-95 0 -157.5 -64.5t-62.5 -159.5z" />
    <glyph glyph-name="otilde" unicode="&#xf5;" horiz-adv-x="641" 
d="M534 700q22 -5 14 -24q-24 -67 -97 -67q-34 0 -73.5 23.5t-56.5 23.5q-30 0 -46 -23q-12 -15 -27 -12l-13 3q-22 5 -14 24q23 66 94 66q35 0 78 -23.5t56 -23.5q32 0 46 23q14 15 27 13zM75 236q0 126 84.5 210t217.5 84q105 0 174.5 -70.5t69.5 -172.5q0 -127 -84 -212
t-217 -85q-106 0 -175.5 71t-69.5 175zM149 241q0 -81 49 -133.5t128 -52.5q94 0 157 65.5t63 159.5q0 79 -49 132t-128 53q-95 0 -157.5 -64.5t-62.5 -159.5z" />
    <glyph glyph-name="odieresis" unicode="&#xf6;" horiz-adv-x="641" 
d="M297 630q-19 0 -32 13.5t-13 33.5q0 22 16.5 38t38.5 16q20 0 33.5 -13t13.5 -32q0 -23 -17.5 -39.5t-39.5 -16.5zM475 630q-20 0 -32.5 13.5t-12.5 34.5q0 22 16.5 37.5t39.5 15.5q19 0 32.5 -13t13.5 -32q0 -23 -17 -39.5t-40 -16.5zM75 236q0 126 84.5 210t217.5 84
q105 0 174.5 -70.5t69.5 -172.5q0 -127 -84 -212t-217 -85q-106 0 -175.5 71t-69.5 175zM149 241q0 -81 49 -133.5t128 -52.5q94 0 157 65.5t63 159.5q0 79 -49 132t-128 53q-95 0 -157.5 -64.5t-62.5 -159.5z" />
    <glyph glyph-name="divide" unicode="&#xf7;" horiz-adv-x="560" 
d="M320 382q-19 0 -32 13.5t-13 33.5q0 22 16.5 38.5t38.5 16.5q20 0 33.5 -13.5t13.5 -32.5q0 -22 -17 -39t-40 -17zM505 290q20 0 17 -20l-2 -22q-3 -20 -22 -20h-388q-21 0 -18 20l2 22q3 20 23 20h388zM283 25q-19 0 -32 14t-13 34q0 22 16.5 38t39.5 16q19 0 32 -13.5
t13 -31.5q0 -23 -16.5 -40t-39.5 -17z" />
    <glyph glyph-name="oslash" unicode="&#xf8;" horiz-adv-x="641" 
d="M623 500q16 -16 -3 -34l-42 -37q43 -64 43 -142q0 -127 -84 -212t-217 -85q-99 0 -168 64l-51 -45q-19 -18 -34 0l-5 7q-15 17 3 34l51 45q-41 63 -41 141q0 126 84.5 210t217.5 84q96 0 164 -60l43 38q16 16 32 0zM149 241q0 -54 23 -97l315 278q-48 43 -118 43
q-95 0 -157.5 -64.5t-62.5 -159.5zM546 280q0 55 -25 99l-316 -278q48 -46 121 -46q94 0 157 65.5t63 159.5z" />
    <glyph glyph-name="ugrave" unicode="&#xf9;" horiz-adv-x="632" 
d="M286 732q9 18 27 7l155 -99q16 -12 6 -28l-4 -6q-12 -16 -28 -9l-166 80q-18 9 -7 27zM100 181l34 319q2 20 22 20h35q20 0 17 -20l-33 -316q-7 -62 21.5 -95t86.5 -33q70 0 178 60q23 12 26 39l37 345q2 20 22 20h35q20 0 17 -20l-50 -480q-3 -20 -22 -20h-15
q-20 0 -20 18l1 11q0 38 -41 16q-100 -55 -194 -55q-78 0 -122 51t-35 140z" />
    <glyph glyph-name="uacute" unicode="&#xfa;" horiz-adv-x="632" 
d="M468 730q18 11 26 -8l11 -27q8 -19 -12 -27l-179 -75q-20 -9 -26 8l-2 6q-6 18 10 28zM100 181l34 319q2 20 22 20h35q20 0 17 -20l-33 -316q-7 -62 21.5 -95t86.5 -33q70 0 178 60q23 12 26 39l37 345q2 20 22 20h35q20 0 17 -20l-50 -480q-3 -20 -22 -20h-15
q-20 0 -20 18l1 11q0 38 -41 16q-100 -55 -194 -55q-78 0 -122 51t-35 140z" />
    <glyph glyph-name="ucircumflex" unicode="&#xfb;" horiz-adv-x="632" 
d="M228 639q-6 17 9 23l134 65q22 10 40 0l124 -65q12 -8 4 -23l-8 -14q-8 -14 -21 -8l-107 41q-18 7 -38 0l-112 -41q-16 -5 -20 8zM100 181l34 319q2 20 22 20h35q20 0 17 -20l-33 -316q-7 -62 21.5 -95t86.5 -33q70 0 178 60q23 12 26 39l37 345q2 20 22 20h35
q20 0 17 -20l-50 -480q-3 -20 -22 -20h-15q-20 0 -20 18l1 11q0 38 -41 16q-100 -55 -194 -55q-78 0 -122 51t-35 140z" />
    <glyph glyph-name="udieresis" unicode="&#xfc;" horiz-adv-x="632" 
d="M292 630q-19 0 -32 13.5t-13 33.5q0 22 16.5 38t38.5 16q20 0 33.5 -13t13.5 -32q0 -23 -17.5 -39.5t-39.5 -16.5zM470 630q-20 0 -32.5 13.5t-12.5 34.5q0 22 16.5 37.5t39.5 15.5q19 0 32.5 -13t13.5 -32q0 -23 -17 -39.5t-40 -16.5zM100 181l34 319q2 20 22 20h35
q20 0 17 -20l-33 -316q-7 -62 21.5 -95t86.5 -33q70 0 178 60q23 12 26 39l37 345q2 20 22 20h35q20 0 17 -20l-50 -480q-3 -20 -22 -20h-15q-20 0 -20 18l1 11q0 38 -41 16q-100 -55 -194 -55q-78 0 -122 51t-35 140z" />
    <glyph glyph-name="yacute" unicode="&#xfd;" horiz-adv-x="553" 
d="M431 730q18 11 26 -8l11 -27q8 -19 -12 -27l-179 -75q-20 -9 -26 8l-2 6q-6 18 10 28zM80 497q-3 10 2 16.5t16 6.5h41q17 0 21 -16l117 -409q4 -12 11.5 -12.5t13.5 12.5l197 409q9 16 25 16h42q11 0 14 -6t-2 -17l-287 -555q-31 -59 -52 -88t-57.5 -47t-91.5 -18
q-38 0 -69 10q-18 4 -13 24l5 19q7 23 25 15q27 -8 62 -8q45 0 73.5 25.5t58.5 81.5l24 44h-8q-13 0 -18 14z" />
    <glyph glyph-name="thorn" unicode="&#xfe;" horiz-adv-x="658" 
d="M84 -220q-21 0 -19 20l98 928q2 20 22 20h29q21 0 18 -20l-25 -235q-2 -21 7.5 -25.5t28.5 9.5q68 53 164 53q100 0 166 -69.5t66 -173.5q0 -125 -85.5 -211t-204.5 -86q-91 0 -151 53q-34 28 -39 -16l-23 -227q-3 -20 -23 -20h-29zM181 190q-2 -26 6 -40q50 -95 162 -95
q86 0 150 65.5t64 159.5q0 81 -48.5 133t-122.5 52q-55 0 -103 -25t-79 -69q-11 -16 -14 -40z" />
    <glyph glyph-name="ydieresis" unicode="&#xff;" horiz-adv-x="553" 
d="M255 630q-19 0 -32 13.5t-13 33.5q0 22 16.5 38t38.5 16q20 0 33.5 -13t13.5 -32q0 -23 -17.5 -39.5t-39.5 -16.5zM433 630q-20 0 -32.5 13.5t-12.5 34.5q0 22 16.5 37.5t39.5 15.5q19 0 32.5 -13t13.5 -32q0 -23 -17 -39.5t-40 -16.5zM80 497q-3 10 2 16.5t16 6.5h41
q17 0 21 -16l117 -409q4 -12 11.5 -12.5t13.5 12.5l197 409q9 16 25 16h42q11 0 14 -6t-2 -17l-287 -555q-31 -59 -52 -88t-57.5 -47t-91.5 -18q-38 0 -69 10q-18 4 -13 24l5 19q7 23 25 15q27 -8 62 -8q45 0 73.5 25.5t58.5 81.5l24 44h-8q-13 0 -18 14z" />
    <glyph glyph-name="Amacron" unicode="&#x100;" horiz-adv-x="711" 
d="M308 862q3 20 22 20h243q21 0 19 -20l-3 -21q-3 -20 -22 -20h-244q-20 0 -17 20zM35 0q-10 0 -14 6.5t1 16.5l356 691q8 16 25 16h60q16 0 21 -16l204 -691q3 -10 -1.5 -16.5t-15.5 -6.5h-41q-18 0 -22 16l-43 153q-3 10 -14 10h-357q-11 0 -17 -10l-77 -153
q-7 -16 -25 -16h-40zM226 268q-4 -7 -1.5 -11.5t10.5 -4.5h290q17 0 13 16l-106 370q-2 8 -7.5 8t-9.5 -8z" />
    <glyph glyph-name="amacron" unicode="&#x101;" horiz-adv-x="579" 
d="M216 685q3 20 22 20h243q21 0 19 -20l-3 -21q-3 -20 -22 -20h-244q-20 0 -17 20zM58 128q0 76 62.5 119.5t172.5 43.5l131 -1q36 0 36 52q0 60 -34 91.5t-98 31.5q-54 0 -95.5 -26t-54.5 -66q-5 -17 -23 -17h-31q-23 0 -17 21q20 71 81.5 112t149.5 41q99 0 151.5 -59
t41.5 -162l-30 -289q-3 -20 -23 -20h-11q-18 0 -21 17v18q-2 18 -12.5 22.5t-27.5 -7.5q-87 -60 -192 -60q-65 0 -110.5 40t-45.5 98zM133 135q0 -37 29 -58t74 -21q80 0 182 64q21 14 24 39l4 37q3 33 -29 33h-129q-155 0 -155 -94z" />
    <glyph glyph-name="Abreve" unicode="&#x102;" horiz-adv-x="711" 
d="M341 906q15 0 21 -16q7 -24 32 -38t56 -14q30 0 58 14t41 38q10 16 26 16l22 -1q23 -2 15 -22q-41 -102 -168 -103q-53 -1 -96 27.5t-52 75.5q-3 20 20 22zM35 0q-10 0 -14 6.5t1 16.5l356 691q8 16 25 16h60q16 0 21 -16l204 -691q3 -10 -1.5 -16.5t-15.5 -6.5h-41
q-18 0 -22 16l-43 153q-3 10 -14 10h-357q-11 0 -17 -10l-77 -153q-7 -16 -25 -16h-40zM226 268q-4 -7 -1.5 -11.5t10.5 -4.5h290q17 0 13 16l-106 370q-2 8 -7.5 8t-9.5 -8z" />
    <glyph glyph-name="abreve" unicode="&#x103;" horiz-adv-x="579" 
d="M245 724q15 0 21 -16q7 -24 32 -38t56 -14q30 0 58 14t41 38q10 16 26 16l22 -1q23 -2 15 -22q-41 -102 -168 -103q-53 -1 -96 27.5t-52 75.5q-3 20 20 22zM58 128q0 76 62.5 119.5t172.5 43.5l131 -1q36 0 36 52q0 60 -34 91.5t-98 31.5q-54 0 -95.5 -26t-54.5 -66
q-5 -17 -23 -17h-31q-23 0 -17 21q20 71 81.5 112t149.5 41q99 0 151.5 -59t41.5 -162l-30 -289q-3 -20 -23 -20h-11q-18 0 -21 17v18q-2 18 -12.5 22.5t-27.5 -7.5q-87 -60 -192 -60q-65 0 -110.5 40t-45.5 98zM133 135q0 -37 29 -58t74 -21q80 0 182 64q21 14 24 39l4 37
q3 33 -29 33h-129q-155 0 -155 -94z" />
    <glyph glyph-name="Aogonek" unicode="&#x104;" horiz-adv-x="711" 
d="M688 23q5 -14 -5 -20q-97 -53 -97 -130q0 -20 12.5 -31t32.5 -11q10 0 26 2q8 2 12.5 -2t3.5 -12l-2 -14q0 -15 -15 -18q-15 -5 -39 -5q-41 0 -67 23.5t-26 60.5q0 84 92 138q-7 5 -8 12l-43 153q-3 10 -14 10h-357q-11 0 -17 -10l-77 -153q-7 -16 -25 -16h-40
q-10 0 -14 6.5t1 16.5l356 691q8 16 25 16h60q16 0 21 -16zM525 252q17 0 13 16l-106 370q-2 8 -7.5 8t-9.5 -8l-189 -370q-4 -7 -1.5 -11.5t10.5 -4.5h290z" />
    <glyph glyph-name="aogonek" unicode="&#x105;" horiz-adv-x="579" 
d="M338 530q99 0 151.5 -59t41.5 -162l-30 -289q-1 -12 -10 -17q-97 -53 -97 -130q0 -20 12.5 -31t32.5 -11q10 0 26 2q8 2 12.5 -2t3.5 -12l-2 -14q0 -15 -15 -18q-15 -5 -39 -5q-41 0 -67 23.5t-26 60.5q0 95 114 150v1v18q-2 18 -12.5 22.5t-27.5 -7.5q-87 -60 -192 -60
q-65 0 -110.5 40t-45.5 98q0 76 62.5 119.5t172.5 43.5l131 -1q36 0 36 52q0 60 -34 91.5t-98 31.5q-54 0 -95.5 -26t-54.5 -66q-5 -17 -23 -17h-31q-23 0 -17 21q20 71 81.5 112t149.5 41zM442 159l4 37q3 33 -29 33h-129q-155 0 -155 -94q0 -37 29 -58t74 -21q80 0 182 64
q21 14 24 39z" />
    <glyph glyph-name="Cacute" unicode="&#x106;" horiz-adv-x="827" 
d="M621 893q20 8 23 -14l4 -28q3 -20 -18 -24l-191 -30q-21 -4 -24 14v6q-1 19 16 25zM89 330q0 179 124 294.5t296 115.5q134 0 222 -81t93 -194q2 -21 -21 -21h-40q-17 0 -19 18q-8 92 -72.5 149t-170.5 57q-133 0 -232.5 -94t-99.5 -238q0 -122 77.5 -198t191.5 -76
q96 0 173 46.5t110 128.5q7 16 24 16h40q9 0 13.5 -6.5t0.5 -15.5q-41 -107 -139.5 -174t-229.5 -67q-139 0 -240 95.5t-101 244.5z" />
    <glyph glyph-name="cacute" unicode="&#x107;" horiz-adv-x="598" 
d="M470 730q18 11 26 -8l11 -27q8 -19 -12 -27l-179 -75q-20 -9 -26 8l-2 6q-6 18 10 28zM537 336q-17 0 -21 18q-9 45 -49.5 78t-101.5 33q-90 0 -152 -64t-62 -162q0 -82 49 -133t121 -51q61 0 106.5 28t65.5 76q7 17 24 17h33q10 0 15 -6t1 -16q-26 -73 -92 -118.5
t-158 -45.5q-101 0 -171 71.5t-70 174.5q0 127 84 210.5t212 83.5q90 0 149.5 -51t68.5 -122q3 -21 -20 -21h-32z" />
    <glyph glyph-name="Cdotaccent" unicode="&#x10a;" horiz-adv-x="827" 
d="M514 794q-22 0 -37 15.5t-15 38.5q0 25 19 42.5t45 17.5q22 0 36.5 -15t14.5 -36q0 -26 -19 -44.5t-44 -18.5zM89 330q0 179 124 294.5t296 115.5q134 0 222 -81t93 -194q2 -21 -21 -21h-40q-17 0 -19 18q-8 92 -72.5 149t-170.5 57q-133 0 -232.5 -94t-99.5 -238
q0 -122 77.5 -198t191.5 -76q96 0 173 46.5t110 128.5q7 16 24 16h40q9 0 13.5 -6.5t0.5 -15.5q-41 -107 -139.5 -174t-229.5 -67q-139 0 -240 95.5t-101 244.5z" />
    <glyph glyph-name="cdotaccent" unicode="&#x10b;" horiz-adv-x="598" 
d="M385 636q-22 0 -37 15.5t-15 38.5q0 25 19 42.5t45 17.5q22 0 36.5 -15t14.5 -36q0 -26 -19 -44.5t-44 -18.5zM537 336q-17 0 -21 18q-9 45 -49.5 78t-101.5 33q-90 0 -152 -64t-62 -162q0 -82 49 -133t121 -51q61 0 106.5 28t65.5 76q7 17 24 17h33q10 0 15 -6t1 -16
q-26 -73 -92 -118.5t-158 -45.5q-101 0 -171 71.5t-70 174.5q0 127 84 210.5t212 83.5q90 0 149.5 -51t68.5 -122q3 -21 -20 -21h-32z" />
    <glyph glyph-name="Ccaron" unicode="&#x10c;" horiz-adv-x="827" 
d="M373 889l5 14q7 18 25 11l102 -37q16 -7 35 0l109 37q19 5 22 -11l3 -14q3 -17 -12 -24l-123 -53q-26 -11 -49 0l-110 53q-14 8 -7 24zM89 330q0 179 124 294.5t296 115.5q134 0 222 -81t93 -194q2 -21 -21 -21h-40q-17 0 -19 18q-8 92 -72.5 149t-170.5 57
q-133 0 -232.5 -94t-99.5 -238q0 -122 77.5 -198t191.5 -76q96 0 173 46.5t110 128.5q7 16 24 16h40q9 0 13.5 -6.5t0.5 -15.5q-41 -107 -139.5 -174t-229.5 -67q-139 0 -240 95.5t-101 244.5z" />
    <glyph glyph-name="ccaron" unicode="&#x10d;" horiz-adv-x="598" 
d="M242 694l5 13q7 18 25 11l101 -36q16 -7 34 0l108 36q19 5 22 -11l3 -13q3 -17 -12 -24l-122 -53q-25 -11 -48 0l-109 53q-14 8 -7 24zM537 336q-17 0 -21 18q-9 45 -49.5 78t-101.5 33q-90 0 -152 -64t-62 -162q0 -82 49 -133t121 -51q61 0 106.5 28t65.5 76q7 17 24 17
h33q10 0 15 -6t1 -16q-26 -73 -92 -118.5t-158 -45.5q-101 0 -171 71.5t-70 174.5q0 127 84 210.5t212 83.5q90 0 149.5 -51t68.5 -122q3 -21 -20 -21h-32z" />
    <glyph glyph-name="Dcaron" unicode="&#x10e;" horiz-adv-x="801" 
d="M308 883l5 14q7 18 25 11l102 -37q16 -7 35 0l109 37q19 5 22 -11l3 -14q3 -17 -12 -24l-123 -53q-26 -11 -49 0l-110 53q-14 8 -7 24zM129 0q-23 0 -21 23l73 684q2 23 25 23h245q145 0 241 -95t96 -235q0 -179 -120.5 -289.5t-293.5 -110.5h-245zM193 82q-2 -15 13 -15
h175q85 0 158.5 38t121 115t47.5 177q0 123 -76 194.5t-188 71.5h-175q-15 0 -17 -15z" />
    <glyph glyph-name="dcaron" unicode="&#x10f;" horiz-adv-x="658" 
d="M725 606q19 0 24 18l40 176q6 21 -16 21h-25q-18 0 -23 -19l-32 -175q-5 -21 16 -21h16zM75 235q0 129 84.5 212t208.5 83q84 0 144 -47q34 -23 38 17l27 260q3 20 23 20h32q21 0 18 -20l-77 -740q-3 -20 -23 -20h-10q-18 0 -21 17l2 21q-3 36 -36 9q-70 -57 -173 -57
q-102 0 -169.5 70t-67.5 175zM151 242q0 -79 49 -133t121 -54q108 0 179 91q13 16 16 42l15 145q2 27 -6 41q-50 91 -161 91q-84 0 -148.5 -64.5t-64.5 -158.5z" />
    <glyph glyph-name="Dcroat" unicode="&#x110;" horiz-adv-x="801" 
d="M451 730q145 0 241 -95t96 -235q0 -179 -120.5 -289.5t-293.5 -110.5h-245q-23 0 -21 23l34 315h-73q-19 0 -17 20l1 22q2 20 23 20h72l33 307q2 23 25 23h245zM381 67q85 0 158.5 38t121 115t47.5 177q0 123 -76 194.5t-188 71.5h-175q-15 0 -17 -15l-26 -248h141
q19 0 17 -20l-2 -22q-2 -20 -22 -20h-140l-27 -256q-2 -15 13 -15h175z" />
    <glyph glyph-name="dcroat" unicode="&#x111;" horiz-adv-x="658" 
d="M721 665q19 0 17 -20l-2 -22q-2 -20 -22 -20h-80l-61 -583q-3 -20 -23 -20h-10q-18 0 -21 17l2 21q-3 36 -36 9q-70 -57 -173 -57q-102 0 -169.5 70t-67.5 175q0 129 84.5 212t208.5 83q84 0 144 -47q34 -23 38 17l11 103h-138q-19 0 -17 20l1 22q2 20 23 20h137l10 95
q3 20 23 20h32q21 0 18 -20l-10 -95h81zM531 333q2 27 -6 41q-50 91 -161 91q-84 0 -148.5 -64.5t-64.5 -158.5q0 -79 49 -133t121 -54q108 0 179 91q13 16 16 42z" />
    <glyph glyph-name="Emacron" unicode="&#x112;" horiz-adv-x="567" 
d="M258 862q3 20 22 20h243q21 0 19 -20l-3 -21q-3 -20 -22 -20h-244q-20 0 -17 20zM129 0q-23 0 -21 23l73 684q2 23 25 23h359q20 0 17 -20l-3 -27q-3 -20 -22 -20h-289q-15 0 -17 -15l-24 -236q-2 -15 13 -15h268q21 0 18 -20l-3 -28q-2 -20 -21 -20h-269q-15 0 -17 -15
l-24 -231q-2 -15 14 -15h291q21 0 18 -20l-3 -28q-2 -20 -22 -20h-361z" />
    <glyph glyph-name="emacron" unicode="&#x113;" horiz-adv-x="594" 
d="M231 682q3 20 22 20h243q21 0 19 -20l-3 -21q-3 -20 -22 -20h-244q-20 0 -17 20zM75 235q0 124 78.5 209.5t199.5 85.5q111 0 167 -68t56 -165q0 -56 -36 -56l-356 1q-17 0 -26.5 -10t-8.5 -26q7 -69 52 -110t112 -41q118 0 161 89q8 16 25 16h30q10 0 14.5 -6.5
t0.5 -15.5q-61 -148 -237 -148q-97 0 -164.5 69t-67.5 176zM173 341q-8 -17 -1 -27t25 -10l270 -1q18 0 27.5 10t5.5 27q-9 55 -50 90.5t-102 35.5q-118 0 -175 -125z" />
    <glyph glyph-name="Edotaccent" unicode="&#x116;" horiz-adv-x="567" 
d="M392 788q-22 0 -37 15.5t-15 38.5q0 25 19 42.5t45 17.5q22 0 36.5 -15t14.5 -36q0 -26 -19 -44.5t-44 -18.5zM129 0q-23 0 -21 23l73 684q2 23 25 23h359q20 0 17 -20l-3 -27q-3 -20 -22 -20h-289q-15 0 -17 -15l-24 -236q-2 -15 13 -15h268q21 0 18 -20l-3 -28
q-2 -20 -21 -20h-269q-15 0 -17 -15l-24 -231q-2 -15 14 -15h291q21 0 18 -20l-3 -28q-2 -20 -22 -20h-361z" />
    <glyph glyph-name="edotaccent" unicode="&#x117;" horiz-adv-x="594" 
d="M368 636q-22 0 -37 15.5t-15 38.5q0 25 19 42.5t45 17.5q22 0 36.5 -15t14.5 -36q0 -26 -19 -44.5t-44 -18.5zM75 235q0 124 78.5 209.5t199.5 85.5q111 0 167 -68t56 -165q0 -56 -36 -56l-356 1q-17 0 -26.5 -10t-8.5 -26q7 -69 52 -110t112 -41q118 0 161 89
q8 16 25 16h30q10 0 14.5 -6.5t0.5 -15.5q-61 -148 -237 -148q-97 0 -164.5 69t-67.5 176zM173 341q-8 -17 -1 -27t25 -10l270 -1q18 0 27.5 10t5.5 27q-9 55 -50 90.5t-102 35.5q-118 0 -175 -125z" />
    <glyph glyph-name="Eogonek" unicode="&#x118;" horiz-adv-x="567" 
d="M565 730q20 0 17 -20l-3 -27q-3 -20 -22 -20h-289q-15 0 -17 -15l-24 -236q-2 -15 13 -15h268q21 0 18 -20l-3 -28q-2 -20 -21 -20h-269q-15 0 -17 -15l-24 -231q-2 -15 14 -15h291q21 0 18 -20l-3 -28q-2 -15 -12 -18q-93 -53 -93 -128q0 -20 12.5 -31t32.5 -11
q10 0 26 2q8 2 12.5 -2t3.5 -12l-2 -14q0 -15 -15 -18q-15 -5 -39 -5q-41 0 -67 23.5t-26 60.5q0 80 84 133h-300q-23 0 -21 23l73 684q2 23 25 23h359z" />
    <glyph glyph-name="eogonek" unicode="&#x119;" horiz-adv-x="594" 
d="M184 242q-17 0 -26.5 -10t-8.5 -26q7 -69 52 -110t112 -41q118 0 161 89q8 16 25 16h30q10 0 14.5 -6.5t0.5 -15.5q-50 -122 -179 -143q-86 -51 -86 -124q0 -20 12.5 -31t32.5 -11q10 0 26 2q8 2 12.5 -2t3.5 -12l-2 -14q0 -15 -15 -18q-15 -5 -39 -5q-41 0 -67 23.5
t-26 60.5q0 76 74 127q-92 6 -154 73.5t-62 170.5q0 124 78.5 209.5t199.5 85.5q111 0 167 -68t56 -165q0 -56 -36 -56zM173 341q-8 -17 -1 -27t25 -10l270 -1q18 0 27.5 10t5.5 27q-9 55 -50 90.5t-102 35.5q-118 0 -175 -125z" />
    <glyph glyph-name="Ecaron" unicode="&#x11a;" horiz-adv-x="567" 
d="M251 883l5 14q7 18 25 11l102 -37q16 -7 35 0l109 37q19 5 22 -11l3 -14q3 -17 -12 -24l-123 -53q-26 -11 -49 0l-110 53q-14 8 -7 24zM129 0q-23 0 -21 23l73 684q2 23 25 23h359q20 0 17 -20l-3 -27q-3 -20 -22 -20h-289q-15 0 -17 -15l-24 -236q-2 -15 13 -15h268
q21 0 18 -20l-3 -28q-2 -20 -21 -20h-269q-15 0 -17 -15l-24 -231q-2 -15 14 -15h291q21 0 18 -20l-3 -28q-2 -20 -22 -20h-361z" />
    <glyph glyph-name="ecaron" unicode="&#x11b;" horiz-adv-x="594" 
d="M225 694l5 13q7 18 25 11l101 -36q16 -7 34 0l108 36q19 5 22 -11l3 -13q3 -17 -12 -24l-122 -53q-25 -11 -48 0l-109 53q-14 8 -7 24zM75 235q0 124 78.5 209.5t199.5 85.5q111 0 167 -68t56 -165q0 -56 -36 -56l-356 1q-17 0 -26.5 -10t-8.5 -26q7 -69 52 -110t112 -41
q118 0 161 89q8 16 25 16h30q10 0 14.5 -6.5t0.5 -15.5q-61 -148 -237 -148q-97 0 -164.5 69t-67.5 176zM173 341q-8 -17 -1 -27t25 -10l270 -1q18 0 27.5 10t5.5 27q-9 55 -50 90.5t-102 35.5q-118 0 -175 -125z" />
    <glyph glyph-name="Gbreve" unicode="&#x11e;" horiz-adv-x="824" 
d="M411 906q15 0 21 -16q7 -24 32 -38t56 -14q30 0 58 14t41 38q10 16 26 16l22 -1q23 -2 15 -22q-41 -102 -168 -103q-53 -1 -96 27.5t-52 75.5q-3 20 20 22zM89 332q0 122 59 217t151.5 143t199.5 48q134 0 217 -75t97 -187q3 -22 -21 -22h-33q-17 0 -20 19
q-10 83 -73.5 139.5t-169.5 56.5q-132 0 -229.5 -93.5t-97.5 -242.5q0 -123 78 -199.5t193 -76.5q105 0 178 50t100 137q5 16 -11 16h-210q-21 0 -18 20l3 27q2 20 22 20h275q12 0 18.5 -6.5t4.5 -15.5l-2 -12q-20 -136 -117.5 -220.5t-249.5 -84.5q-143 0 -243.5 95
t-100.5 247z" />
    <glyph glyph-name="gbreve" unicode="&#x11f;" horiz-adv-x="658" 
d="M292 721q15 0 21 -16q7 -24 32 -38t56 -14q30 0 58 14t41 38q10 16 26 16l22 -1q23 -2 15 -22q-41 -102 -168 -103q-53 -1 -96 27.5t-52 75.5q-3 20 20 22zM74 238q0 125 84 208.5t209 83.5q93 0 158 -62q32 -30 41 13l2 21q5 18 25 18h13q20 0 18 -20l-51 -479
q-11 -110 -83 -171t-193 -61q-78 0 -137 37t-75 95q-6 22 19 22h31q15 0 22 -16q11 -34 51 -54t95 -20q85 0 141.5 46t59.5 122l1 13q1 19 -7.5 21.5t-25.5 -10.5q-62 -50 -159 -50q-106 0 -172.5 68.5t-66.5 174.5zM150 244q0 -78 49.5 -131.5t122.5 -53.5q114 0 180 94
q12 16 15 42l14 136q3 23 -6 40q-49 94 -161 94q-84 0 -149 -65t-65 -156z" />
    <glyph glyph-name="Gdotaccent" unicode="&#x120;" horiz-adv-x="824" 
d="M512 788q-22 0 -37 15.5t-15 38.5q0 25 19 42.5t45 17.5q22 0 36.5 -15t14.5 -36q0 -26 -19 -44.5t-44 -18.5zM89 332q0 122 59 217t151.5 143t199.5 48q134 0 217 -75t97 -187q3 -22 -21 -22h-33q-17 0 -20 19q-10 83 -73.5 139.5t-169.5 56.5q-132 0 -229.5 -93.5
t-97.5 -242.5q0 -123 78 -199.5t193 -76.5q105 0 178 50t100 137q5 16 -11 16h-210q-21 0 -18 20l3 27q2 20 22 20h275q12 0 18.5 -6.5t4.5 -15.5l-2 -12q-20 -136 -117.5 -220.5t-249.5 -84.5q-143 0 -243.5 95t-100.5 247z" />
    <glyph glyph-name="gdotaccent" unicode="&#x121;" horiz-adv-x="658" 
d="M399 636q-22 0 -37 15.5t-15 38.5q0 25 19 42.5t45 17.5q22 0 36.5 -15t14.5 -36q0 -26 -19 -44.5t-44 -18.5zM74 238q0 125 84 208.5t209 83.5q93 0 158 -62q32 -30 41 13l2 21q5 18 25 18h13q20 0 18 -20l-51 -479q-11 -110 -83 -171t-193 -61q-78 0 -137 37t-75 95
q-6 22 19 22h31q15 0 22 -16q11 -34 51 -54t95 -20q85 0 141.5 46t59.5 122l1 13q1 19 -7.5 21.5t-25.5 -10.5q-62 -50 -159 -50q-106 0 -172.5 68.5t-66.5 174.5zM150 244q0 -78 49.5 -131.5t122.5 -53.5q114 0 180 94q12 16 15 42l14 136q3 23 -6 40q-49 94 -161 94
q-84 0 -149 -65t-65 -156z" />
    <glyph glyph-name="Gcommaaccent" unicode="&#x122;" horiz-adv-x="824" 
d="M89 332q0 122 59 217t151.5 143t199.5 48q134 0 217 -75t97 -187q3 -22 -21 -22h-33q-17 0 -20 19q-10 83 -73.5 139.5t-169.5 56.5q-132 0 -229.5 -93.5t-97.5 -242.5q0 -123 78 -199.5t193 -76.5q105 0 178 50t100 137q5 16 -11 16h-210q-21 0 -18 20l3 27q2 20 22 20
h275q12 0 18.5 -6.5t4.5 -15.5l-2 -12q-20 -136 -117.5 -220.5t-249.5 -84.5q-143 0 -243.5 95t-100.5 247zM392 -51q4 18 24 18h35q24 0 15 -22l-54 -140q-7 -17 -24 -17h-17q-22 0 -16 22z" />
    <glyph glyph-name="gcommaaccent" unicode="&#x123;" horiz-adv-x="658" 
d="M425 615q-5 -18 -24 -18h-35q-24 0 -15 22l54 140q7 17 24 17h17q22 0 16 -22zM74 238q0 125 84 208.5t209 83.5q93 0 158 -62q32 -30 41 13l2 21q5 18 25 18h13q20 0 18 -20l-51 -479q-11 -110 -83 -171t-193 -61q-78 0 -137 37t-75 95q-6 22 19 22h31q15 0 22 -16
q11 -34 51 -54t95 -20q85 0 141.5 46t59.5 122l1 13q1 19 -7.5 21.5t-25.5 -10.5q-62 -50 -159 -50q-106 0 -172.5 68.5t-66.5 174.5zM150 244q0 -78 49.5 -131.5t122.5 -53.5q114 0 180 94q12 16 15 42l14 136q3 23 -6 40q-49 94 -161 94q-84 0 -149 -65t-65 -156z" />
    <glyph glyph-name="Hbar" unicode="&#x126;" horiz-adv-x="838" 
d="M851 594q20 0 17 -21l-1 -12q-2 -20 -22 -20h-56l-54 -521q-3 -20 -23 -20h-38q-20 0 -17 20l29 286q3 22 -20 22h-426q-22 0 -24 -22l-30 -286q-2 -20 -22 -20h-38q-20 0 -18 20l55 521h-67q-20 0 -18 20l1 12q3 21 23 21h67l12 116q2 20 22 20h38q20 0 18 -20l-12 -116
h470l12 116q2 20 22 20h38q20 0 18 -20l-12 -116h56zM699 424l12 117h-470l-12 -117q-3 -22 19 -22h426q22 0 25 22z" />
    <glyph glyph-name="hbar" unicode="&#x127;" horiz-adv-x="646" 
d="M441 530q82 0 125.5 -50t34.5 -141l-33 -319q-3 -20 -23 -20h-34q-21 0 -18 20l33 316q7 62 -21.5 95t-86.5 33q-80 0 -193 -68q-24 -14 -27 -40l-34 -336q-3 -20 -23 -20h-34q-21 0 -18 20l61 582h-83q-19 0 -17 20l1 22q2 20 23 20h82l10 96q3 20 23 20h31q20 0 17 -20
l-10 -96h138q19 0 17 -20l-2 -22q-2 -20 -22 -20h-137l-11 -106q-2 -22 7.5 -26.5t35.5 9.5q97 51 188 51z" />
    <glyph glyph-name="Itilde" unicode="&#x128;" horiz-adv-x="291" 
d="M386 890q22 -5 14 -24q-24 -67 -97 -67q-34 0 -73.5 23.5t-56.5 23.5q-30 0 -46 -23q-12 -15 -27 -12l-13 3q-22 5 -14 24q23 66 94 66q35 0 78 -23.5t56 -23.5q32 0 46 23q14 15 27 13zM241 730q20 0 18 -20l-73 -690q-2 -20 -22 -20h-38q-20 0 -18 20l73 690
q2 20 22 20h38z" />
    <glyph glyph-name="itilde" unicode="&#x129;" horiz-adv-x="253" 
d="M334 700q21 -5 13 -24q-11 -32 -35 -49.5t-57 -17.5t-70.5 23.5t-54.5 23.5q-29 0 -43 -23q-12 -15 -26 -12l-13 3q-21 6 -13 24q22 66 90 66q33 0 74 -23.5t54 -23.5q30 0 44 23q12 15 25 13zM199 520q20 0 17 -20l-50 -480q-3 -20 -22 -20h-35q-20 0 -17 20l50 480
q2 20 22 20h35z" />
    <glyph glyph-name="Imacron" unicode="&#x12a;" horiz-adv-x="291" 
d="M94 862q3 20 22 20h243q21 0 19 -20l-3 -21q-3 -20 -22 -20h-244q-20 0 -17 20zM241 730q20 0 18 -20l-73 -690q-2 -20 -22 -20h-38q-20 0 -18 20l73 690q2 20 22 20h38z" />
    <glyph glyph-name="imacron" unicode="&#x12b;" horiz-adv-x="253" 
d="M65 682q3 20 20 20h223q20 0 18 -20l-3 -21q-3 -20 -20 -20h-224q-19 0 -16 20zM199 520q20 0 17 -20l-50 -480q-3 -20 -22 -20h-35q-20 0 -17 20l50 480q2 20 22 20h35z" />
    <glyph glyph-name="Iogonek" unicode="&#x12e;" horiz-adv-x="291" 
d="M241 730q20 0 18 -20l-73 -690q-2 -15 -12 -18q-93 -53 -93 -128q0 -20 12.5 -31t32.5 -11q10 0 26 2q8 2 12.5 -2t3.5 -12l-2 -14q0 -15 -15 -18q-15 -5 -39 -5q-41 0 -67 23.5t-26 60.5q0 85 92 138q-3 6 -3 15l73 690q2 20 22 20h38z" />
    <glyph glyph-name="iogonek" unicode="&#x12f;" horiz-adv-x="253" 
d="M208 750q22 0 36.5 -15t14.5 -36q0 -26 -19 -44.5t-44 -18.5q-22 0 -37 15.5t-15 38.5q0 25 19 42.5t45 17.5zM199 520q20 0 17 -20l-50 -480q-1 -13 -11 -18q-97 -53 -97 -130q0 -20 12.5 -31t32.5 -11q10 0 26 2q8 2 12.5 -2t3.5 -12l-2 -14q0 -15 -15 -18
q-15 -5 -39 -5q-41 0 -67 23.5t-26 60.5q0 89 98 141q-3 6 -2 14l50 480q2 20 22 20h35z" />
    <glyph glyph-name="Idotaccent" unicode="&#x130;" horiz-adv-x="291" 
d="M228 788q-22 0 -37 15.5t-15 38.5q0 25 19 42.5t45 17.5q22 0 36.5 -15t14.5 -36q0 -26 -19 -44.5t-44 -18.5zM241 730q20 0 18 -20l-73 -690q-2 -20 -22 -20h-38q-20 0 -18 20l73 690q2 20 22 20h38z" />
    <glyph glyph-name="dotlessi" unicode="&#x131;" horiz-adv-x="253" 
d="M199 520q20 0 17 -20l-50 -480q-3 -20 -22 -20h-35q-20 0 -17 20l50 480q2 20 22 20h35z" />
    <glyph glyph-name="IJ" unicode="&#x132;" horiz-adv-x="966" 
d="M241 730q20 0 18 -20l-73 -690q-2 -20 -22 -20h-38q-20 0 -18 20l73 690q2 20 22 20h38zM338 222q0 22 21 22h35q17 0 20 -18q8 -77 57.5 -120.5t135.5 -43.5q90 0 146.5 57.5t67.5 159.5l38 358q3 22 -20 22h-256q-21 0 -18 20l3 31q3 20 23 20h327q28 0 25 -28
l-44 -423q-15 -136 -89.5 -212.5t-210.5 -76.5q-110 0 -183 66t-78 166z" />
    <glyph glyph-name="ij" unicode="&#x133;" horiz-adv-x="512" 
d="M196 636q-22 0 -37 15.5t-15 38.5q0 25 19 42.5t45 17.5q22 0 36.5 -15t14.5 -36q0 -26 -19 -44.5t-44 -18.5zM454 636q-22 0 -37 15.5t-15 38.5q0 25 19 42.5t45 17.5q22 0 36.5 -15t14.5 -36q0 -26 -19 -44.5t-44 -18.5zM199 520q20 0 17 -20l-50 -480q-3 -20 -22 -20
h-35q-20 0 -17 20l50 480q2 20 22 20h35zM277 -207q-39 0 -61 6q-16 4 -13 24l6 24q4 19 24 16q20 -4 34 -4q30 0 50 19t24 57l59 565q3 20 23 20h34q20 0 18 -20l-60 -570q-7 -64 -41.5 -100.5t-96.5 -36.5z" />
    <glyph glyph-name="Kcommaaccent" unicode="&#x136;" horiz-adv-x="638" 
d="M241 730q20 0 18 -20l-73 -690q-2 -20 -22 -20h-38q-20 0 -18 20l73 690q2 20 22 20h38zM284 330q-10 11 -7 28l2 17q1 16 12 28l298 316q10 11 26 11h47q13 0 15 -7.5t-7 -17.5l-310 -331q-10 -11 -2 -22l261 -327q7 -10 3 -17.5t-17 -7.5h-51q-16 0 -23 11zM309 -51
q5 18 24 18h35q24 0 15 -22l-54 -140q-7 -17 -24 -17h-17q-22 0 -16 22z" />
    <glyph glyph-name="kcommaaccent" unicode="&#x137;" horiz-adv-x="561" 
d="M107 0q-21 0 -18 20l77 740q3 20 23 20h34q20 0 18 -20l-49 -476q-2 -24 9 -28.5t30 13.5l260 241q10 10 27 10h41q13 0 15 -7.5t-8 -17.5l-188 -180q-24 -22 -7 -46l172 -244q7 -10 3 -17.5t-17 -7.5h-42q-15 0 -24 12l-143 205q-18 28 -46 3l-81 -73q-18 -15 -21 -41
l-8 -86q-3 -20 -23 -20h-34zM268 -51q4 18 24 18h35q24 0 15 -22l-54 -140q-7 -17 -24 -17h-17q-22 0 -16 22z" />
    <glyph glyph-name="kgreenlandic" unicode="&#x138;" horiz-adv-x="561" 
d="M107 0q-21 0 -18 20l50 480q3 20 23 20h34q20 0 18 -20l-23 -226q-3 -25 7 -29t30 15l262 250q11 10 26 10h43q13 0 15.5 -7.5t-7.5 -17.5l-188 -175q-22 -21 -6 -46l170 -249q7 -10 3 -17.5t-17 -7.5h-43q-14 0 -23 13l-140 209q-17 28 -45 2l-85 -78q-18 -15 -21 -40
l-8 -86q-3 -20 -23 -20h-34z" />
    <glyph glyph-name="Lacute" unicode="&#x139;" horiz-adv-x="574" 
d="M360 887q20 8 23 -14l4 -28q3 -20 -18 -24l-191 -30q-21 -4 -24 14v6q-1 19 16 25zM134 0q-28 0 -25 28l72 682q2 20 22 20h38q20 0 18 -20l-66 -623q0 -15 14 -15h341q20 0 17 -20l-3 -32q-2 -20 -22 -20h-406z" />
    <glyph glyph-name="lacute" unicode="&#x13a;" horiz-adv-x="253" 
d="M306 937q20 8 23 -14l4 -28q3 -20 -18 -24l-191 -30q-21 -4 -24 14v6q-1 19 16 25zM226 780q20 0 17 -20l-77 -740q-3 -20 -22 -20h-35q-20 0 -17 20l77 740q2 20 22 20h35z" />
    <glyph glyph-name="Lcommaaccent" unicode="&#x13b;" horiz-adv-x="574" 
d="M134 0q-28 0 -25 28l72 682q2 20 22 20h38q20 0 18 -20l-66 -623q0 -15 14 -15h341q20 0 17 -20l-3 -32q-2 -20 -22 -20h-406zM302 -51q4 18 24 18h35q24 0 15 -22l-54 -140q-7 -17 -24 -17h-17q-22 0 -16 22z" />
    <glyph glyph-name="lcommaaccent" unicode="&#x13c;" horiz-adv-x="253" 
d="M226 780q20 0 17 -20l-77 -740q-3 -20 -22 -20h-35q-20 0 -17 20l77 740q2 20 22 20h35zM84 -51q4 18 24 18h35q24 0 15 -22l-54 -140q-7 -17 -24 -17h-17q-22 0 -16 22z" />
    <glyph glyph-name="Lcaron" unicode="&#x13d;" horiz-adv-x="574" 
d="M478 559q20 0 24 18l40 176q6 21 -16 21h-25q-18 0 -23 -19l-32 -175q-4 -21 16 -21h16zM134 0q-28 0 -25 28l72 682q2 20 22 20h38q20 0 18 -20l-66 -623q0 -15 14 -15h341q20 0 17 -20l-3 -32q-2 -20 -22 -20h-406z" />
    <glyph glyph-name="lcaron" unicode="&#x13e;" horiz-adv-x="253" 
d="M326 618q20 0 24 18l40 176q6 21 -16 21h-25q-18 0 -23 -19l-32 -175q-4 -21 16 -21h16zM226 780q20 0 17 -20l-77 -740q-3 -20 -22 -20h-35q-20 0 -17 20l77 740q2 20 22 20h35z" />
    <glyph glyph-name="Ldot" unicode="&#x13f;" horiz-adv-x="585" 
d="M134 0q-28 0 -25 28l72 682q2 20 22 20h38q20 0 18 -20l-66 -623q0 -15 14 -15h341q20 0 17 -20l-3 -32q-2 -20 -22 -20h-406zM453 370q-21 0 -35 15t-14 36q0 23 18.5 40.5t41.5 17.5q21 0 35.5 -14.5t14.5 -34.5q0 -24 -18.5 -42t-42.5 -18z" />
    <glyph glyph-name="ldot" unicode="&#x140;" horiz-adv-x="373" 
d="M226 780q20 0 17 -20l-77 -740q-3 -20 -22 -20h-35q-20 0 -17 20l77 740q2 20 22 20h35zM340 297q-21 0 -35 15t-14 36q0 23 18.5 40.5t41.5 17.5q21 0 35.5 -14.5t14.5 -34.5q0 -24 -18.5 -42t-42.5 -18z" />
    <glyph glyph-name="Lslash" unicode="&#x141;" horiz-adv-x="574" 
d="M548 72q20 0 17 -20l-3 -32q-2 -20 -22 -20h-406q-28 0 -25 28l30 282l-84 -39q-21 -10 -26 11l-2 13q-4 18 14 27l104 49l36 339q2 20 22 20h38q20 0 18 -20l-32 -301l102 48q19 9 26 -11l3 -14q5 -18 -14 -27l-123 -57l-28 -261q0 -15 14 -15h341z" />
    <glyph glyph-name="lslash" unicode="&#x142;" horiz-adv-x="253" 
d="M330 471q8 -21 -14 -31l-112 -52l-38 -368q-3 -20 -22 -20h-35q-20 0 -17 20l35 332l-79 -37q-24 -9 -30 13l-5 12q-8 22 16 32l105 48l35 340q2 20 22 20h35q20 0 17 -20l-32 -304l84 39q22 9 30 -11z" />
    <glyph glyph-name="Nacute" unicode="&#x143;" horiz-adv-x="828" 
d="M606 887q20 8 23 -14l4 -28q3 -20 -18 -24l-191 -30q-21 -4 -24 14v6q-1 19 16 25zM126 0q-20 0 -18 20l72 683q2 27 30 27h9q21 0 30 -16l398 -579q5 -8 11 -6t8 13l59 568q3 20 23 20h30q20 0 17 -20l-72 -683q-2 -27 -29 -27h-17q-21 0 -31 16l-391 558q-3 5 -7.5 6.5
t-7.5 -2t-4 -10.5l-57 -548q-2 -20 -22 -20h-31z" />
    <glyph glyph-name="nacute" unicode="&#x144;" horiz-adv-x="652" 
d="M484 730q18 11 26 -8l11 -27q8 -19 -12 -27l-179 -75q-20 -9 -26 8l-2 6q-6 18 10 28zM107 0q-21 0 -18 20l50 480q3 20 23 20h15q19 0 20 -18l-1 -18q2 -39 41 -14q100 60 211 60q80 0 124.5 -51t34.5 -140l-33 -319q-3 -20 -22 -20h-35q-20 0 -18 20l34 316
q7 63 -22.5 95.5t-89.5 32.5q-83 0 -196 -68q-24 -14 -27 -40l-34 -336q-3 -20 -23 -20h-34z" />
    <glyph glyph-name="Ncommaaccent" unicode="&#x145;" horiz-adv-x="828" 
d="M126 0q-20 0 -18 20l72 683q2 27 30 27h9q21 0 30 -16l398 -579q5 -8 11 -6t8 13l59 568q3 20 23 20h30q20 0 17 -20l-72 -683q-2 -27 -29 -27h-17q-21 0 -31 16l-391 558q-3 5 -7.5 6.5t-7.5 -2t-4 -10.5l-57 -548q-2 -20 -22 -20h-31zM379 -51q5 18 24 18h35
q24 0 15 -22l-54 -140q-7 -17 -24 -17h-17q-22 0 -16 22z" />
    <glyph glyph-name="ncommaaccent" unicode="&#x146;" horiz-adv-x="652" 
d="M107 0q-21 0 -18 20l50 480q3 20 23 20h15q19 0 20 -18l-1 -18q2 -39 41 -14q100 60 211 60q80 0 124.5 -51t34.5 -140l-33 -319q-3 -20 -22 -20h-35q-20 0 -18 20l34 316q7 63 -22.5 95.5t-89.5 32.5q-83 0 -196 -68q-24 -14 -27 -40l-34 -336q-3 -20 -23 -20h-34z
M289 -51q5 18 24 18h35q24 0 15 -22l-54 -140q-7 -17 -24 -17h-17q-22 0 -16 22z" />
    <glyph glyph-name="Ncaron" unicode="&#x147;" horiz-adv-x="828" 
d="M358 883l5 14q7 18 25 11l102 -37q16 -7 35 0l109 37q19 5 22 -11l3 -14q3 -17 -12 -24l-123 -53q-26 -11 -49 0l-110 53q-14 8 -7 24zM126 0q-20 0 -18 20l72 683q2 27 30 27h9q21 0 30 -16l398 -579q5 -8 11 -6t8 13l59 568q3 20 23 20h30q20 0 17 -20l-72 -683
q-2 -27 -29 -27h-17q-21 0 -31 16l-391 558q-3 5 -7.5 6.5t-7.5 -2t-4 -10.5l-57 -548q-2 -20 -22 -20h-31z" />
    <glyph glyph-name="ncaron" unicode="&#x148;" horiz-adv-x="652" 
d="M256 694l5 13q7 18 25 11l101 -36q16 -7 34 0l108 36q19 5 22 -11l3 -13q3 -17 -12 -24l-122 -53q-25 -11 -48 0l-109 53q-14 8 -7 24zM107 0q-21 0 -18 20l50 480q3 20 23 20h15q19 0 20 -18l-1 -18q2 -39 41 -14q100 60 211 60q80 0 124.5 -51t34.5 -140l-33 -319
q-3 -20 -22 -20h-35q-20 0 -18 20l34 316q7 63 -22.5 95.5t-89.5 32.5q-83 0 -196 -68q-24 -14 -27 -40l-34 -336q-3 -20 -23 -20h-34z" />
    <glyph glyph-name="napostrophe" unicode="&#x149;" horiz-adv-x="682" 
d="M75 736q6 19 26 19h33q22 0 16 -22l-45 -147q-6 -18 -25 -18h-20q-23 0 -18 21zM107 0q-21 0 -18 20l50 480q3 20 23 20h15q19 0 20 -18l-1 -18q2 -39 41 -14q100 60 211 60q80 0 124.5 -51t34.5 -140l-33 -319q-3 -20 -22 -20h-35q-20 0 -18 20l34 316q7 63 -22.5 95.5
t-89.5 32.5q-83 0 -196 -68q-24 -14 -27 -40l-34 -336q-3 -20 -23 -20h-34z" />
    <glyph glyph-name="Eng" unicode="&#x14a;" horiz-adv-x="821" 
d="M126 0q-20 0 -18 20l72 683q2 27 30 27h14q19 0 31 -15l395 -470q7 -7 12.5 -5t6.5 12l49 458q2 20 22 20h32q20 0 18 -20l-63 -599q-31 -289 -345 -302q-10 -1 -15 4.5t-3 14.5l1 19q3 20 23 20q245 12 267 244l1 11q0 12 -6 18l-390 461q-6 7 -12 5t-7 -12l-60 -574
q-3 -20 -23 -20h-32z" />
    <glyph glyph-name="eng" unicode="&#x14b;" horiz-adv-x="652" 
d="M107 0q-21 0 -18 20l50 480q3 20 23 20h15q19 0 20 -18l-1 -28q3 -26 30 -10q112 66 222 66q82 0 125.5 -50.5t33.5 -140.5l-43 -409q-7 -66 -43 -101.5t-95 -35.5q-39 0 -61 7q-16 3 -13 23l6 24q4 19 24 16q18 -4 33 -4q31 0 51 19t24 57l43 401q7 63 -22.5 95.5
t-89.5 32.5q-88 0 -204 -72q-17 -11 -18 -29l-35 -343q-3 -20 -23 -20h-34z" />
    <glyph glyph-name="Omacron" unicode="&#x14c;" horiz-adv-x="872" 
d="M384 862q3 20 22 20h243q21 0 19 -20l-3 -21q-3 -20 -22 -20h-244q-20 0 -17 20zM89 330q0 185 124 297.5t300 112.5q146 0 246.5 -93.5t100.5 -244.5q0 -179 -123 -295.5t-303 -116.5q-143 0 -244 92.5t-101 247.5zM169 336q0 -123 78 -200t195 -77q137 0 237.5 95
t100.5 242q0 123 -78 199t-196 76q-136 0 -236.5 -94.5t-100.5 -240.5z" />
    <glyph glyph-name="omacron" unicode="&#x14d;" horiz-adv-x="641" 
d="M249 682q3 20 22 20h243q21 0 19 -20l-3 -21q-3 -20 -22 -20h-244q-20 0 -17 20zM75 236q0 126 84.5 210t217.5 84q105 0 174.5 -70.5t69.5 -172.5q0 -127 -84 -212t-217 -85q-106 0 -175.5 71t-69.5 175zM149 241q0 -81 49 -133.5t128 -52.5q94 0 157 65.5t63 159.5
q0 79 -49 132t-128 53q-95 0 -157.5 -64.5t-62.5 -159.5z" />
    <glyph glyph-name="Ohungarumlaut" unicode="&#x150;" horiz-adv-x="872" 
d="M465 909q9 15 25 15l37 -1q12 0 15 -6.5t-5 -17.5l-72 -101q-10 -13 -25 -13h-16q-11 0 -15 6.5t1 16.5zM613 909q9 15 25 15l37 -1q12 0 15 -6.5t-5 -17.5l-72 -101q-10 -13 -26 -13h-15q-26 0 -14 23zM89 330q0 185 124 297.5t300 112.5q146 0 246.5 -93.5
t100.5 -244.5q0 -179 -123 -295.5t-303 -116.5q-143 0 -244 92.5t-101 247.5zM169 336q0 -123 78 -200t195 -77q137 0 237.5 95t100.5 242q0 123 -78 199t-196 76q-136 0 -236.5 -94.5t-100.5 -240.5z" />
    <glyph glyph-name="ohungarumlaut" unicode="&#x151;" horiz-adv-x="641" 
d="M328 719q9 15 25 15l37 -1q12 0 15 -6.5t-5 -17.5l-72 -101q-10 -13 -25 -13h-16q-25 0 -14 23zM476 719q9 15 25 15l37 -1q12 0 15 -6.5t-5 -17.5l-72 -101q-10 -13 -26 -13h-15q-25 0 -14 23zM75 236q0 126 84.5 210t217.5 84q105 0 174.5 -70.5t69.5 -172.5
q0 -127 -84 -212t-217 -85q-106 0 -175.5 71t-69.5 175zM149 241q0 -81 49 -133.5t128 -52.5q94 0 157 65.5t63 159.5q0 79 -49 132t-128 53q-95 0 -157.5 -64.5t-62.5 -159.5z" />
    <glyph glyph-name="OE" unicode="&#x152;" horiz-adv-x="1211" 
d="M1188 730q20 0 17 -20l-3 -28q-2 -20 -21 -20h-272q-21 0 -23 -21l-24 -223q-3 -21 19 -21h294q21 0 18 -20l-3 -28q-3 -20 -22 -20h-294q-21 0 -23 -21l-23 -219q-3 -21 18 -21h286q21 0 18 -20l-3 -28q-2 -20 -22 -20h-361q-23 0 -21 23l11 100q-59 -63 -142 -98
t-178 -35q-143 0 -244 92.5t-101 247.5q0 185 124 297.5t300 112.5q91 0 168 -38.5t123 -107.5l12 113q2 23 25 23h347zM442 59q137 0 237.5 95t100.5 242q0 123 -78 199t-196 76q-136 0 -236.5 -94.5t-100.5 -240.5q0 -123 78 -200t195 -77z" />
    <glyph glyph-name="oe" unicode="&#x153;" horiz-adv-x="1043" 
d="M75 236q0 124 84 209t218 85q60 0 110.5 -25.5t79.5 -65.5q19 -23 42 2q83 89 207 89q85 0 147.5 -69.5t62.5 -159.5q-1 -59 -45 -59h-352q-18 0 -27 -9.5t-7 -26.5q9 -68 54.5 -111t117.5 -43q50 0 93 25t63 67q9 16 24 16h31q10 0 14.5 -6t0.5 -16
q-27 -67 -85.5 -107.5t-147.5 -40.5q-125 0 -188 94q-16 23 -43 -4q-84 -90 -209 -90q-106 0 -175.5 71.5t-69.5 174.5zM617 339q-8 -17 -1 -27t24 -10l276 -1q17 0 26.5 10t6.5 26q-9 57 -47 94t-94 37q-63 0 -114.5 -35t-76.5 -94zM149 241q0 -80 49 -133t128 -53
q61 0 113.5 31t79.5 83q10 22 9 42q-1 7 -1 25q0 37 10 75q6 26 0 43q-17 51 -62 81t-106 30q-92 0 -156 -65.5t-64 -158.5z" />
    <glyph glyph-name="Racute" unicode="&#x154;" horiz-adv-x="613" 
d="M477 887q20 8 23 -14l4 -28q3 -20 -18 -24l-191 -30q-21 -4 -24 14v6q-1 19 16 25zM108 20l73 687q2 23 25 23h135q120 0 196.5 -63t76.5 -162q0 -105 -83 -170.5t-191 -68.5l-11 -1q-8 -1 -10 -7.5t5 -13.5l219 -220q9 -9 5 -17t-18 -8l-53 1q-15 0 -26 12l-221 230
q-6 8 -13 5t-8 -13l-23 -214q-2 -20 -22 -20h-38q-20 0 -18 20zM220 342q-2 -15 14 -15h65q104 0 169.5 49.5t65.5 129.5q0 71 -54.5 113.5t-146.5 42.5h-64q-15 0 -17 -15z" />
    <glyph glyph-name="racute" unicode="&#x155;" horiz-adv-x="406" 
d="M366 730q18 11 26 -8l11 -27q8 -19 -12 -27l-179 -75q-20 -9 -26 8l-2 6q-6 18 10 28zM107 0q-21 0 -18 20l50 480q3 20 23 20h15q16 0 19 -18l-1 -18q4 -34 39 -10q78 56 159 56q13 0 37 -4q18 -4 12 -24l-7 -32q-5 -20 -25 -16q-15 4 -39 4q-63 0 -149 -67
q-21 -15 -24 -41l-34 -330q-3 -20 -23 -20h-34z" />
    <glyph glyph-name="Rcommaaccent" unicode="&#x156;" horiz-adv-x="613" 
d="M108 20l73 687q2 23 25 23h135q120 0 196.5 -63t76.5 -162q0 -105 -83 -170.5t-191 -68.5l-11 -1q-8 -1 -10 -7.5t5 -13.5l219 -220q9 -9 5 -17t-18 -8l-53 1q-15 0 -26 12l-221 230q-6 8 -13 5t-8 -13l-23 -214q-2 -20 -22 -20h-38q-20 0 -18 20zM220 342q-2 -15 14 -15
h65q104 0 169.5 49.5t65.5 129.5q0 71 -54.5 113.5t-146.5 42.5h-64q-15 0 -17 -15zM283 -51q5 18 24 18h35q24 0 15 -22l-54 -140q-7 -17 -24 -17h-17q-22 0 -16 22z" />
    <glyph glyph-name="rcommaaccent" unicode="&#x157;" horiz-adv-x="406" 
d="M107 0q-21 0 -18 20l50 480q3 20 23 20h15q16 0 19 -18l-1 -18q4 -34 39 -10q78 56 159 56q13 0 37 -4q18 -4 12 -24l-7 -32q-5 -20 -25 -16q-15 4 -39 4q-63 0 -149 -67q-21 -15 -24 -41l-34 -330q-3 -20 -23 -20h-34zM80 -51q4 18 24 18h35q24 0 15 -22l-54 -140
q-7 -17 -24 -17h-17q-22 0 -16 22z" />
    <glyph glyph-name="Rcaron" unicode="&#x158;" horiz-adv-x="613" 
d="M229 883l5 14q7 18 25 11l102 -37q16 -7 35 0l109 37q19 5 22 -11l3 -14q3 -17 -12 -24l-123 -53q-26 -11 -49 0l-110 53q-14 8 -7 24zM108 20l73 687q2 23 25 23h135q120 0 196.5 -63t76.5 -162q0 -105 -83 -170.5t-191 -68.5l-11 -1q-8 -1 -10 -7.5t5 -13.5l219 -220
q9 -9 5 -17t-18 -8l-53 1q-15 0 -26 12l-221 230q-6 8 -13 5t-8 -13l-23 -214q-2 -20 -22 -20h-38q-20 0 -18 20zM220 342q-2 -15 14 -15h65q104 0 169.5 49.5t65.5 129.5q0 71 -54.5 113.5t-146.5 42.5h-64q-15 0 -17 -15z" />
    <glyph glyph-name="rcaron" unicode="&#x159;" horiz-adv-x="406" 
d="M138 694l5 13q7 18 25 11l101 -36q16 -7 34 0l108 36q19 5 22 -11l3 -13q3 -17 -12 -24l-122 -53q-25 -11 -48 0l-109 53q-14 8 -7 24zM107 0q-21 0 -18 20l50 480q3 20 23 20h15q16 0 19 -18l-1 -18q4 -34 39 -10q78 56 159 56q13 0 37 -4q18 -4 12 -24l-7 -32
q-5 -20 -25 -16q-15 4 -39 4q-63 0 -149 -67q-21 -15 -24 -41l-34 -330q-3 -20 -23 -20h-34z" />
    <glyph glyph-name="Sacute" unicode="&#x15a;" horiz-adv-x="622" 
d="M486 887q20 8 23 -14l4 -28q3 -20 -18 -24l-191 -30q-21 -4 -24 14v6q-1 19 16 25zM62 182q-2 10 3 16t16 6h38q15 0 20 -16q40 -128 194 -128q75 0 125 35.5t50 96.5q0 37 -20.5 63.5t-53.5 43t-73 30t-80 29.5t-73 36.5t-53.5 56t-20.5 83.5q0 92 67 149t177 57
q91 0 156.5 -52t79.5 -130q2 -10 -3.5 -16.5t-16.5 -6.5h-36q-16 0 -21 17q-14 54 -58.5 86t-107.5 32q-70 0 -114 -35.5t-44 -92.5q0 -36 20.5 -62.5t54 -43t73.5 -30.5t79.5 -30t73 -37t54 -57.5t20.5 -84.5q0 -95 -74.5 -151t-187.5 -56q-100 0 -172.5 53t-91.5 139z" />
    <glyph glyph-name="sacute" unicode="&#x15b;" horiz-adv-x="542" 
d="M420 730q18 11 26 -8l11 -27q8 -19 -12 -27l-179 -75q-20 -9 -26 8l-2 6q-6 18 10 28zM105 379q0 70 55 110.5t159 40.5q92 0 145 -42.5t56 -108.5q0 -21 -22 -21h-29q-17 0 -19 18q-3 42 -36 67.5t-99 25.5q-63 0 -99.5 -25t-36.5 -61t34 -56t82.5 -30t97.5 -22.5
t83 -44t34 -83.5q0 -74 -64 -115.5t-169 -41.5q-82 0 -146 42t-74 111q-2 22 21 22h31q16 0 20 -17q11 -47 53 -72t103 -25q68 0 109.5 24.5t41.5 69.5q0 36 -34 56.5t-82.5 30t-97 21.5t-83 43t-34.5 83z" />
    <glyph glyph-name="Scedilla" unicode="&#x15e;" horiz-adv-x="622" 
d="M614 558q2 -10 -3.5 -16.5t-16.5 -6.5h-36q-16 0 -21 17q-14 54 -58.5 86t-107.5 32q-70 0 -114 -35.5t-44 -92.5q0 -36 20.5 -62.5t54 -43t73.5 -30.5t79.5 -30t73 -37t54 -57.5t20.5 -84.5q0 -88 -64 -142.5t-164 -63.5l-7 -20q-5 -14 8 -16q29 -5 47.5 -25t18.5 -50
q0 -46 -35.5 -73t-89.5 -27q-47 0 -76 20q-14 9 -9 25l5 11q6 19 26 7q26 -13 55 -13q26 0 42 12.5t16 32.5q0 40 -48 40h-10q-11 0 -16 7t-1 18l18 51q-92 5 -158 57t-84 134q-2 10 3 16t16 6h38q15 0 20 -16q40 -128 194 -128q75 0 125 35.5t50 96.5q0 37 -20.5 63.5
t-53.5 43t-73 30t-80 29.5t-73 36.5t-53.5 56t-20.5 83.5q0 92 67 149t177 57q91 0 156.5 -52t79.5 -130z" />
    <glyph glyph-name="scedilla" unicode="&#x15f;" horiz-adv-x="542" 
d="M315 469q-63 0 -99.5 -25t-36.5 -61t34 -56t82.5 -30t97.5 -22.5t83 -44t34 -83.5q0 -68 -55.5 -109t-147.5 -47l-7 -20q-5 -14 8 -16q29 -5 47.5 -25t18.5 -50q0 -46 -35.5 -73t-89.5 -27q-47 0 -76 20q-14 9 -9 25l5 11q6 19 26 7q26 -13 55 -13q26 0 42 12.5t16 32.5
q0 40 -48 40h-10q-11 0 -16 7t-1 18l19 51q-75 7 -130.5 47.5t-64.5 104.5q-2 22 21 22h31q16 0 20 -17q11 -47 53 -72t103 -25q68 0 109.5 24.5t41.5 69.5q0 36 -34 56.5t-82.5 30t-97 21.5t-83 43t-34.5 83q0 70 55 110.5t159 40.5q92 0 145 -42.5t56 -108.5
q0 -21 -22 -21h-29q-17 0 -19 18q-3 42 -36 67.5t-99 25.5z" />
    <glyph glyph-name="Scaron" unicode="&#x160;" horiz-adv-x="622" 
d="M238 883l5 14q7 18 25 11l102 -37q16 -7 35 0l109 37q19 5 22 -11l3 -14q3 -17 -12 -24l-123 -53q-26 -11 -49 0l-110 53q-14 8 -7 24zM62 182q-2 10 3 16t16 6h38q15 0 20 -16q40 -128 194 -128q75 0 125 35.5t50 96.5q0 37 -20.5 63.5t-53.5 43t-73 30t-80 29.5
t-73 36.5t-53.5 56t-20.5 83.5q0 92 67 149t177 57q91 0 156.5 -52t79.5 -130q2 -10 -3.5 -16.5t-16.5 -6.5h-36q-16 0 -21 17q-14 54 -58.5 86t-107.5 32q-70 0 -114 -35.5t-44 -92.5q0 -36 20.5 -62.5t54 -43t73.5 -30.5t79.5 -30t73 -37t54 -57.5t20.5 -84.5
q0 -95 -74.5 -151t-187.5 -56q-100 0 -172.5 53t-91.5 139z" />
    <glyph glyph-name="scaron" unicode="&#x161;" horiz-adv-x="542" 
d="M192 694l5 13q7 18 25 11l101 -36q16 -7 34 0l108 36q19 5 22 -11l3 -13q3 -17 -12 -24l-122 -53q-25 -11 -48 0l-109 53q-14 8 -7 24zM105 379q0 70 55 110.5t159 40.5q92 0 145 -42.5t56 -108.5q0 -21 -22 -21h-29q-17 0 -19 18q-3 42 -36 67.5t-99 25.5
q-63 0 -99.5 -25t-36.5 -61t34 -56t82.5 -30t97.5 -22.5t83 -44t34 -83.5q0 -74 -64 -115.5t-169 -41.5q-82 0 -146 42t-74 111q-2 22 21 22h31q16 0 20 -17q11 -47 53 -72t103 -25q68 0 109.5 24.5t41.5 69.5q0 36 -34 56.5t-82.5 30t-97 21.5t-83 43t-34.5 83z" />
    <glyph glyph-name="uni0162" unicode="&#x162;" horiz-adv-x="592" 
d="M635 730q21 0 18 -20l-3 -32q-3 -20 -23 -20h-203q-20 0 -22 -20l-65 -618q-2 -17 -18 -20l-10 -30q-5 -14 8 -16q29 -5 47.5 -25t18.5 -50q0 -46 -35.5 -73t-89.5 -27q-47 0 -76 20q-14 9 -9 25l5 11q6 19 26 7q26 -13 55 -13q26 0 42 12.5t16 32.5q0 40 -48 40h-10
q-11 0 -16 7t-1 18l23 63q-10 3 -8 18l64 618q2 20 -18 20h-200q-20 0 -17 20l3 32q2 20 22 20h524z" />
    <glyph glyph-name="uni0163" unicode="&#x163;" horiz-adv-x="410" 
d="M424 520q21 0 18 -20l-2 -24q-3 -20 -23 -20h-179q-10 0 -11 -9l-31 -303q-10 -88 70 -88q50 0 108 20q23 8 23 -14v-23q0 -19 -17 -25q-57 -19 -107 -23l-7 -20q-5 -14 8 -16q29 -5 47.5 -25t18.5 -50q0 -46 -35.5 -73t-89.5 -27q-47 0 -76 20q-14 9 -9 25l5 11
q6 19 26 7q26 -13 55 -13q26 0 42 12.5t16 32.5q0 40 -48 40h-10q-11 0 -16 7t-1 18l19 52q-51 9 -77.5 46.5t-19.5 104.5l32 304q1 9 -9 9h-51q-20 0 -17 20l2 24q3 20 22 20h54q8 0 10 9l10 102q3 18 20 22l33 9q11 3 17 -2t4 -15l-12 -116q-2 -9 9 -9h179z" />
    <glyph glyph-name="Tcaron" unicode="&#x164;" horiz-adv-x="592" 
d="M239 883l5 14q7 18 25 11l102 -37q16 -7 35 0l109 37q19 5 22 -11l3 -14q3 -17 -12 -24l-123 -53q-26 -11 -49 0l-110 53q-14 8 -7 24zM103 658q-20 0 -17 20l3 32q2 20 22 20h524q21 0 18 -20l-3 -32q-3 -20 -23 -20h-203q-20 0 -22 -20l-65 -618q-2 -20 -22 -20h-41
q-20 0 -17 20l64 618q2 20 -18 20h-200z" />
    <glyph glyph-name="tcaron" unicode="&#x165;" horiz-adv-x="410" 
d="M358 606q20 0 24 18l40 176q6 21 -16 21h-25q-18 0 -23 -19l-32 -175q-4 -21 16 -21h16zM93 456q-20 0 -17 20l2 24q3 20 22 20h54q8 0 10 9l10 102q3 18 20 22l33 9q11 3 17 -2t4 -15l-12 -116q-2 -9 9 -9h179q21 0 18 -20l-2 -24q-3 -20 -23 -20h-179q-10 0 -11 -9
l-31 -303q-10 -88 70 -88q50 0 108 20q23 8 23 -14v-23q0 -19 -17 -25q-69 -24 -133 -24q-63 0 -98.5 38.5t-27.5 114.5l32 304q1 9 -9 9h-51z" />
    <glyph glyph-name="Tbar" unicode="&#x166;" horiz-adv-x="592" 
d="M635 730q21 0 18 -20l-3 -32q-3 -20 -23 -20h-203q-20 0 -22 -20l-25 -238h107q19 0 17 -20l-2 -22q-2 -20 -22 -20h-107l-33 -318q-2 -20 -22 -20h-41q-20 0 -17 20l33 318h-104q-19 0 -17 20l1 22q2 20 23 20h103l25 238q2 20 -18 20h-200q-20 0 -17 20l3 32
q2 20 22 20h524z" />
    <glyph glyph-name="tbar" unicode="&#x167;" horiz-adv-x="410" 
d="M424 520q21 0 18 -20l-2 -24q-3 -20 -23 -20h-179q-10 0 -11 -9l-12 -120h162q19 0 17 -20l-2 -22q-2 -20 -22 -20h-162l-12 -121q-10 -88 70 -88q50 0 108 20q23 8 23 -14v-23q0 -19 -17 -25q-69 -24 -133 -24q-63 0 -98.5 38.5t-27.5 114.5l13 122h-55q-19 0 -17 20
l1 22q2 20 23 20h54l13 120q1 9 -9 9h-51q-20 0 -17 20l2 24q3 20 22 20h54q8 0 10 9l10 102q3 18 20 22l33 9q11 3 17 -2t4 -15l-12 -116q-2 -9 9 -9h179z" />
    <glyph glyph-name="Utilde" unicode="&#x168;" horiz-adv-x="793" 
d="M636 890q22 -5 14 -24q-24 -67 -97 -67q-34 0 -73.5 23.5t-56.5 23.5q-30 0 -46 -23q-12 -15 -27 -12l-13 3q-22 5 -14 24q23 66 94 66q35 0 78 -23.5t56 -23.5q32 0 46 23q14 15 27 13zM126 306l43 404q2 20 22 20h40q20 0 17 -20l-42 -408q-11 -106 42.5 -173
t154.5 -67q98 0 167.5 66t80.5 174l42 408q3 20 23 20h39q20 0 18 -20l-43 -404q-15 -141 -104 -228.5t-231 -87.5q-129 0 -206 89t-63 227z" />
    <glyph glyph-name="utilde" unicode="&#x169;" horiz-adv-x="632" 
d="M530 700q22 -5 14 -24q-24 -67 -97 -67q-34 0 -73.5 23.5t-56.5 23.5q-30 0 -46 -23q-12 -15 -27 -12l-13 3q-22 5 -14 24q23 66 94 66q35 0 78 -23.5t56 -23.5q32 0 46 23q14 15 27 13zM100 181l34 319q2 20 22 20h35q20 0 17 -20l-33 -316q-7 -62 21.5 -95t86.5 -33
q70 0 178 60q23 12 26 39l37 345q2 20 22 20h35q20 0 17 -20l-50 -480q-3 -20 -22 -20h-15q-20 0 -20 18l1 11q0 38 -41 16q-100 -55 -194 -55q-78 0 -122 51t-35 140z" />
    <glyph glyph-name="Umacron" unicode="&#x16a;" horiz-adv-x="793" 
d="M344 862q3 20 22 20h243q21 0 19 -20l-3 -21q-3 -20 -22 -20h-244q-20 0 -17 20zM126 306l43 404q2 20 22 20h40q20 0 17 -20l-42 -408q-11 -106 42.5 -173t154.5 -67q98 0 167.5 66t80.5 174l42 408q3 20 23 20h39q20 0 18 -20l-43 -404q-15 -141 -104 -228.5
t-231 -87.5q-129 0 -206 89t-63 227z" />
    <glyph glyph-name="umacron" unicode="&#x16b;" horiz-adv-x="632" 
d="M245 682q3 20 22 20h243q21 0 19 -20l-3 -21q-3 -20 -22 -20h-244q-20 0 -17 20zM100 181l34 319q2 20 22 20h35q20 0 17 -20l-33 -316q-7 -62 21.5 -95t86.5 -33q70 0 178 60q23 12 26 39l37 345q2 20 22 20h35q20 0 17 -20l-50 -480q-3 -20 -22 -20h-15q-20 0 -20 18
l1 11q0 38 -41 16q-100 -55 -194 -55q-78 0 -122 51t-35 140z" />
    <glyph glyph-name="Uring" unicode="&#x16e;" horiz-adv-x="793" 
d="M474 769q-41 0 -70 27t-29 66q0 46 33.5 78t87.5 32q42 0 71 -26.5t29 -65.5q0 -47 -33.5 -79t-88.5 -32zM480 819q25 0 42 17t17 40q0 20 -13.5 34t-34.5 14q-24 0 -41 -17.5t-17 -40.5q0 -20 13 -33.5t34 -13.5zM126 306l43 404q2 20 22 20h40q20 0 17 -20l-42 -408
q-11 -106 42.5 -173t154.5 -67q98 0 167.5 66t80.5 174l42 408q3 20 23 20h39q20 0 18 -20l-43 -404q-15 -141 -104 -228.5t-231 -87.5q-129 0 -206 89t-63 227z" />
    <glyph glyph-name="uring" unicode="&#x16f;" horiz-adv-x="632" 
d="M376 586q-41 0 -70 27t-29 66q0 46 33.5 78t87.5 32q42 0 71 -26.5t29 -65.5q0 -47 -33.5 -79t-88.5 -32zM382 636q25 0 42 17t17 40q0 20 -13.5 34t-34.5 14q-24 0 -41 -17.5t-17 -40.5q0 -20 13 -33.5t34 -13.5zM100 181l34 319q2 20 22 20h35q20 0 17 -20l-33 -316
q-7 -62 21.5 -95t86.5 -33q70 0 178 60q23 12 26 39l37 345q2 20 22 20h35q20 0 17 -20l-50 -480q-3 -20 -22 -20h-15q-20 0 -20 18l1 11q0 38 -41 16q-100 -55 -194 -55q-78 0 -122 51t-35 140z" />
    <glyph glyph-name="Uhungarumlaut" unicode="&#x170;" horiz-adv-x="793" 
d="M425 909q9 15 25 15l37 -1q12 0 15 -6.5t-5 -17.5l-72 -101q-10 -13 -25 -13h-16q-11 0 -15 6.5t1 16.5zM573 909q9 15 25 15l37 -1q12 0 15 -6.5t-5 -17.5l-72 -101q-10 -13 -26 -13h-15q-26 0 -14 23zM126 306l43 404q2 20 22 20h40q20 0 17 -20l-42 -408
q-11 -106 42.5 -173t154.5 -67q98 0 167.5 66t80.5 174l42 408q3 20 23 20h39q20 0 18 -20l-43 -404q-15 -141 -104 -228.5t-231 -87.5q-129 0 -206 89t-63 227z" />
    <glyph glyph-name="uhungarumlaut" unicode="&#x171;" horiz-adv-x="632" 
d="M324 719q9 15 25 15l37 -1q12 0 15 -6.5t-5 -17.5l-72 -101q-10 -13 -25 -13h-16q-25 0 -14 23zM472 719q9 15 25 15l37 -1q12 0 15 -6.5t-5 -17.5l-72 -101q-10 -13 -26 -13h-15q-25 0 -14 23zM100 181l34 319q2 20 22 20h35q20 0 17 -20l-33 -316q-7 -62 21.5 -95
t86.5 -33q70 0 178 60q23 12 26 39l37 345q2 20 22 20h35q20 0 17 -20l-50 -480q-3 -20 -22 -20h-15q-20 0 -20 18l1 11q0 38 -41 16q-100 -55 -194 -55q-78 0 -122 51t-35 140z" />
    <glyph glyph-name="Uogonek" unicode="&#x172;" horiz-adv-x="793" 
d="M755 730q20 0 18 -20l-43 -404q-13 -126 -86 -210t-192 -102q-88 -52 -88 -125q0 -20 12.5 -31t32.5 -11q10 0 26 2q8 2 12.5 -2t3.5 -12l-2 -14q0 -15 -15 -18q-15 -5 -39 -5q-41 0 -67 23.5t-26 60.5q0 77 77 128q-123 7 -194.5 95t-58.5 221l43 404q2 20 22 20h40
q20 0 17 -20l-42 -408q-11 -106 42.5 -173t154.5 -67q98 0 167.5 66t80.5 174l42 408q3 20 23 20h39z" />
    <glyph glyph-name="uogonek" unicode="&#x173;" horiz-adv-x="632" 
d="M581 520q20 0 17 -20l-50 -480q-1 -13 -11 -18q-97 -53 -97 -130q0 -20 12.5 -31t32.5 -11q10 0 26 2q8 2 12.5 -2t3.5 -12l-2 -14q0 -15 -15 -18q-15 -5 -39 -5q-41 0 -67 23.5t-26 60.5q0 47 30 85.5t83 63.5v4l1 11q0 38 -41 16q-100 -55 -194 -55q-78 0 -122 51
t-35 140l34 319q2 20 22 20h35q20 0 17 -20l-33 -316q-7 -62 21.5 -95t86.5 -33q70 0 178 60q23 12 26 39l37 345q2 20 22 20h35z" />
    <glyph glyph-name="Wcircumflex" unicode="&#x174;" horiz-adv-x="990" 
d="M432 827q-6 18 9 24l136 66q22 10 41 0l125 -66q13 -8 4 -24l-8 -14q-8 -14 -21 -8l-109 42q-18 7 -38 0l-114 -42q-16 -5 -20 8zM103 708q-3 22 19 22h41q18 0 21 -17l90 -560q1 -9 5 -12t9.5 0t8.5 11l230 559q7 19 29 19h42q18 0 23 -19l110 -563q1 -9 5.5 -12
t9.5 0.5t8 12.5l204 563q7 18 24 18h35q23 0 15 -22l-259 -689q-8 -19 -27 -19h-39q-20 0 -25 19l-107 566q-1 8 -5.5 11t-9.5 0t-8 -11l-236 -566q-8 -19 -29 -19h-38q-20 0 -23 19z" />
    <glyph glyph-name="wcircumflex" unicode="&#x175;" horiz-adv-x="808" 
d="M318 639q-6 17 9 23l134 65q22 10 40 0l124 -65q12 -8 4 -23l-8 -14q-8 -14 -21 -8l-107 41q-18 7 -38 0l-112 -41q-16 -5 -20 8zM82 498q-5 22 20 22h33q17 0 20 -17l67 -385q2 -12 9.5 -12t12.5 12l169 383q9 20 30 20h32q20 0 25 -20l86 -387q1 -7 5.5 -10t9 0t7.5 11
l152 388q7 17 25 17h33q22 0 13 -22l-197 -477q-9 -21 -30 -21h-35q-23 0 -26 21l-85 377q-1 7 -5 10t-8.5 0t-7.5 -10l-169 -377q-9 -21 -31 -21h-33q-22 0 -25 21z" />
    <glyph glyph-name="Ycircumflex" unicode="&#x176;" horiz-adv-x="637" 
d="M252 827q-6 18 9 24l136 66q22 10 41 0l125 -66q13 -8 4 -24l-8 -14q-8 -14 -21 -8l-109 42q-18 7 -38 0l-114 -42q-16 -5 -20 8zM98 706q-5 10 -0.5 17t16.5 7h46q16 0 22 -14l164 -346q10 -22 25 0l236 346q8 14 26 14h36q12 0 15 -7t-4 -17l-285 -416q-7 -12 -9 -24
l-25 -243q-2 -23 -25 -23h-32q-23 0 -21 23l25 243q2 12 -3 24z" />
    <glyph glyph-name="ycircumflex" unicode="&#x177;" horiz-adv-x="553" 
d="M191 639q-6 17 9 23l134 65q22 10 40 0l124 -65q12 -8 4 -23l-8 -14q-8 -14 -21 -8l-107 41q-18 7 -38 0l-112 -41q-16 -5 -20 8zM80 497q-3 10 2 16.5t16 6.5h41q17 0 21 -16l117 -409q4 -12 11.5 -12.5t13.5 12.5l197 409q9 16 25 16h42q11 0 14 -6t-2 -17l-287 -555
q-31 -59 -52 -88t-57.5 -47t-91.5 -18q-38 0 -69 10q-18 4 -13 24l5 19q7 23 25 15q27 -8 62 -8q45 0 73.5 25.5t58.5 81.5l24 44h-8q-13 0 -18 14z" />
    <glyph glyph-name="Ydieresis" unicode="&#x178;" horiz-adv-x="637" 
d="M308 796q-20 0 -33 13.5t-13 34.5q0 23 17 39.5t40 16.5q20 0 34 -13.5t14 -32.5q0 -24 -18 -41t-41 -17zM493 796q-20 0 -33.5 13.5t-13.5 35.5t17.5 38.5t40.5 16.5q20 0 34 -13.5t14 -32.5q0 -24 -17.5 -41t-41.5 -17zM98 706q-5 10 -0.5 17t16.5 7h46q16 0 22 -14
l164 -346q10 -22 25 0l236 346q8 14 26 14h36q12 0 15 -7t-4 -17l-285 -416q-7 -12 -9 -24l-25 -243q-2 -23 -25 -23h-32q-23 0 -21 23l25 243q2 12 -3 24z" />
    <glyph glyph-name="Zacute" unicode="&#x179;" horiz-adv-x="659" 
d="M522 887q20 8 23 -14l4 -28q3 -20 -18 -24l-191 -30q-21 -4 -24 14v6q-1 19 16 25zM43 0q-22 0 -19 19v5q3 14 11 25l516 585q9 11 6 19t-16 8h-408q-21 0 -18 20l3 29q2 20 22 20h531q19 0 19 -19l-1 -5q0 -13 -11 -26l-514 -585q-10 -11 -7 -19t17 -8h449q21 0 18 -20
l-3 -28q-2 -20 -22 -20h-573z" />
    <glyph glyph-name="zacute" unicode="&#x17a;" horiz-adv-x="524" 
d="M416 730q18 11 26 -8l11 -27q8 -19 -12 -27l-179 -75q-20 -9 -26 8l-2 6q-6 18 10 28zM33 23q0 12 11 25l372 389q7 8 5 14.5t-13 6.5h-300q-20 0 -17 20l2 22q3 20 23 20h398q19 0 17 -19l-2 -19q-1 -13 -11 -24l-356 -375q-8 -8 -6 -14.5t13 -6.5h310q21 0 18 -20
l-2 -22q-3 -20 -23 -20h-421q-20 0 -18 19v4z" />
    <glyph glyph-name="Zdotaccent" unicode="&#x17b;" horiz-adv-x="659" 
d="M415 788q-22 0 -37 15.5t-15 38.5q0 25 19 42.5t45 17.5q22 0 36.5 -15t14.5 -36q0 -26 -19 -44.5t-44 -18.5zM43 0q-22 0 -19 19v5q3 14 11 25l516 585q9 11 6 19t-16 8h-408q-21 0 -18 20l3 29q2 20 22 20h531q19 0 19 -19l-1 -5q0 -13 -11 -26l-514 -585
q-10 -11 -7 -19t17 -8h449q21 0 18 -20l-3 -28q-2 -20 -22 -20h-573z" />
    <glyph glyph-name="zdotaccent" unicode="&#x17c;" horiz-adv-x="524" 
d="M331 636q-22 0 -37 15.5t-15 38.5q0 25 19 42.5t45 17.5q22 0 36.5 -15t14.5 -36q0 -26 -19 -44.5t-44 -18.5zM33 23q0 12 11 25l372 389q7 8 5 14.5t-13 6.5h-300q-20 0 -17 20l2 22q3 20 23 20h398q19 0 17 -19l-2 -19q-1 -13 -11 -24l-356 -375q-8 -8 -6 -14.5
t13 -6.5h310q21 0 18 -20l-2 -22q-3 -20 -23 -20h-421q-20 0 -18 19v4z" />
    <glyph glyph-name="Zcaron" unicode="&#x17d;" horiz-adv-x="659" 
d="M274 883l5 14q7 18 25 11l102 -37q16 -7 35 0l109 37q19 5 22 -11l3 -14q3 -17 -12 -24l-123 -53q-26 -11 -49 0l-110 53q-14 8 -7 24zM43 0q-22 0 -19 19v5q3 14 11 25l516 585q9 11 6 19t-16 8h-408q-21 0 -18 20l3 29q2 20 22 20h531q19 0 19 -19l-1 -5q0 -13 -11 -26
l-514 -585q-10 -11 -7 -19t17 -8h449q21 0 18 -20l-3 -28q-2 -20 -22 -20h-573z" />
    <glyph glyph-name="zcaron" unicode="&#x17e;" horiz-adv-x="524" 
d="M188 694l5 13q7 18 25 11l101 -36q16 -7 34 0l108 36q19 5 22 -11l3 -13q3 -17 -12 -24l-122 -53q-25 -11 -48 0l-109 53q-14 8 -7 24zM33 23q0 12 11 25l372 389q7 8 5 14.5t-13 6.5h-300q-20 0 -17 20l2 22q3 20 23 20h398q19 0 17 -19l-2 -19q-1 -13 -11 -24
l-356 -375q-8 -8 -6 -14.5t13 -6.5h310q21 0 18 -20l-2 -22q-3 -20 -23 -20h-421q-20 0 -18 19v4z" />
    <glyph glyph-name="uni01EA" unicode="&#x1ea;" horiz-adv-x="872" 
d="M513 -4q-91 -51 -91 -126q0 -20 12.5 -31t32.5 -11q10 0 26 2q8 2 12.5 -2t3.5 -12l-2 -14q0 -15 -15 -18q-15 -5 -39 -5q-41 0 -67 23.5t-26 60.5q0 75 75 127h-1q-143 0 -244 92.5t-101 247.5q0 185 124 297.5t300 112.5q146 0 246.5 -93.5t100.5 -244.5
q0 -158 -97.5 -269t-249.5 -137zM169 336q0 -123 78 -200t195 -77q137 0 237.5 95t100.5 242q0 123 -78 199t-196 76q-136 0 -236.5 -94.5t-100.5 -240.5z" />
    <glyph glyph-name="uni01EB" unicode="&#x1eb;" horiz-adv-x="641" 
d="M383 -4q-91 -52 -91 -127q0 -20 12.5 -31t32.5 -11q10 0 26 2q8 2 12.5 -2t3.5 -12l-2 -14q0 -15 -15 -18q-15 -5 -39 -5q-41 0 -67 23.5t-26 60.5q0 76 76 128q-100 5 -165.5 75t-65.5 171q0 126 84.5 210t217.5 84q105 0 174.5 -70.5t69.5 -172.5q0 -111 -65.5 -191.5
t-172.5 -99.5zM149 241q0 -81 49 -133.5t128 -52.5q94 0 157 65.5t63 159.5q0 79 -49 132t-128 53q-95 0 -157.5 -64.5t-62.5 -159.5z" />
    <glyph glyph-name="AEacute" unicode="&#x1fc;" horiz-adv-x="963" 
d="M805 887q20 8 23 -14l4 -28q3 -20 -18 -24l-191 -30q-21 -4 -24 14v6q-1 19 16 25zM9 0q-12 0 -15 7t4 17l504 691q10 15 28 15h409q21 0 18 -20l-3 -27q-3 -20 -22 -20h-277q-15 0 -17 -15l-24 -235q-2 -15 13 -15h300q20 0 18 -20l-3 -27q-2 -20 -22 -20h-300
q-14 0 -16 -15l-25 -233q-2 -15 14 -15h291q20 0 17 -20l-2 -28q-3 -20 -23 -20h-362q-21 0 -19 21l16 145q2 16 -14 16h-285q-12 0 -19 -10l-115 -158q-11 -14 -26 -14h-43zM267 273q-5 -7 -2.5 -12.5t10.5 -5.5h230q15 0 16 15l39 370q2 11 -4 13.5t-13 -7.5z" />
    <glyph glyph-name="aeacute" unicode="&#x1fd;" horiz-adv-x="958" 
d="M582 730q18 11 26 -8l11 -27q8 -19 -12 -27l-179 -75q-20 -9 -26 8l-2 6q-6 18 10 28zM57 123q0 80 63 123t172 43l125 -1q25 0 28 16l1 12q7 74 -25 111t-95 37q-52 0 -93.5 -26t-55.5 -65q-8 -17 -24 -17h-29q-23 0 -18 20q19 70 83 112t147 42q56 0 98.5 -24t60.5 -68
q11 -17 27 -1q83 93 204 93q100 0 163.5 -77.5t49.5 -177.5q-4 -34 -36 -34l-363 1q-30 0 -28 -28q6 -71 51.5 -115.5t114.5 -44.5q54 0 97 24.5t63 65.5q7 16 25 16h29q24 0 16 -22q-26 -65 -89 -106.5t-147 -41.5q-55 0 -104 23t-80 63q-14 19 -35 2q-105 -88 -231 -88
q-72 0 -118.5 40t-46.5 93zM532 329q-6 -13 -0.5 -20.5t19.5 -7.5l294 -1q27 0 21 32q-6 57 -46 95.5t-101 38.5q-58 0 -109.5 -37.5t-77.5 -99.5zM133 134q0 -36 30.5 -56t74.5 -20q97 0 194 78q16 12 13 34q-3 10 -5 34q-1 23 -25 23h-127q-155 0 -155 -93z" />
    <glyph glyph-name="Oslashacute" unicode="&#x1fe;" horiz-adv-x="872" 
d="M443 805v6q-1 19 16 25l190 51q20 8 23 -14l4 -28q3 -20 -18 -24l-191 -30q-21 -4 -24 14zM789 614q71 -88 71 -212q0 -179 -123 -295.5t-303 -116.5q-142 0 -241 90l-62 -56q-15 -17 -28 0l-11 12q-13 14 2 29l62 56q-67 86 -67 209q0 185 124 297.5t300 112.5
q140 0 236 -84l55 49q16 16 28 0l13 -14q12 -14 -2 -29zM169 336q0 -92 46 -162l477 430q-76 67 -186 67q-136 0 -236.5 -94.5t-100.5 -240.5zM442 59q137 0 237.5 95t100.5 242q0 96 -50 165l-479 -429q76 -73 191 -73z" />
    <glyph glyph-name="oslashacute" unicode="&#x1ff;" horiz-adv-x="641" 
d="M306 601l-2 6q-6 18 10 28l172 95q18 11 26 -8l11 -27q8 -19 -12 -27l-179 -75q-20 -9 -26 8zM623 500q16 -16 -3 -34l-42 -37q43 -64 43 -142q0 -127 -84 -212t-217 -85q-99 0 -168 64l-51 -45q-19 -18 -34 0l-5 7q-15 17 3 34l51 45q-41 63 -41 141q0 126 84.5 210
t217.5 84q96 0 164 -60l43 38q16 16 32 0zM149 241q0 -54 23 -97l315 278q-48 43 -118 43q-95 0 -157.5 -64.5t-62.5 -159.5zM546 280q0 55 -25 99l-316 -278q48 -46 121 -46q94 0 157 65.5t63 159.5z" />
    <glyph glyph-name="Scommaaccent" unicode="&#x218;" horiz-adv-x="622" 
d="M62 182q-2 10 3 16t16 6h38q15 0 20 -16q40 -128 194 -128q75 0 125 35.5t50 96.5q0 37 -20.5 63.5t-53.5 43t-73 30t-80 29.5t-73 36.5t-53.5 56t-20.5 83.5q0 92 67 149t177 57q91 0 156.5 -52t79.5 -130q2 -10 -3.5 -16.5t-16.5 -6.5h-36q-16 0 -21 17
q-14 54 -58.5 86t-107.5 32q-70 0 -114 -35.5t-44 -92.5q0 -36 20.5 -62.5t54 -43t73.5 -30.5t79.5 -30t73 -37t54 -57.5t20.5 -84.5q0 -95 -74.5 -151t-187.5 -56q-100 0 -172.5 53t-91.5 139zM298 -51q4 18 24 18h35q24 0 15 -22l-54 -140q-7 -17 -24 -17h-17
q-22 0 -16 22z" />
    <glyph glyph-name="scommaaccent" unicode="&#x219;" horiz-adv-x="542" 
d="M105 379q0 70 55 110.5t159 40.5q92 0 145 -42.5t56 -108.5q0 -21 -22 -21h-29q-17 0 -19 18q-3 42 -36 67.5t-99 25.5q-63 0 -99.5 -25t-36.5 -61t34 -56t82.5 -30t97.5 -22.5t83 -44t34 -83.5q0 -74 -64 -115.5t-169 -41.5q-82 0 -146 42t-74 111q-2 22 21 22h31
q16 0 20 -17q11 -47 53 -72t103 -25q68 0 109.5 24.5t41.5 69.5q0 36 -34 56.5t-82.5 30t-97 21.5t-83 43t-34.5 83zM245 -51q5 18 24 18h35q24 0 15 -22l-54 -140q-7 -17 -24 -17h-17q-22 0 -16 22z" />
    <glyph glyph-name="uni021A" unicode="&#x21a;" horiz-adv-x="592" 
d="M103 658q-20 0 -17 20l3 32q2 20 22 20h524q21 0 18 -20l-3 -32q-3 -20 -23 -20h-203q-20 0 -22 -20l-65 -618q-2 -20 -22 -20h-41q-20 0 -17 20l64 618q2 20 -18 20h-200zM254 -52q4 18 24 18h35q24 0 15 -22l-54 -140q-7 -17 -24 -17h-17q-22 0 -16 22z" />
    <glyph glyph-name="uni021B" unicode="&#x21b;" horiz-adv-x="410" 
d="M93 456q-20 0 -17 20l2 24q3 20 22 20h54q8 0 10 9l10 102q3 18 20 22l33 9q11 3 17 -2t4 -15l-12 -116q-2 -9 9 -9h179q21 0 18 -20l-2 -24q-3 -20 -23 -20h-179q-10 0 -11 -9l-31 -303q-10 -88 70 -88q50 0 108 20q23 8 23 -14v-23q0 -19 -17 -25q-69 -24 -133 -24
q-63 0 -98.5 38.5t-27.5 114.5l32 304q1 9 -9 9h-51zM211 -51q5 18 24 18h35q24 0 15 -22l-54 -140q-7 -17 -24 -17h-17q-22 0 -16 22z" />
    <glyph glyph-name="uni0237" unicode="&#x237;" horiz-adv-x="259" 
d="M24 -207q-39 0 -61 6q-16 4 -13 24l6 24q4 19 24 16q20 -4 34 -4q30 0 50 19t24 57l59 565q3 20 23 20h34q20 0 18 -20l-60 -570q-7 -64 -41.5 -100.5t-96.5 -36.5z" />
    <glyph glyph-name="circumflex" unicode="&#x2c6;" horiz-adv-x="600" 
d="M265 639q-6 17 9 23l134 65q22 10 40 0l124 -65q12 -8 4 -23l-8 -14q-8 -14 -21 -8l-107 41q-18 7 -38 0l-112 -41q-16 -5 -20 8z" />
    <glyph glyph-name="caron" unicode="&#x2c7;" horiz-adv-x="600" 
d="M168 694l5 13q7 18 25 11l101 -36q16 -7 34 0l108 36q19 5 22 -11l3 -13q3 -17 -12 -24l-122 -53q-25 -11 -48 0l-109 53q-14 8 -7 24z" />
    <glyph glyph-name="breve" unicode="&#x2d8;" horiz-adv-x="600" 
d="M258 721q15 0 21 -16q7 -24 32 -38t56 -14q30 0 58 14t41 38q10 16 26 16l22 -1q23 -2 15 -22q-41 -102 -168 -103q-53 -1 -96 27.5t-52 75.5q-3 20 20 22z" />
    <glyph glyph-name="dotaccent" unicode="&#x2d9;" horiz-adv-x="302" 
d="M221 678q-19 0 -32 13.5t-13 33.5q0 23 17 39.5t39 16.5q20 0 33.5 -14t13.5 -33q0 -23 -17.5 -39.5t-40.5 -16.5z" />
    <glyph glyph-name="ring" unicode="&#x2da;" horiz-adv-x="600" 
d="M219 586q-41 0 -70 27t-29 66q0 46 33.5 78t87.5 32q42 0 71 -26.5t29 -65.5q0 -47 -33.5 -79t-88.5 -32zM225 636q25 0 42 17t17 40q0 20 -13.5 34t-34.5 14q-24 0 -41 -17.5t-17 -40.5q0 -20 13 -33.5t34 -13.5z" />
    <glyph glyph-name="ogonek" unicode="&#x2db;" horiz-adv-x="600" 
d="M337 -197q0 -15 -15 -18q-15 -5 -39 -5q-41 0 -67 23.5t-26 60.5q0 52 36.5 93t98.5 66l24 -22q-97 -53 -97 -130q0 -20 12.5 -31t32.5 -11q10 0 26 2q8 2 12.5 -2t3.5 -12z" />
    <glyph glyph-name="tilde" unicode="&#x2dc;" horiz-adv-x="600" 
d="M492 700q22 -5 14 -24q-24 -67 -97 -67q-34 0 -73.5 23.5t-56.5 23.5q-30 0 -46 -23q-12 -15 -27 -12l-13 3q-22 5 -14 24q23 66 94 66q35 0 78 -23.5t56 -23.5q32 0 46 23q14 15 27 13z" />
    <glyph glyph-name="hungarumlaut" unicode="&#x2dd;" horiz-adv-x="600" 
d="M321 719q9 15 25 15l37 -1q12 0 15 -6.5t-5 -17.5l-72 -101q-10 -13 -25 -13h-16q-11 0 -15 6.5t1 16.5zM469 719q9 15 25 15l37 -1q12 0 15 -6.5t-5 -17.5l-72 -101q-10 -13 -26 -13h-15q-26 0 -14 23z" />
    <glyph glyph-name="gravecomb" unicode="&#x300;" 
d="M-299 732q9 18 27 7l155 -99q16 -12 6 -28l-4 -6q-12 -16 -28 -9l-166 80q-18 9 -7 27z" />
    <glyph glyph-name="acutecomb" unicode="&#x301;" 
d="M-146 730q18 11 26 -8l11 -27q8 -19 -12 -27l-179 -75q-20 -9 -26 8l-2 6q-6 18 10 28z" />
    <glyph glyph-name="uni0302" unicode="&#x302;" 
d="M-331 639q-6 17 9 23l134 65q22 10 40 0l124 -65q12 -8 4 -23l-8 -14q-8 -14 -21 -8l-107 41q-18 7 -38 0l-112 -41q-16 -5 -20 8z" />
    <glyph glyph-name="tildecomb" unicode="&#x303;" 
d="M-63 700q22 -5 14 -24q-24 -67 -97 -67q-34 0 -73.5 23.5t-56.5 23.5q-30 0 -46 -23q-12 -15 -27 -12l-13 3q-22 5 -14 24q23 66 94 66q35 0 78 -23.5t56 -23.5q32 0 46 23q14 15 27 13z" />
    <glyph glyph-name="uni0304" unicode="&#x304;" 
d="M-357 682q3 20 22 20h243q21 0 19 -20l-3 -21q-3 -20 -22 -20h-244q-20 0 -17 20z" />
    <glyph glyph-name="uni0306" unicode="&#x306;" 
d="M-350 721q15 0 21 -16q7 -24 32 -38t56 -14q30 0 58 14t41 38q10 16 26 16l22 -1q23 -2 15 -22q-41 -102 -168 -103q-53 -1 -96 27.5t-52 75.5q-3 20 20 22z" />
    <glyph glyph-name="uni0307" unicode="&#x307;" 
d="M-72 636q-22 0 -37 15.5t-15 38.5q0 25 19 42.5t45 17.5q22 0 36.5 -15t14.5 -36q0 -26 -19 -44.5t-44 -18.5z" />
    <glyph glyph-name="uni0308" unicode="&#x308;" 
d="M-217 630q-19 0 -32 13.5t-13 33.5q0 22 16.5 38t38.5 16q20 0 33.5 -13t13.5 -32q0 -23 -17.5 -39.5t-39.5 -16.5zM-39 630q-20 0 -32.5 13.5t-12.5 34.5q0 22 16.5 37.5t39.5 15.5q19 0 32.5 -13t13.5 -32q0 -23 -17 -39.5t-40 -16.5z" />
    <glyph glyph-name="uni030A" unicode="&#x30a;" 
d="M-98 586q-41 0 -70 27t-29 66q0 46 33.5 78t87.5 32q42 0 71 -26.5t29 -65.5q0 -47 -33.5 -79t-88.5 -32zM-92 636q25 0 42 17t17 40q0 20 -13.5 34t-34.5 14q-24 0 -41 -17.5t-17 -40.5q0 -20 13 -33.5t34 -13.5z" />
    <glyph glyph-name="uni030B" unicode="&#x30b;" 
d="M-279 719q9 15 25 15l37 -1q12 0 15 -6.5t-5 -17.5l-72 -101q-10 -13 -25 -13h-16q-11 0 -15 6.5t1 16.5zM-131 719q9 15 25 15l37 -1q12 0 15 -6.5t-5 -17.5l-72 -101q-10 -13 -26 -13h-15q-26 0 -14 23z" />
    <glyph glyph-name="uni030C" unicode="&#x30c;" 
d="M-320 694l5 13q7 18 25 11l101 -36q16 -7 34 0l108 36q19 5 22 -11l3 -13q3 -17 -12 -24l-122 -53q-25 -11 -48 0l-109 53q-14 8 -7 24z" />
    <glyph glyph-name="uni0312" unicode="&#x312;" 
 />
    <glyph glyph-name="uni0326" unicode="&#x326;" 
d="M-142 -51q4 18 24 18h35q24 0 15 -22l-54 -140q-7 -17 -24 -17h-17q-22 0 -16 22z" />
    <glyph glyph-name="uni0327" unicode="&#x327;" 
d="M-347 -85q-11 0 -16 7t-1 18l23 63h55l-11 -32q-5 -14 8 -16q29 -5 47.5 -25t18.5 -50q0 -46 -35.5 -73t-89.5 -27q-47 0 -76 20q-14 9 -9 25l5 11q6 19 26 7q26 -13 55 -13q26 0 42 12.5t16 32.5q0 40 -48 40h-10z" />
    <glyph glyph-name="uni0328" unicode="&#x328;" 
d="M-263 -197q0 -15 -15 -18q-15 -5 -39 -5q-41 0 -67 23.5t-26 60.5q0 52 36.5 93t98.5 66l24 -22q-97 -53 -97 -130q0 -20 12.5 -31t32.5 -11q10 0 26 2q8 2 12.5 -2t3.5 -12z" />
    <glyph glyph-name="uni0335" unicode="&#x335;" 
d="M-326 417q2 20 23 20h291q19 0 17 -20l-2 -22q-2 -20 -22 -20h-291q-19 0 -17 20z" />
    <glyph glyph-name="uni0336" unicode="&#x336;" 
d="M-763 409q3 21 23 21h749q20 0 17 -21l-1 -12q-2 -20 -22 -20h-749q-20 0 -18 20z" />
    <glyph glyph-name="uni0337" unicode="&#x337;" 
d="M-40 475q22 9 30 -11l5 -13q8 -21 -14 -31l-268 -125q-24 -9 -30 13l-5 12q-8 22 16 32z" />
    <glyph glyph-name="uni0338" unicode="&#x338;" 
d="M-23 514q16 16 32 0l7 -8q16 -16 -3 -34l-519 -457q-19 -18 -34 0l-5 7q-15 17 3 34z" />
    <glyph glyph-name="Wgrave" unicode="&#x1e80;" horiz-adv-x="990" 
d="M476 888q6 19 25 13l173 -65q18 -8 11 -26l-2 -7q-8 -18 -26 -14l-179 43q-19 6 -12 25zM103 708q-3 22 19 22h41q18 0 21 -17l90 -560q1 -9 5 -12t9.5 0t8.5 11l230 559q7 19 29 19h42q18 0 23 -19l110 -563q1 -9 5.5 -12t9.5 0.5t8 12.5l204 563q7 18 24 18h35
q23 0 15 -22l-259 -689q-8 -19 -27 -19h-39q-20 0 -25 19l-107 566q-1 8 -5.5 11t-9.5 0t-8 -11l-236 -566q-8 -19 -29 -19h-38q-20 0 -23 19z" />
    <glyph glyph-name="wgrave" unicode="&#x1e81;" horiz-adv-x="808" 
d="M375 732q9 18 27 7l155 -99q16 -12 6 -28l-4 -6q-12 -16 -28 -9l-166 80q-18 9 -7 27zM82 498q-5 22 20 22h33q17 0 20 -17l67 -385q2 -12 9.5 -12t12.5 12l169 383q9 20 30 20h32q20 0 25 -20l86 -387q1 -7 5.5 -10t9 0t7.5 11l152 388q7 17 25 17h33q22 0 13 -22
l-197 -477q-9 -21 -30 -21h-35q-23 0 -26 21l-85 377q-1 7 -5 10t-8.5 0t-7.5 -10l-169 -377q-9 -21 -31 -21h-33q-22 0 -25 21z" />
    <glyph glyph-name="Wacute" unicode="&#x1e82;" horiz-adv-x="990" 
d="M692 887q20 8 23 -14l4 -28q3 -20 -18 -24l-191 -30q-21 -4 -24 14v6q-1 19 16 25zM103 708q-3 22 19 22h41q18 0 21 -17l90 -560q1 -9 5 -12t9.5 0t8.5 11l230 559q7 19 29 19h42q18 0 23 -19l110 -563q1 -9 5.5 -12t9.5 0.5t8 12.5l204 563q7 18 24 18h35q23 0 15 -22
l-259 -689q-8 -19 -27 -19h-39q-20 0 -25 19l-107 566q-1 8 -5.5 11t-9.5 0t-8 -11l-236 -566q-8 -19 -29 -19h-38q-20 0 -23 19z" />
    <glyph glyph-name="wacute" unicode="&#x1e83;" horiz-adv-x="808" 
d="M557 730q18 11 26 -8l11 -27q8 -19 -12 -27l-179 -75q-20 -9 -26 8l-2 6q-6 18 10 28zM82 498q-5 22 20 22h33q17 0 20 -17l67 -385q2 -12 9.5 -12t12.5 12l169 383q9 20 30 20h32q20 0 25 -20l86 -387q1 -7 5.5 -10t9 0t7.5 11l152 388q7 17 25 17h33q22 0 13 -22
l-197 -477q-9 -21 -30 -21h-35q-23 0 -26 21l-85 377q-1 7 -5 10t-8.5 0t-7.5 -10l-169 -377q-9 -21 -31 -21h-33q-22 0 -25 21z" />
    <glyph glyph-name="Wdieresis" unicode="&#x1e84;" horiz-adv-x="990" 
d="M488 796q-20 0 -33 13.5t-13 34.5q0 23 17 39.5t40 16.5q20 0 34 -13.5t14 -32.5q0 -24 -18 -41t-41 -17zM673 796q-20 0 -33.5 13.5t-13.5 35.5t17.5 38.5t40.5 16.5q20 0 34 -13.5t14 -32.5q0 -24 -17.5 -41t-41.5 -17zM103 708q-3 22 19 22h41q18 0 21 -17l90 -560
q1 -9 5 -12t9.5 0t8.5 11l230 559q7 19 29 19h42q18 0 23 -19l110 -563q1 -9 5.5 -12t9.5 0.5t8 12.5l204 563q7 18 24 18h35q23 0 15 -22l-259 -689q-8 -19 -27 -19h-39q-20 0 -25 19l-107 566q-1 8 -5.5 11t-9.5 0t-8 -11l-236 -566q-8 -19 -29 -19h-38q-20 0 -23 19z" />
    <glyph glyph-name="wdieresis" unicode="&#x1e85;" horiz-adv-x="808" 
d="M382 630q-19 0 -32 13.5t-13 33.5q0 22 16.5 38t38.5 16q20 0 33.5 -13t13.5 -32q0 -23 -17.5 -39.5t-39.5 -16.5zM560 630q-20 0 -32.5 13.5t-12.5 34.5q0 22 16.5 37.5t39.5 15.5q19 0 32.5 -13t13.5 -32q0 -23 -17 -39.5t-40 -16.5zM82 498q-5 22 20 22h33
q17 0 20 -17l67 -385q2 -12 9.5 -12t12.5 12l169 383q9 20 30 20h32q20 0 25 -20l86 -387q1 -7 5.5 -10t9 0t7.5 11l152 388q7 17 25 17h33q22 0 13 -22l-197 -477q-9 -21 -30 -21h-35q-23 0 -26 21l-85 377q-1 7 -5 10t-8.5 0t-7.5 -10l-169 -377q-9 -21 -31 -21h-33
q-22 0 -25 21z" />
    <glyph glyph-name="uni1E9E" unicode="&#x1e9e;" horiz-adv-x="776" 
d="M119 0q-20 0 -17 20l43 404q15 143 107 229.5t226 86.5q81 0 142.5 -31t95.5 -81q12 -19 -6 -43l-155 -195q91 1 149.5 -55t58.5 -135q0 -103 -69 -156.5t-183 -53.5q-83 0 -149.5 45.5t-82.5 115.5q-5 23 19 23h40q15 0 21 -16q13 -47 56.5 -73.5t102.5 -26.5
q77 0 121.5 39.5t44.5 98.5t-41.5 96t-104.5 37h-44q-14 0 -22.5 8.5t-7.5 20.5l1 7q3 19 14 34l145 188q13 16 1 28q-61 53 -155 53q-100 0 -167 -66.5t-78 -173.5l-44 -408q-3 -20 -23 -20h-39z" />
    <glyph glyph-name="Ygrave" unicode="&#x1ef2;" horiz-adv-x="637" 
d="M296 888q6 19 25 13l173 -65q18 -8 11 -26l-2 -7q-8 -18 -26 -14l-179 43q-19 6 -12 25zM98 706q-5 10 -0.5 17t16.5 7h46q16 0 22 -14l164 -346q10 -22 25 0l236 346q8 14 26 14h36q12 0 15 -7t-4 -17l-285 -416q-7 -12 -9 -24l-25 -243q-2 -23 -25 -23h-32
q-23 0 -21 23l25 243q2 12 -3 24z" />
    <glyph glyph-name="ygrave" unicode="&#x1ef3;" horiz-adv-x="553" 
d="M249 732q9 18 27 7l155 -99q16 -12 6 -28l-4 -6q-12 -16 -28 -9l-166 80q-18 9 -7 27zM80 497q-3 10 2 16.5t16 6.5h41q17 0 21 -16l117 -409q4 -12 11.5 -12.5t13.5 12.5l197 409q9 16 25 16h42q11 0 14 -6t-2 -17l-287 -555q-31 -59 -52 -88t-57.5 -47t-91.5 -18
q-38 0 -69 10q-18 4 -13 24l5 19q7 23 25 15q27 -8 62 -8q45 0 73.5 25.5t58.5 81.5l24 44h-8q-13 0 -18 14z" />
    <glyph glyph-name="uni1EF8" unicode="&#x1ef8;" horiz-adv-x="637" 
d="M563 890q22 -5 14 -24q-24 -67 -97 -67q-34 0 -73.5 23.5t-56.5 23.5q-30 0 -46 -23q-12 -15 -27 -12l-13 3q-22 5 -14 24q23 66 94 66q35 0 78 -23.5t56 -23.5q32 0 46 23q14 15 27 13zM98 706q-5 10 -0.5 17t16.5 7h46q16 0 22 -14l164 -346q10 -22 25 0l236 346
q8 14 26 14h36q12 0 15 -7t-4 -17l-285 -416q-7 -12 -9 -24l-25 -243q-2 -23 -25 -23h-32q-23 0 -21 23l25 243q2 12 -3 24z" />
    <glyph glyph-name="uni1EF9" unicode="&#x1ef9;" horiz-adv-x="553" 
d="M493 700q22 -5 14 -24q-24 -67 -97 -67q-34 0 -73.5 23.5t-56.5 23.5q-30 0 -46 -23q-12 -15 -27 -12l-13 3q-22 5 -14 24q23 66 94 66q35 0 78 -23.5t56 -23.5q32 0 46 23q14 15 27 13zM80 497q-3 10 2 16.5t16 6.5h41q17 0 21 -16l117 -409q4 -12 11.5 -12.5t13.5 12.5
l197 409q9 16 25 16h42q11 0 14 -6t-2 -17l-287 -555q-31 -59 -52 -88t-57.5 -47t-91.5 -18q-38 0 -69 10q-18 4 -13 24l5 19q7 23 25 15q27 -8 62 -8q45 0 73.5 25.5t58.5 81.5l24 44h-8q-13 0 -18 14z" />
    <glyph glyph-name="endash" unicode="&#x2013;" horiz-adv-x="617" 
d="M547 297q13 0 20 -7.5t5 -20.5l-1 -6q-3 -27 -30 -27h-416q-13 0 -19.5 7t-4.5 20l1 6q3 28 29 28h416z" />
    <glyph glyph-name="emdash" unicode="&#x2014;" horiz-adv-x="747" 
d="M677 297q28 0 25 -28l-1 -6q-5 -27 -31 -27h-545q-13 0 -19.5 7t-4.5 20l1 6q3 28 29 28h546z" />
    <glyph glyph-name="quoteleft" unicode="&#x2018;" horiz-adv-x="213" 
d="M194 545q-4 -18 -25 -18h-35q-23 0 -17 21l45 148q6 17 24 17h22q23 0 17 -21z" />
    <glyph glyph-name="quoteright" unicode="&#x2019;" horiz-adv-x="205" 
d="M154 722q6 19 26 19h33q22 0 16 -22l-45 -147q-6 -18 -25 -18h-20q-23 0 -18 21z" />
    <glyph glyph-name="quotesinglbase" unicode="&#x201a;" horiz-adv-x="212" 
d="M80 78q4 18 25 18h35q23 0 17 -21l-45 -148q-6 -17 -24 -17h-22q-23 0 -17 21z" />
    <glyph glyph-name="quotedblleft" unicode="&#x201c;" horiz-adv-x="366" 
d="M195 545q-5 -18 -25 -18h-35q-23 0 -17 21l45 148q6 17 24 17h22q23 0 17 -21zM347 545q-5 -18 -25 -18h-35q-23 0 -17 21l45 148q6 17 24 17h22q23 0 17 -21z" />
    <glyph glyph-name="quotedblright" unicode="&#x201d;" horiz-adv-x="358" 
d="M154 722q6 19 26 19h33q22 0 16 -22l-45 -147q-6 -18 -25 -18h-20q-23 0 -18 21zM306 722q6 19 26 19h33q23 0 17 -22l-46 -147q-6 -18 -25 -18h-19q-23 0 -18 21z" />
    <glyph glyph-name="quotedblbase" unicode="&#x201e;" horiz-adv-x="365" 
d="M80 78q4 18 25 18h35q23 0 17 -21l-45 -148q-6 -17 -24 -17h-22q-23 0 -17 21zM232 78q4 18 25 18h35q23 0 17 -21l-45 -148q-6 -17 -24 -17h-22q-23 0 -17 21z" />
    <glyph glyph-name="dagger" unicode="&#x2020;" horiz-adv-x="555" 
d="M91 477l3 25q2 20 22 20h160q22 0 25 22l21 216q1 20 22 20h32q20 0 17 -20l-24 -216q-3 -22 19 -22h161q21 0 19 -20l-3 -25q-3 -21 -22 -21h-162q-23 0 -24 -22l-54 -474q-3 -20 -22 -20h-19q-21 0 -18 20l46 474q3 22 -19 22h-162q-21 0 -18 21z" />
    <glyph glyph-name="daggerdbl" unicode="&#x2021;" horiz-adv-x="555" 
d="M73 312l3 23q2 20 22 20h162q22 0 25 22l9 88q2 22 -21 22h-161q-21 0 -18 20l2 23q3 20 23 20h161q22 0 24 23l18 187q1 20 22 20h32q20 0 17 -20l-21 -187q-2 -23 20 -23h161q20 0 17 -20l-2 -23q-3 -20 -22 -20h-162q-22 0 -25 -22l-9 -88q-2 -22 20 -22h162
q20 0 18 -20l-3 -23q-2 -21 -21 -21h-163q-22 0 -25 -22l-35 -309q-3 -20 -22 -20h-19q-21 0 -18 20l30 309q3 22 -20 22h-162q-21 0 -19 21z" />
    <glyph glyph-name="bullet" unicode="&#x2022;" horiz-adv-x="416" 
d="M226 173q-46 0 -77.5 33t-31.5 82q0 52 41 90.5t94 38.5q46 0 78 -32.5t32 -76.5q0 -55 -41 -95t-95 -40z" />
    <glyph glyph-name="ellipsis" unicode="&#x2026;" horiz-adv-x="686" 
d="M123 -10q-23 0 -38 16t-15 39q0 25 19.5 43.5t45.5 18.5q22 0 37.5 -15t15.5 -37q0 -26 -19.5 -45.5t-45.5 -19.5zM343 -10q-23 0 -38 16t-15 39q0 25 19.5 43.5t45.5 18.5q22 0 37.5 -15t15.5 -37q0 -26 -19.5 -45.5t-45.5 -19.5zM570 -10q-23 0 -38 16t-15 39
q0 25 19.5 43.5t45.5 18.5q22 0 37.5 -15t15.5 -37q0 -26 -19.5 -45.5t-45.5 -19.5z" />
    <glyph glyph-name="perthousand" unicode="&#x2030;" horiz-adv-x="1304" 
d="M92 527q0 98 52.5 155.5t136.5 57.5q65 0 106.5 -47.5t41.5 -119.5q0 -97 -52.5 -155.5t-135.5 -58.5q-64 0 -106.5 48.5t-42.5 119.5zM280 51l387 666q11 18 27 10l22 -9q18 -9 7 -26l-385 -669q-10 -18 -27 -9l-23 10q-18 7 -8 27zM153 530q0 -53 25 -83t68 -30
q54 0 87.5 40.5t33.5 110.5q0 53 -25 83.5t-68 30.5q-53 0 -87 -41.5t-34 -110.5zM564 158q0 98 53 155.5t135 57.5q66 0 107.5 -47.5t41.5 -120.5q0 -95 -52.5 -154t-136.5 -59q-63 0 -105.5 49t-42.5 119zM952 158q0 97 52.5 155t134.5 58q65 0 107 -48t42 -120
q0 -97 -52 -155t-137 -58q-63 0 -105 48.5t-42 119.5zM627 161q0 -53 24.5 -83t67.5 -30q53 0 86 41.5t33 111.5q0 52 -24.5 82t-66.5 30q-54 0 -87 -41.5t-33 -110.5zM1013 161q0 -53 25 -83t68 -30q53 0 86 41t33 111q0 53 -24.5 83t-67.5 30q-53 0 -86.5 -41t-33.5 -111z
" />
    <glyph glyph-name="guilsinglleft" unicode="&#x2039;" horiz-adv-x="317" 
d="M156 291q-23 -15 -3 -32l94 -82q13 -9 13 -33l-2 -24q-1 -17 -12 -21.5t-23 6.5l-135 121q-15 15 -12 33l4 34q2 21 18 33l160 116q15 11 24.5 6.5t7.5 -21.5l-2 -23q-3 -24 -20 -35z" />
    <glyph glyph-name="guilsinglright" unicode="&#x203a;" horiz-adv-x="317" 
d="M117 104q-13 -10 -23 -4.5t-9 19.5l3 29q3 21 19 33l110 79q10 7 11 15.5t-8 15.5l-91 76q-13 9 -13 32l2 27q1 18 11.5 22.5t22.5 -6.5l136 -122q14 -13 11 -34l-2 -25q-3 -20 -19 -32z" />
    <glyph glyph-name="fraction" unicode="&#x2044;" horiz-adv-x="340" 
d="M24 -10q-26 0 -16 25l340 703q8 15 25 15h20q12 0 16.5 -7t-0.5 -18l-340 -703q-7 -15 -24 -15h-21z" />
    <glyph glyph-name="Euro" unicode="&#x20ac;" horiz-adv-x="783" 
d="M65 257l2 10q4 18 24 18h48q11 0 13 12q0 3 1 11.5t1.5 15.5t1.5 11q1 13 -11 13h-30q-24 0 -16 22l3 9q6 19 24 19h33q12 0 15 11q38 112 125.5 175t213.5 63q88 0 161.5 -53t91.5 -132q5 -22 -18 -22h-37q-17 0 -21 16q-18 54 -67.5 88t-116.5 34q-85 0 -150 -44
t-98 -121q-7 -15 9 -15h271q22 0 16 -22l-3 -10q-5 -18 -24 -18h-277q-14 0 -15 -12q-4 -14 -4 -39q0 -12 13 -12h258q20 0 16 -21l-3 -11q-5 -18 -24 -18h-241q-16 0 -13 -15q15 -76 69.5 -118.5t138.5 -42.5q71 0 129 31.5t88 85.5q9 16 25 16h34q11 0 15 -6t0 -16
q-35 -78 -113.5 -129t-184.5 -51q-108 0 -187 63.5t-95 170.5q-3 11 -14 11h-62q-21 0 -15 22z" />
    <glyph glyph-name="trademark" unicode="&#x2122;" horiz-adv-x="774" 
d="M110 695l1 16q2 20 22 20h248q20 0 18 -20l-1 -16q-2 -20 -23 -20h-64q-27 0 -30 -25l-24 -225q-2 -20 -22 -20h-24q-20 0 -17 20l24 225q3 25 -25 25h-66q-19 0 -17 20zM398 425l30 286q3 20 22 20h14q16 0 23 -13l78 -139q12 -22 29 0l110 139q12 13 26 13h14
q20 0 18 -20l-30 -286q-3 -20 -22 -20h-16q-20 0 -18 20l21 193l-94 -113q-11 -12 -26 -12h-7q-16 0 -23 12l-71 116l-22 -196q-3 -20 -23 -20h-15q-21 0 -18 20z" />
    <glyph glyph-name="minus" unicode="&#x2212;" horiz-adv-x="552" 
d="M487 291q21 0 18 -20l-2 -23q-3 -20 -22 -20h-361q-21 0 -18 20l2 23q3 20 23 20h360z" />
    <glyph glyph-name="approxequal" unicode="&#x2248;" horiz-adv-x="554" 
d="M497 414q17 -5 11 -24q-13 -36 -44.5 -57t-74.5 -20q-40 1 -89.5 25t-72.5 24q-41 0 -62 -34q-12 -19 -30 -12l-18 4q-20 5 -14 23q11 38 40.5 60.5t69.5 21.5q36 -1 89 -26t80 -25q43 -1 65 33q14 17 32 12zM484 194q17 -5 11 -24q-13 -36 -44.5 -57t-74.5 -20
q-40 1 -89.5 25t-72.5 24q-41 0 -62 -34q-12 -19 -30 -12l-18 4q-20 5 -14 23q11 38 40.5 60.5t69.5 21.5q36 -1 89 -26t80 -25q43 -1 65 33q14 17 32 12z" />
    <glyph glyph-name="notequal" unicode="&#x2260;" horiz-adv-x="529" 
d="M93 155l2 23q3 20 23 20h104q17 0 23 16l30 78q8 21 -13 21h-132q-21 0 -19 20l3 22q3 20 22 20h155q16 0 22 16l32 83q7 17 24 17h21q23 0 15 -23l-28 -72q-8 -21 14 -21h80q21 0 18 -20l-2 -22q-3 -20 -22 -20h-103q-16 0 -22 -16l-31 -78q-7 -21 14 -21h130
q20 0 18 -20l-3 -23q-3 -20 -22 -20h-152q-16 0 -22 -15l-35 -90q-7 -17 -24 -17h-22q-23 0 -14 22l30 79q7 21 -14 21h-82q-21 0 -18 20z" />
    <glyph glyph-name="uniF8FF" unicode="&#xf8ff;" horiz-adv-x="1170" 
d="M300 573q0 22 -22 22h-58v102q0 11 -7 18t-18 7q-25 0 -25 -25v-146h108q22 0 22 22zM316 636q0 -38 26.5 -63t66.5 -25t66 25t26 63t-26 62t-66 24t-66.5 -24.5t-26.5 -61.5zM617 600q0 -9 -20 -9q-13 0 -26 6t-20 6q-22 0 -22 -20q0 -35 66 -35q32 0 51.5 14.5
t19.5 39.5q0 22 -13 35t-28 16t-28 7t-13 10q0 10 16 10q10 0 24 -5.5t21 -5.5q20 0 20 19q0 17 -17.5 25.5t-42.5 8.5q-34 0 -52 -14.5t-18 -39.5q0 -21 13 -33t28 -15t28 -7.5t13 -12.5zM449 636q0 -19 -11 -30.5t-29 -11.5t-30 12t-12 30t11.5 29.5t30.5 11.5
q18 0 29 -11.5t11 -29.5zM505 285h32v146q0 11 -7.5 18t-18.5 7t-18 -7t-7 -18v-63l-81 85h-32v-146q0 -11 7 -18.5t18 -7.5t18.5 7.5t7.5 18.5v63zM1038 334q0 -10 -20 -10q-13 0 -26 6.5t-19 6.5q-22 0 -22 -21q0 -16 18 -25.5t47 -9.5q33 0 52.5 14.5t19.5 39.5
q0 22 -13 35t-28 16t-28 7t-13 11q0 9 16 9q9 0 23.5 -5.5t21.5 -5.5q20 0 20 19q0 17 -17.5 26t-42.5 9q-71 0 -71 -54q0 -21 13 -33.5t28 -15.5t28 -7.5t13 -11.5zM312 281q14 0 20 11t0 25l-65 136h-40l-66 -136q-7 -14 0 -25t21 -11q19 0 25 15l5 13h70l5 -13
q6 -15 25 -15zM751 369q0 38 -25 61t-66 23h-75v-168h75q41 0 66 23t25 61zM912 369q0 9 -6 15t-16 6h-48v20h58q21 0 21 22q0 21 -21 21h-109v-168h109q21 0 21 20q0 21 -21 21h-58v23h48q22 0 22 20zM700 368q0 -18 -11 -29t-30 -11h-23v80h23q19 0 30 -11t11 -29z
M268 343h-42l21 51zM209 22q0 -11 7 -18t18 -7t18.5 7t7.5 18v104h35q10 0 17 6.5t7 15.5q0 10 -6.5 16t-17.5 6h-122q-22 0 -22 -22q0 -9 6 -15.5t16 -6.5h36v-104zM506 169h-57l-30 -59l-31 59h-58l62 -100v-47q0 -11 7.5 -18t18.5 -7t18 7t7 18v47zM606 42q32 0 50.5 18
t18.5 46q0 27 -18.5 45t-50.5 18h-74v-147q0 -11 8 -18t19 -7t17.5 7t6.5 18v20h23zM831 85q0 9 -6 15t-16 6h-48v20h58q22 0 22 22q0 21 -22 21h-109v-169h109q22 0 22 21q0 22 -22 22h-58v22h48q22 0 22 20zM602 84h-19v44h19q25 0 25 -22t-25 -22z" />
    <glyph glyph-name="uni00A40301" horiz-adv-x="675" 
d="M587 887q20 8 23 -14l4 -28q3 -20 -18 -24l-191 -30q-21 -4 -24 14v6q-1 19 16 25zM47 222q0 22 21 22h35q17 0 20 -18q8 -77 57.5 -120.5t135.5 -43.5q90 0 146.5 57.5t67.5 159.5l38 358q3 22 -20 22h-256q-21 0 -18 20l3 31q3 20 23 20h327q28 0 25 -28l-44 -423
q-15 -136 -89.5 -212.5t-210.5 -76.5q-110 0 -183 66t-78 166z" />
    <glyph glyph-name="A.ss01" horiz-adv-x="711" 
d="M37 0q-12 0 -15.5 7t3.5 17l357 593q7 11 3 24l-27 76q-8 23 18 23h35q16 0 23 -15l253 -702q8 -23 -17 -23h-40q-16 0 -22 15l-47 135q-4 11 -17 11h-344q-12 0 -20 -11l-80 -135q-9 -15 -25 -15h-38zM241 252q-5 -8 -2 -13t12 -5h261q9 0 13 5t1 13l-97 278
q-9 20 -21 0z" />
    <glyph glyph-name="Aacute.ss01" horiz-adv-x="711" 
d="M538 887q20 8 23 -14l4 -28q3 -20 -18 -24l-191 -30q-21 -4 -24 14v6q-1 19 16 25zM37 0q-12 0 -15.5 7t3.5 17l357 593q7 11 3 24l-27 76q-8 23 18 23h35q16 0 23 -15l253 -702q8 -23 -17 -23h-40q-16 0 -22 15l-47 135q-4 11 -17 11h-344q-12 0 -20 -11l-80 -135
q-9 -15 -25 -15h-38zM241 252q-5 -8 -2 -13t12 -5h261q9 0 13 5t1 13l-97 278q-9 20 -21 0z" />
    <glyph glyph-name="Abreve.ss01" horiz-adv-x="711" 
d="M330 906q15 0 21 -16q7 -24 32 -38t56 -14q30 0 58 14t41 38q10 16 26 16l22 -1q23 -2 15 -22q-41 -102 -168 -103q-53 -1 -96 27.5t-52 75.5q-3 20 20 22zM37 0q-12 0 -15.5 7t3.5 17l357 593q7 11 3 24l-27 76q-8 23 18 23h35q16 0 23 -15l253 -702q8 -23 -17 -23h-40
q-16 0 -22 15l-47 135q-4 11 -17 11h-344q-12 0 -20 -11l-80 -135q-9 -15 -25 -15h-38zM241 252q-5 -8 -2 -13t12 -5h261q9 0 13 5t1 13l-97 278q-9 20 -21 0z" />
    <glyph glyph-name="Acircumflex.ss01" horiz-adv-x="711" 
d="M278 827q-6 18 9 24l136 66q22 10 41 0l125 -66q13 -8 4 -24l-8 -14q-8 -14 -21 -8l-109 42q-18 7 -38 0l-114 -42q-16 -5 -20 8zM37 0q-12 0 -15.5 7t3.5 17l357 593q7 11 3 24l-27 76q-8 23 18 23h35q16 0 23 -15l253 -702q8 -23 -17 -23h-40q-16 0 -22 15l-47 135
q-4 11 -17 11h-344q-12 0 -20 -11l-80 -135q-9 -15 -25 -15h-38zM241 252q-5 -8 -2 -13t12 -5h261q9 0 13 5t1 13l-97 278q-9 20 -21 0z" />
    <glyph glyph-name="Adieresis.ss01" horiz-adv-x="711" 
d="M334 796q-20 0 -33 13.5t-13 34.5q0 23 17 39.5t40 16.5q20 0 34 -13.5t14 -32.5q0 -24 -18 -41t-41 -17zM519 796q-20 0 -33.5 13.5t-13.5 35.5t17.5 38.5t40.5 16.5q20 0 34 -13.5t14 -32.5q0 -24 -17.5 -41t-41.5 -17zM37 0q-12 0 -15.5 7t3.5 17l357 593q7 11 3 24
l-27 76q-8 23 18 23h35q16 0 23 -15l253 -702q8 -23 -17 -23h-40q-16 0 -22 15l-47 135q-4 11 -17 11h-344q-12 0 -20 -11l-80 -135q-9 -15 -25 -15h-38zM241 252q-5 -8 -2 -13t12 -5h261q9 0 13 5t1 13l-97 278q-9 20 -21 0z" />
    <glyph glyph-name="Agrave.ss01" horiz-adv-x="711" 
d="M322 888q6 19 25 13l173 -65q18 -8 11 -26l-2 -7q-8 -18 -26 -14l-179 43q-19 6 -12 25zM37 0q-12 0 -15.5 7t3.5 17l357 593q7 11 3 24l-27 76q-8 23 18 23h35q16 0 23 -15l253 -702q8 -23 -17 -23h-40q-16 0 -22 15l-47 135q-4 11 -17 11h-344q-12 0 -20 -11l-80 -135
q-9 -15 -25 -15h-38zM241 252q-5 -8 -2 -13t12 -5h261q9 0 13 5t1 13l-97 278q-9 20 -21 0z" />
    <glyph glyph-name="Amacron.ss01" horiz-adv-x="711" 
d="M297 862q3 20 22 20h243q21 0 19 -20l-3 -21q-3 -20 -22 -20h-244q-20 0 -17 20zM37 0q-12 0 -15.5 7t3.5 17l357 593q7 11 3 24l-27 76q-8 23 18 23h35q16 0 23 -15l253 -702q8 -23 -17 -23h-40q-16 0 -22 15l-47 135q-4 11 -17 11h-344q-12 0 -20 -11l-80 -135
q-9 -15 -25 -15h-38zM241 252q-5 -8 -2 -13t12 -5h261q9 0 13 5t1 13l-97 278q-9 20 -21 0z" />
    <glyph glyph-name="Aogonek.ss01" horiz-adv-x="711" 
d="M687 23q6 -14 -6 -21q-97 -53 -97 -130q0 -20 12.5 -31t32.5 -11q10 0 26 2q8 2 12.5 -2t3.5 -12l-2 -14q0 -15 -15 -18q-15 -5 -39 -5q-41 0 -67 23.5t-26 60.5q0 85 94 139q-5 4 -8 11l-47 135q-4 11 -17 11h-344q-12 0 -20 -11l-80 -135q-9 -15 -25 -15h-38
q-12 0 -15.5 7t3.5 17l357 593q7 11 3 24l-27 76q-8 23 18 23h35q16 0 23 -15zM512 234q9 0 13 5t1 13l-97 278q-9 20 -21 0l-167 -278q-5 -8 -2 -13t12 -5h261z" />
    <glyph glyph-name="Aring.ss01" horiz-adv-x="711" 
d="M427 769q-41 0 -70 27t-29 66q0 46 33.5 78t87.5 32q42 0 71 -26.5t29 -65.5q0 -47 -33.5 -79t-88.5 -32zM433 819q25 0 42 17t17 40q0 20 -13.5 34t-34.5 14q-24 0 -41 -17.5t-17 -40.5q0 -20 13 -33.5t34 -13.5zM37 0q-12 0 -15.5 7t3.5 17l357 593q7 11 3 24l-27 76
q-8 23 18 23h35q16 0 23 -15l253 -702q8 -23 -17 -23h-40q-16 0 -22 15l-47 135q-4 11 -17 11h-344q-12 0 -20 -11l-80 -135q-9 -15 -25 -15h-38zM241 252q-5 -8 -2 -13t12 -5h261q9 0 13 5t1 13l-97 278q-9 20 -21 0z" />
    <glyph glyph-name="Atilde.ss01" horiz-adv-x="711" 
d="M589 890q22 -5 14 -24q-24 -67 -97 -67q-34 0 -73.5 23.5t-56.5 23.5q-30 0 -46 -23q-12 -15 -27 -12l-13 3q-22 5 -14 24q23 66 94 66q35 0 78 -23.5t56 -23.5q32 0 46 23q14 15 27 13zM37 0q-12 0 -15.5 7t3.5 17l357 593q7 11 3 24l-27 76q-8 23 18 23h35q16 0 23 -15
l253 -702q8 -23 -17 -23h-40q-16 0 -22 15l-47 135q-4 11 -17 11h-344q-12 0 -20 -11l-80 -135q-9 -15 -25 -15h-38zM241 252q-5 -8 -2 -13t12 -5h261q9 0 13 5t1 13l-97 278q-9 20 -21 0z" />
    <glyph glyph-name="E.ss01" horiz-adv-x="576" 
d="M129 0q-23 0 -21 23l73 684q2 23 25 23h347q20 0 17 -20l-3 -28q-2 -20 -21 -20h-272q-21 0 -23 -21l-24 -223q-3 -21 19 -21h294q21 0 18 -20l-3 -28q-3 -20 -22 -20h-294q-21 0 -23 -21l-23 -219q-3 -21 18 -21h286q21 0 18 -20l-3 -28q-2 -20 -22 -20h-361z" />
    <glyph glyph-name="Eacute.ss01" horiz-adv-x="576" 
d="M491 887q20 8 23 -14l4 -28q3 -20 -18 -24l-191 -30q-21 -4 -24 14v6q-1 19 16 25zM129 0q-23 0 -21 23l73 684q2 23 25 23h347q20 0 17 -20l-3 -28q-2 -20 -21 -20h-272q-21 0 -23 -21l-24 -223q-3 -21 19 -21h294q21 0 18 -20l-3 -28q-3 -20 -22 -20h-294
q-21 0 -23 -21l-23 -219q-3 -21 18 -21h286q21 0 18 -20l-3 -28q-2 -20 -22 -20h-361z" />
    <glyph glyph-name="Ecaron.ss01" horiz-adv-x="576" 
d="M244 883l5 14q7 18 25 11l102 -37q16 -7 35 0l109 37q19 5 22 -11l3 -14q3 -17 -12 -24l-123 -53q-26 -11 -49 0l-110 53q-14 8 -7 24zM129 0q-23 0 -21 23l73 684q2 23 25 23h347q20 0 17 -20l-3 -28q-2 -20 -21 -20h-272q-21 0 -23 -21l-24 -223q-3 -21 19 -21h294
q21 0 18 -20l-3 -28q-3 -20 -22 -20h-294q-21 0 -23 -21l-23 -219q-3 -21 18 -21h286q21 0 18 -20l-3 -28q-2 -20 -22 -20h-361z" />
    <glyph glyph-name="Ecircumflex.ss01" horiz-adv-x="576" 
d="M231 827q-6 18 9 24l136 66q22 10 41 0l125 -66q13 -8 4 -24l-8 -14q-8 -14 -21 -8l-109 42q-18 7 -38 0l-114 -42q-16 -5 -20 8zM129 0q-23 0 -21 23l73 684q2 23 25 23h347q20 0 17 -20l-3 -28q-2 -20 -21 -20h-272q-21 0 -23 -21l-24 -223q-3 -21 19 -21h294
q21 0 18 -20l-3 -28q-3 -20 -22 -20h-294q-21 0 -23 -21l-23 -219q-3 -21 18 -21h286q21 0 18 -20l-3 -28q-2 -20 -22 -20h-361z" />
    <glyph glyph-name="Edieresis.ss01" horiz-adv-x="576" 
d="M287 796q-20 0 -33 13.5t-13 34.5q0 23 17 39.5t40 16.5q20 0 34 -13.5t14 -32.5q0 -24 -18 -41t-41 -17zM472 796q-20 0 -33.5 13.5t-13.5 35.5t17.5 38.5t40.5 16.5q20 0 34 -13.5t14 -32.5q0 -24 -17.5 -41t-41.5 -17zM129 0q-23 0 -21 23l73 684q2 23 25 23h347
q20 0 17 -20l-3 -28q-2 -20 -21 -20h-272q-21 0 -23 -21l-24 -223q-3 -21 19 -21h294q21 0 18 -20l-3 -28q-3 -20 -22 -20h-294q-21 0 -23 -21l-23 -219q-3 -21 18 -21h286q21 0 18 -20l-3 -28q-2 -20 -22 -20h-361z" />
    <glyph glyph-name="Edotaccent.ss01" horiz-adv-x="576" 
d="M380 788q-22 0 -37 15.5t-15 38.5q0 25 19 42.5t45 17.5q22 0 36.5 -15t14.5 -36q0 -26 -19 -44.5t-44 -18.5zM129 0q-23 0 -21 23l73 684q2 23 25 23h347q20 0 17 -20l-3 -28q-2 -20 -21 -20h-272q-21 0 -23 -21l-24 -223q-3 -21 19 -21h294q21 0 18 -20l-3 -28
q-3 -20 -22 -20h-294q-21 0 -23 -21l-23 -219q-3 -21 18 -21h286q21 0 18 -20l-3 -28q-2 -20 -22 -20h-361z" />
    <glyph glyph-name="Egrave.ss01" horiz-adv-x="576" 
d="M275 888q6 19 25 13l173 -65q18 -8 11 -26l-2 -7q-8 -18 -26 -14l-179 43q-19 6 -12 25zM129 0q-23 0 -21 23l73 684q2 23 25 23h347q20 0 17 -20l-3 -28q-2 -20 -21 -20h-272q-21 0 -23 -21l-24 -223q-3 -21 19 -21h294q21 0 18 -20l-3 -28q-3 -20 -22 -20h-294
q-21 0 -23 -21l-23 -219q-3 -21 18 -21h286q21 0 18 -20l-3 -28q-2 -20 -22 -20h-361z" />
    <glyph glyph-name="Emacron.ss01" horiz-adv-x="576" 
d="M250 862q3 20 22 20h243q21 0 19 -20l-3 -21q-3 -20 -22 -20h-244q-20 0 -17 20zM129 0q-23 0 -21 23l73 684q2 23 25 23h347q20 0 17 -20l-3 -28q-2 -20 -21 -20h-272q-21 0 -23 -21l-24 -223q-3 -21 19 -21h294q21 0 18 -20l-3 -28q-3 -20 -22 -20h-294q-21 0 -23 -21
l-23 -219q-3 -21 18 -21h286q21 0 18 -20l-3 -28q-2 -20 -22 -20h-361z" />
    <glyph glyph-name="Eogonek.ss01" horiz-adv-x="576" 
d="M553 730q20 0 17 -20l-3 -28q-2 -20 -21 -20h-272q-21 0 -23 -21l-24 -223q-3 -21 19 -21h294q21 0 18 -20l-3 -28q-3 -20 -22 -20h-294q-21 0 -23 -21l-23 -219q-3 -21 18 -21h286q21 0 18 -20l-3 -28q-1 -13 -11 -18q-97 -53 -97 -130q0 -20 12.5 -31t32.5 -11
q10 0 26 2q8 2 12.5 -2t3.5 -12l-2 -14q0 -15 -15 -18q-15 -5 -39 -5q-41 0 -67 23.5t-26 60.5q0 81 87 135h-300q-23 0 -21 23l73 684q2 23 25 23h347z" />
    <glyph glyph-name="G.ss01" horiz-adv-x="852" 
d="M827 333q21 0 18 -20l-3 -27q-3 -20 -22 -20h-27q-34 -136 -132.5 -206t-232.5 -70q-140 0 -239.5 96t-99.5 245q-1 177 119.5 293t296.5 116q126 0 215 -76t94 -186q2 -22 -20 -22h-36q-17 0 -20 19q-9 88 -73 140.5t-168 52.5q-130 0 -229 -93.5t-99 -238.5
q0 -122 77 -198t190 -76q214 0 286 204h-218q-21 0 -18 20l3 27q3 20 22 20h316z" />
    <glyph glyph-name="Gbreve.ss01" horiz-adv-x="852" 
d="M512 780q-53 -1 -96 27.5t-52 75.5q-3 20 20 22l25 1q15 0 21 -16q7 -24 32 -38t56 -14q30 0 58 14t41 38q10 16 26 16l22 -1q23 -2 15 -22q-41 -102 -168 -103zM827 333q21 0 18 -20l-3 -27q-3 -20 -22 -20h-27q-34 -136 -132.5 -206t-232.5 -70q-140 0 -239.5 96
t-99.5 245q-1 177 119.5 293t296.5 116q126 0 215 -76t94 -186q2 -22 -20 -22h-36q-17 0 -20 19q-9 88 -73 140.5t-168 52.5q-130 0 -229 -93.5t-99 -238.5q0 -122 77 -198t190 -76q214 0 286 204h-218q-21 0 -18 20l3 27q3 20 22 20h316z" />
    <glyph glyph-name="Gcommaaccent.ss01" horiz-adv-x="852" 
d="M827 333q21 0 18 -20l-3 -27q-3 -20 -22 -20h-27q-34 -136 -132.5 -206t-232.5 -70q-140 0 -239.5 96t-99.5 245q-1 177 119.5 293t296.5 116q126 0 215 -76t94 -186q2 -22 -20 -22h-36q-17 0 -20 19q-9 88 -73 140.5t-168 52.5q-130 0 -229 -93.5t-99 -238.5
q0 -122 77 -198t190 -76q214 0 286 204h-218q-21 0 -18 20l3 27q3 20 22 20h316zM445 -33q24 0 15 -22l-54 -140q-7 -17 -24 -17h-17q-22 0 -16 22l37 139q4 18 24 18h35z" />
    <glyph glyph-name="Gdotaccent.ss01" horiz-adv-x="852" 
d="M493 788q-22 0 -37 15.5t-15 38.5q0 25 19 42.5t45 17.5q22 0 36.5 -15t14.5 -36q0 -26 -19 -44.5t-44 -18.5zM827 333q21 0 18 -20l-3 -27q-3 -20 -22 -20h-27q-34 -136 -132.5 -206t-232.5 -70q-140 0 -239.5 96t-99.5 245q-1 177 119.5 293t296.5 116q126 0 215 -76
t94 -186q2 -22 -20 -22h-36q-17 0 -20 19q-9 88 -73 140.5t-168 52.5q-130 0 -229 -93.5t-99 -238.5q0 -122 77 -198t190 -76q214 0 286 204h-218q-21 0 -18 20l3 27q3 20 22 20h316z" />
    <glyph glyph-name="I.ss01" horiz-adv-x="382" 
d="M62 0q-20 0 -18 20l2 27q3 20 23 20h76q14 0 16 14l59 567q2 15 -12 15h-76q-21 0 -19 20l3 27q3 20 23 20h258q20 0 18 -20l-4 -27q-2 -20 -21 -20h-76q-14 0 -16 -15l-59 -567q-2 -14 12 -14h76q20 0 17 -20l-2 -27q-2 -20 -22 -20h-258z" />
    <glyph glyph-name="Iacute.ss01" horiz-adv-x="382" 
d="M383 887q20 8 23 -14l4 -28q3 -20 -18 -24l-191 -30q-21 -4 -24 14v6q-1 19 16 25zM62 0q-20 0 -18 20l2 27q3 20 23 20h76q14 0 16 14l59 567q2 15 -12 15h-76q-21 0 -19 20l3 27q3 20 23 20h258q20 0 18 -20l-4 -27q-2 -20 -21 -20h-76q-14 0 -16 -15l-59 -567
q-2 -14 12 -14h76q20 0 17 -20l-2 -27q-2 -20 -22 -20h-258z" />
    <glyph glyph-name="Icircumflex.ss01" horiz-adv-x="382" 
d="M123 827q-6 18 9 24l136 66q22 10 41 0l125 -66q13 -8 4 -24l-8 -14q-8 -14 -21 -8l-109 42q-18 7 -38 0l-114 -42q-16 -5 -20 8zM62 0q-20 0 -18 20l2 27q3 20 23 20h76q14 0 16 14l59 567q2 15 -12 15h-76q-21 0 -19 20l3 27q3 20 23 20h258q20 0 18 -20l-4 -27
q-2 -20 -21 -20h-76q-14 0 -16 -15l-59 -567q-2 -14 12 -14h76q20 0 17 -20l-2 -27q-2 -20 -22 -20h-258z" />
    <glyph glyph-name="Idieresis.ss01" horiz-adv-x="382" 
d="M179 796q-20 0 -33 13.5t-13 34.5q0 23 17 39.5t40 16.5q20 0 34 -13.5t14 -32.5q0 -24 -18 -41t-41 -17zM364 796q-20 0 -33.5 13.5t-13.5 35.5t17.5 38.5t40.5 16.5q20 0 34 -13.5t14 -32.5q0 -24 -17.5 -41t-41.5 -17zM62 0q-20 0 -18 20l2 27q3 20 23 20h76
q14 0 16 14l59 567q2 15 -12 15h-76q-21 0 -19 20l3 27q3 20 23 20h258q20 0 18 -20l-4 -27q-2 -20 -21 -20h-76q-14 0 -16 -15l-59 -567q-2 -14 12 -14h76q20 0 17 -20l-2 -27q-2 -20 -22 -20h-258z" />
    <glyph glyph-name="Idotaccent.ss01" horiz-adv-x="382" 
d="M276 788q-22 0 -37 15.5t-15 38.5q0 25 19 42.5t45 17.5q22 0 36.5 -15t14.5 -36q0 -26 -19 -44.5t-44 -18.5zM62 0q-20 0 -18 20l2 27q3 20 23 20h76q14 0 16 14l59 567q2 15 -12 15h-76q-21 0 -19 20l3 27q3 20 23 20h258q20 0 18 -20l-4 -27q-2 -20 -21 -20h-76
q-14 0 -16 -15l-59 -567q-2 -14 12 -14h76q20 0 17 -20l-2 -27q-2 -20 -22 -20h-258z" />
    <glyph glyph-name="Igrave.ss01" horiz-adv-x="382" 
d="M167 888q6 19 25 13l173 -65q18 -8 11 -26l-2 -7q-8 -18 -26 -14l-179 43q-19 6 -12 25zM62 0q-20 0 -18 20l2 27q3 20 23 20h76q14 0 16 14l59 567q2 15 -12 15h-76q-21 0 -19 20l3 27q3 20 23 20h258q20 0 18 -20l-4 -27q-2 -20 -21 -20h-76q-14 0 -16 -15l-59 -567
q-2 -14 12 -14h76q20 0 17 -20l-2 -27q-2 -20 -22 -20h-258z" />
    <glyph glyph-name="Imacron.ss01" horiz-adv-x="382" 
d="M142 862q3 20 22 20h243q21 0 19 -20l-3 -21q-3 -20 -22 -20h-244q-20 0 -17 20zM62 0q-20 0 -18 20l2 27q3 20 23 20h76q14 0 16 14l59 567q2 15 -12 15h-76q-21 0 -19 20l3 27q3 20 23 20h258q20 0 18 -20l-4 -27q-2 -20 -21 -20h-76q-14 0 -16 -15l-59 -567
q-2 -14 12 -14h76q20 0 17 -20l-2 -27q-2 -20 -22 -20h-258z" />
    <glyph glyph-name="Iogonek.ss01" horiz-adv-x="382" 
d="M397 730q20 0 18 -20l-4 -27q-2 -20 -21 -20h-76q-14 0 -16 -15l-59 -567q-2 -14 12 -14h76q20 0 17 -20l-2 -27q-2 -20 -22 -20h-90q-97 -53 -97 -130q0 -20 12.5 -31t32.5 -11q10 0 26 2q8 2 12.5 -2t3.5 -12l-2 -14q0 -15 -15 -18q-15 -5 -39 -5q-41 0 -67 23.5
t-26 60.5q0 83 90 137h-99q-20 0 -18 20l2 27q3 20 23 20h76q14 0 16 14l59 567q2 15 -12 15h-76q-21 0 -19 20l3 27q3 20 23 20h258z" />
    <glyph glyph-name="Itilde.ss01" horiz-adv-x="382" 
d="M434 890q22 -5 14 -24q-24 -67 -97 -67q-34 0 -73.5 23.5t-56.5 23.5q-30 0 -46 -23q-12 -15 -27 -12l-13 3q-22 5 -14 24q23 66 94 66q35 0 78 -23.5t56 -23.5q32 0 46 23q14 15 27 13zM62 0q-20 0 -18 20l2 27q3 20 23 20h76q14 0 16 14l59 567q2 15 -12 15h-76
q-21 0 -19 20l3 27q3 20 23 20h258q20 0 18 -20l-4 -27q-2 -20 -21 -20h-76q-14 0 -16 -15l-59 -567q-2 -14 12 -14h76q20 0 17 -20l-2 -27q-2 -20 -22 -20h-258z" />
    <glyph glyph-name="J.ss01" horiz-adv-x="490" 
d="M453 730q19 0 18 -20l-46 -422q-34 -324 -390 -324q-21 0 -18 20l3 31q3 20 22 21q281 7 306 252l45 422q3 20 23 20h37z" />
    <glyph glyph-name="uni00A40301.ss01" horiz-adv-x="490" 
d="M542 887q20 8 23 -14l4 -28q3 -20 -18 -24l-191 -30q-21 -4 -24 14v6q-1 19 16 25zM453 730q19 0 18 -20l-46 -422q-34 -324 -390 -324q-21 0 -18 20l3 31q3 20 22 21q281 7 306 252l45 422q3 20 23 20h37z" />
    <glyph glyph-name="K.ss01" horiz-adv-x="678" 
d="M108 20l73 690q2 20 22 20h38q20 0 18 -20l-73 -690q-2 -20 -22 -20h-38q-20 0 -18 20zM279 339q-7 9 -5 23v9q2 13 11 22l315 326q10 11 26 11h47q13 0 15 -7.5t-7 -17.5l-317 -329q-10 -10 -2 -19l207 -277q9 -14 27 -14h71q21 0 18 -20l-2 -25q-3 -20 -23 -20l-114 -1
q-17 0 -27 13z" />
    <glyph glyph-name="Kcommaaccent.ss01" horiz-adv-x="678" 
d="M108 20l73 690q2 20 22 20h38q20 0 18 -20l-73 -690q-2 -20 -22 -20h-38q-20 0 -18 20zM279 339q-7 9 -5 23v9q2 13 11 22l315 326q10 11 26 11h47q13 0 15 -7.5t-7 -17.5l-317 -329q-10 -10 -2 -19l207 -277q9 -14 27 -14h71q21 0 18 -20l-2 -25q-3 -20 -23 -20l-114 -1
q-17 0 -27 13zM301 -51q5 18 24 18h35q24 0 15 -22l-54 -140q-7 -17 -24 -17h-17q-22 0 -16 22z" />
    <glyph glyph-name="N.ss01" horiz-adv-x="821" 
d="M126 0q-20 0 -18 20l72 687q3 23 26 23h22q15 0 27 -12l389 -471q9 -10 17 -6.5t10 17.5l47 452q2 20 22 20h32q20 0 18 -20l-72 -690q-3 -20 -23 -20h-32q-20 0 -17 20l9 94q1 15 -8 26l-381 449q-8 10 -17 7t-10 -17l-58 -559q-3 -20 -23 -20h-32z" />
    <glyph glyph-name="Nacute.ss01" horiz-adv-x="821" 
d="M610 887q20 8 23 -14l4 -28q3 -20 -18 -24l-191 -30q-21 -4 -24 14v6q-1 19 16 25zM126 0q-20 0 -18 20l72 687q3 23 26 23h22q15 0 27 -12l389 -471q9 -10 17 -6.5t10 17.5l47 452q2 20 22 20h32q20 0 18 -20l-72 -690q-3 -20 -23 -20h-32q-20 0 -17 20l9 94q1 15 -8 26
l-381 449q-8 10 -17 7t-10 -17l-58 -559q-3 -20 -23 -20h-32z" />
    <glyph glyph-name="Ncaron.ss01" horiz-adv-x="821" 
d="M362 883l5 14q7 18 25 11l102 -37q16 -7 35 0l109 37q19 5 22 -11l3 -14q3 -17 -12 -24l-123 -53q-26 -11 -49 0l-110 53q-14 8 -7 24zM126 0q-20 0 -18 20l72 687q3 23 26 23h22q15 0 27 -12l389 -471q9 -10 17 -6.5t10 17.5l47 452q2 20 22 20h32q20 0 18 -20l-72 -690
q-3 -20 -23 -20h-32q-20 0 -17 20l9 94q1 15 -8 26l-381 449q-8 10 -17 7t-10 -17l-58 -559q-3 -20 -23 -20h-32z" />
    <glyph glyph-name="Ncommaaccent.ss01" horiz-adv-x="821" 
d="M126 0q-20 0 -18 20l72 687q3 23 26 23h22q15 0 27 -12l389 -471q9 -10 17 -6.5t10 17.5l47 452q2 20 22 20h32q20 0 18 -20l-72 -690q-3 -20 -23 -20h-32q-20 0 -17 20l9 94q1 15 -8 26l-381 449q-8 10 -17 7t-10 -17l-58 -559q-3 -20 -23 -20h-32zM381 -51q5 18 24 18
h35q24 0 15 -22l-54 -140q-7 -17 -24 -17h-17q-22 0 -16 22z" />
    <glyph glyph-name="Ntilde.ss01" horiz-adv-x="821" 
d="M660 890q22 -5 14 -24q-24 -67 -97 -67q-34 0 -73.5 23.5t-56.5 23.5q-30 0 -46 -23q-12 -15 -27 -12l-13 3q-22 5 -14 24q23 66 94 66q35 0 78 -23.5t56 -23.5q32 0 46 23q14 15 27 13zM126 0q-20 0 -18 20l72 687q3 23 26 23h22q15 0 27 -12l389 -471q9 -10 17 -6.5
t10 17.5l47 452q2 20 22 20h32q20 0 18 -20l-72 -690q-3 -20 -23 -20h-32q-20 0 -17 20l9 94q1 15 -8 26l-381 449q-8 10 -17 7t-10 -17l-58 -559q-3 -20 -23 -20h-32z" />
    <glyph glyph-name="Q.ss01" horiz-adv-x="872" 
d="M89 330q0 182 122 296t302 114q143 0 245 -98t102 -240q0 -161 -95 -267t-243 -135q-11 -2 -13.5 -8.5t5.5 -14.5l35 -33q65 -60 132 -60q40 0 67 8q26 6 26 -17l1 -16q0 -24 -20 -28q-36 -10 -85 -10q-39 0 -89.5 21.5t-89.5 60.5l-82 80q-9 9 -20 9
q-125 14 -212.5 113.5t-87.5 224.5zM169 336q0 -123 78 -200t195 -77q137 0 237.5 95t100.5 242q0 123 -78 199t-196 76q-136 0 -236.5 -94.5t-100.5 -240.5z" />
    <glyph glyph-name="R.ss01" horiz-adv-x="622" 
d="M108 20l72 685q3 25 28 25h134q119 0 195.5 -62.5t76.5 -155.5q0 -103 -72 -169t-191 -77l-26 -2q-10 -1 -13 -6.5t4 -12.5l157 -169q13 -11 27 -11l67 1q20 0 18 -20l-3 -26q-3 -20 -22 -20h-106q-16 0 -26 11l-199 231q-7 7 -13 4.5t-7 -13.5l-23 -213q-2 -20 -22 -20
h-38q-20 0 -18 20zM221 348q-3 -21 18 -21h61q104 0 169.5 49.5t65.5 129.5q0 71 -54.5 115t-146.5 44h-60q-20 0 -23 -21z" />
    <glyph glyph-name="Racute.ss01" horiz-adv-x="622" 
d="M488 887q20 8 23 -14l4 -28q3 -20 -18 -24l-191 -30q-21 -4 -24 14v6q-1 19 16 25zM108 20l72 685q3 25 28 25h134q119 0 195.5 -62.5t76.5 -155.5q0 -103 -72 -169t-191 -77l-26 -2q-10 -1 -13 -6.5t4 -12.5l157 -169q13 -11 27 -11l67 1q20 0 18 -20l-3 -26
q-3 -20 -22 -20h-106q-16 0 -26 11l-199 231q-7 7 -13 4.5t-7 -13.5l-23 -213q-2 -20 -22 -20h-38q-20 0 -18 20zM221 348q-3 -21 18 -21h61q104 0 169.5 49.5t65.5 129.5q0 71 -54.5 115t-146.5 44h-60q-20 0 -23 -21z" />
    <glyph glyph-name="Rcaron.ss01" horiz-adv-x="622" 
d="M240 883l5 14q7 18 25 11l102 -37q16 -7 35 0l109 37q19 5 22 -11l3 -14q3 -17 -12 -24l-123 -53q-26 -11 -49 0l-110 53q-14 8 -7 24zM108 20l72 685q3 25 28 25h134q119 0 195.5 -62.5t76.5 -155.5q0 -103 -72 -169t-191 -77l-26 -2q-10 -1 -13 -6.5t4 -12.5l157 -169
q13 -11 27 -11l67 1q20 0 18 -20l-3 -26q-3 -20 -22 -20h-106q-16 0 -26 11l-199 231q-7 7 -13 4.5t-7 -13.5l-23 -213q-2 -20 -22 -20h-38q-20 0 -18 20zM221 348q-3 -21 18 -21h61q104 0 169.5 49.5t65.5 129.5q0 71 -54.5 115t-146.5 44h-60q-20 0 -23 -21z" />
    <glyph glyph-name="Rcommaaccent.ss01" horiz-adv-x="622" 
d="M108 20l72 685q3 25 28 25h134q119 0 195.5 -62.5t76.5 -155.5q0 -103 -72 -169t-191 -77l-26 -2q-10 -1 -13 -6.5t4 -12.5l157 -169q13 -11 27 -11l67 1q20 0 18 -20l-3 -26q-3 -20 -22 -20h-106q-16 0 -26 11l-199 231q-7 7 -13 4.5t-7 -13.5l-23 -213q-2 -20 -22 -20
h-38q-20 0 -18 20zM221 348q-3 -21 18 -21h61q104 0 169.5 49.5t65.5 129.5q0 71 -54.5 115t-146.5 44h-60q-20 0 -23 -21zM287 -51q5 18 24 18h35q24 0 15 -22l-54 -140q-7 -17 -24 -17h-17q-22 0 -16 22z" />
    <glyph glyph-name="W.ss01" horiz-adv-x="996" 
d="M105 708q-3 22 20 22h40q17 0 20 -17l100 -573q1 -8 5 -10.5t8.5 0t7.5 9.5l223 434q5 9 1 22l-30 112q-2 10 3 16.5t15 6.5h38q17 0 20 -16l152 -577q2 -7 6 -9.5t8.5 0.5t6.5 10l217 575q7 17 25 17h34q23 0 14 -22l-264 -687q-8 -21 -30 -21h-28q-23 0 -27 20
l-121 436q-2 11 -9 11.5t-13 -10.5l-224 -438q-9 -19 -30 -19h-29q-23 0 -26 21z" />
    <glyph glyph-name="Wacute.ss01" horiz-adv-x="996" 
d="M695 887q20 8 23 -14l4 -28q3 -20 -18 -24l-191 -30q-21 -4 -24 14v6q-1 19 16 25zM105 708q-3 22 20 22h40q17 0 20 -17l100 -573q1 -8 5 -10.5t8.5 0t7.5 9.5l223 434q5 9 1 22l-30 112q-2 10 3 16.5t15 6.5h38q17 0 20 -16l152 -577q2 -7 6 -9.5t8.5 0.5t6.5 10
l217 575q7 17 25 17h34q23 0 14 -22l-264 -687q-8 -21 -30 -21h-28q-23 0 -27 20l-121 436q-2 11 -9 11.5t-13 -10.5l-224 -438q-9 -19 -30 -19h-29q-23 0 -26 21z" />
    <glyph glyph-name="Wcircumflex.ss01" horiz-adv-x="996" 
d="M434 827q-6 18 9 24l136 66q22 10 41 0l125 -66q13 -8 4 -24l-8 -14q-8 -14 -21 -8l-109 42q-18 7 -38 0l-114 -42q-16 -5 -20 8zM105 708q-3 22 20 22h40q17 0 20 -17l100 -573q1 -8 5 -10.5t8.5 0t7.5 9.5l223 434q5 9 1 22l-30 112q-2 10 3 16.5t15 6.5h38
q17 0 20 -16l152 -577q2 -7 6 -9.5t8.5 0.5t6.5 10l217 575q7 17 25 17h34q23 0 14 -22l-264 -687q-8 -21 -30 -21h-28q-23 0 -27 20l-121 436q-2 11 -9 11.5t-13 -10.5l-224 -438q-9 -19 -30 -19h-29q-23 0 -26 21z" />
    <glyph glyph-name="Wdieresis.ss01" horiz-adv-x="996" 
d="M490 796q-20 0 -33 13.5t-13 34.5q0 23 17 39.5t40 16.5q20 0 34 -13.5t14 -32.5q0 -24 -18 -41t-41 -17zM675 796q-20 0 -33.5 13.5t-13.5 35.5t17.5 38.5t40.5 16.5q20 0 34 -13.5t14 -32.5q0 -24 -17.5 -41t-41.5 -17zM105 708q-3 22 20 22h40q17 0 20 -17l100 -573
q1 -8 5 -10.5t8.5 0t7.5 9.5l223 434q5 9 1 22l-30 112q-2 10 3 16.5t15 6.5h38q17 0 20 -16l152 -577q2 -7 6 -9.5t8.5 0.5t6.5 10l217 575q7 17 25 17h34q23 0 14 -22l-264 -687q-8 -21 -30 -21h-28q-23 0 -27 20l-121 436q-2 11 -9 11.5t-13 -10.5l-224 -438
q-9 -19 -30 -19h-29q-23 0 -26 21z" />
    <glyph glyph-name="Wgrave.ss01" horiz-adv-x="996" 
d="M478 888q6 19 25 13l173 -65q18 -8 11 -26l-2 -7q-8 -18 -26 -14l-179 43q-19 6 -12 25zM105 708q-3 22 20 22h40q17 0 20 -17l100 -573q1 -8 5 -10.5t8.5 0t7.5 9.5l223 434q5 9 1 22l-30 112q-2 10 3 16.5t15 6.5h38q17 0 20 -16l152 -577q2 -7 6 -9.5t8.5 0.5t6.5 10
l217 575q7 17 25 17h34q23 0 14 -22l-264 -687q-8 -21 -30 -21h-28q-23 0 -27 20l-121 436q-2 11 -9 11.5t-13 -10.5l-224 -438q-9 -19 -30 -19h-29q-23 0 -26 21z" />
    <glyph glyph-name="i.loclTRK" horiz-adv-x="253" 
d="M196 636q-22 0 -37 15.5t-15 38.5q0 25 19 42.5t45 17.5q22 0 36.5 -15t14.5 -36q0 -26 -19 -44.5t-44 -18.5zM199 520q20 0 17 -20l-50 -480q-3 -20 -22 -20h-35q-20 0 -17 20l50 480q2 20 22 20h35z" />
    <glyph glyph-name="uni006A0301" horiz-adv-x="259" 
d="M286 730q18 11 26 -8l11 -27q8 -19 -12 -27l-179 -75q-20 -9 -26 8l-2 6q-6 18 10 28zM24 -207q-39 0 -61 6q-16 4 -13 24l6 24q4 19 24 16q20 -4 34 -4q30 0 50 19t24 57l59 565q3 20 23 20h34q20 0 18 -20l-60 -570q-7 -64 -41.5 -100.5t-96.5 -36.5z" />
    <glyph glyph-name="a.ss01" horiz-adv-x="657" 
d="M75 235q0 131 85.5 213t214.5 82q47 0 90.5 -19t72.5 -51q17 -15 22 9l6 33q5 18 25 18h14q20 0 18 -20l-50 -480q-3 -20 -23 -20h-12q-20 0 -20 18l1 37q-1 10 -7.5 11t-14.5 -6q-70 -70 -177 -70q-108 0 -176.5 70.5t-68.5 174.5zM151 242q0 -80 50.5 -133.5
t127.5 -53.5q109 0 178 100q5 9 7 21l17 169q1 12 -2 21q-49 99 -157 99q-90 0 -155.5 -65t-65.5 -158z" />
    <glyph glyph-name="aacute.ss01" horiz-adv-x="657" 
d="M478 730q18 11 26 -8l11 -27q8 -19 -12 -27l-179 -75q-20 -9 -26 8l-2 6q-6 18 10 28zM75 235q0 131 85.5 213t214.5 82q47 0 90.5 -19t72.5 -51q17 -15 22 9l6 33q5 18 25 18h14q20 0 18 -20l-50 -480q-3 -20 -23 -20h-12q-20 0 -20 18l1 37q-1 10 -7.5 11t-14.5 -6
q-70 -70 -177 -70q-108 0 -176.5 70.5t-68.5 174.5zM151 242q0 -80 50.5 -133.5t127.5 -53.5q109 0 178 100q5 9 7 21l17 169q1 12 -2 21q-49 99 -157 99q-90 0 -155.5 -65t-65.5 -158z" />
    <glyph glyph-name="abreve.ss01" horiz-adv-x="657" 
d="M285 721q15 0 21 -16q7 -24 32 -38t56 -14q30 0 58 14t41 38q10 16 26 16l22 -1q23 -2 15 -22q-41 -102 -168 -103q-53 -1 -96 27.5t-52 75.5q-3 20 20 22zM75 235q0 131 85.5 213t214.5 82q47 0 90.5 -19t72.5 -51q17 -15 22 9l6 33q5 18 25 18h14q20 0 18 -20l-50 -480
q-3 -20 -23 -20h-12q-20 0 -20 18l1 37q-1 10 -7.5 11t-14.5 -6q-70 -70 -177 -70q-108 0 -176.5 70.5t-68.5 174.5zM151 242q0 -80 50.5 -133.5t127.5 -53.5q109 0 178 100q5 9 7 21l17 169q1 12 -2 21q-49 99 -157 99q-90 0 -155.5 -65t-65.5 -158z" />
    <glyph glyph-name="acircumflex.ss01" horiz-adv-x="657" 
d="M238 639q-6 17 9 23l134 65q22 10 40 0l124 -65q12 -8 4 -23l-8 -14q-8 -14 -21 -8l-107 41q-18 7 -38 0l-112 -41q-16 -5 -20 8zM75 235q0 131 85.5 213t214.5 82q47 0 90.5 -19t72.5 -51q17 -15 22 9l6 33q5 18 25 18h14q20 0 18 -20l-50 -480q-3 -20 -23 -20h-12
q-20 0 -20 18l1 37q-1 10 -7.5 11t-14.5 -6q-70 -70 -177 -70q-108 0 -176.5 70.5t-68.5 174.5zM151 242q0 -80 50.5 -133.5t127.5 -53.5q109 0 178 100q5 9 7 21l17 169q1 12 -2 21q-49 99 -157 99q-90 0 -155.5 -65t-65.5 -158z" />
    <glyph glyph-name="adieresis.ss01" horiz-adv-x="657" 
d="M303 630q-19 0 -32 13.5t-13 33.5q0 22 16.5 38t38.5 16q20 0 33.5 -13t13.5 -32q0 -23 -17.5 -39.5t-39.5 -16.5zM481 630q-20 0 -32.5 13.5t-12.5 34.5q0 22 16.5 37.5t39.5 15.5q19 0 32.5 -13t13.5 -32q0 -23 -17 -39.5t-40 -16.5zM75 235q0 131 85.5 213t214.5 82
q47 0 90.5 -19t72.5 -51q17 -15 22 9l6 33q5 18 25 18h14q20 0 18 -20l-50 -480q-3 -20 -23 -20h-12q-20 0 -20 18l1 37q-1 10 -7.5 11t-14.5 -6q-70 -70 -177 -70q-108 0 -176.5 70.5t-68.5 174.5zM151 242q0 -80 50.5 -133.5t127.5 -53.5q109 0 178 100q5 9 7 21l17 169
q1 12 -2 21q-49 99 -157 99q-90 0 -155.5 -65t-65.5 -158z" />
    <glyph glyph-name="agrave.ss01" horiz-adv-x="657" 
d="M299 732q9 18 27 7l155 -99q16 -12 6 -28l-4 -6q-12 -16 -28 -9l-166 80q-18 9 -7 27zM75 235q0 131 85.5 213t214.5 82q47 0 90.5 -19t72.5 -51q17 -15 22 9l6 33q5 18 25 18h14q20 0 18 -20l-50 -480q-3 -20 -23 -20h-12q-20 0 -20 18l1 37q-1 10 -7.5 11t-14.5 -6
q-70 -70 -177 -70q-108 0 -176.5 70.5t-68.5 174.5zM151 242q0 -80 50.5 -133.5t127.5 -53.5q109 0 178 100q5 9 7 21l17 169q1 12 -2 21q-49 99 -157 99q-90 0 -155.5 -65t-65.5 -158z" />
    <glyph glyph-name="amacron.ss01" horiz-adv-x="657" 
d="M256 682q3 20 22 20h243q21 0 19 -20l-3 -21q-3 -20 -22 -20h-244q-20 0 -17 20zM75 235q0 131 85.5 213t214.5 82q47 0 90.5 -19t72.5 -51q17 -15 22 9l6 33q5 18 25 18h14q20 0 18 -20l-50 -480q-3 -20 -23 -20h-12q-20 0 -20 18l1 37q-1 10 -7.5 11t-14.5 -6
q-70 -70 -177 -70q-108 0 -176.5 70.5t-68.5 174.5zM151 242q0 -80 50.5 -133.5t127.5 -53.5q109 0 178 100q5 9 7 21l17 169q1 12 -2 21q-49 99 -157 99q-90 0 -155.5 -65t-65.5 -158z" />
    <glyph glyph-name="aogonek.ss01" horiz-adv-x="657" 
d="M605 520q20 0 18 -20l-50 -480q-1 -13 -11 -18q-97 -53 -97 -130q0 -20 12.5 -31t32.5 -11q10 0 26 2q8 2 12.5 -2t3.5 -12l-2 -14q0 -15 -15 -18q-15 -5 -39 -5q-41 0 -67 23.5t-26 60.5q0 48 30.5 86.5t84.5 63.5v3l1 37q-1 10 -7.5 11t-14.5 -6q-70 -70 -177 -70
q-108 0 -176.5 70.5t-68.5 174.5q0 131 85.5 213t214.5 82q47 0 90.5 -19t72.5 -51q17 -15 22 9l6 33q5 18 25 18h14zM514 176l17 169q1 12 -2 21q-49 99 -157 99q-90 0 -155.5 -65t-65.5 -158q0 -80 50.5 -133.5t127.5 -53.5q109 0 178 100q5 9 7 21z" />
    <glyph glyph-name="aring.ss01" horiz-adv-x="657" 
d="M386 586q-41 0 -70 27t-29 66q0 46 33.5 78t87.5 32q42 0 71 -26.5t29 -65.5q0 -47 -33.5 -79t-88.5 -32zM392 636q25 0 42 17t17 40q0 20 -13.5 34t-34.5 14q-24 0 -41 -17.5t-17 -40.5q0 -20 13 -33.5t34 -13.5zM75 235q0 131 85.5 213t214.5 82q47 0 90.5 -19
t72.5 -51q17 -15 22 9l6 33q5 18 25 18h14q20 0 18 -20l-50 -480q-3 -20 -23 -20h-12q-20 0 -20 18l1 37q-1 10 -7.5 11t-14.5 -6q-70 -70 -177 -70q-108 0 -176.5 70.5t-68.5 174.5zM151 242q0 -80 50.5 -133.5t127.5 -53.5q109 0 178 100q5 9 7 21l17 169q1 12 -2 21
q-49 99 -157 99q-90 0 -155.5 -65t-65.5 -158z" />
    <glyph glyph-name="atilde.ss01" horiz-adv-x="657" 
d="M540 700q22 -5 14 -24q-24 -67 -97 -67q-34 0 -73.5 23.5t-56.5 23.5q-30 0 -46 -23q-12 -15 -27 -12l-13 3q-22 5 -14 24q23 66 94 66q35 0 78 -23.5t56 -23.5q32 0 46 23q14 15 27 13zM75 235q0 131 85.5 213t214.5 82q47 0 90.5 -19t72.5 -51q17 -15 22 9l6 33
q5 18 25 18h14q20 0 18 -20l-50 -480q-3 -20 -23 -20h-12q-20 0 -20 18l1 37q-1 10 -7.5 11t-14.5 -6q-70 -70 -177 -70q-108 0 -176.5 70.5t-68.5 174.5zM151 242q0 -80 50.5 -133.5t127.5 -53.5q109 0 178 100q5 9 7 21l17 169q1 12 -2 21q-49 99 -157 99
q-90 0 -155.5 -65t-65.5 -158z" />
    <glyph glyph-name="k.ss01" horiz-adv-x="602" 
d="M107 0q-21 0 -18 20l77 740q3 20 23 20h34q20 0 18 -20l-53 -505q-2 -11 4 -14t16 5l294 264q11 10 27 10h39q13 0 15.5 -7.5t-8.5 -17.5l-205 -196q-13 -13 -5 -25l130 -198q8 -14 24 -14h65q21 0 18 -20l-2 -22q-3 -20 -23 -20h-107q-17 0 -25 14l-133 220
q-10 15 -24 2l-103 -96q-11 -9 -12 -21l-9 -99q-3 -20 -23 -20h-34z" />
    <glyph glyph-name="kcommaaccent.ss01" horiz-adv-x="610" 
d="M107 0q-21 0 -18 20l77 740q3 20 23 20h34q20 0 18 -20l-53 -505q-2 -11 4 -14t16 5l294 264q11 10 27 10h39q13 0 15.5 -7.5t-8.5 -17.5l-205 -196q-13 -13 -5 -25l130 -198q8 -14 24 -14h65q21 0 18 -20l-2 -22q-3 -20 -23 -20h-107q-17 0 -25 14l-133 220
q-10 15 -24 2l-103 -96q-11 -9 -12 -21l-9 -99q-3 -20 -23 -20h-34zM258 -51q4 18 24 18h35q24 0 15 -22l-54 -140q-7 -17 -24 -17h-17q-22 0 -16 22z" />
    <glyph glyph-name="l.ss01" horiz-adv-x="346" 
d="M101 149l64 611q2 20 22 20h35q20 0 17 -20l-63 -609q-5 -49 11.5 -72t57.5 -23q40 0 72 14q10 4 16.5 0t6.5 -14v-25q2 -18 -16 -24q-49 -17 -97 -17q-65 0 -100 40t-26 119z" />
    <glyph glyph-name="lacute.ss01" horiz-adv-x="346" 
d="M302 937q20 8 23 -14l4 -28q3 -20 -18 -24l-191 -30q-21 -4 -24 14v6q-1 19 16 25zM101 149l64 611q2 20 22 20h35q20 0 17 -20l-63 -609q-5 -49 11.5 -72t57.5 -23q40 0 72 14q10 4 16.5 0t6.5 -14v-25q2 -18 -16 -24q-49 -17 -97 -17q-65 0 -100 40t-26 119z" />
    <glyph glyph-name="lcaron.ss01" horiz-adv-x="346" 
d="M326 667q20 0 24 18l40 176q6 21 -16 21h-25q-18 0 -23 -19l-32 -175q-4 -21 16 -21h16zM101 149l64 611q2 20 22 20h35q20 0 17 -20l-63 -609q-5 -49 11.5 -72t57.5 -23q40 0 72 14q10 4 16.5 0t6.5 -14v-25q2 -18 -16 -24q-49 -17 -97 -17q-65 0 -100 40t-26 119z" />
    <glyph glyph-name="lcommaaccent.ss01" horiz-adv-x="346" 
d="M101 149l64 611q2 20 22 20h35q20 0 17 -20l-63 -609q-5 -49 11.5 -72t57.5 -23q40 0 72 14q10 4 16.5 0t6.5 -14v-25q2 -18 -16 -24q-49 -17 -97 -17q-65 0 -100 40t-26 119zM163 -51q5 18 24 18h35q24 0 15 -22l-54 -140q-7 -17 -24 -17h-17q-22 0 -16 22z" />
    <glyph glyph-name="ldot.ss01" horiz-adv-x="365" 
d="M101 149l64 611q2 20 22 20h35q20 0 17 -20l-63 -609q-5 -49 11.5 -72t57.5 -23q40 0 72 14q10 4 16.5 0t6.5 -14v-25q2 -18 -16 -24q-49 -17 -97 -17q-65 0 -100 40t-26 119zM319 308q-21 0 -35 15t-14 36q0 23 18.5 40.5t41.5 17.5q21 0 35.5 -14.5t14.5 -34.5
q0 -24 -18.5 -42t-42.5 -18z" />
    <glyph glyph-name="lslash.ss01" horiz-adv-x="346" 
d="M340 31q2 -18 -16 -24q-49 -17 -97 -17q-65 0 -100 40t-26 119l21 204l-73 -34q-24 -9 -30 13l-5 12q-8 22 16 32l100 46l35 338q2 20 22 20h35q20 0 17 -20l-31 -302l88 41q22 9 30 -11l5 -13q8 -21 -14 -31l-116 -54l-25 -239q-5 -49 11.5 -72t57.5 -23q40 0 72 14
q10 4 16.5 0t6.5 -14v-25z" />
    <glyph glyph-name="t.ss01" horiz-adv-x="516" 
d="M92 456q-20 0 -18 20l3 24q2 20 22 20h44q19 0 21 19l10 92q1 17 19 22l34 9q11 3 16.5 -2t3.5 -15l-11 -106q-2 -19 18 -19h214q21 0 18 -20l-2 -24q-3 -20 -23 -20h-214q-19 0 -21 -19l-25 -235q-8 -71 23 -109t82 -38q49 0 91 28t63 78q8 17 24 17h30q22 0 16 -22
q-24 -76 -85 -121t-142 -45q-83 0 -135 56t-41 156l24 235q3 19 -17 19h-42z" />
    <glyph glyph-name="tbar.ss01" horiz-adv-x="516" 
d="M514 178q22 0 16 -22q-24 -76 -85 -121t-142 -45q-83 0 -135 56t-41 156l7 70h-54q-19 0 -17 20l1 22q2 20 23 20h53l11 103q3 19 -17 19h-42q-20 0 -18 20l3 24q2 20 22 20h44q19 0 21 19l10 92q1 17 19 22l34 9q11 3 16.5 -2t3.5 -15l-11 -106q-2 -19 18 -19h214
q21 0 18 -20l-2 -24q-3 -20 -23 -20h-214q-19 0 -21 -19l-11 -103h163q19 0 17 -20l-2 -22q-2 -20 -22 -20h-163l-7 -70q-8 -71 23 -109t82 -38q49 0 91 28t63 78q8 17 24 17h30z" />
    <glyph glyph-name="tcaron.ss01" horiz-adv-x="516" 
d="M355 606q19 0 24 18l40 176q6 21 -16 21h-25q-18 0 -23 -19l-32 -175q-5 -21 16 -21h16zM92 456q-20 0 -18 20l3 24q2 20 22 20h44q19 0 21 19l10 92q1 17 19 22l34 9q11 3 16.5 -2t3.5 -15l-11 -106q-2 -19 18 -19h214q21 0 18 -20l-2 -24q-3 -20 -23 -20h-214
q-19 0 -21 -19l-25 -235q-8 -71 23 -109t82 -38q49 0 91 28t63 78q8 17 24 17h30q22 0 16 -22q-24 -76 -85 -121t-142 -45q-83 0 -135 56t-41 156l24 235q3 19 -17 19h-42z" />
    <glyph glyph-name="uni0163.ss01" horiz-adv-x="516" 
d="M514 178q22 0 16 -22q-23 -70 -77 -114t-127 -51l-7 -20q-5 -14 8 -16q29 -5 47.5 -25t18.5 -50q0 -46 -35.5 -73t-89.5 -27q-47 0 -76 20q-14 9 -9 25l5 11q6 19 26 7q26 -13 55 -13q26 0 42 12.5t16 32.5q0 40 -48 40h-10q-11 0 -16 7t-1 18l19 52q-71 11 -112 65.5
t-32 144.5l24 235q3 19 -17 19h-42q-20 0 -18 20l3 24q2 20 22 20h44q19 0 21 19l10 92q1 17 19 22l34 9q11 3 16.5 -2t3.5 -15l-11 -106q-2 -19 18 -19h214q21 0 18 -20l-2 -24q-3 -20 -23 -20h-214q-19 0 -21 -19l-25 -235q-8 -71 23 -109t82 -38q49 0 91 28t63 78
q8 17 24 17h30z" />
    <glyph glyph-name="uni021B.ss01" horiz-adv-x="516" 
d="M92 456q-20 0 -18 20l3 24q2 20 22 20h44q19 0 21 19l10 92q1 17 19 22l34 9q11 3 16.5 -2t3.5 -15l-11 -106q-2 -19 18 -19h214q21 0 18 -20l-2 -24q-3 -20 -23 -20h-214q-19 0 -21 -19l-25 -235q-8 -71 23 -109t82 -38q49 0 91 28t63 78q8 17 24 17h30q22 0 16 -22
q-24 -76 -85 -121t-142 -45q-83 0 -135 56t-41 156l24 235q3 19 -17 19h-42zM263 -51q5 18 24 18h35q24 0 15 -22l-54 -140q-7 -17 -24 -17h-17q-22 0 -16 22z" />
    <glyph glyph-name="u.ss01" horiz-adv-x="617" 
d="M102 208l31 292q2 20 22 20h35q20 0 17 -20l-30 -294q-7 -65 32 -107.5t106 -42.5q68 0 115.5 42.5t54.5 107.5l31 294q3 20 23 20h34q20 0 18 -20l-31 -292q-11 -100 -77 -159t-175 -59q-100 0 -158 60.5t-48 157.5z" />
    <glyph glyph-name="uacute.ss01" horiz-adv-x="617" 
d="M461 730q18 11 26 -8l11 -27q8 -19 -12 -27l-179 -75q-20 -9 -26 8l-2 6q-6 18 10 28zM102 208l31 292q2 20 22 20h35q20 0 17 -20l-30 -294q-7 -65 32 -107.5t106 -42.5q68 0 115.5 42.5t54.5 107.5l31 294q3 20 23 20h34q20 0 18 -20l-31 -292q-11 -100 -77 -159
t-175 -59q-100 0 -158 60.5t-48 157.5z" />
    <glyph glyph-name="ucircumflex.ss01" horiz-adv-x="617" 
d="M222 639q-6 17 9 23l134 65q22 10 40 0l124 -65q12 -8 4 -23l-8 -14q-8 -14 -21 -8l-107 41q-18 7 -38 0l-112 -41q-16 -5 -20 8zM102 208l31 292q2 20 22 20h35q20 0 17 -20l-30 -294q-7 -65 32 -107.5t106 -42.5q68 0 115.5 42.5t54.5 107.5l31 294q3 20 23 20h34
q20 0 18 -20l-31 -292q-11 -100 -77 -159t-175 -59q-100 0 -158 60.5t-48 157.5z" />
    <glyph glyph-name="udieresis.ss01" horiz-adv-x="617" 
d="M286 630q-19 0 -32 13.5t-13 33.5q0 22 16.5 38t38.5 16q20 0 33.5 -13t13.5 -32q0 -23 -17.5 -39.5t-39.5 -16.5zM464 630q-20 0 -32.5 13.5t-12.5 34.5q0 22 16.5 37.5t39.5 15.5q19 0 32.5 -13t13.5 -32q0 -23 -17 -39.5t-40 -16.5zM102 208l31 292q2 20 22 20h35
q20 0 17 -20l-30 -294q-7 -65 32 -107.5t106 -42.5q68 0 115.5 42.5t54.5 107.5l31 294q3 20 23 20h34q20 0 18 -20l-31 -292q-11 -100 -77 -159t-175 -59q-100 0 -158 60.5t-48 157.5z" />
    <glyph glyph-name="ugrave.ss01" horiz-adv-x="617" 
d="M283 732q9 18 27 7l155 -99q16 -12 6 -28l-4 -6q-12 -16 -28 -9l-166 80q-18 9 -7 27zM102 208l31 292q2 20 22 20h35q20 0 17 -20l-30 -294q-7 -65 32 -107.5t106 -42.5q68 0 115.5 42.5t54.5 107.5l31 294q3 20 23 20h34q20 0 18 -20l-31 -292q-11 -100 -77 -159
t-175 -59q-100 0 -158 60.5t-48 157.5z" />
    <glyph glyph-name="uhungarumlaut.ss01" horiz-adv-x="617" 
d="M317 719q9 15 25 15l37 -1q12 0 15 -6.5t-5 -17.5l-72 -101q-10 -13 -25 -13h-16q-11 0 -15 6.5t1 16.5zM465 719q9 15 25 15l37 -1q12 0 15 -6.5t-5 -17.5l-72 -101q-10 -13 -26 -13h-15q-26 0 -14 23zM102 208l31 292q2 20 22 20h35q20 0 17 -20l-30 -294
q-7 -65 32 -107.5t106 -42.5q68 0 115.5 42.5t54.5 107.5l31 294q3 20 23 20h34q20 0 18 -20l-31 -292q-11 -100 -77 -159t-175 -59q-100 0 -158 60.5t-48 157.5z" />
    <glyph glyph-name="umacron.ss01" horiz-adv-x="617" 
d="M239 682q3 20 22 20h243q21 0 19 -20l-3 -21q-3 -20 -22 -20h-244q-20 0 -17 20zM102 208l31 292q2 20 22 20h35q20 0 17 -20l-30 -294q-7 -65 32 -107.5t106 -42.5q68 0 115.5 42.5t54.5 107.5l31 294q3 20 23 20h34q20 0 18 -20l-31 -292q-11 -100 -77 -159t-175 -59
q-100 0 -158 60.5t-48 157.5z" />
    <glyph glyph-name="uogonek.ss01" horiz-adv-x="617" 
d="M573 520q20 0 18 -20l-31 -292q-9 -85 -59 -141t-134 -72q-88 -52 -88 -125q0 -20 12.5 -31t32.5 -11q10 0 26 2q8 2 12.5 -2t3.5 -12l-2 -14q0 -15 -15 -18q-15 -5 -39 -5q-41 0 -67 23.5t-26 60.5q0 75 75 127q-93 5 -146.5 65t-43.5 153l31 292q2 20 22 20h35
q20 0 17 -20l-30 -294q-7 -65 32 -107.5t106 -42.5q68 0 115.5 42.5t54.5 107.5l31 294q3 20 23 20h34z" />
    <glyph glyph-name="uring.ss01" horiz-adv-x="617" 
d="M370 586q-41 0 -70 27t-29 66q0 46 33.5 78t87.5 32q42 0 71 -26.5t29 -65.5q0 -47 -33.5 -79t-88.5 -32zM376 636q25 0 42 17t17 40q0 20 -13.5 34t-34.5 14q-24 0 -41 -17.5t-17 -40.5q0 -20 13 -33.5t34 -13.5zM102 208l31 292q2 20 22 20h35q20 0 17 -20l-30 -294
q-7 -65 32 -107.5t106 -42.5q68 0 115.5 42.5t54.5 107.5l31 294q3 20 23 20h34q20 0 18 -20l-31 -292q-11 -100 -77 -159t-175 -59q-100 0 -158 60.5t-48 157.5z" />
    <glyph glyph-name="utilde.ss01" horiz-adv-x="617" 
d="M524 700q22 -5 14 -24q-24 -67 -97 -67q-34 0 -73.5 23.5t-56.5 23.5q-30 0 -46 -23q-12 -15 -27 -12l-13 3q-22 5 -14 24q23 66 94 66q35 0 78 -23.5t56 -23.5q32 0 46 23q14 15 27 13zM102 208l31 292q2 20 22 20h35q20 0 17 -20l-30 -294q-7 -65 32 -107.5t106 -42.5
q68 0 115.5 42.5t54.5 107.5l31 294q3 20 23 20h34q20 0 18 -20l-31 -292q-11 -100 -77 -159t-175 -59q-100 0 -158 60.5t-48 157.5z" />
    <glyph glyph-name="w.ss01" horiz-adv-x="809" 
d="M81 498q-2 10 3.5 16t16.5 6h32q17 0 20 -17l83 -403q1 -7 4.5 -9.5t8 0t7.5 8.5l162 294q7 13 3 27l-21 77q-5 23 19 23h28q17 0 20 -16l105 -402q2 -7 5.5 -9.5t7.5 0t7 9.5l172 401q6 17 25 17h31q24 0 14 -23l-214 -476q-10 -21 -33 -21h-30q-23 0 -27 21l-74 266
q-2 8 -6 11t-9.5 0t-9.5 -11l-146 -267q-12 -20 -33 -20h-34q-22 0 -28 21z" />
    <glyph glyph-name="wacute.ss01" horiz-adv-x="809" 
d="M558 730q18 11 26 -8l11 -27q8 -19 -12 -27l-179 -75q-20 -9 -26 8l-2 6q-6 18 10 28zM81 498q-2 10 3.5 16t16.5 6h32q17 0 20 -17l83 -403q1 -7 4.5 -9.5t8 0t7.5 8.5l162 294q7 13 3 27l-21 77q-5 23 19 23h28q17 0 20 -16l105 -402q2 -7 5.5 -9.5t7.5 0t7 9.5
l172 401q6 17 25 17h31q24 0 14 -23l-214 -476q-10 -21 -33 -21h-30q-23 0 -27 21l-74 266q-2 8 -6 11t-9.5 0t-9.5 -11l-146 -267q-12 -20 -33 -20h-34q-22 0 -28 21z" />
    <glyph glyph-name="wcircumflex.ss01" horiz-adv-x="809" 
d="M318 639q-6 17 9 23l134 65q22 10 40 0l124 -65q12 -8 4 -23l-8 -14q-8 -14 -21 -8l-107 41q-18 7 -38 0l-112 -41q-16 -5 -20 8zM81 498q-2 10 3.5 16t16.5 6h32q17 0 20 -17l83 -403q1 -7 4.5 -9.5t8 0t7.5 8.5l162 294q7 13 3 27l-21 77q-5 23 19 23h28q17 0 20 -16
l105 -402q2 -7 5.5 -9.5t7.5 0t7 9.5l172 401q6 17 25 17h31q24 0 14 -23l-214 -476q-10 -21 -33 -21h-30q-23 0 -27 21l-74 266q-2 8 -6 11t-9.5 0t-9.5 -11l-146 -267q-12 -20 -33 -20h-34q-22 0 -28 21z" />
    <glyph glyph-name="wdieresis.ss01" horiz-adv-x="809" 
d="M382 630q-19 0 -32 13.5t-13 33.5q0 22 16.5 38t38.5 16q20 0 33.5 -13t13.5 -32q0 -23 -17.5 -39.5t-39.5 -16.5zM560 630q-20 0 -32.5 13.5t-12.5 34.5q0 22 16.5 37.5t39.5 15.5q19 0 32.5 -13t13.5 -32q0 -23 -17 -39.5t-40 -16.5zM81 498q-2 10 3.5 16t16.5 6h32
q17 0 20 -17l83 -403q1 -7 4.5 -9.5t8 0t7.5 8.5l162 294q7 13 3 27l-21 77q-5 23 19 23h28q17 0 20 -16l105 -402q2 -7 5.5 -9.5t7.5 0t7 9.5l172 401q6 17 25 17h31q24 0 14 -23l-214 -476q-10 -21 -33 -21h-30q-23 0 -27 21l-74 266q-2 8 -6 11t-9.5 0t-9.5 -11
l-146 -267q-12 -20 -33 -20h-34q-22 0 -28 21z" />
    <glyph glyph-name="wgrave.ss01" horiz-adv-x="809" 
d="M379 732q9 18 27 7l155 -99q16 -12 6 -28l-4 -6q-12 -16 -28 -9l-166 80q-18 9 -7 27zM81 498q-2 10 3.5 16t16.5 6h32q17 0 20 -17l83 -403q1 -7 4.5 -9.5t8 0t7.5 8.5l162 294q7 13 3 27l-21 77q-5 23 19 23h28q17 0 20 -16l105 -402q2 -7 5.5 -9.5t7.5 0t7 9.5
l172 401q6 17 25 17h31q24 0 14 -23l-214 -476q-10 -21 -33 -21h-30q-23 0 -27 21l-74 266q-2 8 -6 11t-9.5 0t-9.5 -11l-146 -267q-12 -20 -33 -20h-34q-22 0 -28 21z" />
    <glyph glyph-name="y.ss01" horiz-adv-x="553" 
d="M80 497q-3 10 2 16.5t16 6.5h39q15 0 21 -16l118 -412q4 -12 11.5 -12t13.5 12l201 412q7 16 25 16h39q24 0 13 -23l-360 -701q-7 -16 -25 -16h-30q-11 0 -15 6.5t1 16.5l105 197h-7q-14 0 -17 13z" />
    <glyph glyph-name="yacute.ss01" horiz-adv-x="553" 
d="M435 730q18 11 26 -8l11 -27q8 -19 -12 -27l-179 -75q-20 -9 -26 8l-2 6q-6 18 10 28zM80 497q-3 10 2 16.5t16 6.5h39q15 0 21 -16l118 -412q4 -12 11.5 -12t13.5 12l201 412q7 16 25 16h39q24 0 13 -23l-360 -701q-7 -16 -25 -16h-30q-11 0 -15 6.5t1 16.5l105 197h-7
q-14 0 -17 13z" />
    <glyph glyph-name="ycircumflex.ss01" horiz-adv-x="553" 
d="M196 639q-6 17 9 23l134 65q22 10 40 0l124 -65q12 -8 4 -23l-8 -14q-8 -14 -21 -8l-107 41q-18 7 -38 0l-112 -41q-16 -5 -20 8zM80 497q-3 10 2 16.5t16 6.5h39q15 0 21 -16l118 -412q4 -12 11.5 -12t13.5 12l201 412q7 16 25 16h39q24 0 13 -23l-360 -701
q-7 -16 -25 -16h-30q-11 0 -15 6.5t1 16.5l105 197h-7q-14 0 -17 13z" />
    <glyph glyph-name="ydieresis.ss01" horiz-adv-x="553" 
d="M260 630q-19 0 -32 13.5t-13 33.5q0 22 16.5 38t38.5 16q20 0 33.5 -13t13.5 -32q0 -23 -17.5 -39.5t-39.5 -16.5zM438 630q-20 0 -32.5 13.5t-12.5 34.5q0 22 16.5 37.5t39.5 15.5q19 0 32.5 -13t13.5 -32q0 -23 -17 -39.5t-40 -16.5zM80 497q-3 10 2 16.5t16 6.5h39
q15 0 21 -16l118 -412q4 -12 11.5 -12t13.5 12l201 412q7 16 25 16h39q24 0 13 -23l-360 -701q-7 -16 -25 -16h-30q-11 0 -15 6.5t1 16.5l105 197h-7q-14 0 -17 13z" />
    <glyph glyph-name="ygrave.ss01" horiz-adv-x="553" 
d="M256 732q9 18 27 7l155 -99q16 -12 6 -28l-4 -6q-12 -16 -28 -9l-166 80q-18 9 -7 27zM80 497q-3 10 2 16.5t16 6.5h39q15 0 21 -16l118 -412q4 -12 11.5 -12t13.5 12l201 412q7 16 25 16h39q24 0 13 -23l-360 -701q-7 -16 -25 -16h-30q-11 0 -15 6.5t1 16.5l105 197h-7
q-14 0 -17 13z" />
    <glyph glyph-name="uni1EF9.ss01" horiz-adv-x="553" 
d="M497 700q22 -5 14 -24q-24 -67 -97 -67q-34 0 -73.5 23.5t-56.5 23.5q-30 0 -46 -23q-12 -15 -27 -12l-13 3q-22 5 -14 24q23 66 94 66q35 0 78 -23.5t56 -23.5q32 0 46 23q14 15 27 13zM80 497q-3 10 2 16.5t16 6.5h39q15 0 21 -16l118 -412q4 -12 11.5 -12t13.5 12
l201 412q7 16 25 16h39q24 0 13 -23l-360 -701q-7 -16 -25 -16h-30q-11 0 -15 6.5t1 16.5l105 197h-7q-14 0 -17 13z" />
    <glyph glyph-name="zero.zero" horiz-adv-x="757" 
d="M457 740q126 0 205 -93.5t79 -233.5q0 -188 -100 -305.5t-263 -117.5q-126 0 -204.5 94t-78.5 236q0 187 99 303.5t263 116.5zM450 670q-121 0 -198.5 -98.5t-77.5 -247.5q0 -92 35 -157l375 452q-53 51 -134 51zM386 60q120 0 197 98.5t77 247.5q0 97 -39 166l-376 -455
q55 -57 141 -57z" />
    <glyph glyph-name="ampersand.ss01" horiz-adv-x="704" 
d="M63 164q0 138 172 203q26 9 9 30q-59 77 -59 141q0 82 57 135t162 53q71 0 123 -46.5t52 -110.5q0 -134 -170 -203q-27 -12 -10 -31l124 -132q17 -20 34 4q49 69 57 135q3 20 22 20h26q22 0 17 -20q-11 -99 -77 -189q-13 -19 0 -34l78 -83q8 -10 8 -20q0 -16 -22 -16h-33
q-15 0 -24 10l-58 60q-14 15 -34 1q-100 -80 -230 -80q-94 0 -159 48.5t-65 124.5zM261 541q0 -50 63 -122q13 -15 33 -6q76 28 111.5 61.5t35.5 81.5q0 41 -29.5 70.5t-78.5 29.5q-60 0 -97.5 -33t-37.5 -82zM139 172q0 -50 43 -82.5t112 -32.5q91 0 174 61q24 16 5 35
l-153 161q-13 13 -40 3q-69 -30 -105 -63t-36 -82z" />
    <glyph glyph-name="paragraph.ss01" horiz-adv-x="732" 
d="M767 730l-7 -66h-94l-82 -789h-79l83 789h-79l-44 -411h-127q-121 0 -187.5 59.5t-66.5 159.5q0 117 81.5 187.5t223.5 70.5h378z" />
    <glyph glyph-name="caroncomb.alt" 
d="M-204 606q20 0 24 18l40 176q6 21 -16 21h-25q-18 0 -23 -19l-32 -175q-5 -21 16 -21h16z" />
    <glyph glyph-name="uni0308.case" 
d="M-207 796q-20 0 -33 13.5t-13 34.5q0 23 17 39.5t40 16.5q20 0 34 -13.5t14 -32.5q0 -24 -18 -41t-41 -17zM-22 796q-20 0 -33.5 13.5t-13.5 35.5t17.5 38.5t40.5 16.5q20 0 34 -13.5t14 -32.5q0 -24 -17.5 -41t-41.5 -17z" />
    <glyph glyph-name="uni0307.case" 
d="M-74 621q-22 0 -37 15.5t-15 38.5q0 25 19 42.5t45 17.5q22 0 36.5 -15t14.5 -36q0 -26 -19 -44.5t-44 -18.5z" />
    <glyph glyph-name="gravecomb.case" 
d="M-304 888q6 19 25 13l173 -65q18 -8 11 -26l-2 -7q-8 -18 -26 -14l-179 43q-19 6 -12 25z" />
    <glyph glyph-name="acutecomb.case" 
d="M-131 887q20 8 23 -14l4 -28q3 -20 -18 -24l-191 -30q-21 -4 -24 14v6q-1 19 16 25z" />
    <glyph glyph-name="uni030B.case" 
d="M-245 909q9 15 25 15l37 -1q12 0 15 -6.5t-5 -17.5l-72 -101q-10 -13 -25 -13h-16q-11 0 -15 6.5t1 16.5zM-97 909q9 15 25 15l37 -1q12 0 15 -6.5t-5 -17.5l-72 -101q-10 -13 -26 -13h-15q-26 0 -14 23z" />
    <glyph glyph-name="uni0302.case" 
d="M-313 827q-6 18 9 24l136 66q22 10 41 0l125 -66q13 -8 4 -24l-8 -14q-8 -14 -21 -8l-109 42q-18 7 -38 0l-114 -42q-16 -5 -20 8z" />
    <glyph glyph-name="uni030C.case" 
d="M-302 883l5 14q7 18 25 11l102 -37q16 -7 35 0l109 37q19 5 22 -11l3 -14q3 -17 -12 -24l-123 -53q-26 -11 -49 0l-110 53q-14 8 -7 24z" />
    <glyph glyph-name="uni0306.case" 
d="M-324 906q15 0 21 -16q7 -24 32 -38t56 -14q30 0 58 14t41 38q10 16 26 16l22 -1q23 -2 15 -22q-41 -102 -168 -103q-53 -1 -96 27.5t-52 75.5q-3 20 20 22z" />
    <glyph glyph-name="uni030A.case" 
d="M-189 769q-41 0 -70 27t-29 66q0 46 33.5 78t87.5 32q42 0 71 -26.5t29 -65.5q0 -47 -33.5 -79t-88.5 -32zM-183 819q25 0 42 17t17 40q0 20 -13.5 34t-34.5 14q-24 0 -41 -17.5t-17 -40.5q0 -20 13 -33.5t34 -13.5z" />
    <glyph glyph-name="tildecomb.case" 
d="M-35 890q22 -5 14 -24q-24 -67 -97 -67q-34 0 -73.5 23.5t-56.5 23.5q-30 0 -46 -23q-12 -15 -27 -12l-13 3q-22 5 -14 24q23 66 94 66q35 0 78 -23.5t56 -23.5q32 0 46 23q14 15 27 13z" />
    <glyph glyph-name="uni0304.case" 
d="M-338 862q3 20 22 20h243q21 0 19 -20l-3 -21q-3 -20 -22 -20h-244q-20 0 -17 20z" />
    <glyph glyph-name="uni0337.case" 
d="M-146 486q19 9 26 -11l3 -14q5 -18 -14 -27l-289 -134q-21 -10 -26 11l-2 13q-4 18 14 27z" />
    <glyph glyph-name="uni0338.case" 
d="M66 607q16 16 28 0l13 -14q12 -14 -2 -29l-712 -638q-15 -17 -28 0l-11 12q-13 14 2 29z" />
    <glyph glyph-name="caron.alt" horiz-adv-x="600" 
d="M310 606q20 0 24 18l40 176q6 21 -16 21h-25q-18 0 -23 -19l-32 -175q-4 -21 16 -21h16z" />
    <glyph glyph-name="acute.case" horiz-adv-x="600" 
d="M469 887q20 8 23 -14l4 -28q3 -20 -18 -24l-191 -30q-21 -4 -24 14v6q-1 19 16 25z" />
    <glyph glyph-name="breve.case" horiz-adv-x="600" 
d="M276 906q15 0 21 -16q7 -24 32 -38t56 -14q30 0 58 14t41 38q10 16 26 16l22 -1q23 -2 15 -22q-41 -102 -168 -103q-53 -1 -96 27.5t-52 75.5q-3 20 20 22z" />
    <glyph glyph-name="caron.case" horiz-adv-x="492" 
d="M186 883l5 14q7 18 25 11l102 -37q16 -7 35 0l109 37q19 5 22 -11l3 -14q3 -17 -12 -24l-123 -53q-26 -11 -49 0l-110 53q-14 8 -7 24z" />
    <glyph glyph-name="circumflex.case" horiz-adv-x="488" 
d="M175 827q-6 18 9 24l136 66q22 10 41 0l125 -66q13 -8 4 -24l-8 -14q-8 -14 -21 -8l-109 42q-18 7 -38 0l-114 -42q-16 -5 -20 8z" />
    <glyph glyph-name="dieresis.case" horiz-adv-x="389" 
d="M182 796q-20 0 -33 13.5t-13 34.5q0 23 17 39.5t40 16.5q20 0 34 -13.5t14 -32.5q0 -24 -18 -41t-41 -17zM367 796q-20 0 -33.5 13.5t-13.5 35.5t17.5 38.5t40.5 16.5q20 0 34 -13.5t14 -32.5q0 -24 -17.5 -41t-41.5 -17z" />
    <glyph glyph-name="dotaccent.case" horiz-adv-x="278" 
d="M204 621q-22 0 -37 15.5t-15 38.5q0 25 19 42.5t45 17.5q22 0 36.5 -15t14.5 -36q0 -26 -19 -44.5t-44 -18.5z" />
    <glyph glyph-name="grave.case" horiz-adv-x="600" 
d="M260 888q6 19 25 13l173 -65q18 -8 11 -26l-2 -7q-8 -18 -26 -14l-179 43q-19 6 -12 25z" />
    <glyph glyph-name="hungarumlaut.case" horiz-adv-x="600" 
d="M355 909q9 15 25 15l37 -1q12 0 15 -6.5t-5 -17.5l-72 -101q-10 -13 -25 -13h-16q-11 0 -15 6.5t1 16.5zM503 909q9 15 25 15l37 -1q12 0 15 -6.5t-5 -17.5l-72 -101q-10 -13 -26 -13h-15q-26 0 -14 23z" />
    <glyph glyph-name="macron.case" horiz-adv-x="600" 
d="M262 862q3 20 22 20h243q21 0 19 -20l-3 -21q-3 -20 -22 -20h-244q-20 0 -17 20z" />
    <glyph glyph-name="ring.case" horiz-adv-x="427" 
d="M238 769q-41 0 -70 27t-29 66q0 46 33.5 78t87.5 32q42 0 71 -26.5t29 -65.5q0 -47 -33.5 -79t-88.5 -32zM244 819q25 0 42 17t17 40q0 20 -13.5 34t-34.5 14q-24 0 -41 -17.5t-17 -40.5q0 -20 13 -33.5t34 -13.5z" />
    <glyph glyph-name="tilde.case" horiz-adv-x="600" 
d="M507 890q22 -5 14 -24q-24 -67 -97 -67q-34 0 -73.5 23.5t-56.5 23.5q-30 0 -46 -23q-12 -15 -27 -12l-13 3q-22 5 -14 24q23 66 94 66q35 0 78 -23.5t56 -23.5q32 0 46 23q14 15 27 13z" />
    <glyph glyph-name="caronalt" horiz-adv-x="600" 
 />
    <glyph glyph-name="IJacute" horiz-adv-x="992" 
d="M932 887q20 8 23 -14l4 -28q3 -20 -18 -24l-191 -30q-21 -4 -24 14v6q-1 19 16 25zM341 886q20 8 23 -14l4 -28q3 -20 -18 -24l-191 -30q-21 -4 -24 14v6q-1 19 16 25zM241 730q20 0 18 -20l-73 -690q-2 -20 -22 -20h-38q-20 0 -18 20l73 690q2 20 22 20h38zM338 222
q0 22 21 22h35q17 0 20 -18q8 -77 57.5 -120.5t135.5 -43.5q90 0 146.5 57.5t67.5 159.5l38 358q3 22 -20 22h-256q-21 0 -18 20l3 31q3 20 23 20h327q28 0 25 -28l-44 -423q-15 -136 -89.5 -212.5t-210.5 -76.5q-110 0 -183 66t-78 166z" />
    <glyph glyph-name="ijacute" horiz-adv-x="533" 
d="M571 733q18 11 26 -8l11 -27q8 -19 -12 -27l-179 -75q-20 -9 -26 8l-2 6q-6 18 10 28zM283 730q18 11 26 -8l11 -27q8 -19 -12 -27l-179 -75q-20 -9 -26 8l-2 6q-6 18 10 28zM199 520q20 0 17 -20l-50 -480q-3 -20 -22 -20h-35q-20 0 -17 20l50 480q2 20 22 20h35z
M298 -207q-39 0 -61 6q-16 4 -13 24l6 24q4 19 24 16q20 -4 34 -4q30 0 50 19t24 57l59 565q3 20 23 20h34q20 0 18 -20l-60 -570q-7 -64 -41.5 -100.5t-96.5 -36.5z" />
    <glyph glyph-name="sign" horiz-adv-x="600" 
 />
    <glyph glyph-name="slashlong.case" horiz-adv-x="600" 
 />
    <glyph glyph-name="slashlong" horiz-adv-x="600" 
 />
    <glyph glyph-name="slashshort.case" horiz-adv-x="600" 
 />
    <glyph glyph-name="slashshort" horiz-adv-x="600" 
 />
    <glyph glyph-name="stroke" horiz-adv-x="600" 
 />
    </font>
</defs>
</svg>
