<?xml version="1.0" standalone="no"?>
<!DOCTYPE svg PUBLIC "-//W3C//DTD SVG 1.1//EN" "http://www.w3.org/Graphics/SVG/1.1/DTD/svg11.dtd" >
<svg xmlns="http://www.w3.org/2000/svg" xmlns:xlink="http://www.w3.org/1999/xlink" version="1.1">
<metadata>
Created by FontForge 20170731 at Thu Jan  4 15:35:30 2018
 By Aleksey,,,
Jorge Cisterna
</metadata>
<defs>
<font id="FibraOne-RegularIt" horiz-adv-x="0" >
  <font-face 
    font-family="Fibra One It"
    font-weight="400"
    font-style="italic"
    font-stretch="normal"
    units-per-em="1000"
    panose-1="0 0 5 0 0 0 0 0 0 0"
    ascent="800"
    descent="-200"
    x-height="520"
    cap-height="730"
    bbox="-760.31 -223 1284 975"
    underline-thickness="50"
    underline-position="-200"
    slope="-6"
    unicode-range="U+0020-FB02"
  />
<missing-glyph horiz-adv-x="600" 
 />
    <glyph glyph-name="fi" unicode="fi" horiz-adv-x="656" 
d="M93 440q-25 0 -22 25l3 30q3 25 28 25h70q9 0 11 10l9 92q9 88 52.5 125.5t123.5 37.5q40 0 86 -13q20 -6 15 -29l-7 -31q-6 -26 -31 -18q-27 8 -57 8q-40 0 -62 -18.5t-26 -61.5l-9 -92q-2 -10 9 -10h126q25 0 22 -25l-3 -30q-3 -25 -28 -25h-126q-9 0 -11 -10l-43 -410
q-3 -25 -28 -25h-44q-25 0 -22 25l43 410q2 10 -9 10h-70zM594 622q-26 0 -43.5 18t-17.5 45q0 29 22.5 50.5t53.5 21.5q25 0 43 -17.5t18 -43.5q0 -30 -23 -52t-53 -22zM602 520q25 0 22 -25l-49 -470q-3 -25 -28 -25h-44q-25 0 -22 25l49 470q3 25 28 25h44z" />
    <glyph glyph-name="fl" unicode="fl" horiz-adv-x="656" 
d="M93 440q-25 0 -22 25l3 30q3 25 28 25h70q9 0 11 10l9 92q9 88 52.5 125.5t123.5 37.5q40 0 86 -13q20 -6 15 -29l-7 -31q-6 -26 -31 -18q-27 8 -57 8q-40 0 -62 -18.5t-26 -61.5l-9 -92q-2 -10 9 -10h126q25 0 22 -25l-3 -30q-3 -25 -28 -25h-126q-9 0 -11 -10l-43 -410
q-3 -25 -28 -25h-44q-25 0 -22 25l43 410q2 10 -9 10h-70zM629 780q25 0 22 -25l-76 -730q-3 -25 -28 -25h-44q-25 0 -22 25l76 730q3 25 28 25h44z" />
    <glyph glyph-name=".notdef" horiz-adv-x="600" 
 />
    <glyph glyph-name=".null" 
 />
    <glyph glyph-name="nonmarkingreturn" horiz-adv-x="333" 
 />
    <glyph glyph-name="space" unicode=" " horiz-adv-x="260" 
 />
    <glyph glyph-name="exclam" unicode="!" horiz-adv-x="272" 
d="M240 780q24 0 21 -25l-65 -540q-3 -25 -31 -25h-19q-28 0 -24 25l47 540q3 25 27 25h44zM135 -10q-25 0 -41 17t-16 42q0 27 21 47t49 20q24 0 40.5 -16.5t16.5 -39.5q0 -28 -21.5 -49t-48.5 -21z" />
    <glyph glyph-name="quotedbl" unicode="&#x22;" horiz-adv-x="355" 
d="M195 780q21 0 19 -21l-21 -194q-1 -19 -21 -19h-28q-20 0 -19 21l21 194q1 19 21 19h28zM350 780q20 0 19 -21l-21 -194q-1 -19 -21 -19h-28q-21 0 -19 21l21 194q1 19 21 19h28z" />
    <glyph glyph-name="numbersign" unicode="#" horiz-adv-x="786" 
d="M58 205l2 23q3 25 28 25h108q29 0 38 30l30 106q5 17 -2.5 26.5t-23.5 9.5h-83q-26 0 -23 25l3 23q3 25 27 25h101q31 0 39 30l41 144q6 23 29 23h32q27 0 19 -27l-38 -134q-5 -17 2 -26.5t24 -9.5h123q32 0 39 30l41 144q6 23 29 23h32q27 0 19 -27l-38 -134
q-5 -17 2 -26.5t24 -9.5h94q26 0 23 -25l-3 -23q-3 -25 -27 -25h-112q-31 0 -39 -30l-30 -106q-9 -36 27 -36h88q24 0 22 -25l-2 -23q-3 -25 -28 -25h-107q-32 0 -39 -30l-36 -127q-6 -23 -29 -23h-31q-27 0 -19 27l32 117q9 36 -26 36h-123q-31 0 -39 -30l-36 -127
q-6 -23 -29 -23h-31q-27 0 -19 27l32 117q9 36 -26 36h-89q-25 0 -22 25zM317 289q-9 -36 27 -36h123q29 0 38 30l30 106q5 17 -2.5 26.5t-23.5 9.5h-123q-32 0 -40 -30z" />
    <glyph glyph-name="dollar" unicode="$" horiz-adv-x="616" 
d="M60 183q-2 13 5 20.5t20 7.5h37q21 0 27 -21q25 -93 127 -113q16 -3 18 14l17 166q2 15 -11 16q-76 8 -128.5 54.5t-52.5 121.5q0 88 60 141t158 59q15 2 17 16l2 23q3 25 28 25h11q24 0 22 -25l-2 -25q-1 -13 12 -16q71 -11 122 -61t58 -118q3 -27 -25 -27h-41
q-21 0 -25 21q-19 77 -95 100q-16 5 -18 -13l-20 -185q-2 -15 11 -16q82 -9 137 -49t55 -115q0 -85 -62 -133.5t-165 -58.5q-14 -1 -16 -15l-4 -38q-3 -25 -28 -25h-11q-26 0 -23 24l5 39q1 13 -12 16q-80 14 -139 64.5t-71 125.5zM211 459q0 -41 26 -67.5t68 -30.5
q17 -2 18 12l19 180q1 7 -5 10.5t-17 2.5q-51 -3 -80 -33.5t-29 -73.5zM390 262q-18 2 -19 -13l-17 -159q-1 -7 3 -11t12 -3q57 8 89.5 34t32.5 67q0 76 -101 85z" />
    <glyph glyph-name="percent" unicode="%" horiz-adv-x="909" 
d="M90 527q0 98 53 155.5t139 57.5q66 0 108.5 -47.5t42.5 -120.5q0 -96 -52.5 -155t-138.5 -59q-64 0 -108 49.5t-44 119.5zM267 54l395 664q13 22 34 13l26 -11q22 -10 9 -33l-393 -667q-14 -23 -35 -12l-27 13q-22 11 -9 33zM166 531q0 -48 22 -74.5t61 -26.5
q49 0 78.5 36.5t29.5 100.5q0 48 -22 74.5t-61 26.5q-49 0 -78.5 -36.5t-29.5 -100.5zM553 159q0 98 53 155.5t138 57.5q65 0 108 -48.5t43 -120.5q0 -95 -53 -154t-138 -59q-64 0 -107.5 50t-43.5 119zM631 162q0 -47 21 -73.5t60 -26.5q49 0 77 37t28 101q0 47 -21 73.5
t-59 26.5q-49 0 -77.5 -37t-28.5 -101z" />
    <glyph glyph-name="ampersand" unicode="&#x26;" horiz-adv-x="743" 
d="M66 183q0 121 115 182q24 13 7 31q-40 43 -40 117q0 92 67.5 151.5t165.5 59.5q91 0 150 -48t73 -125q2 -13 -5 -20.5t-20 -7.5h-46q-21 0 -27 20q-12 43 -43 68.5t-74 25.5q-61 0 -102 -35.5t-41 -94.5q0 -47 27.5 -78.5t66.5 -31.5h57q25 0 22 -25l-3 -26
q-3 -25 -27 -25h-68q-73 0 -115 -35.5t-42 -91.5q0 -50 45 -83.5t121 -33.5q99 0 165 63.5t82 154.5q5 26 -22 26h-26q-26 0 -23 25l3 26q3 25 28 25h207q25 0 22 -25l-3 -26q-3 -25 -27 -25h-38q-24 0 -29 -25q-22 -130 -113 -217.5t-234 -87.5q-111 0 -183.5 55t-72.5 137
z" />
    <glyph glyph-name="quotesingle" unicode="'" horiz-adv-x="200" 
d="M195 780q21 0 19 -21l-21 -194q-1 -19 -21 -19h-28q-20 0 -19 21l21 194q1 19 21 19h28z" />
    <glyph glyph-name="parenleft" unicode="(" horiz-adv-x="317" 
d="M345 739q20 -26 -6 -50q-83 -76 -120.5 -174.5t-37.5 -229.5q0 -96 25.5 -176t61.5 -124q19 -23 -6 -49l-11 -11q-26 -26 -49 -1q-58 60 -89.5 153t-31.5 192q0 166 50.5 280.5t155.5 201.5q29 24 49 -1z" />
    <glyph glyph-name="parenright" unicode=")" horiz-adv-x="317" 
d="M209 416q0 173 -88 273q-22 25 5 50l12 11q26 24 49 1q58 -59 88.5 -149.5t30.5 -193.5q0 -164 -51.5 -280t-156.5 -204q-30 -25 -49 1l-8 11q-19 27 -4 41q172 156 172 439z" />
    <glyph glyph-name="asterisk" unicode="*" horiz-adv-x="355" 
d="M326 693q13 5 23 0t11 -17l1 -6q5 -26 -24 -33l-36 -9q-14 -3 -6 -16l23 -34q15 -20 -7 -38h-1q-24 -19 -37 3l-26 40q-8 13 -17 0l-34 -40q-20 -23 -39 -4l-1 1q-17 18 1 38l32 34q5 4 3.5 9t-7.5 7l-34 9q-25 6 -17 33l2 5q12 28 38 18l29 -13q13 -5 15 10l5 42
q3 28 29 28h9q27 0 24 -28l-5 -42q-1 -7 3 -9.5t10 -0.5z" />
    <glyph glyph-name="plus" unicode="+" horiz-adv-x="488" 
d="M74 280l3 28q3 25 28 25h113q23 0 24 22l12 112q3 25 28 25h29q25 0 22 -25l-12 -112q-2 -22 20 -22h112q25 0 22 -25l-3 -28q-3 -25 -27 -25h-112q-22 0 -24 -22l-12 -112q-3 -25 -28 -25h-28q-25 0 -22 25l11 112q3 22 -19 22h-114q-26 0 -23 25z" />
    <glyph glyph-name="comma" unicode="," horiz-adv-x="226" 
d="M78 89q6 23 31 23h43q28 0 20 -27l-51 -157q-7 -22 -29 -22h-27q-29 0 -22 26z" />
    <glyph glyph-name="hyphen" unicode="-" horiz-adv-x="528" 
d="M455 307q17 0 25.5 -9.5t6.5 -25.5l-1 -6q-5 -35 -39 -35h-319q-17 0 -25.5 9.5t-5.5 25.5l1 6q5 35 38 35h319z" />
    <glyph glyph-name="period" unicode="." horiz-adv-x="256" 
d="M127 -10q-27 0 -44.5 19t-17.5 46q0 30 23 51.5t53 21.5q27 0 45 -17.5t18 -43.5q0 -31 -23.5 -54t-53.5 -23z" />
    <glyph glyph-name="slash" unicode="/" horiz-adv-x="472" 
d="M56 -10q-11 0 -15 7t1 17l378 705q8 14 24 14h47q11 0 15 -6.5t-1 -17.5l-373 -705q-8 -14 -24 -14h-52z" />
    <glyph glyph-name="zero" unicode="0" horiz-adv-x="760" 
d="M92 321q0 188 100 303.5t267 115.5q128 0 208 -93.5t80 -233.5q0 -189 -101 -306t-266 -117q-128 0 -208 94.5t-80 236.5zM192 326q0 -111 52.5 -179.5t144.5 -68.5q112 0 184.5 92.5t72.5 233.5q0 111 -53 179.5t-143 68.5q-113 0 -185.5 -92.5t-72.5 -233.5z" />
    <glyph glyph-name="one" unicode="1" horiz-adv-x="503" 
d="M132 522q-12 -2 -19 4.5t-5 18.5l4 40q3 21 26 26q53 9 108.5 38.5t93.5 65.5q15 15 32 15h10q25 0 22 -25l-61 -585q-3 -28 25 -28h100q25 0 22 -25l-4 -42q-3 -25 -28 -25h-369q-25 0 -22 25l4 42q3 25 28 25h116q28 0 31 28l45 428q1 15 -6 20t-20 -3
q-59 -33 -133 -43z" />
    <glyph glyph-name="two" unicode="2" horiz-adv-x="640" 
d="M128 508q-27 0 -21 26q22 94 96.5 150t183.5 56q106 0 170.5 -55t64.5 -142q0 -57 -28 -109.5t-69 -93.5t-114 -101l-142 -116q-13 -11 -10.5 -21t19.5 -10h302q25 0 22 -25l-4 -42q-3 -25 -28 -25h-490q-22 0 -22 25v7q0 16 17 31l278 236q92 78 115 103q54 60 54 132
q0 53 -39 87.5t-105 34.5q-62 0 -110.5 -34.5t-65.5 -89.5q-8 -24 -30 -24h-44z" />
    <glyph glyph-name="three" unicode="3" horiz-adv-x="660" 
d="M68 178q-3 12 4.5 20t19.5 8h44q25 0 32 -23q31 -108 176 -108q86 0 135 36.5t49 97.5q0 115 -165 115h-55q-25 0 -22 25l4 37q3 25 27 25h55q69 0 111.5 34t48.5 87q7 55 -28.5 89.5t-101.5 34.5q-138 0 -179 -105q-9 -22 -29 -22h-44q-13 0 -19 7.5t-2 19.5
q64 184 282 184q107 0 168 -56.5t53 -144.5q-9 -94 -98 -151q-9 -6 -11.5 -10t0 -7.5t11.5 -8.5q92 -46 92 -153q0 -99 -78.5 -159t-212.5 -60q-105 0 -174.5 49.5t-92.5 138.5z" />
    <glyph glyph-name="four" unicode="4" horiz-adv-x="653" 
d="M67 149q-26 0 -23 25l2 14q1 16 13 31q237 288 275 492q4 24 27 24h49q28 0 22 -26q-23 -101 -85.5 -221t-148.5 -224q-12 -14 -8 -25t21 -11h194q28 0 31 28l18 175q3 25 28 25h43q25 0 22 -25l-18 -175q-3 -28 25 -28h79q25 0 22 -25l-3 -29q-3 -25 -27 -25h-79
q-28 0 -31 -28l-11 -101q-3 -25 -28 -25h-43q-25 0 -22 25l11 101q3 28 -25 28h-330z" />
    <glyph glyph-name="five" unicode="5" horiz-adv-x="618" 
d="M62 178q-3 13 3.5 20.5t20.5 7.5h48q20 0 26 -20q32 -112 171 -112q80 0 124.5 42t44.5 107q0 70 -45.5 107.5t-129.5 37.5h-156q-51 0 -46 51l30 283q3 28 31 28h383q25 0 22 -25l-4 -42q-3 -25 -28 -25h-294q-28 0 -31 -28l-13 -126q-3 -28 25 -28h82q127 0 200.5 -58
t73.5 -170q0 -107 -72.5 -172.5t-200.5 -65.5q-111 0 -177.5 49t-87.5 139z" />
    <glyph glyph-name="six" unicode="6" horiz-adv-x="666" 
d="M92 305q0 216 93 325.5t245 109.5q86 0 147 -49.5t75 -128.5q2 -12 -5 -20t-19 -8l-47 1q-18 0 -26 20q-13 45 -48 72.5t-86 27.5q-91 0 -157.5 -67.5t-72.5 -186.5q0 -4 -2 -16t3.5 -14.5t16.5 6.5q80 64 210 64q99 0 161.5 -67t55.5 -158q-7 -103 -83.5 -164.5
t-192.5 -61.5q-130 0 -199 84.5t-69 230.5zM195 248q-9 -19 -5 -36q31 -137 169 -137q75 0 128 44.5t53 109.5q0 56 -39.5 93t-104.5 37q-63 0 -118 -30t-83 -81z" />
    <glyph glyph-name="seven" unicode="7" horiz-adv-x="559" 
d="M114 638q-25 0 -22 25l4 42q3 25 28 25h454q30 0 30 -26v-6q0 -24 -14 -39q-144 -151 -221.5 -298.5t-101.5 -335.5q-3 -25 -29 -25h-57q-26 0 -21 26q32 177 95 311.5t192 271.5q11 12 6 20.5t-20 8.5h-323z" />
    <glyph glyph-name="eight" unicode="8" horiz-adv-x="673" 
d="M73 190q0 114 122 187q27 17 6 38q-54 54 -54 120q0 94 72 149.5t195 55.5q100 0 163 -49t63 -129q0 -89 -76 -152q-26 -21 -2 -38q82 -57 82 -148q0 -112 -81.5 -173t-227.5 -61q-110 0 -186 58.5t-76 141.5zM243 533q0 -48 36.5 -77.5t101.5 -29.5q74 0 118.5 36
t44.5 92q0 48 -38 79t-100 31q-71 0 -117 -37.5t-46 -93.5zM170 199q0 -58 47.5 -94t125.5 -36q89 0 146.5 43t57.5 110q0 58 -46 92t-128 34q-93 0 -148 -40.5t-55 -108.5z" />
    <glyph glyph-name="nine" unicode="9" horiz-adv-x="664" 
d="M649 439q0 -101 -18 -180.5t-56.5 -141t-104 -94.5t-153.5 -33t-150.5 52t-77.5 136q-2 13 5 20.5t20 7.5h45q21 0 25 -22q12 -53 50.5 -81.5t95.5 -28.5q163 0 213 229q1 4 2.5 13t2.5 14q2 13 -5 16.5t-17 -5.5q-84 -72 -198 -72q-95 0 -158.5 65.5t-63.5 146.5
q0 126 78.5 192.5t208.5 66.5q112 0 184 -78.5t72 -222.5zM204 490q0 -57 38.5 -96.5t109.5 -39.5q57 0 111.5 32.5t81.5 80.5q10 20 6 42q-15 71 -59.5 108.5t-108.5 37.5q-78 0 -128.5 -44.5t-50.5 -120.5z" />
    <glyph glyph-name="colon" unicode=":" horiz-adv-x="273" 
d="M171 334q-26 0 -44 19t-18 46q0 30 23 51.5t54 21.5q26 0 44 -17.5t18 -43.5q0 -31 -23 -54t-54 -23zM135 -10q-27 0 -44.5 19t-17.5 46q0 30 23 51.5t53 21.5q27 0 45 -17.5t18 -43.5q0 -31 -23.5 -54t-53.5 -23z" />
    <glyph glyph-name="semicolon" unicode=";" horiz-adv-x="264" 
d="M169 336q-26 0 -44 19t-18 46q0 30 23 51.5t54 21.5q26 0 44 -17.5t18 -43.5q0 -31 -23 -54t-54 -23zM98 89q6 23 30 23h44q28 0 19 -27l-48 -154q-6 -22 -31 -22h-27q-27 0 -21 26z" />
    <glyph glyph-name="less" unicode="&#x3c;" horiz-adv-x="471" 
d="M90 227q-19 9 -16 30l4 34q1 20 20 29l331 154q14 6 22 1t6 -20l-5 -42q-2 -22 -22 -29l-225 -93q-16 -7 -17.5 -16.5t13.5 -16.5l207 -89q19 -9 16 -29l-5 -42q-2 -14 -10.5 -19.5t-20.5 0.5z" />
    <glyph glyph-name="equal" unicode="=" horiz-adv-x="524" 
d="M467 387q25 0 22 -25l-3 -27q-3 -25 -27 -25h-328q-26 0 -23 25l3 27q3 25 28 25h328zM448 206q25 0 22 -25l-3 -27q-3 -25 -27 -25h-328q-26 0 -23 25l3 27q3 25 28 25h328z" />
    <glyph glyph-name="greater" unicode="&#x3e;" horiz-adv-x="471" 
d="M100 79q-14 -6 -21.5 -0.5t-6.5 19.5l5 45q3 21 22 29l225 89q15 6 20.5 11.5t1.5 10.5t-18 11l-206 93q-20 9 -17 29l5 39q2 14 10.5 19.5t20.5 -0.5l299 -154q16 -9 15 -29l-4 -34q-1 -21 -22 -30z" />
    <glyph glyph-name="question" unicode="?" horiz-adv-x="565" 
d="M116 529q-13 0 -18.5 7.5t-0.5 20.5q35 88 102 135.5t162 47.5q94 0 155.5 -55.5t61.5 -143.5q0 -57 -14.5 -98.5t-44 -70.5t-66.5 -47.5t-91 -35.5q-30 -9 -34 -37l-7 -47q-5 -24 -29 -24h-21q-25 0 -23 24l4 97q1 41 45 50q87 18 135 64.5t48 114.5q0 56 -35 89t-93 33
q-110 0 -165 -104q-11 -20 -30 -20h-41zM205 49q0 27 21 47t49 20q24 0 40.5 -16.5t16.5 -39.5q0 -28 -21.5 -49t-48.5 -21q-25 0 -41 17t-16 42z" />
    <glyph glyph-name="at" unicode="@" horiz-adv-x="940" 
d="M80 269q0 206 148 339.5t379 133.5q139 0 239 -86t100 -222q0 -138 -67 -221t-170 -83q-54 0 -87 44q-11 16 -29 3q-66 -50 -157 -50q-65 0 -110 47t-45 117q0 114 68.5 182.5t179.5 68.5q87 0 131 -56q11 -15 21 3l13 25q9 20 31 20h5q28 0 20 -27l-68 -240
q-10 -35 4 -52.5t43 -17.5q62 0 100.5 66.5t38.5 160.5q0 109 -76 177t-201 68q-183 0 -308 -114.5t-125 -281.5q0 -118 74.5 -187t197.5 -69q86 0 166 26q20 7 30.5 1.5t5.5 -21.5l-5 -15q-9 -28 -35 -36q-81 -28 -181 -28q-144 0 -237.5 91.5t-93.5 233.5zM360 300
q0 -46 26 -74t69 -28q89 0 142 63q12 14 18 36l19 66q7 23 1 39q-24 70 -111 70q-70 0 -117 -47.5t-47 -124.5z" />
    <glyph glyph-name="A" unicode="A" horiz-adv-x="713" 
d="M39 0q-12 0 -17 8t1 21l342 682q9 19 29 19h76q19 0 25 -19l200 -682q8 -29 -22 -29h-52q-22 0 -27 20l-37 136q-3 11 -14 11h-340q-12 0 -18 -11l-64 -136q-10 -20 -31 -20h-51zM244 276q-4 -7 -1.5 -11.5t10.5 -4.5h258q8 0 11.5 4.5t1.5 11.5l-95 342q-1 5 -4.5 7
t-7.5 0t-6 -7z" />
    <glyph glyph-name="B" unicode="B" horiz-adv-x="673" 
d="M127 0q-28 0 -25 28l71 674q3 28 31 28h221q106 0 169 -49.5t63 -125.5q0 -107 -101 -163q-28 -16 -2 -28q40 -20 64 -60.5t24 -89.5q0 -97 -74.5 -155.5t-197.5 -58.5h-243zM240 433q-2 -18 17 -18h133q71 0 120.5 36.5t49.5 92.5q0 51 -38.5 76.5t-108.5 25.5h-132
q-18 0 -20 -18zM206 102q-2 -18 16 -18h151q82 0 127 37.5t45 94.5q0 33 -15 57t-40 36t-51.5 17t-55.5 5h-135q-18 0 -20 -18z" />
    <glyph glyph-name="C" unicode="C" horiz-adv-x="828" 
d="M85 331q0 177 124 293t300 116q133 0 222.5 -82t96.5 -196q2 -26 -26 -26h-51q-22 0 -25 23q-8 83 -69 136.5t-158 53.5q-128 0 -220.5 -88t-92.5 -223q0 -115 72 -186t182 -71q90 0 160.5 41.5t102.5 115.5q9 21 30 21h51q12 0 17.5 -8t0.5 -20q-41 -106 -140.5 -173.5
t-231.5 -67.5q-143 0 -244 96t-101 245z" />
    <glyph glyph-name="D" unicode="D" horiz-adv-x="796" 
d="M127 0q-28 0 -25 28l71 674q3 28 31 28h243q148 0 244 -94.5t96 -235.5q0 -179 -120.5 -289.5t-296.5 -110.5h-243zM208 103q-2 -18 16 -18h155q125 0 216 83.5t91 227.5q0 118 -71 184t-177 66h-155q-18 0 -20 -18z" />
    <glyph glyph-name="E" unicode="E" horiz-adv-x="566" 
d="M127 0q-28 0 -25 28l71 674q3 28 31 28h355q25 0 22 -25l-4 -35q-3 -25 -27 -25h-268q-18 0 -20 -18l-21 -203q-2 -18 16 -18h248q25 0 22 -25l-4 -36q-3 -25 -27 -25h-248q-18 0 -20 -18l-21 -198q-2 -18 16 -18h273q25 0 22 -25l-3 -36q-3 -25 -28 -25h-360z" />
    <glyph glyph-name="F" unicode="F" horiz-adv-x="551" 
d="M124 0q-25 0 -22 25l71 677q3 28 31 28h357q25 0 22 -25l-4 -36q-3 -25 -27 -25h-269q-18 0 -20 -18l-22 -208q-2 -18 16 -18h264q25 0 22 -25l-3 -36q-3 -25 -28 -25h-264q-18 0 -20 -18l-28 -271q-3 -25 -28 -25h-48z" />
    <glyph glyph-name="G" unicode="G" horiz-adv-x="820" 
d="M85 333q0 122 58 216.5t150 142.5t199 48q135 0 218.5 -74t101.5 -186q2 -12 -5 -19.5t-20 -7.5h-42q-20 0 -25 23q-12 73 -72.5 125t-159.5 52q-124 0 -213 -87.5t-89 -229.5q0 -115 72.5 -187.5t181.5 -72.5q94 0 158.5 42t95.5 116q8 20 -13 20h-182q-26 0 -23 25
l4 35q3 25 28 25h263q16 0 24 -8.5t6 -20.5l-2 -13q-21 -135 -118.5 -221t-249.5 -86q-144 0 -245 96t-101 247z" />
    <glyph glyph-name="H" unicode="H" horiz-adv-x="832" 
d="M124 0q-25 0 -22 25l71 680q3 25 28 25h48q25 0 22 -25l-28 -267q-3 -28 25 -28h382q28 0 31 28l28 267q3 25 28 25h48q25 0 22 -25l-71 -680q-3 -25 -28 -25h-48q-25 0 -22 25l27 264q3 28 -25 28h-382q-28 0 -31 -28l-27 -264q-3 -25 -28 -25h-48z" />
    <glyph glyph-name="I" unicode="I" horiz-adv-x="297" 
d="M249 730q25 0 22 -25l-71 -680q-3 -25 -28 -25h-48q-25 0 -22 25l71 680q3 25 28 25h48z" />
    <glyph glyph-name="J" unicode="J" horiz-adv-x="683" 
d="M46 223q0 27 27 27h44q22 0 25 -23q8 -68 55.5 -107t126.5 -39q82 0 136.5 54.5t63.5 137.5l36 339q3 28 -25 28h-240q-25 0 -22 25l4 40q3 25 28 25h330q34 0 31 -35l-44 -422q-14 -127 -90.5 -205t-217.5 -78q-111 0 -186 66.5t-82 166.5z" />
    <glyph glyph-name="K" unicode="K" horiz-adv-x="647" 
d="M249 730q25 0 22 -25l-71 -680q-3 -25 -28 -25h-48q-25 0 -22 25l71 680q3 25 28 25h48zM285 319q-12 15 -9 35l3 22q3 22 15 35l284 305q13 14 33 14h57q16 0 19 -9.5t-8 -21.5l-300 -326q-13 -13 -2 -25l250 -317q10 -12 4.5 -21.5t-21.5 -9.5h-64q-21 0 -29 14z" />
    <glyph glyph-name="L" unicode="L" horiz-adv-x="576" 
d="M134 0q-34 0 -31 35l70 670q3 25 28 25h48q25 0 22 -25l-62 -595q-2 -18 16 -18h321q25 0 22 -25l-4 -42q-3 -25 -28 -25h-402z" />
    <glyph glyph-name="M" unicode="M" horiz-adv-x="895" 
d="M124 0q-25 0 -22 25l70 670q3 35 39 35h25q26 0 39 -23l198 -351q4 -8 11.5 -8t13.5 8l271 351q18 23 45 23h24q34 0 31 -35l-70 -670q-3 -25 -28 -25h-41q-25 0 -22 25l52 503q1 13 -6 15t-15 -9l-224 -289q-15 -21 -42 -21h-1q-26 0 -38 21l-166 289q-6 10 -13.5 8
t-9.5 -15l-52 -502q-3 -25 -28 -25h-41z" />
    <glyph glyph-name="N" unicode="N" horiz-adv-x="820" 
d="M124 0q-25 0 -22 25l70 672q3 33 37 33h10q26 0 38 -19l372 -542q7 -10 14.5 -7.5t8.5 15.5l55 528q3 25 28 25h37q25 0 22 -25l-71 -672q-3 -33 -36 -33h-21q-26 0 -39 19l-362 515q-7 10 -14.5 8t-8.5 -15l-52 -502q-3 -25 -28 -25h-38z" />
    <glyph glyph-name="O" unicode="O" horiz-adv-x="869" 
d="M85 331q0 125 59 219.5t155.5 142t212.5 47.5q150 0 249.5 -93t99.5 -245q0 -178 -121.5 -295t-306.5 -117q-147 0 -247.5 92t-100.5 249zM186 338q0 -117 72.5 -189.5t183.5 -72.5q131 0 224.5 90.5t93.5 228.5q0 115 -72.5 187t-184.5 72q-131 0 -224 -89.5t-93 -226.5
z" />
    <glyph glyph-name="P" unicode="P" horiz-adv-x="623" 
d="M124 0q-25 0 -22 25l71 677q3 28 31 28h160q121 0 200 -69.5t79 -174.5q0 -120 -96 -196.5t-238 -76.5h-72q-17 0 -19 -18l-18 -170q-3 -25 -28 -25h-48zM230 317q-2 -18 16 -18h74q93 0 158 55t65 134q0 71 -52 113.5t-134 42.5h-74q-18 0 -20 -18z" />
    <glyph glyph-name="Q" unicode="Q" horiz-adv-x="869" 
d="M737 104l46 -60q18 -23 -8 -43l-18 -14q-25 -19 -43 3l-48 61q-103 -61 -233 -61q-147 0 -247.5 92t-100.5 249q0 125 59 219.5t155.5 142t212.5 47.5q150 0 249.5 -93t99.5 -245q0 -182 -124 -298zM442 76q89 0 168 46l-94 119q-18 22 8 43l21 17q24 19 42 -3l92 -119
q81 89 81 216q0 115 -72.5 187t-184.5 72q-131 0 -224 -89.5t-93 -226.5q0 -117 72.5 -189.5t183.5 -72.5z" />
    <glyph glyph-name="R" unicode="R" horiz-adv-x="624" 
d="M102 25l71 677q3 28 31 28h149q119 0 196 -64t77 -166q0 -69 -40.5 -123.5t-97.5 -82t-117 -30.5l-5 -1q-8 -2 -10.5 -8.5t5.5 -14.5l192 -210q11 -12 6.5 -21.5t-21.5 -9.5l-69 1q-18 0 -30 13l-195 222q-8 9 -14.5 6t-8.5 -15l-21 -201q-3 -25 -28 -25h-48
q-25 0 -22 25zM235 359q-2 -18 16 -18h61q96 0 155 44.5t59 117.5q0 64 -49.5 102.5t-133.5 38.5h-60q-18 0 -20 -18z" />
    <glyph glyph-name="S" unicode="S" horiz-adv-x="626" 
d="M60 183q-3 13 3.5 20.5t20.5 7.5h48q20 0 26 -20q37 -114 181 -114q68 0 112.5 29t44.5 85q0 31 -16 55t-41.5 38.5t-58.5 28t-67.5 24t-67.5 27t-58.5 36.5t-41.5 52.5t-16 74.5q0 95 67.5 154t177.5 59q94 0 162.5 -53.5t81.5 -129.5q2 -13 -5 -20.5t-20 -7.5h-46
q-20 0 -26 20q-14 46 -55.5 75t-100.5 29q-60 0 -98.5 -32t-38.5 -83q0 -39 27.5 -66t68 -41t88.5 -33t88.5 -39.5t68 -61.5t27.5 -99q0 -98 -75 -153t-191 -55q-101 0 -175.5 53t-94.5 140z" />
    <glyph glyph-name="T" unicode="T" horiz-adv-x="591" 
d="M107 638q-25 0 -22 25l4 42q3 25 28 25h511q25 0 22 -25l-4 -42q-3 -25 -28 -25h-182q-25 0 -28 -25l-61 -588q-3 -25 -28 -25h-52q-25 0 -22 25l61 588q3 25 -22 25h-177z" />
    <glyph glyph-name="U" unicode="U" horiz-adv-x="788" 
d="M120 307l42 398q3 25 28 25h50q25 0 22 -25l-42 -404q-11 -98 39.5 -159.5t142.5 -61.5q90 0 155 60.5t75 160.5l42 404q3 25 28 25h50q25 0 22 -25l-42 -398q-15 -143 -105.5 -230t-233.5 -87q-128 0 -207.5 90.5t-65.5 226.5z" />
    <glyph glyph-name="V" unicode="V" horiz-adv-x="703" 
d="M91 701q-8 29 22 29h60q20 0 26 -20l156 -573q2 -9 7.5 -12.5t11.5 0t10 12.5l269 573q9 20 30 20h55q30 0 16 -29l-333 -674q-13 -27 -44 -27h-48q-29 0 -37 27z" />
    <glyph glyph-name="W" unicode="W" horiz-adv-x="987" 
d="M99 702q-5 28 24 28h52q23 0 26 -21l79 -516q2 -16 11.5 -16t15.5 15l204 516q8 22 34 22h56q23 0 28 -23l97 -519q2 -10 7 -14t11 0t10 15l186 519q8 22 29 22h45q29 0 18 -28l-256 -679q-8 -23 -32 -23h-50q-24 0 -29 23l-94 527q-3 15 -12.5 15t-15.5 -15l-213 -528
q-8 -22 -33 -22h-49q-24 0 -28 23z" />
    <glyph glyph-name="X" unicode="X" horiz-adv-x="674" 
d="M39 0q-16 0 -19.5 9t7.5 21l280 327q13 16 4 31l-191 312q-7 13 -2 21.5t20 8.5h55q18 0 28 -16l153 -251q13 -21 31 0l209 252q12 15 32 15h53q16 0 19.5 -8.5t-7.5 -21.5l-264 -312q-13 -16 -4 -31l201 -327q7 -13 2 -21.5t-20 -8.5h-55q-19 0 -29 16l-161 264
q-13 21 -31 0l-221 -265q-13 -15 -32 -15h-58z" />
    <glyph glyph-name="Y" unicode="Y" horiz-adv-x="641" 
d="M96 700q-7 14 -1 22t21 8h58q21 0 28 -17l146 -325q5 -11 13.5 -11t16.5 11l216 325q11 17 32 17h46q14 0 18.5 -8t-4.5 -22l-278 -411q-9 -14 -10 -28l-24 -232q-3 -29 -32 -29h-40q-29 0 -26 29l24 232q2 16 -4 28z" />
    <glyph glyph-name="Z" unicode="Z" horiz-adv-x="658" 
d="M46 0q-25 0 -22 23l1 6q3 17 13 30l476 550q12 14 8 24t-21 10h-366q-26 0 -23 25l4 37q3 25 28 25h526q21 0 21 -23v-6q0 -14 -13 -30l-476 -551q-12 -14 -8 -24t21 -10h403q25 0 22 -25l-3 -36q-3 -25 -28 -25h-563z" />
    <glyph glyph-name="bracketleft" unicode="[" horiz-adv-x="332" 
d="M125 -106q-20 0 -30 11t-8 31l85 806q5 38 42 38h134q34 0 31 -35l-1 -15q-3 -35 -39 -35h-67q-18 0 -19 -17l-71 -680q-2 -19 17 -19h65q34 0 31 -35l-1 -15q-3 -35 -39 -35h-130z" />
    <glyph glyph-name="backslash" unicode="\" horiz-adv-x="466" 
d="M424 19q4 -13 -2 -21t-20 -8h-31q-21 0 -27 19l-227 695q-4 13 2 21t20 8h31q21 0 27 -19z" />
    <glyph glyph-name="bracketright" unicode="]" horiz-adv-x="332" 
d="M56 -106q-34 0 -31 35l1 15q3 35 39 35h66q18 0 19 17l71 680q2 19 -17 19h-64q-34 0 -31 35l1 15q3 35 39 35h141q30 0 27 -30l-87 -826q-3 -30 -33 -30h-141z" />
    <glyph glyph-name="asciicircum" unicode="^" horiz-adv-x="477" 
d="M135 626q-10 20 14 34l135 76q30 17 58 0l124 -76q21 -13 7 -34l-3 -4q-14 -21 -34 -11l-103 48q-27 13 -56 0l-108 -48q-22 -10 -32 11z" />
    <glyph glyph-name="underscore" unicode="_" horiz-adv-x="562" 
d="M480 0q31 0 31 -35v-6q-2 -35 -39 -35h-399q-31 0 -31 35v6q2 35 39 35h399z" />
    <glyph glyph-name="grave" unicode="`" horiz-adv-x="600" 
d="M304 738q14 23 34 9l155 -100q21 -14 7 -34l-5 -7q-14 -21 -35 -12l-168 76q-22 11 -9 33z" />
    <glyph glyph-name="a" unicode="a" horiz-adv-x="579" 
d="M55 129q0 76 63 121t174 44l116 -1q39 0 39 47q0 52 -32 80t-89 28q-49 0 -85 -21.5t-49 -56.5q-8 -22 -29 -22h-39q-13 0 -19 7t-2 20q21 73 83 114t153 41q101 0 154.5 -60.5t42.5 -164.5l-29 -280q-3 -25 -28 -25h-12q-22 0 -26 21l-2 10q-4 19 -15.5 23.5t-28.5 -7.5
q-78 -57 -185 -57q-65 0 -110 41t-45 98zM150 138q0 -32 25 -48.5t65 -16.5q80 0 165 57q22 15 25 42l1 10q3 35 -31 35h-114q-136 0 -136 -79z" />
    <glyph glyph-name="b" unicode="b" horiz-adv-x="660" 
d="M84 25l76 730q3 25 28 25h41q25 0 22 -25l-26 -246q-2 -21 8 -24t31 9q67 36 148 36q109 0 170.5 -67.5t61.5 -175.5q0 -133 -84.5 -215t-205.5 -82q-98 0 -157 57q-14 13 -26.5 7t-19.5 -26l-2 -6q-8 -22 -29 -22h-14q-25 0 -22 25zM196 202q-3 -23 7 -43
q44 -88 151 -88q76 0 135 62t59 146q0 72 -44.5 121t-109.5 49q-103 0 -170 -87q-13 -17 -15 -43z" />
    <glyph glyph-name="c" unicode="c" horiz-adv-x="600" 
d="M527 331q-21 0 -25 22q-10 40 -47 68t-91 28q-82 0 -139.5 -59.5t-57.5 -149.5q0 -76 44.5 -122.5t111.5 -46.5q53 0 95 24t60 65q9 21 30 21h43q13 0 18.5 -7.5t1.5 -19.5q-26 -74 -94.5 -119t-159.5 -45q-105 0 -175.5 72.5t-70.5 174.5q0 124 85.5 208.5t214.5 84.5
q90 0 152 -50.5t71 -121.5q3 -27 -26 -27h-41z" />
    <glyph glyph-name="d" unicode="d" horiz-adv-x="659" 
d="M71 235q0 128 85 211.5t212 83.5q70 0 130 -34q38 -22 42 20l25 239q3 25 28 25h41q25 0 22 -25l-76 -730q-3 -25 -28 -25h-10q-22 0 -26 21l-1 6q-6 37 -40 11q-64 -48 -162 -48q-106 0 -174 69.5t-68 175.5zM167 244q0 -74 45 -123.5t112 -49.5q99 0 164 83
q13 16 16 43l13 127q3 27 -6 43q-46 82 -147 82q-77 0 -137 -60t-60 -145z" />
    <glyph glyph-name="e" unicode="e" horiz-adv-x="595" 
d="M71 236q0 122 79 208t202 86q114 0 171 -67.5t57 -168.5q0 -59 -39 -59l-340 1q-18 0 -28.5 -10.5t-7.5 -27.5q10 -59 50 -93t101 -34q49 0 87 19.5t56 53.5q11 20 31 20h38q13 0 19 -8t0 -20q-65 -146 -239 -146q-98 0 -167.5 69.5t-69.5 176.5zM194 354
q-10 -17 -3 -28.5t27 -11.5l231 -1q19 0 29 11t5 29q-12 44 -49 70.5t-88 26.5q-94 0 -152 -96z" />
    <glyph glyph-name="f" unicode="f" horiz-adv-x="395" 
d="M93 440q-25 0 -22 25l3 30q3 25 28 25h70q9 0 11 10l9 92q9 88 52.5 125.5t123.5 37.5q40 0 86 -13q20 -6 15 -29l-7 -31q-6 -26 -31 -18q-27 8 -57 8q-40 0 -62 -18.5t-26 -61.5l-9 -92q-2 -10 9 -10h126q25 0 22 -25l-3 -30q-3 -25 -28 -25h-126q-9 0 -11 -10l-43 -410
q-3 -25 -28 -25h-44q-25 0 -22 25l43 410q2 10 -9 10h-70z" />
    <glyph glyph-name="g" unicode="g" horiz-adv-x="658" 
d="M70 239q0 126 84 208.5t213 82.5q84 0 149 -55q15 -13 27.5 -8.5t17.5 26.5l1 5q5 22 31 22h14q25 0 22 -25l-50 -476q-12 -110 -86 -171t-194 -61q-78 0 -139 37.5t-78 96.5q-4 13 3 20.5t21 7.5h38q18 0 27 -20q13 -29 49.5 -45.5t86.5 -16.5q75 0 130 43t55 109v3
q1 19 -8.5 21t-28.5 -11q-57 -36 -141 -36q-111 0 -177.5 68t-66.5 175zM167 247q0 -72 45.5 -121.5t112.5 -49.5q104 0 164 85q12 16 15 43l13 118q3 23 -7 43q-44 84 -146 84q-78 0 -137.5 -59.5t-59.5 -142.5z" />
    <glyph glyph-name="h" unicode="h" horiz-adv-x="647" 
d="M106 0q-25 0 -22 25l76 730q3 25 28 25h40q25 0 22 -25l-26 -252q-2 -21 8.5 -26t30.5 6q91 47 183 47q82 0 126 -51.5t34 -145.5l-32 -308q-3 -25 -28 -25h-44q-25 0 -22 25l32 304q6 57 -20 87.5t-77 30.5q-70 0 -176 -60q-25 -14 -28 -42l-33 -320q-3 -25 -28 -25h-44
z" />
    <glyph glyph-name="i" unicode="i" horiz-adv-x="261" 
d="M199 622q-26 0 -43.5 18t-17.5 45q0 29 22.5 50.5t53.5 21.5q26 0 43.5 -17.5t17.5 -43.5q0 -30 -23 -52t-53 -22zM207 520q25 0 22 -25l-49 -470q-3 -25 -28 -25h-44q-25 0 -22 25l49 470q3 25 28 25h44z" />
    <glyph glyph-name="j" unicode="j" horiz-adv-x="267" 
d="M203 622q-26 0 -43.5 18t-17.5 45q0 29 22.5 50.5t53.5 21.5q26 0 43.5 -17.5t17.5 -43.5q0 -30 -23 -52t-53 -22zM29 -210q-38 0 -61 5q-21 4 -16 29l7 31q4 23 29 20q16 -2 25 -2q63 0 70 72l58 550q3 25 28 25h44q25 0 22 -25l-59 -557q-15 -148 -147 -148z" />
    <glyph glyph-name="k" unicode="k" horiz-adv-x="572" 
d="M106 0q-25 0 -22 25l76 730q3 25 28 25h44q25 0 22 -25l-44 -443q-2 -24 9.5 -29.5t31.5 12.5l230 212q13 13 33 13h51q17 0 20 -9.5t-10 -21.5l-177 -171q-25 -23 -8 -49l162 -238q8 -12 3 -21.5t-21 -9.5h-53q-18 0 -29 15l-126 190q-19 30 -49 3l-69 -61
q-19 -16 -22 -44l-8 -78q-3 -25 -28 -25h-44z" />
    <glyph glyph-name="l" unicode="l" horiz-adv-x="261" 
d="M234 780q25 0 22 -25l-76 -730q-3 -25 -28 -25h-44q-25 0 -22 25l76 730q3 25 28 25h44z" />
    <glyph glyph-name="m" unicode="m" horiz-adv-x="1042" 
d="M106 0q-25 0 -22 25l49 470q3 25 28 25h17q10 0 15 -5t9 -17l5 -15q9 -28 41 -9q95 56 194 56q72 0 132 -55q24 -23 52 -6q97 61 207 61q86 0 131.5 -52.5t36.5 -144.5l-32 -308q-3 -25 -28 -25h-44q-25 0 -22 25l31 303q6 57 -19.5 88t-78.5 31q-69 0 -175 -60
q-26 -14 -26 -34q0 -13 -1 -20l-32 -308q-3 -25 -28 -25h-44q-25 0 -22 25l31 303q6 57 -19.5 88t-78.5 31q-75 0 -174 -59q-25 -15 -28 -42l-33 -321q-3 -25 -28 -25h-44z" />
    <glyph glyph-name="n" unicode="n" horiz-adv-x="651" 
d="M106 0q-25 0 -22 25l49 470q3 25 28 25h18q22 0 25 -22l1 -8q4 -38 44 -15q94 55 202 55q80 0 125 -53t35 -144l-32 -308q-3 -25 -28 -25h-44q-25 0 -22 25l32 304q6 57 -20.5 87.5t-81.5 30.5q-73 0 -176 -60q-25 -15 -28 -42l-33 -320q-3 -25 -28 -25h-44z" />
    <glyph glyph-name="o" unicode="o" horiz-adv-x="641" 
d="M71 237q0 125 86.5 209t219.5 84q107 0 177.5 -70t70.5 -172q0 -127 -86 -212.5t-219 -85.5q-106 0 -177.5 71.5t-71.5 175.5zM165 242q0 -73 45 -122t118 -49q85 0 144 61t59 147q0 73 -45.5 121.5t-117.5 48.5q-86 0 -144.5 -60.5t-58.5 -146.5z" />
    <glyph glyph-name="p" unicode="p" horiz-adv-x="658" 
d="M83 -220q-25 0 -22 25l72 690q3 25 28 25h18q24 0 24 -23v-2q0 -14 5.5 -19.5t15 -4t21.5 10.5q67 48 165 48q113 0 173 -70t60 -173q0 -129 -86 -213t-206 -84q-87 0 -140 38q-37 28 -42 -16l-21 -207q-3 -25 -28 -25h-37zM196 198q-3 -25 6 -43q45 -84 148 -84
q78 0 137.5 61.5t59.5 146.5q0 72 -45.5 121t-111.5 49q-107 0 -166 -83q-12 -16 -15 -43z" />
    <glyph glyph-name="q" unicode="q" horiz-adv-x="659" 
d="M71 235q0 134 85 214.5t216 80.5q82 0 146 -53q36 -29 45 15l1 6q5 22 30 22h13q25 0 22 -25l-71 -680q-3 -25 -28 -25h-36q-25 0 -22 25l20 197q2 22 -8 25t-30 -11q-54 -36 -136 -36q-108 0 -177.5 70t-69.5 175zM167 244q0 -74 46.5 -123.5t116.5 -49.5q93 0 158 83
q13 16 16 43l13 127q3 27 -6 43q-46 82 -141 82q-82 0 -142.5 -60t-60.5 -145z" />
    <glyph glyph-name="r" unicode="r" horiz-adv-x="413" 
d="M106 0q-25 0 -22 25l49 470q3 25 28 25h18q19 0 24 -22l1 -5q7 -33 44 -10q75 47 154 47q17 0 32 -3q22 -4 16 -29l-9 -42q-6 -24 -31 -20q-16 3 -37 3q-58 0 -137 -58q-22 -17 -25 -43l-33 -313q-3 -25 -28 -25h-44z" />
    <glyph glyph-name="s" unicode="s" horiz-adv-x="544" 
d="M101 374q-1 71 55 113.5t165 42.5q91 0 146.5 -42.5t59.5 -108.5q1 -12 -6.5 -19t-20.5 -7h-37q-21 0 -24 22q-5 35 -35.5 57.5t-86.5 22.5q-58 0 -90.5 -21.5t-32.5 -53.5t33 -50t80 -27.5t94.5 -22.5t80.5 -45.5t33 -85.5q0 -74 -64.5 -116.5t-171.5 -42.5
q-84 0 -149 43t-74 111q-3 27 25 27h39q20 0 26 -21q11 -41 49 -63t94 -22q60 0 96.5 21.5t36.5 60.5q0 32 -33 50.5t-80 28t-94 22t-80.5 44t-33.5 82.5z" />
    <glyph glyph-name="t" unicode="t" horiz-adv-x="418" 
d="M97 440q-25 0 -22 25l3 30q3 25 28 25h45q9 0 11 10l9 92q3 22 24 28l43 11q14 4 21 -2.5t5 -19.5l-11 -109q-2 -10 9 -10h163q25 0 22 -25l-3 -30q-3 -25 -28 -25h-163q-9 0 -11 -10l-29 -276q-9 -81 64 -81q39 0 95 15q28 8 28 -18v-30q0 -23 -21 -30q-63 -20 -127 -20
q-66 0 -104 40.5t-29 121.5l29 278q2 10 -9 10h-42z" />
    <glyph glyph-name="u" unicode="u" horiz-adv-x="631" 
d="M96 187l32 308q3 25 28 25h44q25 0 22 -25l-32 -304q-6 -57 19 -87.5t78 -30.5q56 0 158 52q25 13 28 41l35 329q3 25 28 25h44q25 0 22 -25l-49 -470q-3 -25 -28 -25h-17q-25 0 -25 22v2q-1 18 -13.5 22t-30.5 -6q-94 -50 -188 -50q-75 0 -119.5 53.5t-35.5 143.5z" />
    <glyph glyph-name="v" unicode="v" horiz-adv-x="567" 
d="M77 491q-4 13 2.5 21t20.5 8h55q20 0 25 -20l102 -388q3 -11 12 -11t14 11l188 388q9 20 30 20h51q14 0 18.5 -8t-2.5 -21l-246 -468q-12 -23 -38 -23h-51q-25 0 -33 23z" />
    <glyph glyph-name="w" unicode="w" horiz-adv-x="807" 
d="M79 492q-5 28 24 28h42q22 0 25 -21l55 -354q2 -14 11 -14.5t15 13.5l150 353q10 25 37 25h39q26 0 31 -25l74 -358q2 -9 7 -12t10.5 0.5t8.5 12.5l135 359q8 21 31 21h41q28 0 17 -28l-189 -467q-10 -25 -37 -25h-48q-26 0 -31 25l-71 339q-2 9 -6.5 12.5t-10 0
t-9.5 -12.5l-148 -339q-11 -25 -37 -25h-44q-27 0 -31 25z" />
    <glyph glyph-name="x" unicode="x" horiz-adv-x="542" 
d="M50 0q-16 0 -19.5 9t7.5 21l193 225q12 13 2 28l-139 206q-8 12 -2.5 21.5t21.5 9.5h49q18 0 28 -15l102 -166q12 -20 29 0l130 165q13 16 32 16h51q16 0 19.5 -8.5t-7.5 -21.5l-179 -213q-12 -13 -2 -28l148 -218q8 -12 3 -21.5t-21 -9.5h-52q-17 0 -28 15l-110 173
q-12 19 -28 0l-141 -173q-12 -15 -32 -15h-54z" />
    <glyph glyph-name="y" unicode="y" horiz-adv-x="559" 
d="M77 491q-4 13 2.5 21t20.5 8h53q20 0 26 -20l103 -385q2 -8 7 -11.5t10 -0.5t9 12l177 385q9 20 30 20h54q29 0 15 -29l-277 -546q-24 -47 -40 -71.5t-40 -47t-55 -31t-76 -8.5q-36 0 -69 9q-22 6 -16 30l6 23q7 28 31 20q25 -8 60 -8q42 0 70.5 25.5t55.5 77.5l19 36
h-11q-16 0 -21 16z" />
    <glyph glyph-name="z" unicode="z" horiz-adv-x="525" 
d="M32 28q0 14 14 30l342 359q9 10 6.5 17.5t-15.5 7.5h-268q-25 0 -22 25l3 28q3 25 28 25h390q23 0 21 -24l-2 -24q-1 -16 -14 -30l-323 -339q-10 -11 -7 -18t16 -7h276q26 0 23 -25l-3 -28q-3 -25 -28 -25h-415q-24 0 -22 24v4z" />
    <glyph glyph-name="braceleft" unicode="{" horiz-adv-x="314" 
d="M240 431q-10 -83 -64 -95q53 -12 45 -90l-17 -172q-8 -77 39 -92q31 -9 28 -37l-1 -15q-2 -17 -12.5 -26.5t-27.5 -7.5q-55 6 -92.5 44.5t-30.5 110.5l19 185q4 44 -24 54q-31 11 -29 37l2 19q2 26 36 37q31 10 36 58l21 188q8 73 45.5 108t109.5 41q17 1 25.5 -8
t6.5 -27l-1 -14q-3 -28 -38 -36q-27 -6 -39 -26t-17 -61z" />
    <glyph glyph-name="bar" unicode="|" horiz-adv-x="265" 
d="M119 0q-25 0 -22 25l71 680q3 25 27 25l28 -1q25 0 22 -25l-71 -680q-3 -25 -28 -25z" />
    <glyph glyph-name="braceright" unicode="}" horiz-adv-x="314" 
d="M181 607q4 41 -3.5 61t-33.5 26q-33 8 -30 36l1 13q2 17 12.5 26.5t27.5 8.5q63 -6 96.5 -45t26.5 -104l-18 -186q-5 -48 23 -58q33 -11 29 -37l-3 -23q-4 -26 -36 -37q-30 -10 -35 -54l-21 -183q-9 -85 -47 -116t-108 -39q-17 -2 -25.5 7t-6.5 27l1 15q3 28 36 37
q50 13 58 92l18 168q4 41 23.5 65t44.5 29q-23 5 -37 31t-10 68z" />
    <glyph glyph-name="asciitilde" unicode="~" horiz-adv-x="549" 
d="M494 324q22 -7 14 -30q-13 -37 -45.5 -59.5t-76.5 -21.5q-39 1 -86 22.5t-70 21.5q-33 0 -54 -27q-17 -22 -39 -15l-22 6q-24 7 -18 28q10 40 40.5 64t72.5 23q37 -1 89.5 -24t76.5 -23q36 0 56 26q17 22 41 15z" />
    <glyph glyph-name="uni00A0" unicode="&#xa0;" horiz-adv-x="260" 
 />
    <glyph glyph-name="exclamdown" unicode="&#xa1;" horiz-adv-x="258" 
d="M246 517q0 -27 -21.5 -47t-48.5 -20q-24 0 -40.5 16t-16.5 40q0 28 21 49t50 21q23 0 39.5 -17t16.5 -42zM129 -214h-44q-25 0 -22 25l66 540q4 25 31 25h18q27 0 24 -25l-47 -540q-1 -25 -26 -25z" />
    <glyph glyph-name="cent" unicode="&#xa2;" horiz-adv-x="606" 
d="M77 277q0 115 71.5 194.5t180.5 94.5q14 2 16 16l9 86q3 25 28 25h15q25 0 22 -25l-9 -85q-2 -14 13 -16q71 -9 122.5 -59.5t57.5 -109.5q3 -27 -26 -27h-44q-19 0 -25 22q-8 31 -32 55.5t-60 32.5q-16 3 -18 -14l-35 -334q-1 -8 3 -11.5t11 -2.5q80 18 107 80
q10 22 30 22h46q13 0 18.5 -7.5t1.5 -19.5q-47 -141 -214 -161q-13 -1 -15 -16l-7 -62q-3 -25 -27 -25h-15q-26 0 -23 25l7 63q2 14 -12 16q-81 14 -139 82.5t-58 160.5zM176 279q0 -60 28.5 -101.5t75.5 -56.5q16 -5 18 14l35 330q1 8 -3 12t-11 2q-63 -18 -103 -71.5
t-40 -128.5z" />
    <glyph glyph-name="sterling" unicode="&#xa3;" horiz-adv-x="666" 
d="M71 259l1 11q3 25 28 25h74q-15 77 -15 109q0 112 72 179t198 67q85 0 150 -53.5t74 -126.5q3 -27 -25 -27h-48q-20 0 -27 25q-13 44 -48.5 70t-85.5 26q-72 0 -117 -45t-45 -121q0 -16 9 -103h226q25 0 22 -25l-1 -11q-3 -25 -27 -25h-218q-6 -53 -53 -115
q-11 -15 5 -15h15q38 0 100.5 -20t101.5 -20q50 0 73.5 11.5t34.5 38.5q8 20 28 20h32q24 0 24 -22q0 -57 -42.5 -96t-138.5 -39q-52 0 -126.5 20t-128.5 18q-39 -1 -71 -13q-30 -11 -40 15l-7 18q-9 24 10 45q85 87 93 154h-84q-25 0 -23 25z" />
    <glyph glyph-name="currency" unicode="&#xa4;" horiz-adv-x="648" 
d="M104 294q0 103 68 171l-37 42q-16 17 1 35l10 11q20 22 36 4l46 -50q67 43 157 43q75 0 136 -43l57 49q19 16 35 -3l9 -11q14 -17 -6 -35l-49 -43q48 -51 48 -141q0 -100 -76 -181l35 -38q18 -19 0 -35l-11 -10q-20 -19 -35 -3l-43 45q-82 -40 -152 -40q-79 0 -139 46
l-65 -51q-21 -16 -35 3l-8 10q-13 18 7 35l55 45q-15 20 -29.5 59t-14.5 86zM199 290q0 -67 39.5 -108t103.5 -41q74 0 125.5 52.5t51.5 129.5q0 67 -39.5 107t-103.5 40q-74 0 -125.5 -51.5t-51.5 -128.5z" />
    <glyph glyph-name="yen" unicode="&#xa5;" horiz-adv-x="635" 
d="M124 605q-6 13 -1 21.5t20 8.5h54q21 0 28 -17l123 -281q6 -14 16 0l186 280q10 18 32 18h46q15 0 18.5 -8.5t-5.5 -21.5l-191 -276q-9 -14 7 -14h95q22 0 22 -25v-3q0 -25 -27 -25h-119q-28 0 -31 -28l-2 -18q-2 -18 16 -18h104q22 0 22 -25v-4q0 -25 -28 -25h-104
q-18 0 -20 -18l-10 -101q-3 -25 -28 -25h-46q-25 0 -22 25l10 101q2 18 -16 18h-122q-22 0 -22 25v4q0 25 28 25h122q18 0 20 18l2 18q3 28 -25 28h-137q-23 0 -23 25v3q0 25 28 25h111q16 0 10 14z" />
    <glyph glyph-name="brokenbar" unicode="&#xa6;" horiz-adv-x="265" 
d="M164 429q-25 0 -22 25l26 251q3 25 28 25h27q25 0 22 -25l-26 -251q-3 -25 -28 -25h-27zM178 301q25 0 22 -25l-26 -251q-3 -25 -28 -25h-27q-25 0 -22 25l26 251q3 25 28 25h27z" />
    <glyph glyph-name="section" unicode="&#xa7;" horiz-adv-x="637" 
d="M132 520q0 97 69 158.5t198 61.5q90 0 153.5 -51t77.5 -132q2 -13 -5 -20.5t-20 -7.5h-46q-20 0 -26 20q-15 49 -52 76.5t-91 27.5q-72 0 -116 -34t-44 -87q0 -45 37 -70.5t90 -37t106.5 -26.5t90.5 -53t37 -102q0 -13 -8 -19.5t-21 -4.5l-46 8q-20 3 -20 17
q-1 31 -29 50.5t-68 28t-87 22t-87 30t-66.5 53.5t-26.5 92zM49 -3q-3 13 3.5 20.5t20.5 7.5h49q20 0 26 -20q16 -55 59.5 -84t107.5 -29q73 0 120 33.5t47 86.5q0 34 -21 55.5t-54.5 32t-73.5 17.5t-80.5 17t-74 27t-54.5 52t-21 86q0 14 8 21t22 5l46 -9q18 -4 21 -25
q5 -38 46.5 -58.5t97 -30.5t110 -24.5t92.5 -52.5t38 -102q0 -102 -76.5 -160.5t-202.5 -58.5q-99 0 -167.5 53.5t-88.5 139.5z" />
    <glyph glyph-name="dieresis" unicode="&#xa8;" horiz-adv-x="600" 
d="M189 619q-22 0 -37 15.5t-15 38.5q0 25 19 44t45 19q22 0 38 -15.5t16 -36.5q0 -27 -20 -46t-46 -19zM379 619q-23 0 -38 15.5t-15 39.5q0 25 19.5 43.5t45.5 18.5q22 0 38 -15.5t16 -36.5q0 -27 -20 -46t-46 -19z" />
    <glyph glyph-name="copyright" unicode="&#xa9;" horiz-adv-x="904" 
d="M445 -62q-151 0 -257.5 109.5t-106.5 260.5q0 182 132 310.5t318 128.5q148 0 255.5 -109t107.5 -260q0 -119 -61 -220.5t-164.5 -160.5t-223.5 -59zM453 12q146 0 256 107t110 253q0 126 -84.5 213.5t-211.5 87.5q-146 0 -256 -106.5t-110 -252.5q0 -127 84.5 -214.5
t211.5 -87.5zM645 404q-19 0 -25 21q-9 31 -38 51t-72 20q-66 0 -110.5 -47.5t-44.5 -121.5q0 -61 34 -99t88 -38q91 0 126 69q11 21 30 21h35q13 0 19 -7.5t1 -19.5q-24 -60 -80 -96t-136 -36q-83 0 -143.5 59.5t-60.5 144.5q0 104 70 174t179 70q74 0 125.5 -41t61.5 -97
q2 -12 -5 -19.5t-20 -7.5h-34z" />
    <glyph glyph-name="ordfeminine" unicode="&#xaa;" horiz-adv-x="461" 
d="M104 557q0 84 51.5 133.5t130.5 49.5q67 0 106 -39q5 -4 9 -2.5t6 7.5l2 7q6 22 29 22h2q26 0 23 -25l-29 -275q-3 -25 -26 -25h-2q-22 0 -25 22l-1 7q-2 13 -13 4q-48 -39 -115 -39q-59 0 -103.5 45t-44.5 108zM183 563q0 -41 23.5 -66.5t61.5 -25.5q58 0 95 50
q9 13 11 34l4 31q2 22 -4 34q-22 51 -85 51q-45 0 -75.5 -29.5t-30.5 -78.5z" />
    <glyph glyph-name="guillemotleft" unicode="&#xab;" horiz-adv-x="529" 
d="M171 296q-12 -7 -13 -17.5t10 -18.5l79 -64q18 -14 16 -42l-2 -28q-1 -22 -15 -28t-30 8l-127 112q-19 17 -16 42l5 39q3 29 24 43l150 101q19 13 31 7.5t10 -27.5l-3 -29q-3 -28 -26 -42zM383 296q-12 -7 -13 -17.5t10 -18.5l79 -64q18 -14 16 -42l-2 -28
q-1 -22 -15 -28t-30 8l-127 112q-19 17 -16 42l5 39q3 29 24 43l150 101q19 13 31 7.5t10 -27.5l-3 -29q-3 -28 -26 -42z" />
    <glyph glyph-name="registered" unicode="&#xae;" horiz-adv-x="904" 
d="M81 308q0 179 134 309t316 130q152 0 257.5 -108t105.5 -261q0 -180 -132 -310t-317 -130q-150 0 -257 108.5t-107 261.5zM157 314q0 -127 84.5 -214.5t211.5 -87.5q146 0 256 107t110 253q0 126 -84.5 213.5t-211.5 87.5q-146 0 -256 -106.5t-110 -252.5zM356 130
q-26 0 -23 25l43 408q3 27 30 27h89q79 0 130 -40.5t51 -98.5q0 -110 -132 -147q-24 -7 -11 -24l94 -120q9 -12 4.5 -21.5t-20.5 -9.5l-41 1q-19 0 -29 14l-112 149h-4l-15 -138q-3 -25 -27 -25h-27zM434 377q-2 -20 18 -20h17q58 0 94 23t36 67q0 37 -31 57.5t-83 20.5h-16
q-19 0 -22 -20z" />
    <glyph glyph-name="macron" unicode="&#xaf;" horiz-adv-x="600" 
d="M238 674q3 25 27 25h242q26 0 23 -25l-3 -27q-3 -25 -28 -25h-242q-25 0 -22 25z" />
    <glyph glyph-name="degree" unicode="&#xb0;" horiz-adv-x="423" 
d="M255 406q-65 0 -108.5 44.5t-43.5 108.5q0 74 56 127.5t131 53.5q63 0 106 -44.5t43 -107.5q0 -74 -55.5 -128t-128.5 -54zM261 464q48 0 84 35t36 84q0 42 -27.5 71t-69.5 29q-49 0 -85 -35.5t-36 -83.5q0 -43 27.5 -71.5t70.5 -28.5z" />
    <glyph glyph-name="plusminus" unicode="&#xb1;" horiz-adv-x="524" 
d="M98 335l3 28q3 25 28 25h113q23 0 24 22l12 112q3 25 28 25h29q25 0 22 -25l-12 -112q-2 -22 20 -22h112q25 0 22 -25l-3 -28q-3 -25 -27 -25h-112q-22 0 -24 -22l-12 -112q-3 -25 -28 -25h-28q-25 0 -22 25l11 112q3 22 -19 22h-114q-26 0 -23 25zM468 76q25 0 22 -25
l-3 -28q-3 -25 -27 -25h-348q-26 0 -23 25l3 28q3 25 28 25h348z" />
    <glyph glyph-name="acute" unicode="&#xb4;" horiz-adv-x="600" 
d="M457 740q23 14 33 -10l13 -34q9 -23 -15 -33l-181 -72q-26 -10 -33 11l-2 6q-8 22 13 34z" />
    <glyph glyph-name="paragraph" unicode="&#xb6;" horiz-adv-x="772" 
d="M87 473q0 114 80.5 185.5t223.5 71.5h394q25 0 22 -25l-3 -30q-3 -25 -28 -25h-40q-27 0 -30 -27l-63 -603q-3 -25 -28 -25h-35q-25 0 -22 25l63 603q3 27 -24 27h-48q-27 0 -30 -27l-63 -603q-3 -25 -28 -25h-30q-25 0 -22 25l22 208q3 27 -24 27h-33
q-123 0 -188.5 59.5t-65.5 158.5z" />
    <glyph glyph-name="periodcentered" unicode="&#xb7;" horiz-adv-x="250" 
d="M152 255q-25 0 -41 17t-16 42q0 27 21 47t49 20q24 0 40.5 -16.5t16.5 -39.5q0 -28 -21.5 -49t-48.5 -21z" />
    <glyph glyph-name="cedilla" unicode="&#xb8;" horiz-adv-x="600" 
d="M252 -89q-15 0 -21 8.5t-1 22.5l23 61h67l-9 -26q-7 -15 9 -19q62 -16 62 -75q0 -47 -37 -75t-93 -28q-47 0 -75 17q-17 11 -12 30l5 15q6 21 32 9q23 -10 50 -10q22 0 35.5 9.5t13.5 25.5q0 35 -41 35h-8z" />
    <glyph glyph-name="ordmasculine" unicode="&#xba;" horiz-adv-x="447" 
d="M104 556q0 84 53.5 134t143.5 50q69 0 116 -43.5t47 -106.5q0 -87 -53.5 -137.5t-145.5 -50.5q-68 0 -114.5 44t-46.5 110zM185 560q0 -39 23.5 -64t64.5 -25q49 0 79 32t30 79q0 39 -23.5 63t-65.5 24q-48 0 -78 -30.5t-30 -78.5z" />
    <glyph glyph-name="guillemotright" unicode="&#xbb;" horiz-adv-x="538" 
d="M202 298l-75 51q-18 13 -16 42l1 32q1 22 15 28t30 -8l128 -109q18 -15 15 -43l-3 -27q-3 -25 -24 -42l-151 -116q-19 -14 -31 -8t-10 28l3 34q3 27 25 42l89 60q12 8 13 18t-9 18zM424 297l-75 51q-18 13 -16 42l1 32q1 22 15 28t30 -8l128 -109q18 -15 15 -43l-3 -27
q-3 -25 -24 -42l-151 -116q-19 -14 -31 -8t-10 28l3 34q3 27 25 42l89 60q12 8 13 18t-9 18z" />
    <glyph glyph-name="onequarter" unicode="&#xbc;" horiz-adv-x="882" 
d="M120 377q-26 0 -23 25l2 17q3 25 28 25h55q13 0 14 13l16 149q1 7 -3 9.5t-10 -0.5q-23 -11 -53 -19q-13 -2 -19.5 4.5t-4.5 19.5l2 19q3 21 26 27q27 6 98 52q17 12 29 12h5q23 0 20 -25l-26 -248q-2 -13 12 -13h59q25 0 22 -25l-2 -17q-3 -25 -27 -25h-220zM191 101
q-18 17 1 36l498 481q19 19 36 3l21 -19q19 -16 0 -35l-497 -484q-20 -18 -37 -2zM544 75q-12 0 -18.5 6t-4.5 16l1 4q6 23 14 32q96 101 115 204q5 24 31 24h34q26 0 21 -26q-18 -91 -95 -179q-13 -15 5 -15h56q11 0 13 12l6 54q3 25 27 25h26q26 0 23 -25l-6 -54
q-2 -12 11 -12h38q24 0 22 -25l-1 -16q-2 -25 -28 -25h-38q-11 0 -13 -12l-4 -38q-3 -25 -28 -25h-26q-25 0 -22 25l4 38q2 12 -11 12h-152z" />
    <glyph glyph-name="onehalf" unicode="&#xbd;" horiz-adv-x="847" 
d="M91 402l2 17q3 25 28 25h52q20 0 22 20l15 143q1 6 -2.5 8t-9.5 -1q-32 -17 -59 -21q-12 -3 -18.5 3.5t-4.5 19.5l2 23q1 21 25 27q36 8 97 56q10 8 36 8h2q25 0 22 -25l-25 -241q-2 -20 18 -20h47q25 0 22 -25l-2 -17q-3 -25 -27 -25h-219q-26 0 -23 25zM190 136
l498 481q18 18 35 2l22 -21q17 -17 -2 -36l-498 -483q-19 -19 -35 -2l-22 24q-16 17 2 35zM528 23q0 11 16 25l132 112q61 52 70 66q11 15 11 31q0 21 -16.5 32t-43.5 11q-50 0 -70 -42q-10 -22 -29 -22h-22q-13 0 -18.5 7.5t-0.5 19.5q16 45 54.5 73t91.5 28t88 -27.5
t35 -67.5q0 -21 -4.5 -36t-22 -35.5t-27.5 -30t-47 -41.5l-47 -42q-5 -4 -6 -8t1.5 -6t8.5 -2h111q24 0 22 -25l-1 -18q-2 -25 -28 -25h-235q-23 0 -23 18v5z" />
    <glyph glyph-name="threequarters" unicode="&#xbe;" horiz-adv-x="870" 
d="M96 450q-2 12 5 19.5t20 7.5h20q19 0 26 -21q12 -39 75 -39q38 0 61.5 15t23.5 43q0 44 -75 44h-29q-26 0 -23 25l1 9q3 25 28 25h29q62 0 68 52q3 23 -12.5 36t-45.5 13q-49 0 -71 -39q-12 -21 -30 -21h-18q-13 0 -19 7.5t-1 19.5q38 94 146 94q61 0 93 -27.5t32 -68.5
q0 -49 -45 -82q-11 -8 1 -14q43 -22 43 -73q0 -55 -46.5 -87t-117.5 -32q-54 0 -93 27t-46 67zM196 108q-15 17 3 35l498 481q18 18 34 2l24 -23q18 -18 -2 -36l-497 -483q-19 -19 -35 -2zM528 75q-12 0 -18.5 6t-4.5 16l1 4q6 23 14 32q103 107 121 204q5 24 28 24h32
q27 0 21 -26q-19 -90 -99 -183q-3 -4 -4 -7.5t1.5 -5.5t7.5 -2h62q12 0 14 12l6 58q3 25 27 25h26q26 0 23 -25l-6 -58q-2 -12 10 -12h37q25 0 23 -25l-1 -12q-2 -25 -28 -25h-37q-11 0 -13 -12l-4 -38q-3 -25 -28 -25h-26q-25 0 -22 25l4 38q2 12 -11 12h-156z" />
    <glyph glyph-name="questiondown" unicode="&#xbf;" horiz-adv-x="562" 
d="M416 474q0 -27 -21 -47t-49 -20q-24 0 -40.5 16.5t-16.5 39.5q0 28 21.5 49t48.5 21q25 0 41 -17t16 -42zM505 -6q13 0 18.5 -7.5t0.5 -20.5q-33 -84 -99 -133.5t-165 -49.5q-97 0 -157 55.5t-60 143.5q0 98 59.5 160t156.5 92q30 9 34 37l7 47q5 24 29 24h21
q25 0 23 -24l-4 -97q-1 -41 -45 -50q-87 -18 -135 -64.5t-48 -114.5q0 -56 35 -89t93 -33q110 0 165 104q11 20 30 20h41z" />
    <glyph glyph-name="Agrave" unicode="&#xc0;" horiz-adv-x="713" 
d="M331 895q9 25 31 16l172 -67q23 -9 14 -32l-4 -8q-10 -22 -32 -18l-179 40q-25 7 -16 31zM39 0q-12 0 -17 8t1 21l342 682q9 19 29 19h76q19 0 25 -19l200 -682q8 -29 -22 -29h-52q-22 0 -27 20l-37 136q-3 11 -14 11h-340q-12 0 -18 -11l-64 -136q-10 -20 -31 -20h-51z
M244 276q-4 -7 -1.5 -11.5t10.5 -4.5h258q8 0 11.5 4.5t1.5 11.5l-95 342q-1 5 -4.5 7t-7.5 0t-6 -7z" />
    <glyph glyph-name="Aacute" unicode="&#xc1;" horiz-adv-x="713" 
d="M547 897q25 8 30 -17l5 -36q3 -25 -23 -29l-192 -29q-27 -5 -30 18v6q-3 23 20 30zM39 0q-12 0 -17 8t1 21l342 682q9 19 29 19h76q19 0 25 -19l200 -682q8 -29 -22 -29h-52q-22 0 -27 20l-37 136q-3 11 -14 11h-340q-12 0 -18 -11l-64 -136q-10 -20 -31 -20h-51z
M244 276q-4 -7 -1.5 -11.5t10.5 -4.5h258q8 0 11.5 4.5t1.5 11.5l-95 342q-1 5 -4.5 7t-7.5 0t-6 -7z" />
    <glyph glyph-name="Acircumflex" unicode="&#xc2;" horiz-adv-x="713" 
d="M280 826q-8 21 10 29l141 68q24 12 45 0l130 -68q16 -8 5 -29l-10 -18q-10 -16 -27 -10l-108 38q-20 7 -43 0l-112 -37q-19 -6 -25 9zM39 0q-12 0 -17 8t1 21l342 682q9 19 29 19h76q19 0 25 -19l200 -682q8 -29 -22 -29h-52q-22 0 -27 20l-37 136q-3 11 -14 11h-340
q-12 0 -18 -11l-64 -136q-10 -20 -31 -20h-51zM244 276q-4 -7 -1.5 -11.5t10.5 -4.5h258q8 0 11.5 4.5t1.5 11.5l-95 342q-1 5 -4.5 7t-7.5 0t-6 -7z" />
    <glyph glyph-name="Atilde" unicode="&#xc3;" horiz-adv-x="713" 
d="M599 890q28 -5 18 -29q-12 -33 -39 -51.5t-62 -18.5q-34 0 -73 21.5t-54 21.5q-25 0 -40 -16q-16 -19 -34 -15l-15 3q-26 5 -17 30q24 70 97 70q37 0 80.5 -22t52.5 -22q25 0 39 15q17 20 33 16zM39 0q-12 0 -17 8t1 21l342 682q9 19 29 19h76q19 0 25 -19l200 -682
q8 -29 -22 -29h-52q-22 0 -27 20l-37 136q-3 11 -14 11h-340q-12 0 -18 -11l-64 -136q-10 -20 -31 -20h-51zM244 276q-4 -7 -1.5 -11.5t10.5 -4.5h258q8 0 11.5 4.5t1.5 11.5l-95 342q-1 5 -4.5 7t-7.5 0t-6 -7z" />
    <glyph glyph-name="Adieresis" unicode="&#xc4;" horiz-adv-x="713" 
d="M336 785q-24 0 -39.5 16t-15.5 41q0 27 20 46.5t47 19.5q24 0 40.5 -16t16.5 -39q0 -27 -21 -47.5t-48 -20.5zM535 785q-24 0 -40 16.5t-16 41.5q0 27 21 46t48 19q23 0 39.5 -16t16.5 -39q0 -27 -21 -47.5t-48 -20.5zM39 0q-12 0 -17 8t1 21l342 682q9 19 29 19h76
q19 0 25 -19l200 -682q8 -29 -22 -29h-52q-22 0 -27 20l-37 136q-3 11 -14 11h-340q-12 0 -18 -11l-64 -136q-10 -20 -31 -20h-51zM244 276q-4 -7 -1.5 -11.5t10.5 -4.5h258q8 0 11.5 4.5t1.5 11.5l-95 342q-1 5 -4.5 7t-7.5 0t-6 -7z" />
    <glyph glyph-name="Aring" unicode="&#xc5;" horiz-adv-x="713" 
d="M437 766q-44 0 -74 27.5t-30 68.5q0 47 34.5 80t91.5 33q45 0 75.5 -28t30.5 -67q0 -48 -34.5 -81t-93.5 -33zM443 826q22 0 37.5 14.5t15.5 34.5q0 18 -12 30t-31 12q-21 0 -36 -14.5t-15 -35.5q0 -18 11.5 -29.5t29.5 -11.5zM39 0q-12 0 -17 8t1 21l342 682q9 19 29 19
h76q19 0 25 -19l200 -682q8 -29 -22 -29h-52q-22 0 -27 20l-37 136q-3 11 -14 11h-340q-12 0 -18 -11l-64 -136q-10 -20 -31 -20h-51zM244 276q-4 -7 -1.5 -11.5t10.5 -4.5h258q8 0 11.5 4.5t1.5 11.5l-95 342q-1 5 -4.5 7t-7.5 0t-6 -7z" />
    <glyph glyph-name="AE" unicode="&#xc6;" horiz-adv-x="959" 
d="M13 0q-15 0 -19 8.5t5 21.5l477 684q11 16 31 16h425q25 0 22 -25l-4 -35q-3 -25 -27 -25h-257q-18 0 -20 -18l-21 -201q-2 -18 16 -18h280q25 0 22 -25l-3 -35q-3 -25 -28 -25h-280q-18 0 -20 -18l-21 -201q-2 -18 16 -18h272q25 0 22 -25l-3 -36q-3 -25 -28 -25h-363
q-24 0 -22 24l14 128q2 18 -16 18h-264q-15 0 -23 -12l-97 -141q-12 -17 -32 -17h-54zM287 285q-6 -9 -3 -15.5t13 -6.5h196q17 0 19 18l36 338q2 13 -5.5 15.5t-15.5 -9.5z" />
    <glyph glyph-name="Ccedilla" unicode="&#xc7;" horiz-adv-x="828" 
d="M499 649q-128 0 -220.5 -88t-92.5 -223q0 -115 72 -186t182 -71q90 0 160.5 41.5t102.5 115.5q9 21 30 21h51q12 0 17.5 -8t0.5 -20q-40 -102 -133 -168.5t-218 -72.5l-5 -13q-7 -15 9 -19q62 -16 62 -75q0 -47 -37 -75t-93 -28q-47 0 -75 17q-17 11 -12 30l5 15
q6 21 32 9q23 -10 50 -10q22 0 35.5 9.5t13.5 25.5q0 35 -41 35h-8q-15 0 -21 8.5t-1 22.5l19 51q-128 15 -213.5 108.5t-85.5 229.5q0 177 124 293t300 116q133 0 222.5 -82t96.5 -196q2 -26 -26 -26h-51q-22 0 -25 23q-8 83 -69 136.5t-158 53.5z" />
    <glyph glyph-name="Egrave" unicode="&#xc8;" horiz-adv-x="566" 
d="M279 895q9 25 31 16l172 -67q23 -9 14 -32l-4 -8q-10 -22 -32 -18l-179 40q-25 7 -16 31zM127 0q-28 0 -25 28l71 674q3 28 31 28h355q25 0 22 -25l-4 -35q-3 -25 -27 -25h-268q-18 0 -20 -18l-21 -203q-2 -18 16 -18h248q25 0 22 -25l-4 -36q-3 -25 -27 -25h-248
q-18 0 -20 -18l-21 -198q-2 -18 16 -18h273q25 0 22 -25l-3 -36q-3 -25 -28 -25h-360z" />
    <glyph glyph-name="Eacute" unicode="&#xc9;" horiz-adv-x="566" 
d="M495 897q25 8 30 -17l5 -36q3 -25 -23 -29l-192 -29q-27 -5 -30 18v6q-3 23 20 30zM127 0q-28 0 -25 28l71 674q3 28 31 28h355q25 0 22 -25l-4 -35q-3 -25 -27 -25h-268q-18 0 -20 -18l-21 -203q-2 -18 16 -18h248q25 0 22 -25l-4 -36q-3 -25 -27 -25h-248
q-18 0 -20 -18l-21 -198q-2 -18 16 -18h273q25 0 22 -25l-3 -36q-3 -25 -28 -25h-360z" />
    <glyph glyph-name="Ecircumflex" unicode="&#xca;" horiz-adv-x="566" 
d="M228 826q-8 21 10 29l141 68q24 12 45 0l130 -68q16 -8 5 -29l-10 -18q-10 -16 -27 -10l-108 38q-20 7 -43 0l-112 -37q-19 -6 -25 9zM127 0q-28 0 -25 28l71 674q3 28 31 28h355q25 0 22 -25l-4 -35q-3 -25 -27 -25h-268q-18 0 -20 -18l-21 -203q-2 -18 16 -18h248
q25 0 22 -25l-4 -36q-3 -25 -27 -25h-248q-18 0 -20 -18l-21 -198q-2 -18 16 -18h273q25 0 22 -25l-3 -36q-3 -25 -28 -25h-360z" />
    <glyph glyph-name="Edieresis" unicode="&#xcb;" horiz-adv-x="566" 
d="M284 785q-24 0 -39.5 16t-15.5 41q0 27 20 46.5t47 19.5q24 0 40.5 -16t16.5 -39q0 -27 -21 -47.5t-48 -20.5zM483 785q-24 0 -40 16.5t-16 41.5q0 27 21 46t48 19q23 0 39.5 -16t16.5 -39q0 -27 -21 -47.5t-48 -20.5zM127 0q-28 0 -25 28l71 674q3 28 31 28h355
q25 0 22 -25l-4 -35q-3 -25 -27 -25h-268q-18 0 -20 -18l-21 -203q-2 -18 16 -18h248q25 0 22 -25l-4 -36q-3 -25 -27 -25h-248q-18 0 -20 -18l-21 -198q-2 -18 16 -18h273q25 0 22 -25l-3 -36q-3 -25 -28 -25h-360z" />
    <glyph glyph-name="Igrave" unicode="&#xcc;" horiz-adv-x="297" 
d="M121 895q9 25 31 16l172 -67q23 -9 14 -32l-4 -8q-10 -22 -32 -18l-179 40q-25 7 -16 31zM249 730q25 0 22 -25l-71 -680q-3 -25 -28 -25h-48q-25 0 -22 25l71 680q3 25 28 25h48z" />
    <glyph glyph-name="Iacute" unicode="&#xcd;" horiz-adv-x="297" 
d="M337 897q25 8 30 -17l5 -36q3 -25 -23 -29l-192 -29q-27 -5 -30 18v6q-3 23 20 30zM249 730q25 0 22 -25l-71 -680q-3 -25 -28 -25h-48q-25 0 -22 25l71 680q3 25 28 25h48z" />
    <glyph glyph-name="Icircumflex" unicode="&#xce;" horiz-adv-x="297" 
d="M70 826q-8 21 10 29l141 68q24 12 45 0l130 -68q16 -8 5 -29l-10 -18q-10 -16 -27 -10l-108 38q-20 7 -43 0l-112 -37q-19 -6 -25 9zM249 730q25 0 22 -25l-71 -680q-3 -25 -28 -25h-48q-25 0 -22 25l71 680q3 25 28 25h48z" />
    <glyph glyph-name="Idieresis" unicode="&#xcf;" horiz-adv-x="297" 
d="M126 785q-24 0 -39.5 16t-15.5 41q0 27 20 46.5t47 19.5q24 0 40.5 -16t16.5 -39q0 -27 -21 -47.5t-48 -20.5zM325 785q-24 0 -40 16.5t-16 41.5q0 27 21 46t48 19q23 0 39.5 -16t16.5 -39q0 -27 -21 -47.5t-48 -20.5zM249 730q25 0 22 -25l-71 -680q-3 -25 -28 -25h-48
q-25 0 -22 25l71 680q3 25 28 25h48z" />
    <glyph glyph-name="Eth" unicode="&#xd0;" horiz-adv-x="796" 
d="M447 730q148 0 244 -94.5t96 -235.5q0 -179 -120.5 -289.5t-296.5 -110.5h-243q-28 0 -25 28l32 303h-51q-24 0 -22 25l2 28q2 25 28 25h51l31 293q3 28 31 28h243zM379 85q125 0 216 83.5t91 227.5q0 118 -71 184t-177 66h-155q-18 0 -20 -18l-23 -219h138q24 0 22 -25
l-2 -28q-2 -25 -28 -25h-138l-24 -228q-2 -18 16 -18h155z" />
    <glyph glyph-name="Ntilde" unicode="&#xd1;" horiz-adv-x="820" 
d="M651 890q28 -5 18 -29q-12 -33 -39 -51.5t-62 -18.5q-34 0 -73 21.5t-54 21.5q-25 0 -40 -16q-16 -19 -34 -15l-15 3q-26 5 -17 30q24 70 97 70q37 0 80.5 -22t52.5 -22q25 0 39 15q17 20 33 16zM124 0q-25 0 -22 25l70 672q3 33 37 33h10q26 0 38 -19l372 -542
q7 -10 14.5 -7.5t8.5 15.5l55 528q3 25 28 25h37q25 0 22 -25l-71 -672q-3 -33 -36 -33h-21q-26 0 -39 19l-362 515q-7 10 -14.5 8t-8.5 -15l-52 -502q-3 -25 -28 -25h-38z" />
    <glyph glyph-name="Ograve" unicode="&#xd2;" horiz-adv-x="869" 
d="M407 895q9 25 31 16l172 -67q23 -9 14 -32l-4 -8q-10 -22 -32 -18l-179 40q-25 7 -16 31zM85 331q0 125 59 219.5t155.5 142t212.5 47.5q150 0 249.5 -93t99.5 -245q0 -178 -121.5 -295t-306.5 -117q-147 0 -247.5 92t-100.5 249zM186 338q0 -117 72.5 -189.5
t183.5 -72.5q131 0 224.5 90.5t93.5 228.5q0 115 -72.5 187t-184.5 72q-131 0 -224 -89.5t-93 -226.5z" />
    <glyph glyph-name="Oacute" unicode="&#xd3;" horiz-adv-x="869" 
d="M623 897q25 8 30 -17l5 -36q3 -25 -23 -29l-192 -29q-27 -5 -30 18v6q-3 23 20 30zM85 331q0 125 59 219.5t155.5 142t212.5 47.5q150 0 249.5 -93t99.5 -245q0 -178 -121.5 -295t-306.5 -117q-147 0 -247.5 92t-100.5 249zM186 338q0 -117 72.5 -189.5t183.5 -72.5
q131 0 224.5 90.5t93.5 228.5q0 115 -72.5 187t-184.5 72q-131 0 -224 -89.5t-93 -226.5z" />
    <glyph glyph-name="Ocircumflex" unicode="&#xd4;" horiz-adv-x="869" 
d="M356 826q-8 21 10 29l141 68q24 12 45 0l130 -68q16 -8 5 -29l-10 -18q-10 -16 -27 -10l-108 38q-20 7 -43 0l-112 -37q-19 -6 -25 9zM85 331q0 125 59 219.5t155.5 142t212.5 47.5q150 0 249.5 -93t99.5 -245q0 -178 -121.5 -295t-306.5 -117q-147 0 -247.5 92
t-100.5 249zM186 338q0 -117 72.5 -189.5t183.5 -72.5q131 0 224.5 90.5t93.5 228.5q0 115 -72.5 187t-184.5 72q-131 0 -224 -89.5t-93 -226.5z" />
    <glyph glyph-name="Otilde" unicode="&#xd5;" horiz-adv-x="869" 
d="M675 890q28 -5 18 -29q-12 -33 -39 -51.5t-62 -18.5q-34 0 -73 21.5t-54 21.5q-25 0 -40 -16q-16 -19 -34 -15l-15 3q-26 5 -17 30q24 70 97 70q37 0 80.5 -22t52.5 -22q25 0 39 15q17 20 33 16zM85 331q0 125 59 219.5t155.5 142t212.5 47.5q150 0 249.5 -93t99.5 -245
q0 -178 -121.5 -295t-306.5 -117q-147 0 -247.5 92t-100.5 249zM186 338q0 -117 72.5 -189.5t183.5 -72.5q131 0 224.5 90.5t93.5 228.5q0 115 -72.5 187t-184.5 72q-131 0 -224 -89.5t-93 -226.5z" />
    <glyph glyph-name="Odieresis" unicode="&#xd6;" horiz-adv-x="869" 
d="M412 785q-24 0 -39.5 16t-15.5 41q0 27 20 46.5t47 19.5q24 0 40.5 -16t16.5 -39q0 -27 -21 -47.5t-48 -20.5zM611 785q-24 0 -40 16.5t-16 41.5q0 27 21 46t48 19q23 0 39.5 -16t16.5 -39q0 -27 -21 -47.5t-48 -20.5zM85 331q0 125 59 219.5t155.5 142t212.5 47.5
q150 0 249.5 -93t99.5 -245q0 -178 -121.5 -295t-306.5 -117q-147 0 -247.5 92t-100.5 249zM186 338q0 -117 72.5 -189.5t183.5 -72.5q131 0 224.5 90.5t93.5 228.5q0 115 -72.5 187t-184.5 72q-131 0 -224 -89.5t-93 -226.5z" />
    <glyph glyph-name="multiply" unicode="&#xd7;" horiz-adv-x="479" 
d="M95 138q-16 18 4 36l100 89q17 15 3 31l-81 91q-16 18 4 36l17 15q19 18 36 -1l81 -91q14 -16 31 0l103 92q19 18 36 0l13 -15q16 -18 -3 -36l-102 -92q-17 -16 -3 -32l82 -92q16 -18 -4 -36l-17 -15q-19 -18 -36 1l-83 93q-14 16 -31 1l-100 -90q-20 -18 -36 0z" />
    <glyph glyph-name="Oslash" unicode="&#xd8;" horiz-adv-x="869" 
d="M793 612q68 -87 68 -210q0 -178 -121.5 -295t-306.5 -117q-135 0 -233 79l-53 -49q-19 -19 -36 0l-12 14q-16 18 3 36l51 48q-68 89 -68 213q0 125 59 219.5t155.5 142t212.5 47.5q136 0 232 -77l52 48q18 18 35 0l15 -16q16 -18 -2 -36zM186 338q0 -87 42 -152l444 410
q-69 58 -169 58q-131 0 -224 -89.5t-93 -226.5zM442 76q131 0 224.5 90.5t93.5 228.5q0 85 -42 149l-445 -409q68 -59 169 -59z" />
    <glyph glyph-name="Ugrave" unicode="&#xd9;" horiz-adv-x="788" 
d="M367 895q9 25 31 16l172 -67q23 -9 14 -32l-4 -8q-10 -22 -32 -18l-179 40q-25 7 -16 31zM120 307l42 398q3 25 28 25h50q25 0 22 -25l-42 -404q-11 -98 39.5 -159.5t142.5 -61.5q90 0 155 60.5t75 160.5l42 404q3 25 28 25h50q25 0 22 -25l-42 -398
q-15 -143 -105.5 -230t-233.5 -87q-128 0 -207.5 90.5t-65.5 226.5z" />
    <glyph glyph-name="Uacute" unicode="&#xda;" horiz-adv-x="788" 
d="M583 897q25 8 30 -17l5 -36q3 -25 -23 -29l-192 -29q-27 -5 -30 18v6q-3 23 20 30zM120 307l42 398q3 25 28 25h50q25 0 22 -25l-42 -404q-11 -98 39.5 -159.5t142.5 -61.5q90 0 155 60.5t75 160.5l42 404q3 25 28 25h50q25 0 22 -25l-42 -398q-15 -143 -105.5 -230
t-233.5 -87q-128 0 -207.5 90.5t-65.5 226.5z" />
    <glyph glyph-name="Ucircumflex" unicode="&#xdb;" horiz-adv-x="788" 
d="M316 826q-8 21 10 29l141 68q24 12 45 0l130 -68q16 -8 5 -29l-10 -18q-10 -16 -27 -10l-108 38q-20 7 -43 0l-112 -37q-19 -6 -25 9zM120 307l42 398q3 25 28 25h50q25 0 22 -25l-42 -404q-11 -98 39.5 -159.5t142.5 -61.5q90 0 155 60.5t75 160.5l42 404q3 25 28 25h50
q25 0 22 -25l-42 -398q-15 -143 -105.5 -230t-233.5 -87q-128 0 -207.5 90.5t-65.5 226.5z" />
    <glyph glyph-name="Udieresis" unicode="&#xdc;" horiz-adv-x="788" 
d="M372 785q-24 0 -39.5 16t-15.5 41q0 27 20 46.5t47 19.5q24 0 40.5 -16t16.5 -39q0 -27 -21 -47.5t-48 -20.5zM571 785q-24 0 -40 16.5t-16 41.5q0 27 21 46t48 19q23 0 39.5 -16t16.5 -39q0 -27 -21 -47.5t-48 -20.5zM120 307l42 398q3 25 28 25h50q25 0 22 -25
l-42 -404q-11 -98 39.5 -159.5t142.5 -61.5q90 0 155 60.5t75 160.5l42 404q3 25 28 25h50q25 0 22 -25l-42 -398q-15 -143 -105.5 -230t-233.5 -87q-128 0 -207.5 90.5t-65.5 226.5z" />
    <glyph glyph-name="Yacute" unicode="&#xdd;" horiz-adv-x="641" 
d="M514 897q25 8 30 -17l5 -36q3 -25 -23 -29l-192 -29q-27 -5 -30 18v6q-3 23 20 30zM96 700q-7 14 -1 22t21 8h58q21 0 28 -17l146 -325q5 -11 13.5 -11t16.5 11l216 325q11 17 32 17h46q14 0 18.5 -8t-4.5 -22l-278 -411q-9 -14 -10 -28l-24 -232q-3 -29 -32 -29h-40
q-29 0 -26 29l24 232q2 16 -4 28z" />
    <glyph glyph-name="Thorn" unicode="&#xde;" horiz-adv-x="636" 
d="M124 0q-25 0 -22 25l71 680q3 25 28 25h48q25 0 22 -25l-7 -67q-2 -18 16 -18h72q125 0 202.5 -65.5t77.5 -176.5q0 -115 -96 -191.5t-237 -76.5h-72q-18 0 -20 -18l-7 -67q-3 -25 -28 -25h-48zM219 207q-2 -18 16 -18h74q94 0 158 54t64 137q0 71 -51.5 116t-133.5 45
h-74q-18 0 -20 -18z" />
    <glyph glyph-name="germandbls" unicode="&#xdf;" horiz-adv-x="658" 
d="M106 0q-25 0 -22 25l57 550q9 92 73 146t175 54q99 0 157 -60t48 -161l-3 -31q-3 -31 -39 -36q-85 -11 -85 -75q0 -24 18 -42.5t43.5 -34t51.5 -34t44 -51t18 -76.5q1 -93 -60 -138.5t-151 -45.5q-80 0 -129.5 44.5t-56.5 108.5q-3 27 25 27h36q21 0 25 -22
q16 -75 108 -75q46 0 78 23t32 66q0 33 -18 56.5t-44.5 39t-52.5 32t-44 45t-18 67.5q0 49 26 86.5t70 56.5q35 15 32 42q-6 48 -35.5 76.5t-83.5 28.5q-60 0 -100 -33.5t-46 -88.5l-57 -545q-3 -25 -28 -25h-44z" />
    <glyph glyph-name="agrave" unicode="&#xe0;" horiz-adv-x="579" 
d="M253 738q14 23 34 9l155 -100q21 -14 7 -34l-5 -7q-14 -21 -35 -12l-168 76q-22 11 -9 33zM55 129q0 76 63 121t174 44l116 -1q39 0 39 47q0 52 -32 80t-89 28q-49 0 -85 -21.5t-49 -56.5q-8 -22 -29 -22h-39q-13 0 -19 7t-2 20q21 73 83 114t153 41q101 0 154.5 -60.5
t42.5 -164.5l-29 -280q-3 -25 -28 -25h-12q-22 0 -26 21l-2 10q-4 19 -15.5 23.5t-28.5 -7.5q-78 -57 -185 -57q-65 0 -110 41t-45 98zM150 138q0 -32 25 -48.5t65 -16.5q80 0 165 57q22 15 25 42l1 10q3 35 -31 35h-114q-136 0 -136 -79z" />
    <glyph glyph-name="aacute" unicode="&#xe1;" horiz-adv-x="579" 
d="M431 740q23 14 33 -10l13 -34q9 -23 -15 -33l-181 -72q-26 -10 -33 11l-2 6q-8 22 13 34zM55 129q0 76 63 121t174 44l116 -1q39 0 39 47q0 52 -32 80t-89 28q-49 0 -85 -21.5t-49 -56.5q-8 -22 -29 -22h-39q-13 0 -19 7t-2 20q21 73 83 114t153 41q101 0 154.5 -60.5
t42.5 -164.5l-29 -280q-3 -25 -28 -25h-12q-22 0 -26 21l-2 10q-4 19 -15.5 23.5t-28.5 -7.5q-78 -57 -185 -57q-65 0 -110 41t-45 98zM150 138q0 -32 25 -48.5t65 -16.5q80 0 165 57q22 15 25 42l1 10q3 35 -31 35h-114q-136 0 -136 -79z" />
    <glyph glyph-name="acircumflex" unicode="&#xe2;" horiz-adv-x="579" 
d="M190 639q-7 20 10 28l138 67q23 12 44 0l127 -67q16 -8 5 -28l-10 -18q-9 -16 -26 -10l-106 38q-20 7 -42 0l-110 -37q-18 -7 -24 9zM55 129q0 76 63 121t174 44l116 -1q39 0 39 47q0 52 -32 80t-89 28q-49 0 -85 -21.5t-49 -56.5q-8 -22 -29 -22h-39q-13 0 -19 7t-2 20
q21 73 83 114t153 41q101 0 154.5 -60.5t42.5 -164.5l-29 -280q-3 -25 -28 -25h-12q-22 0 -26 21l-2 10q-4 19 -15.5 23.5t-28.5 -7.5q-78 -57 -185 -57q-65 0 -110 41t-45 98zM150 138q0 -32 25 -48.5t65 -16.5q80 0 165 57q22 15 25 42l1 10q3 35 -31 35h-114
q-136 0 -136 -79z" />
    <glyph glyph-name="atilde" unicode="&#xe3;" horiz-adv-x="579" 
d="M497 694q28 -5 18 -29q-12 -33 -39 -51.5t-62 -18.5q-34 0 -73 21.5t-54 21.5q-25 0 -40 -16q-16 -19 -34 -15l-15 3q-26 5 -17 30q24 70 97 70q37 0 80.5 -22t52.5 -22q25 0 39 15q17 20 33 16zM55 129q0 76 63 121t174 44l116 -1q39 0 39 47q0 52 -32 80t-89 28
q-49 0 -85 -21.5t-49 -56.5q-8 -22 -29 -22h-39q-13 0 -19 7t-2 20q21 73 83 114t153 41q101 0 154.5 -60.5t42.5 -164.5l-29 -280q-3 -25 -28 -25h-12q-22 0 -26 21l-2 10q-4 19 -15.5 23.5t-28.5 -7.5q-78 -57 -185 -57q-65 0 -110 41t-45 98zM150 138q0 -32 25 -48.5
t65 -16.5q80 0 165 57q22 15 25 42l1 10q3 35 -31 35h-114q-136 0 -136 -79z" />
    <glyph glyph-name="adieresis" unicode="&#xe4;" horiz-adv-x="579" 
d="M253 619q-22 0 -37 15.5t-15 38.5q0 25 19 44t45 19q22 0 38 -15.5t16 -36.5q0 -27 -20 -46t-46 -19zM443 619q-23 0 -38 15.5t-15 39.5q0 25 19.5 43.5t45.5 18.5q22 0 38 -15.5t16 -36.5q0 -27 -20 -46t-46 -19zM55 129q0 76 63 121t174 44l116 -1q39 0 39 47
q0 52 -32 80t-89 28q-49 0 -85 -21.5t-49 -56.5q-8 -22 -29 -22h-39q-13 0 -19 7t-2 20q21 73 83 114t153 41q101 0 154.5 -60.5t42.5 -164.5l-29 -280q-3 -25 -28 -25h-12q-22 0 -26 21l-2 10q-4 19 -15.5 23.5t-28.5 -7.5q-78 -57 -185 -57q-65 0 -110 41t-45 98zM150 138
q0 -32 25 -48.5t65 -16.5q80 0 165 57q22 15 25 42l1 10q3 35 -31 35h-114q-136 0 -136 -79z" />
    <glyph glyph-name="aring" unicode="&#xe5;" horiz-adv-x="579" 
d="M343 581q-44 0 -74 27.5t-30 68.5q0 47 34.5 80t91.5 33q45 0 75.5 -28t30.5 -67q0 -48 -34.5 -81t-93.5 -33zM349 641q22 0 37.5 14.5t15.5 34.5q0 18 -12 30t-31 12q-21 0 -36 -15t-15 -35q0 -18 11.5 -29.5t29.5 -11.5zM55 129q0 76 63 121t174 44l116 -1q39 0 39 47
q0 52 -32 80t-89 28q-49 0 -85 -21.5t-49 -56.5q-8 -22 -29 -22h-39q-13 0 -19 7t-2 20q21 73 83 114t153 41q101 0 154.5 -60.5t42.5 -164.5l-29 -280q-3 -25 -28 -25h-12q-22 0 -26 21l-2 10q-4 19 -15.5 23.5t-28.5 -7.5q-78 -57 -185 -57q-65 0 -110 41t-45 98zM150 138
q0 -32 25 -48.5t65 -16.5q80 0 165 57q22 15 25 42l1 10q3 35 -31 35h-114q-136 0 -136 -79z" />
    <glyph glyph-name="ae" unicode="&#xe6;" horiz-adv-x="951" 
d="M54 123q0 82 64 126t173 43l116 -1q25 0 26 12l1 12q6 66 -24 99t-87 33q-45 0 -82 -21.5t-51 -55.5q-9 -22 -29 -22h-37q-13 0 -19.5 7t-2.5 19q20 72 84.5 114t149.5 42q109 0 157 -71q15 -20 34 -2q81 73 192 73q100 0 165 -76.5t52 -178.5q-3 -22 -12.5 -31t-29.5 -9
l-348 1q-29 0 -26 -27q8 -63 48.5 -101t103.5 -38q49 0 87 20t56 54q11 20 31 20h38q13 0 18.5 -7.5t0.5 -20.5q-26 -64 -89.5 -105t-149.5 -41q-54 0 -103 21.5t-80 59.5q-14 17 -34 2q-101 -83 -226 -83q-74 0 -120.5 41t-46.5 92zM542 337q-6 -13 -1 -20.5t19 -7.5
l258 -1q14 0 21 9t3 25q-9 47 -44 77.5t-88 30.5q-51 0 -97 -30.5t-71 -82.5zM150 137q0 -31 26.5 -46.5t66.5 -15.5q86 0 177 68q15 11 12 32l-3 19q-3 22 -24 22h-119q-69 0 -102.5 -19t-33.5 -60z" />
    <glyph glyph-name="ccedilla" unicode="&#xe7;" horiz-adv-x="600" 
d="M364 449q-82 0 -139.5 -59.5t-57.5 -149.5q0 -76 44.5 -122.5t111.5 -46.5q53 0 95 24t60 65q9 21 30 21h43q13 0 18.5 -7.5t1.5 -19.5q-25 -71 -89 -115.5t-150 -48.5l-5 -13q-7 -15 9 -19q62 -16 62 -75q0 -47 -37 -75t-93 -28q-47 0 -75 17q-17 11 -12 30l5 15
q6 21 32 9q23 -10 50 -10q22 0 35.5 9.5t13.5 25.5q0 35 -41 35h-8q-15 0 -21 8.5t-1 22.5l20 53q-86 17 -140.5 85t-54.5 157q0 124 85.5 208.5t214.5 84.5q90 0 152 -50.5t71 -121.5q3 -27 -26 -27h-41q-21 0 -25 22q-10 40 -47 68t-91 28z" />
    <glyph glyph-name="egrave" unicode="&#xe8;" horiz-adv-x="595" 
d="M270 738q14 23 34 9l155 -100q21 -14 7 -34l-5 -7q-14 -21 -35 -12l-168 76q-22 11 -9 33zM71 236q0 122 79 208t202 86q114 0 171 -67.5t57 -168.5q0 -59 -39 -59l-340 1q-18 0 -28.5 -10.5t-7.5 -27.5q10 -59 50 -93t101 -34q49 0 87 19.5t56 53.5q11 20 31 20h38
q13 0 19 -8t0 -20q-65 -146 -239 -146q-98 0 -167.5 69.5t-69.5 176.5zM194 354q-10 -17 -3 -28.5t27 -11.5l231 -1q19 0 29 11t5 29q-12 44 -49 70.5t-88 26.5q-94 0 -152 -96z" />
    <glyph glyph-name="eacute" unicode="&#xe9;" horiz-adv-x="595" 
d="M448 740q23 14 33 -10l13 -34q9 -23 -15 -33l-181 -72q-26 -10 -33 11l-2 6q-8 22 13 34zM71 236q0 122 79 208t202 86q114 0 171 -67.5t57 -168.5q0 -59 -39 -59l-340 1q-18 0 -28.5 -10.5t-7.5 -27.5q10 -59 50 -93t101 -34q49 0 87 19.5t56 53.5q11 20 31 20h38
q13 0 19 -8t0 -20q-65 -146 -239 -146q-98 0 -167.5 69.5t-69.5 176.5zM194 354q-10 -17 -3 -28.5t27 -11.5l231 -1q19 0 29 11t5 29q-12 44 -49 70.5t-88 26.5q-94 0 -152 -96z" />
    <glyph glyph-name="ecircumflex" unicode="&#xea;" horiz-adv-x="595" 
d="M207 639q-7 20 10 28l138 67q23 12 44 0l127 -67q16 -8 5 -28l-10 -18q-9 -16 -26 -10l-106 38q-20 7 -42 0l-110 -37q-18 -7 -24 9zM71 236q0 122 79 208t202 86q114 0 171 -67.5t57 -168.5q0 -59 -39 -59l-340 1q-18 0 -28.5 -10.5t-7.5 -27.5q10 -59 50 -93t101 -34
q49 0 87 19.5t56 53.5q11 20 31 20h38q13 0 19 -8t0 -20q-65 -146 -239 -146q-98 0 -167.5 69.5t-69.5 176.5zM194 354q-10 -17 -3 -28.5t27 -11.5l231 -1q19 0 29 11t5 29q-12 44 -49 70.5t-88 26.5q-94 0 -152 -96z" />
    <glyph glyph-name="edieresis" unicode="&#xeb;" horiz-adv-x="595" 
d="M270 619q-22 0 -37 15.5t-15 38.5q0 25 19 44t45 19q22 0 38 -15.5t16 -36.5q0 -27 -20 -46t-46 -19zM460 619q-23 0 -38 15.5t-15 39.5q0 25 19.5 43.5t45.5 18.5q22 0 38 -15.5t16 -36.5q0 -27 -20 -46t-46 -19zM71 236q0 122 79 208t202 86q114 0 171 -67.5t57 -168.5
q0 -59 -39 -59l-340 1q-18 0 -28.5 -10.5t-7.5 -27.5q10 -59 50 -93t101 -34q49 0 87 19.5t56 53.5q11 20 31 20h38q13 0 19 -8t0 -20q-65 -146 -239 -146q-98 0 -167.5 69.5t-69.5 176.5zM194 354q-10 -17 -3 -28.5t27 -11.5l231 -1q19 0 29 11t5 29q-12 44 -49 70.5
t-88 26.5q-94 0 -152 -96z" />
    <glyph glyph-name="igrave" unicode="&#xec;" horiz-adv-x="261" 
d="M104 738q14 23 34 9l155 -100q21 -14 7 -34l-5 -7q-14 -21 -35 -12l-168 76q-22 11 -9 33zM207 520q25 0 22 -25l-49 -470q-3 -25 -28 -25h-44q-25 0 -22 25l49 470q3 25 28 25h44z" />
    <glyph glyph-name="iacute" unicode="&#xed;" horiz-adv-x="261" 
d="M277 740q22 14 31 -10l13 -34q9 -23 -14 -33l-175 -72q-25 -10 -32 11l-2 6q-8 21 12 34zM207 520q25 0 22 -25l-49 -470q-3 -25 -28 -25h-44q-25 0 -22 25l49 470q3 25 28 25h44z" />
    <glyph glyph-name="icircumflex" unicode="&#xee;" horiz-adv-x="261" 
d="M46 639q-7 20 9 28l131 67q23 12 42 0l121 -67q14 -8 5 -28l-10 -18q-8 -17 -24 -10l-101 38q-19 7 -40 0l-105 -37q-18 -7 -22 9zM207 520q25 0 22 -25l-49 -470q-3 -25 -28 -25h-44q-25 0 -22 25l49 470q3 25 28 25h44z" />
    <glyph glyph-name="idieresis" unicode="&#xef;" horiz-adv-x="261" 
d="M104 619q-22 0 -37 15.5t-15 38.5q0 25 19 44t45 19q22 0 38 -15.5t16 -36.5q0 -27 -20 -46t-46 -19zM294 619q-23 0 -38 15.5t-15 39.5q0 25 19.5 43.5t45.5 18.5q22 0 38 -15.5t16 -36.5q0 -27 -20 -46t-46 -19zM207 520q25 0 22 -25l-49 -470q-3 -25 -28 -25h-44
q-25 0 -22 25l49 470q3 25 28 25h44z" />
    <glyph glyph-name="eth" unicode="&#xf0;" horiz-adv-x="621" 
d="M415 589l-95 -31q-25 -8 -31 14l-6 20q-7 24 18 32l83 28l-47 98q-7 14 -1 22t21 8h41q20 0 28 -17l39 -85l108 36q26 9 31 -15l4 -20q5 -25 -18 -32l-97 -32l60 -126q49 -103 49 -203q0 -137 -80 -216.5t-213 -79.5q-101 0 -169.5 66t-68.5 171q0 121 76.5 196.5
t204.5 75.5q38 0 81 -19q13 -6 20.5 -4.5t8.5 7t-2 12.5zM167 233q0 -71 42 -116.5t108 -45.5q76 0 132 48t62 125q1 16 1 48q-5 62 -47.5 95.5t-109.5 33.5q-78 0 -133 -53.5t-55 -134.5z" />
    <glyph glyph-name="ntilde" unicode="&#xf1;" horiz-adv-x="651" 
d="M546 694q28 -5 18 -29q-12 -33 -39 -51.5t-62 -18.5q-34 0 -73 21.5t-54 21.5q-25 0 -40 -16q-16 -19 -34 -15l-15 3q-26 5 -17 30q24 70 97 70q37 0 80.5 -22t52.5 -22q25 0 39 15q17 20 33 16zM106 0q-25 0 -22 25l49 470q3 25 28 25h18q22 0 25 -22l1 -8q4 -38 44 -15
q94 55 202 55q80 0 125 -53t35 -144l-32 -308q-3 -25 -28 -25h-44q-25 0 -22 25l32 304q6 57 -20.5 87.5t-81.5 30.5q-73 0 -176 -60q-25 -15 -28 -42l-33 -320q-3 -25 -28 -25h-44z" />
    <glyph glyph-name="ograve" unicode="&#xf2;" horiz-adv-x="641" 
d="M289 738q14 23 34 9l155 -100q21 -14 7 -34l-5 -7q-14 -21 -35 -12l-168 76q-22 11 -9 33zM71 237q0 125 86.5 209t219.5 84q107 0 177.5 -70t70.5 -172q0 -127 -86 -212.5t-219 -85.5q-106 0 -177.5 71.5t-71.5 175.5zM165 242q0 -73 45 -122t118 -49q85 0 144 61
t59 147q0 73 -45.5 121.5t-117.5 48.5q-86 0 -144.5 -60.5t-58.5 -146.5z" />
    <glyph glyph-name="oacute" unicode="&#xf3;" horiz-adv-x="641" 
d="M467 740q23 14 33 -10l13 -34q9 -23 -15 -33l-181 -72q-26 -10 -33 11l-2 6q-8 22 13 34zM71 237q0 125 86.5 209t219.5 84q107 0 177.5 -70t70.5 -172q0 -127 -86 -212.5t-219 -85.5q-106 0 -177.5 71.5t-71.5 175.5zM165 242q0 -73 45 -122t118 -49q85 0 144 61t59 147
q0 73 -45.5 121.5t-117.5 48.5q-86 0 -144.5 -60.5t-58.5 -146.5z" />
    <glyph glyph-name="ocircumflex" unicode="&#xf4;" horiz-adv-x="641" 
d="M226 639q-7 20 10 28l138 67q23 12 44 0l127 -67q16 -8 5 -28l-10 -18q-9 -16 -26 -10l-106 38q-20 7 -42 0l-110 -37q-18 -7 -24 9zM71 237q0 125 86.5 209t219.5 84q107 0 177.5 -70t70.5 -172q0 -127 -86 -212.5t-219 -85.5q-106 0 -177.5 71.5t-71.5 175.5zM165 242
q0 -73 45 -122t118 -49q85 0 144 61t59 147q0 73 -45.5 121.5t-117.5 48.5q-86 0 -144.5 -60.5t-58.5 -146.5z" />
    <glyph glyph-name="otilde" unicode="&#xf5;" horiz-adv-x="641" 
d="M533 694q28 -5 18 -29q-12 -33 -39 -51.5t-62 -18.5q-34 0 -73 21.5t-54 21.5q-25 0 -40 -16q-16 -19 -34 -15l-15 3q-26 5 -17 30q24 70 97 70q37 0 80.5 -22t52.5 -22q25 0 39 15q17 20 33 16zM71 237q0 125 86.5 209t219.5 84q107 0 177.5 -70t70.5 -172
q0 -127 -86 -212.5t-219 -85.5q-106 0 -177.5 71.5t-71.5 175.5zM165 242q0 -73 45 -122t118 -49q85 0 144 61t59 147q0 73 -45.5 121.5t-117.5 48.5q-86 0 -144.5 -60.5t-58.5 -146.5z" />
    <glyph glyph-name="odieresis" unicode="&#xf6;" horiz-adv-x="641" 
d="M289 619q-22 0 -37 15.5t-15 38.5q0 25 19 44t45 19q22 0 38 -15.5t16 -36.5q0 -27 -20 -46t-46 -19zM479 619q-23 0 -38 15.5t-15 39.5q0 25 19.5 43.5t45.5 18.5q22 0 38 -15.5t16 -36.5q0 -27 -20 -46t-46 -19zM71 237q0 125 86.5 209t219.5 84q107 0 177.5 -70
t70.5 -172q0 -127 -86 -212.5t-219 -85.5q-106 0 -177.5 71.5t-71.5 175.5zM165 242q0 -73 45 -122t118 -49q85 0 144 61t59 147q0 73 -45.5 121.5t-117.5 48.5q-86 0 -144.5 -60.5t-58.5 -146.5z" />
    <glyph glyph-name="divide" unicode="&#xf7;" horiz-adv-x="545" 
d="M312 381q-22 0 -36.5 15.5t-14.5 38.5q0 25 18.5 44t44.5 19q22 0 37.5 -15.5t15.5 -36.5q0 -26 -19.5 -45.5t-45.5 -19.5zM493 302q25 0 22 -25l-3 -27q-3 -25 -27 -25h-378q-26 0 -23 25l3 27q3 25 28 25h378zM275 19q-22 0 -37 16t-15 39q0 25 19 43.5t45 18.5
q22 0 37 -15.5t15 -36.5q0 -26 -19 -45.5t-45 -19.5z" />
    <glyph glyph-name="oslash" unicode="&#xf8;" horiz-adv-x="641" 
d="M617 459l-35 -31q43 -64 43 -140q0 -127 -86 -212.5t-219 -85.5q-94 0 -163 58l-43 -39q-24 -22 -43 0l-6 7q-19 22 4 43l44 39q-42 62 -42 139q0 125 86.5 209t219.5 84q91 0 158 -53l37 33q21 20 41 0l8 -8q21 -21 -4 -43zM165 242q0 -44 17 -81l286 256
q-43 32 -100 32q-86 0 -144.5 -60.5t-58.5 -146.5zM531 279q0 47 -20 85l-287 -257q42 -36 104 -36q85 0 144 61t59 147z" />
    <glyph glyph-name="ugrave" unicode="&#xf9;" horiz-adv-x="631" 
d="M285 738q14 23 34 9l155 -100q21 -14 7 -34l-5 -7q-14 -21 -35 -12l-168 76q-22 11 -9 33zM96 187l32 308q3 25 28 25h44q25 0 22 -25l-32 -304q-6 -57 19 -87.5t78 -30.5q56 0 158 52q25 13 28 41l35 329q3 25 28 25h44q25 0 22 -25l-49 -470q-3 -25 -28 -25h-17
q-25 0 -25 22v2q-1 18 -13.5 22t-30.5 -6q-94 -50 -188 -50q-75 0 -119.5 53.5t-35.5 143.5z" />
    <glyph glyph-name="uacute" unicode="&#xfa;" horiz-adv-x="631" 
d="M463 740q23 14 33 -10l13 -34q9 -23 -15 -33l-181 -72q-26 -10 -33 11l-2 6q-8 22 13 34zM96 187l32 308q3 25 28 25h44q25 0 22 -25l-32 -304q-6 -57 19 -87.5t78 -30.5q56 0 158 52q25 13 28 41l35 329q3 25 28 25h44q25 0 22 -25l-49 -470q-3 -25 -28 -25h-17
q-25 0 -25 22v2q-1 18 -13.5 22t-30.5 -6q-94 -50 -188 -50q-75 0 -119.5 53.5t-35.5 143.5z" />
    <glyph glyph-name="ucircumflex" unicode="&#xfb;" horiz-adv-x="631" 
d="M222 639q-7 20 10 28l138 67q23 12 44 0l127 -67q16 -8 5 -28l-10 -18q-9 -16 -26 -10l-106 38q-20 7 -42 0l-110 -37q-18 -7 -24 9zM96 187l32 308q3 25 28 25h44q25 0 22 -25l-32 -304q-6 -57 19 -87.5t78 -30.5q56 0 158 52q25 13 28 41l35 329q3 25 28 25h44
q25 0 22 -25l-49 -470q-3 -25 -28 -25h-17q-25 0 -25 22v2q-1 18 -13.5 22t-30.5 -6q-94 -50 -188 -50q-75 0 -119.5 53.5t-35.5 143.5z" />
    <glyph glyph-name="udieresis" unicode="&#xfc;" horiz-adv-x="631" 
d="M285 619q-22 0 -37 15.5t-15 38.5q0 25 19 44t45 19q22 0 38 -15.5t16 -36.5q0 -27 -20 -46t-46 -19zM475 619q-23 0 -38 15.5t-15 39.5q0 25 19.5 43.5t45.5 18.5q22 0 38 -15.5t16 -36.5q0 -27 -20 -46t-46 -19zM96 187l32 308q3 25 28 25h44q25 0 22 -25l-32 -304
q-6 -57 19 -87.5t78 -30.5q56 0 158 52q25 13 28 41l35 329q3 25 28 25h44q25 0 22 -25l-49 -470q-3 -25 -28 -25h-17q-25 0 -25 22v2q-1 18 -13.5 22t-30.5 -6q-94 -50 -188 -50q-75 0 -119.5 53.5t-35.5 143.5z" />
    <glyph glyph-name="yacute" unicode="&#xfd;" horiz-adv-x="559" 
d="M429 740q23 14 33 -10l13 -34q9 -23 -15 -33l-181 -72q-26 -10 -33 11l-2 6q-8 22 13 34zM77 491q-4 13 2.5 21t20.5 8h53q20 0 26 -20l103 -385q2 -8 7 -11.5t10 -0.5t9 12l177 385q9 20 30 20h54q29 0 15 -29l-277 -546q-24 -47 -40 -71.5t-40 -47t-55 -31t-76 -8.5
q-36 0 -69 9q-22 6 -16 30l6 23q7 28 31 20q25 -8 60 -8q42 0 70.5 25.5t55.5 77.5l19 36h-11q-16 0 -21 16z" />
    <glyph glyph-name="thorn" unicode="&#xfe;" horiz-adv-x="658" 
d="M83 -220q-25 0 -23 25l98 925q2 25 27 25h36q26 0 23 -25l-24 -225q-2 -22 8 -26.5t30 8.5q66 43 152 43q100 0 166.5 -70t66.5 -173q0 -122 -87 -209.5t-205 -87.5q-86 0 -140 42q-16 13 -28 8.5t-14 -26.5l-21 -209q-3 -25 -28 -25h-37zM196 198q-3 -25 6 -43
q45 -84 148 -84q78 0 137.5 61.5t59.5 146.5q0 72 -45.5 121t-111.5 49q-107 0 -166 -83q-12 -16 -15 -43z" />
    <glyph glyph-name="ydieresis" unicode="&#xff;" horiz-adv-x="559" 
d="M251 619q-22 0 -37 15.5t-15 38.5q0 25 19 44t45 19q22 0 38 -15.5t16 -36.5q0 -27 -20 -46t-46 -19zM441 619q-23 0 -38 15.5t-15 39.5q0 25 19.5 43.5t45.5 18.5q22 0 38 -15.5t16 -36.5q0 -27 -20 -46t-46 -19zM77 491q-4 13 2.5 21t20.5 8h53q20 0 26 -20l103 -385
q2 -8 7 -11.5t10 -0.5t9 12l177 385q9 20 30 20h54q29 0 15 -29l-277 -546q-24 -47 -40 -71.5t-40 -47t-55 -31t-76 -8.5q-36 0 -69 9q-22 6 -16 30l6 23q7 28 31 20q25 -8 60 -8q42 0 70.5 25.5t55.5 77.5l19 36h-11q-16 0 -21 16z" />
    <glyph glyph-name="Amacron" unicode="&#x100;" horiz-adv-x="713" 
d="M302 859q3 25 27 25h242q26 0 23 -25l-3 -27q-3 -25 -28 -25h-242q-25 0 -22 25zM39 0q-12 0 -17 8t1 21l342 682q9 19 29 19h76q19 0 25 -19l200 -682q8 -29 -22 -29h-52q-22 0 -27 20l-37 136q-3 11 -14 11h-340q-12 0 -18 -11l-64 -136q-10 -20 -31 -20h-51zM244 276
q-4 -7 -1.5 -11.5t10.5 -4.5h258q8 0 11.5 4.5t1.5 11.5l-95 342q-1 5 -4.5 7t-7.5 0t-6 -7z" />
    <glyph glyph-name="amacron" unicode="&#x101;" horiz-adv-x="579" 
d="M208 674q3 25 27 25h242q26 0 23 -25l-3 -27q-3 -25 -28 -25h-242q-25 0 -22 25zM55 129q0 76 63 121t174 44l116 -1q39 0 39 47q0 52 -32 80t-89 28q-49 0 -85 -21.5t-49 -56.5q-8 -22 -29 -22h-39q-13 0 -19 7t-2 20q21 73 83 114t153 41q101 0 154.5 -60.5
t42.5 -164.5l-29 -280q-3 -25 -28 -25h-12q-22 0 -26 21l-2 10q-4 19 -15.5 23.5t-28.5 -7.5q-78 -57 -185 -57q-65 0 -110 41t-45 98zM150 138q0 -32 25 -48.5t65 -16.5q80 0 165 57q22 15 25 42l1 10q3 35 -31 35h-114q-136 0 -136 -79z" />
    <glyph glyph-name="Abreve" unicode="&#x102;" horiz-adv-x="713" 
d="M353 915q19 0 26 -20q7 -21 27.5 -32.5t46.5 -11.5q57 0 83 44q11 20 32 20l27 -1q29 -2 19 -27q-43 -107 -169 -108q-53 -1 -96 28t-52 80q-4 25 25 27zM39 0q-12 0 -17 8t1 21l342 682q9 19 29 19h76q19 0 25 -19l200 -682q8 -29 -22 -29h-52q-22 0 -27 20l-37 136
q-3 11 -14 11h-340q-12 0 -18 -11l-64 -136q-10 -20 -31 -20h-51zM244 276q-4 -7 -1.5 -11.5t10.5 -4.5h258q8 0 11.5 4.5t1.5 11.5l-95 342q-1 5 -4.5 7t-7.5 0t-6 -7z" />
    <glyph glyph-name="abreve" unicode="&#x103;" horiz-adv-x="579" 
d="M253 727q19 0 26 -20q7 -21 27.5 -32.5t46.5 -11.5q57 0 83 44q11 20 32 20l27 -1q29 -2 19 -27q-43 -107 -169 -108q-53 -1 -96 28t-52 80q-4 25 25 27zM55 129q0 76 63 121t174 44l116 -1q39 0 39 47q0 52 -32 80t-89 28q-49 0 -85 -21.5t-49 -56.5q-8 -22 -29 -22h-39
q-13 0 -19 7t-2 20q21 73 83 114t153 41q101 0 154.5 -60.5t42.5 -164.5l-29 -280q-3 -25 -28 -25h-12q-22 0 -26 21l-2 10q-4 19 -15.5 23.5t-28.5 -7.5q-78 -57 -185 -57q-65 0 -110 41t-45 98zM150 138q0 -32 25 -48.5t65 -16.5q80 0 165 57q22 15 25 42l1 10
q3 35 -31 35h-114q-136 0 -136 -79z" />
    <glyph glyph-name="Aogonek" unicode="&#x104;" horiz-adv-x="713" 
d="M684 2q-84 -50 -84 -122q0 -38 40 -38q8 0 22 2q10 1 15.5 -3t4.5 -14l-2 -18q-1 -16 -19 -21q-16 -5 -41 -5q-42 0 -69.5 24.5t-27.5 62.5q0 80 85 132q-11 5 -14 18l-37 136q-3 11 -14 11h-340q-12 0 -18 -11l-64 -136q-10 -20 -31 -20h-51q-12 0 -17 8t1 21l342 682
q9 19 29 19h76q19 0 25 -19l200 -682q6 -20 -11 -27zM511 260q8 0 11.5 4.5t1.5 11.5l-95 342q-1 5 -4.5 7t-7.5 0t-6 -7l-167 -342q-4 -7 -1.5 -11.5t10.5 -4.5h258z" />
    <glyph glyph-name="aogonek" unicode="&#x105;" horiz-adv-x="579" 
d="M339 530q101 0 154.5 -60.5t42.5 -164.5l-29 -280q-2 -18 -17 -23q-84 -50 -84 -122q0 -38 40 -38q8 0 22 2q10 1 15.5 -3t4.5 -14l-2 -18q-1 -16 -19 -21q-16 -5 -41 -5q-42 0 -69.5 24.5t-27.5 62.5q0 93 113 147l-1 4l-2 10q-4 19 -15.5 23.5t-28.5 -7.5
q-78 -57 -185 -57q-65 0 -110 41t-45 98q0 76 63 121t174 44l116 -1q39 0 39 47q0 52 -32 80t-89 28q-49 0 -85 -21.5t-49 -56.5q-8 -22 -29 -22h-39q-13 0 -19 7t-2 20q21 73 83 114t153 41zM431 182q3 35 -31 35h-114q-136 0 -136 -79q0 -32 25 -48.5t65 -16.5
q80 0 165 57q22 15 25 42z" />
    <glyph glyph-name="Cacute" unicode="&#x106;" horiz-adv-x="828" 
d="M617 902q25 8 30 -17l5 -36q3 -25 -23 -29l-192 -29q-27 -5 -30 18v6q-3 23 20 30zM85 331q0 177 124 293t300 116q133 0 222.5 -82t96.5 -196q2 -26 -26 -26h-51q-22 0 -25 23q-8 83 -69 136.5t-158 53.5q-128 0 -220.5 -88t-92.5 -223q0 -115 72 -186t182 -71
q90 0 160.5 41.5t102.5 115.5q9 21 30 21h51q12 0 17.5 -8t0.5 -20q-41 -106 -140.5 -173.5t-231.5 -67.5q-143 0 -244 96t-101 245z" />
    <glyph glyph-name="cacute" unicode="&#x107;" horiz-adv-x="600" 
d="M466 740q23 14 33 -10l13 -34q9 -23 -15 -33l-181 -72q-26 -10 -33 11l-2 6q-8 22 13 34zM527 331q-21 0 -25 22q-10 40 -47 68t-91 28q-82 0 -139.5 -59.5t-57.5 -149.5q0 -76 44.5 -122.5t111.5 -46.5q53 0 95 24t60 65q9 21 30 21h43q13 0 18.5 -7.5t1.5 -19.5
q-26 -74 -94.5 -119t-159.5 -45q-105 0 -175.5 72.5t-70.5 174.5q0 124 85.5 208.5t214.5 84.5q90 0 152 -50.5t71 -121.5q3 -27 -26 -27h-41z" />
    <glyph glyph-name="Cdotaccent" unicode="&#x10a;" horiz-adv-x="828" 
d="M511 789q-26 0 -43.5 18t-17.5 45q0 29 22.5 50.5t53.5 21.5q26 0 43.5 -18t17.5 -43q0 -30 -23 -52t-53 -22zM85 331q0 177 124 293t300 116q133 0 222.5 -82t96.5 -196q2 -26 -26 -26h-51q-22 0 -25 23q-8 83 -69 136.5t-158 53.5q-128 0 -220.5 -88t-92.5 -223
q0 -115 72 -186t182 -71q90 0 160.5 41.5t102.5 115.5q9 21 30 21h51q12 0 17.5 -8t0.5 -20q-41 -106 -140.5 -173.5t-231.5 -67.5q-143 0 -244 96t-101 245z" />
    <glyph glyph-name="cdotaccent" unicode="&#x10b;" horiz-adv-x="600" 
d="M383 622q-26 0 -43.5 18t-17.5 45q0 29 22.5 50.5t53.5 21.5q26 0 43.5 -17.5t17.5 -43.5q0 -30 -23 -52t-53 -22zM527 331q-21 0 -25 22q-10 40 -47 68t-91 28q-82 0 -139.5 -59.5t-57.5 -149.5q0 -76 44.5 -122.5t111.5 -46.5q53 0 95 24t60 65q9 21 30 21h43
q13 0 18.5 -7.5t1.5 -19.5q-26 -74 -94.5 -119t-159.5 -45q-105 0 -175.5 72.5t-70.5 174.5q0 124 85.5 208.5t214.5 84.5q90 0 152 -50.5t71 -121.5q3 -27 -26 -27h-41z" />
    <glyph glyph-name="Ccaron" unicode="&#x10c;" horiz-adv-x="828" 
d="M366 890l6 17q8 23 30 14l102 -33q17 -6 35 0l108 33q22 7 26 -14l4 -17q5 -21 -16 -29l-122 -52q-28 -12 -55 0l-109 52q-19 8 -9 29zM85 331q0 177 124 293t300 116q133 0 222.5 -82t96.5 -196q2 -26 -26 -26h-51q-22 0 -25 23q-8 83 -69 136.5t-158 53.5
q-128 0 -220.5 -88t-92.5 -223q0 -115 72 -186t182 -71q90 0 160.5 41.5t102.5 115.5q9 21 30 21h51q12 0 17.5 -8t0.5 -20q-41 -106 -140.5 -173.5t-231.5 -67.5q-143 0 -244 96t-101 245z" />
    <glyph glyph-name="ccaron" unicode="&#x10d;" horiz-adv-x="600" 
d="M238 693l6 16q8 23 30 14l100 -32q17 -6 35 0l106 32q22 7 26 -14l4 -16q5 -21 -16 -29l-120 -51q-28 -12 -54 0l-108 51q-19 8 -9 29zM527 331q-21 0 -25 22q-10 40 -47 68t-91 28q-82 0 -139.5 -59.5t-57.5 -149.5q0 -76 44.5 -122.5t111.5 -46.5q53 0 95 24t60 65
q9 21 30 21h43q13 0 18.5 -7.5t1.5 -19.5q-26 -74 -94.5 -119t-159.5 -45q-105 0 -175.5 72.5t-70.5 174.5q0 124 85.5 208.5t214.5 84.5q90 0 152 -50.5t71 -121.5q3 -27 -26 -27h-41z" />
    <glyph glyph-name="Dcaron" unicode="&#x10e;" horiz-adv-x="796" 
d="M299 885l6 17q8 23 30 14l102 -33q17 -6 35 0l108 33q22 7 26 -14l4 -17q5 -21 -16 -29l-122 -52q-28 -12 -55 0l-109 52q-19 8 -9 29zM127 0q-28 0 -25 28l71 674q3 28 31 28h243q148 0 244 -94.5t96 -235.5q0 -179 -120.5 -289.5t-296.5 -110.5h-243zM208 103
q-2 -18 16 -18h155q125 0 216 83.5t91 227.5q0 118 -71 184t-177 66h-155q-18 0 -20 -18z" />
    <glyph glyph-name="dcaron" unicode="&#x10f;" horiz-adv-x="659" 
d="M723 600q24 0 30 23l43 172q6 27 -20 27h-31q-23 0 -28 -24l-33 -172q-5 -26 21 -26h18zM71 235q0 128 85 211.5t212 83.5q70 0 130 -34q38 -22 42 20l25 239q3 25 28 25h41q25 0 22 -25l-76 -730q-3 -25 -28 -25h-10q-22 0 -26 21l-1 6q-6 37 -40 11q-64 -48 -162 -48
q-106 0 -174 69.5t-68 175.5zM167 244q0 -74 45 -123.5t112 -49.5q99 0 164 83q13 16 16 43l13 127q3 27 -6 43q-46 82 -147 82q-77 0 -137 -60t-60 -145z" />
    <glyph glyph-name="Dcroat" unicode="&#x110;" horiz-adv-x="796" 
d="M447 730q148 0 244 -94.5t96 -235.5q0 -179 -120.5 -289.5t-296.5 -110.5h-243q-28 0 -25 28l32 303h-51q-24 0 -22 25l2 28q2 25 28 25h51l31 293q3 28 31 28h243zM379 85q125 0 216 83.5t91 227.5q0 118 -71 184t-177 66h-155q-18 0 -20 -18l-23 -219h138q24 0 22 -25
l-2 -28q-2 -25 -28 -25h-138l-24 -228q-2 -18 16 -18h155z" />
    <glyph glyph-name="dcroat" unicode="&#x111;" horiz-adv-x="659" 
d="M715 674q24 0 22 -25l-2 -28q-2 -25 -28 -25h-68l-59 -571q-3 -25 -28 -25h-10q-22 0 -26 21l-1 6q-6 37 -40 11q-64 -48 -162 -48q-106 0 -174 69.5t-68 175.5q0 128 85 211.5t212 83.5q70 0 130 -34q38 -22 42 20l8 80h-128q-24 0 -22 25l2 28q2 25 28 25h129l8 81
q3 25 28 25h41q25 0 22 -25l-8 -81h67zM517 324q3 27 -6 43q-46 82 -147 82q-77 0 -137 -60t-60 -145q0 -74 45 -123.5t112 -49.5q99 0 164 83q13 16 16 43z" />
    <glyph glyph-name="Emacron" unicode="&#x112;" horiz-adv-x="566" 
d="M250 859q3 25 27 25h242q26 0 23 -25l-3 -27q-3 -25 -28 -25h-242q-25 0 -22 25zM127 0q-28 0 -25 28l71 674q3 28 31 28h355q25 0 22 -25l-4 -35q-3 -25 -27 -25h-268q-18 0 -20 -18l-21 -203q-2 -18 16 -18h248q25 0 22 -25l-4 -36q-3 -25 -27 -25h-248q-18 0 -20 -18
l-21 -198q-2 -18 16 -18h273q25 0 22 -25l-3 -36q-3 -25 -28 -25h-360z" />
    <glyph glyph-name="emacron" unicode="&#x113;" horiz-adv-x="595" 
d="M225 674q3 25 27 25h242q26 0 23 -25l-3 -27q-3 -25 -28 -25h-242q-25 0 -22 25zM71 236q0 122 79 208t202 86q114 0 171 -67.5t57 -168.5q0 -59 -39 -59l-340 1q-18 0 -28.5 -10.5t-7.5 -27.5q10 -59 50 -93t101 -34q49 0 87 19.5t56 53.5q11 20 31 20h38q13 0 19 -8
t0 -20q-65 -146 -239 -146q-98 0 -167.5 69.5t-69.5 176.5zM194 354q-10 -17 -3 -28.5t27 -11.5l231 -1q19 0 29 11t5 29q-12 44 -49 70.5t-88 26.5q-94 0 -152 -96z" />
    <glyph glyph-name="Edotaccent" unicode="&#x116;" horiz-adv-x="566" 
d="M389 784q-26 0 -43.5 18t-17.5 45q0 29 22.5 50.5t53.5 21.5q26 0 43.5 -17.5t17.5 -43.5q0 -30 -23 -52t-53 -22zM127 0q-28 0 -25 28l71 674q3 28 31 28h355q25 0 22 -25l-4 -35q-3 -25 -27 -25h-268q-18 0 -20 -18l-21 -203q-2 -18 16 -18h248q25 0 22 -25l-4 -36
q-3 -25 -27 -25h-248q-18 0 -20 -18l-21 -198q-2 -18 16 -18h273q25 0 22 -25l-3 -36q-3 -25 -28 -25h-360z" />
    <glyph glyph-name="edotaccent" unicode="&#x117;" horiz-adv-x="595" 
d="M365 622q-26 0 -43.5 18t-17.5 45q0 29 22.5 50.5t53.5 21.5q26 0 43.5 -17.5t17.5 -43.5q0 -30 -23 -52t-53 -22zM71 236q0 122 79 208t202 86q114 0 171 -67.5t57 -168.5q0 -59 -39 -59l-340 1q-18 0 -28.5 -10.5t-7.5 -27.5q10 -59 50 -93t101 -34q49 0 87 19.5
t56 53.5q11 20 31 20h38q13 0 19 -8t0 -20q-65 -146 -239 -146q-98 0 -167.5 69.5t-69.5 176.5zM194 354q-10 -17 -3 -28.5t27 -11.5l231 -1q19 0 29 11t5 29q-12 44 -49 70.5t-88 26.5q-94 0 -152 -96z" />
    <glyph glyph-name="Eogonek" unicode="&#x118;" horiz-adv-x="566" 
d="M559 730q25 0 22 -25l-4 -35q-3 -25 -27 -25h-268q-18 0 -20 -18l-21 -203q-2 -18 16 -18h248q25 0 22 -25l-4 -36q-3 -25 -27 -25h-248q-18 0 -20 -18l-21 -198q-2 -18 16 -18h273q25 0 22 -25l-3 -36q-3 -19 -18 -23q-80 -49 -80 -120q0 -38 40 -38q8 0 22 2
q10 1 15.5 -3t4.5 -14l-2 -18q-1 -16 -19 -21q-16 -5 -41 -5q-42 0 -69.5 24.5t-27.5 62.5q0 76 79 128h-292q-28 0 -25 28l71 674q3 28 31 28h355z" />
    <glyph glyph-name="eogonek" unicode="&#x119;" horiz-adv-x="595" 
d="M201 236q-18 0 -28.5 -10.5t-7.5 -27.5q10 -59 50 -93t101 -34q49 0 87 19.5t56 53.5q11 20 31 20h38q13 0 19 -8t0 -20q-53 -120 -179 -141q-75 -47 -75 -116q0 -38 40 -38q8 0 22 2q10 1 15.5 -3t4.5 -14l-2 -18q-1 -16 -19 -21q-16 -5 -41 -5q-42 0 -69.5 24.5
t-27.5 62.5q0 73 70 122q-91 8 -153 76t-62 169q0 122 79 208t202 86q114 0 171 -67.5t57 -168.5q0 -59 -39 -59zM194 354q-10 -17 -3 -28.5t27 -11.5l231 -1q19 0 29 11t5 29q-12 44 -49 70.5t-88 26.5q-94 0 -152 -96z" />
    <glyph glyph-name="Ecaron" unicode="&#x11a;" horiz-adv-x="566" 
d="M244 885l6 17q8 23 30 14l102 -33q17 -6 35 0l108 33q22 7 26 -14l4 -17q5 -21 -16 -29l-122 -52q-28 -12 -55 0l-109 52q-19 8 -9 29zM127 0q-28 0 -25 28l71 674q3 28 31 28h355q25 0 22 -25l-4 -35q-3 -25 -27 -25h-268q-18 0 -20 -18l-21 -203q-2 -18 16 -18h248
q25 0 22 -25l-4 -36q-3 -25 -27 -25h-248q-18 0 -20 -18l-21 -198q-2 -18 16 -18h273q25 0 22 -25l-3 -36q-3 -25 -28 -25h-360z" />
    <glyph glyph-name="ecaron" unicode="&#x11b;" horiz-adv-x="595" 
d="M220 693l6 16q8 23 30 14l100 -32q17 -6 35 0l106 32q22 7 26 -14l4 -16q5 -21 -16 -29l-120 -51q-28 -12 -54 0l-108 51q-19 8 -9 29zM71 236q0 122 79 208t202 86q114 0 171 -67.5t57 -168.5q0 -59 -39 -59l-340 1q-18 0 -28.5 -10.5t-7.5 -27.5q10 -59 50 -93t101 -34
q49 0 87 19.5t56 53.5q11 20 31 20h38q13 0 19 -8t0 -20q-65 -146 -239 -146q-98 0 -167.5 69.5t-69.5 176.5zM194 354q-10 -17 -3 -28.5t27 -11.5l231 -1q19 0 29 11t5 29q-12 44 -49 70.5t-88 26.5q-94 0 -152 -96z" />
    <glyph glyph-name="Gbreve" unicode="&#x11e;" horiz-adv-x="820" 
d="M419 915q19 0 26 -20q7 -21 27.5 -32.5t46.5 -11.5q57 0 83 44q11 20 32 20l27 -1q29 -2 19 -27q-43 -107 -169 -108q-53 -1 -96 28t-52 80q-4 25 25 27zM85 333q0 122 58 216.5t150 142.5t199 48q135 0 218.5 -74t101.5 -186q2 -12 -5 -19.5t-20 -7.5h-42q-20 0 -25 23
q-12 73 -72.5 125t-159.5 52q-124 0 -213 -87.5t-89 -229.5q0 -115 72.5 -187.5t181.5 -72.5q94 0 158.5 42t95.5 116q8 20 -13 20h-182q-26 0 -23 25l4 35q3 25 28 25h263q16 0 24 -8.5t6 -20.5l-2 -13q-21 -135 -118.5 -221t-249.5 -86q-144 0 -245 96t-101 247z" />
    <glyph glyph-name="gbreve" unicode="&#x11f;" horiz-adv-x="658" 
d="M302 727q19 0 26 -20q7 -21 27.5 -32.5t46.5 -11.5q57 0 83 44q11 20 32 20l27 -1q29 -2 19 -27q-43 -107 -169 -108q-53 -1 -96 28t-52 80q-4 25 25 27zM70 239q0 126 84 208.5t213 82.5q84 0 149 -55q15 -13 27.5 -8.5t17.5 26.5l1 5q5 22 31 22h14q25 0 22 -25
l-50 -476q-12 -110 -86 -171t-194 -61q-78 0 -139 37.5t-78 96.5q-4 13 3 20.5t21 7.5h38q18 0 27 -20q13 -29 49.5 -45.5t86.5 -16.5q75 0 130 43t55 109v3q1 19 -8.5 21t-28.5 -11q-57 -36 -141 -36q-111 0 -177.5 68t-66.5 175zM167 247q0 -72 45.5 -121.5t112.5 -49.5
q104 0 164 85q12 16 15 43l13 118q3 23 -7 43q-44 84 -146 84q-78 0 -137.5 -59.5t-59.5 -142.5z" />
    <glyph glyph-name="Gdotaccent" unicode="&#x120;" horiz-adv-x="820" 
d="M507 784q-26 0 -43.5 18t-17.5 45q0 29 22.5 50.5t53.5 21.5q26 0 43.5 -17.5t17.5 -43.5q0 -30 -23 -52t-53 -22zM85 333q0 122 58 216.5t150 142.5t199 48q135 0 218.5 -74t101.5 -186q2 -12 -5 -19.5t-20 -7.5h-42q-20 0 -25 23q-12 73 -72.5 125t-159.5 52
q-124 0 -213 -87.5t-89 -229.5q0 -115 72.5 -187.5t181.5 -72.5q94 0 158.5 42t95.5 116q8 20 -13 20h-182q-26 0 -23 25l4 35q3 25 28 25h263q16 0 24 -8.5t6 -20.5l-2 -13q-21 -135 -118.5 -221t-249.5 -86q-144 0 -245 96t-101 247z" />
    <glyph glyph-name="gdotaccent" unicode="&#x121;" horiz-adv-x="658" 
d="M397 622q-26 0 -43.5 18t-17.5 45q0 29 22.5 50.5t53.5 21.5q26 0 43.5 -17.5t17.5 -43.5q0 -30 -23 -52t-53 -22zM70 239q0 126 84 208.5t213 82.5q84 0 149 -55q15 -13 27.5 -8.5t17.5 26.5l1 5q5 22 31 22h14q25 0 22 -25l-50 -476q-12 -110 -86 -171t-194 -61
q-78 0 -139 37.5t-78 96.5q-4 13 3 20.5t21 7.5h38q18 0 27 -20q13 -29 49.5 -45.5t86.5 -16.5q75 0 130 43t55 109v3q1 19 -8.5 21t-28.5 -11q-57 -36 -141 -36q-111 0 -177.5 68t-66.5 175zM167 247q0 -72 45.5 -121.5t112.5 -49.5q104 0 164 85q12 16 15 43l13 118
q3 23 -7 43q-44 84 -146 84q-78 0 -137.5 -59.5t-59.5 -142.5z" />
    <glyph glyph-name="Gcommaaccent" unicode="&#x122;" horiz-adv-x="820" 
d="M85 333q0 122 58 216.5t150 142.5t199 48q135 0 218.5 -74t101.5 -186q2 -12 -5 -19.5t-20 -7.5h-42q-20 0 -25 23q-12 73 -72.5 125t-159.5 52q-124 0 -213 -87.5t-89 -229.5q0 -115 72.5 -187.5t181.5 -72.5q94 0 158.5 42t95.5 116q8 20 -13 20h-182q-26 0 -23 25
l4 35q3 25 28 25h263q16 0 24 -8.5t6 -20.5l-2 -13q-21 -135 -118.5 -221t-249.5 -86q-144 0 -245 96t-101 247zM373 -56q6 23 30 23h43q29 0 18 -28l-56 -140q-8 -21 -30 -21h-21q-26 0 -20 27z" />
    <glyph glyph-name="gcommaaccent" unicode="&#x123;" horiz-adv-x="658" 
d="M434 617q-6 -23 -30 -23h-43q-29 0 -18 28l56 140q8 21 30 21h21q26 0 20 -27zM70 239q0 126 84 208.5t213 82.5q84 0 149 -55q15 -13 27.5 -8.5t17.5 26.5l1 5q5 22 31 22h14q25 0 22 -25l-50 -476q-12 -110 -86 -171t-194 -61q-78 0 -139 37.5t-78 96.5q-4 13 3 20.5
t21 7.5h38q18 0 27 -20q13 -29 49.5 -45.5t86.5 -16.5q75 0 130 43t55 109v3q1 19 -8.5 21t-28.5 -11q-57 -36 -141 -36q-111 0 -177.5 68t-66.5 175zM167 247q0 -72 45.5 -121.5t112.5 -49.5q104 0 164 85q12 16 15 43l13 118q3 23 -7 43q-44 84 -146 84
q-78 0 -137.5 -59.5t-59.5 -142.5z" />
    <glyph glyph-name="Hbar" unicode="&#x126;" horiz-adv-x="832" 
d="M844 603q25 0 22 -25l-2 -15q-3 -25 -27 -25h-47l-54 -513q-3 -25 -28 -25h-48q-25 0 -22 25l27 264q3 28 -25 28h-382q-28 0 -31 -28l-27 -264q-3 -25 -28 -25h-48q-25 0 -22 25l54 513h-55q-26 0 -23 25l2 15q3 25 28 25h54l11 102q3 25 28 25h48q25 0 22 -25l-11 -102
h438l11 102q3 25 28 25h48q25 0 22 -25l-11 -102h48zM681 438l10 100h-438l-10 -100q-3 -28 25 -28h382q28 0 31 28z" />
    <glyph glyph-name="hbar" unicode="&#x127;" horiz-adv-x="647" 
d="M446 530q82 0 126 -51.5t34 -145.5l-32 -308q-3 -25 -28 -25h-44q-25 0 -22 25l32 304q6 57 -20 87.5t-77 30.5q-70 0 -176 -60q-25 -14 -28 -42l-33 -320q-3 -25 -28 -25h-44q-25 0 -22 25l59 570h-64q-24 0 -22 25l2 28q2 25 28 25h64l9 82q3 25 28 25h40q25 0 22 -25
l-8 -82h132q24 0 22 -25l-2 -28q-2 -25 -28 -25h-133l-9 -92q-2 -21 8.5 -26t30.5 6q91 47 183 47z" />
    <glyph glyph-name="Itilde" unicode="&#x128;" horiz-adv-x="297" 
d="M389 890q28 -5 18 -29q-12 -33 -39 -51.5t-62 -18.5q-34 0 -73 21.5t-54 21.5q-25 0 -40 -16q-16 -19 -34 -15l-15 3q-26 5 -17 30q24 70 97 70q37 0 80.5 -22t52.5 -22q25 0 39 15q17 20 33 16zM249 730q25 0 22 -25l-71 -680q-3 -25 -28 -25h-48q-25 0 -22 25l71 680
q3 25 28 25h48z" />
    <glyph glyph-name="itilde" unicode="&#x129;" horiz-adv-x="261" 
d="M341 694q26 -5 17 -29q-11 -33 -37 -51.5t-60 -18.5q-33 0 -71 21.5t-52 21.5q-24 0 -39 -16q-15 -19 -32 -15l-15 3q-25 5 -16 30q22 70 93 70q36 0 78.5 -22t50.5 -22q25 0 37 15q17 20 32 16zM207 520q25 0 22 -25l-49 -470q-3 -25 -28 -25h-44q-25 0 -22 25l49 470
q3 25 28 25h44z" />
    <glyph glyph-name="Imacron" unicode="&#x12a;" horiz-adv-x="297" 
d="M92 859q3 25 27 25h242q26 0 23 -25l-3 -27q-3 -25 -28 -25h-242q-25 0 -22 25zM249 730q25 0 22 -25l-71 -680q-3 -25 -28 -25h-48q-25 0 -22 25l71 680q3 25 28 25h48z" />
    <glyph glyph-name="imacron" unicode="&#x12b;" horiz-adv-x="261" 
d="M64 674q3 25 25 25h227q24 0 21 -25l-2 -27q-3 -25 -27 -25h-226q-24 0 -21 25zM207 520q25 0 22 -25l-49 -470q-3 -25 -28 -25h-44q-25 0 -22 25l49 470q3 25 28 25h44z" />
    <glyph glyph-name="Iogonek" unicode="&#x12e;" horiz-adv-x="297" 
d="M249 730q25 0 22 -25l-71 -680q-3 -19 -18 -23q-80 -49 -80 -120q0 -38 40 -38q8 0 22 2q10 1 15.5 -3t4.5 -14l-2 -18q-1 -16 -19 -21q-16 -5 -41 -5q-42 0 -69.5 24.5t-27.5 62.5q0 79 84 132q-9 6 -7 21l71 680q3 25 28 25h48z" />
    <glyph glyph-name="iogonek" unicode="&#x12f;" horiz-adv-x="261" 
d="M214 757q26 0 43.5 -17.5t17.5 -43.5q0 -30 -23 -52t-53 -22q-26 0 -43.5 18t-17.5 45q0 29 22.5 50.5t53.5 21.5zM207 520q25 0 22 -25l-49 -470q-1 -16 -14 -22q-54 -31 -71 -61t-17 -63q0 -38 40 -38q8 0 22 2q10 1 15.5 -3t4.5 -14l-2 -18q-1 -16 -19 -21
q-16 -5 -41 -5q-42 0 -69.5 24.5t-27.5 62.5q0 82 91 136q-8 6 -6 20l49 470q3 25 28 25h44z" />
    <glyph glyph-name="Idotaccent" unicode="&#x130;" horiz-adv-x="297" 
d="M231 784q-26 0 -43.5 18t-17.5 45q0 29 22.5 50.5t53.5 21.5q26 0 43.5 -17.5t17.5 -43.5q0 -30 -23 -52t-53 -22zM249 730q25 0 22 -25l-71 -680q-3 -25 -28 -25h-48q-25 0 -22 25l71 680q3 25 28 25h48z" />
    <glyph glyph-name="dotlessi" unicode="&#x131;" horiz-adv-x="261" 
d="M207 520q25 0 22 -25l-49 -470q-3 -25 -28 -25h-44q-25 0 -22 25l49 470q3 25 28 25h44z" />
    <glyph glyph-name="IJ" unicode="&#x132;" horiz-adv-x="980" 
d="M249 730q25 0 22 -25l-71 -680q-3 -25 -28 -25h-48q-25 0 -22 25l71 680q3 25 28 25h48zM343 223q0 27 27 27h44q22 0 25 -23q8 -68 55.5 -107t126.5 -39q82 0 136.5 54.5t63.5 137.5l36 339q3 28 -25 28h-240q-25 0 -22 25l4 40q3 25 28 25h330q34 0 31 -35l-44 -422
q-14 -127 -90.5 -205t-217.5 -78q-111 0 -186 66.5t-82 166.5z" />
    <glyph glyph-name="ij" unicode="&#x133;" horiz-adv-x="528" 
d="M199 622q-26 0 -43.5 18t-17.5 45q0 29 22.5 50.5t53.5 21.5q26 0 43.5 -17.5t17.5 -43.5q0 -30 -23 -52t-53 -22zM464 622q-26 0 -43.5 18t-17.5 45q0 29 22.5 50.5t53.5 21.5q25 0 43 -17.5t18 -43.5q0 -30 -23 -52t-53 -22zM207 520q25 0 22 -25l-49 -470
q-3 -25 -28 -25h-44q-25 0 -22 25l49 470q3 25 28 25h44zM290 -210q-38 0 -61 5q-21 4 -16 29l7 31q4 23 29 20q16 -2 25 -2q63 0 70 72l58 550q3 25 28 25h44q25 0 22 -25l-59 -557q-15 -148 -147 -148z" />
    <glyph glyph-name="Kcommaaccent" unicode="&#x136;" horiz-adv-x="647" 
d="M249 730q25 0 22 -25l-71 -680q-3 -25 -28 -25h-48q-25 0 -22 25l71 680q3 25 28 25h48zM285 319q-12 15 -9 35l3 22q3 22 15 35l284 305q13 14 33 14h57q16 0 19 -9.5t-8 -21.5l-300 -326q-13 -13 -2 -25l250 -317q10 -12 4.5 -21.5t-21.5 -9.5h-64q-21 0 -29 14z
M300 -56q6 23 30 23h43q29 0 18 -28l-56 -140q-8 -21 -30 -21h-21q-26 0 -20 27z" />
    <glyph glyph-name="kcommaaccent" unicode="&#x137;" horiz-adv-x="572" 
d="M106 0q-25 0 -22 25l76 730q3 25 28 25h44q25 0 22 -25l-44 -443q-2 -24 9.5 -29.5t31.5 12.5l230 212q13 13 33 13h51q17 0 20 -9.5t-10 -21.5l-177 -171q-25 -23 -8 -49l162 -238q8 -12 3 -21.5t-21 -9.5h-53q-18 0 -29 15l-126 190q-19 30 -49 3l-69 -61
q-19 -16 -22 -44l-8 -78q-3 -25 -28 -25h-44zM269 -56q6 23 30 23h43q29 0 18 -28l-56 -140q-8 -21 -30 -21h-21q-26 0 -20 27z" />
    <glyph glyph-name="kgreenlandic" unicode="&#x138;" horiz-adv-x="572" 
d="M106 0q-25 0 -22 25l49 470q3 25 28 25h44q25 0 22 -25l-19 -192q-3 -29 7.5 -33.5t33.5 16.5l231 221q14 13 32 13h53q17 0 20 -9.5t-10 -21.5l-175 -164q-23 -22 -7 -49l159 -245q8 -12 2.5 -21.5t-20.5 -9.5h-54q-18 0 -28 16l-121 195q-19 30 -48 3l-76 -68
q-18 -17 -21 -43l-8 -78q-3 -25 -28 -25h-44z" />
    <glyph glyph-name="Lacute" unicode="&#x139;" horiz-adv-x="576" 
d="M362 897q25 8 30 -17l5 -36q3 -25 -23 -29l-192 -29q-27 -5 -30 18v6q-3 23 20 30zM134 0q-34 0 -31 35l70 670q3 25 28 25h48q25 0 22 -25l-62 -595q-2 -18 16 -18h321q25 0 22 -25l-4 -42q-3 -25 -28 -25h-402z" />
    <glyph glyph-name="lacute" unicode="&#x13a;" horiz-adv-x="261" 
d="M310 947q25 8 30 -17l5 -36q3 -25 -23 -29l-192 -29q-27 -5 -30 18v6q-3 23 20 30zM234 780q25 0 22 -25l-76 -730q-3 -25 -28 -25h-44q-25 0 -22 25l76 730q3 25 28 25h44z" />
    <glyph glyph-name="Lcommaaccent" unicode="&#x13b;" horiz-adv-x="576" 
d="M134 0q-34 0 -31 35l70 670q3 25 28 25h48q25 0 22 -25l-62 -595q-2 -18 16 -18h321q25 0 22 -25l-4 -42q-3 -25 -28 -25h-402zM291 -56q6 23 30 23h43q29 0 18 -28l-56 -140q-8 -21 -30 -21h-21q-26 0 -20 27z" />
    <glyph glyph-name="lcommaaccent" unicode="&#x13c;" horiz-adv-x="261" 
d="M234 780q25 0 22 -25l-76 -730q-3 -25 -28 -25h-44q-25 0 -22 25l76 730q3 25 28 25h44zM77 -56q6 23 30 23h43q29 0 18 -28l-56 -140q-8 -21 -30 -21h-21q-26 0 -20 27z" />
    <glyph glyph-name="Lcaron" unicode="&#x13d;" horiz-adv-x="576" 
d="M487 563q24 0 30 23l43 172q6 27 -20 27h-31q-23 0 -28 -24l-33 -172q-5 -26 21 -26h18zM134 0q-34 0 -31 35l70 670q3 25 28 25h48q25 0 22 -25l-62 -595q-2 -18 16 -18h321q25 0 22 -25l-4 -42q-3 -25 -28 -25h-402z" />
    <glyph glyph-name="lcaron" unicode="&#x13e;" horiz-adv-x="261" 
d="M344 630q24 0 30 23l43 172q6 27 -20 27h-31q-23 0 -28 -24l-33 -172q-5 -26 21 -26h18zM234 780q25 0 22 -25l-76 -730q-3 -25 -28 -25h-44q-25 0 -22 25l76 730q3 25 28 25h44z" />
    <glyph glyph-name="Ldot" unicode="&#x13f;" horiz-adv-x="589" 
d="M134 0q-34 0 -31 35l70 670q3 25 28 25h48q25 0 22 -25l-62 -595q-2 -18 16 -18h321q25 0 22 -25l-4 -42q-3 -25 -28 -25h-402zM458 367q-25 0 -41 17t-16 42q0 27 21 47t49 20q24 0 40.5 -16.5t16.5 -39.5q0 -28 -21.5 -49t-48.5 -21z" />
    <glyph glyph-name="ldot" unicode="&#x140;" horiz-adv-x="398" 
d="M234 780q25 0 22 -25l-76 -730q-3 -25 -28 -25h-44q-25 0 -22 25l76 730q3 25 28 25h44zM356 286q-25 0 -41 17t-16 42q0 27 21 47t49 20q24 0 40.5 -16.5t16.5 -39.5q0 -28 -21.5 -49t-48.5 -21z" />
    <glyph glyph-name="Lslash" unicode="&#x141;" horiz-adv-x="576" 
d="M546 92q25 0 22 -25l-4 -42q-3 -25 -28 -25h-402q-34 0 -31 35l28 264l-73 -30q-26 -12 -31 14l-3 17q-5 23 18 32l96 40l35 333q3 25 28 25h48q25 0 22 -25l-30 -290l94 40q25 11 31 -14l4 -17q6 -23 -18 -33l-119 -49l-24 -232q-2 -18 16 -18h321z" />
    <glyph glyph-name="lslash" unicode="&#x142;" horiz-adv-x="261" 
d="M340 461q9 -28 -18 -40l-105 -43l-37 -353q-3 -25 -28 -25h-44q-25 0 -22 25l33 313l-61 -25q-29 -12 -38 16l-5 15q-10 29 20 40l92 38l35 333q3 25 28 25h44q25 0 22 -25l-31 -294l73 30q28 11 37 -15z" />
    <glyph glyph-name="Nacute" unicode="&#x143;" horiz-adv-x="820" 
d="M599 897q25 8 30 -17l5 -36q3 -25 -23 -29l-192 -29q-27 -5 -30 18v6q-3 23 20 30zM124 0q-25 0 -22 25l70 672q3 33 37 33h10q26 0 38 -19l372 -542q7 -10 14.5 -7.5t8.5 15.5l55 528q3 25 28 25h37q25 0 22 -25l-71 -672q-3 -33 -36 -33h-21q-26 0 -39 19l-362 515
q-7 10 -14.5 8t-8.5 -15l-52 -502q-3 -25 -28 -25h-38z" />
    <glyph glyph-name="nacute" unicode="&#x144;" horiz-adv-x="651" 
d="M480 740q23 14 33 -10l13 -34q9 -23 -15 -33l-181 -72q-26 -10 -33 11l-2 6q-8 22 13 34zM106 0q-25 0 -22 25l49 470q3 25 28 25h18q22 0 25 -22l1 -8q4 -38 44 -15q94 55 202 55q80 0 125 -53t35 -144l-32 -308q-3 -25 -28 -25h-44q-25 0 -22 25l32 304
q6 57 -20.5 87.5t-81.5 30.5q-73 0 -176 -60q-25 -15 -28 -42l-33 -320q-3 -25 -28 -25h-44z" />
    <glyph glyph-name="Ncommaaccent" unicode="&#x145;" horiz-adv-x="820" 
d="M124 0q-25 0 -22 25l70 672q3 33 37 33h10q26 0 38 -19l372 -542q7 -10 14.5 -7.5t8.5 15.5l55 528q3 25 28 25h37q25 0 22 -25l-71 -672q-3 -33 -36 -33h-21q-26 0 -39 19l-362 515q-7 10 -14.5 8t-8.5 -15l-52 -502q-3 -25 -28 -25h-38zM362 -56q6 23 30 23h43
q29 0 18 -28l-56 -140q-8 -21 -30 -21h-21q-26 0 -20 27z" />
    <glyph glyph-name="ncommaaccent" unicode="&#x146;" horiz-adv-x="651" 
d="M106 0q-25 0 -22 25l49 470q3 25 28 25h18q22 0 25 -22l1 -8q4 -38 44 -15q94 55 202 55q80 0 125 -53t35 -144l-32 -308q-3 -25 -28 -25h-44q-25 0 -22 25l32 304q6 57 -20.5 87.5t-81.5 30.5q-73 0 -176 -60q-25 -15 -28 -42l-33 -320q-3 -25 -28 -25h-44zM277 -56
q6 23 30 23h43q29 0 18 -28l-56 -140q-8 -21 -30 -21h-21q-26 0 -20 27z" />
    <glyph glyph-name="Ncaron" unicode="&#x147;" horiz-adv-x="820" 
d="M348 885l6 17q8 23 30 14l102 -33q17 -6 35 0l108 33q22 7 26 -14l4 -17q5 -21 -16 -29l-122 -52q-27 -12 -55 0l-109 52q-19 8 -9 29zM124 0q-25 0 -22 25l70 672q3 33 37 33h10q26 0 38 -19l372 -542q7 -10 14.5 -7.5t8.5 15.5l55 528q3 25 28 25h37q25 0 22 -25
l-71 -672q-3 -33 -36 -33h-21q-26 0 -39 19l-362 515q-7 10 -14.5 8t-8.5 -15l-52 -502q-3 -25 -28 -25h-38z" />
    <glyph glyph-name="ncaron" unicode="&#x148;" horiz-adv-x="651" 
d="M252 693l6 16q8 23 30 14l100 -32q17 -6 35 0l106 32q22 7 26 -14l4 -16q5 -21 -16 -29l-120 -51q-28 -12 -54 0l-108 51q-19 8 -9 29zM106 0q-25 0 -22 25l49 470q3 25 28 25h18q22 0 25 -22l1 -8q4 -38 44 -15q94 55 202 55q80 0 125 -53t35 -144l-32 -308
q-3 -25 -28 -25h-44q-25 0 -22 25l32 304q6 57 -20.5 87.5t-81.5 30.5q-73 0 -176 -60q-25 -15 -28 -42l-33 -320q-3 -25 -28 -25h-44z" />
    <glyph glyph-name="napostrophe" unicode="&#x149;" horiz-adv-x="693" 
d="M69 737q8 23 32 23h41q28 0 20 -27l-52 -157q-7 -22 -31 -22h-23q-30 0 -23 26zM106 0q-25 0 -22 25l49 470q3 25 28 25h18q22 0 25 -22l1 -8q4 -38 44 -15q94 55 202 55q80 0 125 -53t35 -144l-32 -308q-3 -25 -28 -25h-44q-25 0 -22 25l32 304q6 57 -20.5 87.5
t-81.5 30.5q-73 0 -176 -60q-25 -15 -28 -42l-33 -320q-3 -25 -28 -25h-44z" />
    <glyph glyph-name="Eng" unicode="&#x14a;" horiz-adv-x="815" 
d="M124 0q-25 0 -22 25l70 672q3 33 37 33h16q23 0 38 -18l369 -443q8 -9 14.5 -6t8.5 15l45 427q3 25 28 25h40q25 0 22 -25l-63 -600q-30 -283 -347 -302q-13 -1 -19 5.5t-4 18.5l2 22q3 23 28 25q231 17 250 231l1 12q1 12 -7 22l-360 428q-8 9 -14.5 6t-8.5 -15
l-56 -533q-3 -25 -28 -25h-40z" />
    <glyph glyph-name="eng" unicode="&#x14b;" horiz-adv-x="651" 
d="M106 0q-25 0 -22 25l49 470q3 25 28 25h18q23 0 25 -22l2 -18q3 -27 33 -10q53 31 100.5 45.5t111.5 14.5q81 0 125.5 -52.5t34.5 -144.5l-42 -395q-7 -72 -45.5 -110t-102.5 -38q-39 0 -61 5q-21 4 -16 29l7 31q4 23 29 20q14 -2 25 -2q64 0 71 72l41 384
q6 57 -20.5 87.5t-81.5 30.5q-83 0 -183 -64q-19 -12 -20 -31l-34 -327q-3 -25 -28 -25h-44z" />
    <glyph glyph-name="Omacron" unicode="&#x14c;" horiz-adv-x="869" 
d="M378 859q3 25 27 25h242q26 0 23 -25l-3 -27q-3 -25 -28 -25h-242q-25 0 -22 25zM85 331q0 125 59 219.5t155.5 142t212.5 47.5q150 0 249.5 -93t99.5 -245q0 -178 -121.5 -295t-306.5 -117q-147 0 -247.5 92t-100.5 249zM186 338q0 -117 72.5 -189.5t183.5 -72.5
q131 0 224.5 90.5t93.5 228.5q0 115 -72.5 187t-184.5 72q-131 0 -224 -89.5t-93 -226.5z" />
    <glyph glyph-name="omacron" unicode="&#x14d;" horiz-adv-x="641" 
d="M244 674q3 25 27 25h242q26 0 23 -25l-3 -27q-3 -25 -28 -25h-242q-25 0 -22 25zM71 237q0 125 86.5 209t219.5 84q107 0 177.5 -70t70.5 -172q0 -127 -86 -212.5t-219 -85.5q-106 0 -177.5 71.5t-71.5 175.5zM165 242q0 -73 45 -122t118 -49q85 0 144 61t59 147
q0 73 -45.5 121.5t-117.5 48.5q-86 0 -144.5 -60.5t-58.5 -146.5z" />
    <glyph glyph-name="Ohungarumlaut" unicode="&#x150;" horiz-adv-x="869" 
d="M451 908q10 19 31 19l43 -1q15 0 18.5 -8.5t-5.5 -21.5l-69 -94q-12 -17 -32 -17h-19q-14 0 -19 8t2 21zM610 908q10 19 31 19l43 -1q15 0 18.5 -8.5t-5.5 -21.5l-69 -94q-12 -17 -32 -17h-19q-14 0 -19 8t2 21zM85 331q0 125 59 219.5t155.5 142t212.5 47.5
q150 0 249.5 -93t99.5 -245q0 -178 -121.5 -295t-306.5 -117q-147 0 -247.5 92t-100.5 249zM186 338q0 -117 72.5 -189.5t183.5 -72.5q131 0 224.5 90.5t93.5 228.5q0 115 -72.5 187t-184.5 72q-131 0 -224 -89.5t-93 -226.5z" />
    <glyph glyph-name="ohungarumlaut" unicode="&#x151;" horiz-adv-x="641" 
d="M312 716q10 19 31 19l43 -1q15 0 18.5 -8.5t-5.5 -21.5l-69 -94q-12 -17 -32 -17h-19q-14 0 -19 8t2 21zM471 716q10 19 31 19l43 -1q15 0 18.5 -8.5t-5.5 -21.5l-69 -94q-12 -17 -32 -17h-19q-14 0 -19 8t2 21zM71 237q0 125 86.5 209t219.5 84q107 0 177.5 -70
t70.5 -172q0 -127 -86 -212.5t-219 -85.5q-106 0 -177.5 71.5t-71.5 175.5zM165 242q0 -73 45 -122t118 -49q85 0 144 61t59 147q0 73 -45.5 121.5t-117.5 48.5q-86 0 -144.5 -60.5t-58.5 -146.5z" />
    <glyph glyph-name="OE" unicode="&#x152;" horiz-adv-x="1198" 
d="M1171 730q25 0 22 -25l-4 -36q-3 -25 -27 -25h-250q-26 0 -29 -26l-20 -186q-3 -26 24 -26h273q25 0 22 -25l-4 -36q-3 -25 -27 -25h-273q-26 0 -29 -26l-19 -182q-3 -26 23 -26h265q25 0 22 -25l-3 -36q-3 -25 -28 -25h-360q-28 0 -25 28l7 71q-118 -109 -298 -109
q-147 0 -247.5 92t-100.5 249q0 125 59 219.5t155.5 142t212.5 47.5q175 0 274 -119l9 81q3 28 31 28h345zM442 76q131 0 224.5 90.5t93.5 228.5q0 115 -72.5 187t-184.5 72q-131 0 -224 -89.5t-93 -226.5q0 -117 72.5 -189.5t183.5 -72.5z" />
    <glyph glyph-name="oe" unicode="&#x153;" horiz-adv-x="1032" 
d="M71 237q0 124 85 208.5t221 84.5q111 0 183 -78q20 -21 46 2q82 76 198 76q86 0 150 -69t64 -160q0 -65 -50 -65h-335q-19 0 -29 -10t-6 -28q12 -59 53.5 -95t104.5 -36q46 0 84 21t57 56q11 20 30 20h39q13 0 18.5 -7.5t0.5 -20.5q-63 -146 -237 -146q-117 0 -181 82
q-18 21 -48 -6q-81 -76 -199 -76q-109 0 -179 72t-70 175zM624 351q-9 -18 -2 -29t26 -11l239 -1q19 0 28.5 10.5t5.5 28.5q-12 47 -45.5 75.5t-80.5 28.5q-53 0 -99.5 -27.5t-71.5 -74.5zM165 242q0 -73 45 -122t118 -49q56 0 104 26.5t72 72.5q12 25 10 45q-1 6 -1 23
q0 36 9 70q7 25 0 45q-16 45 -57.5 70.5t-96.5 25.5q-86 0 -144.5 -60.5t-58.5 -146.5z" />
    <glyph glyph-name="Racute" unicode="&#x154;" horiz-adv-x="624" 
d="M479 897q25 8 30 -17l5 -36q3 -25 -23 -29l-192 -29q-27 -5 -30 18v6q-3 23 20 30zM102 25l71 677q3 28 31 28h149q119 0 196 -64t77 -166q0 -69 -40.5 -123.5t-97.5 -82t-117 -30.5l-5 -1q-8 -2 -10.5 -8.5t5.5 -14.5l192 -210q11 -12 6.5 -21.5t-21.5 -9.5l-69 1
q-18 0 -30 13l-195 222q-8 9 -14.5 6t-8.5 -15l-21 -201q-3 -25 -28 -25h-48q-25 0 -22 25zM235 359q-2 -18 16 -18h61q96 0 155 44.5t59 117.5q0 64 -49.5 102.5t-133.5 38.5h-60q-18 0 -20 -18z" />
    <glyph glyph-name="racute" unicode="&#x155;" horiz-adv-x="413" 
d="M359 740q23 14 33 -10l13 -34q9 -23 -15 -33l-181 -72q-26 -10 -33 11l-2 6q-8 22 13 34zM106 0q-25 0 -22 25l49 470q3 25 28 25h18q19 0 24 -22l1 -5q7 -33 44 -10q75 47 154 47q17 0 32 -3q22 -4 16 -29l-9 -42q-6 -24 -31 -20q-16 3 -37 3q-58 0 -137 -58
q-22 -17 -25 -43l-33 -313q-3 -25 -28 -25h-44z" />
    <glyph glyph-name="Rcommaaccent" unicode="&#x156;" horiz-adv-x="624" 
d="M102 25l71 677q3 28 31 28h149q119 0 196 -64t77 -166q0 -69 -40.5 -123.5t-97.5 -82t-117 -30.5l-5 -1q-8 -2 -10.5 -8.5t5.5 -14.5l192 -210q11 -12 6.5 -21.5t-21.5 -9.5l-69 1q-18 0 -30 13l-195 222q-8 9 -14.5 6t-8.5 -15l-21 -201q-3 -25 -28 -25h-48
q-25 0 -22 25zM235 359q-2 -18 16 -18h61q96 0 155 44.5t59 117.5q0 64 -49.5 102.5t-133.5 38.5h-60q-18 0 -20 -18zM284 -56q6 23 30 23h43q29 0 18 -28l-56 -140q-8 -21 -30 -21h-21q-26 0 -20 27z" />
    <glyph glyph-name="rcommaaccent" unicode="&#x157;" horiz-adv-x="413" 
d="M106 0q-25 0 -22 25l49 470q3 25 28 25h18q19 0 24 -22l1 -5q7 -33 44 -10q75 47 154 47q17 0 32 -3q22 -4 16 -29l-9 -42q-6 -24 -31 -20q-16 3 -37 3q-58 0 -137 -58q-22 -17 -25 -43l-33 -313q-3 -25 -28 -25h-44zM73 -56q6 23 30 23h43q29 0 18 -28l-56 -140
q-8 -21 -30 -21h-21q-26 0 -20 27z" />
    <glyph glyph-name="Rcaron" unicode="&#x158;" horiz-adv-x="624" 
d="M228 885l6 17q8 23 30 14l102 -33q17 -6 35 0l108 33q22 7 26 -14l4 -17q5 -21 -16 -29l-122 -52q-27 -12 -55 0l-109 52q-19 8 -9 29zM102 25l71 677q3 28 31 28h149q119 0 196 -64t77 -166q0 -69 -40.5 -123.5t-97.5 -82t-117 -30.5l-5 -1q-8 -2 -10.5 -8.5t5.5 -14.5
l192 -210q11 -12 6.5 -21.5t-21.5 -9.5l-69 1q-18 0 -30 13l-195 222q-8 9 -14.5 6t-8.5 -15l-21 -201q-3 -25 -28 -25h-48q-25 0 -22 25zM235 359q-2 -18 16 -18h61q96 0 155 44.5t59 117.5q0 64 -49.5 102.5t-133.5 38.5h-60q-18 0 -20 -18z" />
    <glyph glyph-name="rcaron" unicode="&#x159;" horiz-adv-x="413" 
d="M131 693l6 16q8 23 30 14l100 -32q17 -6 35 0l106 32q22 7 26 -14l4 -16q5 -21 -16 -29l-120 -51q-28 -12 -54 0l-108 51q-19 8 -9 29zM106 0q-25 0 -22 25l49 470q3 25 28 25h18q19 0 24 -22l1 -5q7 -33 44 -10q75 47 154 47q17 0 32 -3q22 -4 16 -29l-9 -42
q-6 -24 -31 -20q-16 3 -37 3q-58 0 -137 -58q-22 -17 -25 -43l-33 -313q-3 -25 -28 -25h-44z" />
    <glyph glyph-name="Sacute" unicode="&#x15a;" horiz-adv-x="626" 
d="M485 897q25 8 30 -17l5 -36q3 -25 -23 -29l-192 -29q-27 -5 -30 18v6q-3 23 20 30zM60 183q-3 13 3.5 20.5t20.5 7.5h48q20 0 26 -20q37 -114 181 -114q68 0 112.5 29t44.5 85q0 31 -16 55t-41.5 38.5t-58.5 28t-67.5 24t-67.5 27t-58.5 36.5t-41.5 52.5t-16 74.5
q0 95 67.5 154t177.5 59q94 0 162.5 -53.5t81.5 -129.5q2 -13 -5 -20.5t-20 -7.5h-46q-20 0 -26 20q-14 46 -55.5 75t-100.5 29q-60 0 -98.5 -32t-38.5 -83q0 -39 27.5 -66t68 -41t88.5 -33t88.5 -39.5t68 -61.5t27.5 -99q0 -98 -75 -153t-191 -55q-101 0 -175.5 53
t-94.5 140z" />
    <glyph glyph-name="sacute" unicode="&#x15b;" horiz-adv-x="544" 
d="M416 740q23 14 33 -10l13 -34q9 -23 -15 -33l-181 -72q-26 -10 -33 11l-2 6q-8 22 13 34zM101 374q-1 71 55 113.5t165 42.5q91 0 146.5 -42.5t59.5 -108.5q1 -12 -6.5 -19t-20.5 -7h-37q-21 0 -24 22q-5 35 -35.5 57.5t-86.5 22.5q-58 0 -90.5 -21.5t-32.5 -53.5t33 -50
t80 -27.5t94.5 -22.5t80.5 -45.5t33 -85.5q0 -74 -64.5 -116.5t-171.5 -42.5q-84 0 -149 43t-74 111q-3 27 25 27h39q20 0 26 -21q11 -41 49 -63t94 -22q60 0 96.5 21.5t36.5 60.5q0 32 -33 50.5t-80 28t-94 22t-80.5 44t-33.5 82.5z" />
    <glyph glyph-name="Scedilla" unicode="&#x15e;" horiz-adv-x="626" 
d="M365 653q-60 0 -98.5 -32t-38.5 -83q0 -39 27.5 -66t68 -41t88.5 -33t88.5 -39.5t68 -61.5t27.5 -99q0 -88 -62 -142t-161 -64l-5 -15q-7 -15 9 -19q62 -16 62 -75q0 -47 -37 -75t-93 -28q-47 0 -75 17q-17 11 -12 30l5 15q6 21 32 9q23 -10 50 -10q22 0 35.5 9.5
t13.5 25.5q0 35 -41 35h-8q-15 0 -21 8.5t-1 22.5l18 49q-93 7 -159.5 59t-85.5 133q-3 13 3.5 20.5t20.5 7.5h48q20 0 26 -20q37 -114 181 -114q68 0 112.5 29t44.5 85q0 31 -16 55t-41.5 38.5t-58.5 28t-67.5 24t-67.5 27t-58.5 36.5t-41.5 52.5t-16 74.5q0 95 67.5 154
t177.5 59q94 0 162.5 -53.5t81.5 -129.5q2 -13 -5 -20.5t-20 -7.5h-46q-20 0 -26 20q-14 46 -55.5 75t-100.5 29z" />
    <glyph glyph-name="scedilla" unicode="&#x15f;" horiz-adv-x="544" 
d="M317 455q-58 0 -90.5 -21.5t-32.5 -53.5t33 -50t80 -27.5t94.5 -22.5t80.5 -45.5t33 -85.5q0 -66 -53 -107.5t-142 -49.5l-5 -15q-7 -15 9 -19q62 -16 62 -75q0 -47 -37 -75t-93 -28q-47 0 -75 17q-17 11 -12 30l5 15q6 21 32 9q23 -10 50 -10q22 0 35.5 9.5t13.5 25.5
q0 35 -41 35h-8q-15 0 -21 8.5t-1 22.5l19 49q-77 7 -133 49t-64 104q-3 27 25 27h39q20 0 26 -21q11 -41 49 -63t94 -22q60 0 96.5 21.5t36.5 60.5q0 32 -33 50.5t-80 28t-94 22t-80.5 44t-33.5 82.5q-1 71 55 113.5t165 42.5q91 0 146.5 -42.5t59.5 -108.5q1 -12 -6.5 -19
t-20.5 -7h-37q-21 0 -24 22q-5 35 -35.5 57.5t-86.5 22.5z" />
    <glyph glyph-name="Scaron" unicode="&#x160;" horiz-adv-x="626" 
d="M234 885l6 17q8 23 30 14l102 -33q17 -6 35 0l108 33q22 7 26 -14l4 -17q5 -21 -16 -29l-122 -52q-28 -12 -55 0l-109 52q-19 8 -9 29zM60 183q-3 13 3.5 20.5t20.5 7.5h48q20 0 26 -20q37 -114 181 -114q68 0 112.5 29t44.5 85q0 31 -16 55t-41.5 38.5t-58.5 28
t-67.5 24t-67.5 27t-58.5 36.5t-41.5 52.5t-16 74.5q0 95 67.5 154t177.5 59q94 0 162.5 -53.5t81.5 -129.5q2 -13 -5 -20.5t-20 -7.5h-46q-20 0 -26 20q-14 46 -55.5 75t-100.5 29q-60 0 -98.5 -32t-38.5 -83q0 -39 27.5 -66t68 -41t88.5 -33t88.5 -39.5t68 -61.5t27.5 -99
q0 -98 -75 -153t-191 -55q-101 0 -175.5 53t-94.5 140z" />
    <glyph glyph-name="scaron" unicode="&#x161;" horiz-adv-x="544" 
d="M188 693l6 16q8 23 30 14l100 -32q17 -6 35 0l106 32q22 7 26 -14l4 -16q5 -21 -16 -29l-120 -51q-28 -12 -54 0l-108 51q-19 8 -9 29zM101 374q-1 71 55 113.5t165 42.5q91 0 146.5 -42.5t59.5 -108.5q1 -12 -6.5 -19t-20.5 -7h-37q-21 0 -24 22q-5 35 -35.5 57.5
t-86.5 22.5q-58 0 -90.5 -21.5t-32.5 -53.5t33 -50t80 -27.5t94.5 -22.5t80.5 -45.5t33 -85.5q0 -74 -64.5 -116.5t-171.5 -42.5q-84 0 -149 43t-74 111q-3 27 25 27h39q20 0 26 -21q11 -41 49 -63t94 -22q60 0 96.5 21.5t36.5 60.5q0 32 -33 50.5t-80 28t-94 22t-80.5 44
t-33.5 82.5z" />
    <glyph glyph-name="uni0162" unicode="&#x162;" horiz-adv-x="591" 
d="M628 730q25 0 22 -25l-4 -42q-3 -25 -28 -25h-182q-25 0 -28 -25l-61 -588q-3 -22 -24 -25l-8 -24q-7 -15 9 -19q28 -7 45 -26.5t17 -48.5q0 -47 -37 -75t-93 -28q-47 0 -75 17q-17 11 -12 30l5 15q6 21 32 9q23 -10 50 -10q22 0 35.5 9.5t13.5 25.5q0 35 -41 35h-8
q-15 0 -21 8.5t-1 22.5l23 61q-15 5 -12 23l61 588q3 25 -22 25h-177q-25 0 -22 25l4 42q3 25 28 25h511z" />
    <glyph glyph-name="uni0163" unicode="&#x163;" horiz-adv-x="418" 
d="M425 520q25 0 22 -25l-3 -30q-3 -25 -28 -25h-163q-9 0 -11 -10l-29 -276q-9 -81 64 -81q39 0 95 15q28 8 28 -18v-30q0 -23 -21 -30q-48 -15 -95 -19l-5 -14q-7 -15 9 -19q62 -16 62 -75q0 -47 -37 -75t-93 -28q-47 0 -75 17q-17 11 -12 30l5 15q6 21 32 9
q23 -10 50 -10q22 0 35.5 9.5t13.5 25.5q0 35 -41 35h-8q-15 0 -21 8.5t-1 22.5l19 51q-51 10 -78 50t-20 109l29 278q2 10 -9 10h-42q-25 0 -22 25l3 30q3 25 28 25h45q9 0 11 10l9 92q3 22 24 28l43 11q14 4 21 -2.5t5 -19.5l-11 -109q-2 -10 9 -10h163z" />
    <glyph glyph-name="Tcaron" unicode="&#x164;" horiz-adv-x="591" 
d="M234 885l6 17q8 23 30 14l102 -33q17 -6 35 0l108 33q22 7 26 -14l4 -17q5 -21 -16 -29l-122 -52q-28 -12 -55 0l-109 52q-19 8 -9 29zM107 638q-25 0 -22 25l4 42q3 25 28 25h511q25 0 22 -25l-4 -42q-3 -25 -28 -25h-182q-25 0 -28 -25l-61 -588q-3 -25 -28 -25h-52
q-25 0 -22 25l61 588q3 25 -22 25h-177z" />
    <glyph glyph-name="tcaron" unicode="&#x165;" horiz-adv-x="418" 
d="M375 600q24 0 30 23l43 172q6 27 -20 27h-31q-23 0 -28 -24l-33 -172q-5 -26 21 -26h18zM97 440q-25 0 -22 25l3 30q3 25 28 25h45q9 0 11 10l9 92q3 22 24 28l43 11q14 4 21 -2.5t5 -19.5l-11 -109q-2 -10 9 -10h163q25 0 22 -25l-3 -30q-3 -25 -28 -25h-163
q-9 0 -11 -10l-29 -276q-9 -81 64 -81q39 0 95 15q28 8 28 -18v-30q0 -23 -21 -30q-63 -20 -127 -20q-66 0 -104 40.5t-29 121.5l29 278q2 10 -9 10h-42z" />
    <glyph glyph-name="Tbar" unicode="&#x166;" horiz-adv-x="591" 
d="M628 730q25 0 22 -25l-4 -42q-3 -25 -28 -25h-182q-25 0 -28 -25l-21 -204h94q24 0 22 -25l-2 -28q-2 -25 -28 -25h-94l-32 -306q-3 -25 -28 -25h-52q-25 0 -22 25l32 306h-91q-24 0 -22 25l2 28q2 25 28 25h91l21 204q3 25 -22 25h-177q-25 0 -22 25l4 42q3 25 28 25
h511z" />
    <glyph glyph-name="tbar" unicode="&#x167;" horiz-adv-x="418" 
d="M425 520q25 0 22 -25l-3 -30q-3 -25 -28 -25h-163q-9 0 -11 -10l-10 -99h146q24 0 22 -25l-2 -28q-2 -25 -28 -25h-147l-10 -99q-9 -81 64 -81q39 0 95 15q28 8 28 -18v-30q0 -23 -21 -30q-63 -20 -127 -20q-66 0 -104 40.5t-29 121.5l11 101h-47q-24 0 -22 25l2 28
q2 25 28 25h47l10 99q2 10 -9 10h-42q-25 0 -22 25l3 30q3 25 28 25h45q9 0 11 10l9 92q3 22 24 28l43 11q14 4 21 -2.5t5 -19.5l-11 -109q-2 -10 9 -10h163z" />
    <glyph glyph-name="Utilde" unicode="&#x168;" horiz-adv-x="788" 
d="M635 890q28 -5 18 -29q-12 -33 -39 -51.5t-62 -18.5q-34 0 -73 21.5t-54 21.5q-25 0 -40 -16q-16 -19 -34 -15l-15 3q-26 5 -17 30q24 70 97 70q37 0 80.5 -22t52.5 -22q25 0 39 15q17 20 33 16zM120 307l42 398q3 25 28 25h50q25 0 22 -25l-42 -404q-11 -98 39.5 -159.5
t142.5 -61.5q90 0 155 60.5t75 160.5l42 404q3 25 28 25h50q25 0 22 -25l-42 -398q-15 -143 -105.5 -230t-233.5 -87q-128 0 -207.5 90.5t-65.5 226.5z" />
    <glyph glyph-name="utilde" unicode="&#x169;" horiz-adv-x="631" 
d="M529 694q28 -5 18 -29q-12 -33 -39 -51.5t-62 -18.5q-34 0 -73 21.5t-54 21.5q-25 0 -40 -16q-16 -19 -34 -15l-15 3q-26 5 -17 30q24 70 97 70q37 0 80.5 -22t52.5 -22q25 0 39 15q17 20 33 16zM96 187l32 308q3 25 28 25h44q25 0 22 -25l-32 -304q-6 -57 19 -87.5
t78 -30.5q56 0 158 52q25 13 28 41l35 329q3 25 28 25h44q25 0 22 -25l-49 -470q-3 -25 -28 -25h-17q-25 0 -25 22v2q-1 18 -13.5 22t-30.5 -6q-94 -50 -188 -50q-75 0 -119.5 53.5t-35.5 143.5z" />
    <glyph glyph-name="Umacron" unicode="&#x16a;" horiz-adv-x="788" 
d="M338 859q3 25 27 25h242q26 0 23 -25l-3 -27q-3 -25 -28 -25h-242q-25 0 -22 25zM120 307l42 398q3 25 28 25h50q25 0 22 -25l-42 -404q-11 -98 39.5 -159.5t142.5 -61.5q90 0 155 60.5t75 160.5l42 404q3 25 28 25h50q25 0 22 -25l-42 -398q-15 -143 -105.5 -230
t-233.5 -87q-128 0 -207.5 90.5t-65.5 226.5z" />
    <glyph glyph-name="umacron" unicode="&#x16b;" horiz-adv-x="631" 
d="M240 674q3 25 27 25h242q26 0 23 -25l-3 -27q-3 -25 -28 -25h-242q-25 0 -22 25zM96 187l32 308q3 25 28 25h44q25 0 22 -25l-32 -304q-6 -57 19 -87.5t78 -30.5q56 0 158 52q25 13 28 41l35 329q3 25 28 25h44q25 0 22 -25l-49 -470q-3 -25 -28 -25h-17q-25 0 -25 22v2
q-1 18 -13.5 22t-30.5 -6q-94 -50 -188 -50q-75 0 -119.5 53.5t-35.5 143.5z" />
    <glyph glyph-name="Uring" unicode="&#x16e;" horiz-adv-x="788" 
d="M473 766q-44 0 -74 27.5t-30 68.5q0 47 34.5 80t91.5 33q45 0 75.5 -28t30.5 -67q0 -48 -34.5 -81t-93.5 -33zM479 826q22 0 37.5 14.5t15.5 34.5q0 18 -12 30t-31 12q-21 0 -36 -14.5t-15 -35.5q0 -18 11.5 -29.5t29.5 -11.5zM120 307l42 398q3 25 28 25h50q25 0 22 -25
l-42 -404q-11 -98 39.5 -159.5t142.5 -61.5q90 0 155 60.5t75 160.5l42 404q3 25 28 25h50q25 0 22 -25l-42 -398q-15 -143 -105.5 -230t-233.5 -87q-128 0 -207.5 90.5t-65.5 226.5z" />
    <glyph glyph-name="uring" unicode="&#x16f;" horiz-adv-x="631" 
d="M375 581q-44 0 -74 27.5t-30 68.5q0 47 34.5 80t91.5 33q45 0 75.5 -28t30.5 -67q0 -48 -34.5 -81t-93.5 -33zM381 641q22 0 37.5 14.5t15.5 34.5q0 18 -12 30t-31 12q-21 0 -36 -15t-15 -35q0 -18 11.5 -29.5t29.5 -11.5zM96 187l32 308q3 25 28 25h44q25 0 22 -25
l-32 -304q-6 -57 19 -87.5t78 -30.5q56 0 158 52q25 13 28 41l35 329q3 25 28 25h44q25 0 22 -25l-49 -470q-3 -25 -28 -25h-17q-25 0 -25 22v2q-1 18 -13.5 22t-30.5 -6q-94 -50 -188 -50q-75 0 -119.5 53.5t-35.5 143.5z" />
    <glyph glyph-name="Uhungarumlaut" unicode="&#x170;" horiz-adv-x="788" 
d="M411 908q10 19 31 19l43 -1q15 0 18.5 -8.5t-5.5 -21.5l-69 -94q-12 -17 -32 -17h-19q-14 0 -19 8t2 21zM570 908q10 19 31 19l43 -1q15 0 18.5 -8.5t-5.5 -21.5l-69 -94q-12 -17 -32 -17h-19q-14 0 -19 8t2 21zM120 307l42 398q3 25 28 25h50q25 0 22 -25l-42 -404
q-11 -98 39.5 -159.5t142.5 -61.5q90 0 155 60.5t75 160.5l42 404q3 25 28 25h50q25 0 22 -25l-42 -398q-15 -143 -105.5 -230t-233.5 -87q-128 0 -207.5 90.5t-65.5 226.5z" />
    <glyph glyph-name="uhungarumlaut" unicode="&#x171;" horiz-adv-x="631" 
d="M308 716q10 19 31 19l43 -1q15 0 18.5 -8.5t-5.5 -21.5l-69 -94q-12 -17 -32 -17h-19q-14 0 -19 8t2 21zM467 716q10 19 31 19l43 -1q15 0 18.5 -8.5t-5.5 -21.5l-69 -94q-12 -17 -32 -17h-19q-14 0 -19 8t2 21zM96 187l32 308q3 25 28 25h44q25 0 22 -25l-32 -304
q-6 -57 19 -87.5t78 -30.5q56 0 158 52q25 13 28 41l35 329q3 25 28 25h44q25 0 22 -25l-49 -470q-3 -25 -28 -25h-17q-25 0 -25 22v2q-1 18 -13.5 22t-30.5 -6q-94 -50 -188 -50q-75 0 -119.5 53.5t-35.5 143.5z" />
    <glyph glyph-name="Uogonek" unicode="&#x172;" horiz-adv-x="788" 
d="M752 730q25 0 22 -25l-42 -398q-14 -129 -90 -213.5t-197 -100.5q-77 -47 -77 -117q0 -38 40 -38q8 0 22 2q10 1 15.5 -3t4.5 -14l-2 -18q-1 -16 -19 -21q-16 -5 -41 -5q-42 0 -69.5 24.5t-27.5 62.5q0 75 74 125q-117 11 -187.5 99t-57.5 217l42 398q3 25 28 25h50
q25 0 22 -25l-42 -404q-11 -98 39.5 -159.5t142.5 -61.5q90 0 155 60.5t75 160.5l42 404q3 25 28 25h50z" />
    <glyph glyph-name="uogonek" unicode="&#x173;" horiz-adv-x="631" 
d="M580 520q25 0 22 -25l-49 -470q-1 -16 -14 -22q-54 -31 -71 -61t-17 -63q0 -38 40 -38q8 0 22 2q10 1 15.5 -3t4.5 -14l-2 -18q-1 -16 -19 -21q-16 -5 -41 -5q-42 0 -69.5 24.5t-27.5 62.5q0 92 110 146q-1 2 -1 7v2q-1 18 -13.5 22t-30.5 -6q-94 -50 -188 -50
q-75 0 -119.5 53.5t-35.5 143.5l32 308q3 25 28 25h44q25 0 22 -25l-32 -304q-6 -57 19 -87.5t78 -30.5q56 0 158 52q25 13 28 41l35 329q3 25 28 25h44z" />
    <glyph glyph-name="Wcircumflex" unicode="&#x174;" horiz-adv-x="987" 
d="M423 826q-8 21 10 29l141 68q24 12 45 0l130 -68q16 -8 5 -29l-10 -18q-10 -16 -27 -10l-108 38q-20 7 -43 0l-112 -37q-19 -6 -25 9zM99 702q-5 28 24 28h52q23 0 26 -21l79 -516q2 -16 11.5 -16t15.5 15l204 516q8 22 34 22h56q23 0 28 -23l97 -519q2 -10 7 -14t11 0
t10 15l186 519q8 22 29 22h45q29 0 18 -28l-256 -679q-8 -23 -32 -23h-50q-24 0 -29 23l-94 527q-3 15 -12.5 15t-15.5 -15l-213 -528q-8 -22 -33 -22h-49q-24 0 -28 23z" />
    <glyph glyph-name="wcircumflex" unicode="&#x175;" horiz-adv-x="807" 
d="M311 639q-7 20 10 28l138 67q23 12 44 0l127 -67q16 -8 5 -28l-10 -18q-9 -16 -26 -10l-106 38q-20 7 -42 0l-110 -37q-18 -7 -24 9zM79 492q-5 28 24 28h42q22 0 25 -21l55 -354q2 -14 11 -14.5t15 13.5l150 353q10 25 37 25h39q26 0 31 -25l74 -358q2 -9 7 -12
t10.5 0.5t8.5 12.5l135 359q8 21 31 21h41q28 0 17 -28l-189 -467q-10 -25 -37 -25h-48q-26 0 -31 25l-71 339q-2 9 -6.5 12.5t-10 0t-9.5 -12.5l-148 -339q-11 -25 -37 -25h-44q-27 0 -31 25z" />
    <glyph glyph-name="Ycircumflex" unicode="&#x176;" horiz-adv-x="641" 
d="M247 826q-8 21 10 29l141 68q24 12 45 0l130 -68q16 -8 5 -29l-10 -18q-10 -16 -27 -10l-108 38q-20 7 -43 0l-112 -37q-19 -6 -25 9zM96 700q-7 14 -1 22t21 8h58q21 0 28 -17l146 -325q5 -11 13.5 -11t16.5 11l216 325q11 17 32 17h46q14 0 18.5 -8t-4.5 -22l-278 -411
q-9 -14 -10 -28l-24 -232q-3 -29 -32 -29h-40q-29 0 -26 29l24 232q2 16 -4 28z" />
    <glyph glyph-name="ycircumflex" unicode="&#x177;" horiz-adv-x="559" 
d="M188 639q-7 20 10 28l138 67q23 12 44 0l127 -67q16 -8 5 -28l-10 -18q-9 -16 -26 -10l-106 38q-20 7 -42 0l-110 -37q-18 -7 -24 9zM77 491q-4 13 2.5 21t20.5 8h53q20 0 26 -20l103 -385q2 -8 7 -11.5t10 -0.5t9 12l177 385q9 20 30 20h54q29 0 15 -29l-277 -546
q-24 -47 -40 -71.5t-40 -47t-55 -31t-76 -8.5q-36 0 -69 9q-22 6 -16 30l6 23q7 28 31 20q25 -8 60 -8q42 0 70.5 25.5t55.5 77.5l19 36h-11q-16 0 -21 16z" />
    <glyph glyph-name="Ydieresis" unicode="&#x178;" horiz-adv-x="641" 
d="M303 785q-24 0 -39.5 16t-15.5 41q0 27 20 46.5t47 19.5q24 0 40.5 -16t16.5 -39q0 -27 -21 -47.5t-48 -20.5zM502 785q-24 0 -40 16.5t-16 41.5q0 27 21 46t48 19q23 0 39.5 -16t16.5 -39q0 -27 -21 -47.5t-48 -20.5zM96 700q-7 14 -1 22t21 8h58q21 0 28 -17l146 -325
q5 -11 13.5 -11t16.5 11l216 325q11 17 32 17h46q14 0 18.5 -8t-4.5 -22l-278 -411q-9 -14 -10 -28l-24 -232q-3 -29 -32 -29h-40q-29 0 -26 29l24 232q2 16 -4 28z" />
    <glyph glyph-name="Zacute" unicode="&#x179;" horiz-adv-x="658" 
d="M520 897q25 8 30 -17l5 -36q3 -25 -23 -29l-192 -29q-27 -5 -30 18v6q-3 23 20 30zM46 0q-25 0 -22 23l1 6q3 17 13 30l476 550q12 14 8 24t-21 10h-366q-26 0 -23 25l4 37q3 25 28 25h526q21 0 21 -23v-6q0 -14 -13 -30l-476 -551q-12 -14 -8 -24t21 -10h403
q25 0 22 -25l-3 -36q-3 -25 -28 -25h-563z" />
    <glyph glyph-name="zacute" unicode="&#x17a;" horiz-adv-x="525" 
d="M413 740q23 14 33 -10l13 -34q9 -23 -15 -33l-181 -72q-26 -10 -33 11l-2 6q-8 22 13 34zM32 28q0 14 14 30l342 359q9 10 6.5 17.5t-15.5 7.5h-268q-25 0 -22 25l3 28q3 25 28 25h390q23 0 21 -24l-2 -24q-1 -16 -14 -30l-323 -339q-10 -11 -7 -18t16 -7h276
q26 0 23 -25l-3 -28q-3 -25 -28 -25h-415q-24 0 -22 24v4z" />
    <glyph glyph-name="Zdotaccent" unicode="&#x17b;" horiz-adv-x="658" 
d="M414 784q-26 0 -43.5 18t-17.5 45q0 29 22.5 50.5t53.5 21.5q25 0 43 -17.5t18 -43.5q0 -30 -23 -52t-53 -22zM46 0q-25 0 -22 23l1 6q3 17 13 30l476 550q12 14 8 24t-21 10h-366q-26 0 -23 25l4 37q3 25 28 25h526q21 0 21 -23v-6q0 -14 -13 -30l-476 -551
q-12 -14 -8 -24t21 -10h403q25 0 22 -25l-3 -36q-3 -25 -28 -25h-563z" />
    <glyph glyph-name="zdotaccent" unicode="&#x17c;" horiz-adv-x="525" 
d="M330 622q-26 0 -43.5 18t-17.5 45q0 29 22.5 50.5t53.5 21.5q25 0 43 -17.5t18 -43.5q0 -30 -23 -52t-53 -22zM32 28q0 14 14 30l342 359q9 10 6.5 17.5t-15.5 7.5h-268q-25 0 -22 25l3 28q3 25 28 25h390q23 0 21 -24l-2 -24q-1 -16 -14 -30l-323 -339q-10 -11 -7 -18
t16 -7h276q26 0 23 -25l-3 -28q-3 -25 -28 -25h-415q-24 0 -22 24v4z" />
    <glyph glyph-name="Zcaron" unicode="&#x17d;" horiz-adv-x="658" 
d="M269 885l6 17q8 23 30 14l102 -33q17 -6 35 0l108 33q22 7 26 -14l4 -17q5 -21 -16 -29l-122 -52q-28 -12 -55 0l-109 52q-19 8 -9 29zM46 0q-25 0 -22 23l1 6q3 17 13 30l476 550q12 14 8 24t-21 10h-366q-26 0 -23 25l4 37q3 25 28 25h526q21 0 21 -23v-6
q0 -14 -13 -30l-476 -551q-12 -14 -8 -24t21 -10h403q25 0 22 -25l-3 -36q-3 -25 -28 -25h-563z" />
    <glyph glyph-name="zcaron" unicode="&#x17e;" horiz-adv-x="525" 
d="M185 693l6 16q8 23 30 14l100 -32q17 -6 35 0l106 32q22 7 26 -14l4 -16q5 -21 -16 -29l-120 -51q-28 -12 -54 0l-108 51q-19 8 -9 29zM32 28q0 14 14 30l342 359q9 10 6.5 17.5t-15.5 7.5h-268q-25 0 -22 25l3 28q3 25 28 25h390q23 0 21 -24l-2 -24q-1 -16 -14 -30
l-323 -339q-10 -11 -7 -18t16 -7h276q26 0 23 -25l-3 -28q-3 -25 -28 -25h-415q-24 0 -22 24v4z" />
    <glyph glyph-name="uni01EA" unicode="&#x1ea;" horiz-adv-x="869" 
d="M517 -3q-81 -50 -81 -120q0 -38 40 -38q8 0 22 2q10 1 15.5 -3t4.5 -14l-2 -18q-1 -16 -19 -21q-16 -5 -41 -5q-42 0 -69.5 24.5t-27.5 62.5q0 73 71 123q-146 1 -245.5 93t-99.5 248q0 125 59 219.5t155.5 142t212.5 47.5q150 0 249.5 -93t99.5 -245
q0 -156 -95.5 -267.5t-248.5 -137.5zM186 338q0 -117 72.5 -189.5t183.5 -72.5q131 0 224.5 90.5t93.5 228.5q0 115 -72.5 187t-184.5 72q-131 0 -224 -89.5t-93 -226.5z" />
    <glyph glyph-name="uni01EB" unicode="&#x1eb;" horiz-adv-x="641" 
d="M387 -4q-82 -49 -82 -120q0 -38 40 -38q8 0 22 2q10 1 15.5 -3t4.5 -14l-2 -18q-1 -16 -19 -21q-16 -5 -41 -5q-42 0 -69.5 24.5t-27.5 62.5q0 74 74 125q-100 7 -165.5 77t-65.5 169q0 125 86.5 209t219.5 84q107 0 177.5 -70t70.5 -172q0 -109 -65.5 -190t-172.5 -102z
M165 242q0 -73 45 -122t118 -49q85 0 144 61t59 147q0 73 -45.5 121.5t-117.5 48.5q-86 0 -144.5 -60.5t-58.5 -146.5z" />
    <glyph glyph-name="AEacute" unicode="&#x1fc;" horiz-adv-x="959" 
d="M801 897q25 8 30 -17l5 -36q3 -25 -23 -29l-192 -29q-27 -5 -30 18v6q-3 23 20 30zM13 0q-15 0 -19 8.5t5 21.5l477 684q11 16 31 16h425q25 0 22 -25l-4 -35q-3 -25 -27 -25h-257q-18 0 -20 -18l-21 -201q-2 -18 16 -18h280q25 0 22 -25l-3 -35q-3 -25 -28 -25h-280
q-18 0 -20 -18l-21 -201q-2 -18 16 -18h272q25 0 22 -25l-3 -36q-3 -25 -28 -25h-363q-24 0 -22 24l14 128q2 18 -16 18h-264q-15 0 -23 -12l-97 -141q-12 -17 -32 -17h-54zM287 285q-6 -9 -3 -15.5t13 -6.5h196q17 0 19 18l36 338q2 13 -5.5 15.5t-15.5 -9.5z" />
    <glyph glyph-name="aeacute" unicode="&#x1fd;" horiz-adv-x="951" 
d="M560 740q23 14 33 -10l13 -34q9 -23 -15 -33l-181 -72q-26 -10 -33 11l-2 6q-8 22 13 34zM54 123q0 82 64 126t173 43l116 -1q25 0 26 12l1 12q6 66 -24 99t-87 33q-45 0 -82 -21.5t-51 -55.5q-9 -22 -29 -22h-37q-13 0 -19.5 7t-2.5 19q20 72 84.5 114t149.5 42
q109 0 157 -71q15 -20 34 -2q81 73 192 73q100 0 165 -76.5t52 -178.5q-3 -22 -12.5 -31t-29.5 -9l-348 1q-29 0 -26 -27q8 -63 48.5 -101t103.5 -38q49 0 87 20t56 54q11 20 31 20h38q13 0 18.5 -7.5t0.5 -20.5q-26 -64 -89.5 -105t-149.5 -41q-54 0 -103 21.5t-80 59.5
q-14 17 -34 2q-101 -83 -226 -83q-74 0 -120.5 41t-46.5 92zM542 337q-6 -13 -1 -20.5t19 -7.5l258 -1q14 0 21 9t3 25q-9 47 -44 77.5t-88 30.5q-51 0 -97 -30.5t-71 -82.5zM150 137q0 -31 26.5 -46.5t66.5 -15.5q86 0 177 68q15 11 12 32l-3 19q-3 22 -24 22h-119
q-69 0 -102.5 -19t-33.5 -60z" />
    <glyph glyph-name="Oslashacute" unicode="&#x1fe;" horiz-adv-x="869" 
d="M414 804v6q-3 23 20 30l190 57q25 8 30 -17l5 -36q3 -25 -23 -29l-192 -29q-27 -5 -30 18zM793 612q68 -87 68 -210q0 -178 -121.5 -295t-306.5 -117q-135 0 -233 79l-53 -49q-19 -19 -36 0l-12 14q-16 18 3 36l51 48q-68 89 -68 213q0 125 59 219.5t155.5 142
t212.5 47.5q136 0 232 -77l52 48q18 18 35 0l15 -16q16 -18 -2 -36zM186 338q0 -87 42 -152l444 410q-69 58 -169 58q-131 0 -224 -89.5t-93 -226.5zM442 76q131 0 224.5 90.5t93.5 228.5q0 85 -42 149l-445 -409q68 -59 169 -59z" />
    <glyph glyph-name="oslashacute" unicode="&#x1ff;" horiz-adv-x="641" 
d="M290 602l-2 6q-8 22 13 34l172 98q23 14 33 -10l13 -34q9 -23 -15 -33l-181 -72q-26 -10 -33 11zM617 459l-35 -31q43 -64 43 -140q0 -127 -86 -212.5t-219 -85.5q-94 0 -163 58l-43 -39q-24 -22 -43 0l-6 7q-19 22 4 43l44 39q-42 62 -42 139q0 125 86.5 209t219.5 84
q91 0 158 -53l37 33q21 20 41 0l8 -8q21 -21 -4 -43zM165 242q0 -44 17 -81l286 256q-43 32 -100 32q-86 0 -144.5 -60.5t-58.5 -146.5zM531 279q0 47 -20 85l-287 -257q42 -36 104 -36q85 0 144 61t59 147z" />
    <glyph glyph-name="Scommaaccent" unicode="&#x218;" horiz-adv-x="626" 
d="M60 183q-3 13 3.5 20.5t20.5 7.5h48q20 0 26 -20q37 -114 181 -114q68 0 112.5 29t44.5 85q0 31 -16 55t-41.5 38.5t-58.5 28t-67.5 24t-67.5 27t-58.5 36.5t-41.5 52.5t-16 74.5q0 95 67.5 154t177.5 59q94 0 162.5 -53.5t81.5 -129.5q2 -13 -5 -20.5t-20 -7.5h-46
q-20 0 -26 20q-14 46 -55.5 75t-100.5 29q-60 0 -98.5 -32t-38.5 -83q0 -39 27.5 -66t68 -41t88.5 -33t88.5 -39.5t68 -61.5t27.5 -99q0 -98 -75 -153t-191 -55q-101 0 -175.5 53t-94.5 140zM293 -56q6 23 30 23h43q29 0 18 -28l-56 -140q-8 -21 -30 -21h-21q-26 0 -20 27z
" />
    <glyph glyph-name="scommaaccent" unicode="&#x219;" horiz-adv-x="544" 
d="M101 374q-1 71 55 113.5t165 42.5q91 0 146.5 -42.5t59.5 -108.5q1 -12 -6.5 -19t-20.5 -7h-37q-21 0 -24 22q-5 35 -35.5 57.5t-86.5 22.5q-58 0 -90.5 -21.5t-32.5 -53.5t33 -50t80 -27.5t94.5 -22.5t80.5 -45.5t33 -85.5q0 -74 -64.5 -116.5t-171.5 -42.5
q-84 0 -149 43t-74 111q-3 27 25 27h39q20 0 26 -21q11 -41 49 -63t94 -22q60 0 96.5 21.5t36.5 60.5q0 32 -33 50.5t-80 28t-94 22t-80.5 44t-33.5 82.5zM240 -56q6 23 30 23h43q29 0 18 -28l-56 -140q-8 -21 -30 -21h-21q-26 0 -20 27z" />
    <glyph glyph-name="uni021A" unicode="&#x21a;" horiz-adv-x="591" 
d="M107 638q-25 0 -22 25l4 42q3 25 28 25h511q25 0 22 -25l-4 -42q-3 -25 -28 -25h-182q-25 0 -28 -25l-61 -588q-3 -25 -28 -25h-52q-25 0 -22 25l61 588q3 25 -22 25h-177zM240 -57q6 23 30 23h43q29 0 18 -28l-56 -140q-8 -21 -30 -21h-21q-26 0 -20 27z" />
    <glyph glyph-name="uni021B" unicode="&#x21b;" horiz-adv-x="418" 
d="M97 440q-25 0 -22 25l3 30q3 25 28 25h45q9 0 11 10l9 92q3 22 24 28l43 11q14 4 21 -2.5t5 -19.5l-11 -109q-2 -10 9 -10h163q25 0 22 -25l-3 -30q-3 -25 -28 -25h-163q-9 0 -11 -10l-29 -276q-9 -81 64 -81q39 0 95 15q28 8 28 -18v-30q0 -23 -21 -30q-63 -20 -127 -20
q-66 0 -104 40.5t-29 121.5l29 278q2 10 -9 10h-42zM204 -56q6 23 30 23h43q29 0 18 -28l-56 -140q-8 -21 -30 -21h-21q-26 0 -20 27z" />
    <glyph glyph-name="uni0237" unicode="&#x237;" horiz-adv-x="267" 
d="M29 -210q-38 0 -61 5q-21 4 -16 29l7 31q4 23 29 20q16 -2 25 -2q63 0 70 72l58 550q3 25 28 25h44q25 0 22 -25l-59 -557q-15 -148 -147 -148z" />
    <glyph glyph-name="circumflex" unicode="&#x2c6;" horiz-adv-x="600" 
d="M246 639q-7 20 10 28l138 67q23 12 44 0l127 -67q16 -8 5 -28l-10 -18q-9 -16 -26 -10l-106 38q-20 7 -42 0l-110 -37q-18 -7 -24 9z" />
    <glyph glyph-name="caron" unicode="&#x2c7;" horiz-adv-x="600" 
d="M175 693l6 16q8 23 30 14l100 -32q17 -6 35 0l106 32q22 7 26 -14l4 -16q5 -21 -16 -29l-120 -51q-28 -12 -54 0l-108 51q-19 8 -9 29z" />
    <glyph glyph-name="breve" unicode="&#x2d8;" horiz-adv-x="600" 
d="M270 727q19 0 26 -20q7 -21 27.5 -32.5t46.5 -11.5q57 0 83 44q11 20 32 20l27 -1q29 -2 19 -27q-43 -107 -169 -108q-53 -1 -96 28t-52 80q-4 25 25 27z" />
    <glyph glyph-name="dotaccent" unicode="&#x2d9;" horiz-adv-x="301" 
d="M220 661q-23 0 -38 16t-15 39q0 26 19.5 45.5t46.5 19.5q23 0 38.5 -16t15.5 -38q0 -27 -20 -46.5t-47 -19.5z" />
    <glyph glyph-name="ring" unicode="&#x2da;" horiz-adv-x="600" 
d="M216 581q-44 0 -74 27.5t-30 68.5q0 47 34.5 80t91.5 33q45 0 75.5 -28t30.5 -67q0 -48 -34.5 -81t-93.5 -33zM222 641q22 0 37.5 14.5t15.5 34.5q0 18 -12 30t-31 12q-22 0 -36.5 -15t-14.5 -35q0 -18 11.5 -29.5t29.5 -11.5z" />
    <glyph glyph-name="ogonek" unicode="&#x2db;" horiz-adv-x="600" 
d="M347 -194q-1 -16 -19 -21q-16 -5 -41 -5q-42 0 -69.5 24.5t-27.5 62.5q0 52 36 92t100 65l29 -23q-54 -31 -71 -61t-17 -63q0 -38 40 -38q8 0 22 2q10 1 15.5 -3t4.5 -14z" />
    <glyph glyph-name="tilde" unicode="&#x2dc;" horiz-adv-x="600" 
d="M495 694q28 -5 18 -29q-12 -33 -39 -51.5t-62 -18.5q-34 0 -73 21.5t-54 21.5q-25 0 -40 -16q-16 -19 -34 -15l-15 3q-26 5 -17 30q24 70 97 70q37 0 80.5 -22t52.5 -22q25 0 39 15q17 20 33 16z" />
    <glyph glyph-name="hungarumlaut" unicode="&#x2dd;" horiz-adv-x="600" 
d="M308 716q10 19 31 19l43 -1q15 0 18.5 -8.5t-5.5 -21.5l-69 -94q-12 -17 -32 -17h-19q-14 0 -19 8t2 21zM467 716q10 19 31 19l43 -1q15 0 18.5 -8.5t-5.5 -21.5l-69 -94q-12 -17 -32 -17h-19q-14 0 -19 8t2 21z" />
    <glyph glyph-name="gravecomb" unicode="&#x300;" 
d="M-296 738q14 23 34 9l155 -100q21 -14 7 -34l-5 -7q-14 -21 -35 -12l-168 76q-22 11 -9 33z" />
    <glyph glyph-name="acutecomb" unicode="&#x301;" 
d="M-143 740q23 14 33 -10l13 -34q9 -23 -15 -33l-181 -72q-26 -10 -33 11l-2 6q-8 22 13 34z" />
    <glyph glyph-name="uni0302" unicode="&#x302;" 
d="M-348 639q-7 20 10 28l138 67q23 12 44 0l127 -67q16 -8 5 -28l-10 -18q-9 -16 -26 -10l-106 38q-20 7 -42 0l-110 -37q-18 -7 -24 9z" />
    <glyph glyph-name="tildecomb" unicode="&#x303;" 
d="M-70 694q28 -5 18 -29q-12 -33 -39 -51.5t-62 -18.5q-34 0 -73 21.5t-54 21.5q-25 0 -40 -16q-16 -19 -34 -15l-15 3q-26 5 -17 30q24 70 97 70q37 0 80.5 -22t52.5 -22q25 0 39 15q17 20 33 16z" />
    <glyph glyph-name="uni0304" unicode="&#x304;" 
d="M-362 674q3 25 27 25h242q26 0 23 -25l-3 -27q-3 -25 -28 -25h-242q-25 0 -22 25z" />
    <glyph glyph-name="uni0306" unicode="&#x306;" 
d="M-341 727q19 0 26 -20q7 -21 27.5 -32.5t46.5 -11.5q57 0 83 44q11 20 32 20l27 -1q29 -2 19 -27q-43 -107 -169 -108q-53 -1 -96 28t-52 80q-4 25 25 27z" />
    <glyph glyph-name="uni0307" unicode="&#x307;" 
d="M-77 622q-26 0 -43.5 18t-17.5 45q0 29 22.5 50.5t53.5 21.5q26 0 43.5 -17.5t17.5 -43.5q0 -30 -23 -52t-53 -22z" />
    <glyph glyph-name="uni0308" unicode="&#x308;" 
d="M-248 619q-22 0 -37 15.5t-15 38.5q0 25 19 44t45 19q22 0 38 -15.5t16 -36.5q0 -27 -20 -46t-46 -19zM-58 619q-23 0 -38 15.5t-15 39.5q0 25 19.5 43.5t45.5 18.5q22 0 38 -15.5t16 -36.5q0 -27 -20 -46t-46 -19z" />
    <glyph glyph-name="uni030A" unicode="&#x30a;" 
d="M-95 581q-44 0 -74 27.5t-30 68.5q0 47 34.5 80t91.5 33q45 0 75.5 -28t30.5 -67q0 -48 -34.5 -81t-93.5 -33zM-89 641q22 0 37.5 14.5t15.5 34.5q0 18 -12 30t-31 12q-21 0 -36 -15t-15 -35q0 -18 11.5 -29.5t29.5 -11.5z" />
    <glyph glyph-name="uni030B" unicode="&#x30b;" 
d="M-292 716q10 19 31 19l43 -1q15 0 18.5 -8.5t-5.5 -21.5l-69 -94q-12 -17 -32 -17h-19q-14 0 -19 8t2 21zM-133 716q10 19 31 19l43 -1q15 0 18.5 -8.5t-5.5 -21.5l-69 -94q-12 -17 -32 -17h-19q-14 0 -19 8t2 21z" />
    <glyph glyph-name="uni030C" unicode="&#x30c;" 
d="M-336 693l6 16q8 23 30 14l100 -32q17 -6 35 0l106 32q22 7 26 -14l4 -16q5 -21 -16 -29l-120 -51q-28 -12 -54 0l-108 51q-19 8 -9 29z" />
    <glyph glyph-name="uni0312" unicode="&#x312;" 
 />
    <glyph glyph-name="uni0326" unicode="&#x326;" 
d="M-133 -56q6 23 30 23h43q29 0 18 -28l-56 -140q-8 -21 -30 -21h-21q-26 0 -20 27z" />
    <glyph glyph-name="uni0327" unicode="&#x327;" 
d="M-348 -89q-15 0 -21 8.5t-1 22.5l23 61h67l-9 -26q-7 -15 9 -19q62 -16 62 -75q0 -47 -37 -75t-93 -28q-47 0 -75 17q-17 11 -12 30l5 15q6 21 32 9q23 -10 50 -10q22 0 35.5 9.5t13.5 25.5q0 35 -41 35h-8z" />
    <glyph glyph-name="uni0328" unicode="&#x328;" 
d="M-253 -194q-1 -16 -19 -21q-16 -5 -41 -5q-42 0 -69.5 24.5t-27.5 62.5q0 52 36 92t100 65l29 -23q-54 -31 -71 -61t-17 -63q0 -38 40 -38q8 0 22 2q10 1 15.5 -3t4.5 -14z" />
    <glyph glyph-name="uni0335" unicode="&#x335;" 
d="M-340 418q2 25 28 25h287q24 0 22 -25l-2 -28q-2 -25 -28 -25h-287q-24 0 -22 25z" />
    <glyph glyph-name="uni0336" unicode="&#x336;" 
d="M-758 408q3 25 28 25h736q25 0 22 -25l-2 -15q-3 -25 -27 -25h-736q-26 0 -23 25z" />
    <glyph glyph-name="uni0337" unicode="&#x337;" 
d="M-41 500q28 11 37 -15l5 -15q9 -28 -18 -40l-264 -108q-29 -12 -38 16l-5 15q-10 29 20 40z" />
    <glyph glyph-name="uni0338" unicode="&#x338;" 
d="M-30 518q21 20 41 0l8 -8q21 -21 -4 -43l-503 -450q-24 -22 -43 0l-6 7q-19 22 4 43z" />
    <glyph glyph-name="Wgrave" unicode="&#x1e80;" horiz-adv-x="987" 
d="M474 895q9 25 31 16l172 -67q23 -9 14 -32l-4 -8q-10 -22 -32 -18l-179 40q-25 7 -16 31zM99 702q-5 28 24 28h52q23 0 26 -21l79 -516q2 -16 11.5 -16t15.5 15l204 516q8 22 34 22h56q23 0 28 -23l97 -519q2 -10 7 -14t11 0t10 15l186 519q8 22 29 22h45q29 0 18 -28
l-256 -679q-8 -23 -32 -23h-50q-24 0 -29 23l-94 527q-3 15 -12.5 15t-15.5 -15l-213 -528q-8 -22 -33 -22h-49q-24 0 -28 23z" />
    <glyph glyph-name="wgrave" unicode="&#x1e81;" horiz-adv-x="807" 
d="M374 738q14 23 34 9l155 -100q21 -14 7 -34l-5 -7q-14 -21 -35 -12l-168 76q-22 11 -9 33zM79 492q-5 28 24 28h42q22 0 25 -21l55 -354q2 -14 11 -14.5t15 13.5l150 353q10 25 37 25h39q26 0 31 -25l74 -358q2 -9 7 -12t10.5 0.5t8.5 12.5l135 359q8 21 31 21h41
q28 0 17 -28l-189 -467q-10 -25 -37 -25h-48q-26 0 -31 25l-71 339q-2 9 -6.5 12.5t-10 0t-9.5 -12.5l-148 -339q-11 -25 -37 -25h-44q-27 0 -31 25z" />
    <glyph glyph-name="Wacute" unicode="&#x1e82;" horiz-adv-x="987" 
d="M690 897q25 8 30 -17l5 -36q3 -25 -23 -29l-192 -29q-27 -5 -30 18v6q-3 23 20 30zM99 702q-5 28 24 28h52q23 0 26 -21l79 -516q2 -16 11.5 -16t15.5 15l204 516q8 22 34 22h56q23 0 28 -23l97 -519q2 -10 7 -14t11 0t10 15l186 519q8 22 29 22h45q29 0 18 -28
l-256 -679q-8 -23 -32 -23h-50q-24 0 -29 23l-94 527q-3 15 -12.5 15t-15.5 -15l-213 -528q-8 -22 -33 -22h-49q-24 0 -28 23z" />
    <glyph glyph-name="wacute" unicode="&#x1e83;" horiz-adv-x="807" 
d="M552 740q23 14 33 -10l13 -34q9 -23 -15 -33l-181 -72q-26 -10 -33 11l-2 6q-8 22 13 34zM79 492q-5 28 24 28h42q22 0 25 -21l55 -354q2 -14 11 -14.5t15 13.5l150 353q10 25 37 25h39q26 0 31 -25l74 -358q2 -9 7 -12t10.5 0.5t8.5 12.5l135 359q8 21 31 21h41
q28 0 17 -28l-189 -467q-10 -25 -37 -25h-48q-26 0 -31 25l-71 339q-2 9 -6.5 12.5t-10 0t-9.5 -12.5l-148 -339q-11 -25 -37 -25h-44q-27 0 -31 25z" />
    <glyph glyph-name="Wdieresis" unicode="&#x1e84;" horiz-adv-x="987" 
d="M479 785q-24 0 -39.5 16t-15.5 41q0 27 20 46.5t47 19.5q24 0 40.5 -16t16.5 -39q0 -27 -21 -47.5t-48 -20.5zM678 785q-24 0 -40 16.5t-16 41.5q0 27 21 46t48 19q23 0 39.5 -16t16.5 -39q0 -27 -21 -47.5t-48 -20.5zM99 702q-5 28 24 28h52q23 0 26 -21l79 -516
q2 -16 11.5 -16t15.5 15l204 516q8 22 34 22h56q23 0 28 -23l97 -519q2 -10 7 -14t11 0t10 15l186 519q8 22 29 22h45q29 0 18 -28l-256 -679q-8 -23 -32 -23h-50q-24 0 -29 23l-94 527q-3 15 -12.5 15t-15.5 -15l-213 -528q-8 -22 -33 -22h-49q-24 0 -28 23z" />
    <glyph glyph-name="wdieresis" unicode="&#x1e85;" horiz-adv-x="807" 
d="M374 619q-22 0 -37 15.5t-15 38.5q0 25 19 44t45 19q22 0 38 -15.5t16 -36.5q0 -27 -20 -46t-46 -19zM564 619q-23 0 -38 15.5t-15 39.5q0 25 19.5 43.5t45.5 18.5q22 0 38 -15.5t16 -36.5q0 -27 -20 -46t-46 -19zM79 492q-5 28 24 28h42q22 0 25 -21l55 -354
q2 -14 11 -14.5t15 13.5l150 353q10 25 37 25h39q26 0 31 -25l74 -358q2 -9 7 -12t10.5 0.5t8.5 12.5l135 359q8 21 31 21h41q28 0 17 -28l-189 -467q-10 -25 -37 -25h-48q-26 0 -31 25l-71 339q-2 9 -6.5 12.5t-10 0t-9.5 -12.5l-148 -339q-11 -25 -37 -25h-44
q-27 0 -31 25z" />
    <glyph glyph-name="uni1E9E" unicode="&#x1e9e;" horiz-adv-x="777" 
d="M118 0q-25 0 -22 25l41 398q15 144 107.5 230.5t227.5 86.5q84 0 147 -34.5t93 -89.5q13 -26 -9 -54l-141 -171q88 0 145.5 -56t57.5 -129q0 -110 -69 -163t-184 -53q-81 0 -147 45t-81 110q-6 28 24 28h51q19 0 27 -20q13 -36 49 -57t86 -21q68 0 106.5 36.5t38.5 88.5
q0 51 -38 83t-93 32h-49q-17 0 -27.5 10t-9.5 25l1 8q3 23 17 41l129 167q16 20 1 35q-49 49 -135 49q-90 0 -152 -60.5t-72 -160.5l-42 -404q-3 -25 -28 -25h-50z" />
    <glyph glyph-name="Ygrave" unicode="&#x1ef2;" horiz-adv-x="641" 
d="M298 895q9 25 31 16l172 -67q23 -9 14 -32l-4 -8q-10 -22 -32 -18l-179 40q-25 7 -16 31zM96 700q-7 14 -1 22t21 8h58q21 0 28 -17l146 -325q5 -11 13.5 -11t16.5 11l216 325q11 17 32 17h46q14 0 18.5 -8t-4.5 -22l-278 -411q-9 -14 -10 -28l-24 -232q-3 -29 -32 -29
h-40q-29 0 -26 29l24 232q2 16 -4 28z" />
    <glyph glyph-name="ygrave" unicode="&#x1ef3;" horiz-adv-x="559" 
d="M251 738q14 23 34 9l155 -100q21 -14 7 -34l-5 -7q-14 -21 -35 -12l-168 76q-22 11 -9 33zM77 491q-4 13 2.5 21t20.5 8h53q20 0 26 -20l103 -385q2 -8 7 -11.5t10 -0.5t9 12l177 385q9 20 30 20h54q29 0 15 -29l-277 -546q-24 -47 -40 -71.5t-40 -47t-55 -31t-76 -8.5
q-36 0 -69 9q-22 6 -16 30l6 23q7 28 31 20q25 -8 60 -8q42 0 70.5 25.5t55.5 77.5l19 36h-11q-16 0 -21 16z" />
    <glyph glyph-name="uni1EF8" unicode="&#x1ef8;" horiz-adv-x="641" 
d="M566 890q28 -5 18 -29q-12 -33 -39 -51.5t-62 -18.5q-34 0 -73 21.5t-54 21.5q-25 0 -40 -16q-16 -19 -34 -15l-15 3q-26 5 -17 30q24 70 97 70q37 0 80.5 -22t52.5 -22q25 0 39 15q17 20 33 16zM96 700q-7 14 -1 22t21 8h58q21 0 28 -17l146 -325q5 -11 13.5 -11
t16.5 11l216 325q11 17 32 17h46q14 0 18.5 -8t-4.5 -22l-278 -411q-9 -14 -10 -28l-24 -232q-3 -29 -32 -29h-40q-29 0 -26 29l24 232q2 16 -4 28z" />
    <glyph glyph-name="uni1EF9" unicode="&#x1ef9;" horiz-adv-x="559" 
d="M495 694q28 -5 18 -29q-12 -33 -39 -51.5t-62 -18.5q-34 0 -73 21.5t-54 21.5q-25 0 -40 -16q-16 -19 -34 -15l-15 3q-26 5 -17 30q24 70 97 70q37 0 80.5 -22t52.5 -22q25 0 39 15q17 20 33 16zM77 491q-4 13 2.5 21t20.5 8h53q20 0 26 -20l103 -385q2 -8 7 -11.5
t10 -0.5t9 12l177 385q9 20 30 20h54q29 0 15 -29l-277 -546q-24 -47 -40 -71.5t-40 -47t-55 -31t-76 -8.5q-36 0 -69 9q-22 6 -16 30l6 23q7 28 31 20q25 -8 60 -8q42 0 70.5 25.5t55.5 77.5l19 36h-11q-16 0 -21 16z" />
    <glyph glyph-name="endash" unicode="&#x2013;" horiz-adv-x="608" 
d="M535 307q17 0 25.5 -9.5t6.5 -25.5l-1 -6q-5 -35 -39 -35h-399q-17 0 -25.5 9.5t-5.5 25.5l1 6q5 35 38 35h399z" />
    <glyph glyph-name="emdash" unicode="&#x2014;" horiz-adv-x="733" 
d="M660 307q17 0 25.5 -9.5t6.5 -25.5l-1 -6q-5 -35 -39 -35h-524q-17 0 -25.5 9.5t-5.5 25.5l1 6q5 35 38 35h524z" />
    <glyph glyph-name="quoteleft" unicode="&#x2018;" horiz-adv-x="222" 
d="M205 536q-6 -23 -31 -23h-43q-28 0 -20 27l51 157q7 22 29 22h27q28 0 22 -26z" />
    <glyph glyph-name="quoteright" unicode="&#x2019;" horiz-adv-x="214" 
d="M151 717q8 23 32 23h41q28 0 20 -27l-52 -157q-7 -22 -31 -22h-23q-30 0 -23 26z" />
    <glyph glyph-name="quotesinglbase" unicode="&#x201a;" horiz-adv-x="222" 
d="M78 89q6 23 31 23h43q28 0 20 -27l-51 -157q-7 -22 -29 -22h-27q-29 0 -22 26z" />
    <glyph glyph-name="quotedblleft" unicode="&#x201c;" horiz-adv-x="387" 
d="M205 536q-6 -23 -31 -23h-43q-28 0 -20 27l51 157q7 22 29 22h27q28 0 22 -26zM369 536q-6 -23 -31 -23h-43q-28 0 -20 27l51 157q7 22 29 22h27q28 0 22 -26z" />
    <glyph glyph-name="quotedblright" unicode="&#x201d;" horiz-adv-x="379" 
d="M151 717q8 23 32 23h41q28 0 20 -27l-52 -157q-7 -22 -31 -22h-23q-30 0 -23 26zM315 717q8 23 32 23h41q28 0 20 -27l-52 -157q-7 -22 -31 -22h-23q-30 0 -23 26z" />
    <glyph glyph-name="quotedblbase" unicode="&#x201e;" horiz-adv-x="386" 
d="M78 89q6 23 31 23h43q28 0 20 -27l-51 -157q-7 -22 -29 -22h-27q-29 0 -22 26zM242 89q6 23 31 23h43q28 0 20 -27l-51 -157q-7 -22 -29 -22h-27q-29 0 -22 26z" />
    <glyph glyph-name="dagger" unicode="&#x2020;" horiz-adv-x="552" 
d="M88 469l4 32q3 25 27 25h143q27 0 30 27l19 202q3 25 28 25h38q25 0 22 -25l-23 -202q-3 -27 24 -27h143q26 0 23 -25l-4 -32q-3 -25 -27 -25h-144q-27 0 -30 -27l-52 -452q-3 -25 -27 -25h-24q-26 0 -23 25l44 452q3 27 -24 27h-144q-26 0 -23 25z" />
    <glyph glyph-name="daggerdbl" unicode="&#x2021;" horiz-adv-x="552" 
d="M71 306l3 29q3 25 28 25h144q27 0 30 27l7 65q3 27 -25 27h-144q-25 0 -22 25l3 29q3 25 28 25h143q27 0 29 27l16 170q3 25 28 25h38q25 0 22 -25l-19 -170q-3 -27 24 -27h143q25 0 22 -25l-3 -29q-3 -25 -28 -25h-144q-27 0 -30 -27l-6 -65q-3 -27 24 -27h144
q25 0 22 -25l-3 -29q-3 -25 -27 -25h-145q-27 0 -30 -27l-34 -289q-3 -25 -27 -25h-24q-26 0 -23 25l28 289q3 27 -24 27h-145q-26 0 -23 25z" />
    <glyph glyph-name="bullet" unicode="&#x2022;" horiz-adv-x="420" 
d="M227 165q-49 0 -82.5 35t-33.5 87q0 55 43.5 96.5t100.5 41.5q49 0 83 -34.5t34 -81.5q0 -59 -43.5 -101.5t-101.5 -42.5z" />
    <glyph glyph-name="ellipsis" unicode="&#x2026;" horiz-adv-x="719" 
d="M127 -10q-27 0 -44.5 19t-17.5 46q0 30 23 51.5t53 21.5q27 0 45 -17.5t18 -43.5q0 -31 -23.5 -54t-53.5 -23zM361 -10q-27 0 -44.5 19t-17.5 46q0 30 23 51.5t53 21.5q27 0 45 -17.5t18 -43.5q0 -31 -23.5 -54t-53.5 -23zM602 -10q-27 0 -44.5 19t-17.5 46q0 30 23 51.5
t53 21.5q27 0 45 -17.5t18 -43.5q0 -31 -23.5 -54t-53.5 -23z" />
    <glyph glyph-name="perthousand" unicode="&#x2030;" horiz-adv-x="1298" 
d="M90 527q0 98 53 155.5t139 57.5q66 0 108.5 -47.5t42.5 -120.5q0 -96 -52.5 -155t-138.5 -59q-64 0 -108 49.5t-44 119.5zM267 54l395 664q13 22 34 13l26 -11q22 -10 9 -33l-393 -667q-14 -23 -35 -12l-27 13q-22 11 -9 33zM166 531q0 -48 22 -74.5t61 -26.5
q49 0 78.5 36.5t29.5 100.5q0 48 -22 74.5t-61 26.5q-49 0 -78.5 -36.5t-29.5 -100.5zM553 159q0 98 53 155.5t138 57.5q65 0 108 -48.5t43 -120.5q0 -95 -53 -154t-138 -59q-64 0 -107.5 50t-43.5 119zM943 159q0 97 53 155t137 58q65 0 108 -48.5t43 -120.5
q0 -96 -52.5 -154.5t-138.5 -58.5q-64 0 -107 49.5t-43 119.5zM631 162q0 -47 21 -73.5t60 -26.5q49 0 77 37t28 101q0 47 -21 73.5t-59 26.5q-49 0 -77.5 -37t-28.5 -101zM1019 162q0 -48 21.5 -74t60.5 -26q49 0 77.5 36.5t28.5 100.5q0 47 -21.5 73.5t-60.5 26.5
q-49 0 -77.5 -36.5t-28.5 -100.5z" />
    <glyph glyph-name="guilsinglleft" unicode="&#x2039;" horiz-adv-x="316" 
d="M171 296q-12 -7 -13 -17.5t10 -18.5l79 -64q18 -14 16 -42l-2 -28q-1 -22 -15 -28t-30 8l-127 112q-19 17 -16 42l5 39q3 29 24 43l150 101q19 13 31 7.5t10 -27.5l-3 -29q-3 -28 -26 -42z" />
    <glyph glyph-name="guilsinglright" unicode="&#x203a;" horiz-adv-x="316" 
d="M123 105q-16 -12 -29.5 -5.5t-11.5 25.5l3 34q3 27 25 42l89 60q12 8 13 18t-9 18l-75 51q-18 13 -16 42l1 32q1 22 15 28t30 -8l128 -109q18 -15 15 -43l-3 -27q-3 -25 -24 -42z" />
    <glyph glyph-name="fraction" unicode="&#x2044;" horiz-adv-x="349" 
d="M26 -10q-14 0 -19.5 8t0.5 21l336 696q9 18 29 18h28q14 0 19.5 -8t-0.5 -21l-336 -696q-9 -18 -29 -18h-28z" />
    <glyph glyph-name="Euro" unicode="&#x20ac;" horiz-adv-x="787" 
d="M64 256l3 12q6 23 30 23h37q14 0 15 13l3 28q2 15 -13 15h-20q-13 0 -18.5 7.5t-1.5 19.5l4 11q8 23 29 23h24q14 0 18 13q41 108 127.5 168.5t213.5 60.5q88 0 163 -54.5t94 -134.5q3 -13 -3.5 -20.5t-19.5 -7.5h-47q-22 0 -26 20q-18 49 -63.5 80t-106.5 31
q-75 0 -134 -37t-92 -102q-8 -17 10 -17h248q28 0 20 -27l-3 -11q-6 -23 -30 -23h-257q-14 0 -17 -13q-3 -15 -3 -29t15 -14h238q26 0 20 -27l-3 -12q-6 -23 -30 -23h-217q-19 0 -14 -17q18 -64 68 -100t124 -36q64 0 117 28.5t83 77.5q12 19 31 19h44q14 0 19 -7.5
t-1 -20.5q-36 -77 -115 -130t-187 -53q-105 0 -185 61.5t-101 164.5q-3 13 -16 13h-55q-25 0 -19 27z" />
    <glyph glyph-name="trademark" unicode="&#x2122;" horiz-adv-x="778" 
d="M108 688l1 18q2 25 28 25h243q24 0 22 -25l-1 -18q-2 -25 -28 -25h-47q-34 0 -37 -30l-22 -204q-3 -25 -28 -25h-29q-25 0 -22 25l23 204q3 30 -31 30h-50q-24 0 -22 25zM402 429l29 277q3 25 28 25h14q19 0 28 -16l69 -121q6 -11 15.5 -11t18.5 11l98 121q13 16 32 16
h14q25 0 22 -25l-29 -277q-3 -25 -28 -25h-18q-25 0 -22 25l18 161l-79 -89q-14 -15 -31 -15h-5q-17 0 -27 15l-60 92l-19 -164q-3 -25 -28 -25h-18q-25 0 -22 25z" />
    <glyph glyph-name="minus" unicode="&#x2212;" horiz-adv-x="542" 
d="M477 303q25 0 22 -25l-3 -28q-3 -25 -27 -25h-348q-26 0 -23 25l3 28q3 25 28 25h348z" />
    <glyph glyph-name="approxequal" unicode="&#x2248;" horiz-adv-x="552" 
d="M496 419q22 -7 14 -30q-13 -37 -45.5 -59.5t-76.5 -21.5q-39 1 -86 22.5t-70 21.5q-33 0 -54 -27q-17 -22 -39 -15l-22 6q-24 7 -18 28q10 40 40.5 64t72.5 23q37 -1 89.5 -24t76.5 -23q36 0 56 26q17 22 41 15zM483 199q22 -7 14 -30q-13 -37 -45.5 -59.5t-76.5 -21.5
q-39 1 -86 22.5t-70 21.5q-33 0 -54 -27q-17 -22 -39 -15l-22 6q-24 7 -18 28q10 40 40.5 64t72.5 23q37 -1 89.5 -24t76.5 -23q36 0 56 26q17 22 41 15z" />
    <glyph glyph-name="notequal" unicode="&#x2260;" horiz-adv-x="524" 
d="M89 154l3 27q3 25 28 25h94q18 0 26 19l24 60q9 25 -16 25h-117q-26 0 -23 25l3 27q3 25 28 25h145q18 0 26 19l26 66q8 21 30 21h25q29 0 18 -28l-21 -53q-9 -25 17 -25h62q25 0 22 -25l-3 -27q-3 -25 -27 -25h-90q-19 0 -26 -19l-24 -60q-9 -25 17 -25h112q25 0 22 -25
l-3 -27q-3 -25 -27 -25h-140q-19 0 -26 -19l-29 -74q-8 -21 -30 -21h-26q-29 0 -18 28l23 61q9 25 -16 25h-66q-26 0 -23 25z" />
    <glyph glyph-name="uniF8FF" unicode="&#xf8ff;" horiz-adv-x="1170" 
d="M300 573q0 22 -22 22h-58v102q0 11 -7 18t-18 7q-25 0 -25 -25v-146h108q22 0 22 22zM316 636q0 -38 26.5 -63t66.5 -25t66 25t26 63t-26 62t-66 24t-66.5 -24.5t-26.5 -61.5zM617 600q0 -9 -20 -9q-13 0 -26 6t-20 6q-22 0 -22 -20q0 -35 66 -35q32 0 51.5 14.5
t19.5 39.5q0 22 -13 35t-28 16t-28 7t-13 10q0 10 16 10q10 0 24 -5.5t21 -5.5q20 0 20 19q0 17 -17.5 25.5t-42.5 8.5q-34 0 -52 -14.5t-18 -39.5q0 -21 13 -33t28 -15t28 -7.5t13 -12.5zM449 636q0 -19 -11 -30.5t-29 -11.5t-30 12t-12 30t11.5 29.5t30.5 11.5
q18 0 29 -11.5t11 -29.5zM505 285h32v146q0 11 -7.5 18t-18.5 7t-18 -7t-7 -18v-63l-81 85h-32v-146q0 -11 7 -18.5t18 -7.5t18.5 7.5t7.5 18.5v63zM1038 334q0 -10 -20 -10q-13 0 -26 6.5t-19 6.5q-22 0 -22 -21q0 -16 18 -25.5t47 -9.5q33 0 52.5 14.5t19.5 39.5
q0 22 -13 35t-28 16t-28 7t-13 11q0 9 16 9q9 0 23.5 -5.5t21.5 -5.5q20 0 20 19q0 17 -17.5 26t-42.5 9q-71 0 -71 -54q0 -21 13 -33.5t28 -15.5t28 -7.5t13 -11.5zM312 281q14 0 20 11t0 25l-65 136h-40l-66 -136q-7 -14 0 -25t21 -11q19 0 25 15l5 13h70l5 -13
q6 -15 25 -15zM751 369q0 38 -25 61t-66 23h-75v-168h75q41 0 66 23t25 61zM912 369q0 9 -6 15t-16 6h-48v20h58q21 0 21 22q0 21 -21 21h-109v-168h109q21 0 21 20q0 21 -21 21h-58v23h48q22 0 22 20zM700 368q0 -18 -11 -29t-30 -11h-23v80h23q19 0 30 -11t11 -29z
M268 343h-42l21 51zM209 22q0 -11 7 -18t18 -7t18.5 7t7.5 18v104h35q10 0 17 6.5t7 15.5q0 10 -6.5 16t-17.5 6h-122q-22 0 -22 -22q0 -9 6 -15.5t16 -6.5h36v-104zM506 169h-57l-30 -59l-31 59h-58l62 -100v-47q0 -11 7.5 -18t18.5 -7t18 7t7 18v47zM606 42q32 0 50.5 18
t18.5 46q0 27 -18.5 45t-50.5 18h-74v-147q0 -11 8 -18t19 -7t17.5 7t6.5 18v20h23zM831 85q0 9 -6 15t-16 6h-48v20h58q22 0 22 22q0 21 -22 21h-109v-169h109q22 0 22 21q0 22 -22 22h-58v22h48q22 0 22 20zM602 84h-19v44h19q25 0 25 -22t-25 -22z" />
    <glyph glyph-name="uni00A40301" horiz-adv-x="683" 
d="M593 897q25 8 30 -17l5 -36q3 -25 -23 -29l-192 -29q-27 -5 -30 18v6q-3 23 20 30zM46 223q0 27 27 27h44q22 0 25 -23q8 -68 55.5 -107t126.5 -39q82 0 136.5 54.5t63.5 137.5l36 339q3 28 -25 28h-240q-25 0 -22 25l4 40q3 25 28 25h330q34 0 31 -35l-44 -422
q-14 -127 -90.5 -205t-217.5 -78q-111 0 -186 66.5t-82 166.5z" />
    <glyph glyph-name="A.ss01" horiz-adv-x="713" 
d="M41 0q-14 0 -18.5 8t3.5 22l346 578q8 13 4 27l-27 76q-4 13 2 21t20 8h45q22 0 28 -19l249 -692q5 -13 -1 -21t-20 -8h-51q-20 0 -27 19l-42 121q-4 12 -17 12h-323q-12 0 -20 -12l-72 -122q-10 -18 -31 -18h-48zM265 264q-10 -19 10 -19h220q21 0 15 19l-82 238
q-9 21 -22 0z" />
    <glyph glyph-name="Aacute.ss01" horiz-adv-x="713" 
d="M535 897q25 8 30 -17l5 -36q3 -25 -23 -29l-192 -29q-27 -5 -30 18v6q-3 23 20 30zM41 0q-14 0 -18.5 8t3.5 22l346 578q8 13 4 27l-27 76q-4 13 2 21t20 8h45q22 0 28 -19l249 -692q5 -13 -1 -21t-20 -8h-51q-20 0 -27 19l-42 121q-4 12 -17 12h-323q-12 0 -20 -12
l-72 -122q-10 -18 -31 -18h-48zM265 264q-10 -19 10 -19h220q21 0 15 19l-82 238q-9 21 -22 0z" />
    <glyph glyph-name="Abreve.ss01" horiz-adv-x="713" 
d="M341 915q19 0 26 -20q7 -21 27.5 -32.5t46.5 -11.5q57 0 83 44q11 20 32 20l27 -1q29 -2 19 -27q-43 -107 -169 -108q-53 -1 -96 28t-52 80q-4 25 25 27zM41 0q-14 0 -18.5 8t3.5 22l346 578q8 13 4 27l-27 76q-4 13 2 21t20 8h45q22 0 28 -19l249 -692q5 -13 -1 -21
t-20 -8h-51q-20 0 -27 19l-42 121q-4 12 -17 12h-323q-12 0 -20 -12l-72 -122q-10 -18 -31 -18h-48zM265 264q-10 -19 10 -19h220q21 0 15 19l-82 238q-9 21 -22 0z" />
    <glyph glyph-name="Acircumflex.ss01" horiz-adv-x="713" 
d="M268 826q-8 21 10 29l141 68q24 12 45 0l130 -68q16 -8 5 -29l-10 -18q-10 -16 -27 -10l-108 38q-20 7 -43 0l-112 -37q-19 -6 -25 9zM41 0q-14 0 -18.5 8t3.5 22l346 578q8 13 4 27l-27 76q-4 13 2 21t20 8h45q22 0 28 -19l249 -692q5 -13 -1 -21t-20 -8h-51
q-20 0 -27 19l-42 121q-4 12 -17 12h-323q-12 0 -20 -12l-72 -122q-10 -18 -31 -18h-48zM265 264q-10 -19 10 -19h220q21 0 15 19l-82 238q-9 21 -22 0z" />
    <glyph glyph-name="Adieresis.ss01" horiz-adv-x="713" 
d="M324 785q-24 0 -39.5 16t-15.5 41q0 27 20 46.5t47 19.5q24 0 40.5 -16t16.5 -39q0 -27 -21 -47.5t-48 -20.5zM523 785q-24 0 -40 16.5t-16 41.5q0 27 21 46t48 19q23 0 39.5 -16t16.5 -39q0 -27 -21 -47.5t-48 -20.5zM41 0q-14 0 -18.5 8t3.5 22l346 578q8 13 4 27
l-27 76q-4 13 2 21t20 8h45q22 0 28 -19l249 -692q5 -13 -1 -21t-20 -8h-51q-20 0 -27 19l-42 121q-4 12 -17 12h-323q-12 0 -20 -12l-72 -122q-10 -18 -31 -18h-48zM265 264q-10 -19 10 -19h220q21 0 15 19l-82 238q-9 21 -22 0z" />
    <glyph glyph-name="Agrave.ss01" horiz-adv-x="713" 
d="M319 895q9 25 31 16l172 -67q23 -9 14 -32l-4 -8q-10 -22 -32 -18l-179 40q-25 7 -16 31zM41 0q-14 0 -18.5 8t3.5 22l346 578q8 13 4 27l-27 76q-4 13 2 21t20 8h45q22 0 28 -19l249 -692q5 -13 -1 -21t-20 -8h-51q-20 0 -27 19l-42 121q-4 12 -17 12h-323
q-12 0 -20 -12l-72 -122q-10 -18 -31 -18h-48zM265 264q-10 -19 10 -19h220q21 0 15 19l-82 238q-9 21 -22 0z" />
    <glyph glyph-name="Amacron.ss01" horiz-adv-x="713" 
d="M290 859q3 25 27 25h242q26 0 23 -25l-3 -27q-3 -25 -28 -25h-242q-25 0 -22 25zM41 0q-14 0 -18.5 8t3.5 22l346 578q8 13 4 27l-27 76q-4 13 2 21t20 8h45q22 0 28 -19l249 -692q5 -13 -1 -21t-20 -8h-51q-20 0 -27 19l-42 121q-4 12 -17 12h-323q-12 0 -20 -12
l-72 -122q-10 -18 -31 -18h-48zM265 264q-10 -19 10 -19h220q21 0 15 19l-82 238q-9 21 -22 0z" />
    <glyph glyph-name="Aogonek.ss01" horiz-adv-x="713" 
d="M684 2q-36 -21 -56.5 -45t-25 -40.5t-4.5 -37.5q0 -38 40 -38q8 0 22 2q10 1 15.5 -3t4.5 -14l-2 -18q-1 -16 -19 -21q-16 -5 -41 -5q-42 0 -69.5 24.5t-27.5 62.5q0 81 87 133q-9 5 -14 17l-42 121q-4 12 -17 12h-323q-12 0 -20 -12l-72 -122q-10 -18 -31 -18h-48
q-14 0 -18.5 8t3.5 22l346 578q8 13 4 27l-27 76q-4 13 2 21t20 8h45q22 0 28 -19l249 -692q7 -20 -9 -27zM495 245q21 0 15 19l-82 238q-9 21 -22 0l-141 -238q-10 -19 10 -19h220z" />
    <glyph glyph-name="Aring.ss01" horiz-adv-x="713" 
d="M425 766q-44 0 -74 27.5t-30 68.5q0 47 34.5 80t91.5 33q45 0 75.5 -28t30.5 -67q0 -48 -34.5 -81t-93.5 -33zM431 826q22 0 37.5 14.5t15.5 34.5q0 18 -12 30t-31 12q-21 0 -36 -14.5t-15 -35.5q0 -18 11.5 -29.5t29.5 -11.5zM41 0q-14 0 -18.5 8t3.5 22l346 578
q8 13 4 27l-27 76q-4 13 2 21t20 8h45q22 0 28 -19l249 -692q5 -13 -1 -21t-20 -8h-51q-20 0 -27 19l-42 121q-4 12 -17 12h-323q-12 0 -20 -12l-72 -122q-10 -18 -31 -18h-48zM265 264q-10 -19 10 -19h220q21 0 15 19l-82 238q-9 21 -22 0z" />
    <glyph glyph-name="Atilde.ss01" horiz-adv-x="713" 
d="M587 890q28 -5 18 -29q-12 -33 -39 -51.5t-62 -18.5q-34 0 -73 21.5t-54 21.5q-25 0 -40 -16q-16 -19 -34 -15l-15 3q-26 5 -17 30q24 70 97 70q37 0 80.5 -22t52.5 -22q25 0 39 15q17 20 33 16zM41 0q-14 0 -18.5 8t3.5 22l346 578q8 13 4 27l-27 76q-4 13 2 21t20 8h45
q22 0 28 -19l249 -692q5 -13 -1 -21t-20 -8h-51q-20 0 -27 19l-42 121q-4 12 -17 12h-323q-12 0 -20 -12l-72 -122q-10 -18 -31 -18h-48zM265 264q-10 -19 10 -19h220q21 0 15 19l-82 238q-9 21 -22 0z" />
    <glyph glyph-name="E.ss01" horiz-adv-x="575" 
d="M127 0q-28 0 -25 28l71 674q3 28 31 28h345q25 0 22 -25l-4 -36q-3 -25 -27 -25h-250q-26 0 -29 -26l-20 -186q-3 -26 24 -26h273q25 0 22 -25l-4 -36q-3 -25 -27 -25h-273q-26 0 -29 -26l-19 -182q-3 -26 23 -26h265q25 0 22 -25l-3 -36q-3 -25 -28 -25h-360z" />
    <glyph glyph-name="Eacute.ss01" horiz-adv-x="575" 
d="M484 897q25 8 30 -17l5 -36q3 -25 -23 -29l-192 -29q-27 -5 -30 18v6q-3 23 20 30zM127 0q-28 0 -25 28l71 674q3 28 31 28h345q25 0 22 -25l-4 -36q-3 -25 -27 -25h-250q-26 0 -29 -26l-20 -186q-3 -26 24 -26h273q25 0 22 -25l-4 -36q-3 -25 -27 -25h-273
q-26 0 -29 -26l-19 -182q-3 -26 23 -26h265q25 0 22 -25l-3 -36q-3 -25 -28 -25h-360z" />
    <glyph glyph-name="Ecaron.ss01" horiz-adv-x="575" 
d="M233 885l6 17q8 23 30 14l102 -33q17 -6 35 0l108 33q22 7 26 -14l4 -17q5 -21 -16 -29l-122 -52q-27 -12 -55 0l-109 52q-19 8 -9 29zM127 0q-28 0 -25 28l71 674q3 28 31 28h345q25 0 22 -25l-4 -36q-3 -25 -27 -25h-250q-26 0 -29 -26l-20 -186q-3 -26 24 -26h273
q25 0 22 -25l-4 -36q-3 -25 -27 -25h-273q-26 0 -29 -26l-19 -182q-3 -26 23 -26h265q25 0 22 -25l-3 -36q-3 -25 -28 -25h-360z" />
    <glyph glyph-name="Ecircumflex.ss01" horiz-adv-x="575" 
d="M217 826q-8 21 10 29l141 68q24 12 45 0l130 -68q16 -8 5 -29l-10 -18q-10 -16 -27 -10l-108 38q-20 7 -43 0l-112 -37q-19 -6 -25 9zM127 0q-28 0 -25 28l71 674q3 28 31 28h345q25 0 22 -25l-4 -36q-3 -25 -27 -25h-250q-26 0 -29 -26l-20 -186q-3 -26 24 -26h273
q25 0 22 -25l-4 -36q-3 -25 -27 -25h-273q-26 0 -29 -26l-19 -182q-3 -26 23 -26h265q25 0 22 -25l-3 -36q-3 -25 -28 -25h-360z" />
    <glyph glyph-name="Edieresis.ss01" horiz-adv-x="575" 
d="M273 785q-24 0 -39.5 16t-15.5 41q0 27 20 46.5t47 19.5q24 0 40.5 -16t16.5 -39q0 -27 -21 -47.5t-48 -20.5zM472 785q-24 0 -40 16.5t-16 41.5q0 27 21 46t48 19q23 0 39.5 -16t16.5 -39q0 -27 -21 -47.5t-48 -20.5zM127 0q-28 0 -25 28l71 674q3 28 31 28h345
q25 0 22 -25l-4 -36q-3 -25 -27 -25h-250q-26 0 -29 -26l-20 -186q-3 -26 24 -26h273q25 0 22 -25l-4 -36q-3 -25 -27 -25h-273q-26 0 -29 -26l-19 -182q-3 -26 23 -26h265q25 0 22 -25l-3 -36q-3 -25 -28 -25h-360z" />
    <glyph glyph-name="Edotaccent.ss01" horiz-adv-x="575" 
d="M378 784q-26 0 -43.5 18t-17.5 45q0 29 22.5 50.5t53.5 21.5q25 0 43 -17.5t18 -43.5q0 -30 -23 -52t-53 -22zM127 0q-28 0 -25 28l71 674q3 28 31 28h345q25 0 22 -25l-4 -36q-3 -25 -27 -25h-250q-26 0 -29 -26l-20 -186q-3 -26 24 -26h273q25 0 22 -25l-4 -36
q-3 -25 -27 -25h-273q-26 0 -29 -26l-19 -182q-3 -26 23 -26h265q25 0 22 -25l-3 -36q-3 -25 -28 -25h-360z" />
    <glyph glyph-name="Egrave.ss01" horiz-adv-x="575" 
d="M268 895q9 25 31 16l172 -67q23 -9 14 -32l-4 -8q-10 -22 -32 -18l-179 40q-25 7 -16 31zM127 0q-28 0 -25 28l71 674q3 28 31 28h345q25 0 22 -25l-4 -36q-3 -25 -27 -25h-250q-26 0 -29 -26l-20 -186q-3 -26 24 -26h273q25 0 22 -25l-4 -36q-3 -25 -27 -25h-273
q-26 0 -29 -26l-19 -182q-3 -26 23 -26h265q25 0 22 -25l-3 -36q-3 -25 -28 -25h-360z" />
    <glyph glyph-name="Emacron.ss01" horiz-adv-x="575" 
d="M239 859q3 25 27 25h242q26 0 23 -25l-3 -27q-3 -25 -28 -25h-242q-25 0 -22 25zM127 0q-28 0 -25 28l71 674q3 28 31 28h345q25 0 22 -25l-4 -36q-3 -25 -27 -25h-250q-26 0 -29 -26l-20 -186q-3 -26 24 -26h273q25 0 22 -25l-4 -36q-3 -25 -27 -25h-273q-26 0 -29 -26
l-19 -182q-3 -26 23 -26h265q25 0 22 -25l-3 -36q-3 -25 -28 -25h-360z" />
    <glyph glyph-name="Eogonek.ss01" horiz-adv-x="575" 
d="M549 730q25 0 22 -25l-4 -36q-3 -25 -27 -25h-250q-26 0 -29 -26l-20 -186q-3 -26 24 -26h273q25 0 22 -25l-4 -36q-3 -25 -27 -25h-273q-26 0 -29 -26l-19 -182q-3 -26 23 -26h265q25 0 22 -25l-3 -36q-1 -16 -14 -22q-54 -31 -71 -61t-17 -63q0 -38 40 -38q8 0 22 2
q10 1 15.5 -3t4.5 -14l-2 -18q-1 -16 -19 -21q-16 -5 -41 -5q-42 0 -69.5 24.5t-27.5 62.5q0 79 83 131h-292q-28 0 -25 28l71 674q3 28 31 28h345z" />
    <glyph glyph-name="G.ss01" horiz-adv-x="847" 
d="M820 344q26 0 23 -25l-4 -35q-3 -25 -28 -25h-21q-32 -129 -129.5 -199t-234.5 -70q-142 0 -241 96.5t-100 245.5q-1 176 118.5 292t299.5 116q122 0 213 -75t98 -185q2 -27 -25 -27h-45q-22 0 -25 23q-11 79 -71 126t-155 47q-124 0 -215.5 -87.5t-91.5 -224.5
q0 -114 72 -185t178 -71q197 0 264 178h-196q-25 0 -22 25l4 35q3 25 27 25h307z" />
    <glyph glyph-name="Gbreve.ss01" horiz-adv-x="847" 
d="M513 779q-53 -1 -96 28t-52 80q-4 25 25 27l31 1q19 0 26 -20q7 -21 27.5 -32.5t46.5 -11.5q57 0 83 44q11 20 32 20l27 -1q29 -2 19 -27q-43 -107 -169 -108zM820 344q26 0 23 -25l-4 -35q-3 -25 -28 -25h-21q-32 -129 -129.5 -199t-234.5 -70q-142 0 -241 96.5
t-100 245.5q-1 176 118.5 292t299.5 116q122 0 213 -75t98 -185q2 -27 -25 -27h-45q-22 0 -25 23q-11 79 -71 126t-155 47q-124 0 -215.5 -87.5t-91.5 -224.5q0 -114 72 -185t178 -71q197 0 264 178h-196q-25 0 -22 25l4 35q3 25 27 25h307z" />
    <glyph glyph-name="Gcommaaccent.ss01" horiz-adv-x="847" 
d="M820 344q26 0 23 -25l-4 -35q-3 -25 -28 -25h-21q-32 -129 -129.5 -199t-234.5 -70q-142 0 -241 96.5t-100 245.5q-1 176 118.5 292t299.5 116q122 0 213 -75t98 -185q2 -27 -25 -27h-45q-22 0 -25 23q-11 79 -71 126t-155 47q-124 0 -215.5 -87.5t-91.5 -224.5
q0 -114 72 -185t178 -71q197 0 264 178h-196q-25 0 -22 25l4 35q3 25 27 25h307zM447 -33q29 0 18 -28l-56 -140q-8 -21 -30 -21h-21q-26 0 -20 27l36 139q6 23 30 23h43z" />
    <glyph glyph-name="Gdotaccent.ss01" horiz-adv-x="847" 
d="M490 784q-26 0 -43.5 18t-17.5 45q0 29 22.5 50.5t53.5 21.5q25 0 43 -17.5t18 -43.5q0 -30 -23 -52t-53 -22zM820 344q26 0 23 -25l-4 -35q-3 -25 -28 -25h-21q-32 -129 -129.5 -199t-234.5 -70q-142 0 -241 96.5t-100 245.5q-1 176 118.5 292t299.5 116q122 0 213 -75
t98 -185q2 -27 -25 -27h-45q-22 0 -25 23q-11 79 -71 126t-155 47q-124 0 -215.5 -87.5t-91.5 -224.5q0 -114 72 -185t178 -71q197 0 264 178h-196q-25 0 -22 25l4 35q3 25 27 25h307z" />
    <glyph glyph-name="I.ss01" horiz-adv-x="398" 
d="M68 0q-25 0 -22 25l3 35q3 25 28 25h66q16 0 18 16l55 527q2 16 -14 16h-66q-26 0 -23 25l4 36q3 25 28 25h262q25 0 22 -25l-4 -36q-3 -25 -27 -25h-66q-16 0 -18 -16l-55 -527q-2 -16 14 -16h66q25 0 22 -25l-3 -35q-3 -25 -28 -25h-262z" />
    <glyph glyph-name="Iacute.ss01" horiz-adv-x="398" 
d="M390 897q25 8 30 -17l5 -36q3 -25 -23 -29l-192 -29q-27 -5 -30 18v6q-3 23 20 30zM68 0q-25 0 -22 25l3 35q3 25 28 25h66q16 0 18 16l55 527q2 16 -14 16h-66q-26 0 -23 25l4 36q3 25 28 25h262q25 0 22 -25l-4 -36q-3 -25 -27 -25h-66q-16 0 -18 -16l-55 -527
q-2 -16 14 -16h66q25 0 22 -25l-3 -35q-3 -25 -28 -25h-262z" />
    <glyph glyph-name="Icircumflex.ss01" horiz-adv-x="398" 
d="M123 826q-8 21 10 29l141 68q24 12 45 0l130 -68q16 -8 5 -29l-10 -18q-10 -16 -27 -10l-108 38q-20 7 -43 0l-112 -37q-19 -6 -25 9zM68 0q-25 0 -22 25l3 35q3 25 28 25h66q16 0 18 16l55 527q2 16 -14 16h-66q-26 0 -23 25l4 36q3 25 28 25h262q25 0 22 -25l-4 -36
q-3 -25 -27 -25h-66q-16 0 -18 -16l-55 -527q-2 -16 14 -16h66q25 0 22 -25l-3 -35q-3 -25 -28 -25h-262z" />
    <glyph glyph-name="Idieresis.ss01" horiz-adv-x="398" 
d="M179 785q-24 0 -39.5 16t-15.5 41q0 27 20 46.5t47 19.5q24 0 40.5 -16t16.5 -39q0 -27 -21 -47.5t-48 -20.5zM378 785q-24 0 -40 16.5t-16 41.5q0 27 21 46t48 19q23 0 39.5 -16t16.5 -39q0 -27 -21 -47.5t-48 -20.5zM68 0q-25 0 -22 25l3 35q3 25 28 25h66q16 0 18 16
l55 527q2 16 -14 16h-66q-26 0 -23 25l4 36q3 25 28 25h262q25 0 22 -25l-4 -36q-3 -25 -27 -25h-66q-16 0 -18 -16l-55 -527q-2 -16 14 -16h66q25 0 22 -25l-3 -35q-3 -25 -28 -25h-262z" />
    <glyph glyph-name="Idotaccent.ss01" horiz-adv-x="398" 
d="M284 784q-26 0 -43.5 18t-17.5 45q0 29 22.5 50.5t53.5 21.5q25 0 43 -17.5t18 -43.5q0 -30 -23 -52t-53 -22zM68 0q-25 0 -22 25l3 35q3 25 28 25h66q16 0 18 16l55 527q2 16 -14 16h-66q-26 0 -23 25l4 36q3 25 28 25h262q25 0 22 -25l-4 -36q-3 -25 -27 -25h-66
q-16 0 -18 -16l-55 -527q-2 -16 14 -16h66q25 0 22 -25l-3 -35q-3 -25 -28 -25h-262z" />
    <glyph glyph-name="Igrave.ss01" horiz-adv-x="398" 
d="M174 895q9 25 31 16l172 -67q23 -9 14 -32l-4 -8q-10 -22 -32 -18l-179 40q-25 7 -16 31zM68 0q-25 0 -22 25l3 35q3 25 28 25h66q16 0 18 16l55 527q2 16 -14 16h-66q-26 0 -23 25l4 36q3 25 28 25h262q25 0 22 -25l-4 -36q-3 -25 -27 -25h-66q-16 0 -18 -16l-55 -527
q-2 -16 14 -16h66q25 0 22 -25l-3 -35q-3 -25 -28 -25h-262z" />
    <glyph glyph-name="Imacron.ss01" horiz-adv-x="398" 
d="M145 859q3 25 27 25h242q26 0 23 -25l-3 -27q-3 -25 -28 -25h-242q-25 0 -22 25zM68 0q-25 0 -22 25l3 35q3 25 28 25h66q16 0 18 16l55 527q2 16 -14 16h-66q-26 0 -23 25l4 36q3 25 28 25h262q25 0 22 -25l-4 -36q-3 -25 -27 -25h-66q-16 0 -18 -16l-55 -527
q-2 -16 14 -16h66q25 0 22 -25l-3 -35q-3 -25 -28 -25h-262z" />
    <glyph glyph-name="Iogonek.ss01" horiz-adv-x="398" 
d="M407 730q25 0 22 -25l-4 -36q-3 -25 -27 -25h-66q-16 0 -18 -16l-55 -527q-2 -16 14 -16h66q25 0 22 -25l-3 -35q-3 -25 -28 -25h-85q-54 -31 -71 -61t-17 -63q0 -38 40 -38q8 0 22 2q10 1 15.5 -3t4.5 -14l-2 -18q-1 -16 -19 -21q-16 -5 -41 -5q-42 0 -69.5 24.5
t-27.5 62.5q0 82 88 134h-100q-25 0 -22 25l3 35q3 25 28 25h66q16 0 18 16l55 527q2 16 -14 16h-66q-26 0 -23 25l4 36q3 25 28 25h262z" />
    <glyph glyph-name="Itilde.ss01" horiz-adv-x="398" 
d="M442 890q28 -5 18 -29q-12 -33 -39 -51.5t-62 -18.5q-34 0 -73 21.5t-54 21.5q-25 0 -40 -16q-16 -19 -34 -15l-15 3q-26 5 -17 30q24 70 97 70q37 0 80.5 -22t52.5 -22q25 0 39 15q17 20 33 16zM68 0q-25 0 -22 25l3 35q3 25 28 25h66q16 0 18 16l55 527q2 16 -14 16
h-66q-26 0 -23 25l4 36q3 25 28 25h262q25 0 22 -25l-4 -36q-3 -25 -27 -25h-66q-16 0 -18 -16l-55 -527q-2 -16 14 -16h66q25 0 22 -25l-3 -35q-3 -25 -28 -25h-262z" />
    <glyph glyph-name="J.ss01" horiz-adv-x="483" 
d="M447 730q25 0 22 -25l-45 -420q-35 -320 -382 -320q-26 0 -23 25l4 40q3 24 28 26q129 5 197 65t79 164l44 420q3 25 28 25h48z" />
    <glyph glyph-name="uni00A40301.ss01" horiz-adv-x="483" 
d="M529 897q25 8 30 -17l5 -36q3 -25 -23 -29l-192 -29q-27 -5 -30 18v6q-3 23 20 30zM447 730q25 0 22 -25l-45 -420q-35 -320 -382 -320q-26 0 -23 25l4 40q3 24 28 26q129 5 197 65t79 164l44 420q3 25 28 25h48z" />
    <glyph glyph-name="K.ss01" horiz-adv-x="683" 
d="M102 25l71 680q3 25 28 25h48q25 0 22 -25l-71 -680q-3 -25 -28 -25h-48q-25 0 -22 25zM280 334q-8 13 -7 28l1 12q2 16 13 28l297 314q13 14 33 14h59q16 0 19 -9.5t-8 -21.5l-302 -318q-10 -11 -2 -22l191 -260q12 -16 33 -16h61q25 0 22 -25l-3 -33q-3 -25 -28 -25
h-117q-20 0 -32 16z" />
    <glyph glyph-name="Kcommaaccent.ss01" horiz-adv-x="683" 
d="M102 25l71 680q3 25 28 25h48q25 0 22 -25l-71 -680q-3 -25 -28 -25h-48q-25 0 -22 25zM280 334q-8 13 -7 28l1 12q2 16 13 28l297 314q13 14 33 14h59q16 0 19 -9.5t-8 -21.5l-302 -318q-10 -11 -2 -22l191 -260q12 -16 33 -16h61q25 0 22 -25l-3 -33q-3 -25 -28 -25
h-117q-20 0 -32 16zM292 -56q6 23 30 23h43q29 0 18 -28l-56 -140q-8 -21 -30 -21h-21q-26 0 -20 27z" />
    <glyph glyph-name="N.ss01" horiz-adv-x="815" 
d="M124 0q-25 0 -22 25l71 677q3 28 31 28h28q19 0 32 -15l360 -441q11 -13 21 -9t12 22l43 418q3 25 28 25h40q25 0 22 -25l-71 -680q-3 -25 -28 -25h-40q-25 0 -22 25l8 81q1 19 -10 32l-348 413q-10 13 -21 9t-12 -21l-54 -514q-3 -25 -28 -25h-40z" />
    <glyph glyph-name="Nacute.ss01" horiz-adv-x="815" 
d="M601 897q25 8 30 -17l5 -36q3 -25 -23 -29l-192 -29q-27 -5 -30 18v6q-3 23 20 30zM124 0q-25 0 -22 25l71 677q3 28 31 28h28q19 0 32 -15l360 -441q11 -13 21 -9t12 22l43 418q3 25 28 25h40q25 0 22 -25l-71 -680q-3 -25 -28 -25h-40q-25 0 -22 25l8 81q1 19 -10 32
l-348 413q-10 13 -21 9t-12 -21l-54 -514q-3 -25 -28 -25h-40z" />
    <glyph glyph-name="Ncaron.ss01" horiz-adv-x="815" 
d="M350 885l6 17q8 23 30 14l102 -33q17 -6 35 0l108 33q22 7 26 -14l4 -17q5 -21 -16 -29l-122 -52q-27 -12 -55 0l-109 52q-19 8 -9 29zM124 0q-25 0 -22 25l71 677q3 28 31 28h28q19 0 32 -15l360 -441q11 -13 21 -9t12 22l43 418q3 25 28 25h40q25 0 22 -25l-71 -680
q-3 -25 -28 -25h-40q-25 0 -22 25l8 81q1 19 -10 32l-348 413q-10 13 -21 9t-12 -21l-54 -514q-3 -25 -28 -25h-40z" />
    <glyph glyph-name="Ncommaaccent.ss01" horiz-adv-x="815" 
d="M124 0q-25 0 -22 25l71 677q3 28 31 28h28q19 0 32 -15l360 -441q11 -13 21 -9t12 22l43 418q3 25 28 25h40q25 0 22 -25l-71 -680q-3 -25 -28 -25h-40q-25 0 -22 25l8 81q1 19 -10 32l-348 413q-10 13 -21 9t-12 -21l-54 -514q-3 -25 -28 -25h-40zM367 -56q6 23 30 23
h43q29 0 18 -28l-56 -140q-8 -21 -30 -21h-21q-26 0 -20 27z" />
    <glyph glyph-name="Ntilde.ss01" horiz-adv-x="815" 
d="M653 890q28 -5 18 -29q-12 -33 -39 -51.5t-62 -18.5q-34 0 -73 21.5t-54 21.5q-25 0 -40 -16q-16 -19 -34 -15l-15 3q-26 5 -17 30q24 70 97 70q37 0 80.5 -22t52.5 -22q25 0 39 15q17 20 33 16zM124 0q-25 0 -22 25l71 677q3 28 31 28h28q19 0 32 -15l360 -441
q11 -13 21 -9t12 22l43 418q3 25 28 25h40q25 0 22 -25l-71 -680q-3 -25 -28 -25h-40q-25 0 -22 25l8 81q1 19 -10 32l-348 413q-10 13 -21 9t-12 -21l-54 -514q-3 -25 -28 -25h-40z" />
    <glyph glyph-name="Q.ss01" horiz-adv-x="869" 
d="M85 331q0 182 121 295.5t306 113.5q145 0 247 -98.5t102 -239.5q0 -156 -87.5 -260t-232.5 -139q-13 -3 -16 -10.5t6 -16.5l23 -22q60 -57 125 -57q33 0 60 6q33 8 33 -22v-19q0 -29 -26 -35q-35 -8 -82 -8q-38 0 -91 21.5t-93 62.5l-79 79q-8 10 -23 11
q-124 16 -208.5 117.5t-84.5 220.5zM186 338q0 -117 72.5 -189.5t183.5 -72.5q131 0 224.5 90.5t93.5 228.5q0 115 -72.5 187t-184.5 72q-131 0 -224 -89.5t-93 -226.5z" />
    <glyph glyph-name="R.ss01" horiz-adv-x="632" 
d="M102 25l71 675q3 30 33 30h147q119 0 196 -63.5t77 -156.5q0 -98 -65.5 -163.5t-174.5 -81.5l-20 -3q-12 -2 -15.5 -8.5t4.5 -14.5l138 -144q13 -13 31 -13l51 1q25 0 22 -25l-3 -33q-3 -25 -28 -25h-100q-19 0 -31 13l-191 223q-8 9 -14.5 5.5t-8.5 -15.5l-21 -201
q-3 -25 -28 -25h-48q-25 0 -22 25zM236 367q-3 -26 23 -26h53q96 0 155 44.5t59 117.5q0 65 -49.5 105.5t-133.5 40.5h-52q-26 0 -29 -26z" />
    <glyph glyph-name="Racute.ss01" horiz-adv-x="632" 
d="M485 897q25 8 30 -17l5 -36q3 -25 -23 -29l-192 -29q-27 -5 -30 18v6q-3 23 20 30zM102 25l71 675q3 30 33 30h147q119 0 196 -63.5t77 -156.5q0 -98 -65.5 -163.5t-174.5 -81.5l-20 -3q-12 -2 -15.5 -8.5t4.5 -14.5l138 -144q13 -13 31 -13l51 1q25 0 22 -25l-3 -33
q-3 -25 -28 -25h-100q-19 0 -31 13l-191 223q-8 9 -14.5 5.5t-8.5 -15.5l-21 -201q-3 -25 -28 -25h-48q-25 0 -22 25zM236 367q-3 -26 23 -26h53q96 0 155 44.5t59 117.5q0 65 -49.5 105.5t-133.5 40.5h-52q-26 0 -29 -26z" />
    <glyph glyph-name="Rcaron.ss01" horiz-adv-x="632" 
d="M234 885l6 17q8 23 30 14l102 -33q17 -6 35 0l108 33q22 7 26 -14l4 -17q5 -21 -16 -29l-122 -52q-28 -12 -55 0l-109 52q-19 8 -9 29zM102 25l71 675q3 30 33 30h147q119 0 196 -63.5t77 -156.5q0 -98 -65.5 -163.5t-174.5 -81.5l-20 -3q-12 -2 -15.5 -8.5t4.5 -14.5
l138 -144q13 -13 31 -13l51 1q25 0 22 -25l-3 -33q-3 -25 -28 -25h-100q-19 0 -31 13l-191 223q-8 9 -14.5 5.5t-8.5 -15.5l-21 -201q-3 -25 -28 -25h-48q-25 0 -22 25zM236 367q-3 -26 23 -26h53q96 0 155 44.5t59 117.5q0 65 -49.5 105.5t-133.5 40.5h-52q-26 0 -29 -26z
" />
    <glyph glyph-name="Rcommaaccent.ss01" horiz-adv-x="632" 
d="M102 25l71 675q3 30 33 30h147q119 0 196 -63.5t77 -156.5q0 -98 -65.5 -163.5t-174.5 -81.5l-20 -3q-12 -2 -15.5 -8.5t4.5 -14.5l138 -144q13 -13 31 -13l51 1q25 0 22 -25l-3 -33q-3 -25 -28 -25h-100q-19 0 -31 13l-191 223q-8 9 -14.5 5.5t-8.5 -15.5l-21 -201
q-3 -25 -28 -25h-48q-25 0 -22 25zM236 367q-3 -26 23 -26h53q96 0 155 44.5t59 117.5q0 65 -49.5 105.5t-133.5 40.5h-52q-26 0 -29 -26zM295 -56q6 23 30 23h43q29 0 18 -28l-56 -140q-8 -21 -30 -21h-21q-26 0 -20 27z" />
    <glyph glyph-name="W.ss01" horiz-adv-x="995" 
d="M102 702q-5 28 24 28h51q21 0 25 -21l93 -530q2 -14 10.5 -14t15.5 13l197 399q6 11 2 27l-25 97q-3 13 3.5 21t19.5 8h48q20 0 25 -20l131 -534q3 -13 12 -13t14 14l203 532q8 21 30 21h43q29 0 18 -28l-263 -677q-10 -25 -36 -25h-36q-26 0 -32 24l-107 406
q-2 9 -6.5 12t-10.5 -0.5t-10 -11.5l-201 -407q-12 -23 -37 -23h-34q-27 0 -31 25z" />
    <glyph glyph-name="Wacute.ss01" horiz-adv-x="995" 
d="M693 897q25 8 30 -17l5 -36q3 -25 -23 -29l-192 -29q-27 -5 -30 18v6q-3 23 20 30zM102 702q-5 28 24 28h51q21 0 25 -21l93 -530q2 -14 10.5 -14t15.5 13l197 399q6 11 2 27l-25 97q-3 13 3.5 21t19.5 8h48q20 0 25 -20l131 -534q3 -13 12 -13t14 14l203 532q8 21 30 21
h43q29 0 18 -28l-263 -677q-10 -25 -36 -25h-36q-26 0 -32 24l-107 406q-2 9 -6.5 12t-10.5 -0.5t-10 -11.5l-201 -407q-12 -23 -37 -23h-34q-27 0 -31 25z" />
    <glyph glyph-name="Wcircumflex.ss01" horiz-adv-x="995" 
d="M426 826q-8 21 10 29l141 68q24 12 45 0l130 -68q16 -8 5 -29l-10 -18q-10 -16 -27 -10l-108 38q-20 7 -43 0l-112 -37q-19 -6 -25 9zM102 702q-5 28 24 28h51q21 0 25 -21l93 -530q2 -14 10.5 -14t15.5 13l197 399q6 11 2 27l-25 97q-3 13 3.5 21t19.5 8h48q20 0 25 -20
l131 -534q3 -13 12 -13t14 14l203 532q8 21 30 21h43q29 0 18 -28l-263 -677q-10 -25 -36 -25h-36q-26 0 -32 24l-107 406q-2 9 -6.5 12t-10.5 -0.5t-10 -11.5l-201 -407q-12 -23 -37 -23h-34q-27 0 -31 25z" />
    <glyph glyph-name="Wdieresis.ss01" horiz-adv-x="995" 
d="M482 785q-24 0 -39.5 16t-15.5 41q0 27 20 46.5t47 19.5q24 0 40.5 -16t16.5 -39q0 -27 -21 -47.5t-48 -20.5zM681 785q-24 0 -40 16.5t-16 41.5q0 27 21 46t48 19q23 0 39.5 -16t16.5 -39q0 -27 -21 -47.5t-48 -20.5zM102 702q-5 28 24 28h51q21 0 25 -21l93 -530
q2 -14 10.5 -14t15.5 13l197 399q6 11 2 27l-25 97q-3 13 3.5 21t19.5 8h48q20 0 25 -20l131 -534q3 -13 12 -13t14 14l203 532q8 21 30 21h43q29 0 18 -28l-263 -677q-10 -25 -36 -25h-36q-26 0 -32 24l-107 406q-2 9 -6.5 12t-10.5 -0.5t-10 -11.5l-201 -407
q-12 -23 -37 -23h-34q-27 0 -31 25z" />
    <glyph glyph-name="Wgrave.ss01" horiz-adv-x="995" 
d="M477 895q9 25 31 16l172 -67q23 -9 14 -32l-4 -8q-10 -22 -32 -18l-179 40q-25 7 -16 31zM102 702q-5 28 24 28h51q21 0 25 -21l93 -530q2 -14 10.5 -14t15.5 13l197 399q6 11 2 27l-25 97q-3 13 3.5 21t19.5 8h48q20 0 25 -20l131 -534q3 -13 12 -13t14 14l203 532
q8 21 30 21h43q29 0 18 -28l-263 -677q-10 -25 -36 -25h-36q-26 0 -32 24l-107 406q-2 9 -6.5 12t-10.5 -0.5t-10 -11.5l-201 -407q-12 -23 -37 -23h-34q-27 0 -31 25z" />
    <glyph glyph-name="i.loclTRK" horiz-adv-x="261" 
d="M199 622q-26 0 -43.5 18t-17.5 45q0 29 22.5 50.5t53.5 21.5q26 0 43.5 -17.5t17.5 -43.5q0 -30 -23 -52t-53 -22zM207 520q25 0 22 -25l-49 -470q-3 -25 -28 -25h-44q-25 0 -22 25l49 470q3 25 28 25h44z" />
    <glyph glyph-name="uni006A0301" horiz-adv-x="267" 
d="M286 740q23 14 33 -10l13 -34q9 -23 -15 -33l-181 -72q-26 -10 -33 11l-2 6q-8 22 13 34zM29 -210q-38 0 -61 5q-21 4 -16 29l7 31q4 23 29 20q16 -2 25 -2q63 0 70 72l58 550q3 25 28 25h44q25 0 22 -25l-59 -557q-15 -148 -147 -148z" />
    <glyph glyph-name="a.ss01" horiz-adv-x="658" 
d="M71 235q0 133 85.5 214t216.5 81q92 0 156 -59q18 -16 25 10l5 17q6 22 31 22h16q25 0 22 -25l-49 -470q-3 -25 -28 -25h-13q-23 0 -25 22l-2 21q-3 22 -25 5q-70 -58 -167 -58q-111 0 -179.5 70.5t-68.5 174.5zM167 244q0 -74 46.5 -123.5t116.5 -49.5q98 0 163 90
q6 9 8 23l16 153q2 14 -3 23q-21 41 -58.5 65t-85.5 24q-82 0 -142.5 -60t-60.5 -145z" />
    <glyph glyph-name="aacute.ss01" horiz-adv-x="658" 
d="M477 740q23 14 33 -10l13 -34q9 -23 -15 -33l-181 -72q-26 -10 -33 11l-2 6q-8 22 13 34zM71 235q0 133 85.5 214t216.5 81q92 0 156 -59q18 -16 25 10l5 17q6 22 31 22h16q25 0 22 -25l-49 -470q-3 -25 -28 -25h-13q-23 0 -25 22l-2 21q-3 22 -25 5q-70 -58 -167 -58
q-111 0 -179.5 70.5t-68.5 174.5zM167 244q0 -74 46.5 -123.5t116.5 -49.5q98 0 163 90q6 9 8 23l16 153q2 14 -3 23q-21 41 -58.5 65t-85.5 24q-82 0 -142.5 -60t-60.5 -145z" />
    <glyph glyph-name="abreve.ss01" horiz-adv-x="658" 
d="M299 727q19 0 26 -20q7 -21 27.5 -32.5t46.5 -11.5q57 0 83 44q11 20 32 20l27 -1q29 -2 19 -27q-43 -107 -169 -108q-53 -1 -96 28t-52 80q-4 25 25 27zM71 235q0 133 85.5 214t216.5 81q92 0 156 -59q18 -16 25 10l5 17q6 22 31 22h16q25 0 22 -25l-49 -470
q-3 -25 -28 -25h-13q-23 0 -25 22l-2 21q-3 22 -25 5q-70 -58 -167 -58q-111 0 -179.5 70.5t-68.5 174.5zM167 244q0 -74 46.5 -123.5t116.5 -49.5q98 0 163 90q6 9 8 23l16 153q2 14 -3 23q-21 41 -58.5 65t-85.5 24q-82 0 -142.5 -60t-60.5 -145z" />
    <glyph glyph-name="acircumflex.ss01" horiz-adv-x="658" 
d="M236 639q-7 20 10 28l138 67q23 12 44 0l127 -67q16 -8 5 -28l-10 -18q-9 -16 -26 -10l-106 38q-20 7 -42 0l-110 -37q-18 -7 -24 9zM71 235q0 133 85.5 214t216.5 81q92 0 156 -59q18 -16 25 10l5 17q6 22 31 22h16q25 0 22 -25l-49 -470q-3 -25 -28 -25h-13
q-23 0 -25 22l-2 21q-3 22 -25 5q-70 -58 -167 -58q-111 0 -179.5 70.5t-68.5 174.5zM167 244q0 -74 46.5 -123.5t116.5 -49.5q98 0 163 90q6 9 8 23l16 153q2 14 -3 23q-21 41 -58.5 65t-85.5 24q-82 0 -142.5 -60t-60.5 -145z" />
    <glyph glyph-name="adieresis.ss01" horiz-adv-x="658" 
d="M299 619q-22 0 -37 15.5t-15 38.5q0 25 19 44t45 19q22 0 38 -15.5t16 -36.5q0 -27 -20 -46t-46 -19zM489 619q-23 0 -38 15.5t-15 39.5q0 25 19.5 43.5t45.5 18.5q22 0 38 -15.5t16 -36.5q0 -27 -20 -46t-46 -19zM71 235q0 133 85.5 214t216.5 81q92 0 156 -59
q18 -16 25 10l5 17q6 22 31 22h16q25 0 22 -25l-49 -470q-3 -25 -28 -25h-13q-23 0 -25 22l-2 21q-3 22 -25 5q-70 -58 -167 -58q-111 0 -179.5 70.5t-68.5 174.5zM167 244q0 -74 46.5 -123.5t116.5 -49.5q98 0 163 90q6 9 8 23l16 153q2 14 -3 23q-21 41 -58.5 65t-85.5 24
q-82 0 -142.5 -60t-60.5 -145z" />
    <glyph glyph-name="agrave.ss01" horiz-adv-x="658" 
d="M303 738q14 23 34 9l155 -100q21 -14 7 -34l-5 -7q-14 -21 -35 -12l-168 76q-22 11 -9 33zM71 235q0 133 85.5 214t216.5 81q92 0 156 -59q18 -16 25 10l5 17q6 22 31 22h16q25 0 22 -25l-49 -470q-3 -25 -28 -25h-13q-23 0 -25 22l-2 21q-3 22 -25 5q-70 -58 -167 -58
q-111 0 -179.5 70.5t-68.5 174.5zM167 244q0 -74 46.5 -123.5t116.5 -49.5q98 0 163 90q6 9 8 23l16 153q2 14 -3 23q-21 41 -58.5 65t-85.5 24q-82 0 -142.5 -60t-60.5 -145z" />
    <glyph glyph-name="amacron.ss01" horiz-adv-x="658" 
d="M254 674q3 25 27 25h242q26 0 23 -25l-3 -27q-3 -25 -28 -25h-242q-25 0 -22 25zM71 235q0 133 85.5 214t216.5 81q92 0 156 -59q18 -16 25 10l5 17q6 22 31 22h16q25 0 22 -25l-49 -470q-3 -25 -28 -25h-13q-23 0 -25 22l-2 21q-3 22 -25 5q-70 -58 -167 -58
q-111 0 -179.5 70.5t-68.5 174.5zM167 244q0 -74 46.5 -123.5t116.5 -49.5q98 0 163 90q6 9 8 23l16 153q2 14 -3 23q-21 41 -58.5 65t-85.5 24q-82 0 -142.5 -60t-60.5 -145z" />
    <glyph glyph-name="aogonek.ss01" horiz-adv-x="658" 
d="M606 520q25 0 22 -25l-49 -470q-1 -16 -14 -22q-54 -31 -71 -61t-17 -63q0 -38 40 -38q8 0 22 2q10 1 15.5 -3t4.5 -14l-2 -18q-1 -16 -19 -21q-16 -5 -41 -5q-42 0 -69.5 24.5t-27.5 62.5q0 94 114 148q-1 1 -1 5l-2 21q-3 22 -25 5q-70 -58 -167 -58
q-111 0 -179.5 70.5t-68.5 174.5q0 133 85.5 214t216.5 81q92 0 156 -59q18 -16 25 10l5 17q6 22 31 22h16zM501 184l16 153q2 14 -3 23q-21 41 -58.5 65t-85.5 24q-82 0 -142.5 -60t-60.5 -145q0 -74 46.5 -123.5t116.5 -49.5q98 0 163 90q6 9 8 23z" />
    <glyph glyph-name="aring.ss01" horiz-adv-x="658" 
d="M389 581q-44 0 -74 27.5t-30 68.5q0 47 34.5 80t91.5 33q45 0 75.5 -28t30.5 -67q0 -48 -34.5 -81t-93.5 -33zM395 641q22 0 37.5 14.5t15.5 34.5q0 18 -12 30t-31 12q-21 0 -36 -15t-15 -35q0 -18 11.5 -29.5t29.5 -11.5zM71 235q0 133 85.5 214t216.5 81q92 0 156 -59
q18 -16 25 10l5 17q6 22 31 22h16q25 0 22 -25l-49 -470q-3 -25 -28 -25h-13q-23 0 -25 22l-2 21q-3 22 -25 5q-70 -58 -167 -58q-111 0 -179.5 70.5t-68.5 174.5zM167 244q0 -74 46.5 -123.5t116.5 -49.5q98 0 163 90q6 9 8 23l16 153q2 14 -3 23q-21 41 -58.5 65t-85.5 24
q-82 0 -142.5 -60t-60.5 -145z" />
    <glyph glyph-name="atilde.ss01" horiz-adv-x="658" 
d="M543 694q28 -5 18 -29q-12 -33 -39 -51.5t-62 -18.5q-34 0 -73 21.5t-54 21.5q-25 0 -40 -16q-16 -19 -34 -15l-15 3q-26 5 -17 30q24 70 97 70q37 0 80.5 -22t52.5 -22q25 0 39 15q17 20 33 16zM71 235q0 133 85.5 214t216.5 81q92 0 156 -59q18 -16 25 10l5 17
q6 22 31 22h16q25 0 22 -25l-49 -470q-3 -25 -28 -25h-13q-23 0 -25 22l-2 21q-3 22 -25 5q-70 -58 -167 -58q-111 0 -179.5 70.5t-68.5 174.5zM167 244q0 -74 46.5 -123.5t116.5 -49.5q98 0 163 90q6 9 8 23l16 153q2 14 -3 23q-21 41 -58.5 65t-85.5 24q-82 0 -142.5 -60
t-60.5 -145z" />
    <glyph glyph-name="k.ss01" horiz-adv-x="611" 
d="M106 0q-25 0 -22 25l76 730q3 25 28 25h44q25 0 22 -25l-49 -474q-2 -13 5 -16t17 6l263 236q14 13 33 13h49q16 0 19 -9.5t-10 -21.5l-192 -189q-15 -13 -5 -27l125 -180q11 -15 27 -15h52q26 0 23 -25l-3 -28q-3 -25 -28 -25h-107q-18 0 -27 15l-129 207q-10 17 -27 2
l-90 -83q-11 -10 -13 -24l-9 -92q-3 -25 -28 -25h-44z" />
    <glyph glyph-name="kcommaaccent.ss01" horiz-adv-x="611" 
d="M106 0q-25 0 -22 25l76 730q3 25 28 25h44q25 0 22 -25l-49 -474q-2 -13 5 -16t17 6l263 236q14 13 33 13h49q16 0 19 -9.5t-10 -21.5l-192 -189q-15 -13 -5 -27l125 -180q11 -15 27 -15h52q26 0 23 -25l-3 -28q-3 -25 -28 -25h-107q-18 0 -27 15l-129 207q-10 17 -27 2
l-90 -83q-11 -10 -13 -24l-9 -92q-3 -25 -28 -25h-44zM250 -56q6 23 30 23h43q29 0 18 -28l-56 -140q-8 -21 -30 -21h-21q-26 0 -20 27z" />
    <glyph glyph-name="l.ss01" horiz-adv-x="351" 
d="M95 157l63 598q3 25 28 25h44q25 0 22 -25l-62 -596q-5 -44 10 -65t53 -21q30 0 65 11q12 4 20 -1t8 -17v-30q0 -23 -20 -30q-50 -16 -97 -16q-67 0 -105 42t-29 125z" />
    <glyph glyph-name="lacute.ss01" horiz-adv-x="351" 
d="M306 947q25 8 30 -17l5 -36q3 -25 -23 -29l-192 -29q-27 -5 -30 18v6q-3 23 20 30zM95 157l63 598q3 25 28 25h44q25 0 22 -25l-62 -596q-5 -44 10 -65t53 -21q30 0 65 11q12 4 20 -1t8 -17v-30q0 -23 -20 -30q-50 -16 -97 -16q-67 0 -105 42t-29 125z" />
    <glyph glyph-name="lcaron.ss01" horiz-adv-x="351" 
d="M340 661q24 0 30 23l43 172q6 27 -20 27h-31q-23 0 -28 -24l-33 -172q-5 -26 21 -26h18zM95 157l63 598q3 25 28 25h44q25 0 22 -25l-62 -596q-5 -44 10 -65t53 -21q30 0 65 11q12 4 20 -1t8 -17v-30q0 -23 -20 -30q-50 -16 -97 -16q-67 0 -105 42t-29 125z" />
    <glyph glyph-name="lcommaaccent.ss01" horiz-adv-x="351" 
d="M95 157l63 598q3 25 28 25h44q25 0 22 -25l-62 -596q-5 -44 10 -65t53 -21q30 0 65 11q12 4 20 -1t8 -17v-30q0 -23 -20 -30q-50 -16 -97 -16q-67 0 -105 42t-29 125zM152 -56q6 23 30 23h43q29 0 18 -28l-56 -140q-8 -21 -30 -21h-21q-26 0 -20 27z" />
    <glyph glyph-name="ldot.ss01" horiz-adv-x="378" 
d="M95 157l63 598q3 25 28 25h44q25 0 22 -25l-62 -596q-5 -44 10 -65t53 -21q30 0 65 11q12 4 20 -1t8 -17v-30q0 -23 -20 -30q-50 -16 -97 -16q-67 0 -105 42t-29 125zM332 295q-25 0 -41 17t-16 42q0 27 21 47t49 20q24 0 40.5 -16.5t16.5 -39.5q0 -28 -21.5 -49
t-48.5 -21z" />
    <glyph glyph-name="lslash.ss01" horiz-adv-x="351" 
d="M318 84q12 4 20 -1t8 -17v-30q0 -23 -20 -30q-50 -16 -97 -16q-67 0 -105 42t-29 125l19 180l-59 -24q-29 -12 -38 16l-5 15q-10 29 20 40l91 37l35 334q3 25 28 25h44q25 0 22 -25l-31 -294l74 30q28 11 37 -15l5 -15q9 -28 -18 -40l-106 -43l-23 -219q-5 -44 10 -65
t53 -21q30 0 65 11z" />
    <glyph glyph-name="t.ss01" horiz-adv-x="522" 
d="M96 440q-25 0 -22 25l3 30q3 25 28 25h32q24 0 26 24l8 78q3 22 24 28l43 11q14 4 21 -2.5t5 -19.5l-10 -95q-3 -24 22 -24h200q25 0 22 -25l-3 -30q-3 -25 -28 -25h-200q-24 0 -26 -24l-22 -209q-7 -66 20 -101t72 -35q43 0 79.5 24t57.5 67q10 21 30 21h38q28 0 20 -27
q-24 -74 -85 -120t-143 -46q-87 0 -140.5 57.5t-42.5 159.5l22 209q3 24 -22 24h-29z" />
    <glyph glyph-name="tbar.ss01" horiz-adv-x="522" 
d="M516 183q28 0 20 -27q-24 -74 -85 -120t-143 -46q-87 0 -140.5 57.5t-42.5 159.5l6 56h-46q-24 0 -22 25l2 28q2 25 28 25h46l8 75q3 24 -22 24h-29q-25 0 -22 25l3 30q3 25 28 25h32q24 0 26 24l8 78q3 22 24 28l43 11q14 4 21 -2.5t5 -19.5l-10 -95q-3 -24 22 -24h200
q25 0 22 -25l-3 -30q-3 -25 -28 -25h-200q-24 0 -26 -24l-8 -75h147q24 0 22 -25l-2 -28q-2 -25 -28 -25h-147l-6 -56q-7 -66 20 -101t72 -35q43 0 79.5 24t57.5 67q10 21 30 21h38z" />
    <glyph glyph-name="tcaron.ss01" horiz-adv-x="522" 
d="M371 600q24 0 30 23l43 172q6 27 -20 27h-31q-23 0 -28 -24l-33 -172q-5 -26 21 -26h18zM96 440q-25 0 -22 25l3 30q3 25 28 25h32q24 0 26 24l8 78q3 22 24 28l43 11q14 4 21 -2.5t5 -19.5l-10 -95q-3 -24 22 -24h200q25 0 22 -25l-3 -30q-3 -25 -28 -25h-200
q-24 0 -26 -24l-22 -209q-7 -66 20 -101t72 -35q43 0 79.5 24t57.5 67q10 21 30 21h38q28 0 20 -27q-24 -74 -85 -120t-143 -46q-87 0 -140.5 57.5t-42.5 159.5l22 209q3 24 -22 24h-29z" />
    <glyph glyph-name="uni0163.ss01" horiz-adv-x="522" 
d="M516 183q28 0 20 -27q-21 -68 -74.5 -112.5t-126.5 -52.5l-5 -14q-7 -15 9 -19q62 -16 62 -75q0 -47 -37 -75t-93 -28q-47 0 -75 17q-17 11 -12 30l5 15q6 21 32 9q23 -10 50 -10q22 0 35.5 9.5t13.5 25.5q0 35 -41 35h-8q-15 0 -21 8.5t-1 22.5l19 51q-71 13 -111.5 69
t-31.5 145l22 209q3 24 -22 24h-29q-25 0 -22 25l3 30q3 25 28 25h32q24 0 26 24l8 78q3 22 24 28l43 11q14 4 21 -2.5t5 -19.5l-10 -95q-3 -24 22 -24h200q25 0 22 -25l-3 -30q-3 -25 -28 -25h-200q-24 0 -26 -24l-22 -209q-7 -66 20 -101t72 -35q43 0 79.5 24t57.5 67
q10 21 30 21h38z" />
    <glyph glyph-name="uni021B.ss01" horiz-adv-x="522" 
d="M96 440q-25 0 -22 25l3 30q3 25 28 25h32q24 0 26 24l8 78q3 22 24 28l43 11q14 4 21 -2.5t5 -19.5l-10 -95q-3 -24 22 -24h200q25 0 22 -25l-3 -30q-3 -25 -28 -25h-200q-24 0 -26 -24l-22 -209q-7 -66 20 -101t72 -35q43 0 79.5 24t57.5 67q10 21 30 21h38q28 0 20 -27
q-24 -74 -85 -120t-143 -46q-87 0 -140.5 57.5t-42.5 159.5l22 209q3 24 -22 24h-29zM255 -56q6 23 30 23h43q29 0 18 -28l-56 -140q-8 -21 -30 -21h-21q-26 0 -20 27z" />
    <glyph glyph-name="u.ss01" horiz-adv-x="616" 
d="M97 210l30 285q3 25 28 25h44q25 0 22 -25l-30 -288q-6 -59 29 -96.5t96 -37.5q62 0 105 37.5t49 96.5l30 288q3 25 28 25h44q25 0 22 -25l-30 -285q-11 -102 -77 -161t-180 -59q-103 0 -161.5 60.5t-48.5 159.5z" />
    <glyph glyph-name="uacute.ss01" horiz-adv-x="616" 
d="M456 740q23 14 33 -10l13 -34q9 -23 -15 -33l-181 -72q-26 -10 -33 11l-2 6q-8 22 13 34zM97 210l30 285q3 25 28 25h44q25 0 22 -25l-30 -288q-6 -59 29 -96.5t96 -37.5q62 0 105 37.5t49 96.5l30 288q3 25 28 25h44q25 0 22 -25l-30 -285q-11 -102 -77 -161t-180 -59
q-103 0 -161.5 60.5t-48.5 159.5z" />
    <glyph glyph-name="ucircumflex.ss01" horiz-adv-x="616" 
d="M215 639q-7 20 10 28l138 67q23 12 44 0l127 -67q16 -8 5 -28l-10 -18q-9 -16 -26 -10l-106 38q-20 7 -42 0l-110 -37q-18 -7 -24 9zM97 210l30 285q3 25 28 25h44q25 0 22 -25l-30 -288q-6 -59 29 -96.5t96 -37.5q62 0 105 37.5t49 96.5l30 288q3 25 28 25h44
q25 0 22 -25l-30 -285q-11 -102 -77 -161t-180 -59q-103 0 -161.5 60.5t-48.5 159.5z" />
    <glyph glyph-name="udieresis.ss01" horiz-adv-x="616" 
d="M278 619q-22 0 -37 15.5t-15 38.5q0 25 19 44t45 19q22 0 38 -15.5t16 -36.5q0 -27 -20 -46t-46 -19zM468 619q-23 0 -38 15.5t-15 39.5q0 25 19.5 43.5t45.5 18.5q22 0 38 -15.5t16 -36.5q0 -27 -20 -46t-46 -19zM97 210l30 285q3 25 28 25h44q25 0 22 -25l-30 -288
q-6 -59 29 -96.5t96 -37.5q62 0 105 37.5t49 96.5l30 288q3 25 28 25h44q25 0 22 -25l-30 -285q-11 -102 -77 -161t-180 -59q-103 0 -161.5 60.5t-48.5 159.5z" />
    <glyph glyph-name="ugrave.ss01" horiz-adv-x="616" 
d="M282 738q14 23 34 9l155 -100q21 -14 7 -34l-5 -7q-14 -21 -35 -12l-168 76q-22 11 -9 33zM97 210l30 285q3 25 28 25h44q25 0 22 -25l-30 -288q-6 -59 29 -96.5t96 -37.5q62 0 105 37.5t49 96.5l30 288q3 25 28 25h44q25 0 22 -25l-30 -285q-11 -102 -77 -161t-180 -59
q-103 0 -161.5 60.5t-48.5 159.5z" />
    <glyph glyph-name="uhungarumlaut.ss01" horiz-adv-x="616" 
d="M301 716q10 19 31 19l43 -1q15 0 18.5 -8.5t-5.5 -21.5l-69 -94q-12 -17 -32 -17h-19q-14 0 -19 8t2 21zM460 716q10 19 31 19l43 -1q15 0 18.5 -8.5t-5.5 -21.5l-69 -94q-12 -17 -32 -17h-19q-14 0 -19 8t2 21zM97 210l30 285q3 25 28 25h44q25 0 22 -25l-30 -288
q-6 -59 29 -96.5t96 -37.5q62 0 105 37.5t49 96.5l30 288q3 25 28 25h44q25 0 22 -25l-30 -285q-11 -102 -77 -161t-180 -59q-103 0 -161.5 60.5t-48.5 159.5z" />
    <glyph glyph-name="umacron.ss01" horiz-adv-x="616" 
d="M233 674q3 25 27 25h242q26 0 23 -25l-3 -27q-3 -25 -28 -25h-242q-25 0 -22 25zM97 210l30 285q3 25 28 25h44q25 0 22 -25l-30 -288q-6 -59 29 -96.5t96 -37.5q62 0 105 37.5t49 96.5l30 288q3 25 28 25h44q25 0 22 -25l-30 -285q-11 -102 -77 -161t-180 -59
q-103 0 -161.5 60.5t-48.5 159.5z" />
    <glyph glyph-name="uogonek.ss01" horiz-adv-x="616" 
d="M572 520q25 0 22 -25l-30 -285q-9 -87 -59 -143t-136 -72q-80 -48 -80 -119q0 -38 40 -38q8 0 22 2q10 1 15.5 -3t4.5 -14l-2 -18q-1 -16 -19 -21q-16 -5 -41 -5q-42 0 -69.5 24.5t-27.5 62.5q0 74 74 125q-94 6 -146.5 65.5t-42.5 153.5l30 285q3 25 28 25h44
q25 0 22 -25l-30 -288q-6 -59 29 -96.5t96 -37.5q62 0 105 37.5t49 96.5l30 288q3 25 28 25h44z" />
    <glyph glyph-name="uring.ss01" horiz-adv-x="616" 
d="M368 581q-44 0 -74 27.5t-30 68.5q0 47 34.5 80t91.5 33q45 0 75.5 -28t30.5 -67q0 -48 -34.5 -81t-93.5 -33zM374 641q22 0 37.5 14.5t15.5 34.5q0 18 -12 30t-31 12q-22 0 -36.5 -15t-14.5 -35q0 -18 11.5 -29.5t29.5 -11.5zM97 210l30 285q3 25 28 25h44q25 0 22 -25
l-30 -288q-6 -59 29 -96.5t96 -37.5q62 0 105 37.5t49 96.5l30 288q3 25 28 25h44q25 0 22 -25l-30 -285q-11 -102 -77 -161t-180 -59q-103 0 -161.5 60.5t-48.5 159.5z" />
    <glyph glyph-name="utilde.ss01" horiz-adv-x="616" 
d="M522 694q28 -5 18 -29q-12 -33 -39 -51.5t-62 -18.5q-34 0 -73 21.5t-54 21.5q-25 0 -40 -16q-16 -19 -34 -15l-15 3q-26 5 -17 30q24 70 97 70q37 0 80.5 -22t52.5 -22q25 0 39 15q17 20 33 16zM97 210l30 285q3 25 28 25h44q25 0 22 -25l-30 -288q-6 -59 29 -96.5
t96 -37.5q62 0 105 37.5t49 96.5l30 288q3 25 28 25h44q25 0 22 -25l-30 -285q-11 -102 -77 -161t-180 -59q-103 0 -161.5 60.5t-48.5 159.5z" />
    <glyph glyph-name="w.ss01" horiz-adv-x="809" 
d="M78 492q-6 28 24 28h41q21 0 25 -21l72 -376q1 -8 5.5 -11t9.5 0t9 10l145 273q8 15 4 33l-16 63q-4 13 2.5 21t20.5 8h36q20 0 25 -20l90 -375q2 -8 6 -11t9 0.5t8 11.5l154 373q9 21 31 21h40q29 0 16 -29l-205 -465q-12 -26 -40 -26h-41q-27 0 -33 26l-60 234
q-2 11 -7.5 14.5t-12 -0.5t-11.5 -14l-124 -235q-13 -25 -40 -25h-45q-28 0 -34 26z" />
    <glyph glyph-name="wacute.ss01" horiz-adv-x="809" 
d="M553 740q23 14 33 -10l13 -34q9 -23 -15 -33l-181 -72q-26 -10 -33 11l-2 6q-8 22 13 34zM78 492q-6 28 24 28h41q21 0 25 -21l72 -376q1 -8 5.5 -11t9.5 0t9 10l145 273q8 15 4 33l-16 63q-4 13 2.5 21t20.5 8h36q20 0 25 -20l90 -375q2 -8 6 -11t9 0.5t8 11.5l154 373
q9 21 31 21h40q29 0 16 -29l-205 -465q-12 -26 -40 -26h-41q-27 0 -33 26l-60 234q-2 11 -7.5 14.5t-12 -0.5t-11.5 -14l-124 -235q-13 -25 -40 -25h-45q-28 0 -34 26z" />
    <glyph glyph-name="wcircumflex.ss01" horiz-adv-x="809" 
d="M312 639q-7 20 10 28l138 67q23 12 44 0l127 -67q16 -8 5 -28l-10 -18q-9 -16 -26 -10l-106 38q-20 7 -42 0l-110 -37q-18 -7 -24 9zM78 492q-6 28 24 28h41q21 0 25 -21l72 -376q1 -8 5.5 -11t9.5 0t9 10l145 273q8 15 4 33l-16 63q-4 13 2.5 21t20.5 8h36q20 0 25 -20
l90 -375q2 -8 6 -11t9 0.5t8 11.5l154 373q9 21 31 21h40q29 0 16 -29l-205 -465q-12 -26 -40 -26h-41q-27 0 -33 26l-60 234q-2 11 -7.5 14.5t-12 -0.5t-11.5 -14l-124 -235q-13 -25 -40 -25h-45q-28 0 -34 26z" />
    <glyph glyph-name="wdieresis.ss01" horiz-adv-x="809" 
d="M375 619q-22 0 -37 15.5t-15 38.5q0 25 19 44t45 19q22 0 38 -15.5t16 -36.5q0 -27 -20 -46t-46 -19zM565 619q-23 0 -38 15.5t-15 39.5q0 25 19.5 43.5t45.5 18.5q22 0 38 -15.5t16 -36.5q0 -27 -20 -46t-46 -19zM78 492q-6 28 24 28h41q21 0 25 -21l72 -376
q1 -8 5.5 -11t9.5 0t9 10l145 273q8 15 4 33l-16 63q-4 13 2.5 21t20.5 8h36q20 0 25 -20l90 -375q2 -8 6 -11t9 0.5t8 11.5l154 373q9 21 31 21h40q29 0 16 -29l-205 -465q-12 -26 -40 -26h-41q-27 0 -33 26l-60 234q-2 11 -7.5 14.5t-12 -0.5t-11.5 -14l-124 -235
q-13 -25 -40 -25h-45q-28 0 -34 26z" />
    <glyph glyph-name="wgrave.ss01" horiz-adv-x="809" 
d="M379 738q14 23 34 9l155 -100q21 -14 7 -34l-5 -7q-14 -21 -35 -12l-168 76q-22 11 -9 33zM78 492q-6 28 24 28h41q21 0 25 -21l72 -376q1 -8 5.5 -11t9.5 0t9 10l145 273q8 15 4 33l-16 63q-4 13 2.5 21t20.5 8h36q20 0 25 -20l90 -375q2 -8 6 -11t9 0.5t8 11.5l154 373
q9 21 31 21h40q29 0 16 -29l-205 -465q-12 -26 -40 -26h-41q-27 0 -33 26l-60 234q-2 11 -7.5 14.5t-12 -0.5t-11.5 -14l-124 -235q-13 -25 -40 -25h-45q-28 0 -34 26z" />
    <glyph glyph-name="y.ss01" horiz-adv-x="559" 
d="M77 491q-4 13 2.5 21t20.5 8h50q19 0 25 -20l104 -384q3 -10 8.5 -14t11.5 0t11 14l179 384q9 20 30 20h50q14 0 18.5 -8t-2.5 -21l-347 -691q-10 -20 -31 -20h-39q-14 0 -19 8t2 21l101 191h-10q-16 0 -21 16z" />
    <glyph glyph-name="yacute.ss01" horiz-adv-x="559" 
d="M432 740q23 14 33 -10l13 -34q9 -23 -15 -33l-181 -72q-26 -10 -33 11l-2 6q-8 22 13 34zM77 491q-4 13 2.5 21t20.5 8h50q19 0 25 -20l104 -384q3 -10 8.5 -14t11.5 0t11 14l179 384q9 20 30 20h50q14 0 18.5 -8t-2.5 -21l-347 -691q-10 -20 -31 -20h-39q-14 0 -19 8
t2 21l101 191h-10q-16 0 -21 16z" />
    <glyph glyph-name="ycircumflex.ss01" horiz-adv-x="559" 
d="M191 639q-7 20 10 28l138 67q23 12 44 0l127 -67q16 -8 5 -28l-10 -18q-9 -16 -26 -10l-106 38q-20 7 -42 0l-110 -37q-18 -7 -24 9zM77 491q-4 13 2.5 21t20.5 8h50q19 0 25 -20l104 -384q3 -10 8.5 -14t11.5 0t11 14l179 384q9 20 30 20h50q14 0 18.5 -8t-2.5 -21
l-347 -691q-10 -20 -31 -20h-39q-14 0 -19 8t2 21l101 191h-10q-16 0 -21 16z" />
    <glyph glyph-name="ydieresis.ss01" horiz-adv-x="559" 
d="M254 619q-22 0 -37 15.5t-15 38.5q0 25 19 44t45 19q22 0 38 -15.5t16 -36.5q0 -27 -20 -46t-46 -19zM444 619q-23 0 -38 15.5t-15 39.5q0 25 19.5 43.5t45.5 18.5q22 0 38 -15.5t16 -36.5q0 -27 -20 -46t-46 -19zM77 491q-4 13 2.5 21t20.5 8h50q19 0 25 -20l104 -384
q3 -10 8.5 -14t11.5 0t11 14l179 384q9 20 30 20h50q14 0 18.5 -8t-2.5 -21l-347 -691q-10 -20 -31 -20h-39q-14 0 -19 8t2 21l101 191h-10q-16 0 -21 16z" />
    <glyph glyph-name="ygrave.ss01" horiz-adv-x="559" 
d="M258 738q14 23 34 9l155 -100q21 -14 7 -34l-5 -7q-14 -21 -35 -12l-168 76q-22 11 -9 33zM77 491q-4 13 2.5 21t20.5 8h50q19 0 25 -20l104 -384q3 -10 8.5 -14t11.5 0t11 14l179 384q9 20 30 20h50q14 0 18.5 -8t-2.5 -21l-347 -691q-10 -20 -31 -20h-39q-14 0 -19 8
t2 21l101 191h-10q-16 0 -21 16z" />
    <glyph glyph-name="uni1EF9.ss01" horiz-adv-x="559" 
d="M498 694q28 -5 18 -29q-12 -33 -39 -51.5t-62 -18.5q-34 0 -73 21.5t-54 21.5q-25 0 -40 -16q-16 -19 -34 -15l-15 3q-26 5 -17 30q24 70 97 70q37 0 80.5 -22t52.5 -22q25 0 39 15q17 20 33 16zM77 491q-4 13 2.5 21t20.5 8h50q19 0 25 -20l104 -384q3 -10 8.5 -14
t11.5 0t11 14l179 384q9 20 30 20h50q14 0 18.5 -8t-2.5 -21l-347 -691q-10 -20 -31 -20h-39q-14 0 -19 8t2 21l101 191h-10q-16 0 -21 16z" />
    <glyph glyph-name="zero.zero" horiz-adv-x="760" 
d="M459 740q128 0 208 -93.5t80 -233.5q0 -189 -101 -306t-266 -117q-128 0 -208 94.5t-80 236.5q0 188 100 303.5t267 115.5zM450 652q-113 0 -185.5 -92.5t-72.5 -233.5q0 -77 26 -134l343 424q-47 36 -111 36zM389 78q112 0 184.5 92.5t72.5 233.5q0 90 -36 154
l-348 -431q52 -49 127 -49z" />
    <glyph glyph-name="ampersand.ss01" horiz-adv-x="710" 
d="M60 166q0 139 157 200q31 12 12 37q-51 67 -51 131q0 85 59.5 140t168.5 55q74 0 128.5 -47.5t54.5 -114.5q0 -134 -156 -202q-33 -15 -11 -38l95 -103q22 -23 42 5q42 58 47 109q3 24 27 24h35q26 0 21 -25q-17 -95 -73 -176q-17 -24 0 -42l70 -75q10 -11 10 -25
q0 -19 -27 -19h-43q-18 0 -29 12l-45 46q-18 19 -42 2q-47 -33 -96.5 -51t-125.5 -18q-95 0 -161.5 48t-66.5 127zM274 537q0 -18 8.5 -37.5t18 -32.5t28.5 -36q16 -18 41 -8q65 27 95.5 56t30.5 72q0 38 -28 64.5t-72 26.5q-54 0 -88 -30t-34 -75zM156 176
q0 -45 38.5 -73.5t102.5 -28.5q79 0 150 45q30 19 7 43l-131 138q-17 18 -51 3q-59 -26 -87.5 -55.5t-28.5 -71.5z" />
    <glyph glyph-name="paragraph.ss01" horiz-adv-x="756" 
d="M791 730l-9 -82h-88l-81 -776h-98l81 776h-79l-42 -398h-141q-120 0 -186 60.5t-66 159.5q0 117 81 188.5t222 71.5h406z" />
    <glyph glyph-name="caroncomb.alt" 
d="M-186 600q24 0 30 23l43 172q6 27 -20 27h-31q-23 0 -28 -24l-33 -172q-5 -26 21 -26h18z" />
    <glyph glyph-name="uni0308.case" 
d="M-239 785q-24 0 -39.5 16t-15.5 41q0 27 20 46.5t47 19.5q24 0 40.5 -16t16.5 -39q0 -27 -21 -47.5t-48 -20.5zM-40 785q-24 0 -40 16.5t-16 41.5q0 27 21 46t48 19q23 0 39.5 -16t16.5 -39q0 -27 -21 -47.5t-48 -20.5z" />
    <glyph glyph-name="uni0307.case" 
d="M-78 610q-26 0 -43.5 18t-17.5 45q0 29 22.5 50.5t53.5 21.5q25 0 43 -17.5t18 -43.5q0 -30 -23 -52t-53 -22z" />
    <glyph glyph-name="gravecomb.case" 
d="M-299 895q9 25 31 16l172 -67q23 -9 14 -32l-4 -8q-10 -22 -32 -18l-179 40q-25 7 -16 31z" />
    <glyph glyph-name="acutecomb.case" 
d="M-127 897q25 8 30 -17l5 -36q3 -25 -23 -29l-192 -29q-27 -5 -30 18v6q-3 23 20 30z" />
    <glyph glyph-name="uni030B.case" 
d="M-260 908q10 19 31 19l43 -1q15 0 18.5 -8.5t-5.5 -21.5l-69 -94q-12 -17 -32 -17h-19q-14 0 -19 8t2 21zM-101 908q10 19 31 19l43 -1q15 0 18.5 -8.5t-5.5 -21.5l-69 -94q-12 -17 -32 -17h-19q-14 0 -19 8t2 21z" />
    <glyph glyph-name="uni0302.case" 
d="M-331 826q-8 21 10 29l141 68q24 12 45 0l130 -68q16 -8 5 -29l-10 -18q-10 -16 -27 -10l-108 38q-20 7 -43 0l-112 -37q-19 -6 -25 9z" />
    <glyph glyph-name="uni030C.case" 
d="M-318 885l6 17q8 23 30 14l102 -33q17 -6 35 0l108 33q22 7 26 -14l4 -17q5 -21 -16 -29l-122 -52q-27 -12 -55 0l-109 52q-19 8 -9 29z" />
    <glyph glyph-name="uni0306.case" 
d="M-311 915q19 0 26 -20q7 -21 27.5 -32.5t46.5 -11.5q57 0 83 44q11 20 32 20l27 -1q29 -2 19 -27q-43 -107 -169 -108q-53 -1 -96 28t-52 80q-4 25 25 27z" />
    <glyph glyph-name="uni030A.case" 
d="M-231 766q-44 0 -74 27.5t-30 68.5q0 47 34.5 80t91.5 33q45 0 75.5 -28t30.5 -67q0 -48 -34.5 -81t-93.5 -33zM-225 826q22 0 37.5 14.5t15.5 34.5q0 18 -12 30t-31 12q-21 0 -36 -14.5t-15 -35.5q0 -18 11.5 -29.5t29.5 -11.5z" />
    <glyph glyph-name="tildecomb.case" 
d="M-43 890q28 -5 18 -29q-12 -33 -39 -51.5t-62 -18.5q-34 0 -73 21.5t-54 21.5q-25 0 -40 -16q-16 -19 -34 -15l-15 3q-26 5 -17 30q24 70 97 70q37 0 80.5 -22t52.5 -22q25 0 39 15q17 20 33 16z" />
    <glyph glyph-name="uni0304.case" 
d="M-343 859q3 25 27 25h242q26 0 23 -25l-3 -27q-3 -25 -28 -25h-242q-25 0 -22 25z" />
    <glyph glyph-name="uni0337.case" 
d="M-111 515q25 11 31 -14l4 -17q6 -23 -18 -33l-294 -122q-26 -12 -31 14l-3 17q-5 23 18 32z" />
    <glyph glyph-name="uni0338.case" 
d="M60 616q18 18 35 0l15 -16q16 -18 -2 -36l-697 -639q-19 -19 -36 0l-12 14q-16 18 3 36z" />
    <glyph glyph-name="caron.alt" horiz-adv-x="600" 
d="M293 600q24 0 30 23l43 172q6 27 -20 27h-31q-23 0 -28 -24l-33 -172q-5 -26 21 -26h18z" />
    <glyph glyph-name="acute.case" horiz-adv-x="600" 
d="M473 897q25 8 30 -17l5 -36q3 -25 -23 -29l-192 -29q-27 -5 -30 18v6q-3 23 20 30z" />
    <glyph glyph-name="breve.case" horiz-adv-x="600" 
d="M289 915q19 0 26 -20q7 -21 27.5 -32.5t46.5 -11.5q57 0 83 44q11 20 32 20l27 -1q29 -2 19 -27q-43 -107 -169 -108q-53 -1 -96 28t-52 80q-4 25 25 27z" />
    <glyph glyph-name="caron.case" horiz-adv-x="517" 
d="M193 885l6 17q8 23 30 14l102 -33q17 -6 35 0l108 33q22 7 26 -14l4 -17q5 -21 -16 -29l-122 -52q-27 -12 -55 0l-109 52q-19 8 -9 29z" />
    <glyph glyph-name="circumflex.case" horiz-adv-x="511" 
d="M180 826q-8 21 10 29l141 68q24 12 45 0l130 -68q16 -8 5 -29l-10 -18q-10 -16 -27 -10l-108 38q-20 7 -43 0l-112 -37q-19 -6 -25 9z" />
    <glyph glyph-name="dieresis.case" horiz-adv-x="437" 
d="M198 785q-24 0 -39.5 16t-15.5 41q0 27 20 46.5t47 19.5q24 0 40.5 -16t16.5 -39q0 -27 -21 -47.5t-48 -20.5zM397 785q-24 0 -40 16.5t-16 41.5q0 27 21 46t48 19q23 0 39.5 -16t16.5 -39q0 -27 -21 -47.5t-48 -20.5z" />
    <glyph glyph-name="dotaccent.case" horiz-adv-x="284" 
d="M206 610q-26 0 -43.5 18t-17.5 45q0 29 22.5 50.5t53.5 21.5q25 0 43 -17.5t18 -43.5q0 -30 -23 -52t-53 -22z" />
    <glyph glyph-name="grave.case" horiz-adv-x="600" 
d="M251 895q9 25 31 16l172 -67q23 -9 14 -32l-4 -8q-10 -22 -32 -18l-179 40q-25 7 -16 31z" />
    <glyph glyph-name="hungarumlaut.case" horiz-adv-x="600" 
d="M340 908q10 19 31 19l43 -1q15 0 18.5 -8.5t-5.5 -21.5l-69 -94q-12 -17 -32 -17h-19q-14 0 -19 8t2 21zM499 908q10 19 31 19l43 -1q15 0 18.5 -8.5t-5.5 -21.5l-69 -94q-12 -17 -32 -17h-19q-14 0 -19 8t2 21z" />
    <glyph glyph-name="macron.case" horiz-adv-x="600" 
d="M257 859q3 25 27 25h242q26 0 23 -25l-3 -27q-3 -25 -28 -25h-242q-25 0 -22 25z" />
    <glyph glyph-name="ring.case" horiz-adv-x="466" 
d="M235 766q-44 0 -74 27.5t-30 68.5q0 47 34.5 80t91.5 33q45 0 75.5 -28t30.5 -67q0 -48 -34.5 -81t-93.5 -33zM241 826q22 0 37.5 14.5t15.5 34.5q0 18 -12 30t-31 12q-21 0 -36 -14.5t-15 -35.5q0 -18 11.5 -29.5t29.5 -11.5z" />
    <glyph glyph-name="tilde.case" horiz-adv-x="600" 
d="M512 890q28 -5 18 -29q-12 -33 -39 -51.5t-62 -18.5q-34 0 -73 21.5t-54 21.5q-25 0 -40 -16q-16 -19 -34 -15l-15 3q-26 5 -17 30q24 70 97 70q37 0 80.5 -22t52.5 -22q25 0 39 15q17 20 33 16z" />
    <glyph glyph-name="caronalt" horiz-adv-x="600" 
 />
    <glyph glyph-name="IJacute" horiz-adv-x="1002" 
d="M935 897q25 8 30 -17l5 -36q3 -25 -23 -29l-192 -29q-27 -5 -30 18v6q-3 23 20 30zM348 896q25 8 30 -17l5 -36q3 -25 -23 -29l-192 -29q-27 -5 -30 18v6q-3 23 20 30zM249 730q25 0 22 -25l-71 -680q-3 -25 -28 -25h-48q-25 0 -22 25l71 680q3 25 28 25h48zM343 223
q0 27 27 27h44q22 0 25 -23q8 -68 55.5 -107t126.5 -39q82 0 136.5 54.5t63.5 137.5l36 339q3 28 -25 28h-240q-25 0 -22 25l4 40q3 25 28 25h330q34 0 31 -35l-44 -422q-14 -127 -90.5 -205t-217.5 -78q-111 0 -186 66.5t-82 166.5z" />
    <glyph glyph-name="ijacute" horiz-adv-x="558" 
d="M588 744q23 14 33 -10l13 -34q9 -23 -15 -33l-181 -72q-26 -10 -33 11l-2 6q-8 22 13 34zM285 740q23 14 33 -10l13 -34q9 -23 -15 -33l-181 -72q-26 -10 -33 11l-2 6q-8 22 13 34zM207 520q25 0 22 -25l-49 -470q-3 -25 -28 -25h-44q-25 0 -22 25l49 470q3 25 28 25h44z
M320 -210q-38 0 -61 5q-21 4 -16 29l7 31q4 23 29 20q16 -2 25 -2q63 0 70 72l58 550q3 25 28 25h44q25 0 22 -25l-59 -557q-15 -148 -147 -148z" />
    <glyph glyph-name="sign" horiz-adv-x="600" 
 />
    <glyph glyph-name="slashlong.case" horiz-adv-x="600" 
 />
    <glyph glyph-name="slashlong" horiz-adv-x="600" 
 />
    <glyph glyph-name="slashshort.case" horiz-adv-x="600" 
 />
    <glyph glyph-name="slashshort" horiz-adv-x="600" 
 />
    <glyph glyph-name="stroke" horiz-adv-x="600" 
 />
    </font>
</defs>
</svg>
