<svg xmlns="http://www.w3.org/2000/svg">
<defs>
<font id="MarketSquareRounded-Regular" horiz-adv-x="483" >
  <font-face 
    font-family="Market Square Rounded"
    font-weight="400"
    font-stretch="normal"
    units-per-em="1000"
    panose-1="0 0 0 0 0 0 0 0 0 0"
    ascent="800"
    descent="-200"
    x-height="692"
    cap-height="697"
    bbox="-60 -226 932 957"
    underline-thickness="0"
    underline-position="0"
    unicode-range="U+000D-F6C3"
  />
<missing-glyph horiz-adv-x="689" 
d="M29 522l2 -3l4 16l-6 2v8l6 7l5 123l3 -14l8 11l4 -13l1 3h9l5 11l3 -11h11l5 5l13 3l-20 5l22 1l3 4l2 -5h53l4 7l3 -7h24l11 -2l-9 -3l9 -1l3 3l2 10l2 -11l22 -3l5 2l-2 5l-6 1l3 2l10 -2l3 -7l30 3l4 -3l7 1l1 3l3 -3h17l5 9l2 -9l9 12v-7h25l2 8l2 -7h23l3 2l5 -2
l3 6l3 1l1 -7h23l4 4v-4h9l1 4l2 -4l8 -1l-7 -6l11 -2l-2 -9l18 -2l5 2l-5 -5h14l2 15l8 -4h-7l2 -5h6l9 -3l-7 -3h17v10l-5 3l10 7l1 -6l13 2l4 6v-6l46 1l4 3l3 6l2 -3v-6l16 -3l-10 -1v-4l17 -1l-3 -3l4 -2l7 3l-3 2l11 1l3 2v-6l4 -3l2 -5l4 -3l-4 -3l1 -42l4 3l3 9v-28
l-3 -14l3 -3l-1 -15l4 9h4l-2 -25l-3 -7l-2 5v15l-3 -4v-16l3 -3v-7l-4 -5l9 -5l-5 -1l-1 -9l3 -2l3 8l2 -11l4 2v17l5 12l3 -17l3 6v-18l2 -6l-4 -12l-2 -23l3 -6l3 -21l-2 -6l-3 -69l4 -3l-3 -9l3 -5l-3 -5v-4l4 -4l-4 -7v-27l3 -3v-8l-6 -6l3 -3l2 -18l6 15l-2 -14l7 -10
l-3 -2l-10 1l-3 3l-4 -10l3 -2v-12l-3 -9l4 -2l-1 -33l-3 -9l3 -11l-5 -6l2 -3v-17l-5 -4l2 -6l-4 -3l10 -3v-8l-3 -3v-9h-5v-10l5 2v-27h4v-10l-14 -1l5 -6l-5 -2v-7l4 -3v-8l-4 2h-6l-5 5l-3 -2l3 21l-3 3l-6 -2l1 -20l-14 -2l5 5l-3 8l4 7l-3 2v8h-6l3 -2l-3 -2v-7l-6 2
l-4 -9l-11 4l-3 -13l9 -3l-11 -1l-5 3l-7 14h-43l-6 -3v-8l-9 -5l-12 -3l-3 15h-18v4h-43l-3 -10h-6l-3 3l5 6h-20l-5 -6v6l-8 -6l-1 -9l-2 3l-4 -4l-3 3l3 1v9l-17 -3l-3 7l-3 -4h-7l-7 -3h-9l3 3l-11 4l-6 -4l5 -6l-5 -2l-3 2v-6l-4 -1l-7 6l-6 11l-8 2l11 3l-5 5h-30
l-4 -10l8 3l9 -6h-17l5 -3l-7 -11h-4l4 7h-10l-6 3l-2 -4l-2 5h-14l4 2l24 1l7 5l-2 4l2 3l-4 2h-7l-8 -4l-4 4h-11l-1 -3l-3 2l-9 -2l-4 -5l-6 5l-3 -3l-3 3l-36 1l-14 -3l-78 -3l17 -3l43 -3l3 5h9l34 -6l36 1l8 -3h-19l-18 -3l-30 3l-3 -4l-2 3l-15 1l-7 -7h13v-4h-13

<glyph glyph-name=".notdef" horiz-adv-x="689" 
d="M29 522l2 -3l4 16l-6 2v8l6 7l5 123l3 -14l8 11l4 -13l1 3h9l5 11l3 -11h11l5 5l13 3l-20 5l22 1l3 4l2 -5h53l4 7l3 -7h24l11 -2l-9 -3l9 -1l3 3l2 10l2 -11l22 -3l5 2l-2 5l-6 1l3 2l10 -2l3 -7l30 3l4 -3l7 1l1 3l3 -3h17l5 9l2 -9l9 12v-7h25l2 8l2 -7h23l3 2l5 -2
l3 6l3 1l1 -7h23l4 4v-4h9l1 4l2 -4l8 -1l-7 -6l11 -2l-2 -9l18 -2l5 2l-5 -5h14l2 15l8 -4h-7l2 -5h6l9 -3l-7 -3h17v10l-5 3l10 7l1 -6l13 2l4 6v-6l46 1l4 3l3 6l2 -3v-6l16 -3l-10 -1v-4l17 -1l-3 -3l4 -2l7 3l-3 2l11 1l3 2v-6l4 -3l2 -5l4 -3l-4 -3l1 -42l4 3l3 9v-28
l-3 -14l3 -3l-1 -15l4 9h4l-2 -25l-3 -7l-2 5v15l-3 -4v-16l3 -3v-7l-4 -5l9 -5l-5 -1l-1 -9l3 -2l3 8l2 -11l4 2v17l5 12l3 -17l3 6v-18l2 -6l-4 -12l-2 -23l3 -6l3 -21l-2 -6l-3 -69l4 -3l-3 -9l3 -5l-3 -5v-4l4 -4l-4 -7v-27l3 -3v-8l-6 -6l3 -3l2 -18l6 15l-2 -14l7 -10
l-3 -2l-10 1l-3 3l-4 -10l3 -2v-12l-3 -9l4 -2l-1 -33l-3 -9l3 -11l-5 -6l2 -3v-17l-5 -4l2 -6l-4 -3l10 -3v-8l-3 -3v-9h-5v-10l5 2v-27h4v-10l-14 -1l5 -6l-5 -2v-7l4 -3v-8l-4 2h-6l-5 5l-3 -2l3 21l-3 3l-6 -2l1 -20l-14 -2l5 5l-3 8l4 7l-3 2v8h-6l3 -2l-3 -2v-7l-6 2
l-4 -9l-11 4l-3 -13l9 -3l-11 -1l-5 3l-7 14h-43l-6 -3v-8l-9 -5l-12 -3l-3 15h-18v4h-43l-3 -10h-6l-3 3l5 6h-20l-5 -6v6l-8 -6l-1 -9l-2 3l-4 -4l-3 3l3 1v9l-17 -3l-3 7l-3 -4h-7l-7 -3h-9l3 3l-11 4l-6 -4l5 -6l-5 -2l-3 2v-6l-4 -1l-7 6l-6 11l-8 2l11 3l-5 5h-30
l-4 -10l8 3l9 -6h-17l5 -3l-7 -11h-4l4 7h-10l-6 3l-2 -4l-2 5h-14l4 2l24 1l7 5l-2 4l2 3l-4 2h-7l-8 -4l-4 4h-11l-1 -3l-3 2l-9 -2l-4 -5l-6 5l-3 -3l-3 3l-36 1l-14 -3l-78 -3l17 -3l43 -3l3 5h9l34 -6l36 1l8 -3h-19l-18 -3l-30 3l-3 -4l-2 3l-15 1l-7 -7h13v-4h-13
l-3 5l-4 2l-21 -1l-3 -2l1 3l-4 3l-5 -3h-15l-6 -11h-8l-3 4l-3 -4h-7l-8 4l-15 -4l-3 -3l9 -3l-7 -2l7 -5l-14 -4l3 41l5 2l-8 6l3 2l-3 3v4l3 5l3 1l-4 5l1 16l14 6l-12 1l1 9l2 -3l2 3l-10 6v14l2 3v23l3 3l1 27l-4 2l1 17l6 3l-7 3l-2 12l3 3l-1 9l3 6l-2 7l3 3v7l-2 5
l4 7l-3 1l1 4l-6 4l3 2l-3 3l2 6l1 18l3 1v15l-6 -1l3 2l2 6l6 3l-6 1l7 7l-4 4h-5v5h5l-3 4l3 4v11l2 5l-5 6v11l3 3l1 21l-4 12l5 4l3 9l-7 2l5 17l-3 -1l3 4v10l-3 3l1 13l3 1v24l-5 3l3 4zM129 178l10 -64l10 8l16 -4l39 4l12 13l5 2l5 11l7 7v182l2 43l56 -121l26 -30
l10 5l10 2l17 7l12 2l13 6l8 8l-3 7l12 2l5 6l24 82l3 -10l7 -191l-5 -7v-17l5 -11l30 -5h17l6 3l17 4l4 -4l12 11l5 10l7 1v58l2 3v70l-2 8v41l-3 17v30l-3 6l3 6l-15 148l-7 28l-19 57l-9 3l-14 -7l-44 1l-11 3h-13l-17 -43l-29 -98l-20 -54l-22 54l-36 70l-15 24l-33 32
l-11 3h-15l-19 -9l-25 -3l-10 -3l-4 -8v-29l-16 -160l-4 -117l4 -82zM645 473l4 -16l2 9l-8 21h-4v8l-6 -3v-12l7 -7l-5 -5h4zM626 155h6l1 8l-4 -1v8l4 3v8l3 3v14h-7zM643 432l3 -6v18l-3 11h-7l-4 -11l3 -3l-2 -4h8l3 -2zM635 417v-15l6 6l-2 -6h5v19l-5 2l-7 9zM635 382
v-11l8 6l1 20l-6 -6l-3 8l-2 -14h5l3 -5zM452 630l13 -2l1 7h-11l-7 -3v-8zM632 224v-18l3 1v9l8 8l-4 -2l-2 8zM625 149v-7l10 6l1 -3l3 10l-3 2l-1 -5zM552 664l3 -3h16v5zM283 67v-6h18l-4 7l-6 -6zM647 538l5 4v-9l-5 -11v16zM115 667h50l6 2zM587 652l2 -6l5 3l14 3
h-21zM405 658l8 -2v5h-11l-6 -2zM655 580h4v-5l-3 -6l-1 -14v25zM635 461l3 -1h5v9zM38 11l15 3v-5zM636 577l3 3l5 -2l-6 -7zM59 656l5 -9l1 6l5 2zM81 26l9 5l-1 -3l13 -2h-21zM314 39l3 -5v10h-5zM626 117l2 -5l1 17l-3 -7v-5zM533 664l-1 -3l18 3h-17zM649 600l3 11v-17
zM602 639l4 -6l3 8zM635 93l1 -5l3 10l-4 1v-6zM475 31l2 3l6 -3l-5 -3zM656 600l3 -12l-3 -3v15zM268 78l6 -5l3 5h-9zM324 23l8 -2l-8 -3v5zM224 70l-3 1l3 -13v12zM257 70l3 -3l8 3h-11zM569 59l-13 -3h10zM360 662l-6 -3l7 -1zM226 45h6l-3 -4zM367 18l5 -3h-8zM597 41
l3 -3l-3 -4v7zM653 501v-5l2 3v5zM597 92l-1 -4l6 4h-5zM653 441l2 -4v10zM629 92l3 1v6zM566 90l-4 -3h6zM525 59l4 -1l4 3zM635 128l1 -3h5zM62 11h5l-2 -3zM294 76l3 -3l2 3h-5zM334 670l-4 -3h5zM302 67l3 -3l2 3h-5zM69 18h4l3 -3zM663 298l3 2v-4zM142 15l-3 2l4 1z
" />
    <glyph glyph-name=".null" horiz-adv-x="0" 
 />
    <glyph glyph-name="nonmarkingreturn" horiz-adv-x="333" 
 />
    <glyph glyph-name="NULL" horiz-adv-x="0" 
 />
    <glyph glyph-name="NULL" horiz-adv-x="0" 
 />
    <glyph glyph-name="CR" unicode="&#xd;" horiz-adv-x="300" 
 />
    <glyph glyph-name="space" unicode=" " horiz-adv-x="300" 
 />
    <glyph glyph-name="exclam" unicode="!" horiz-adv-x="178" 
d="M20 183l17 471q0 8 2.5 13.5t8.5 9t10.5 5.5t15 3t14.5 1h16h13q15 0 24 -4.5t12 -14.5t4 -17.5t1 -21.5q0 -274 -28 -451q-7 -40 -41 -40q-26 0 -47.5 11t-21.5 35zM20 47q0 20 18.5 36t39.5 16q49 0 49 -47q0 -20 -15 -40.5t-35 -20.5q-24 0 -40.5 16.5t-16.5 39.5z
" />
    <glyph glyph-name="quotedbl" unicode="&#x22;" horiz-adv-x="286" 
d="M20 622q0 24 3 40t16.5 29t37.5 13q44 0 44 -72q0 -43 -16.5 -116.5t-43.5 -73.5q-30 0 -34 42zM165 626q0 24 3 40t16.5 29t37.5 13q44 0 44 -72q0 -43 -16.5 -116.5t-43.5 -73.5q-30 0 -34 42z" />
    <glyph glyph-name="numbersign" unicode="#" horiz-adv-x="580" 
d="M293 96l16 85h-112l-13 -66q-5 -24 -16 -31.5t-43 -7.5q-53 0 -53 24q1 3 15 81h-33q-12 0 -19.5 3t-10 11t-3 13.5t-0.5 17.5v7q0 12 1 18.5t5 12t13 8.5q40 2 66 2l32 155h-40q-12 0 -19.5 3t-10 11t-3 13.5t-0.5 17.5v7q0 12 1 18.5t5 12t13 8.5l74 3l16 70
q9 47 45 47q1 0 9.5 0.5t14.5 0.5t15.5 -1.5t15.5 -4t10.5 -8t4.5 -13.5q0 -19 -16 -89h108q2 12 7.5 36t6.5 28q9 47 45 47q1 0 9.5 0.5t14.5 0.5t15.5 -1.5t15.5 -4t10.5 -8t4.5 -13.5q0 -18 -15 -85l45 -3q20 -6 20 -43v-21q0 -13 -9.5 -19.5t-20 -7.5t-26 -1t-21.5 -1
h-10l-33 -152l56 -3q20 -6 20 -43v-21q0 -13 -9.5 -19.5t-20 -7.5t-26 -1t-21.5 -1h-20q-2 -10 -4 -21.5t-5 -25.5t-5 -23q-5 -24 -16 -31.5t-43 -7.5q-53 0 -53 24zM251 429l-33 -153q38 1 110 1l32 152h-109z" />
    <glyph glyph-name="dollar" unicode="$" horiz-adv-x="437" 
d="M192 -24v18h-9q-99 0 -134 78q-29 68 -29 107q0 18 30.5 30.5t61.5 12.5q8 0 12.5 -8t8 -23.5t4.5 -19.5q0 -14 17.5 -42.5t37.5 -33.5q0 13 0.5 91t0.5 149q-4 3 -31 23.5t-34 26.5t-28.5 25t-29 30.5t-19.5 30.5t-16 38.5t-4 41.5q0 69 50 112.5t114 48.5q0 6 0.5 18
t0.5 19q3 11 12 11l6 -2q7 -1 8.5 -2t6.5 -4.5t7 -8t4 -13t2 -19.5q132 -14 174 -138q1 -2 1 -7t-3.5 -8.5t-12 -8t-11.5 -6.5q-2 -2 -17 -14t-27.5 -20t-20.5 -8q-7 0 -9 7q-20 57 -75 63v-118q83 -64 136 -138q37 -51 37 -133q0 -101 -96 -161q-30 -19 -79 -24
q-2 -46 -9 -46h-25q-12 0 -13 25zM295 185q0 58 -55 111l-1 -196q56 20 56 85zM163 529q0 -19 31 -42v81q-31 -11 -31 -39z" />
    <glyph glyph-name="percent" unicode="%" horiz-adv-x="460" 
d="M114 43q3 10 14 55t48.5 185.5t95.5 350.5q14 57 42 57l6 1h10.5t11 -1.5t10.5 -5t6 -10t1 -15.5q-1 -12 -4.5 -25.5t-14.5 -54.5t-26 -93t-47 -170t-70 -257q-8 -28 -17.5 -37t-32.5 -9q-7 0 -12 1t-11 3.5t-8.5 8.5t-1.5 16zM20 588q0 37 26.5 70t62.5 33
q35 0 60.5 -24t25.5 -59q0 -45 -22 -73t-64 -28q-35 0 -62 21t-27 60zM112 632q-13 0 -19.5 -13t-0.5 -25.5t25 -12.5q9 0 13.5 3.5t5.5 8t1 12.5q0 10 -7 18.5t-18 8.5zM265 94q0 37 26.5 70t62.5 33q35 0 60.5 -24t25.5 -59q0 -45 -22 -73t-64 -28q-35 0 -62 21t-27 60z
M357 138q-13 0 -19.5 -13t-0.5 -25.5t25 -12.5q9 0 13.5 3.5t5.5 8t1 12.5q0 10 -7 18.5t-18 8.5z" />
    <glyph glyph-name="ampersand" unicode="&#x26;" horiz-adv-x="580" 
d="M560 40q-7 -21 -18 -33t-24.5 -13.5t-25.5 0.5t-28.5 12.5t-26.5 17.5t-25 19l-19 17q-48 -35 -103.5 -53t-116.5 -8.5t-104 54.5q-61 82 -46 177.5t93 160.5q-30 44 -33 102t17.5 106.5t68 76t110.5 13.5q45 -11 72 -44.5t30 -76t-8 -84.5t-39.5 -75t-65.5 -43
q56 -78 119 -146q6 11 14.5 26t10 17.5t7.5 11.5t10.5 15t16.5 21q19 16 39.5 12.5t32 -19.5t16.5 -34.5t-6 -31.5q-27 -60 -59 -101q8 -15 32 -29.5t41.5 -30t17.5 -37.5zM239 104q34 5 75 34q-19 22 -120 146l-12 14q-24 -16 -35.5 -53.5t-7.5 -73.5t30 -57.5t70 -9.5z
M258 577q-40 9 -58 -25.5t14 -95.5q5 5 15 14t16 15l14.5 14.5t13 14.5t9 14t4.5 14t-2 12.5t-8.5 12t-17.5 10.5z" />
    <glyph glyph-name="quotesingle" unicode="'" horiz-adv-x="141" 
d="M20 622q0 24 3 40t16.5 29t37.5 13q44 0 44 -72q0 -43 -16.5 -116.5t-43.5 -73.5q-30 0 -34 42z" />
    <glyph glyph-name="parenleft" unicode="(" horiz-adv-x="280" 
d="M20 330q0 95 36 197t107 142q18 11 35 11q31 0 31 -22q0 -21 -26 -47t-31 -36q-19 -46 -25 -101q-3 -46 -3 -48q0 -55 2.5 -92.5t10.5 -88.5t28 -93t51 -73q2 -2 13 -19.5t11 -19.5q0 -30 -37 -30q-34 0 -67.5 22t-54.5 46q-81 105 -81 252z" />
    <glyph glyph-name="parenright" unicode=")" horiz-adv-x="280" 
d="M260 330q0 -147 -81 -252q-21 -24 -54.5 -46t-67.5 -22q-37 0 -37 30q0 2 11 19.5t13 19.5q31 31 51 73t28 93t10.5 88.5t2.5 92.5q0 2 -3 48q-6 55 -25 101q-5 10 -31 36t-26 47q0 22 31 22q17 0 35 -11q71 -40 107 -142t36 -197z" />
    <glyph glyph-name="asterisk" unicode="*" horiz-adv-x="341" 
d="M141 243q-2 0 -16.5 -23t-31.5 -23q-21 0 -35.5 9.5t-14.5 29.5q0 12 4.5 23t8.5 16.5t16 18.5t15 17q2 2 -4 5t-16.5 6.5t-21 8t-18 12t-7.5 16.5q0 59 31 59q27 0 59 -22q7 0 7 9v2l-9 58q-1 23 14.5 33.5t39.5 10.5q19 0 27 -24t10.5 -48t8.5 -24q4 0 26 22t36 22
q11 0 24.5 -12.5t13.5 -23.5q0 -21 -24 -45t-24 -28q0 -6 15 -11.5t30.5 -15t15.5 -23.5t-12 -35t-27 -21q-11 0 -28 11.5t-26 11.5q-4 0 -4 -5q0 -11 3 -29.5t3 -28.5q0 -22 -12.5 -28.5t-38.5 -6.5q-16 0 -23.5 11t-7.5 24.5t-1 26t-6 14.5z" />
    <glyph glyph-name="plus" unicode="+" horiz-adv-x="451" 
d="M158 265v35l-102 1q-36 0 -36 56q0 41 23 51t114 8l-1 120q0 16 9.5 24.5t19 10t26.5 2.5q43 0 51.5 -24.5t8.5 -135.5h114q46 3 46 -44t-17 -58t-87 -11h-56q0 -57 1 -91q4 -46 -43 -47t-58 16t-13 87z" />
    <glyph glyph-name="comma" unicode="," horiz-adv-x="172" 
d="M37 -25q0 5 19 18t19 23q0 1 -13.5 6t-27.5 17t-14 28q0 18 18 42.5t39 24.5q31 0 53 -19t22 -50q0 -20 -17 -46t-57 -48q-6 -3 -21 -3q-20 0 -20 7z" />
    <glyph glyph-name="hyphen" unicode="-" horiz-adv-x="413" 
d="M299 292l-247 1q-32 0 -32 59q0 47 24 55.5t135 5.5q101 -2 172 -2q22 2 32 -9t10 -37q0 -50 -15.5 -61.5t-78.5 -11.5z" />
    <glyph glyph-name="period" unicode="." horiz-adv-x="145" 
d="M20 52q0 23 16 44.5t39 21.5q20 0 35 -19t15 -39q0 -23 -14 -41.5t-36 -18.5q-24 0 -39.5 14t-15.5 38z" />
    <glyph glyph-name="slash" unicode="/" horiz-adv-x="309" 
d="M20 43q0 1 10 53t39 187.5t77 346.5q11 57 57 57q1 0 11.5 0.5t18 0.5t19 -1.5t19 -5t13 -10t5.5 -15.5q0 -12 -2.5 -25.5t-11.5 -54t-21 -92.5t-38.5 -168.5t-56.5 -255.5q-6 -28 -20 -37t-53 -9q-66 0 -66 29z" />
    <glyph glyph-name="zero" unicode="0" horiz-adv-x="455" 
d="M26 288q-2 40 -5 91.5t8 107t29.5 102.5t58.5 77t95 30h4q88 0 144.5 -75.5t67.5 -174.5q9 -102 3.5 -169t-27.5 -148q-17 -62 -55 -88t-105 -26q-48 0 -84.5 15.5t-59 39.5t-38.5 61.5t-23.5 73.5t-12.5 83zM141 299q3 -34 7.5 -56t15.5 -48t32.5 -39.5t52.5 -13.5
q19 0 33 17.5t21 43.5t11 48.5t4 40.5q0 237 -62 275q-10 6 -36 6q-35 0 -55.5 -32t-25 -81.5t-3.5 -87.5t5 -73z" />
    <glyph glyph-name="one" unicode="1" horiz-adv-x="319" 
d="M163 60q6 306 6 369q0 54 -4 54q-3 0 -25 -25q-3 -3 -9 -13.5t-12.5 -16.5t-14.5 -6q-15 0 -49.5 28t-34.5 58q0 8 3 11l89 120q14 19 43 36.5t51 17.5q46 0 62.5 -18.5t22.5 -66.5q8 -147 8 -444q0 -96 -17.5 -125t-82.5 -29q-19 0 -27.5 15t-8.5 35z" />
    <glyph glyph-name="two" unicode="2" horiz-adv-x="385" 
d="M96 1q-19 3 -30.5 9t-16 19t-5.5 24t-1 34q0 95 53 171q10 13 41 50.5t46 58.5t30 57.5t15 71.5q0 44 -27 44q-25 0 -38 -21l-29 -46q-10 -17 -39 -17h-7l-51 14q-17 3 -17 31q0 50 36 104q22 33 61 58.5t76 25.5q75 0 123.5 -53t48.5 -129q0 -86 -75 -186
q-5 -7 -23.5 -31t-26.5 -36t-20 -32.5t-17 -39.5t-5 -39v-7l1 -5q3 -14 76 -14q8 0 24.5 1t25.5 1q17 0 27 -12.5t10 -31.5q0 -28 -6 -45t-19.5 -23.5t-23 -8t-27.5 -1.5q-35 0 -100 2t-90 2z" />
    <glyph glyph-name="three" unicode="3" horiz-adv-x="407" 
d="M43 101q0 25 25.5 60t47.5 35q16 0 37.5 -31t45.5 -31q26 0 38.5 19.5t12.5 46.5q0 47 -22 73q-11 13 -37 24.5t-44 22.5t-18 28q0 55 15 80q4 6 18.5 10t15.5 5q18 6 28 11t19 16.5t9 27.5q0 46 -43 46q-23 0 -49 -33.5t-47 -33.5q-30 0 -75 50q0 24 30 54
q25 33 39 47.5t43 27.5t75 19q63 -1 118.5 -47t55.5 -115q0 -52 -50 -102q-2 -2 -11.5 -8t-16 -12t-6.5 -10t4 -7t9 -6l5 -3q33 -27 52.5 -70t19.5 -87q0 -57 -31 -106.5t-82 -71.5q-24 -12 -32 -12h-80q-12 0 -37.5 7t-53.5 27.5t-28 48.5z" />
    <glyph glyph-name="four" unicode="4" horiz-adv-x="472" 
d="M238 35q0 29 1.5 86t1.5 85l-1 9v20v18q0 3 -9 4.5t-28 2t-34.5 0.5h-43.5h-40q-3 1 -13.5 4t-18.5 5.5t-17 7.5t-13 12t-2 15q7 75 57 267q0 23 17.5 68.5t44.5 45.5h6q19 0 28.5 -0.5t26 -3.5t24.5 -11t8 -21t-7.5 -35.5t-8.5 -29.5q-4 -23 -18 -85.5t-20 -97.5
q0 -1 -0.5 -3l-0.5 -2q0 -11 6 -11h39q14 0 18 12q0 1 0.5 3.5t0.5 3.5q4 26 6.5 36.5t10.5 21t22 13.5t39 3q13 0 36 -7.5t23 -18.5v-60q0 -2 2.5 -4.5t4.5 -2.5h48q6 0 10 -5t5.5 -16t2 -18t0 -21.5t-0.5 -16.5v-4q0 -41 -21 -44q-4 -1 -12.5 -2t-14.5 -1.5t-12.5 -2.5
t-10 -4.5t-3.5 -5.5q0 -7 1 -12v-189q0 -6 -2.5 -11t-7.5 -8t-10.5 -5t-15 -3t-17 -1.5t-20 -1t-20.5 -1.5q-9 -2 -27 5t-20 18z" />
    <glyph glyph-name="five" unicode="5" horiz-adv-x="392" 
d="M47 115q0 21 33.5 54.5t45.5 33.5q2 0 8 -5.5t13.5 -12.5t10.5 -10q2 -2 9.5 -14t14.5 -17.5t15 -5.5q44 0 44 138q4 32 -21 52t-51.5 25.5t-52.5 5.5q-12 2 -33.5 2.5t-32.5 1.5t-20.5 9.5t-9.5 26.5l34 271q1 11 9 17t22.5 8t26 2.5t29.5 -0.5t24 -1h22.5h28t27 -0.5
t29 -2t24.5 -4.5t23 -7t14 -10v-12q0 -30 -1.5 -42t-11.5 -26.5t-32.5 -18.5t-62.5 -4h-6q-4 0 -12.5 0.5t-13.5 0.5q-30 0 -31 -22q-5 -39 -5 -64q0 -35 6 -35h90q58 0 89.5 -44t28.5 -105q-4 -41 -9.5 -71.5t-19.5 -70.5t-33 -65.5t-52 -44t-76 -18.5q-37 0 -63 16t-61 51
q-10 10 -10 18z" />
    <glyph glyph-name="six" unicode="6" horiz-adv-x="454" 
d="M20 288q0 33 4.5 78.5t17 105.5t32.5 109t54.5 83.5t78.5 34.5q27 0 61 -6.5t65 -24.5t31 -43q0 -17 -25.5 -52t-33.5 -35t-23 8t-28 16t-31 7t-34 -16q-42 -46 -42 -140v-6v-6.5v-6t0.5 -5.5t1.5 -4t3 -2.5t5 -0.5q106 92 171 68q56 -21 81 -64t25 -118
q0 -47 -12.5 -90.5t-37 -81t-67.5 -59.5t-99 -22q-65 0 -111 35.5t-68 102.5q-19 55 -19 135zM161 237q15 -100 77 -100q24 0 40 16q27 25 34.5 46.5t7.5 62.5q0 27 -15 50t-41 23q-42 0 -73 -28t-30 -70z" />
    <glyph glyph-name="seven" unicode="7" horiz-adv-x="429" 
d="M39 23q0 9 6 25q13 40 110 238.5t109 256.5q2 10 -4 13.5t-26 3.5q-30 0 -88.5 -4t-87.5 -4q-38 0 -38 67q0 45 21 60t59 15h134q77 0 138 -4q37 -2 37 -131l-1 -18l-5 -18q-44 -99 -60.5 -137t-31.5 -73.5t-41 -95.5q-6 -13 -18.5 -44.5t-20.5 -47.5q-2 -4 -8 -23
t-11.5 -32.5t-14 -30.5t-20.5 -27t-26 -11q-30 -3 -53 -3q-59 0 -59 25z" />
    <glyph glyph-name="eight" unicode="8" horiz-adv-x="524" 
d="M20 209q0 60 31 127.5t70 84.5q0 1 -1 3q-42 52 -42 110q0 57 41.5 101t99.5 52q63 9 114.5 -1t87.5 -48t36 -101q0 -21 -15 -57t-15 -37q36 -15 56.5 -61.5t20.5 -95.5q0 -123 -68.5 -210t-189.5 -87q-114 0 -170 54t-56 166zM275 372q-49 0 -82.5 -33t-37.5 -81
t25 -102q28 -51 110 -51q87 0 87 132q0 52 -26.5 93t-75.5 42zM214 518q0 -3 2 -5q30 -37 70 -37q25 0 42 12.5t17 36.5q0 28 -22 45.5t-52 17.5q-26 0 -42 -17t-16 -43l1 -5v-5z" />
    <glyph glyph-name="nine" unicode="9" horiz-adv-x="454" 
d="M434 426q0 -33 -4.5 -78.5t-17 -105.5t-32.5 -109t-54.5 -83.5t-78.5 -34.5q-27 0 -61 6.5t-65 24.5t-31 43q0 17 25.5 52t33.5 35t23 -8t28 -16t31 -7t34 16q42 46 42 140v6v6.5v6t-0.5 5.5t-1.5 4t-3 2.5t-5 0.5q-106 -92 -171 -68q-56 21 -81 64t-25 118
q0 47 12.5 90.5t37 81t67.5 59.5t99 22q65 0 111 -35.5t68 -102.5q19 -55 19 -135zM293 477q-15 100 -77 100q-24 0 -40 -16q-27 -25 -34.5 -46.5t-7.5 -62.5q0 -27 15 -50t41 -23q42 0 73 28t30 70z" />
    <glyph glyph-name="colon" unicode=":" horiz-adv-x="145" 
d="M20 500q0 23 16 44.5t39 21.5q20 0 35 -19t15 -39q0 -23 -14 -41.5t-36 -18.5q-24 0 -39.5 14t-15.5 38zM20 52q0 23 16 44.5t39 21.5q20 0 35 -19t15 -39q0 -23 -14 -41.5t-36 -18.5q-24 0 -39.5 14t-15.5 38z" />
    <glyph glyph-name="semicolon" unicode=";" horiz-adv-x="172" 
d="M20 500q0 23 16 44.5t39 21.5q20 0 35 -19t15 -39q0 -23 -14 -41.5t-36 -18.5q-24 0 -39.5 14t-15.5 38zM37 -25q0 5 19 18t19 23q0 1 -13.5 6t-27.5 17t-14 28q0 18 18 42.5t39 24.5q31 0 53 -19t22 -50q0 -20 -17 -46t-57 -48q-6 -3 -21 -3q-20 0 -20 7z" />
    <glyph glyph-name="less" unicode="&#x3c;" horiz-adv-x="525" 
d="M78 423l337 86q6 2 19.5 6t24 6t20.5 2q27 -1 25 -28l-1 -58q-1 -23 -79 -34l-281 -47l-4 -4q0 -1 5 -6l278 -81q45 -6 57.5 -18.5t10.5 -42.5q0 -3 0.5 -9.5t0.5 -10.5q-1 -9 -2 -14t-4.5 -9.5t-10.5 -4.5q-133 40 -267 84t-146 54l-5 3q-36 23 -35 48q0 48 24 63
q6 4 17.5 8.5t15.5 6.5z" />
    <glyph glyph-name="equal" unicode="=" horiz-adv-x="493" 
d="M386 205h-335q-30 0 -30 51q0 12 4.5 21t15.5 15t24.5 9.5t36 5.5t45 3t57 0.5t65.5 -1t77.5 -1t87.5 -0.5q21 1 30 -8.5t9 -31.5q0 -43 -14.5 -53t-72.5 -10zM385 371h-335q-30 0 -30 51q0 12 4.5 21t15.5 15t24.5 9.5t36 5.5t45 3t57 0.5t65.5 -1t77.5 -1t87.5 -0.5
q21 1 30 -8.5t9 -31.5q0 -43 -14.5 -53t-72.5 -10z" />
    <glyph glyph-name="greater" unicode="&#x3e;" horiz-adv-x="525" 
d="M110 509l337 -86q4 -2 15.5 -6.5t17.5 -8.5q24 -15 24 -63q1 -25 -35 -48l-5 -3q-12 -10 -146 -54t-267 -84q-7 0 -10.5 4.5t-4.5 9.5t-2 14q0 4 0.5 10.5t0.5 9.5q-2 30 10.5 42.5t57.5 18.5l278 81q5 5 5 6q-3 4 -4 4l-281 47q-78 11 -79 34l-1 58q-2 27 25 28
q10 0 20.5 -2t24 -6t19.5 -6z" />
    <glyph glyph-name="question" unicode="?" horiz-adv-x="376" 
d="M116 216q0 89 21 154q9 27 36.5 59t49.5 63t22 65q0 25 -15.5 32.5t-45.5 7.5q-19 -5 -42.5 -48t-39.5 -43q-11 0 -31.5 7t-35.5 14.5t-15 9.5q0 39 26 83q45 79 155 79q70 0 112.5 -35t42.5 -106q0 -39 -19 -77t-42.5 -64t-44 -62.5t-22.5 -71.5q0 -67 -4 -80t-26 -13
q-74 0 -82 26zM122 56l2 8q11 28 22 38t38 10q26 0 40.5 -15t14.5 -41q0 -24 -15.5 -39.5t-38.5 -15.5q-24 0 -43.5 16t-19.5 39z" />
    <glyph glyph-name="at" unicode="@" horiz-adv-x="669" 
d="M206 287q0 64 79 99q28 15 45 19l6 7v5q0 34 -21 34q-6 0 -23.5 -9.5t-27.5 -9.5q-16 0 -31.5 20.5t-15.5 30.5v9q10 20 54.5 38.5t71.5 18.5q26 0 45.5 -9.5t31 -27.5t19 -36.5t10.5 -45.5t4 -45.5t1 -44.5q0 -25 18 -58q68 -77 93 5q13 44 9 103q-8 100 -64.5 173.5
t-158.5 73.5q-67 0 -115 -25t-73.5 -69.5t-36 -98t-7.5 -116.5q8 -102 75.5 -172t152.5 -70q62 0 106 26q26 -24 87 -33q-75 -70 -172 -77q-82 0 -148.5 30.5t-107 79.5t-63.5 104.5t-27 112.5q-11 154 78 262.5t246 108.5q105 0 176.5 -55t101.5 -142.5t24 -197.5
q-10 -67 -45 -101t-77 -33t-84.5 21.5t-71.5 55.5q-44 -27 -83 -27q-32 0 -56.5 17.5t-24.5 48.5zM307 311q0 -6 12 -8t24 3t12 14q0 20 -13 20t-24 -8.5t-11 -20.5z" />
    <glyph glyph-name="A" unicode="A" horiz-adv-x="606" 
d="M20 27v6l34 161q4 10 6.5 20.5t4 22.5t3.5 20q6 27 13.5 71.5t16.5 80.5q9 46 34 140.5t34 144.5q6 32 25.5 42.5t59.5 13.5l56 4q7 0 76 -8q2 0 20 -2t20 -2q16 -2 28.5 -29t12.5 -45l118 -603q0 -4 2 -14.5t2 -16.5q0 -16 -35 -16q-8 0 -24.5 1.5t-23.5 1.5t-19 -1.5
t-18 -1.5q-29 0 -41 12t-17 43l-27 151q-2 10 -21 10q-27 -1 -129 -10q-15 -1 -20.5 -53t-15.5 -104t-36 -54h-10q-17 0 -50 -1.5t-51 -1.5q-28 0 -28 17zM245 364q0 -11 1 -11l3 -1q7 -1 10 -1q96 0 104 12v16q0 13 -2 20l-18 179q-2 16 -31 16q-7 0 -37 -2q-10 -4 -15 -33
t-6.5 -82t-2.5 -60q0 -8 -3 -25.5t-3 -27.5z" />
    <glyph glyph-name="B" unicode="B" horiz-adv-x="463" 
d="M76 -1q-10 1 -17.5 14.5t-8.5 25.5l-25 476q0 19 -2.5 58t-2.5 59q0 39 14 82q12 26 83 26q22 0 123 -12q3 -1 12 -2.5l12 -2t10.5 -2t11 -2.5t10 -3t10.5 -4.5t9 -5.5l10 -6q43 -32 66.5 -88.5t23.5 -114.5q0 -75 -38 -126q-3 -5 -24 -21.5t-39.5 -31.5t-18.5 -16
q0 -3 9.5 -7t26 -9t20.5 -6q38 -15 65 -61t27 -90q0 -46 -12 -75t-39 -42t-53.5 -17t-70.5 -4h-60q-91 0 -132 8zM177 387q7 -8 20 -8q42 0 61.5 31t19.5 76q0 51 -25.5 82t-67.5 31q-14 0 -14 -31q0 -4 0.5 -10.5t0.5 -8.5q0 -13 2.5 -81.5t2.5 -80.5zM203 94q32 -2 38 -2
q41 0 48 26q0 43 -19.5 69.5t-60.5 26.5q-16 0 -16 -26v-35q0 -58 10 -59z" />
    <glyph glyph-name="C" unicode="C" horiz-adv-x="533" 
d="M20 371q0 54 26 158q0 1 2 6t2 6l36 75q22 46 80.5 80t110.5 34q74 0 110 -30q66 -50 105 -127q2 -4 2 -7q0 -36 -37.5 -53.5t-80.5 -17.5q-16 0 -26.5 10.5t-16 22.5t-18 22.5t-31.5 10.5q-30 0 -49.5 -16.5t-28 -47.5t-11 -58.5t-2.5 -64.5q0 -57 4 -85q1 -3 6.5 -32
t11 -48t20 -37.5t33.5 -18.5q32 0 47.5 18t31.5 57l4 10q1 1 3 6t3 6.5t3 5t4.5 5t6 2.5t7.5 1q12 0 37 -7t34 -8q2 0 13 -1t17.5 -2t15.5 -3.5t13.5 -8t4.5 -13.5q0 -13 -9 -33q-60 -186 -225 -186q-62 0 -109.5 24.5t-75 61.5t-45 88t-23.5 98t-6 97z" />
    <glyph glyph-name="D" unicode="D" horiz-adv-x="480" 
d="M24 222q-4 117 -4 321v13q0 88 8 132q5 25 24 32.5t49 7.5q118 0 186.5 -32t110.5 -117t62 -243q0 -84 -28 -164q-14 -41 -83 -101l-10 -8q-69 -46 -218 -46h-55q-34 8 -36 76v5q-4 40 -4 104q0 2 -1 10t-1 10zM175 162q1 -9 10 -12q37 0 64 11.5t41 28t22 43.5t9.5 49
t1.5 54v32q0 61 -39.5 134.5t-90.5 73.5q-18 0 -23 -10t-5 -30v-41q0 -180 10 -333z" />
    <glyph glyph-name="E" unicode="E" horiz-adv-x="406" 
d="M70 25q-10 5 -19.5 34.5t-9.5 37.5l-20 420q0 2 -0.5 8t-0.5 10q0 8 0.5 22t0.5 18q1 5 2 32.5t3.5 48t12.5 45t28 35.5l8 4q14 0 43.5 -5.5t45.5 -5.5q18 0 43 3.5t50 3.5q8 0 19.5 -0.5t14.5 -0.5q11 0 17 3q41 0 59.5 -18.5t18.5 -59.5t-11 -63t-45 -22q-12 0 -35 0.5
t-34 0.5q-7 0 -34.5 -1.5t-42.5 -1.5q-8 -2 -8 -21v-6q0 -6 1 -36t1 -49q4 -11 42 -11q8 0 22 0.5t20 0.5q12 0 20 -10t8 -22v-75q0 -11 -10.5 -21.5t-21.5 -10.5h-68q-1 0 -4.5 -3t-3.5 -4v-123q0 -4 8 -8q1 0 10.5 0.5t16.5 0.5q37 0 132 -11q34 -9 34 -77
q0 -53 -25 -69.5t-75 -16.5q-143 0 -213 24z" />
    <glyph glyph-name="F" unicode="F" horiz-adv-x="372" 
d="M20 650q0 57 16.5 74.5t56.5 17.5q10 0 15 -2h124q8 -4 37.5 -3.5t51.5 -6.5t24 -30q7 -58 7 -68q0 -54 -20 -56l-74 -9h-6q-10 0 -29.5 2t-28.5 2l-6 -1l-4 -3q0 -1 -0.5 -11t-0.5 -13q0 -5 1 -21v-15q1 -2 4 -27.5t10 -30.5h76q20 0 30.5 -11t12 -23t1.5 -34v-5
q0 -22 -1 -32t-5.5 -21t-15.5 -15.5t-30 -5.5q-8 -2 -29 -1.5t-33 -2.5t-12 -13q0 -29 4 -49q4 -65 4 -178q0 -26 -24 -37t-53 -11q-80 0 -82 47z" />
    <glyph glyph-name="G" unicode="G" horiz-adv-x="537" 
d="M20 354q0 116 38 191q53 106 160.5 151.5t218.5 -7.5q23 -12 46.5 -51t23.5 -51q0 -11 -6 -22t-16 -19t-21.5 -14.5t-23 -11.5t-21.5 -8t-16 -5l-6 -2q-10 0 -16 7.5t-10 20t-7 16.5q-26 34 -65 31t-76.5 -28.5t-48.5 -53.5q-17 -46 -17 -111q0 -41 7.5 -83t23 -82
t43.5 -65t64 -25q86 0 86 129q0 28 -13 32q-50 0 -60 10t-10 50v23q0 35 20 41q34 10 96 10q36 0 57.5 -9t31 -30.5t12 -42t2.5 -58.5q0 -129 -60.5 -207.5t-186.5 -78.5q-57 0 -104 32.5t-76.5 85.5t-47 113t-22.5 122z" />
    <glyph glyph-name="H" unicode="H" horiz-adv-x="497" 
d="M27 83q-7 200 -7 405v83q0 78 11 96t60 18h59q27 -8 27 -54q0 -36 -1.5 -102t-1.5 -105q0 -49 11 -49h28.5t33.5 0.5t29 2.5t23.5 6.5t9.5 11.5q0 8 0.5 51.5t0.5 50.5q0 16 -0.5 67t-0.5 77q0 17 3 26q5 10 34.5 15.5t49.5 5.5q35 0 52.5 -13.5t18.5 -45.5q1 -29 4 -176
v-24q0 -20 2 -32q4 -86 4 -225v-130q-5 -21 -10.5 -27.5t-25.5 -13.5q-10 0 -42.5 2t-53.5 2q-36 9 -36 91q0 11 0.5 32.5t0.5 30.5v66q0 18 -11 22t-51 4h-11q-64 0 -64 -32q0 -24 1.5 -72.5t1.5 -74.5q0 -59 -20 -71q-60 -13 -75 -13q-53 0 -53 55q0 4 0.5 10.5t0.5 9.5
q0 9 -2 19z" />
    <glyph glyph-name="I" unicode="I" horiz-adv-x="208" 
d="M20 432q0 30 1 91t1 91v23q4 37 20 46t79 14q29 0 39 -9.5t13 -37.5q4 -74 5.5 -222.5t6.5 -233.5q0 -30 1.5 -80t1.5 -76q0 -36 -20 -39q-37 -7 -58 -7h-15q-55 0 -56 30l-18 357l-1 11v23v19z" />
    <glyph glyph-name="J" unicode="J" horiz-adv-x="433" 
d="M20 194v13q0 41 22 46q17 4 49 10t44 9q23 0 32 -17t8.5 -37.5t9 -37.5t33.5 -17q21 0 31.5 38t10.5 87l-12 322q-2 8 -2 25v41q1 9 6 14t13.5 7.5t15.5 3t17.5 1t14.5 0.5t14.5 2t17.5 2q48 0 52 -21l8 -37q8 -177 8 -209q-1 -51 -2.5 -79.5t-6.5 -81t-14 -84t-26.5 -72
t-41 -63.5t-60.5 -39t-83 -16q-19 0 -49 13q-79 29 -110 177z" />
    <glyph glyph-name="K" unicode="K" horiz-adv-x="544" 
d="M381 -5q-7 0 -20 -2t-20 -2q-19 0 -55 59q-20 40 -50 87t-41 47q-3 0 -3 -2q0 -18 1.5 -53t1.5 -53v-6q0 -17 -0.5 -25t-3 -20t-8 -18t-16.5 -10.5t-27 -4.5q-5 0 -14.5 0.5t-13.5 0.5h-19q-58 0 -58 38q0 111 -9 275q-6 113 -6 314q0 88 44 88h82q12 0 19 -8t9 -16.5
t3 -23.5q0 -45 -3 -130t-3 -128q0 -8 5 -8q4 0 7 6q10 21 23.5 42t23 34t10.5 15q18 33 56 92t53 85q16 22 39 27.5t69 5.5q67 0 67 -25q-1 -16 -24 -54l-120 -191q-4 -11 -45 -71.5t-43 -67.5q0 -5 4 -11t10 -11.5t7 -7.5q26 -35 74 -111l85 -106q11 -14 11 -34
q0 -11 -14 -16.5t-27 -5.5q-11 0 -31 3t-30 3z" />
    <glyph glyph-name="L" unicode="L" horiz-adv-x="337" 
d="M21 43q-1 29 -1 194q0 200 6 392v16q1 27 7.5 38.5t28.5 14.5q6 0 38 1t37 1q16 0 24.5 -9.5t9.5 -19t1 -26.5q0 -11 -3 -34t-3 -35q-6 -309 -6 -310v-7q0 -15 4 -63.5t4 -55.5q0 -15 27 -15q11 0 31 1.5t31 1.5q42 0 51 -15t9 -70q0 -41 -42 -50h-26q-25 0 -75 -1
t-76 -1q-52 0 -64 9t-13 43z" />
    <glyph glyph-name="M" unicode="M" horiz-adv-x="621" 
d="M38 12q-18 4 -18 17q0 17 2 51t2 52q0 73 3 223.5t3 230.5v53l6 35q8 40 84 40q49 0 68 -10t37 -50q5 -12 15 -39t16 -42q52 -123 56 -123q3 0 5 6q54 130 82 229q6 27 70 27h24q4 0 15 -1.5t20 -1.5q6 -1 16 -2.5t13.5 -2t10.5 -2t9.5 -3t7 -4.5t6 -7t4 -9.5t4 -12.5
t2.5 -17q0 -261 -5 -616q-3 -13 -14 -17h-44q-39 0 -56.5 7.5t-17.5 33.5q0 47 3 134.5t3 105.5q0 10 -0.5 28.5t-0.5 27.5q0 22 2.5 65t2.5 66v12q0 13 -2 13q-3 0 -13 -26t-21 -58.5t-14 -38.5q-2 -4 -12.5 -37t-21.5 -49t-27 -16q-4 0 -13.5 1t-14.5 1q-7 0 -20.5 -2
t-20.5 -2q-11 0 -23 7.5t-17 17.5l-105 195l7 -400q0 -49 -9 -72t-33 -23h-19q-23 0 -57 5z" />
    <glyph glyph-name="N" unicode="N" horiz-adv-x="583" 
d="M357 61q-34 66 -65 127.5t-45 90t-26 52t-17.5 31.5t-11.5 11q-1 -5 -1 -6v-4q0 -12 3.5 -32t3.5 -28q14 -202 14 -230q0 -51 -8.5 -62t-56.5 -16q-59 0 -82.5 13.5t-44.5 53.5v555q0 37 13 71t40 34h78q18 0 45 -54q2 -2 2 -3q50 -101 165 -307q3 -6 10 -24t13 -30
t11 -12q4 0 4 8q0 54 -2.5 144t-2.5 146q0 121 39 127q20 3 68 3q35 0 47.5 -19t12.5 -55q0 -44 -3.5 -113t-3.5 -74q-10 -185 -10 -344q0 -13 0.5 -36.5t0.5 -35.5q-4 -39 -25 -45q-44 -6 -63 -6q-55 0 -72 21q-7 8 -16 25t-14 23z" />
    <glyph glyph-name="O" unicode="O" horiz-adv-x="517" 
d="M20 326v23q0 23 7 100q0 5 2 32.5t3 36.5l3.5 31.5t6 35.5t9 30.5t12.5 32.5q0 2 4 6q67 73 125 77h54l16 4l4 1h10.5h8.5q132 0 190 -75q22 -38 22 -120q0 -42 -1 -62l-11 -239q-8 -146 -74 -208q-88 -37 -170 -37q-47 0 -99 12t-75 40q0 1 -4 5q-7 12 -11.5 22t-8 20
t-5.5 15.5t-3.5 16t-2 14.5t-1.5 17.5t-2 19.5q-9 75 -9 149zM156 331v-53q0 -51 11 -84q8 -24 30 -36.5t40.5 -14.5t47.5 -2q37 0 58.5 21.5t21.5 79.5v38q0 38 1 113t1 114q0 1 -2 25t-4 36q-3 21 -24.5 31t-45.5 10q-21 0 -83 -16q-44 -17 -47 -108q-5 -102 -5 -154z" />
    <glyph glyph-name="P" unicode="P" horiz-adv-x="465" 
d="M22 487q-2 33 -2 89q0 62 7 95.5t32 43.5q47 9 80 9q81 0 117 -4q18 -2 33.5 -6t35.5 -12.5t21 -8.5l50 -48l14 -23q35 -50 35 -126q0 -75 -32.5 -119.5t-94.5 -78.5q-23 -13 -28 -13l-86 -19h-1q-1 -1 -2 -1q-6 -1 -8.5 -2.5t-4 -5.5t-1.5 -12q0 -19 1 -57.5t1 -64.5
q-3 -9 -2 -38.5t-6 -50.5t-29 -27q-11 0 -38.5 -2.5t-43.5 -2.5q-13 0 -22 5.5t-13 18t-5.5 20.5t-2.5 25.5t-1 21.5q-6 79 -6 173q0 33 1 106.5t1 114.5zM234 594h-9q-35 0 -43.5 -6t-8.5 -38v-127q0 -10 4.5 -14.5t10 -5.5t18.5 -1q61 0 79.5 25t18.5 76q0 47 -13 69
t-57 22z" />
    <glyph glyph-name="Q" unicode="Q" horiz-adv-x="567" 
d="M311 7q-13 0 -38 -7.5t-39 -7.5q-53 0 -93.5 27t-63.5 72t-35.5 90t-17.5 95q0 1 -1.5 12t-2.5 12q0 43 1 75.5t7 80.5t15.5 82.5t29 73t46 63t67.5 40.5t93 16h17q118 0 159 -45l10 -12q82 -127 82 -255q0 -80 -17 -165t-47 -141q-2 -4 -17 -20t-15 -27t8 -30t8 -29
q0 -17 -37.5 -37t-67.5 -20q-12 0 -19.5 9t-9.5 19.5t-7.5 19.5t-14.5 9zM152 374q0 -48 2 -77.5t16 -70t41 -63.5t47 -23q10 0 10 6q0 2 -15.5 41.5t-15.5 42.5q0 15 36.5 32.5t51.5 17.5h5q13 0 24 -16l22 -42q2 -5 7 -5q2 0 7 7q39 84 39 192q0 69 -12 105.5t-57 76.5
l-3 2q-26 14 -37 14h-41q-6 -3 -21.5 -6.5t-21.5 -7.5q-28 -17 -46 -43t-25.5 -59t-10 -59.5t-2.5 -64.5z" />
    <glyph glyph-name="R" unicode="R" horiz-adv-x="487" 
d="M29 49q-1 16 -3 49t-4 59.5t-2 32.5v390q1 6 1 24v39q0 67 15 77q26 19 198 19q35 0 70 -4q56 -9 94 -47t47 -89t-0.5 -103.5t-48.5 -94.5t-96 -57q-2 0 -2 -3v-6q26 -39 68.5 -116t50.5 -90q5 -9 17 -26t17.5 -26t10.5 -22t5 -23q0 -9 -5 -14.5t-16 -8t-22.5 -3
t-30.5 -0.5q-3 0 -11.5 -0.5t-13.5 -0.5q-38 0 -49 17l-27 43l-93 189q-4 6 -9 18.5t-11 21.5t-14 14q0 -39 3.5 -118.5t3.5 -119.5q0 -35 -5 -47t-26 -16q-15 0 -35 -0.5t-26 -0.5q-24 0 -34.5 7.5t-16.5 35.5zM149 451q5 -17 50 -17q7 0 16 0.5t11 0.5q41 0 59.5 17
t18.5 75q0 62 -31.5 85.5t-110.5 23.5q-14 0 -17 -7q0 -31 2 -89.5t2 -88.5z" />
    <glyph glyph-name="S" unicode="S" horiz-adv-x="437" 
d="M20 179q0 18 30.5 30.5t61.5 12.5q8 0 12.5 -8t8 -23.5t4.5 -19.5q0 -16 20 -46.5t42 -30.5q45 0 70.5 25t25.5 66q0 32 -14.5 60t-38 49.5t-51.5 42.5t-56 43t-51.5 46t-38 56t-14.5 69q0 73 55 117.5t123 44.5q160 0 207 -140q1 -2 1 -7t-3.5 -8.5t-12 -8t-11.5 -6.5
q-2 -2 -17 -14t-27.5 -20t-20.5 -8q-7 0 -9 7q-13 35 -34 49.5t-58 14.5q-24 0 -42.5 -10t-18.5 -33q0 -15 19.5 -32.5t48 -36t70.5 -58t76 -87.5q37 -51 37 -133q0 -101 -96 -161q-42 -27 -135 -27q-99 0 -134 78q-29 68 -29 107z" />
    <glyph glyph-name="T" unicode="T" horiz-adv-x="440" 
d="M172 23q-6 19 -6 39l-18 454v4q-3 47 -24 47q-9 0 -27 -1t-28 -1q-42 0 -47 22v10q0 10 -1 26t-1 27q0 23 11.5 33t47.5 14.5t116 4.5q76 0 125 -1q25 0 38 -1t30 -3.5t24.5 -8t7.5 -14.5v-80q0 -31 -78 -31q-9 0 -24.5 0.5t-22.5 0.5q-8 -2 -8 -33q0 -3 5 -52.5t10 -158
t5 -252.5q0 -57 -43 -57h-72q-11 0 -20 12z" />
    <glyph glyph-name="U" unicode="U" horiz-adv-x="449" 
d="M51 108q-8 3 -19.5 99t-11.5 134q0 185 8 336q6 28 52 28q62 0 76 -12.5t14 -53.5q0 -22 -1.5 -65t-1.5 -64q0 -24 -2 -83t-2 -102t2 -91.5t12 -76t27 -29.5q52 0 68 13.5t21 56.5q8 219 8 412q0 9 -2 26.5t-2 26.5q0 33 18 37q36 8 79 8q24 0 30 -20q5 -85 5 -208
q0 -109 -2.5 -179.5t-10 -126.5t-18.5 -85.5t-32 -49t-46 -25t-65 -5.5q-162 0 -204 99z" />
    <glyph glyph-name="V" unicode="V" horiz-adv-x="529" 
d="M21 674q0 1 -1 5v4q0 31 93 31q42 0 47 -22l112 -498l5 8q6 37 23 107.5t23 103.5q3 19 7.5 53.5t9.5 63.5t13 53l18 111q1 10 8.5 17t17.5 7h59q15 0 34 -8t19 -23t-9.5 -42t-11.5 -37q-6 -42 -21.5 -104.5t-19.5 -83.5q-6 -19 -12 -63.5t-10 -60.5q-8 -37 -20 -106.5
t-15 -86.5q-12 -61 -32 -73t-104 -12q-30 0 -47.5 8t-23.5 32z" />
    <glyph glyph-name="W" unicode="W" horiz-adv-x="790" 
d="M103 235v18l-51 267l-5 16q-3 22 -15 77t-12 76q0 13 12 22q15 0 44.5 2.5t43.5 2.5q33 0 42 -32q7 -27 13.5 -78.5t10.5 -71.5q16 -80 33 -224q1 -5 2.5 -22t4.5 -30t9 -17q5 5 5 12l32 133q0 1 4.5 17t11 23.5t17.5 7.5h84q56 0 62 -19q1 -3 16 -53t29.5 -97.5
t16.5 -48.5q3 3 5 8t3.5 13.5t2.5 13.5q6 25 29.5 143.5t42.5 178.5l22 106q3 23 13 30.5t52 7.5q87 0 87 -31q0 -24 -8.5 -54t-22 -68.5t-18.5 -58.5q-4 -15 -33.5 -137.5t-48.5 -190.5q-1 -5 -16.5 -57.5t-22.5 -79.5q-7 -28 -55 -28q-14 0 -41.5 2t-42.5 2h-8
q-2 1 -12.5 4t-18 7t-10.5 9q-15 27 -32 89t-25 84l-6 7q-8 0 -15 -35q0 -1 -1 -8t-1 -8l-25 -114q-4 -20 -17.5 -29.5t-26 -11t-37.5 -1.5h-5q-20 0 -47.5 8.5t-30.5 24.5z" />
    <glyph glyph-name="X" unicode="X" horiz-adv-x="636" 
d="M65 15q0 9 26 58l60 115q6 18 26 49q3 4 10 15t11 18t8 17t4 19q0 8 -2.5 17t-5.5 16t-9.5 18t-9.5 15.5l-11 16.5t-9 13q-62 93 -139 278q-4 9 -4 24t15.5 21t36 7t24.5 3h6q10 0 31.5 -3.5t29.5 -3.5q5 0 10.5 -5t11.5 -14.5t10 -18t11 -23t10 -21.5q4 0 4 -5l37 -73
q5 -6 21 -37t30.5 -56.5t19.5 -25.5q4 0 4 2q17 31 46.5 86t43.5 81q48 85 57 106q6 15 38 15h9q26 0 37.5 -0.5t26.5 -3.5t20.5 -9.5t5.5 -18.5q0 -8 -2 -13l-76 -139q-14 -25 -44 -68.5t-41 -61.5q-8 -12 -21.5 -38t-21.5 -38q-2 -3 -6 -7.5t-6 -7.5t-4 -7.5t-2 -10.5
t6 -18.5t19 -37t21 -41.5q3 -7 11 -25t12.5 -26t15 -25.5t25.5 -37.5q3 -4 16.5 -23t22 -35t8.5 -28t-20 -17h-16q-15 0 -44 -1t-43 -1q-13 0 -24 9t-16.5 17.5t-16 30.5t-14.5 29q-7 11 -30 44.5t-25 33.5q-4 0 -22.5 -31t-26.5 -53l-4 -10q-8 -23 -14 -33.5t-18.5 -23
t-32.5 -17t-52 -4.5h-14q-51 0 -51 23z" />
    <glyph glyph-name="Y" unicode="Y" horiz-adv-x="576" 
d="M214 212l-14 149q-1 13 -7.5 26t-18 29.5t-15.5 22.5q-14 24 -30 53t-34.5 64t-28.5 54q-5 9 -18.5 26.5t-20.5 32t-7 30.5q0 34 57 34h57q12 0 28 -18.5t16 -29.5l22.5 -40.5t24.5 -48.5q1 -2 8 -20t13 -32t13.5 -31t13.5 -26.5t9 -9.5t7 5t9 14t9 17t8.5 16.5t5.5 11.5
q55 107 59 116q17 51 33 64.5t50 13.5h18q75 0 75 -27l-1 -4q-1 -3 -1 -4q-9 -17 -25 -44t-23 -40l-34 -65q-3 -5 -11.5 -16t-11.5 -17q-49 -86 -94 -159v-326q0 -38 -54 -38l-9 -1h-16q-62 0 -62 27v191z" />
    <glyph glyph-name="Z" unicode="Z" horiz-adv-x="471" 
d="M39 77q0 51 20 83q10 15 120 200q10 12 28 45.5t34.5 67.5t17.5 36q23 47 23 50q0 7 -3 7q-36 0 -107 -5t-107 -5q-27 0 -36 18.5t-9 51.5v32q0 26 12 45t35 19l342 1q14 -4 23 -17t12 -24t6 -32v-2l1 -2q0 -59 -12 -84l-129 -266q-6 -20 -23.5 -53.5t-23.5 -50.5
q-2 -4 -2 -9q0 -7 3 -7h124q34 0 45 -24.5t11 -74.5q0 -68 -48 -69l-249 -4q-5 -2 -22 -2q-55 0 -70.5 12.5t-15.5 47.5v15z" />
    <glyph glyph-name="bracketleft" unicode="[" horiz-adv-x="267" 
d="M27 67l-7 568q3 29 24.5 43t53.5 14q41 0 89 -5q32 -5 43 -15t11 -41v-4q0 -68 -35 -68h-54q-5 0 -7.5 -3t-3.5 -9t-1.5 -10.5t0 -13.5t0.5 -11q0 -246 12 -375q2 -5 6.5 -7.5t8.5 -3t11 -0.5h9q38 -5 49 -14.5t11 -46.5q-4 -29 -4 -36q-2 -11 -9 -18t-21 -9.5t-21.5 -3
t-23.5 -0.5h-6q-29 0 -45.5 1.5t-40 7t-36 21t-13.5 39.5z" />
    <glyph glyph-name="backslash" unicode="\" horiz-adv-x="309" 
d="M289 43q0 -29 -66 -29q-39 0 -53 9t-20 37q-30 139 -56.5 255.5t-38.5 168.5t-21 92.5t-11.5 54t-2.5 25.5q0 9 5.5 15.5t13 10t19 5t19 1.5t18 -0.5t11.5 -0.5q46 0 57 -57q48 -211 77 -346.5t39 -187.5t10 -53z" />
    <glyph glyph-name="bracketright" unicode="]" horiz-adv-x="267" 
d="M247 635l-7 -568q-1 -24 -13.5 -39.5t-36 -21t-40 -7t-45.5 -1.5h-6q-16 0 -23.5 0.5t-21.5 3t-21 9.5t-9 18l-4 36q0 37 11 46.5t49 14.5h9t11 0.5t8.5 3t6.5 7.5q12 129 12 375q0 2 0.5 11t0 13.5t-1.5 10.5t-3.5 9t-7.5 3h-54q-35 0 -35 68v4q0 31 11 41t43 15
q48 5 89 5q32 0 53.5 -14t24.5 -43z" />
    <glyph glyph-name="asciicircum" unicode="^" horiz-adv-x="375" 
d="M20 513l138 194q1 0 17.5 1t28 0t15.5 -4l134 -183q7 -8 -14.5 -35t-36.5 -26q-11 0 -39 33.5t-51.5 67t-24.5 33.5q-3 0 -50 -70.5t-58 -70.5q-13 1 -36 23t-23 37z" />
    <glyph glyph-name="underscore" unicode="_" horiz-adv-x="602" 
d="M21 45v5q0 15 4 22t18 10q120 5 440 5q32 0 77 -3q22 -5 22 -35v-17q0 -11 -10 -16.5t-24 -6t-28.5 -1t-23.5 -0.5h-437q-14 0 -22.5 2.5t-11.5 9t-3.5 11t-0.5 14.5z" />
    <glyph glyph-name="grave" unicode="`" horiz-adv-x="198" 
d="M178 768q0 -26 -42 -26q-20 0 -68 40t-48 60q0 17 24 33t44 16q17 0 53.5 -51.5t36.5 -71.5z" />
    <glyph glyph-name="a" unicode="a" horiz-adv-x="551" 
d="M20 36v11l21 130q2 6 2.5 14t1.5 12q1 12 10.5 58t9.5 74l29 236q0 1 1 5t1 5q1 7 2.5 26t2.5 29.5t3.5 28t6 27.5t8.5 21.5t12.5 18.5t17.5 9q91 11 163 11q49 0 74.5 -7.5t37.5 -36.5q9 -82 43 -244q5 -23 12.5 -98t18.5 -111l29 -162q4 -28 4 -50q0 -11 -6 -17.5
t-12 -8t-18.5 -2.5t-18.5 -2q-28 -7 -53 -7q-52 0 -54 23l-18 206l-7 32q-1 9 -12 9q-20 0 -69.5 -5.5t-56.5 -11.5q-3 -3 -3 -15l-8 -92q-7 -14 -7 -39q0 -1 -1.5 -33t-7.5 -55t-19 -23h-79q-8 -2 -24 -2q-21 0 -29 7.5t-8 28.5zM211 484v-88q0 -7 17 -7h13q81 0 81 15
q0 12 -3 19v43q0 15 -2 45q0 2 -1 12t-2 19.5t-2.5 22t-3.5 23t-5 19.5t-7.5 14.5t-9.5 5.5q-8 0 -25 -3.5t-26 -3.5q-14 -5 -18 -31t-3.5 -60t-2.5 -45z" />
    <glyph glyph-name="b" unicode="b" horiz-adv-x="447" 
d="M28 70l-8 263l12 339q2 56 45 67l78 8h9q72 0 124 -21t80 -57.5t41 -78.5t13 -91q0 -84 -86 -166q-3 -5 -3 -7t4.5 -6.5t11 -11.5t9.5 -10q69 -65 69 -169q0 -2 -0.5 -13t-0.5 -13l-2 -8q0 -3 -21 -41q-13 -25 -50 -37.5t-69 -14.5t-89 -2h-26q-8 0 -24 1t-23 1
q-5 0 -14.5 -1t-14.5 -1q-36 0 -49.5 16t-15.5 54zM172 403q0 -10 0.5 -14.5t5 -7.5t14.5 -3q41 0 63 46t22 93q0 43 -21 72t-62 29q-24 0 -24 -35q0 -15 1 -76.5t1 -103.5zM182 107l6 -6h43q40 0 40 77q0 81 -62 81q-8 0 -17.5 -10.5t-9.5 -22.5v-119z" />
    <glyph glyph-name="c" unicode="c" horiz-adv-x="504" 
d="M20 356q0 14 8 102q14 140 55 198q30 44 60.5 61t76.5 28q102 0 149.5 -21.5t85.5 -96.5q0 -20 -4 -36q-11 -7 -27.5 -22t-31.5 -24t-34 -9q-24 0 -46 30t-51 30q-96 0 -96 -210q0 -26 4 -62t12.5 -80.5t26.5 -75t43 -30.5q35 0 56 25t27.5 55t17.5 55t29 25q1 0 6.5 -1
t7.5 -1h2q2 -1 3 -1q84 -24 84 -50v-4l-1 -3q-14 -103 -74 -171.5t-164 -68.5q-63 0 -112.5 35.5t-73.5 94.5q-7 17 -11.5 34t-9.5 45t-6 35q-12 58 -12 114z" />
    <glyph glyph-name="d" unicode="d" horiz-adv-x="490" 
d="M24 33q0 14 -2 92.5t-2 91.5v125q0 185 3 272q0 43 3 61q0 23 9 37.5t27 20t31 7t35 1.5h13q44 0 73 -1.5t68 -9t65 -21t51.5 -39t41.5 -62.5q30 -73 30 -223v-12q0 -45 -7 -73q-6 -19 -9.5 -54.5t-6.5 -48.5q-56 -183 -179 -197q-40 -5 -153 -5q-43 0 -65 7.5t-26 30.5z
M157 150q3 -22 36 -22q29 0 52.5 8t38.5 19.5t27 32.5t18 38t10.5 45.5t6 45.5t3.5 47v9q0 46 -1.5 73t-10.5 67.5t-28 67.5q-16 20 -42.5 25t-69.5 5h-7q-5 3 -13 3q-13 0 -13 -8l-10 -263q1 -131 3 -193z" />
    <glyph glyph-name="e" unicode="e" horiz-adv-x="386" 
d="M28 43l-8 171l12 343q2 10 3.5 41.5t3.5 57.5t15 49.5t36 25.5q8 0 40.5 -1t56.5 -1q50 0 103 4q22 0 49 -17t27 -38q0 -85 -32 -85q-22 0 -77.5 3.5t-78.5 3.5q-8 0 -13.5 -5t-7.5 -15t-2.5 -19t-0.5 -22t-1 -19q0 -16 2.5 -23.5t4.5 -9t12.5 -2t17.5 -1.5q5 -1 15.5 -2
t15 -1.5t12.5 -2t11.5 -3t9 -4.5t8 -7t5.5 -9.5t4 -12.5t1 -16q0 -8 -6 -40q-1 -3 -1.5 -9t-1 -8t-1.5 -7t-2.5 -6.5t-3 -4.5t-4 -4.5t-5.5 -3t-7.5 -2t-9.5 -0.5q-13 0 -38.5 2.5t-38.5 2.5l-4 -2q-6 0 -6 -155v-20q0 -19 10 -19h132q45 0 57 -16t12 -64q0 -42 -13 -57.5
t-46 -15.5h-168q-95 0 -99 46z" />
    <glyph glyph-name="f" unicode="f" horiz-adv-x="380" 
d="M20 74v51q0 351 18 536q6 62 32 68l8 2q68 14 91 14q12 0 45 -3t53 -3q1 0 18 -1t24.5 -2t20.5 -4.5t20 -10.5t10 -17v-19q0 -26 -1 -40t-5 -30.5t-14.5 -24t-27.5 -7.5q-21 0 -64 3t-65 3q-18 0 -18 -46q0 -9 1 -26t1 -26v-9q4 -9 12 -9l19 -2q55 -6 67.5 -17t12.5 -59
t-20 -65q-62 0 -86 -4l-7 -5l-1 -11v-24.5v-20.5q0 -52 5 -122.5t5 -90.5q0 -46 -23 -50q-42 -8 -77 -8q-33 0 -40 11.5t-14 68.5z" />
    <glyph glyph-name="g" unicode="g" horiz-adv-x="535" 
d="M49 105q-29 62 -29 168q0 146 47 269q13 34 27.5 59.5t40.5 54t66 44.5t92 16q55 0 108 -29l25 -17.5t39.5 -36t24.5 -42.5q0 -8 -6 -16.5t-10 -12t-16 -11.5l-12 -8q-5 -4 -14 -12.5t-16.5 -13t-15.5 -4.5q-10 0 -22 12q-2 2 -20.5 22t-26 25.5t-23.5 13.5t-33 8
q-53 0 -88 -84.5t-35 -200.5q0 -27 3 -54t11.5 -62t29 -56.5t50.5 -21.5h64q76 18 76 121q0 11 -6 11l-16 1q-15 0 -30.5 1t-30.5 7t-17 15q-4 24 -4 40q0 51 7.5 65t38.5 14q96 0 162 -11q25 -10 25 -54q0 -63 -4.5 -108.5t-19 -91t-40 -73.5t-69 -45.5t-104.5 -17.5
q-179 0 -229 116z" />
    <glyph glyph-name="h" unicode="h" horiz-adv-x="452" 
d="M22 31q0 20 -1 131.5t-1 130.5q0 146 2 204l6 177q2 6 2.5 20.5t5.5 21.5t20 7q7 0 22.5 -2t23.5 -2q3 0 11.5 1t12.5 1q51 0 51 -41q0 -14 -2 -24l-1 -1v-2q-8 -247 -8 -249q0 -37 11 -37q55 0 85 2q13 2 14 21v4l14 301q0 8 8.5 18t15.5 10h84q8 0 20.5 -5.5
t13.5 -11.5q0 -66 -4 -200t-4 -201v-17q0 -10 -3 -64t-3 -63v-51q0 -2 0.5 -12.5t0.5 -17.5q0 -60 -21 -65q-10 0 -31 -3.5t-32 -3.5q-15 0 -37 3q-27 0 -27 113q0 18 0.5 54t0.5 53q-7 9 -36 9h-20q-48 0 -48 -21q0 -40 2 -120q0 -8 2.5 -28t2.5 -31q0 -1 -0.5 -7.5
t-0.5 -7.5q0 -13 -28.5 -18.5t-57.5 -5.5q-17 0 -39 8.5t-27 21.5z" />
    <glyph glyph-name="i" unicode="i" horiz-adv-x="201" 
d="M20 124l19 571q0 8 8.5 18t15.5 10h84q8 0 20.5 -5.5t13.5 -11.5q0 -66 -4 -200t-4 -201v-17q0 -10 -3 -64t-3 -63v-51q0 -2 0.5 -12.5t0.5 -17.5q0 -60 -21 -65q-10 0 -31 -3.5t-32 -3.5q-14 0 -37 3q-27 0 -27 113z" />
    <glyph glyph-name="j" unicode="j" horiz-adv-x="404" 
d="M22 198q-4 41 14 49q85 10 89 10q18 0 24.5 -28.5t13.5 -59.5t26 -36q53 0 57 28l4 36q-6 277 -14 440v8q-4 53 2 65.5t35 12.5h34q40 0 52 -17.5t18 -91.5q11 -162 6 -294q-1 -39 -1.5 -55.5t-2.5 -51t-5 -50.5t-9 -43.5t-14 -41t-20 -31t-27.5 -26t-36.5 -14.5t-47 -6
q-17 0 -82 10q-50 8 -81.5 72t-34.5 115z" />
    <glyph glyph-name="k" unicode="k" horiz-adv-x="495" 
d="M395 8h-63q-19 0 -36 21t-39.5 63t-36.5 62q-44 74 -56 74q-3 0 -3 -24q0 -20 3.5 -60.5t3.5 -61.5v-7q0 -63 -28 -63q-10 0 -16 2h-78q-8 0 -14 18q0 2 0.5 24.5t0.5 38.5q0 96 -6.5 288.5t-6.5 285.5q0 36 24 45t83 9q35 0 35 -69q0 -30 -3 -90.5t-3 -91.5v-10
q0 -9 4 -9q3 0 6 4q15 24 68 107.5t79 132.5q19 21 70 21h23q69 0 69 -25q0 -16 -19 -42l-101 -154q-17 -17 -59 -73q-1 -3 -9 -15.5t-14.5 -24t-6.5 -14.5q0 -23 108 -191q17 -26 51 -72.5t48 -72.5q0 -8 -13.5 -19t-25.5 -11q-23 0 -39 4z" />
    <glyph glyph-name="l" unicode="l" horiz-adv-x="365" 
d="M32 101q-12 322 -12 597q0 20 71 20q23 0 37 -1q20 -3 26 -15.5t6 -39.5q-1 -435 -1 -464v-19q0 -22 10 -23l129 -8q17 -1 32 -10.5t15 -25.5v-84q0 -25 -54 -25q-8 0 -24 0.5t-23 0.5q-3 0 -30 -1.5t-47 -1.5q-127 0 -132 60v13q0 1 -1.5 11.5t-1.5 15.5z" />
    <glyph glyph-name="m" unicode="m" horiz-adv-x="630" 
d="M22 19q-2 14 -2 49q0 32 1 95.5t1 99.5q0 108 2 114v299q0 27 22 39t52 12q61 0 82.5 -20t28.5 -67l57 -121q18 -53 30 -53q4 0 6 3l78 169q5 10 11 27.5t9.5 25t14.5 16t29 12.5q17 0 42 0.5t44.5 1t21.5 0.5q43 0 46 -28q0 -3 1 -12.5t2 -17t1 -8.5t-0.5 -6t-0.5 -10
q0 -17 4.5 -157.5t4.5 -227.5q0 -244 -31 -244q-21 0 -64.5 10t-43.5 25l1 459q0 3 -4 3t-13 -18t-23.5 -51t-23.5 -51q-3 -5 -12 -28.5t-18 -39.5t-18 -20l-36 -6h-72q-12 0 -22.5 19t-15.5 37l-48 100q-2 5 -6 5t-4 -8q0 -12 4 -106t4 -102v-25q0 -41 4.5 -84.5t4.5 -65.5
q0 -19 -2.5 -29t-11 -15.5t-16 -6.5t-28 -3t-35.5 -4l-4 -1q-3 0 -8 -0.5t-10 -0.5q-32 0 -36 16z" />
    <glyph glyph-name="n" unicode="n" horiz-adv-x="523" 
d="M187 116v-18q0 -68 -7.5 -81t-51.5 -13q-79 0 -83 34q-1 6 -1.5 11.5t-1 9.5t-1.5 9l-9 94q0 29 -5 200t-5 210q0 2 -1 20t-1 31q0 98 57 98h34q75 0 101 -25q12 -21 23.5 -46t19 -42.5t19.5 -47t18 -43.5q7 -17 23.5 -61t27.5 -69.5t15 -25.5q0 37 0.5 109t0.5 109
q0 18 -1 51.5t-1 50.5q0 24 13 32t52 8h20q46 0 49 -24q0 -25 4 -32v-12q0 -26 2 -110.5t2 -97.5q0 -22 -1 -66t-1 -65q0 -47 3 -95.5t3 -69.5v-25q0 -24 -0.5 -36.5t-3 -32t-8 -29t-16 -17t-25.5 -7.5q-94 0 -113 52l-165 436v-3q0 -36 15 -371z" />
    <glyph glyph-name="o" unicode="o" horiz-adv-x="632" 
d="M181 28q-161 75 -161 316q0 51 7 100t25.5 99t46 87.5t72.5 61t101 23.5q55 0 105.5 -39.5t78 -93t27.5 -101.5q0 -2 1 -5.5t2 -5.5t2 -2q5 0 14.5 20.5t20.5 20.5q18 0 53.5 -32t35.5 -54q0 -23 -13 -40.5t-40 -38t-35 -28.5q-6 -2 -17.5 -10t-17.5 -11q-5 -2 -29 -127
q-21 -74 -70.5 -114.5t-122.5 -40.5q-28 0 -86 15zM141 372v-9q0 -34 5.5 -68.5t19.5 -75t44.5 -66t74.5 -25.5q47 0 69 38.5t22 88.5v3l-1 3l-4 4q-3 3 -19 6q-62 0 -107 25t-87 70q-1 1 -3.5 5.5t-5.5 7.5t-5 3q-3 0 -3 -10zM208 581q0 -61 43.5 -114t104.5 -53
q9 0 12 1.5t3 9.5q0 72 -29 124t-87 52q-47 0 -47 -20z" />
    <glyph glyph-name="p" unicode="p" horiz-adv-x="429" 
d="M42 11q-8 2 -10 10q-12 435 -12 509q0 70 4 105.5t10 45.5t19 12q25 0 61.5 2t53.5 2q124 0 172 -45q23 -21 33.5 -33t21.5 -34t14 -49q0 -36 -0.5 -56.5t-5 -56t-13.5 -58.5t-26.5 -48t-43.5 -41q0 -2 -3 -2q-78 -31 -141 -31h-11q-8 -3 -8 -7q0 -11 3 -34t3 -35
q0 -6 -1 -17.5t-1 -18.5q0 -11 1 -33.5t1 -34.5q0 -19 -1 -27t-5 -17t-14 -12t-28 -3h-17q-32 0 -56 7zM148 368q1 -4 13 -9q75 0 103 15t28 73q0 38 -4 71q-9 43 -44.5 56t-93.5 13q-11 0 -11 -29v-23q0 -31 4 -88.5t5 -78.5z" />
    <glyph glyph-name="q" unicode="q" horiz-adv-x="489" 
d="M310 10q-5 0 -17 -3t-18 -3h-14q-75 0 -120 31q-54 37 -91 129q-1 4 -5 15t-7 19l-2 7l-15 100l-1 14v19q0 90 15 155t52 125q67 86 172 86q38 0 96 -20q50 -19 76 -90.5t30 -141.5q0 -6 0.5 -29t0.5 -38q0 -194 -51 -297q0 -16 29 -41t29 -33q0 -15 -23 -36.5t-45 -21.5
q-25 0 -50 18q-4 2 -20 19t-21 17zM224 312q48 0 94 -36q4 -3 15.5 -18t15.5 -15q12 0 12 120q0 86 -14 147q-10 45 -27 67t-58 22q-68 0 -94 -91q-24 -87 -24 -141q0 -1 -0.5 -12.5t-0.5 -20.5q0 -50 12 -50q3 0 28 14t41 14zM184 179q0 -18 26 -30t50 -12q8 0 10 1.5
t2 6.5q0 18 -16.5 33.5t-34.5 15.5q-37 0 -37 -15z" />
    <glyph glyph-name="r" unicode="r" horiz-adv-x="484" 
d="M258 160q-6 21 -20 38q1 1 -8.5 12.5t-22 23.5t-17.5 12h-33l-4 -2q0 -24 2 -73t2 -74q0 -68 -10 -84.5t-43 -16.5l-21 -1h-2q-48 0 -54 19v29q0 75 -3.5 234t-3.5 245q0 136 7.5 160t50.5 26q13 0 21 1q5 0 15.5 0.5t16.5 0.5q17 0 56 -1t58 -1q81 0 121 -15
q52 -21 75 -72t23 -114q0 -115 -64 -155l-38 -20l-54 -11q-3 -1 -3 -4t5.5 -7t12.5 -8.5t10 -7.5q30 -33 48.5 -99.5t39.5 -95.5q4 -5 13.5 -12t15 -14t5.5 -19q-10 -48 -26.5 -61.5t-68.5 -13.5q-16 0 -39 15.5t-29 33.5q-20 46 -34 132zM144 404q0 -6 5 -6q43 0 64.5 1
t47 5t36.5 12.5t18.5 24t7.5 38.5q0 115 -83 125l-87 5q-14 0 -14 -30q0 -4 0.5 -12t0.5 -11q0 -60 4 -152z" />
    <glyph glyph-name="s" unicode="s" horiz-adv-x="410" 
d="M22 182q0 22 36 37t51 15h23q7 0 12.5 -14t9.5 -31.5t16.5 -31.5t32.5 -14q61 0 65 49q0 29 -17 56.5t-40 48t-65 58.5t-74 73q-52 44 -52 105q0 78 55 122t131 44q61 0 112.5 -29.5t70.5 -83.5l1 -1v-2q0 -4 -7 -18q-2 -3 -10 -13t-14.5 -18t-14 -17t-14.5 -14t-11 -5
h-1l-2 1q-16 8 -37.5 29t-42 34.5t-44.5 13.5q-38 0 -38 -32q0 -23 19 -47q25 -25 68.5 -59t71.5 -57t50 -62.5t22 -86.5q0 -94 -41 -152t-132 -58q-128 0 -173 100q-17 36 -17 60z" />
    <glyph glyph-name="t" unicode="t" 
d="M206 -11q-41 9 -41 28q0 14 0.5 40.5t0.5 39.5q0 66 1 197.5t1 197.5v20l1 13q-1 4 -1 19.5t-2 24t-6 8.5h-92q-48 3 -48 58q0 50 21 61.5t104 11.5q37 0 109.5 -3.5t108.5 -3.5q100 0 100 -32q0 -35 -1 -51.5t-3 -30t-10 -17.5t-16 -5.5t-27 -1.5h-7q-13 0 -37 1t-37 1
q-9 0 -9 -56v-39q0 -42 2 -140.5t1 -172t-7 -141.5q-7 -29 -39 -29q-19 0 -67 2z" />
    <glyph glyph-name="u" unicode="u" 
d="M86 51q-22 22 -36.5 63.5t-20 101t-8 109t0.5 124t5 108.5t7 97l2 26q4 19 47 19h28q74 0 74 -25v-79l-15 -382q0 -48 16.5 -67.5t71.5 -19.5q9 0 15.5 2t10 3.5t5.5 6.5t2.5 7.5t0.5 10.5v11l22 479q0 15 7.5 24.5t23 13.5t29 5t36.5 1q37 0 45 -3t8 -17q0 -5 -9 -134
q-16 -318 -31 -414q-10 -61 -52 -95.5t-114 -34.5q-115 0 -171 59z" />
    <glyph glyph-name="v" unicode="v" horiz-adv-x="552" 
d="M193 32q-35 64 -63.5 160.5t-55 216.5t-41.5 170q-13 45 -13 67q0 46 46 46h78q37 0 59 -118l70 -382q17 67 36.5 139.5t27.5 103t16.5 67.5t14.5 74q8 69 26 88t63 19h12q3 0 8 0.5t7 0.5q48 0 48 -33q-5 -21 -35 -141t-42 -165.5t-40 -134t-58 -161.5q-10 -18 -17 -27
t-21.5 -18.5t-32.5 -9.5q-69 0 -93 38z" />
    <glyph glyph-name="w" unicode="w" horiz-adv-x="675" 
d="M457 3h-69q-12 0 -20 4t-13.5 12.5t-8 15.5t-6.5 20.5t-6 20.5q-2 6 -8 37t-12 56t-9 25q-5 0 -5 -10l-15 -77q-2 -9 -6 -24t-6 -21.5t-6.5 -17t-9.5 -14.5t-13.5 -10.5t-20 -8.5t-28 -4t-38.5 -2q-15 0 -26.5 9.5t-13.5 23.5l-54 296q-5 52 -21.5 161t-21.5 167
q0 38 76 38q37 0 47 -5.5t13 -28.5l60 -417q2 0 9 29.5t13 58.5l6 29q8 47 98 47q22 0 35 -18t16 -37t5.5 -49t3.5 -38q19 -97 26 -97q3 3 5 9t3.5 14t1.5 10q46 167 71 359q2 12 3.5 33.5t3 32.5t6 26.5t12.5 23t22 13t35 5.5q3 0 11.5 0.5t13.5 0.5q39 0 39 -21l-127 -615
q0 -12 -18.5 -38.5t-38.5 -26.5q-4 0 -14 3z" />
    <glyph glyph-name="x" unicode="x" horiz-adv-x="541" 
d="M20 19q0 11 14 36.5t16 32.5l131 233q6 6 6 14q0 9 -6.5 23t-16 31t-11.5 22q-5 10 -24 51t-30 62q-15 15 -62 133q-4 8 -4 17q0 32 57 32q81 0 101 -40l80 -156q3 -4 6 -4q4 0 6 2q13 31 43.5 86t39.5 72q18 37 79 37q8 0 22 -0.5t20 -0.5q34 0 34 -19q0 -26 -38 -93
q-45 -81 -73 -123q-9 -14 -31 -53q-4 -4 -16.5 -27.5t-12.5 -26.5q0 -12 50 -99q1 -3 27 -45.5t27 -45.5l58 -127q1 -3 1 -9q0 -29 -89 -29h-5q-51 0 -76 49l-76 128q-1 4 -5 4q-3 0 -6 -4l-86 -154q-17 -30 -98 -30h-14q-10 0 -24 6.5t-14 14.5z" />
    <glyph glyph-name="y" unicode="y" horiz-adv-x="505" 
d="M32 137q0 15 42 30t75 15q10 0 14 -13.5t6 -30t20 -30t52 -13.5q11 0 23 8q52 30 76.5 85.5t19.5 100.5q-1 1 -2.5 4t-2.5 4t-2.5 3.5t-3 2t-3.5 -0.5q-21 -9 -71 -14.5t-108.5 -2.5t-102.5 32.5t-44 84.5v93l17 187q1 8 15.5 12.5t24.5 4.5h66q13 0 20.5 -9.5t7.5 -21.5
q0 -13 -3 -36t-4 -30q-8 -80 -8 -132v-27q0 -35 13 -48t61 -13q43 0 69 12t36 45q0 78 -14 195q0 4 -1 10t-2 10l-1 5q0 23 42.5 32t78.5 9q45 0 45 -190q0 -17 1 -57.5t1 -62.5q0 -77 -8 -134t-40 -121t-89 -102q-63 -43 -118 -43q-137 0 -179 93q-3 4 -8.5 24t-10.5 30z
" />
    <glyph glyph-name="z" unicode="z" 
d="M46 70q0 4 -1 14.5t-1 15.5q0 14 5 23q2 3 11.5 18.5t26 42t42.5 70t71 121.5t103 179q4 6 4 10q0 2 -5 2q-18 0 -55 -1.5t-55 -1.5q-20 0 -42.5 0.5t-49.5 1.5t-43 1q-30 4 -35 60q-2 18 -2 30q0 38 28 40q36 3 195 3q94 0 172 -3q7 -1 16.5 -2.5t13 -2.5t7.5 -4
t5.5 -8.5t2.5 -16.5t1 -32q0 -1 -3 -73l-239 -411q1 -3 5 -6q27 0 81.5 2t82.5 2q41 0 54.5 -6.5t16.5 -32.5q0 -2 0.5 -6.5t0.5 -6.5q0 -7 1.5 -22t1.5 -22q0 -19 -5.5 -27.5t-20.5 -8.5q-7 0 -23 2t-23 2q-8 0 -16 -2q-180 -6 -269 -6q-35 0 -45.5 10.5t-13.5 35.5z" />
    <glyph glyph-name="braceleft" unicode="{" horiz-adv-x="337" 
d="M85 151q0 7 -4 43t-4 43q0 41 -13 55q-4 4 -16 9.5t-20 12t-8 14.5q0 21 9.5 29t24.5 12.5t23 14.5q7 9 14 38q0 17 -1 48.5t-1 46.5q0 46 11 84.5t44 69t84 30.5q31 0 47.5 -10t16.5 -38q0 -20 -14.5 -55.5t-33.5 -35.5q-4 0 -14 1.5t-15 1.5q-22 0 -22 -39q0 -14 4 -44
t4 -44q0 -50 -35 -96q0 -7 12 -16.5t24.5 -23.5t12.5 -32q2 -33 0.5 -64t3.5 -54t21 -23q8 0 23 5t24 5q16 0 23 -24.5t7 -45.5q0 -23 -23.5 -36.5t-49.5 -13.5q-90 0 -138 75l-1 2q-1 2 -1 3q-3 7 -6 15t-5.5 14.5t-4 12t-2.5 7.5z" />
    <glyph glyph-name="bar" unicode="|" horiz-adv-x="168" 
d="M20 27v28q0 62 10 653q6 9 32 9q2 0 14.5 -1t17 -1.5t15.5 -2.5t16 -5t11.5 -7.5t9 -11.5t2.5 -16l-6 -605q0 -62 -24 -62h-64q-28 0 -34 22z" />
    <glyph glyph-name="braceright" unicode="}" horiz-adv-x="337" 
d="M252 151l-1 -3q-1 -2 -2.5 -7.5t-4 -12t-5.5 -14.5t-6 -15q0 -1 -1 -3l-1 -2q-48 -75 -138 -75q-26 0 -49.5 13.5t-23.5 36.5q0 21 7 45.5t23 24.5q9 0 24 -5t23 -5q16 0 21 23t3.5 54t0.5 64q0 18 12 32t24.5 23.5t12.5 16.5q-35 46 -35 96q0 14 4 44t4 44q0 39 -22 39
q-5 0 -15 -1.5t-14 -1.5q-19 0 -33.5 35.5t-14.5 55.5q0 28 16.5 38t47.5 10q51 0 84 -30.5t44 -69t11 -84.5q0 -15 -1 -46.5t-1 -48.5q7 -29 14 -38q8 -10 23 -14.5t24.5 -12.5t9.5 -29q0 -8 -8 -14.5t-20 -12t-16 -9.5q-13 -14 -13 -55q0 -7 -4 -43t-4 -43z" />
    <glyph glyph-name="exclamdown" unicode="&#xa1;" horiz-adv-x="178" 
d="M158 495l-17 -471q0 -8 -2.5 -13.5t-8.5 -9t-10.5 -5.5t-15 -3t-14.5 -1h-16h-13q-15 0 -24 4.5t-12 14.5t-4 17.5t-1 21.5q0 274 28 451q7 40 41 40q26 0 47.5 -11t21.5 -35zM158 631q0 -20 -18.5 -36t-39.5 -16q-49 0 -49 47q0 20 15 40.5t35 20.5q24 0 40.5 -16.5
t16.5 -39.5z" />
    <glyph glyph-name="cent" unicode="&#xa2;" horiz-adv-x="382" 
d="M162 190v39q-80 11 -114 80q-8 15 -19 70q-9 37 -9 71q0 27 6 63q9 86 40 123q15 19 33 30.5t30 15.5t35 9q0 8 0.5 24t0.5 25q3 7 14 7q8 -1 12.5 -3t9.5 -10.5t5 -22.5v-20q52 -2 81 -17.5t53 -55.5q0 -14 -3 -22q-8 -4 -20 -13.5t-23 -15t-25 -5.5q-18 0 -33 17
t-31 19l-1 -282q20 4 32.5 20.5t16.5 33.5t12 30.5t21 13.5h4q5 -1 6 -1l2 -1h2q62 -14 62 -31l-1 -4q-11 -61 -50 -102t-107 -47v-6q0 -50 -8 -50h-22q-11 0 -12 18zM127 469q0 -31 8.5 -74.5t26.5 -65.5q0 24 0.5 58t1 94t0.5 108q-37 -26 -37 -120z" />
    <glyph glyph-name="sterling" unicode="&#xa3;" horiz-adv-x="476" 
d="M21 237q0 45 31 50q1 46 2.5 78t7.5 79.5t15.5 80.5t27 69.5t41 59t59.5 37.5t81 15q19 0 49 -13q79 -29 110 -177v-13q0 -41 -22 -46q-17 -4 -49 -10t-44 -9q-23 0 -32 17t-8.5 37.5t-9 37.5t-33.5 17q-21 0 -31.5 -38t-10.5 -87l5 -131h16q35 -7 35 -67q0 -21 -33 -24
q-10 -2 -15 -2l3 -72q132 -3 197 -2q23 1 33 -10t10 -38q0 -52 -16 -64t-81 -12l-255 2q-14 0 -23.5 10t-12.5 19.5t-8 30.5l-8 121q-11 0 -18 4t-9.5 14t-3 16t-0.5 20z" />
    <glyph glyph-name="yen" unicode="&#xa5;" horiz-adv-x="576" 
d="M276 -6q-62 0 -62 27v157l-88 1q-30 0 -30 51q0 37 18.5 46t92.5 7l-4 41l-81 1q-30 0 -30 51q0 32 13.5 42t59.5 11l-6 10q-14 24 -30 53t-34.5 64t-28.5 54q-5 9 -18.5 26.5t-20.5 32t-7 30.5q0 34 57 34h57q12 0 28 -18.5t16 -29.5l22.5 -40.5t24.5 -48.5q1 -2 8 -20
t13 -32t13.5 -31t13.5 -26.5t9 -9.5l98 180q17 51 33 64.5t50 13.5h18q75 0 75 -27l-1 -4q-1 -3 -1 -4q-9 -17 -25 -44t-23 -40l-108 -189q21 1 30 -8.5t9 -31.5q0 -42 -13.5 -52.5t-68.5 -10.5v-43h47q21 1 30 -8.5t9 -31.5q0 -43 -14 -53t-72 -10v-145q0 -38 -54 -38
l-9 -1h-16z" />
    <glyph glyph-name="brokenbar" unicode="&#xa6;" horiz-adv-x="187" 
d="M25 370q-4 14 -4 105l-1 147q2 12 3.5 29.5t3.5 25.5t10 18.5t24 17.5q6 3 8 3h63q10 0 16.5 -10t9.5 -24.5t4 -23.5t1 -13q0 -5 -1.5 -58t-3.5 -116t-3 -81q-2 -41 -33 -41h-63q-8 0 -20 6.5t-14 14.5zM29 38q-4 52 -4 84v11q6 111 7 122q3 10 5 17t3.5 12.5t5 8.5
t5 5.5t8 4t9 2.5t13 2.5t15.5 2.5q5 0 11 2t9 2q17 0 28 -8t15.5 -24t6 -30t1.5 -35q0 -60 -6 -166q-4 -32 -18.5 -39t-51.5 -7q-57 0 -62 33z" />
    <glyph glyph-name="dieresis" unicode="&#xa8;" horiz-adv-x="312" 
d="M20 805q0 19 16 32t36 13q22 0 39 -17t17 -38q0 -18 -16.5 -33.5t-33.5 -15.5q-21 0 -39.5 19t-18.5 40zM184 815q0 24 18 37.5t43 13.5q29 -2 41.5 -30t-1 -55t-46.5 -27q-22 0 -38.5 20t-16.5 41z" />
    <glyph glyph-name="copyright" unicode="&#xa9;" horiz-adv-x="476" 
d="M20 457q0 161 99 240q77 61 171 43q92 -17 137 -100q50 -92 14 -230q-72 -157 -219 -157q-86 0 -144 57.5t-58 146.5zM93 478q13 -104 83.5 -134t135.5 24.5t65 158.5q0 98 -71 131q-60 27 -125 -8q-72 -39 -86 -122q-4 -24 -2 -50zM152 422q-17 33 -17.5 78t21 83.5
t62.5 44.5q42 0 61.5 -7t34.5 -32q0 -12 -12.5 -21.5t-26.5 -9.5q-10 0 -19 10t-21 10q-39 0 -39 -70q0 -24 8 -53.5t27 -29.5q14 0 22.5 8.5t11 18.5t7.5 18.5t12 8.5q1 0 3.5 -0.5t4.5 -0.5q1 0 6 -1.5t9 -2.5t9 -3t7.5 -5t2.5 -7q-6 -35 -30.5 -58t-67.5 -23
q-54 0 -76 44z" />
    <glyph glyph-name="ordfeminine" unicode="&#xaa;" horiz-adv-x="309" 
d="M20 425q0 64 79 99q28 15 45 19l6 7v5q0 34 -21 34q-6 0 -23.5 -9.5t-27.5 -9.5q-16 0 -31.5 20.5t-15.5 30.5v9q10 20 54.5 38.5t71.5 18.5q26 0 45.5 -9.5t31 -27.5t19 -36.5t10.5 -45.5t4 -45.5t1 -44.5q0 -23 10.5 -44.5t10.5 -22.5q0 -5 -2 -7l-45 -35q-7 -7 -16 -7
t-21 12.5t-21 11.5q-44 -27 -83 -27q-32 0 -56.5 17.5t-24.5 48.5zM121 449q0 -6 12 -8t24 3t12 14q0 20 -13 20t-24 -8.5t-11 -20.5z" />
    <glyph glyph-name="guillemotleft" unicode="&#xab;" horiz-adv-x="540" 
d="M21 308q-1 2 -1 6q0 15 13 39l104 157q5 7 20 29.5t27 38t19 15.5q13 0 38 -21.5t25 -37.5q0 -13 -32 -61.5t-64.5 -92t-32.5 -44.5q0 -4 72 -58t72 -68q0 -15 -21.5 -43t-36.5 -28q-6 0 -14 3.5t-19.5 12t-20 14.5t-23.5 19.5t-21.5 19t-22.5 20.5t-18 17
q-12 11 -32.5 32.5t-30.5 30.5zM260 308q-1 2 -1 6q0 15 13 39l104 157q5 7 20 29.5t27 38t19 15.5q13 0 38 -21.5t25 -37.5q0 -13 -32.5 -61.5t-64.5 -92t-32 -44.5q0 -4 72 -58t72 -68q0 -15 -21.5 -43t-36.5 -28q-6 0 -14 3.5t-19.5 12t-20 14.5t-23.5 19.5t-21.5 19
t-22.5 20.5t-18 17q-12 11 -32.5 32.5t-30.5 30.5z" />
    <glyph glyph-name="logicalnot" unicode="&#xac;" horiz-adv-x="498" 
d="M21 351v7q0 20 4 30t17 14q130 7 336 5q8 0 24.5 0.5t22.5 0.5t16.5 -2.5t15.5 -8t11 -15.5t10 -25v-151q-11 -32 -60 -27t-54 37l-2 83l-305 1q-13 0 -21 3.5t-11 12.5t-3.5 15t-0.5 20z" />
    <glyph glyph-name="registered" unicode="&#xae;" horiz-adv-x="476" 
d="M20 457q0 161 99 240q77 61 171 43q92 -17 137 -100q50 -92 14 -230q-72 -157 -219 -157q-86 0 -144 57.5t-58 146.5zM266 392q-5 9 -11.5 29t-16 29.5t-32.5 14.5q0 -8 1 -24.5t1 -25.5q0 -23 -4 -28.5t-18 -5.5q-26 -7 -33 6v10q0 6 -2 36t-2.5 59t0.5 60.5t7 51
t18 20.5h72q35 0 52 -5q42 -14 42 -64q0 -40 -28 -53q-19 -7 -40 -12q0 -8 32 -48.5t32 -41.5q41 43 41 127q0 98 -71 131q-60 27 -125 -8q-72 -39 -86 -122q-4 -24 -2 -50q9 -73 49 -110.5t89.5 -33t88.5 42.5q-6 -2 -25 -2q-7 0 -17 5.5t-12 11.5zM203 520q0 -2 2 -2
q43 0 58.5 4.5t15.5 23.5q0 38 -35 42l-38 2q-6 0 -6 -10q0 -2 0.5 -4.5t0.5 -3.5q0 -36 2 -52z" />
    <glyph glyph-name="macron" unicode="&#xaf;" horiz-adv-x="281" 
d="M21 803q0 12 1.5 21t6 14.5t7 9t12 5t12.5 2t16 0.5h16q90 2 134 2q35 -7 35 -67q0 -21 -33 -24q-124 -17 -176 -17q-11 0 -18 4t-9.5 14t-3 16t-0.5 20z" />
    <glyph glyph-name="degree" unicode="&#xb0;" horiz-adv-x="215" 
d="M20 652q0 37 26.5 70t62.5 33q35 0 60.5 -24t25.5 -59q0 -45 -22 -73t-64 -28q-35 0 -62 21t-27 60zM112 696q-13 0 -19.5 -13t-0.5 -25.5t25 -12.5q9 0 13.5 3.5t5.5 8t1 12.5q0 10 -7 18.5t-18 8.5z" />
    <glyph glyph-name="plusminus" unicode="&#xb1;" horiz-adv-x="451" 
d="M158 265v35l-102 1q-36 0 -36 56q0 41 23 51t114 8l-1 120q0 16 9.5 24.5t19 10t26.5 2.5q43 0 51.5 -24.5t8.5 -135.5h114q46 3 46 -44t-17 -58t-87 -11h-56q0 -57 1 -91q4 -46 -43 -47t-58 16t-13 87zM331 -19l-287 1q-38 0 -38 63q0 51 28.5 60t161.5 6q115 -2 196 -2
q26 2 37.5 -10t11.5 -40q0 -53 -18 -65.5t-92 -12.5z" />
    <glyph glyph-name="acute" unicode="&#xb4;" horiz-adv-x="198" 
d="M20 768q0 20 36.5 71.5t53.5 51.5q20 0 44 -16t24 -33q0 -20 -48 -60t-68 -40q-42 0 -42 26z" />
    <glyph glyph-name="periodcentered" unicode="&#xb7;" horiz-adv-x="145" 
d="M20 350q0 23 16 44.5t39 21.5q20 0 35 -19t15 -39q0 -23 -14 -41.5t-36 -18.5q-24 0 -39.5 14t-15.5 38z" />
    <glyph glyph-name="cedilla" unicode="&#xb8;" horiz-adv-x="230" 
d="M47 -142q4 0 15 -0.5t18 -0.5t16 1t14 5.5t6 11.5q0 16 -7 16h-68q-10 0 -11 22t4 74q5 39 57 39q38 0 36 -17q-6 -36 -1.5 -55t14.5 -21.5t23 -4.5t24 -4t17.5 -18.5t4.5 -49.5q-3 -41 -40 -61.5t-83 -20.5q-49 0 -63 26q-10 18 10 48q10 16 14 10z" />
    <glyph glyph-name="ordmasculine" unicode="&#xba;" horiz-adv-x="329" 
d="M20 513q0 72 43.5 127.5t112.5 55.5q49 0 91 -44.5t42 -94.5q0 -81 -34.5 -134t-110.5 -53q-56 0 -100 43.5t-44 99.5zM99 527q0 -35 24 -53.5t61 -18.5q35 0 46 20.5t11 60.5q0 33 -16 58t-47 25q-35 0 -57 -28t-22 -64z" />
    <glyph glyph-name="guillemotright" unicode="&#xbb;" horiz-adv-x="540" 
d="M280 308q-10 -9 -30.5 -30.5t-32.5 -32.5q-2 -2 -18 -17t-22.5 -20.5t-21.5 -19t-23.5 -19.5t-20 -14.5t-19.5 -12t-14 -3.5q-15 0 -36.5 28t-21.5 43q0 14 72 68t72 58q0 1 -32 44.5t-64.5 92t-32.5 61.5q0 16 25 37.5t38 21.5q7 0 19 -15.5t27 -38t20 -29.5l104 -157
q13 -24 13 -39q0 -4 -1 -6zM519 308q-10 -9 -30.5 -30.5t-32.5 -32.5q-2 -2 -18 -17t-22.5 -20.5t-21.5 -19t-23.5 -19.5t-20 -14.5t-19.5 -12t-14 -3.5q-15 0 -36.5 28t-21.5 43q0 14 72 68t72 58q0 1 -32.5 44.5t-64.5 92t-32 61.5q0 16 25 37.5t38 21.5q7 0 19 -15.5
t27 -38t20 -29.5l104 -157q13 -24 13 -39q0 -4 -1 -6z" />
    <glyph glyph-name="questiondown" unicode="&#xbf;" horiz-adv-x="376" 
d="M260 484q0 -89 -21 -154q-9 -27 -36.5 -59t-49.5 -63t-22 -65q0 -25 15.5 -32.5t45.5 -7.5q19 5 42.5 48t39.5 43q11 0 31.5 -7t35.5 -14.5t15 -9.5q0 -39 -26 -83q-45 -79 -155 -79q-70 0 -112.5 35t-42.5 106q0 39 19 77t42.5 64t44 62.5t22.5 71.5q0 67 4 80t26 13
q74 0 82 -26zM254 644l-2 -8q-11 -28 -22 -38t-38 -10q-26 0 -40.5 15t-14.5 41q0 24 15.5 39.5t38.5 15.5q24 0 43.5 -16t19.5 -39z" />
    <glyph glyph-name="Agrave" unicode="&#xc0;" horiz-adv-x="606" 
d="M20 27v6l34 161q4 10 6.5 20.5t4 22.5t3.5 20q6 27 13.5 71.5t16.5 80.5q9 46 34 140.5t34 144.5q6 32 25.5 42.5t59.5 13.5l56 4q7 0 76 -8q2 0 20 -2t20 -2q16 -2 28.5 -29t12.5 -45l118 -603q0 -4 2 -14.5t2 -16.5q0 -16 -35 -16q-8 0 -24.5 1.5t-23.5 1.5t-19 -1.5
t-18 -1.5q-29 0 -41 12t-17 43l-27 151q-2 10 -21 10q-27 -1 -129 -10q-15 -1 -20.5 -53t-15.5 -104t-36 -54h-10q-17 0 -50 -1.5t-51 -1.5q-28 0 -28 17zM245 364q0 -11 1 -11l3 -1q7 -1 10 -1q96 0 104 12v16q0 13 -2 20l-18 179q-2 16 -31 16q-7 0 -37 -2q-10 -4 -15 -33
t-6.5 -82t-2.5 -60q0 -8 -3 -25.5t-3 -27.5zM360 834q0 -26 -42 -26q-20 0 -68 40t-48 60q0 17 24 33t44 16q17 0 53.5 -51.5t36.5 -71.5z" />
    <glyph glyph-name="Aacute" unicode="&#xc1;" horiz-adv-x="606" 
d="M20 27v6l34 161q4 10 6.5 20.5t4 22.5t3.5 20q6 27 13.5 71.5t16.5 80.5q9 46 34 140.5t34 144.5q6 32 25.5 42.5t59.5 13.5l56 4q7 0 76 -8q2 0 20 -2t20 -2q16 -2 28.5 -29t12.5 -45l118 -603q0 -4 2 -14.5t2 -16.5q0 -16 -35 -16q-8 0 -24.5 1.5t-23.5 1.5t-19 -1.5
t-18 -1.5q-29 0 -41 12t-17 43l-27 151q-2 10 -21 10q-27 -1 -129 -10q-15 -1 -20.5 -53t-15.5 -104t-36 -54h-10q-17 0 -50 -1.5t-51 -1.5q-28 0 -28 17zM245 364q0 -11 1 -11l3 -1q7 -1 10 -1q96 0 104 12v16q0 13 -2 20l-18 179q-2 16 -31 16q-7 0 -37 -2q-10 -4 -15 -33
t-6.5 -82t-2.5 -60q0 -8 -3 -25.5t-3 -27.5zM202 834q0 20 36.5 71.5t53.5 51.5q20 0 44 -16t24 -33q0 -20 -48 -60t-68 -40q-42 0 -42 26z" />
    <glyph glyph-name="Acircumflex" unicode="&#xc2;" horiz-adv-x="606" 
d="M20 27v6l34 161q4 10 6.5 20.5t4 22.5t3.5 20q6 27 13.5 71.5t16.5 80.5q9 46 34 140.5t34 144.5q6 32 25.5 42.5t59.5 13.5l56 4q7 0 76 -8q2 0 20 -2t20 -2q16 -2 28.5 -29t12.5 -45l118 -603q0 -4 2 -14.5t2 -16.5q0 -16 -35 -16q-8 0 -24.5 1.5t-23.5 1.5t-19 -1.5
t-18 -1.5q-29 0 -41 12t-17 43l-27 151q-2 10 -21 10q-27 -1 -129 -10q-15 -1 -20.5 -53t-15.5 -104t-36 -54h-10q-17 0 -50 -1.5t-51 -1.5q-28 0 -28 17zM245 364q0 -11 1 -11l3 -1q7 -1 10 -1q96 0 104 12v16q0 13 -2 20l-18 179q-2 16 -31 16q-7 0 -37 -2q-10 -4 -15 -33
t-6.5 -82t-2.5 -60q0 -8 -3 -25.5t-3 -27.5zM170 827q0 16 10.5 32.5t29 36.5t24.5 28q19 19 59 22t65 -7q26 -10 60 -89q2 -3 7 -8t8 -9t3 -9q0 -15 -47 -15l-7 1q-6 0 -14 0.5t-12 0.5q-18 5 -32.5 35.5t-22.5 30.5q-3 0 -3 -2q-8 -12 -15.5 -27t-10 -19t-10.5 -9.5
t-19 -6.5t-33 -2q-1 0 -3.5 0.5t-3.5 0.5q-33 4 -33 15z" />
    <glyph glyph-name="Atilde" unicode="&#xc3;" horiz-adv-x="606" 
d="M20 27v6l34 161q4 10 6.5 20.5t4 22.5t3.5 20q6 27 13.5 71.5t16.5 80.5q9 46 34 140.5t34 144.5q6 32 25.5 42.5t59.5 13.5l56 4q7 0 76 -8q2 0 20 -2t20 -2q16 -2 28.5 -29t12.5 -45l118 -603q0 -4 2 -14.5t2 -16.5q0 -16 -35 -16q-8 0 -24.5 1.5t-23.5 1.5t-19 -1.5
t-18 -1.5q-29 0 -41 12t-17 43l-27 151q-2 10 -21 10q-27 -1 -129 -10q-15 -1 -20.5 -53t-15.5 -104t-36 -54h-10q-17 0 -50 -1.5t-51 -1.5q-28 0 -28 17zM245 364q0 -11 1 -11l3 -1q7 -1 10 -1q96 0 104 12v16q0 13 -2 20l-18 179q-2 16 -31 16q-7 0 -37 -2q-10 -4 -15 -33
t-6.5 -82t-2.5 -60q0 -8 -3 -25.5t-3 -27.5zM276 841q-2 2 -6 2q-9 0 -22.5 -16t-27.5 -16q-13 0 -36 7.5t-23 18.5q0 27 29 54t60 27q25 0 53 -19t40 -19q16 0 24.5 15.5t18.5 15.5q14 0 37 -8.5t23 -19.5q0 -6 -2 -9q-8 -18 -13.5 -27t-15.5 -21.5t-23 -18t-30 -5.5
q-47 0 -86 39z" />
    <glyph glyph-name="Adieresis" unicode="&#xc4;" horiz-adv-x="606" 
d="M20 27v6l34 161q4 10 6.5 20.5t4 22.5t3.5 20q6 27 13.5 71.5t16.5 80.5q9 46 34 140.5t34 144.5q6 32 25.5 42.5t59.5 13.5l56 4q7 0 76 -8q2 0 20 -2t20 -2q16 -2 28.5 -29t12.5 -45l118 -603q0 -4 2 -14.5t2 -16.5q0 -16 -35 -16q-8 0 -24.5 1.5t-23.5 1.5t-19 -1.5
t-18 -1.5q-29 0 -41 12t-17 43l-27 151q-2 10 -21 10q-27 -1 -129 -10q-15 -1 -20.5 -53t-15.5 -104t-36 -54h-10q-17 0 -50 -1.5t-51 -1.5q-28 0 -28 17zM245 364q0 -11 1 -11l3 -1q7 -1 10 -1q96 0 104 12v16q0 13 -2 20l-18 179q-2 16 -31 16q-7 0 -37 -2q-10 -4 -15 -33
t-6.5 -82t-2.5 -60q0 -8 -3 -25.5t-3 -27.5zM156 865q0 19 16 32t36 13q22 0 39 -17t17 -38q0 -18 -16.5 -33.5t-33.5 -15.5q-21 0 -39.5 19t-18.5 40zM320 875q0 24 18 37.5t43 13.5q29 -2 41.5 -30t-1 -55t-46.5 -27q-22 0 -38.5 20t-16.5 41z" />
    <glyph glyph-name="Aring" unicode="&#xc5;" horiz-adv-x="606" 
d="M217 790q0 37 26.5 70t62.5 33q35 0 60.5 -24t25.5 -59q0 -38 -16 -64h7q2 0 20 -2t20 -2q16 -2 28.5 -29t12.5 -45l118 -603q0 -4 2 -14.5t2 -16.5q0 -16 -35 -16q-8 0 -24.5 1.5t-23.5 1.5t-19 -1.5t-18 -1.5q-29 0 -41 12t-17 43l-27 151q-2 10 -21 10
q-27 -1 -129 -10q-15 -1 -20.5 -53t-15.5 -104t-36 -54h-10q-17 0 -50 -1.5t-51 -1.5q-28 0 -28 17v6l34 161q4 10 6.5 20.5t4 22.5t3.5 20q6 27 13.5 71.5t16.5 80.5q9 46 34 140.5t34 144.5q5 27 19.5 38.5t42.5 15.5q-11 17 -11 42zM245 364q0 -11 1 -11l3 -1q7 -1 10 -1
q96 0 104 12v16q0 13 -2 20l-18 179q-2 16 -31 16q-7 0 -37 -2q-10 -4 -15 -33t-6.5 -82t-2.5 -60q0 -8 -3 -25.5t-3 -27.5zM309 834q-13 0 -19.5 -13t-0.5 -25.5t25 -12.5q9 0 13.5 3.5t5.5 8t1 12.5q0 10 -7 18.5t-18 8.5z" />
    <glyph glyph-name="AE" unicode="&#xc6;" horiz-adv-x="710" 
d="M374 31q-10 5 -19.5 34.5t-9.5 37.5l-6 130q-24 -1 -63 -5t-45 -4q-15 -1 -20.5 -53t-15.5 -104t-36 -54h-10q-17 0 -50 -1.5t-51 -1.5q-28 0 -28 17v6l34 161q4 10 6.5 20.5t4 22.5t3.5 20q6 27 13.5 71.5t16.5 80.5q9 46 34 140.5t34 144.5q6 32 25.5 42.5t59.5 13.5
l56 4q7 0 74 -8q13 0 41.5 -5.5t45.5 -5.5q19 0 43.5 3.5t49.5 3.5q8 0 19.5 -0.5t14.5 -0.5q11 0 17 3q41 0 59.5 -18.5t18.5 -59.5t-11 -63t-45 -22q-12 0 -35 0.5t-34 0.5q-7 0 -34.5 -1.5t-42.5 -1.5q-8 -2 -8 -21v-6q0 -6 1 -36t1 -49q4 -11 42 -11q8 0 22 0.5t20 0.5
q12 0 20 -10t8 -22v-75q0 -11 -10.5 -21.5t-21.5 -10.5h-68q-1 0 -4.5 -3t-3.5 -4v-123q0 -4 8 -8q1 0 10.5 0.5t16.5 0.5q37 0 132 -11q34 -9 34 -77q0 -53 -25 -69.5t-75 -16.5q-143 0 -213 24zM245 364q0 -11 1 -11l3 -1q7 -1 10 -1q48 0 74 3l-8 169q0 2 -0.5 8t-0.5 10
q0 8 0.5 22t0.5 18q0 1 0.5 5t0.5 6q-5 2 -14 2q-7 0 -37 -2q-10 -4 -15 -33t-6.5 -82t-2.5 -60q0 -8 -3 -25.5t-3 -27.5z" />
    <glyph glyph-name="Ccedilla" unicode="&#xc7;" horiz-adv-x="533" 
d="M234 -124q4 0 15 -0.5t18 -0.5t16 1t14 5.5t6 11.5q0 16 -7 16h-68q-10 0 -11 22.5t4 75.5q-59 13 -100.5 51.5t-62.5 93.5t-29.5 108t-8.5 111q0 54 26 158q0 1 2 6t2 6l36 75q22 46 80.5 80t110.5 34q74 0 110 -30q66 -50 105 -127q2 -4 2 -7q0 -36 -37.5 -53.5
t-80.5 -17.5q-16 0 -26.5 10.5t-16 22.5t-18 22.5t-31.5 10.5q-30 0 -49.5 -16.5t-28 -47.5t-11 -58.5t-2.5 -64.5q0 -57 4 -85q1 -3 6.5 -32t11 -48t20 -37.5t33.5 -18.5q32 0 47.5 18t31.5 57l4 10q1 1 3 6t3 6.5t3 5t4.5 5t6 2.5t7.5 1q12 0 37 -7t34 -8q2 0 13 -1
t17.5 -2t15.5 -3.5t13.5 -8t4.5 -13.5q0 -13 -9 -33q-54 -166 -193 -184q-2 -32 6.5 -44.5t22.5 -13t27.5 -2t22 -18t6.5 -52.5q-3 -41 -40 -61.5t-83 -20.5q-49 0 -63 26q-10 18 10 48q10 14 14 10z" />
    <glyph glyph-name="Egrave" unicode="&#xc8;" horiz-adv-x="406" 
d="M70 25q-10 5 -19.5 34.5t-9.5 37.5l-20 420q0 2 -0.5 8t-0.5 10q0 8 0.5 22t0.5 18q1 5 2 32.5t3.5 48t12.5 45t28 35.5l8 4q14 0 43.5 -5.5t45.5 -5.5q18 0 43 3.5t50 3.5q8 0 19.5 -0.5t14.5 -0.5q11 0 17 3q41 0 59.5 -18.5t18.5 -59.5t-11 -63t-45 -22q-12 0 -35 0.5
t-34 0.5q-7 0 -34.5 -1.5t-42.5 -1.5q-8 -2 -8 -21v-6q0 -6 1 -36t1 -49q4 -11 42 -11q8 0 22 0.5t20 0.5q12 0 20 -10t8 -22v-75q0 -11 -10.5 -21.5t-21.5 -10.5h-68q-1 0 -4.5 -3t-3.5 -4v-123q0 -4 8 -8q1 0 10.5 0.5t16.5 0.5q37 0 132 -11q34 -9 34 -77
q0 -53 -25 -69.5t-75 -16.5q-143 0 -213 24zM260 806q0 -26 -42 -26q-20 0 -68 40t-48 60q0 17 24 33t44 16q17 0 53.5 -51.5t36.5 -71.5z" />
    <glyph glyph-name="Eacute" unicode="&#xc9;" horiz-adv-x="406" 
d="M70 25q-10 5 -19.5 34.5t-9.5 37.5l-20 420q0 2 -0.5 8t-0.5 10q0 8 0.5 22t0.5 18q1 5 2 32.5t3.5 48t12.5 45t28 35.5l8 4q14 0 43.5 -5.5t45.5 -5.5q18 0 43 3.5t50 3.5q8 0 19.5 -0.5t14.5 -0.5q11 0 17 3q41 0 59.5 -18.5t18.5 -59.5t-11 -63t-45 -22q-12 0 -35 0.5
t-34 0.5q-7 0 -34.5 -1.5t-42.5 -1.5q-8 -2 -8 -21v-6q0 -6 1 -36t1 -49q4 -11 42 -11q8 0 22 0.5t20 0.5q12 0 20 -10t8 -22v-75q0 -11 -10.5 -21.5t-21.5 -10.5h-68q-1 0 -4.5 -3t-3.5 -4v-123q0 -4 8 -8q1 0 10.5 0.5t16.5 0.5q37 0 132 -11q34 -9 34 -77
q0 -53 -25 -69.5t-75 -16.5q-143 0 -213 24zM102 806q0 20 36.5 71.5t53.5 51.5q20 0 44 -16t24 -33q0 -20 -48 -60t-68 -40q-42 0 -42 26z" />
    <glyph glyph-name="Ecircumflex" unicode="&#xca;" horiz-adv-x="406" 
d="M70 25q-10 5 -19.5 34.5t-9.5 37.5l-20 420q0 2 -0.5 8t-0.5 10q0 8 0.5 22t0.5 18q1 5 2 32.5t3.5 48t12.5 45t28 35.5l8 4q14 0 43.5 -5.5t45.5 -5.5q18 0 43 3.5t50 3.5q8 0 19.5 -0.5t14.5 -0.5q11 0 17 3q41 0 59.5 -18.5t18.5 -59.5t-11 -63t-45 -22q-12 0 -35 0.5
t-34 0.5q-7 0 -34.5 -1.5t-42.5 -1.5q-8 -2 -8 -21v-6q0 -6 1 -36t1 -49q4 -11 42 -11q8 0 22 0.5t20 0.5q12 0 20 -10t8 -22v-75q0 -11 -10.5 -21.5t-21.5 -10.5h-68q-1 0 -4.5 -3t-3.5 -4v-123q0 -4 8 -8q1 0 10.5 0.5t16.5 0.5q37 0 132 -11q34 -9 34 -77
q0 -53 -25 -69.5t-75 -16.5q-143 0 -213 24zM70 799q0 16 10.5 32.5t29 36.5t24.5 28q19 19 59 22t65 -7q26 -10 60 -89q2 -3 7 -8t8 -9t3 -9q0 -15 -47 -15l-7 1q-6 0 -14 0.5t-12 0.5q-18 5 -32.5 35.5t-22.5 30.5q-3 0 -3 -2q-8 -12 -15.5 -27t-10 -19t-10.5 -9.5
t-19 -6.5t-33 -2q-1 0 -3.5 0.5t-3.5 0.5q-33 4 -33 15z" />
    <glyph glyph-name="Edieresis" unicode="&#xcb;" horiz-adv-x="406" 
d="M70 25q-10 5 -19.5 34.5t-9.5 37.5l-20 420q0 2 -0.5 8t-0.5 10q0 8 0.5 22t0.5 18q1 5 2 32.5t3.5 48t12.5 45t28 35.5l8 4q14 0 43.5 -5.5t45.5 -5.5q18 0 43 3.5t50 3.5q8 0 19.5 -0.5t14.5 -0.5q11 0 17 3q41 0 59.5 -18.5t18.5 -59.5t-11 -63t-45 -22q-12 0 -35 0.5
t-34 0.5q-7 0 -34.5 -1.5t-42.5 -1.5q-8 -2 -8 -21v-6q0 -6 1 -36t1 -49q4 -11 42 -11q8 0 22 0.5t20 0.5q12 0 20 -10t8 -22v-75q0 -11 -10.5 -21.5t-21.5 -10.5h-68q-1 0 -4.5 -3t-3.5 -4v-123q0 -4 8 -8q1 0 10.5 0.5t16.5 0.5q37 0 132 -11q34 -9 34 -77
q0 -53 -25 -69.5t-75 -16.5q-143 0 -213 24zM56 837q0 19 16 32t36 13q22 0 39 -17t17 -38q0 -18 -16.5 -33.5t-33.5 -15.5q-21 0 -39.5 19t-18.5 40zM220 847q0 24 18 37.5t43 13.5q29 -2 41.5 -30t-1 -55t-46.5 -27q-22 0 -38.5 20t-16.5 41z" />
    <glyph glyph-name="Igrave" unicode="&#xcc;" horiz-adv-x="208" 
d="M20 432q0 30 1 91t1 91v23q4 37 20 46t79 14q29 0 39 -9.5t13 -37.5q4 -74 5.5 -222.5t6.5 -233.5q0 -30 1.5 -80t1.5 -76q0 -36 -20 -39q-37 -7 -58 -7h-15q-55 0 -56 30l-18 357l-1 11v23v19zM144 770q0 -26 -42 -26q-20 0 -68 40t-48 60q0 17 24 33t44 16
q17 0 53.5 -51.5t36.5 -71.5z" />
    <glyph glyph-name="Iacute" unicode="&#xcd;" horiz-adv-x="208" 
d="M20 432q0 30 1 91t1 91v23q4 37 20 46t79 14q29 0 39 -9.5t13 -37.5q4 -74 5.5 -222.5t6.5 -233.5q0 -30 1.5 -80t1.5 -76q0 -36 -20 -39q-37 -7 -58 -7h-15q-55 0 -56 30l-18 357l-1 11v23v19zM-14 770q0 20 36.5 71.5t53.5 51.5q20 0 44 -16t24 -33q0 -20 -48 -60
t-68 -40q-42 0 -42 26z" />
    <glyph glyph-name="Icircumflex" unicode="&#xce;" horiz-adv-x="208" 
d="M20 432q0 30 1 91t1 91v23q4 37 20 46t79 14q29 0 39 -9.5t13 -37.5q4 -74 5.5 -222.5t6.5 -233.5q0 -30 1.5 -80t1.5 -76q0 -36 -20 -39q-37 -7 -58 -7h-15q-55 0 -56 30l-18 357l-1 11v23v19zM-46 763q0 16 10.5 32.5t29 36.5t24.5 28q19 19 59 22t65 -7q26 -10 60 -89
q2 -3 7 -8t8 -9t3 -9q0 -15 -47 -15l-7 1q-6 0 -14 0.5t-12 0.5q-18 5 -32.5 35.5t-22.5 30.5q-3 0 -3 -2q-8 -12 -15.5 -27t-10 -19t-10.5 -9.5t-19 -6.5t-33 -2q-1 0 -3.5 0.5t-3.5 0.5q-33 4 -33 15z" />
    <glyph glyph-name="Idieresis" unicode="&#xcf;" horiz-adv-x="208" 
d="M20 432q0 30 1 91t1 91v23q4 37 20 46t79 14q29 0 39 -9.5t13 -37.5q4 -74 5.5 -222.5t6.5 -233.5q0 -30 1.5 -80t1.5 -76q0 -36 -20 -39q-37 -7 -58 -7h-15q-55 0 -56 30l-18 357l-1 11v23v19zM-60 801q0 19 16 32t36 13q22 0 39 -17t17 -38q0 -18 -16.5 -33.5
t-33.5 -15.5q-21 0 -39.5 19t-18.5 40zM104 811q0 24 18 37.5t43 13.5q29 -2 41.5 -30t-1 -55t-46.5 -27q-22 0 -38.5 20t-16.5 41z" />
    <glyph glyph-name="Eth" unicode="&#xd0;" horiz-adv-x="514" 
d="M21 363q0 46 33 51v46v48.5v34.5v13q0 88 8 132q5 25 24 32.5t49 7.5q118 0 186.5 -32t110.5 -117t62 -243q0 -84 -28 -164q-14 -41 -83 -101l-10 -8q-69 -46 -218 -46h-55q-34 8 -36 76v5q-4 40 -4 104q0 2 -1 10t-1 10l-6 87q-11 0 -18 4t-9.5 14t-3 16t-0.5 20z
M209 162q1 -9 10 -12q37 0 64 11.5t41 28t22 43.5t9.5 49t1.5 54v32q0 61 -39.5 134.5t-90.5 73.5q-18 0 -23 -10t-5 -30v-119h27q35 -7 35 -67q0 -21 -33 -24q-11 -2 -27 -4q5 -112 8 -160z" />
    <glyph glyph-name="Ntilde" unicode="&#xd1;" horiz-adv-x="583" 
d="M357 61q-34 66 -65 127.5t-45 90t-26 52t-17.5 31.5t-11.5 11q-1 -5 -1 -6v-4q0 -12 3.5 -32t3.5 -28q14 -202 14 -230q0 -51 -8.5 -62t-56.5 -16q-59 0 -82.5 13.5t-44.5 53.5v555q0 37 13 71t40 34h78q18 0 45 -54q2 -2 2 -3q50 -101 165 -307q3 -6 10 -24t13 -30
t11 -12q4 0 4 8q0 54 -2.5 144t-2.5 146q0 121 39 127q20 3 68 3q35 0 47.5 -19t12.5 -55q0 -44 -3.5 -113t-3.5 -74q-10 -185 -10 -344q0 -13 0.5 -36.5t0.5 -35.5q-4 -39 -25 -45q-44 -6 -63 -6q-55 0 -72 21q-7 8 -16 25t-14 23zM254 787q-2 2 -6 2q-9 0 -22.5 -16
t-27.5 -16q-13 0 -36 7.5t-23 18.5q0 27 29 54t60 27q25 0 53 -19t40 -19q16 0 24.5 15.5t18.5 15.5q14 0 37 -8.5t23 -19.5q0 -6 -2 -9q-9 -18 -14 -27t-15 -21.5t-23 -18t-30 -5.5q-47 0 -86 39z" />
    <glyph glyph-name="Ograve" unicode="&#xd2;" horiz-adv-x="517" 
d="M20 326v23q0 23 7 100q0 5 2 32.5t3 36.5l3.5 31.5t6 35.5t9 30.5t12.5 32.5q0 2 4 6q67 73 125 77h54l16 4l4 1h10.5h8.5q132 0 190 -75q22 -38 22 -120q0 -42 -1 -62l-11 -239q-8 -146 -74 -208q-88 -37 -170 -37q-47 0 -99 12t-75 40q0 1 -4 5q-7 12 -11.5 22t-8 20
t-5.5 15.5t-3.5 16t-2 14.5t-1.5 17.5t-2 19.5q-9 75 -9 149zM156 331v-53q0 -51 11 -84q8 -24 30 -36.5t40.5 -14.5t47.5 -2q37 0 58.5 21.5t21.5 79.5v38q0 38 1 113t1 114q0 1 -2 25t-4 36q-3 21 -24.5 31t-45.5 10q-21 0 -83 -16q-44 -17 -47 -108q-5 -102 -5 -154z
M320 810q0 -26 -42 -26q-20 0 -68 40t-48 60q0 17 24 33t44 16q17 0 53.5 -51.5t36.5 -71.5z" />
    <glyph glyph-name="Oacute" unicode="&#xd3;" horiz-adv-x="517" 
d="M20 326v23q0 23 7 100q0 5 2 32.5t3 36.5l3.5 31.5t6 35.5t9 30.5t12.5 32.5q0 2 4 6q67 73 125 77h54l16 4l4 1h10.5h8.5q132 0 190 -75q22 -38 22 -120q0 -42 -1 -62l-11 -239q-8 -146 -74 -208q-88 -37 -170 -37q-47 0 -99 12t-75 40q0 1 -4 5q-7 12 -11.5 22t-8 20
t-5.5 15.5t-3.5 16t-2 14.5t-1.5 17.5t-2 19.5q-9 75 -9 149zM156 331v-53q0 -51 11 -84q8 -24 30 -36.5t40.5 -14.5t47.5 -2q37 0 58.5 21.5t21.5 79.5v38q0 38 1 113t1 114q0 1 -2 25t-4 36q-3 21 -24.5 31t-45.5 10q-21 0 -83 -16q-44 -17 -47 -108q-5 -102 -5 -154z
M162 810q0 20 36.5 71.5t53.5 51.5q20 0 44 -16t24 -33q0 -20 -48 -60t-68 -40q-42 0 -42 26z" />
    <glyph glyph-name="Ocircumflex" unicode="&#xd4;" horiz-adv-x="517" 
d="M20 326v23q0 23 7 100q0 5 2 32.5t3 36.5l3.5 31.5t6 35.5t9 30.5t12.5 32.5q0 2 4 6q67 73 125 77h54l16 4l4 1h10.5h8.5q132 0 190 -75q22 -38 22 -120q0 -42 -1 -62l-11 -239q-8 -146 -74 -208q-88 -37 -170 -37q-47 0 -99 12t-75 40q0 1 -4 5q-7 12 -11.5 22t-8 20
t-5.5 15.5t-3.5 16t-2 14.5t-1.5 17.5t-2 19.5q-9 75 -9 149zM156 331v-53q0 -51 11 -84q8 -24 30 -36.5t40.5 -14.5t47.5 -2q37 0 58.5 21.5t21.5 79.5v38q0 38 1 113t1 114q0 1 -2 25t-4 36q-3 21 -24.5 31t-45.5 10q-21 0 -83 -16q-44 -17 -47 -108q-5 -102 -5 -154z
M130 803q0 16 10.5 32.5t29 36.5t24.5 28q19 19 59 22t65 -7q26 -10 60 -89q2 -3 7 -8t8 -9t3 -9q0 -15 -47 -15l-7 1q-6 0 -14 0.5t-12 0.5q-18 5 -32.5 35.5t-22.5 30.5q-3 0 -3 -2q-8 -12 -15.5 -27t-10 -19t-10.5 -9.5t-19 -6.5t-33 -2q-1 0 -3.5 0.5t-3.5 0.5
q-33 4 -33 15z" />
    <glyph glyph-name="Otilde" unicode="&#xd5;" horiz-adv-x="517" 
d="M20 326v23q0 23 7 100q0 5 2 32.5t3 36.5l3.5 31.5t6 35.5t9 30.5t12.5 32.5q0 2 4 6q67 73 125 77h54l16 4l4 1h10.5h8.5q132 0 190 -75q22 -38 22 -120q0 -42 -1 -62l-11 -239q-8 -146 -74 -208q-88 -37 -170 -37q-47 0 -99 12t-75 40q0 1 -4 5q-7 12 -11.5 22t-8 20
t-5.5 15.5t-3.5 16t-2 14.5t-1.5 17.5t-2 19.5q-9 75 -9 149zM156 331v-53q0 -51 11 -84q8 -24 30 -36.5t40.5 -14.5t47.5 -2q37 0 58.5 21.5t21.5 79.5v38q0 38 1 113t1 114q0 1 -2 25t-4 36q-3 21 -24.5 31t-45.5 10q-21 0 -83 -16q-44 -17 -47 -108q-5 -102 -5 -154z
M236 817q-2 2 -6 2q-9 0 -22.5 -16t-27.5 -16q-13 0 -36 7.5t-23 18.5q0 27 29 54t60 27q25 0 53 -19t40 -19q16 0 24.5 15.5t18.5 15.5q14 0 37 -8.5t23 -19.5q0 -6 -2 -9q-8 -18 -13.5 -27t-15.5 -21.5t-23 -18t-30 -5.5q-47 0 -86 39z" />
    <glyph glyph-name="Odieresis" unicode="&#xd6;" horiz-adv-x="517" 
d="M20 326v23q0 23 7 100q0 5 2 32.5t3 36.5l3.5 31.5t6 35.5t9 30.5t12.5 32.5q0 2 4 6q67 73 125 77h54l16 4l4 1h10.5h8.5q132 0 190 -75q22 -38 22 -120q0 -42 -1 -62l-11 -239q-8 -146 -74 -208q-88 -37 -170 -37q-47 0 -99 12t-75 40q0 1 -4 5q-7 12 -11.5 22t-8 20
t-5.5 15.5t-3.5 16t-2 14.5t-1.5 17.5t-2 19.5q-9 75 -9 149zM156 331v-53q0 -51 11 -84q8 -24 30 -36.5t40.5 -14.5t47.5 -2q37 0 58.5 21.5t21.5 79.5v38q0 38 1 113t1 114q0 1 -2 25t-4 36q-3 21 -24.5 31t-45.5 10q-21 0 -83 -16q-44 -17 -47 -108q-5 -102 -5 -154z
M116 841q0 19 16 32t36 13q22 0 39 -17t17 -38q0 -18 -16.5 -33.5t-33.5 -15.5q-21 0 -39.5 19t-18.5 40zM280 851q0 24 18 37.5t43 13.5q29 -2 41.5 -30t-1 -55t-46.5 -27q-22 0 -38.5 20t-16.5 41z" />
    <glyph glyph-name="multiply" unicode="&#xd7;" horiz-adv-x="422" 
d="M382 428l-85 -87q50 -52 85 -87q38 -35 1 -70q-26 -25 -42 -29t-34.5 8t-57.5 51l-38 39l-38 -39q-39 -39 -57.5 -51t-34.5 -8t-42 29q-37 35 1 70q35 35 85 87l-85 87q-29 30 15 71q34 32 59 21t97 -87q51 54 74.5 72t40.5 17.5t41 -23.5q44 -41 15 -71z" />
    <glyph glyph-name="Oslash" unicode="&#xd8;" horiz-adv-x="517" 
d="M20 326v23q0 23 7 100q0 5 2 32.5t3 36.5l3.5 31.5t6 35.5t9 30.5t12.5 32.5q0 2 4 6q67 73 125 77h54l16 4l4 1h10.5h8.5q132 0 190 -75q22 -38 22 -120q0 -42 -1 -62l-11 -239q-8 -146 -74 -208q-88 -37 -170 -37q-47 0 -99 12t-75 40q0 1 -4 5q-7 12 -11.5 22t-8 20
t-5.5 15.5t-3.5 16t-2 14.5t-1.5 17.5t-2 19.5q-9 75 -9 149zM367 507q0 2 -1 10t-1.5 20.5t-1.5 20.5q-53 -236 -91 -417h13q37 0 58.5 21.5t21.5 79.5v38q0 38 1 113t1 114zM156 331v-53q0 -47 10 -81q26 135 86 407q-18 -4 -44 -11q-44 -17 -47 -108q-5 -102 -5 -154z
" />
    <glyph glyph-name="Ugrave" unicode="&#xd9;" horiz-adv-x="449" 
d="M51 108q-8 3 -19.5 99t-11.5 134q0 185 8 336q6 28 52 28q62 0 76 -12.5t14 -53.5q0 -22 -1.5 -65t-1.5 -64q0 -24 -2 -83t-2 -102t2 -91.5t12 -76t27 -29.5q52 0 68 13.5t21 56.5q8 219 8 412q0 9 -2 26.5t-2 26.5q0 33 18 37q36 8 79 8q24 0 30 -20q5 -85 5 -208
q0 -109 -2.5 -179.5t-10 -126.5t-18.5 -85.5t-32 -49t-46 -25t-65 -5.5q-162 0 -204 99zM282 762q0 -26 -42 -26q-20 0 -68 40t-48 60q0 17 24 33t44 16q17 0 53.5 -51.5t36.5 -71.5z" />
    <glyph glyph-name="Uacute" unicode="&#xda;" horiz-adv-x="449" 
d="M51 108q-8 3 -19.5 99t-11.5 134q0 185 8 336q6 28 52 28q62 0 76 -12.5t14 -53.5q0 -22 -1.5 -65t-1.5 -64q0 -24 -2 -83t-2 -102t2 -91.5t12 -76t27 -29.5q52 0 68 13.5t21 56.5q8 219 8 412q0 9 -2 26.5t-2 26.5q0 33 18 37q36 8 79 8q24 0 30 -20q5 -85 5 -208
q0 -109 -2.5 -179.5t-10 -126.5t-18.5 -85.5t-32 -49t-46 -25t-65 -5.5q-162 0 -204 99zM124 762q0 20 36.5 71.5t53.5 51.5q20 0 44 -16t24 -33q0 -20 -48 -60t-68 -40q-42 0 -42 26z" />
    <glyph glyph-name="Ucircumflex" unicode="&#xdb;" horiz-adv-x="449" 
d="M51 108q-8 3 -19.5 99t-11.5 134q0 185 8 336q6 28 52 28q62 0 76 -12.5t14 -53.5q0 -22 -1.5 -65t-1.5 -64q0 -24 -2 -83t-2 -102t2 -91.5t12 -76t27 -29.5q52 0 68 13.5t21 56.5q8 219 8 412q0 9 -2 26.5t-2 26.5q0 33 18 37q36 8 79 8q24 0 30 -20q5 -85 5 -208
q0 -109 -2.5 -179.5t-10 -126.5t-18.5 -85.5t-32 -49t-46 -25t-65 -5.5q-162 0 -204 99zM92 755q0 16 10.5 32.5t29 36.5t24.5 28q19 19 59 22t65 -7q26 -10 60 -89q2 -3 7 -8t8 -9t3 -9q0 -15 -47 -15l-7 1q-6 0 -14 0.5t-12 0.5q-18 5 -32.5 35.5t-22.5 30.5q-3 0 -3 -2
q-8 -12 -15.5 -27t-10 -19t-10.5 -9.5t-19 -6.5t-33 -2q-1 0 -3.5 0.5t-3.5 0.5q-33 4 -33 15z" />
    <glyph glyph-name="Udieresis" unicode="&#xdc;" horiz-adv-x="449" 
d="M51 108q-8 3 -19.5 99t-11.5 134q0 185 8 336q6 28 52 28q62 0 76 -12.5t14 -53.5q0 -22 -1.5 -65t-1.5 -64q0 -24 -2 -83t-2 -102t2 -91.5t12 -76t27 -29.5q52 0 68 13.5t21 56.5q8 219 8 412q0 9 -2 26.5t-2 26.5q0 33 18 37q36 8 79 8q24 0 30 -20q5 -85 5 -208
q0 -109 -2.5 -179.5t-10 -126.5t-18.5 -85.5t-32 -49t-46 -25t-65 -5.5q-162 0 -204 99zM78 793q0 19 16 32t36 13q22 0 39 -17t17 -38q0 -18 -16.5 -33.5t-33.5 -15.5q-21 0 -39.5 19t-18.5 40zM242 803q0 24 18 37.5t43 13.5q29 -2 41.5 -30t-1 -55t-46.5 -27
q-22 0 -38.5 20t-16.5 41z" />
    <glyph glyph-name="Yacute" unicode="&#xdd;" horiz-adv-x="576" 
d="M214 212l-14 149q-1 13 -7.5 26t-18 29.5t-15.5 22.5q-14 24 -30 53t-34.5 64t-28.5 54q-5 9 -18.5 26.5t-20.5 32t-7 30.5q0 34 57 34h57q12 0 28 -18.5t16 -29.5l22.5 -40.5t24.5 -48.5q1 -2 8 -20t13 -32t13.5 -31t13.5 -26.5t9 -9.5t7 5t9 14t9 17t8.5 16.5t5.5 11.5
q55 107 59 116q17 51 33 64.5t50 13.5h18q75 0 75 -27l-1 -4q-1 -3 -1 -4q-9 -17 -25 -44t-23 -40l-34 -65q-3 -5 -11.5 -16t-11.5 -17q-49 -86 -94 -159v-326q0 -38 -54 -38l-9 -1h-16q-62 0 -62 27v191zM184 778q0 20 36.5 71.5t53.5 51.5q20 0 44 -16t24 -33
q0 -20 -48 -60t-68 -40q-42 0 -42 26z" />
    <glyph glyph-name="Thorn" unicode="&#xde;" horiz-adv-x="413" 
d="M32 37q0 4 -1 27.5t-2 27.5q-9 504 -9 517q0 33 3 76q2 21 7 28.5t26 14.5h83q35 0 35 -66q0 -10 -1 -28t-1 -28l1 -10l1 -5q40 -1 64 -3.5t58.5 -16t52.5 -37.5q5 -5 13.5 -20t9.5 -16l18 -63q3 -3 3 -28q0 -158 -53 -204q-17 -15 -52 -25q-7 -2 -37.5 -7.5t-50.5 -12.5
t-20 -19v-91q0 -23 -11.5 -34t-23.5 -12.5t-38 -1.5h-7q-64 0 -68 37zM158 328v-18q0 -36 12 -36h63q15 0 24 13t9 28v93q0 32 -29.5 53t-61.5 21q-15 0 -15 -24q0 -20 -1 -64t-1 -66z" />
    <glyph glyph-name="germandbls" unicode="&#xdf;" horiz-adv-x="477" 
d="M24 57q0 8 -2 52.5t-2 52.5q0 210 10 393l2 10q6 37 11 57.5t16.5 48t32 44t50.5 24.5q43 10 48 10q91 0 137 -39t46 -113q0 -45 -19 -107q-20 -60 -20 -75q0 -19 18.5 -51t45.5 -72t38 -63q3 -7 21 -78q0 -66 -35.5 -108.5t-98.5 -42.5q-12 0 -36.5 2t-37.5 2
q-14 7 -21.5 26t-7.5 36q0 15 4.5 26t9 17.5t17.5 12t18 7t24 5.5t23 5q12 2 12 16q0 33 -20.5 61.5t-51.5 57t-43 48.5q-22 38 -22 91q0 24 27 69t27 71q0 24 -7.5 33.5t-29.5 9.5q-43 0 -43 -76t3 -227.5t3 -226.5q0 -39 -18.5 -53.5t-73.5 -14.5q-29 0 -41 15t-14 44z
" />
    <glyph glyph-name="agrave" unicode="&#xe0;" horiz-adv-x="551" 
d="M20 36v11l21 130q2 6 2.5 14t1.5 12q1 12 10.5 58t9.5 74l29 236q0 1 1 5t1 5q1 7 2.5 26t2.5 29.5t3.5 28t6 27.5t8.5 21.5t12.5 18.5t17.5 9q91 11 163 11q49 0 74.5 -7.5t37.5 -36.5q9 -82 43 -244q5 -23 12.5 -98t18.5 -111l29 -162q4 -28 4 -50q0 -11 -6 -17.5
t-12 -8t-18.5 -2.5t-18.5 -2q-28 -7 -53 -7q-52 0 -54 23l-18 206l-7 32q-1 9 -12 9q-20 0 -69.5 -5.5t-56.5 -11.5q-3 -3 -3 -15l-8 -92q-7 -14 -7 -39q0 -1 -1.5 -33t-7.5 -55t-19 -23h-79q-8 -2 -24 -2q-21 0 -29 7.5t-8 28.5zM211 484v-88q0 -7 17 -7h13q81 0 81 15
q0 12 -3 19v43q0 15 -2 45q0 2 -1 12t-2 19.5t-2.5 22t-3.5 23t-5 19.5t-7.5 14.5t-9.5 5.5q-8 0 -25 -3.5t-26 -3.5q-14 -5 -18 -31t-3.5 -60t-2.5 -45zM314 824q0 -26 -42 -26q-20 0 -68 40t-48 60q0 17 24 33t44 16q17 0 53.5 -51.5t36.5 -71.5z" />
    <glyph glyph-name="aacute" unicode="&#xe1;" horiz-adv-x="551" 
d="M20 36v11l21 130q2 6 2.5 14t1.5 12q1 12 10.5 58t9.5 74l29 236q0 1 1 5t1 5q1 7 2.5 26t2.5 29.5t3.5 28t6 27.5t8.5 21.5t12.5 18.5t17.5 9q91 11 163 11q49 0 74.5 -7.5t37.5 -36.5q9 -82 43 -244q5 -23 12.5 -98t18.5 -111l29 -162q4 -28 4 -50q0 -11 -6 -17.5
t-12 -8t-18.5 -2.5t-18.5 -2q-28 -7 -53 -7q-52 0 -54 23l-18 206l-7 32q-1 9 -12 9q-20 0 -69.5 -5.5t-56.5 -11.5q-3 -3 -3 -15l-8 -92q-7 -14 -7 -39q0 -1 -1.5 -33t-7.5 -55t-19 -23h-79q-8 -2 -24 -2q-21 0 -29 7.5t-8 28.5zM211 484v-88q0 -7 17 -7h13q81 0 81 15
q0 12 -3 19v43q0 15 -2 45q0 2 -1 12t-2 19.5t-2.5 22t-3.5 23t-5 19.5t-7.5 14.5t-9.5 5.5q-8 0 -25 -3.5t-26 -3.5q-14 -5 -18 -31t-3.5 -60t-2.5 -45zM156 824q0 20 36.5 71.5t53.5 51.5q20 0 44 -16t24 -33q0 -20 -48 -60t-68 -40q-42 0 -42 26z" />
    <glyph glyph-name="acircumflex" unicode="&#xe2;" horiz-adv-x="551" 
d="M20 36v11l21 130q2 6 2.5 14t1.5 12q1 12 10.5 58t9.5 74l29 236q0 1 1 5t1 5q1 7 2.5 26t2.5 29.5t3.5 28t6 27.5t8.5 21.5t12.5 18.5t17.5 9q91 11 163 11q49 0 74.5 -7.5t37.5 -36.5q9 -82 43 -244q5 -23 12.5 -98t18.5 -111l29 -162q4 -28 4 -50q0 -11 -6 -17.5
t-12 -8t-18.5 -2.5t-18.5 -2q-28 -7 -53 -7q-52 0 -54 23l-18 206l-7 32q-1 9 -12 9q-20 0 -69.5 -5.5t-56.5 -11.5q-3 -3 -3 -15l-8 -92q-7 -14 -7 -39q0 -1 -1.5 -33t-7.5 -55t-19 -23h-79q-8 -2 -24 -2q-21 0 -29 7.5t-8 28.5zM211 484v-88q0 -7 17 -7h13q81 0 81 15
q0 12 -3 19v43q0 15 -2 45q0 2 -1 12t-2 19.5t-2.5 22t-3.5 23t-5 19.5t-7.5 14.5t-9.5 5.5q-8 0 -25 -3.5t-26 -3.5q-14 -5 -18 -31t-3.5 -60t-2.5 -45zM124 817q0 16 10.5 32.5t29 36.5t24.5 28q19 19 59 22t65 -7q26 -10 60 -89q2 -3 7 -8t8 -9t3 -9q0 -15 -47 -15l-7 1
q-6 0 -14 0.5t-12 0.5q-18 5 -32.5 35.5t-22.5 30.5q-3 0 -3 -2q-8 -12 -15.5 -27t-10 -19t-10.5 -9.5t-19 -6.5t-33 -2q-1 0 -3.5 0.5t-3.5 0.5q-33 4 -33 15z" />
    <glyph glyph-name="atilde" unicode="&#xe3;" horiz-adv-x="551" 
d="M20 36v11l21 130q2 6 2.5 14t1.5 12q1 12 10.5 58t9.5 74l29 236q0 1 1 5t1 5q1 7 2.5 26t2.5 29.5t3.5 28t6 27.5t8.5 21.5t12.5 18.5t17.5 9q91 11 163 11q49 0 74.5 -7.5t37.5 -36.5q9 -82 43 -244q5 -23 12.5 -98t18.5 -111l29 -162q4 -28 4 -50q0 -11 -6 -17.5
t-12 -8t-18.5 -2.5t-18.5 -2q-28 -7 -53 -7q-52 0 -54 23l-18 206l-7 32q-1 9 -12 9q-20 0 -69.5 -5.5t-56.5 -11.5q-3 -3 -3 -15l-8 -92q-7 -14 -7 -39q0 -1 -1.5 -33t-7.5 -55t-19 -23h-79q-8 -2 -24 -2q-21 0 -29 7.5t-8 28.5zM211 484v-88q0 -7 17 -7h13q81 0 81 15
q0 12 -3 19v43q0 15 -2 45q0 2 -1 12t-2 19.5t-2.5 22t-3.5 23t-5 19.5t-7.5 14.5t-9.5 5.5q-8 0 -25 -3.5t-26 -3.5q-14 -5 -18 -31t-3.5 -60t-2.5 -45zM230 831q-2 2 -6 2q-9 0 -22.5 -16t-27.5 -16q-13 0 -36 7.5t-23 18.5q0 27 29 54t60 27q25 0 53 -19t40 -19
q16 0 24.5 15.5t18.5 15.5q14 0 37 -8.5t23 -19.5q0 -6 -2 -9q-8 -18 -13.5 -27t-15.5 -21.5t-23 -18t-30 -5.5q-47 0 -86 39z" />
    <glyph glyph-name="adieresis" unicode="&#xe4;" horiz-adv-x="551" 
d="M20 36v11l21 130q2 6 2.5 14t1.5 12q1 12 10.5 58t9.5 74l29 236q0 1 1 5t1 5q1 7 2.5 26t2.5 29.5t3.5 28t6 27.5t8.5 21.5t12.5 18.5t17.5 9q91 11 163 11q49 0 74.5 -7.5t37.5 -36.5q9 -82 43 -244q5 -23 12.5 -98t18.5 -111l29 -162q4 -28 4 -50q0 -11 -6 -17.5
t-12 -8t-18.5 -2.5t-18.5 -2q-28 -7 -53 -7q-52 0 -54 23l-18 206l-7 32q-1 9 -12 9q-20 0 -69.5 -5.5t-56.5 -11.5q-3 -3 -3 -15l-8 -92q-7 -14 -7 -39q0 -1 -1.5 -33t-7.5 -55t-19 -23h-79q-8 -2 -24 -2q-21 0 -29 7.5t-8 28.5zM211 484v-88q0 -7 17 -7h13q81 0 81 15
q0 12 -3 19v43q0 15 -2 45q0 2 -1 12t-2 19.5t-2.5 22t-3.5 23t-5 19.5t-7.5 14.5t-9.5 5.5q-8 0 -25 -3.5t-26 -3.5q-14 -5 -18 -31t-3.5 -60t-2.5 -45zM110 855q0 19 16 32t36 13q22 0 39 -17t17 -38q0 -18 -16.5 -33.5t-33.5 -15.5q-21 0 -39.5 19t-18.5 40zM274 865
q0 24 18 37.5t43 13.5q29 -2 41.5 -30t-1 -55t-46.5 -27q-22 0 -38.5 20t-16.5 41z" />
    <glyph glyph-name="aring" unicode="&#xe5;" horiz-adv-x="551" 
d="M171 794q0 37 26.5 70t62.5 33q35 0 60.5 -24t25.5 -59q0 -36 -15 -62q37 -1 59.5 -10t33.5 -34q9 -82 43 -244q5 -23 12.5 -98t18.5 -111l29 -162q4 -28 4 -50q0 -11 -6 -17.5t-12 -8t-18.5 -2.5t-18.5 -2q-28 -7 -53 -7q-52 0 -54 23l-18 206l-7 32q-1 9 -12 9
q-20 0 -69.5 -5.5t-56.5 -11.5q-3 -3 -3 -15l-8 -92q-7 -14 -7 -39q0 -1 -1.5 -33t-7.5 -55t-19 -23h-79q-8 -2 -24 -2q-21 0 -29 7.5t-8 28.5v11l21 130q2 6 2.5 14t1.5 12q1 12 10.5 58t9.5 74l29 236q0 1 1 5t1 5q1 7 2.5 26t2.5 29.5t3.5 28t6 27.5t8.5 21.5t12.5 18.5
t17.5 9l38 4q-16 21 -16 49zM211 484v-88q0 -7 17 -7h13q81 0 81 15q0 12 -3 19v43q0 15 -2 45q0 2 -1 12t-2 19.5t-2.5 22t-3.5 23t-5 19.5t-7.5 14.5t-9.5 5.5q-8 0 -25 -3.5t-26 -3.5q-14 -5 -18 -31t-3.5 -60t-2.5 -45zM263 838q-13 0 -19.5 -13t-0.5 -25.5t25 -12.5
q9 0 13.5 3.5t5.5 8t1 12.5q0 10 -7 18.5t-18 8.5z" />
    <glyph glyph-name="ae" unicode="&#xe6;" horiz-adv-x="650" 
d="M293 44l-8 175l2 54q-72 -6 -81 -14q-3 -3 -3 -15l-8 -92q-7 -14 -7 -39q0 -1 -1.5 -33t-7.5 -55t-19 -23h-79q-8 -2 -24 -2q-21 0 -29 7.5t-8 28.5v11l21 130q2 6 2.5 14t1.5 12q1 12 10.5 58t9.5 74l29 236q0 1 1 5t1 5q1 7 2.5 26t2.5 29.5t3.5 28t6 27.5t8.5 21.5
t12.5 18.5t17.5 9q91 11 163 11q29 0 53 -3q42 -2 86 -2q50 0 103 4q22 0 49 -17.5t27 -38.5q0 -87 -32 -87q-22 0 -77.5 3.5t-78.5 3.5q-8 0 -13 -5.5t-7 -15.5t-2.5 -19.5t-0.5 -22.5t-1 -19q0 -17 2.5 -24t4.5 -9t12 -2.5t17 -1.5q5 -1 15.5 -2t15 -1.5t12.5 -2
t11.5 -3.5t9 -4.5t8 -7t5.5 -10t4 -13t1 -16.5q0 -7 -6 -41q0 -2 -1.5 -11t-2 -10.5t-2.5 -8t-4 -7.5t-5.5 -4t-8.5 -4t-12 -1q-13 0 -38.5 2.5t-37.5 2.5l-4 -2q-6 0 -6 -158v-21q0 -19 10 -19h131q45 0 57 -16.5t12 -65.5q0 -43 -13 -59t-46 -16h-167q-95 0 -99 47z
M211 484v-88q0 -7 17 -7h13q32 0 50 2l6 180q3 13 3 42q-6 14 -14 14t-25 -3.5t-26 -3.5q-14 -5 -18 -31t-3.5 -60t-2.5 -45z" />
    <glyph glyph-name="ccedilla" unicode="&#xe7;" horiz-adv-x="504" 
d="M218 -128q4 0 15 -0.5t18 -0.5t16 1t14 5.5t6 11.5q0 16 -7 16h-68q-10 0 -11 22.5t4 74.5q-50 10 -88 43t-58 83q-7 17 -11.5 34t-9.5 45t-6 35q-12 58 -12 114q0 14 8 102q14 140 55 198q30 44 60.5 61t76.5 28q102 0 149.5 -21.5t85.5 -96.5q0 -20 -4 -36
q-11 -7 -27.5 -22t-31.5 -24t-34 -9q-24 0 -46 30t-51 30q-96 0 -96 -210q0 -26 4 -62t12.5 -80.5t26.5 -75t43 -30.5q35 0 56 25t27.5 55t17.5 55t29 25q1 0 6.5 -1t7.5 -1h2q2 -1 3 -1q84 -24 84 -50v-4l-1 -3q-12 -90 -59.5 -154.5t-128.5 -80.5q-3 -33 5.5 -46.5
t22.5 -14.5l28 -2t22.5 -17t6.5 -53q-3 -41 -40 -61.5t-83 -20.5q-49 0 -63 26q-10 18 10 48q10 14 14 10z" />
    <glyph glyph-name="egrave" unicode="&#xe8;" horiz-adv-x="386" 
d="M28 43l-8 171l12 343q2 10 3.5 41.5t3.5 57.5t15 49.5t36 25.5q8 0 40.5 -1t56.5 -1q50 0 103 4q22 0 49 -17t27 -38q0 -85 -32 -85q-22 0 -77.5 3.5t-78.5 3.5q-8 0 -13.5 -5t-7.5 -15t-2.5 -19t-0.5 -22t-1 -19q0 -16 2.5 -23.5t4.5 -9t12.5 -2t17.5 -1.5q5 -1 15.5 -2
t15 -1.5t12.5 -2t11.5 -3t9 -4.5t8 -7t5.5 -9.5t4 -12.5t1 -16q0 -8 -6 -40q-1 -3 -1.5 -9t-1 -8t-1.5 -7t-2.5 -6.5t-3 -4.5t-4 -4.5t-5.5 -3t-7.5 -2t-9.5 -0.5q-13 0 -38.5 2.5t-38.5 2.5l-4 -2q-6 0 -6 -155v-20q0 -19 10 -19h132q45 0 57 -16t12 -64q0 -42 -13 -57.5
t-46 -15.5h-168q-95 0 -99 46zM252 800q0 -26 -42 -26q-20 0 -68 40t-48 60q0 17 24 33t44 16q17 0 53.5 -51.5t36.5 -71.5z" />
    <glyph glyph-name="eacute" unicode="&#xe9;" horiz-adv-x="386" 
d="M28 43l-8 171l12 343q2 10 3.5 41.5t3.5 57.5t15 49.5t36 25.5q8 0 40.5 -1t56.5 -1q50 0 103 4q22 0 49 -17t27 -38q0 -85 -32 -85q-22 0 -77.5 3.5t-78.5 3.5q-8 0 -13.5 -5t-7.5 -15t-2.5 -19t-0.5 -22t-1 -19q0 -16 2.5 -23.5t4.5 -9t12.5 -2t17.5 -1.5q5 -1 15.5 -2
t15 -1.5t12.5 -2t11.5 -3t9 -4.5t8 -7t5.5 -9.5t4 -12.5t1 -16q0 -8 -6 -40q-1 -3 -1.5 -9t-1 -8t-1.5 -7t-2.5 -6.5t-3 -4.5t-4 -4.5t-5.5 -3t-7.5 -2t-9.5 -0.5q-13 0 -38.5 2.5t-38.5 2.5l-4 -2q-6 0 -6 -155v-20q0 -19 10 -19h132q45 0 57 -16t12 -64q0 -42 -13 -57.5
t-46 -15.5h-168q-95 0 -99 46zM94 800q0 20 36.5 71.5t53.5 51.5q20 0 44 -16t24 -33q0 -20 -48 -60t-68 -40q-42 0 -42 26z" />
    <glyph glyph-name="ecircumflex" unicode="&#xea;" horiz-adv-x="386" 
d="M28 43l-8 171l12 343q2 10 3.5 41.5t3.5 57.5t15 49.5t36 25.5q8 0 40.5 -1t56.5 -1q50 0 103 4q22 0 49 -17t27 -38q0 -85 -32 -85q-22 0 -77.5 3.5t-78.5 3.5q-8 0 -13.5 -5t-7.5 -15t-2.5 -19t-0.5 -22t-1 -19q0 -16 2.5 -23.5t4.5 -9t12.5 -2t17.5 -1.5q5 -1 15.5 -2
t15 -1.5t12.5 -2t11.5 -3t9 -4.5t8 -7t5.5 -9.5t4 -12.5t1 -16q0 -8 -6 -40q-1 -3 -1.5 -9t-1 -8t-1.5 -7t-2.5 -6.5t-3 -4.5t-4 -4.5t-5.5 -3t-7.5 -2t-9.5 -0.5q-13 0 -38.5 2.5t-38.5 2.5l-4 -2q-6 0 -6 -155v-20q0 -19 10 -19h132q45 0 57 -16t12 -64q0 -42 -13 -57.5
t-46 -15.5h-168q-95 0 -99 46zM62 793q0 16 10.5 32.5t29 36.5t24.5 28q19 19 59 22t65 -7q26 -10 60 -89q2 -3 7 -8t8 -9t3 -9q0 -15 -47 -15l-7 1q-6 0 -14 0.5t-12 0.5q-18 5 -32.5 35.5t-22.5 30.5q-3 0 -3 -2q-8 -12 -15.5 -27t-10 -19t-10.5 -9.5t-19 -6.5t-33 -2
q-1 0 -3.5 0.5t-3.5 0.5q-33 4 -33 15z" />
    <glyph glyph-name="edieresis" unicode="&#xeb;" horiz-adv-x="386" 
d="M28 43l-8 171l12 343q2 10 3.5 41.5t3.5 57.5t15 49.5t36 25.5q8 0 40.5 -1t56.5 -1q50 0 103 4q22 0 49 -17t27 -38q0 -85 -32 -85q-22 0 -77.5 3.5t-78.5 3.5q-8 0 -13.5 -5t-7.5 -15t-2.5 -19t-0.5 -22t-1 -19q0 -16 2.5 -23.5t4.5 -9t12.5 -2t17.5 -1.5q5 -1 15.5 -2
t15 -1.5t12.5 -2t11.5 -3t9 -4.5t8 -7t5.5 -9.5t4 -12.5t1 -16q0 -8 -6 -40q-1 -3 -1.5 -9t-1 -8t-1.5 -7t-2.5 -6.5t-3 -4.5t-4 -4.5t-5.5 -3t-7.5 -2t-9.5 -0.5q-13 0 -38.5 2.5t-38.5 2.5l-4 -2q-6 0 -6 -155v-20q0 -19 10 -19h132q45 0 57 -16t12 -64q0 -42 -13 -57.5
t-46 -15.5h-168q-95 0 -99 46zM48 831q0 19 16 32t36 13q22 0 39 -17t17 -38q0 -18 -16.5 -33.5t-33.5 -15.5q-21 0 -39.5 19t-18.5 40zM212 841q0 24 18 37.5t43 13.5q29 -2 41.5 -30t-1 -55t-46.5 -27q-22 0 -38.5 20t-16.5 41z" />
    <glyph glyph-name="igrave" unicode="&#xec;" horiz-adv-x="201" 
d="M20 124l19 571q0 8 8.5 18t15.5 10h84q8 0 20.5 -5.5t13.5 -11.5q0 -67 -5.5 -250t-8.5 -346q0 -2 0.5 -12.5t0.5 -17.5q0 -60 -21 -65q-10 0 -31 -3.5t-32 -3.5q-14 0 -37 3q-27 0 -27 113zM166 804q0 -26 -42 -26q-20 0 -68 40t-48 60q0 17 24 33t44 16
q17 0 53.5 -51.5t36.5 -71.5z" />
    <glyph glyph-name="iacute" unicode="&#xed;" horiz-adv-x="201" 
d="M20 124l19 571q0 8 8.5 18t15.5 10h84q8 0 20.5 -5.5t13.5 -11.5q0 -67 -5.5 -250t-8.5 -346q0 -2 0.5 -12.5t0.5 -17.5q0 -60 -21 -65q-10 0 -31 -3.5t-32 -3.5q-14 0 -37 3q-27 0 -27 113zM8 804q0 20 36.5 71.5t53.5 51.5q20 0 44 -16t24 -33q0 -20 -48 -60t-68 -40
q-42 0 -42 26z" />
    <glyph glyph-name="icircumflex" unicode="&#xee;" horiz-adv-x="201" 
d="M20 124l19 571q0 8 8.5 18t15.5 10h84q8 0 20.5 -5.5t13.5 -11.5q0 -67 -5.5 -250t-8.5 -346q0 -2 0.5 -12.5t0.5 -17.5q0 -60 -21 -65q-10 0 -31 -3.5t-32 -3.5q-14 0 -37 3q-27 0 -27 113zM-24 797q0 16 10.5 32.5t29 36.5t24.5 28q19 19 59 22t65 -7q26 -10 60 -89
q2 -3 7 -8t8 -9t3 -9q0 -15 -47 -15l-7 1q-6 0 -14 0.5t-12 0.5q-18 5 -32.5 35.5t-22.5 30.5q-3 0 -3 -2q-8 -12 -15.5 -27t-10 -19t-10.5 -9.5t-19 -6.5t-33 -2q-1 0 -3.5 0.5t-3.5 0.5q-33 4 -33 15z" />
    <glyph glyph-name="idieresis" unicode="&#xef;" horiz-adv-x="201" 
d="M20 124l19 571q0 8 8.5 18t15.5 10h84q8 0 20.5 -5.5t13.5 -11.5q0 -67 -5.5 -250t-8.5 -346q0 -2 0.5 -12.5t0.5 -17.5q0 -60 -21 -65q-10 0 -31 -3.5t-32 -3.5q-14 0 -37 3q-27 0 -27 113zM-38 835q0 19 16 32t36 13q22 0 39 -17t17 -38q0 -18 -16.5 -33.5t-33.5 -15.5
q-21 0 -39.5 19t-18.5 40zM126 845q0 24 18 37.5t43 13.5q29 -2 41.5 -30t-1 -55t-46.5 -27q-22 0 -38.5 20t-16.5 41z" />
    <glyph glyph-name="eth" unicode="&#xf0;" horiz-adv-x="528" 
d="M21 383q0 28 9.5 38.5t27.5 12.5q0 93 3 180q0 43 3 61q0 23 9 37.5t27 20t31 7t35 1.5h13q44 0 73 -1.5t68 -9t65 -21t51.5 -39t41.5 -62.5q30 -73 30 -223v-12q0 -45 -7 -73q-6 -19 -9.5 -54.5t-6.5 -48.5q-56 -183 -179 -197q-40 -5 -153 -5q-43 0 -65 7.5t-26 30.5
q0 14 -2 92.5t-2 91.5v112h-6q-11 0 -18 4t-9.5 14t-3 16t-0.5 20zM195 150q3 -22 36 -22q29 0 52.5 8t38.5 19.5t27 32.5t18 38t10.5 45.5t6 45.5t3.5 47v9q0 46 -1.5 73t-10.5 67.5t-28 67.5q-16 20 -42.5 25t-69.5 5h-7q-5 3 -13 3q-13 0 -13 -8l-7 -169h31q35 -7 35 -67
q0 -21 -33 -24q-27 -4 -36 -5q0 -99 3 -191z" />
    <glyph glyph-name="ntilde" unicode="&#xf1;" horiz-adv-x="523" 
d="M187 116v-18q0 -68 -7.5 -81t-51.5 -13q-79 0 -83 34q-1 6 -1.5 11.5t-1 9.5t-1.5 9l-9 94q0 29 -5 200t-5 210q0 2 -1 20t-1 31q0 98 57 98h34q75 0 101 -25q12 -21 23.5 -46t19 -42.5t19.5 -47t18 -43.5q7 -17 23.5 -61t27.5 -69.5t15 -25.5q0 37 0.5 109t0.5 109
q0 18 -1 51.5t-1 50.5q0 24 13 32t52 8h20q46 0 49 -24q0 -25 4 -32v-12q0 -26 2 -110.5t2 -97.5q0 -22 -1 -66t-1 -65q0 -47 3 -95.5t3 -69.5v-25q0 -24 -0.5 -36.5t-3 -32t-8 -29t-16 -17t-25.5 -7.5q-94 0 -113 52l-165 436v-3q0 -36 15 -371zM238 787q-2 2 -6 2
q-9 0 -22.5 -16t-27.5 -16q-13 0 -36 7.5t-23 18.5q0 27 29 54t60 27q25 0 53 -19t40 -19q16 0 24.5 15.5t18.5 15.5q14 0 37 -8.5t23 -19.5q0 -6 -2 -9q-9 -18 -14 -27t-15 -21.5t-23 -18t-30 -5.5q-47 0 -86 39z" />
    <glyph glyph-name="ograve" unicode="&#xf2;" horiz-adv-x="632" 
d="M181 28q-161 75 -161 316q0 51 7 100t25.5 99t46 87.5t72.5 61t101 23.5q55 0 105.5 -39.5t78 -93t27.5 -101.5q0 -2 1 -5.5t2 -5.5t2 -2q5 0 14.5 20.5t20.5 20.5q18 0 53.5 -32t35.5 -54q0 -23 -13 -40.5t-40 -38t-35 -28.5q-6 -2 -17.5 -10t-17.5 -11q-5 -2 -29 -127
q-21 -74 -70.5 -114.5t-122.5 -40.5q-28 0 -86 15zM141 372v-9q0 -34 5.5 -68.5t19.5 -75t44.5 -66t74.5 -25.5q47 0 69 38.5t22 88.5v3l-1 3l-4 4q-3 3 -19 6q-62 0 -107 25t-87 70q-1 1 -3.5 5.5t-5.5 7.5t-5 3q-3 0 -3 -10zM208 581q0 -61 43.5 -114t104.5 -53
q9 0 12 1.5t3 9.5q0 72 -29 124t-87 52q-47 0 -47 -20zM324 790q0 -26 -42 -26q-20 0 -68 40t-48 60q0 17 24 33t44 16q17 0 53.5 -51.5t36.5 -71.5z" />
    <glyph glyph-name="oacute" unicode="&#xf3;" horiz-adv-x="632" 
d="M181 28q-161 75 -161 316q0 51 7 100t25.5 99t46 87.5t72.5 61t101 23.5q55 0 105.5 -39.5t78 -93t27.5 -101.5q0 -2 1 -5.5t2 -5.5t2 -2q5 0 14.5 20.5t20.5 20.5q18 0 53.5 -32t35.5 -54q0 -23 -13 -40.5t-40 -38t-35 -28.5q-6 -2 -17.5 -10t-17.5 -11q-5 -2 -29 -127
q-21 -74 -70.5 -114.5t-122.5 -40.5q-28 0 -86 15zM141 372v-9q0 -34 5.5 -68.5t19.5 -75t44.5 -66t74.5 -25.5q47 0 69 38.5t22 88.5v3l-1 3l-4 4q-3 3 -19 6q-62 0 -107 25t-87 70q-1 1 -3.5 5.5t-5.5 7.5t-5 3q-3 0 -3 -10zM208 581q0 -61 43.5 -114t104.5 -53
q9 0 12 1.5t3 9.5q0 72 -29 124t-87 52q-47 0 -47 -20zM166 790q0 20 36.5 71.5t53.5 51.5q20 0 44 -16t24 -33q0 -20 -48 -60t-68 -40q-42 0 -42 26z" />
    <glyph glyph-name="ocircumflex" unicode="&#xf4;" horiz-adv-x="632" 
d="M181 28q-161 75 -161 316q0 51 7 100t25.5 99t46 87.5t72.5 61t101 23.5q55 0 105.5 -39.5t78 -93t27.5 -101.5q0 -2 1 -5.5t2 -5.5t2 -2q5 0 14.5 20.5t20.5 20.5q18 0 53.5 -32t35.5 -54q0 -23 -13 -40.5t-40 -38t-35 -28.5q-6 -2 -17.5 -10t-17.5 -11q-5 -2 -29 -127
q-21 -74 -70.5 -114.5t-122.5 -40.5q-28 0 -86 15zM141 372v-9q0 -34 5.5 -68.5t19.5 -75t44.5 -66t74.5 -25.5q47 0 69 38.5t22 88.5v3l-1 3l-4 4q-3 3 -19 6q-62 0 -107 25t-87 70q-1 1 -3.5 5.5t-5.5 7.5t-5 3q-3 0 -3 -10zM208 581q0 -61 43.5 -114t104.5 -53
q9 0 12 1.5t3 9.5q0 72 -29 124t-87 52q-47 0 -47 -20zM134 783q0 16 10.5 32.5t29 36.5t24.5 28q19 19 59 22t65 -7q26 -10 60 -89q2 -3 7 -8t8 -9t3 -9q0 -15 -47 -15l-7 1q-6 0 -14 0.5t-12 0.5q-18 5 -32.5 35.5t-22.5 30.5q-3 0 -3 -2q-8 -12 -15.5 -27t-10 -19
t-10.5 -9.5t-19 -6.5t-33 -2q-1 0 -3.5 0.5t-3.5 0.5q-33 4 -33 15z" />
    <glyph glyph-name="otilde" unicode="&#xf5;" horiz-adv-x="632" 
d="M181 28q-161 75 -161 316q0 51 7 100t25.5 99t46 87.5t72.5 61t101 23.5q55 0 105.5 -39.5t78 -93t27.5 -101.5q0 -2 1 -5.5t2 -5.5t2 -2q5 0 14.5 20.5t20.5 20.5q18 0 53.5 -32t35.5 -54q0 -23 -13 -40.5t-40 -38t-35 -28.5q-6 -2 -17.5 -10t-17.5 -11q-5 -2 -29 -127
q-21 -74 -70.5 -114.5t-122.5 -40.5q-28 0 -86 15zM141 372v-9q0 -34 5.5 -68.5t19.5 -75t44.5 -66t74.5 -25.5q47 0 69 38.5t22 88.5v3l-1 3l-4 4q-3 3 -19 6q-62 0 -107 25t-87 70q-1 1 -3.5 5.5t-5.5 7.5t-5 3q-3 0 -3 -10zM208 581q0 -61 43.5 -114t104.5 -53
q9 0 12 1.5t3 9.5q0 72 -29 124t-87 52q-47 0 -47 -20zM240 797q-2 2 -6 2q-9 0 -22.5 -16t-27.5 -16q-13 0 -36 7.5t-23 18.5q0 27 29 54t60 27q25 0 53 -19t40 -19q16 0 24.5 15.5t18.5 15.5q14 0 37 -8.5t23 -19.5q0 -6 -2 -9q-8 -18 -13.5 -27t-15.5 -21.5t-23 -18
t-30 -5.5q-47 0 -86 39z" />
    <glyph glyph-name="odieresis" unicode="&#xf6;" horiz-adv-x="632" 
d="M181 28q-161 75 -161 316q0 51 7 100t25.5 99t46 87.5t72.5 61t101 23.5q55 0 105.5 -39.5t78 -93t27.5 -101.5q0 -2 1 -5.5t2 -5.5t2 -2q5 0 14.5 20.5t20.5 20.5q18 0 53.5 -32t35.5 -54q0 -23 -13 -40.5t-40 -38t-35 -28.5q-6 -2 -17.5 -10t-17.5 -11q-5 -2 -29 -127
q-21 -74 -70.5 -114.5t-122.5 -40.5q-28 0 -86 15zM141 372v-9q0 -34 5.5 -68.5t19.5 -75t44.5 -66t74.5 -25.5q47 0 69 38.5t22 88.5v3l-1 3l-4 4q-3 3 -19 6q-62 0 -107 25t-87 70q-1 1 -3.5 5.5t-5.5 7.5t-5 3q-3 0 -3 -10zM208 581q0 -61 43.5 -114t104.5 -53
q9 0 12 1.5t3 9.5q0 72 -29 124t-87 52q-47 0 -47 -20zM120 821q0 19 16 32t36 13q22 0 39 -17t17 -38q0 -18 -16.5 -33.5t-33.5 -15.5q-21 0 -39.5 19t-18.5 40zM284 831q0 24 18 37.5t43 13.5q29 -2 41.5 -30t-1 -55t-46.5 -27q-22 0 -38.5 20t-16.5 41z" />
    <glyph glyph-name="divide" unicode="&#xf7;" horiz-adv-x="492" 
d="M21 351v7q0 20 4 30t17 14q130 7 336 5q31 0 73 -3q21 -7 21 -49v-23q0 -15 -10 -22.5t-21.5 -8.5t-28 -1t-22.5 -1l-333 1q-13 0 -21 3.5t-11 12.5t-3.5 15t-0.5 20zM180 184q0 23 16 44.5t39 21.5q20 0 35 -19t15 -39q0 -23 -14 -41.5t-36 -18.5q-24 0 -39.5 14
t-15.5 38zM184 506q0 23 16 44.5t39 21.5q20 0 35 -19t15 -39q0 -23 -14 -41.5t-36 -18.5q-24 0 -39.5 14t-15.5 38z" />
    <glyph glyph-name="oslash" unicode="&#xf8;" horiz-adv-x="515" 
d="M267 13q-83 0 -140.5 50t-82 122.5t-24.5 158.5q0 51 7 100t25.5 99t46 87.5t72.5 61t101 23.5q50 0 89.5 -22t63 -57.5t41 -80.5t22 -91.5t6.5 -91t-5 -77.5q-2 -43 -16.5 -89.5t-40.5 -91t-69.5 -73t-95.5 -28.5zM252 600q-54 -6 -87 -77t-32 -163t35 -156q0 1 0.5 3.5
t0.5 3.5q32 159 83 389zM285 128q39 0 64.5 69.5t24.5 155t-24 160.5q-39 -169 -84 -384q6 -1 19 -1z" />
    <glyph glyph-name="ugrave" unicode="&#xf9;" 
d="M86 51q-22 22 -36.5 63.5t-20 101t-8 109t0.5 124t5 108.5t7 97l2 26q4 19 47 19h28q74 0 74 -25v-79l-15 -382q0 -48 16.5 -67.5t71.5 -19.5q9 0 15.5 2t10 3.5t5.5 6.5t2.5 7.5t0.5 10.5v11l22 479q0 15 7.5 24.5t23 13.5t29 5t36.5 1q37 0 45 -3t8 -17q0 -5 -9 -134
q-16 -318 -31 -414q-10 -61 -52 -95.5t-114 -34.5q-115 0 -171 59zM303 752q0 -26 -42 -26q-20 0 -68 40t-48 60q0 17 24 33t44 16q17 0 53.5 -51.5t36.5 -71.5z" />
    <glyph glyph-name="uacute" unicode="&#xfa;" 
d="M86 51q-22 22 -36.5 63.5t-20 101t-8 109t0.5 124t5 108.5t7 97l2 26q4 19 47 19h28q74 0 74 -25v-79l-15 -382q0 -48 16.5 -67.5t71.5 -19.5q9 0 15.5 2t10 3.5t5.5 6.5t2.5 7.5t0.5 10.5v11l22 479q0 15 7.5 24.5t23 13.5t29 5t36.5 1q37 0 45 -3t8 -17q0 -5 -9 -134
q-16 -318 -31 -414q-10 -61 -52 -95.5t-114 -34.5q-115 0 -171 59zM145 752q0 20 36.5 71.5t53.5 51.5q20 0 44 -16t24 -33q0 -20 -48 -60t-68 -40q-42 0 -42 26z" />
    <glyph glyph-name="ucircumflex" unicode="&#xfb;" 
d="M86 51q-22 22 -36.5 63.5t-20 101t-8 109t0.5 124t5 108.5t7 97l2 26q4 19 47 19h28q74 0 74 -25v-79l-15 -382q0 -48 16.5 -67.5t71.5 -19.5q9 0 15.5 2t10 3.5t5.5 6.5t2.5 7.5t0.5 10.5v11l22 479q0 15 7.5 24.5t23 13.5t29 5t36.5 1q37 0 45 -3t8 -17q0 -5 -9 -134
q-16 -318 -31 -414q-10 -61 -52 -95.5t-114 -34.5q-115 0 -171 59zM113 745q0 16 10.5 32.5t29 36.5t24.5 28q19 19 59 22t65 -7q26 -10 60 -89q2 -3 7 -8t8 -9t3 -9q0 -15 -47 -15l-6 1q-7 0 -15 0.5t-12 0.5q-18 5 -32.5 35.5t-22.5 30.5q-3 0 -3 -2q-8 -12 -15.5 -27
t-10 -19t-10.5 -9.5t-19 -6.5t-33 -2q-1 0 -3.5 0.5t-3.5 0.5q-33 4 -33 15z" />
    <glyph glyph-name="udieresis" unicode="&#xfc;" 
d="M86 51q-22 22 -36.5 63.5t-20 101t-8 109t0.5 124t5 108.5t7 97l2 26q4 19 47 19h28q74 0 74 -25v-79l-15 -382q0 -48 16.5 -67.5t71.5 -19.5q9 0 15.5 2t10 3.5t5.5 6.5t2.5 7.5t0.5 10.5v11l22 479q0 15 7.5 24.5t23 13.5t29 5t36.5 1q37 0 45 -3t8 -17q0 -5 -9 -134
q-16 -318 -31 -414q-10 -61 -52 -95.5t-114 -34.5q-115 0 -171 59zM99 783q0 19 16 32t36 13q21 0 38.5 -17t17.5 -38q0 -18 -16.5 -33.5t-33.5 -15.5q-21 0 -39.5 19t-18.5 40zM263 793q0 24 18 37.5t43 13.5q29 -2 41.5 -30t-1 -55t-46.5 -27q-22 0 -38.5 20t-16.5 41z
" />
    <glyph glyph-name="yacute" unicode="&#xfd;" horiz-adv-x="505" 
d="M32 137q0 15 42 30t75 15q10 0 14 -13.5t6 -30t20 -30t52 -13.5q11 0 23 8q52 30 76.5 85.5t19.5 100.5q-1 1 -2.5 4t-2.5 4t-2.5 3.5t-3 2t-3.5 -0.5q-21 -9 -71 -14.5t-108.5 -2.5t-102.5 32.5t-44 84.5v93l17 187q1 8 15.5 12.5t24.5 4.5h66q13 0 20.5 -9.5t7.5 -21.5
q0 -13 -3 -36t-4 -30q-8 -80 -8 -132v-27q0 -35 13 -48t61 -13q43 0 69 12t36 45q0 78 -14 195q0 4 -1 10t-2 10l-1 5q0 23 42.5 32t78.5 9q45 0 45 -190q0 -17 1 -57.5t1 -62.5q0 -77 -8 -134t-40 -121t-89 -102q-63 -43 -118 -43q-137 0 -179 93q-3 4 -8.5 24t-10.5 30z
M146 748q0 20 36.5 71.5t53.5 51.5q20 0 44 -16t24 -33q0 -20 -48 -60t-68 -40q-42 0 -42 26z" />
    <glyph glyph-name="thorn" unicode="&#xfe;" horiz-adv-x="460" 
d="M20 104l3 503q0 4 1 22t2.5 26.5t5.5 21t13 18t22 5.5q16 0 43.5 -2.5t38.5 -2.5q23 -6 28.5 -26.5t5.5 -55.5q49 11 109 -16t104 -86t44 -129q0 -107 -70.5 -163.5t-186.5 -73.5v-10q-3 -9 -2 -39.5t-6 -52t-29 -27.5q-11 0 -38.5 -2.5t-43.5 -2.5q-13 0 -22 5.5t-13 18
t-5.5 21t-2.5 26.5t-1 22zM229 482h-9q-35 0 -43.5 -6.5t-8.5 -38.5v-130q0 -10 4.5 -14.5t10 -5.5t18.5 -1q61 0 79.5 25.5t18.5 77.5q0 48 -13 70.5t-57 22.5z" />
    <glyph glyph-name="ydieresis" unicode="&#xff;" horiz-adv-x="505" 
d="M32 137q0 15 42 30t75 15q10 0 14 -13.5t6 -30t20 -30t52 -13.5q11 0 23 8q52 30 76.5 85.5t19.5 100.5q-1 1 -2.5 4t-2.5 4t-2.5 3.5t-3 2t-3.5 -0.5q-21 -9 -71 -14.5t-108.5 -2.5t-102.5 32.5t-44 84.5v93l17 187q1 8 15.5 12.5t24.5 4.5h66q13 0 20.5 -9.5t7.5 -21.5
q0 -13 -3 -36t-4 -30q-8 -80 -8 -132v-27q0 -35 13 -48t61 -13q43 0 69 12t36 45q0 78 -14 195q0 4 -1 10t-2 10l-1 5q0 23 42.5 32t78.5 9q45 0 45 -190q0 -17 1 -57.5t1 -62.5q0 -77 -8 -134t-40 -121t-89 -102q-63 -43 -118 -43q-137 0 -179 93q-3 4 -8.5 24t-10.5 30z
M100 779q0 19 16 32t36 13q22 0 39 -17t17 -38q0 -18 -16.5 -33.5t-33.5 -15.5q-21 0 -39.5 19t-18.5 40zM264 789q0 24 18 37.5t43 13.5q29 -2 41.5 -30t-1 -55t-46.5 -27q-22 0 -38.5 20t-16.5 41z" />
    <glyph glyph-name="Amacron" unicode="&#x100;" horiz-adv-x="606" 
d="M20 27v6l34 161q4 10 6.5 20.5t4 22.5t3.5 20q6 27 13.5 71.5t16.5 80.5q9 46 34 140.5t34 144.5q6 32 25.5 42.5t59.5 13.5l56 4q7 0 76 -8q2 0 20 -2t20 -2q16 -2 28.5 -29t12.5 -45l118 -603q0 -4 2 -14.5t2 -16.5q0 -16 -35 -16q-8 0 -24.5 1.5t-23.5 1.5t-19 -1.5
t-18 -1.5q-29 0 -41 12t-17 43l-27 151q-2 10 -21 10q-27 -1 -129 -10q-15 -1 -20.5 -53t-15.5 -104t-36 -54h-10q-17 0 -50 -1.5t-51 -1.5q-28 0 -28 17zM245 364q0 -11 1 -11l3 -1q7 -1 10 -1q96 0 104 12v16q0 13 -2 20l-18 179q-2 16 -31 16q-7 0 -37 -2q-10 -4 -15 -33
t-6.5 -82t-2.5 -60q0 -8 -3 -25.5t-3 -27.5zM171 867q0 12 1.5 21t6 14.5t7 9t12 5t12.5 2t16 0.5h16q90 2 134 2q35 -7 35 -67q0 -21 -33 -24q-124 -17 -176 -17q-11 0 -18 4t-9.5 14t-3 16t-0.5 20z" />
    <glyph glyph-name="amacron" unicode="&#x101;" horiz-adv-x="551" 
d="M20 36v11l21 130q2 6 2.5 14t1.5 12q1 12 10.5 58t9.5 74l29 236q0 1 1 5t1 5q1 7 2.5 26t2.5 29.5t3.5 28t6 27.5t8.5 21.5t12.5 18.5t17.5 9q91 11 163 11q49 0 74.5 -7.5t37.5 -36.5q9 -82 43 -244q5 -23 12.5 -98t18.5 -111l29 -162q4 -28 4 -50q0 -11 -6 -17.5
t-12 -8t-18.5 -2.5t-18.5 -2q-28 -7 -53 -7q-52 0 -54 23l-18 206l-7 32q-1 9 -12 9q-20 0 -69.5 -5.5t-56.5 -11.5q-3 -3 -3 -15l-8 -92q-7 -14 -7 -39q0 -1 -1.5 -33t-7.5 -55t-19 -23h-79q-8 -2 -24 -2q-21 0 -29 7.5t-8 28.5zM211 484v-88q0 -7 17 -7h13q81 0 81 15
q0 12 -3 19v43q0 15 -2 45q0 2 -1 12t-2 19.5t-2.5 22t-3.5 23t-5 19.5t-7.5 14.5t-9.5 5.5q-8 0 -25 -3.5t-26 -3.5q-14 -5 -18 -31t-3.5 -60t-2.5 -45zM125 857q0 12 1.5 21t6 14.5t7 9t12 5t12.5 2t16 0.5h16q90 2 134 2q35 -7 35 -67q0 -21 -33 -24q-124 -17 -176 -17
q-11 0 -18 4t-9.5 14t-3 16t-0.5 20z" />
    <glyph glyph-name="Abreve" unicode="&#x102;" horiz-adv-x="606" 
d="M20 27v6l34 161q4 10 6.5 20.5t4 22.5t3.5 20q6 27 13.5 71.5t16.5 80.5q9 46 34 140.5t34 144.5q6 32 25.5 42.5t59.5 13.5l56 4q7 0 76 -8q2 0 20 -2t20 -2q16 -2 28.5 -29t12.5 -45l118 -603q0 -4 2 -14.5t2 -16.5q0 -16 -35 -16q-8 0 -24.5 1.5t-23.5 1.5t-19 -1.5
t-18 -1.5q-29 0 -41 12t-17 43l-27 151q-2 10 -21 10q-27 -1 -129 -10q-15 -1 -20.5 -53t-15.5 -104t-36 -54h-10q-17 0 -50 -1.5t-51 -1.5q-28 0 -28 17zM245 364q0 -11 1 -11l3 -1q7 -1 10 -1q96 0 104 12v16q0 13 -2 20l-18 179q-2 16 -31 16q-7 0 -37 -2q-10 -4 -15 -33
t-6.5 -82t-2.5 -60q0 -8 -3 -25.5t-3 -27.5zM381 820q-37 -14 -77 -15t-71 19.5t-31 56.5q0 28 15.5 38.5t51.5 10.5q34 0 34 -23q0 -4 -1.5 -12t-1.5 -11q0 -11 11 -11q8 0 12 5t7.5 18t3.5 14q5 18 50 18q18 0 29.5 -8.5t11.5 -21.5q0 -21 -12 -44t-32 -34z" />
    <glyph glyph-name="abreve" unicode="&#x103;" horiz-adv-x="551" 
d="M20 36v11l21 130q2 6 2.5 14t1.5 12q1 12 10.5 58t9.5 74l29 236q0 1 1 5t1 5q1 7 2.5 26t2.5 29.5t3.5 28t6 27.5t8.5 21.5t12.5 18.5t17.5 9q91 11 163 11q49 0 74.5 -7.5t37.5 -36.5q9 -82 43 -244q5 -23 12.5 -98t18.5 -111l29 -162q4 -28 4 -50q0 -11 -6 -17.5
t-12 -8t-18.5 -2.5t-18.5 -2q-28 -7 -53 -7q-52 0 -54 23l-18 206l-7 32q-1 9 -12 9q-20 0 -69.5 -5.5t-56.5 -11.5q-3 -3 -3 -15l-8 -92q-7 -14 -7 -39q0 -1 -1.5 -33t-7.5 -55t-19 -23h-79q-8 -2 -24 -2q-21 0 -29 7.5t-8 28.5zM211 484v-88q0 -7 17 -7h13q81 0 81 15
q0 12 -3 19v43q0 15 -2 45q0 2 -1 12t-2 19.5t-2.5 22t-3.5 23t-5 19.5t-7.5 14.5t-9.5 5.5q-8 0 -25 -3.5t-26 -3.5q-14 -5 -18 -31t-3.5 -60t-2.5 -45zM335 810q-37 -14 -77 -15t-71 19.5t-31 56.5q0 28 15.5 38.5t51.5 10.5q34 0 34 -23q0 -4 -1.5 -12t-1.5 -11
q0 -11 11 -11q8 0 12 5t7.5 18t3.5 14q5 18 50 18q18 0 29.5 -8.5t11.5 -21.5q0 -21 -12 -44t-32 -34z" />
    <glyph glyph-name="Aogonek" unicode="&#x104;" horiz-adv-x="606" 
d="M414 -76q0 2 -0.5 10t-0.5 9q0 45 18 82q-17 10 -23 48l-27 151q-2 10 -21 10q-27 -1 -129 -10q-15 -1 -20.5 -53t-15.5 -104t-36 -54h-10q-17 0 -50 -1.5t-51 -1.5q-28 0 -28 17v6l34 161q4 10 6.5 20.5t4 22.5t3.5 20q6 27 13.5 71.5t16.5 80.5q9 46 34 140.5t34 144.5
q6 32 25.5 42.5t59.5 13.5l56 4q7 0 76 -8q2 0 20 -2t20 -2q16 -2 28.5 -29t12.5 -45l118 -603q0 -4 2 -14.5t2 -16.5q0 -16 -35 -16q-12 0 -36 2q-2 -4 -8 -13t-9 -15t-6 -14.5t-3 -16.5q0 -22 15 -22q10 0 25 12.5t26 12.5q12 0 22.5 -18t10.5 -29q0 -23 -26.5 -42
t-51.5 -19q-35 0 -62 18t-34 50zM245 364q0 -11 1 -11l3 -1q7 -1 10 -1q96 0 104 12v16q0 13 -2 20l-18 179q-2 16 -31 16q-7 0 -37 -2q-10 -4 -15 -33t-6.5 -82t-2.5 -60q0 -8 -3 -25.5t-3 -27.5z" />
    <glyph glyph-name="aogonek" unicode="&#x105;" horiz-adv-x="551" 
d="M357 -112q0 2 -0.5 10t-0.5 9q0 59 29 103q-15 5 -16 19l-18 206l-7 32q-1 9 -12 9q-20 0 -69.5 -5.5t-56.5 -11.5q-3 -3 -3 -15l-8 -92q-7 -14 -7 -39q0 -1 -1.5 -33t-7.5 -55t-19 -23h-79q-8 -2 -24 -2q-21 0 -29 7.5t-8 28.5v11l21 130q2 6 2.5 14t1.5 12
q1 12 10.5 58t9.5 74l29 236q0 1 1 5t1 5q1 7 2.5 26t2.5 29.5t3.5 28t6 27.5t8.5 21.5t12.5 18.5t17.5 9q91 11 163 11q49 0 74.5 -7.5t37.5 -36.5q9 -82 43 -244q5 -23 12.5 -98t18.5 -111l29 -162q4 -28 4 -50q0 -11 -6 -17.5t-12 -8t-18.5 -2.5t-18.5 -2q-6 -2 -8 -2
q-1 -13 -18.5 -40.5t-17.5 -45.5q0 -22 15 -22q10 0 25 12.5t26 12.5q12 0 22.5 -18t10.5 -29q0 -23 -26.5 -42t-51.5 -19q-35 0 -62 18t-34 50zM211 484v-88q0 -7 17 -7h13q81 0 81 15q0 12 -3 19v43q0 15 -2 45q0 2 -1 12t-2 19.5t-2.5 22t-3.5 23t-5 19.5t-7.5 14.5
t-9.5 5.5q-8 0 -25 -3.5t-26 -3.5q-14 -5 -18 -31t-3.5 -60t-2.5 -45z" />
    <glyph glyph-name="Cacute" unicode="&#x106;" horiz-adv-x="533" 
d="M20 371q0 54 26 158q0 1 2 6t2 6l36 75q22 46 80.5 80t110.5 34q74 0 110 -30q66 -50 105 -127q2 -4 2 -7q0 -36 -37.5 -53.5t-80.5 -17.5q-16 0 -26.5 10.5t-16 22.5t-18 22.5t-31.5 10.5q-30 0 -49.5 -16.5t-28 -47.5t-11 -58.5t-2.5 -64.5q0 -57 4 -85q1 -3 6.5 -32
t11 -48t20 -37.5t33.5 -18.5q32 0 47.5 18t31.5 57l4 10q1 1 3 6t3 6.5t3 5t4.5 5t6 2.5t7.5 1q12 0 37 -7t34 -8q2 0 13 -1t17.5 -2t15.5 -3.5t13.5 -8t4.5 -13.5q0 -13 -9 -33q-60 -186 -225 -186q-62 0 -109.5 24.5t-75 61.5t-45 88t-23.5 98t-6 97zM168 802
q0 20 36.5 71.5t53.5 51.5q20 0 44 -16t24 -33q0 -20 -48 -60t-68 -40q-42 0 -42 26z" />
    <glyph glyph-name="cacute" unicode="&#x107;" horiz-adv-x="504" 
d="M20 356q0 14 8 102q14 140 55 198q30 44 60.5 61t76.5 28q102 0 149.5 -21.5t85.5 -96.5q0 -20 -4 -36q-11 -7 -27.5 -22t-31.5 -24t-34 -9q-24 0 -46 30t-51 30q-96 0 -96 -210q0 -26 4 -62t12.5 -80.5t26.5 -75t43 -30.5q35 0 56 25t27.5 55t17.5 55t29 25q1 0 6.5 -1
t7.5 -1h2q2 -1 3 -1q84 -24 84 -50v-4l-1 -3q-14 -103 -74 -171.5t-164 -68.5q-63 0 -112.5 35.5t-73.5 94.5q-7 17 -11.5 34t-9.5 45t-6 35q-12 58 -12 114zM148 818q0 20 36.5 71.5t53.5 51.5q20 0 44 -16t24 -33q0 -20 -48 -60t-68 -40q-42 0 -42 26z" />
    <glyph glyph-name="Ccircumflex" unicode="&#x108;" horiz-adv-x="533" 
d="M20 371q0 54 26 158q0 1 2 6t2 6l36 75q22 46 80.5 80t110.5 34q74 0 110 -30q66 -50 105 -127q2 -4 2 -7q0 -36 -37.5 -53.5t-80.5 -17.5q-16 0 -26.5 10.5t-16 22.5t-18 22.5t-31.5 10.5q-30 0 -49.5 -16.5t-28 -47.5t-11 -58.5t-2.5 -64.5q0 -57 4 -85q1 -3 6.5 -32
t11 -48t20 -37.5t33.5 -18.5q32 0 47.5 18t31.5 57l4 10q1 1 3 6t3 6.5t3 5t4.5 5t6 2.5t7.5 1q12 0 37 -7t34 -8q2 0 13 -1t17.5 -2t15.5 -3.5t13.5 -8t4.5 -13.5q0 -13 -9 -33q-60 -186 -225 -186q-62 0 -109.5 24.5t-75 61.5t-45 88t-23.5 98t-6 97zM136 795
q0 16 10.5 32.5t29 36.5t24.5 28q19 19 59 22t65 -7q26 -10 60 -89q2 -3 7 -8t8 -9t3 -9q0 -15 -47 -15l-7 1q-6 0 -14 0.5t-12 0.5q-18 5 -32.5 35.5t-22.5 30.5q-3 0 -3 -2q-8 -12 -15.5 -27t-10 -19t-10.5 -9.5t-19 -6.5t-33 -2q-1 0 -3.5 0.5t-3.5 0.5q-33 4 -33 15z
" />
    <glyph glyph-name="ccircumflex" unicode="&#x109;" horiz-adv-x="504" 
d="M20 356q0 14 8 102q14 140 55 198q30 44 60.5 61t76.5 28q102 0 149.5 -21.5t85.5 -96.5q0 -20 -4 -36q-11 -7 -27.5 -22t-31.5 -24t-34 -9q-24 0 -46 30t-51 30q-96 0 -96 -210q0 -26 4 -62t12.5 -80.5t26.5 -75t43 -30.5q35 0 56 25t27.5 55t17.5 55t29 25q1 0 6.5 -1
t7.5 -1h2q2 -1 3 -1q84 -24 84 -50v-4l-1 -3q-14 -103 -74 -171.5t-164 -68.5q-63 0 -112.5 35.5t-73.5 94.5q-7 17 -11.5 34t-9.5 45t-6 35q-12 58 -12 114zM116 811q0 16 10.5 32.5t29 36.5t24.5 28q19 19 59 22t65 -7q26 -10 60 -89q2 -3 7 -8t8 -9t3 -9q0 -15 -47 -15
l-7 1q-6 0 -14 0.5t-12 0.5q-18 5 -32.5 35.5t-22.5 30.5q-3 0 -3 -2q-8 -12 -15.5 -27t-10 -19t-10.5 -9.5t-19 -6.5t-33 -2q-1 0 -3.5 0.5t-3.5 0.5q-33 4 -33 15z" />
    <glyph glyph-name="Cdotaccent" unicode="&#x10a;" horiz-adv-x="533" 
d="M20 371q0 54 26 158q0 1 2 6t2 6l36 75q22 46 80.5 80t110.5 34q74 0 110 -30q66 -50 105 -127q2 -4 2 -7q0 -36 -37.5 -53.5t-80.5 -17.5q-16 0 -26.5 10.5t-16 22.5t-18 22.5t-31.5 10.5q-30 0 -49.5 -16.5t-28 -47.5t-11 -58.5t-2.5 -64.5q0 -57 4 -85q1 -3 6.5 -32
t11 -48t20 -37.5t33.5 -18.5q32 0 47.5 18t31.5 57l4 10q1 1 3 6t3 6.5t3 5t4.5 5t6 2.5t7.5 1q12 0 37 -7t34 -8q2 0 13 -1t17.5 -2t15.5 -3.5t13.5 -8t4.5 -13.5q0 -13 -9 -33q-60 -186 -225 -186q-62 0 -109.5 24.5t-75 61.5t-45 88t-23.5 98t-6 97zM207 823
q0 22 19 42.5t47 20.5q24 0 41.5 -18t17.5 -37q0 -22 -16.5 -39.5t-42.5 -17.5q-30 0 -48 13.5t-18 35.5z" />
    <glyph glyph-name="cdotaccent" unicode="&#x10b;" horiz-adv-x="504" 
d="M20 356q0 14 8 102q14 140 55 198q30 44 60.5 61t76.5 28q102 0 149.5 -21.5t85.5 -96.5q0 -20 -4 -36q-11 -7 -27.5 -22t-31.5 -24t-34 -9q-24 0 -46 30t-51 30q-96 0 -96 -210q0 -26 4 -62t12.5 -80.5t26.5 -75t43 -30.5q35 0 56 25t27.5 55t17.5 55t29 25q1 0 6.5 -1
t7.5 -1h2q2 -1 3 -1q84 -24 84 -50v-4l-1 -3q-14 -103 -74 -171.5t-164 -68.5q-63 0 -112.5 35.5t-73.5 94.5q-7 17 -11.5 34t-9.5 45t-6 35q-12 58 -12 114zM187 839q0 22 19 42.5t47 20.5q24 0 41.5 -18t17.5 -37q0 -22 -16.5 -39.5t-42.5 -17.5q-30 0 -48 13.5t-18 35.5z
" />
    <glyph glyph-name="Ccaron" unicode="&#x10c;" horiz-adv-x="533" 
d="M20 371q0 54 26 158q0 1 2 6t2 6l36 75q22 46 80.5 80t110.5 34q74 0 110 -30q66 -50 105 -127q2 -4 2 -7q0 -36 -37.5 -53.5t-80.5 -17.5q-16 0 -26.5 10.5t-16 22.5t-18 22.5t-31.5 10.5q-30 0 -49.5 -16.5t-28 -47.5t-11 -58.5t-2.5 -64.5q0 -57 4 -85q1 -3 6.5 -32
t11 -48t20 -37.5t33.5 -18.5q32 0 47.5 18t31.5 57l4 10q1 1 3 6t3 6.5t3 5t4.5 5t6 2.5t7.5 1q12 0 37 -7t34 -8q2 0 13 -1t17.5 -2t15.5 -3.5t13.5 -8t4.5 -13.5q0 -13 -9 -33q-60 -186 -225 -186q-62 0 -109.5 24.5t-75 61.5t-45 88t-23.5 98t-6 97zM136 897q0 16 40 16
q27 -1 40 -4.5t17 -6t13.5 -22t17.5 -31.5q0 -2 3 -2q8 0 22.5 30.5t32.5 35.5q4 0 12 0.5t14 0.5l7 1q47 0 47 -15q-1 -12 -31 -60t-47 -55q-25 -10 -65 -7t-59 22q-6 8 -24.5 28t-29 36.5t-10.5 32.5z" />
    <glyph glyph-name="ccaron" unicode="&#x10d;" horiz-adv-x="504" 
d="M20 356q0 14 8 102q14 140 55 198q30 44 60.5 61t76.5 28q102 0 149.5 -21.5t85.5 -96.5q0 -20 -4 -36q-11 -7 -27.5 -22t-31.5 -24t-34 -9q-24 0 -46 30t-51 30q-96 0 -96 -210q0 -26 4 -62t12.5 -80.5t26.5 -75t43 -30.5q35 0 56 25t27.5 55t17.5 55t29 25q1 0 6.5 -1
t7.5 -1h2q2 -1 3 -1q84 -24 84 -50v-4l-1 -3q-14 -103 -74 -171.5t-164 -68.5q-63 0 -112.5 35.5t-73.5 94.5q-7 17 -11.5 34t-9.5 45t-6 35q-12 58 -12 114zM116 913q0 16 40 16q27 -1 40 -4.5t17 -6t13.5 -22t17.5 -31.5q0 -2 3 -2q8 0 22.5 30.5t32.5 35.5q4 0 12 0.5
t14 0.5l7 1q47 0 47 -15q-1 -12 -31 -60t-47 -55q-25 -10 -65 -7t-59 22q-6 8 -24.5 28t-29 36.5t-10.5 32.5z" />
    <glyph glyph-name="Dcaron" unicode="&#x10e;" horiz-adv-x="480" 
d="M24 222q-4 117 -4 321v13q0 88 8 132q5 25 24 32.5t49 7.5q118 0 186.5 -32t110.5 -117t62 -243q0 -84 -28 -164q-14 -41 -83 -101l-10 -8q-69 -46 -218 -46h-55q-34 8 -36 76v5q-4 40 -4 104q0 2 -1 10t-1 10zM175 162q1 -9 10 -12q37 0 64 11.5t41 28t22 43.5t9.5 49
t1.5 54v32q0 61 -39.5 134.5t-90.5 73.5q-18 0 -23 -10t-5 -30v-41q0 -180 10 -333zM34 893q0 16 40 16q27 -1 40 -4.5t17 -6t13.5 -22t17.5 -31.5q0 -2 3 -2q8 0 22.5 30.5t32.5 35.5q4 0 12 0.5t14 0.5l7 1q47 0 47 -15q-1 -12 -31 -60t-47 -55q-25 -10 -65 -7t-59 22
q-6 8 -24.5 28t-29 36.5t-10.5 32.5z" />
    <glyph glyph-name="dcaron" unicode="&#x10f;" horiz-adv-x="490" 
d="M24 33q0 14 -2 92.5t-2 91.5v125q0 185 3 272q0 43 3 61q0 23 9 37.5t27 20t31 7t35 1.5h13q44 0 73 -1.5t68 -9t65 -21t51.5 -39t41.5 -62.5q30 -73 30 -223v-12q0 -45 -7 -73q-6 -19 -9.5 -54.5t-6.5 -48.5q-56 -183 -179 -197q-40 -5 -153 -5q-43 0 -65 7.5t-26 30.5z
M157 150q3 -22 36 -22q29 0 52.5 8t38.5 19.5t27 32.5t18 38t10.5 45.5t6 45.5t3.5 47v9q0 46 -1.5 73t-10.5 67.5t-28 67.5q-16 20 -42.5 25t-69.5 5h-7q-5 3 -13 3q-13 0 -13 -8l-10 -263q1 -131 3 -193zM63 881q0 16 40 16q27 -1 40 -4.5t17 -6t13.5 -22t17.5 -31.5
q0 -2 3 -2q8 0 22.5 30.5t32.5 35.5q4 0 12 0.5t15 0.5l6 1q47 0 47 -15q-1 -12 -31 -60t-47 -55q-25 -10 -65 -7t-59 22q-6 8 -24.5 28t-29 36.5t-10.5 32.5z" />
    <glyph glyph-name="Dcroat" unicode="&#x110;" horiz-adv-x="514" 
d="M21 363q0 46 33 51v46v48.5v34.5v13q0 88 8 132q5 25 24 32.5t49 7.5q118 0 186.5 -32t110.5 -117t62 -243q0 -84 -28 -164q-14 -41 -83 -101l-10 -8q-69 -46 -218 -46h-55q-34 8 -36 76v5q-4 40 -4 104q0 2 -1 10t-1 10l-6 87q-11 0 -18 4t-9.5 14t-3 16t-0.5 20z
M209 162q1 -9 10 -12q37 0 64 11.5t41 28t22 43.5t9.5 49t1.5 54v32q0 61 -39.5 134.5t-90.5 73.5q-18 0 -23 -10t-5 -30v-119h27q35 -7 35 -67q0 -21 -33 -24q-11 -2 -27 -4q5 -112 8 -160z" />
    <glyph glyph-name="dcroat" unicode="&#x111;" horiz-adv-x="528" 
d="M21 383q0 28 9.5 38.5t27.5 12.5q0 93 3 180q0 43 3 61q0 23 9 37.5t27 20t31 7t35 1.5h13q44 0 73 -1.5t68 -9t65 -21t51.5 -39t41.5 -62.5q30 -73 30 -223v-12q0 -45 -7 -73q-6 -19 -9.5 -54.5t-6.5 -48.5q-56 -183 -179 -197q-40 -5 -153 -5q-43 0 -65 7.5t-26 30.5
q0 14 -2 92.5t-2 91.5v112h-6q-11 0 -18 4t-9.5 14t-3 16t-0.5 20zM195 150q3 -22 36 -22q29 0 52.5 8t38.5 19.5t27 32.5t18 38t10.5 45.5t6 45.5t3.5 47v9q0 46 -1.5 73t-10.5 67.5t-28 67.5q-16 20 -42.5 25t-69.5 5h-7q-5 3 -13 3q-13 0 -13 -8l-7 -169h31q35 -7 35 -67
q0 -21 -33 -24q-27 -4 -36 -5q0 -99 3 -191z" />
    <glyph glyph-name="Emacron" unicode="&#x112;" horiz-adv-x="406" 
d="M70 25q-10 5 -19.5 34.5t-9.5 37.5l-20 420q0 2 -0.5 8t-0.5 10q0 8 0.5 22t0.5 18q1 5 2 32.5t3.5 48t12.5 45t28 35.5l8 4q14 0 43.5 -5.5t45.5 -5.5q18 0 43 3.5t50 3.5q8 0 19.5 -0.5t14.5 -0.5q11 0 17 3q41 0 59.5 -18.5t18.5 -59.5t-11 -63t-45 -22q-12 0 -35 0.5
t-34 0.5q-7 0 -34.5 -1.5t-42.5 -1.5q-8 -2 -8 -21v-6q0 -6 1 -36t1 -49q4 -11 42 -11q8 0 22 0.5t20 0.5q12 0 20 -10t8 -22v-75q0 -11 -10.5 -21.5t-21.5 -10.5h-68q-1 0 -4.5 -3t-3.5 -4v-123q0 -4 8 -8q1 0 10.5 0.5t16.5 0.5q37 0 132 -11q34 -9 34 -77
q0 -53 -25 -69.5t-75 -16.5q-143 0 -213 24zM71 839q0 12 1.5 21t6 14.5t7 9t12 5t12.5 2t16 0.5h16q90 2 134 2q35 -7 35 -67q0 -21 -33 -24q-124 -17 -176 -17q-11 0 -18 4t-9.5 14t-3 16t-0.5 20z" />
    <glyph glyph-name="emacron" unicode="&#x113;" horiz-adv-x="386" 
d="M28 43l-8 171l12 343q2 10 3.5 41.5t3.5 57.5t15 49.5t36 25.5q8 0 40.5 -1t56.5 -1q50 0 103 4q22 0 49 -17t27 -38q0 -85 -32 -85q-22 0 -77.5 3.5t-78.5 3.5q-8 0 -13.5 -5t-7.5 -15t-2.5 -19t-0.5 -22t-1 -19q0 -16 2.5 -23.5t4.5 -9t12.5 -2t17.5 -1.5q5 -1 15.5 -2
t15 -1.5t12.5 -2t11.5 -3t9 -4.5t8 -7t5.5 -9.5t4 -12.5t1 -16q0 -8 -6 -40q-1 -3 -1.5 -9t-1 -8t-1.5 -7t-2.5 -6.5t-3 -4.5t-4 -4.5t-5.5 -3t-7.5 -2t-9.5 -0.5q-13 0 -38.5 2.5t-38.5 2.5l-4 -2q-6 0 -6 -155v-20q0 -19 10 -19h132q45 0 57 -16t12 -64q0 -42 -13 -57.5
t-46 -15.5h-168q-95 0 -99 46zM63 833q0 12 1.5 21t6 14.5t7 9t12 5t12.5 2t16 0.5h16q90 2 134 2q35 -7 35 -67q0 -21 -33 -24q-124 -17 -176 -17q-11 0 -18 4t-9.5 14t-3 16t-0.5 20z" />
    <glyph glyph-name="Ebreve" unicode="&#x114;" horiz-adv-x="406" 
d="M70 25q-10 5 -19.5 34.5t-9.5 37.5l-20 420q0 2 -0.5 8t-0.5 10q0 8 0.5 22t0.5 18q1 5 2 32.5t3.5 48t12.5 45t28 35.5l8 4q14 0 43.5 -5.5t45.5 -5.5q18 0 43 3.5t50 3.5q8 0 19.5 -0.5t14.5 -0.5q11 0 17 3q41 0 59.5 -18.5t18.5 -59.5t-11 -63t-45 -22q-12 0 -35 0.5
t-34 0.5q-7 0 -34.5 -1.5t-42.5 -1.5q-8 -2 -8 -21v-6q0 -6 1 -36t1 -49q4 -11 42 -11q8 0 22 0.5t20 0.5q12 0 20 -10t8 -22v-75q0 -11 -10.5 -21.5t-21.5 -10.5h-68q-1 0 -4.5 -3t-3.5 -4v-123q0 -4 8 -8q1 0 10.5 0.5t16.5 0.5q37 0 132 -11q34 -9 34 -77
q0 -53 -25 -69.5t-75 -16.5q-143 0 -213 24zM281 792q-37 -14 -77 -15t-71 19.5t-31 56.5q0 28 15.5 38.5t51.5 10.5q34 0 34 -23q0 -4 -1.5 -12t-1.5 -11q0 -11 11 -11q8 0 12 5t7.5 18t3.5 14q5 18 50 18q18 0 29.5 -8.5t11.5 -21.5q0 -21 -12 -44t-32 -34z" />
    <glyph glyph-name="ebreve" unicode="&#x115;" horiz-adv-x="386" 
d="M28 43l-8 171l12 343q2 10 3.5 41.5t3.5 57.5t15 49.5t36 25.5q8 0 40.5 -1t56.5 -1q50 0 103 4q22 0 49 -17t27 -38q0 -85 -32 -85q-22 0 -77.5 3.5t-78.5 3.5q-8 0 -13.5 -5t-7.5 -15t-2.5 -19t-0.5 -22t-1 -19q0 -16 2.5 -23.5t4.5 -9t12.5 -2t17.5 -1.5q5 -1 15.5 -2
t15 -1.5t12.5 -2t11.5 -3t9 -4.5t8 -7t5.5 -9.5t4 -12.5t1 -16q0 -8 -6 -40q-1 -3 -1.5 -9t-1 -8t-1.5 -7t-2.5 -6.5t-3 -4.5t-4 -4.5t-5.5 -3t-7.5 -2t-9.5 -0.5q-13 0 -38.5 2.5t-38.5 2.5l-4 -2q-6 0 -6 -155v-20q0 -19 10 -19h132q45 0 57 -16t12 -64q0 -42 -13 -57.5
t-46 -15.5h-168q-95 0 -99 46zM273 786q-37 -14 -77 -15t-71 19.5t-31 56.5q0 28 15.5 38.5t51.5 10.5q34 0 34 -23q0 -4 -1.5 -12t-1.5 -11q0 -11 11 -11q8 0 12 5t7.5 18t3.5 14q5 18 50 18q18 0 29.5 -8.5t11.5 -21.5q0 -21 -12 -44t-32 -34z" />
    <glyph glyph-name="Edotaccent" unicode="&#x116;" horiz-adv-x="406" 
d="M70 25q-10 5 -19.5 34.5t-9.5 37.5l-20 420q0 2 -0.5 8t-0.5 10q0 8 0.5 22t0.5 18q1 5 2 32.5t3.5 48t12.5 45t28 35.5l8 4q14 0 43.5 -5.5t45.5 -5.5q18 0 43 3.5t50 3.5q8 0 19.5 -0.5t14.5 -0.5q11 0 17 3q41 0 59.5 -18.5t18.5 -59.5t-11 -63t-45 -22q-12 0 -35 0.5
t-34 0.5q-7 0 -34.5 -1.5t-42.5 -1.5q-8 -2 -8 -21v-6q0 -6 1 -36t1 -49q4 -11 42 -11q8 0 22 0.5t20 0.5q12 0 20 -10t8 -22v-75q0 -11 -10.5 -21.5t-21.5 -10.5h-68q-1 0 -4.5 -3t-3.5 -4v-123q0 -4 8 -8q1 0 10.5 0.5t16.5 0.5q37 0 132 -11q34 -9 34 -77
q0 -53 -25 -69.5t-75 -16.5q-143 0 -213 24zM141 827q0 22 19 42.5t47 20.5q24 0 41.5 -18t17.5 -37q0 -22 -16.5 -39.5t-42.5 -17.5q-30 0 -48 13.5t-18 35.5z" />
    <glyph glyph-name="edotaccent" unicode="&#x117;" horiz-adv-x="386" 
d="M28 43l-8 171l12 343q2 10 3.5 41.5t3.5 57.5t15 49.5t36 25.5q8 0 40.5 -1t56.5 -1q50 0 103 4q22 0 49 -17t27 -38q0 -85 -32 -85q-22 0 -77.5 3.5t-78.5 3.5q-8 0 -13.5 -5t-7.5 -15t-2.5 -19t-0.5 -22t-1 -19q0 -16 2.5 -23.5t4.5 -9t12.5 -2t17.5 -1.5q5 -1 15.5 -2
t15 -1.5t12.5 -2t11.5 -3t9 -4.5t8 -7t5.5 -9.5t4 -12.5t1 -16q0 -8 -6 -40q-1 -3 -1.5 -9t-1 -8t-1.5 -7t-2.5 -6.5t-3 -4.5t-4 -4.5t-5.5 -3t-7.5 -2t-9.5 -0.5q-13 0 -38.5 2.5t-38.5 2.5l-4 -2q-6 0 -6 -155v-20q0 -19 10 -19h132q45 0 57 -16t12 -64q0 -42 -13 -57.5
t-46 -15.5h-168q-95 0 -99 46zM133 821q0 22 19 42.5t47 20.5q24 0 41.5 -18t17.5 -37q0 -22 -16.5 -39.5t-42.5 -17.5q-30 0 -48 13.5t-18 35.5z" />
    <glyph glyph-name="Eogonek" unicode="&#x118;" horiz-adv-x="406" 
d="M204 -96q0 2 -0.5 10t-0.5 9q0 43 16 78q-90 4 -149 24q-10 5 -19.5 34.5t-9.5 37.5l-20 420q0 2 -0.5 8t-0.5 10q0 8 0.5 22t0.5 18q1 5 2 32.5t3.5 48t12.5 45t28 35.5l8 4q14 0 43.5 -5.5t45.5 -5.5q18 0 43 3.5t50 3.5q8 0 19.5 -0.5t14.5 -0.5q11 0 17 3
q41 0 59.5 -18.5t18.5 -59.5t-11 -63t-45 -22q-12 0 -35 0.5t-34 0.5q-7 0 -34.5 -1.5t-42.5 -1.5q-8 -2 -8 -21v-6q0 -6 1 -36t1 -49q4 -11 42 -11q8 0 22 0.5t20 0.5q12 0 20 -10t8 -22v-75q0 -11 -10.5 -21.5t-21.5 -10.5h-68q-1 0 -4.5 -3t-3.5 -4v-123q0 -4 8 -8
q1 0 10.5 0.5t16.5 0.5q37 0 132 -11q34 -9 34 -77q0 -47 -19.5 -65t-57.5 -21q-2 -3 -8.5 -13t-9.5 -15t-6 -14.5t-3 -17.5q0 -22 15 -22q10 0 25 12.5t26 12.5q12 0 22.5 -18t10.5 -29q0 -23 -26.5 -42t-51.5 -19q-35 0 -62 18t-34 50z" />
    <glyph glyph-name="eogonek" unicode="&#x119;" horiz-adv-x="386" 
d="M192 -112q0 2 -0.5 10t-0.5 9q0 50 22 90h-86q-95 0 -99 46l-8 171l12 343q2 10 3.5 41.5t3.5 57.5t15 49.5t36 25.5q8 0 40.5 -1t56.5 -1q50 0 103 4q22 0 49 -17t27 -38q0 -85 -32 -85q-22 0 -77.5 3.5t-78.5 3.5q-8 0 -13.5 -5t-7.5 -15t-2.5 -19t-0.5 -22t-1 -19
q0 -16 2.5 -23.5t4.5 -9t12.5 -2t17.5 -1.5q5 -1 15.5 -2t15 -1.5t12.5 -2t11.5 -3t9 -4.5t8 -7t5.5 -9.5t4 -12.5t1 -16q0 -8 -6 -40q-1 -3 -1.5 -9t-1 -8t-1.5 -7t-2.5 -6.5t-3 -4.5t-4 -4.5t-5.5 -3t-7.5 -2t-9.5 -0.5q-13 0 -38.5 2.5t-38.5 2.5l-4 -2q-6 0 -6 -155v-20
q0 -19 10 -19h132q45 0 57 -16t12 -64q0 -40 -12 -55.5t-42 -17.5q-2 -5 -17.5 -30t-15.5 -42q0 -22 15 -22q10 0 25 12.5t26 12.5q12 0 22.5 -18t10.5 -29q0 -23 -26.5 -42t-51.5 -19q-35 0 -62 18t-34 50z" />
    <glyph glyph-name="Ecaron" unicode="&#x11a;" horiz-adv-x="406" 
d="M70 25q-10 5 -19.5 34.5t-9.5 37.5l-20 420q0 2 -0.5 8t-0.5 10q0 8 0.5 22t0.5 18q1 5 2 32.5t3.5 48t12.5 45t28 35.5l8 4q14 0 43.5 -5.5t45.5 -5.5q18 0 43 3.5t50 3.5q8 0 19.5 -0.5t14.5 -0.5q11 0 17 3q41 0 59.5 -18.5t18.5 -59.5t-11 -63t-45 -22q-12 0 -35 0.5
t-34 0.5q-7 0 -34.5 -1.5t-42.5 -1.5q-8 -2 -8 -21v-6q0 -6 1 -36t1 -49q4 -11 42 -11q8 0 22 0.5t20 0.5q12 0 20 -10t8 -22v-75q0 -11 -10.5 -21.5t-21.5 -10.5h-68q-1 0 -4.5 -3t-3.5 -4v-123q0 -4 8 -8q1 0 10.5 0.5t16.5 0.5q37 0 132 -11q34 -9 34 -77
q0 -53 -25 -69.5t-75 -16.5q-143 0 -213 24zM70 901q0 16 40 16q27 -1 40 -4.5t17 -6t13.5 -22t17.5 -31.5q0 -2 3 -2q8 0 22.5 30.5t32.5 35.5q4 0 12 0.5t14 0.5l7 1q47 0 47 -15q-1 -12 -31 -60t-47 -55q-25 -10 -65 -7t-59 22q-6 8 -24.5 28t-29 36.5t-10.5 32.5z" />
    <glyph glyph-name="ecaron" unicode="&#x11b;" horiz-adv-x="386" 
d="M28 43l-8 171l12 343q2 10 3.5 41.5t3.5 57.5t15 49.5t36 25.5q8 0 40.5 -1t56.5 -1q50 0 103 4q22 0 49 -17t27 -38q0 -85 -32 -85q-22 0 -77.5 3.5t-78.5 3.5q-8 0 -13.5 -5t-7.5 -15t-2.5 -19t-0.5 -22t-1 -19q0 -16 2.5 -23.5t4.5 -9t12.5 -2t17.5 -1.5q5 -1 15.5 -2
t15 -1.5t12.5 -2t11.5 -3t9 -4.5t8 -7t5.5 -9.5t4 -12.5t1 -16q0 -8 -6 -40q-1 -3 -1.5 -9t-1 -8t-1.5 -7t-2.5 -6.5t-3 -4.5t-4 -4.5t-5.5 -3t-7.5 -2t-9.5 -0.5q-13 0 -38.5 2.5t-38.5 2.5l-4 -2q-6 0 -6 -155v-20q0 -19 10 -19h132q45 0 57 -16t12 -64q0 -42 -13 -57.5
t-46 -15.5h-168q-95 0 -99 46zM62 895q0 16 40 16q27 -1 40 -4.5t17 -6t13.5 -22t17.5 -31.5q0 -2 3 -2q8 0 22.5 30.5t32.5 35.5q4 0 12 0.5t14 0.5l7 1q47 0 47 -15q-1 -12 -31 -60t-47 -55q-25 -10 -65 -7t-59 22q-6 8 -24.5 28t-29 36.5t-10.5 32.5z" />
    <glyph glyph-name="Gcircumflex" unicode="&#x11c;" horiz-adv-x="537" 
d="M20 354q0 116 38 191q53 106 160.5 151.5t218.5 -7.5q23 -12 46.5 -51t23.5 -51q0 -11 -6 -22t-16 -19t-21.5 -14.5t-23 -11.5t-21.5 -8t-16 -5l-6 -2q-10 0 -16 7.5t-10 20t-7 16.5q-26 34 -65 31t-76.5 -28.5t-48.5 -53.5q-17 -46 -17 -111q0 -41 7.5 -83t23 -82
t43.5 -65t64 -25q86 0 86 129q0 28 -13 32q-50 0 -60 10t-10 50v23q0 35 20 41q34 10 96 10q36 0 57.5 -9t31 -30.5t12 -42t2.5 -58.5q0 -129 -60.5 -207.5t-186.5 -78.5q-57 0 -104 32.5t-76.5 85.5t-47 113t-22.5 122zM156 785q0 16 10.5 32.5t29 36.5t24.5 28
q19 19 59 22t65 -7q26 -10 60 -89q2 -3 7 -8t8 -9t3 -9q0 -15 -47 -15l-7 1q-6 0 -14 0.5t-12 0.5q-18 5 -32.5 35.5t-22.5 30.5q-3 0 -3 -2q-8 -12 -15.5 -27t-10 -19t-10.5 -9.5t-19 -6.5t-33 -2q-1 0 -3.5 0.5t-3.5 0.5q-33 4 -33 15z" />
    <glyph glyph-name="gcircumflex" unicode="&#x11d;" horiz-adv-x="535" 
d="M49 105q-29 62 -29 168q0 146 47 269q13 34 27.5 59.5t40.5 54t66 44.5t92 16q55 0 108 -29l25 -17.5t39.5 -36t24.5 -42.5q0 -8 -6 -16.5t-10 -12t-16 -11.5l-12 -8q-5 -4 -14 -12.5t-16.5 -13t-15.5 -4.5q-10 0 -22 12q-2 2 -20.5 22t-26 25.5t-23.5 13.5t-33 8
q-53 0 -88 -84.5t-35 -200.5q0 -27 3 -54t11.5 -62t29 -56.5t50.5 -21.5h64q76 18 76 121q0 11 -6 11l-16 1q-15 0 -30.5 1t-30.5 7t-17 15q-4 24 -4 40q0 51 7.5 65t38.5 14q96 0 162 -11q25 -10 25 -54q0 -63 -4.5 -108.5t-19 -91t-40 -73.5t-69 -45.5t-104.5 -17.5
q-179 0 -229 116zM146 785q0 16 10.5 32.5t29 36.5t24.5 28q19 19 59 22t65 -7q26 -10 60 -89q2 -3 7 -8t8 -9t3 -9q0 -15 -47 -15l-7 1q-6 0 -14 0.5t-12 0.5q-18 5 -32.5 35.5t-22.5 30.5q-3 0 -3 -2q-8 -12 -15.5 -27t-10 -19t-10.5 -9.5t-19 -6.5t-33 -2q-1 0 -3.5 0.5
t-3.5 0.5q-33 4 -33 15z" />
    <glyph glyph-name="Gbreve" unicode="&#x11e;" horiz-adv-x="537" 
d="M20 354q0 116 38 191q53 106 160.5 151.5t218.5 -7.5q23 -12 46.5 -51t23.5 -51q0 -11 -6 -22t-16 -19t-21.5 -14.5t-23 -11.5t-21.5 -8t-16 -5l-6 -2q-10 0 -16 7.5t-10 20t-7 16.5q-26 34 -65 31t-76.5 -28.5t-48.5 -53.5q-17 -46 -17 -111q0 -41 7.5 -83t23 -82
t43.5 -65t64 -25q86 0 86 129q0 28 -13 32q-50 0 -60 10t-10 50v23q0 35 20 41q34 10 96 10q36 0 57.5 -9t31 -30.5t12 -42t2.5 -58.5q0 -129 -60.5 -207.5t-186.5 -78.5q-57 0 -104 32.5t-76.5 85.5t-47 113t-22.5 122zM367 778q-37 -14 -77 -15t-71 19.5t-31 56.5
q0 28 15.5 38.5t51.5 10.5q34 0 34 -23q0 -4 -1.5 -12t-1.5 -11q0 -11 11 -11q8 0 12 5t7.5 18t3.5 14q5 18 50 18q18 0 29.5 -8.5t11.5 -21.5q0 -21 -12 -44t-32 -34z" />
    <glyph glyph-name="gbreve" unicode="&#x11f;" horiz-adv-x="535" 
d="M49 105q-29 62 -29 168q0 146 47 269q13 34 27.5 59.5t40.5 54t66 44.5t92 16q55 0 108 -29l25 -17.5t39.5 -36t24.5 -42.5q0 -8 -6 -16.5t-10 -12t-16 -11.5l-12 -8q-5 -4 -14 -12.5t-16.5 -13t-15.5 -4.5q-10 0 -22 12q-2 2 -20.5 22t-26 25.5t-23.5 13.5t-33 8
q-53 0 -88 -84.5t-35 -200.5q0 -27 3 -54t11.5 -62t29 -56.5t50.5 -21.5h64q76 18 76 121q0 11 -6 11l-16 1q-15 0 -30.5 1t-30.5 7t-17 15q-4 24 -4 40q0 51 7.5 65t38.5 14q96 0 162 -11q25 -10 25 -54q0 -63 -4.5 -108.5t-19 -91t-40 -73.5t-69 -45.5t-104.5 -17.5
q-179 0 -229 116zM357 778q-37 -14 -77 -15t-71 19.5t-31 56.5q0 28 15.5 38.5t51.5 10.5q34 0 34 -23q0 -4 -1.5 -12t-1.5 -11q0 -11 11 -11q8 0 12 5t7.5 18t3.5 14q5 18 50 18q18 0 29.5 -8.5t11.5 -21.5q0 -21 -12 -44t-32 -34z" />
    <glyph glyph-name="Gdotaccent" unicode="&#x120;" horiz-adv-x="537" 
d="M20 354q0 116 38 191q53 106 160.5 151.5t218.5 -7.5q23 -12 46.5 -51t23.5 -51q0 -11 -6 -22t-16 -19t-21.5 -14.5t-23 -11.5t-21.5 -8t-16 -5l-6 -2q-10 0 -16 7.5t-10 20t-7 16.5q-26 34 -65 31t-76.5 -28.5t-48.5 -53.5q-17 -46 -17 -111q0 -41 7.5 -83t23 -82
t43.5 -65t64 -25q86 0 86 129q0 28 -13 32q-50 0 -60 10t-10 50v23q0 35 20 41q34 10 96 10q36 0 57.5 -9t31 -30.5t12 -42t2.5 -58.5q0 -129 -60.5 -207.5t-186.5 -78.5q-57 0 -104 32.5t-76.5 85.5t-47 113t-22.5 122zM227 813q0 22 19 42.5t47 20.5q24 0 41.5 -18
t17.5 -37q0 -22 -16.5 -39.5t-42.5 -17.5q-30 0 -48 13.5t-18 35.5z" />
    <glyph glyph-name="gdotaccent" unicode="&#x121;" horiz-adv-x="535" 
d="M49 105q-29 62 -29 168q0 146 47 269q13 34 27.5 59.5t40.5 54t66 44.5t92 16q55 0 108 -29l25 -17.5t39.5 -36t24.5 -42.5q0 -8 -6 -16.5t-10 -12t-16 -11.5l-12 -8q-5 -4 -14 -12.5t-16.5 -13t-15.5 -4.5q-10 0 -22 12q-2 2 -20.5 22t-26 25.5t-23.5 13.5t-33 8
q-53 0 -88 -84.5t-35 -200.5q0 -27 3 -54t11.5 -62t29 -56.5t50.5 -21.5h64q76 18 76 121q0 11 -6 11l-16 1q-15 0 -30.5 1t-30.5 7t-17 15q-4 24 -4 40q0 51 7.5 65t38.5 14q96 0 162 -11q25 -10 25 -54q0 -63 -4.5 -108.5t-19 -91t-40 -73.5t-69 -45.5t-104.5 -17.5
q-179 0 -229 116zM217 813q0 22 19 42.5t47 20.5q24 0 41.5 -18t17.5 -37q0 -22 -16.5 -39.5t-42.5 -17.5q-30 0 -48 13.5t-18 35.5z" />
    <glyph glyph-name="Gcommaaccent" unicode="&#x122;" horiz-adv-x="537" 
d="M20 354q0 116 38 191q53 106 160.5 151.5t218.5 -7.5q23 -12 46.5 -51t23.5 -51q0 -11 -6 -22t-16 -19t-21.5 -14.5t-23 -11.5t-21.5 -8t-16 -5l-6 -2q-10 0 -16 7.5t-10 20t-7 16.5q-26 34 -65 31t-76.5 -28.5t-48.5 -53.5q-17 -46 -17 -111q0 -41 7.5 -83t23 -82
t43.5 -65t64 -25q86 0 86 129q0 28 -13 32q-50 0 -60 10t-10 50v23q0 35 20 41q34 10 96 10q36 0 57.5 -9t31 -30.5t12 -42t2.5 -58.5q0 -129 -60.5 -207.5t-186.5 -78.5q-57 0 -104 32.5t-76.5 85.5t-47 113t-22.5 122zM228 -173q0 5 15.5 15t15.5 18q0 1 -11 5t-22.5 13.5
t-11.5 22.5q0 14 14.5 33.5t32.5 19.5q25 0 43 -15t18 -40q0 -16 -14 -37t-47 -38q-4 -2 -17 -2q-16 0 -16 5z" />
    <glyph glyph-name="gcommaaccent" unicode="&#x123;" horiz-adv-x="535" 
d="M49 105q-29 62 -29 168q0 146 47 269q13 34 27.5 59.5t40.5 54t66 44.5t92 16q55 0 108 -29l25 -17.5t39.5 -36t24.5 -42.5q0 -8 -6 -16.5t-10 -12t-16 -11.5l-12 -8q-5 -4 -14 -12.5t-16.5 -13t-15.5 -4.5q-10 0 -22 12q-2 2 -20.5 22t-26 25.5t-23.5 13.5t-33 8
q-53 0 -88 -84.5t-35 -200.5q0 -27 3 -54t11.5 -62t29 -56.5t50.5 -21.5h64q76 18 76 121q0 11 -6 11l-16 1q-15 0 -30.5 1t-30.5 7t-17 15q-4 24 -4 40q0 51 7.5 65t38.5 14q96 0 162 -11q25 -10 25 -54q0 -63 -4.5 -108.5t-19 -91t-40 -73.5t-69 -45.5t-104.5 -17.5
q-179 0 -229 116zM238 -171q0 5 15.5 15t15.5 18l-11 4q-12 5 -23 14.5t-11 22.5q0 14 14.5 33.5t32.5 19.5q25 0 43 -15t18 -40q0 -16 -14 -37t-47 -38q-4 -2 -17 -2q-16 0 -16 5z" />
    <glyph glyph-name="Hcircumflex" unicode="&#x124;" horiz-adv-x="497" 
d="M27 83q-7 200 -7 405v83q0 78 11 96t60 18h59q27 -8 27 -54q0 -36 -1.5 -102t-1.5 -105q0 -49 11 -49h28.5t33.5 0.5t29 2.5t23.5 6.5t9.5 11.5q0 8 0.5 51.5t0.5 50.5q0 16 -0.5 67t-0.5 77q0 17 3 26q5 10 34.5 15.5t49.5 5.5q35 0 52.5 -13.5t18.5 -45.5q1 -29 4 -176
v-24q0 -20 2 -32q4 -86 4 -225v-130q-5 -21 -10.5 -27.5t-25.5 -13.5q-10 0 -42.5 2t-53.5 2q-36 9 -36 91q0 11 0.5 32.5t0.5 30.5v66q0 18 -11 22t-51 4h-11q-64 0 -64 -32q0 -24 1.5 -72.5t1.5 -74.5q0 -59 -20 -71q-60 -13 -75 -13q-53 0 -53 55q0 4 0.5 10.5t0.5 9.5
q0 9 -2 19zM110 733q0 16 10.5 32.5t29 36.5t24.5 28q19 19 59 22t65 -7q26 -10 60 -89q2 -3 7 -8t8 -9t3 -9q0 -15 -47 -15l-7 1q-6 0 -14 0.5t-12 0.5q-18 5 -32.5 35.5t-22.5 30.5q-3 0 -3 -2q-8 -12 -15.5 -27t-10 -19t-10.5 -9.5t-19 -6.5t-33 -2q-1 0 -3.5 0.5
t-3.5 0.5q-33 4 -33 15z" />
    <glyph glyph-name="hcircumflex" unicode="&#x125;" horiz-adv-x="452" 
d="M22 31q0 20 -1 131.5t-1 130.5q0 146 2 204l6 177q2 6 2.5 20.5t5.5 21.5t20 7q7 0 22.5 -2t23.5 -2q3 0 11.5 1t12.5 1q51 0 51 -41q0 -14 -2 -24l-1 -1v-2q-8 -247 -8 -249q0 -37 11 -37q55 0 85 2q13 2 14 21v4l14 301q0 8 8.5 18t15.5 10h84q8 0 20.5 -5.5
t13.5 -11.5q0 -66 -4 -200t-4 -201v-17q0 -10 -3 -64t-3 -63v-51q0 -2 0.5 -12.5t0.5 -17.5q0 -60 -21 -65q-10 0 -31 -3.5t-32 -3.5q-15 0 -37 3q-27 0 -27 113q0 18 0.5 54t0.5 53q-7 9 -36 9h-20q-48 0 -48 -21q0 -40 2 -120q0 -8 2.5 -28t2.5 -31q0 -1 -0.5 -7.5
t-0.5 -7.5q0 -13 -28.5 -18.5t-57.5 -5.5q-17 0 -39 8.5t-27 21.5zM93 757q0 16 10.5 32.5t29 36.5t24.5 28q19 19 59 22t65 -7q26 -10 60 -89q2 -3 7 -8t8 -9t3 -9q0 -15 -47 -15l-6 1q-7 0 -15 0.5t-12 0.5q-18 5 -32.5 35.5t-22.5 30.5q-3 0 -3 -2q-8 -12 -15.5 -27
t-10 -19t-10.5 -9.5t-19 -6.5t-33 -2q-1 0 -3.5 0.5t-3.5 0.5q-33 4 -33 15z" />
    <glyph glyph-name="Hbar" unicode="&#x126;" horiz-adv-x="497" 
d="M27 83q-7 200 -7 405v83q0 78 11 96t60 18h59q27 -8 27 -54v-50h15q78 2 117 2v59q0 17 3 26q5 10 34.5 15.5t49.5 5.5q35 0 52.5 -13.5t18.5 -45.5q1 -29 4 -176v-24q0 -20 2 -32q4 -86 4 -225v-130q-5 -21 -10.5 -27.5t-25.5 -13.5q-10 0 -42.5 2t-53.5 2q-36 9 -36 91
q0 11 0.5 32.5t0.5 30.5v66q0 18 -11 22t-51 4h-11q-64 0 -64 -32q0 -24 1.5 -72.5t1.5 -74.5q0 -59 -20 -71q-60 -13 -75 -13q-53 0 -53 55q0 4 0.5 10.5t0.5 9.5q0 9 -2 19zM309 396q0 5 0.5 43t0.5 50q-103 -13 -136 -14v-51q0 -49 11 -49h28.5t33.5 0.5t29 2.5t23.5 6.5
t9.5 11.5z" />
    <glyph glyph-name="hbar" unicode="&#x127;" horiz-adv-x="452" 
d="M22 31q0 20 -1 131.5t-1 130.5q0 146 2 204l6 177q2 6 2.5 20.5t5.5 21.5t20 7q7 0 22.5 -2t23.5 -2q3 0 11.5 1t12.5 1q51 0 51 -41q0 -14 -2 -24l-1 -1v-2q0 -3 -0.5 -7.5t-0.5 -6.5l114 2l3 54q0 8 8.5 18t15.5 10h84q8 0 20.5 -5.5t13.5 -11.5q0 -66 -4 -200t-4 -201
v-17q0 -10 -3 -64t-3 -63v-51q0 -2 0.5 -12.5t0.5 -17.5q0 -60 -21 -65q-10 0 -31 -3.5t-32 -3.5q-15 0 -37 3q-27 0 -27 113q0 18 0.5 54t0.5 53q-7 9 -36 9h-20q-48 0 -48 -21q0 -40 2 -120q0 -8 2.5 -28t2.5 -31q0 -1 -0.5 -7.5t-0.5 -7.5q0 -13 -28.5 -18.5t-57.5 -5.5
q-17 0 -39 8.5t-27 21.5zM262 369q13 2 14 21v4l7 150q-69 -10 -113 -11q-4 -125 -4 -129q0 -37 11 -37q55 0 85 2z" />
    <glyph glyph-name="Itilde" unicode="&#x128;" horiz-adv-x="208" 
d="M20 432q0 30 1 91t1 91v23q4 37 20 46t79 14q29 0 39 -9.5t13 -37.5q4 -74 5.5 -222.5t6.5 -233.5q0 -30 1.5 -80t1.5 -76q0 -36 -20 -39q-37 -7 -58 -7h-15q-55 0 -56 30l-18 357l-1 11v23v19zM60 777q-2 2 -6 2q-9 0 -22.5 -16t-27.5 -16q-13 0 -36 7.5t-23 18.5
q0 27 29 54t60 27q25 0 53 -19t40 -19q16 0 24.5 15.5t18.5 15.5q14 0 37 -8.5t23 -19.5q0 -6 -2 -9q-8 -18 -13.5 -27t-15.5 -21.5t-23 -18t-30 -5.5q-47 0 -86 39z" />
    <glyph glyph-name="itilde" unicode="&#x129;" horiz-adv-x="201" 
d="M20 124l19 571q0 8 8.5 18t15.5 10h84q8 0 20.5 -5.5t13.5 -11.5q0 -67 -5.5 -250t-8.5 -346q0 -2 0.5 -12.5t0.5 -17.5q0 -60 -21 -65q-10 0 -31 -3.5t-32 -3.5q-14 0 -37 3q-27 0 -27 113zM82 811q-2 2 -6 2q-9 0 -22.5 -16t-27.5 -16q-13 0 -36 7.5t-23 18.5
q0 27 29 54t60 27q25 0 53 -19t40 -19q16 0 24.5 15.5t18.5 15.5q14 0 37 -8.5t23 -19.5q0 -6 -2 -9q-9 -18 -14 -27t-15 -21.5t-23 -18t-30 -5.5q-47 0 -86 39z" />
    <glyph glyph-name="Imacron" unicode="&#x12a;" horiz-adv-x="208" 
d="M20 432q0 30 1 91t1 91v23q4 37 20 46t79 14q29 0 39 -9.5t13 -37.5q4 -74 5.5 -222.5t6.5 -233.5q0 -30 1.5 -80t1.5 -76q0 -36 -20 -39q-37 -7 -58 -7h-15q-55 0 -56 30l-18 357l-1 11v23v19zM-45 803q0 12 1.5 21t6 14.5t7 9t12 5t12.5 2t16 0.5h16q90 2 134 2
q35 -7 35 -67q0 -21 -33 -24q-124 -17 -176 -17q-11 0 -18 4t-9.5 14t-3 16t-0.5 20z" />
    <glyph glyph-name="imacron" unicode="&#x12b;" horiz-adv-x="201" 
d="M20 124l19 571q0 8 8.5 18t15.5 10h84q8 0 20.5 -5.5t13.5 -11.5q0 -67 -5.5 -250t-8.5 -346q0 -2 0.5 -12.5t0.5 -17.5q0 -60 -21 -65q-10 0 -31 -3.5t-32 -3.5q-14 0 -37 3q-27 0 -27 113zM-23 837q0 12 1.5 21t6 14.5t7 9t12 5t12.5 2t16 0.5h16q90 2 134 2
q35 -7 35 -67q0 -21 -33 -24q-124 -17 -176 -17q-11 0 -18 4t-9.5 14t-3 16t-0.5 20z" />
    <glyph glyph-name="Ibreve" unicode="&#x12c;" horiz-adv-x="208" 
d="M20 432q0 30 1 91t1 91v23q4 37 20 46t79 14q29 0 39 -9.5t13 -37.5q4 -74 5.5 -222.5t6.5 -233.5q0 -30 1.5 -80t1.5 -76q0 -36 -20 -39q-37 -7 -58 -7h-15q-55 0 -56 30l-18 357l-1 11v23v19zM165 756q-37 -14 -77 -15t-71 19.5t-31 56.5q0 28 15.5 38.5t51.5 10.5
q34 0 34 -23q0 -4 -1.5 -12t-1.5 -11q0 -11 11 -11q8 0 12 5t7.5 18t3.5 14q5 18 50 18q18 0 29.5 -8.5t11.5 -21.5q0 -21 -12 -44t-32 -34z" />
    <glyph glyph-name="ibreve" unicode="&#x12d;" horiz-adv-x="201" 
d="M20 124l19 571q0 8 8.5 18t15.5 10h84q8 0 20.5 -5.5t13.5 -11.5q0 -67 -5.5 -250t-8.5 -346q0 -2 0.5 -12.5t0.5 -17.5q0 -60 -21 -65q-10 0 -31 -3.5t-32 -3.5q-14 0 -37 3q-27 0 -27 113zM187 790q-37 -14 -77 -15t-71 19.5t-31 56.5q0 28 15.5 38.5t51.5 10.5
q34 0 34 -23q0 -4 -1.5 -12t-1.5 -11q0 -11 11 -11q8 0 12 5t7.5 18t3.5 14q5 18 50 18q18 0 29.5 -8.5t11.5 -21.5q0 -21 -12 -44t-32 -34z" />
    <glyph glyph-name="Iogonek" unicode="&#x12e;" horiz-adv-x="208" 
d="M32 -114q0 2 -0.5 10t-0.5 9q0 50 23 94q-15 7 -15 23l-18 357l-1 11v23v19q0 30 1 91t1 91v23q4 37 20 46t79 14q29 0 39 -9.5t13 -37.5q4 -74 5.5 -222.5t6.5 -233.5q0 -30 1.5 -80t1.5 -76q0 -36 -20 -39l-29 -5q-2 -4 -17 -29.5t-15 -41.5q0 -22 15 -22q10 0 25 12.5
t26 12.5q12 0 22.5 -18t10.5 -29q0 -23 -26.5 -42t-51.5 -19q-35 0 -62 18t-34 50z" />
    <glyph glyph-name="iogonek" unicode="&#x12f;" horiz-adv-x="201" 
d="M30 -90q0 2 -0.5 10t-0.5 9q0 43 18 82q-27 0 -27 113l19 571q0 8 8.5 18t15.5 10h84q8 0 20.5 -5.5t13.5 -11.5q0 -66 -4 -200t-4 -201v-17q0 -10 -3 -64t-3 -63v-51q0 -2 0.5 -12.5t0.5 -17.5q0 -60 -21 -65q-8 0 -11 -1q-3 -7 -12 -19.5t-14 -24t-5 -23.5
q0 -22 15 -22q10 0 25 12.5t26 12.5q12 0 22.5 -18t10.5 -29q0 -23 -26.5 -42t-51.5 -19q-35 0 -62 18t-34 50z" />
    <glyph glyph-name="Idotaccent" unicode="&#x130;" horiz-adv-x="208" 
d="M20 432q0 30 1 91t1 91v23q4 37 20 46t79 14q29 0 39 -9.5t13 -37.5q4 -74 5.5 -222.5t6.5 -233.5q0 -30 1.5 -80t1.5 -76q0 -36 -20 -39q-37 -7 -58 -7h-15q-55 0 -56 30l-18 357l-1 11v23v19zM25 791q0 22 19 42.5t47 20.5q24 0 41.5 -18t17.5 -37q0 -22 -16.5 -39.5
t-42.5 -17.5q-30 0 -48 13.5t-18 35.5z" />
    <glyph glyph-name="dotlessi" unicode="&#x131;" horiz-adv-x="201" 
d="M20 124l19 571q0 8 8.5 18t15.5 10h84q8 0 20.5 -5.5t13.5 -11.5q0 -67 -5.5 -250t-8.5 -346q0 -2 0.5 -12.5t0.5 -17.5q0 -60 -21 -65q-10 0 -31 -3.5t-32 -3.5q-14 0 -37 3q-27 0 -27 113z" />
    <glyph glyph-name="IJ" unicode="&#x132;" horiz-adv-x="641" 
d="M20 432q0 30 1 91t1 91v23q4 37 20 46t79 14q29 0 39 -9.5t13 -37.5q4 -74 5.5 -222.5t6.5 -233.5q0 -30 1.5 -80t1.5 -76q0 -36 -20 -39q-37 -7 -58 -7h-15q-55 0 -56 30l-18 357l-1 11v23v19zM228 194v13q0 41 22 46q17 4 49 10t44 9q23 0 32 -17t8.5 -37.5t9 -37.5
t33.5 -17q21 0 31.5 38t10.5 87l-12 322q-2 8 -2 25v41q1 9 6 14t13.5 7.5t15.5 3t17.5 1t14.5 0.5t14.5 2t17.5 2q48 0 52 -21l8 -37q8 -177 8 -209q-1 -51 -2.5 -79.5t-6.5 -81t-14 -84t-26.5 -72t-41 -63.5t-60.5 -39t-83 -16q-19 0 -49 13q-79 29 -110 177z" />
    <glyph glyph-name="ij" unicode="&#x133;" horiz-adv-x="605" 
d="M20 124l19 571q0 8 8.5 18t15.5 10h84q8 0 20.5 -5.5t13.5 -11.5q0 -66 -4 -200t-4 -201v-17q0 -10 -3 -64t-3 -63v-51q0 -2 0.5 -12.5t0.5 -17.5q0 -60 -21 -65q-10 0 -31 -3.5t-32 -3.5q-14 0 -37 3q-27 0 -27 113zM223 198q-4 41 14 49q85 10 89 10q18 0 24.5 -28.5
t13.5 -59.5t26 -36q53 0 57 28l4 36q-6 277 -14 440v8q-4 53 2 65.5t35 12.5h34q40 0 52 -17.5t18 -91.5q11 -162 6 -294q-1 -39 -1.5 -55.5t-2.5 -51t-5 -50.5t-9 -43.5t-14 -41t-20 -31t-27.5 -26t-36.5 -14.5t-47 -6q-17 0 -82 10q-50 8 -81.5 72t-34.5 115z" />
    <glyph glyph-name="Jcircumflex" unicode="&#x134;" horiz-adv-x="433" 
d="M20 194v13q0 41 22 46q17 4 49 10t44 9q23 0 32 -17t8.5 -37.5t9 -37.5t33.5 -17q21 0 31.5 38t10.5 87l-12 322q-2 8 -2 25v41q1 9 6 14t13.5 7.5t15.5 3t17.5 1t14.5 0.5t14.5 2t17.5 2q48 0 52 -21l8 -37q8 -177 8 -209q-1 -51 -2.5 -79.5t-6.5 -81t-14 -84t-26.5 -72
t-41 -63.5t-60.5 -39t-83 -16q-19 0 -49 13q-79 29 -110 177zM176 773q0 16 10.5 32.5t29 36.5t24.5 28q19 19 59 22t65 -7q26 -10 60 -89q2 -3 7 -8t8 -9t3 -9q0 -15 -47 -15l-7 1q-6 0 -14 0.5t-12 0.5q-18 5 -32.5 35.5t-22.5 30.5q-3 0 -3 -2q-8 -12 -15.5 -27t-10 -19
t-10.5 -9.5t-19 -6.5t-33 -2q-1 0 -3.5 0.5t-3.5 0.5q-33 4 -33 15z" />
    <glyph glyph-name="jcircumflex" unicode="&#x135;" horiz-adv-x="404" 
d="M22 198q-4 41 14 49q85 10 89 10q18 0 24.5 -28.5t13.5 -59.5t26 -36q53 0 57 28l4 36q-6 277 -14 440v8q-4 53 2 65.5t35 12.5h34q40 0 52 -17.5t18 -91.5q11 -162 6 -294q-1 -39 -1.5 -55.5t-2.5 -51t-5 -50.5t-9 -43.5t-14 -41t-20 -31t-27.5 -26t-36.5 -14.5t-47 -6
q-17 0 -82 10q-50 8 -81.5 72t-34.5 115zM153 763q0 16 10.5 32.5t29 36.5t24.5 28q19 19 59 22t65 -7q26 -10 60 -89q2 -3 7 -8t8 -9t3 -9q0 -15 -47 -15l-6 1q-7 0 -15 0.5t-12 0.5q-18 5 -32.5 35.5t-22.5 30.5q-3 0 -3 -2q-8 -12 -15.5 -27t-10 -19t-10.5 -9.5t-19 -6.5
t-33 -2q-1 0 -3.5 0.5t-3.5 0.5q-33 4 -33 15z" />
    <glyph glyph-name="Kcommaaccent" unicode="&#x136;" horiz-adv-x="544" 
d="M381 -5q-7 0 -20 -2t-20 -2q-19 0 -55 59q-20 40 -50 87t-41 47q-3 0 -3 -2q0 -18 1.5 -53t1.5 -53v-6q0 -17 -0.5 -25t-3 -20t-8 -18t-16.5 -10.5t-27 -4.5q-5 0 -14.5 0.5t-13.5 0.5h-19q-58 0 -58 38q0 111 -9 275q-6 113 -6 314q0 88 44 88h82q12 0 19 -8t9 -16.5
t3 -23.5q0 -45 -3 -130t-3 -128q0 -8 5 -8q4 0 7 6q10 21 23.5 42t23 34t10.5 15q18 33 56 92t53 85q16 22 39 27.5t69 5.5q67 0 67 -25q-1 -16 -24 -54l-120 -191q-4 -11 -45 -71.5t-43 -67.5q0 -5 4 -11t10 -11.5t7 -7.5q26 -35 74 -111l85 -106q11 -14 11 -34
q0 -11 -14 -16.5t-27 -5.5q-11 0 -31 3t-30 3zM232 -173q0 5 15.5 15t15.5 18q0 1 -11 5t-22.5 13.5t-11.5 22.5q0 14 14.5 33.5t32.5 19.5q25 0 43 -15t18 -40q0 -16 -14 -37t-47 -38q-4 -2 -17 -2q-16 0 -16 5z" />
    <glyph glyph-name="kcommaaccent" unicode="&#x137;" horiz-adv-x="495" 
d="M395 8h-63q-19 0 -36 21t-39.5 63t-36.5 62q-44 74 -56 74q-3 0 -3 -24q0 -20 3.5 -60.5t3.5 -61.5v-7q0 -63 -28 -63q-10 0 -16 2h-78q-8 0 -14 18q0 2 0.5 24.5t0.5 38.5q0 96 -6.5 288.5t-6.5 285.5q0 36 24 45t83 9q35 0 35 -69q0 -30 -3 -90.5t-3 -91.5v-10
q0 -9 4 -9q3 0 6 4q15 24 68 107.5t79 132.5q19 21 70 21h23q69 0 69 -25q0 -16 -19 -42l-101 -154q-17 -17 -59 -73q-1 -3 -9 -15.5t-14.5 -24t-6.5 -14.5q0 -23 108 -191q17 -26 51 -72.5t48 -72.5q0 -8 -13.5 -19t-25.5 -11q-23 0 -39 4zM207 -173q0 5 15.5 15t15.5 18
q0 1 -11 5t-22.5 13.5t-11.5 22.5q0 14 14.5 33.5t32.5 19.5q25 0 43 -15t18 -40q0 -16 -14 -37t-47 -38q-4 -2 -17 -2q-16 0 -16 5z" />
    <glyph glyph-name="kgreenlandic" unicode="&#x138;" horiz-adv-x="495" 
d="M395 8h-63q-19 0 -36 21t-39.5 63t-36.5 62q-44 74 -56 74q-3 0 -3 -24q0 -20 3.5 -60.5t3.5 -61.5v-7q0 -63 -28 -63q-10 0 -16 2h-78q-8 0 -14 18q0 2 0.5 24.5t0.5 38.5q0 96 -6.5 288.5t-6.5 285.5q0 36 24 45t83 9q35 0 35 -69q0 -30 -3 -90.5t-3 -91.5v-10
q0 -9 4 -9q3 0 6 4q15 24 68 107.5t79 132.5q19 21 70 21h23q69 0 69 -25q0 -16 -19 -42l-101 -154q-17 -17 -59 -73q-1 -3 -9 -15.5t-14.5 -24t-6.5 -14.5q0 -23 108 -191q17 -26 51 -72.5t48 -72.5q0 -8 -13.5 -19t-25.5 -11q-23 0 -39 4z" />
    <glyph glyph-name="Lacute" unicode="&#x139;" horiz-adv-x="337" 
d="M21 43q-1 29 -1 194q0 200 6 392v16q1 27 7.5 38.5t28.5 14.5q6 0 38 1t37 1q16 0 24.5 -9.5t9.5 -19t1 -26.5q0 -11 -3 -34t-3 -35q-6 -309 -6 -310v-7q0 -15 4 -63.5t4 -55.5q0 -15 27 -15q11 0 31 1.5t31 1.5q42 0 51 -15t9 -70q0 -41 -42 -50h-26q-25 0 -75 -1
t-76 -1q-52 0 -64 9t-13 43zM-4 770q0 20 36.5 71.5t53.5 51.5q20 0 44 -16t24 -33q0 -20 -48 -60t-68 -40q-42 0 -42 26z" />
    <glyph glyph-name="lacute" unicode="&#x13a;" horiz-adv-x="365" 
d="M32 101q-12 322 -12 597q0 20 71 20q23 0 37 -1q20 -3 26 -15.5t6 -39.5q-1 -435 -1 -464v-19q0 -22 10 -23l129 -8q17 -1 32 -10.5t15 -25.5v-84q0 -25 -54 -25q-8 0 -24 0.5t-23 0.5q-3 0 -30 -1.5t-47 -1.5q-127 0 -132 60v13q0 1 -1.5 11.5t-1.5 15.5zM-22 794
q0 20 36.5 71.5t53.5 51.5q20 0 44 -16t24 -33q0 -20 -48 -60t-68 -40q-42 0 -42 26z" />
    <glyph glyph-name="Lcommaaccent" unicode="&#x13b;" horiz-adv-x="337" 
d="M21 43q-1 29 -1 194q0 200 6 392v16q1 27 7.5 38.5t28.5 14.5q6 0 38 1t37 1q16 0 24.5 -9.5t9.5 -19t1 -26.5q0 -11 -3 -34t-3 -35q-6 -309 -6 -310v-7q0 -15 4 -63.5t4 -55.5q0 -15 27 -15q11 0 31 1.5t31 1.5q42 0 51 -15t9 -70q0 -41 -42 -50h-26q-25 0 -75 -1
t-76 -1q-52 0 -64 9t-13 43zM128 -173q0 5 15.5 15t15.5 18q0 1 -11.5 5t-22.5 13.5t-11 22.5q0 14 14.5 33.5t32.5 19.5q25 0 43 -15t18 -40q0 -16 -14 -37t-47 -38q-4 -2 -17 -2q-16 0 -16 5z" />
    <glyph glyph-name="lcommaaccent" unicode="&#x13c;" horiz-adv-x="365" 
d="M32 101q-12 322 -12 597q0 20 71 20q23 0 37 -1q20 -3 26 -15.5t6 -39.5q-1 -435 -1 -464v-19q0 -22 10 -23l129 -8q17 -1 32 -10.5t15 -25.5v-84q0 -25 -54 -25q-8 0 -24 0.5t-23 0.5q-3 0 -30 -1.5t-47 -1.5q-127 0 -132 60v13q0 1 -1.5 11.5t-1.5 15.5zM142 -173
q0 5 15.5 15t15.5 18q0 1 -11 5t-22.5 13.5t-11.5 22.5q0 14 14.5 33.5t32.5 19.5q25 0 43 -15t18 -40q0 -16 -14 -37t-47 -38q-4 -2 -17 -2q-16 0 -16 5z" />
    <glyph glyph-name="Lcaron" unicode="&#x13d;" horiz-adv-x="383" 
d="M21 43q-1 29 -1 194q0 200 6 392v16q1 27 7.5 38.5t28.5 14.5q6 0 38 1t37 1q16 0 24.5 -9.5t9.5 -19t1 -26.5q0 -11 -3 -34t-3 -35q-6 -309 -6 -310v-7q0 -15 4 -63.5t4 -55.5q0 -15 27 -15q11 0 31 1.5t31 1.5q42 0 51 -15t9 -70q0 -41 -42 -50h-26q-25 0 -75 -1
t-76 -1q-52 0 -64 9t-13 43zM262 664q0 38 11 60t46 22q44 0 44 -72q0 -43 -16.5 -116.5t-43.5 -73.5q-30 0 -34 42z" />
    <glyph glyph-name="lcaron" unicode="&#x13e;" horiz-adv-x="506" 
d="M32 101q-12 322 -12 597q0 20 71 20q23 0 37 -1q20 -3 26 -15.5t6 -39.5q-1 -435 -1 -464v-19q0 -22 10 -23l129 -8q17 -1 32 -10.5t15 -25.5v-84q0 -25 -54 -25q-8 0 -24 0.5t-23 0.5q-3 0 -30 -1.5t-47 -1.5q-127 0 -132 60v13q0 1 -1.5 11.5t-1.5 15.5zM385 622
q0 24 3 40t16.5 29t37.5 13q44 0 44 -72q0 -43 -16.5 -116.5t-43.5 -73.5q-30 0 -34 42z" />
    <glyph glyph-name="Ldot" unicode="&#x13f;" horiz-adv-x="369" 
d="M21 43q-1 29 -1 194q0 200 6 392v16q1 27 7.5 38.5t28.5 14.5q6 0 38 1t37 1q16 0 24.5 -9.5t9.5 -19t1 -26.5q0 -11 -3 -34t-3 -35q-6 -309 -6 -310v-7q0 -15 4 -63.5t4 -55.5q0 -15 27 -15q11 0 31 1.5t31 1.5q42 0 51 -15t9 -70q0 -41 -42 -50h-26q-25 0 -75 -1
t-76 -1q-52 0 -64 9t-13 43zM244 354q0 23 16 44.5t39 21.5q20 0 35 -19t15 -39q0 -23 -14 -41.5t-36 -18.5q-24 0 -39.5 14t-15.5 38z" />
    <glyph glyph-name="ldot" unicode="&#x140;" horiz-adv-x="510" 
d="M32 101q-12 322 -12 597q0 20 71 20q23 0 37 -1q20 -3 26 -15.5t6 -39.5q-1 -435 -1 -464v-19q0 -22 10 -23l129 -8q17 -1 32 -10.5t15 -25.5v-84q0 -25 -54 -25q-8 0 -24 0.5t-23 0.5q-3 0 -30 -1.5t-47 -1.5q-127 0 -132 60v13q0 1 -1.5 11.5t-1.5 15.5zM385 350
q0 23 16 44.5t39 21.5q20 0 35 -19t15 -39q0 -23 -14 -41.5t-36 -18.5q-24 0 -39.5 14t-15.5 38z" />
    <glyph glyph-name="Lslash" unicode="&#x141;" horiz-adv-x="401" 
d="M85 43q-1 29 -1 195l-12 -8q-17 -7 -22.5 -4t-14.5 16q-2 2 -2 3l-3 4q-14 21 -4 32l58 41q0 145 6 307v16q1 27 7.5 38.5t28.5 14.5q6 0 38 1t37 1q16 0 24.5 -9.5t9.5 -19t1 -26.5q0 -11 -3 -34t-3 -35l-4 -161l38 22q15 5 30 -19l9 -13q6 -10 1.5 -18.5t-20.5 -19.5
l-17 -11l-43 -28v-69q0 -15 4 -63.5t4 -55.5q0 -15 27 -15q11 0 31 1.5t31 1.5q42 0 51 -15t9 -70q0 -41 -42 -50h-26q-25 0 -75 -1t-76 -1q-52 0 -64 9t-13 43z" />
    <glyph glyph-name="lslash" unicode="&#x142;" horiz-adv-x="429" 
d="M96 101q-5 120 -5 141l-19 -12q-17 -7 -22.5 -4t-14.5 16q-2 2 -2 3l-3 4q-14 21 -4 32q56 40 62 44q-4 184 -4 373q0 20 71 20q23 0 37 -1q20 -3 26 -15.5t6 -39.5q-1 -116 -1 -249q8 5 22 13t19 11q15 5 30 -19l9 -13q6 -10 1.5 -18.5t-20.5 -19.5l-17 -11l-44 -29
v-148q0 -22 10 -23l129 -8q17 -1 32 -10.5t15 -25.5v-84q0 -25 -54 -25q-8 0 -24 0.5t-23 0.5q-3 0 -30 -1.5t-47 -1.5q-127 0 -132 60v13q0 1 -1.5 11.5t-1.5 15.5z" />
    <glyph glyph-name="Nacute" unicode="&#x143;" horiz-adv-x="583" 
d="M357 61q-34 66 -65 127.5t-45 90t-26 52t-17.5 31.5t-11.5 11q-1 -5 -1 -6v-4q0 -12 3.5 -32t3.5 -28q14 -202 14 -230q0 -51 -8.5 -62t-56.5 -16q-59 0 -82.5 13.5t-44.5 53.5v555q0 37 13 71t40 34h78q18 0 45 -54q2 -2 2 -3q50 -101 165 -307q3 -6 10 -24t13 -30
t11 -12q4 0 4 8q0 54 -2.5 144t-2.5 146q0 121 39 127q20 3 68 3q35 0 47.5 -19t12.5 -55q0 -44 -3.5 -113t-3.5 -74q-10 -185 -10 -344q0 -13 0.5 -36.5t0.5 -35.5q-4 -39 -25 -45q-44 -6 -63 -6q-55 0 -72 21q-7 8 -16 25t-14 23zM180 780q0 20 36.5 71.5t53.5 51.5
q20 0 44 -16t24 -33q0 -20 -48 -60t-68 -40q-42 0 -42 26z" />
    <glyph glyph-name="nacute" unicode="&#x144;" horiz-adv-x="523" 
d="M187 116v-18q0 -68 -7.5 -81t-51.5 -13q-79 0 -83 34q-1 6 -1.5 11.5t-1 9.5t-1.5 9l-9 94q0 29 -5 200t-5 210q0 2 -1 20t-1 31q0 98 57 98h34q75 0 101 -25q12 -21 23.5 -46t19 -42.5t19.5 -47t18 -43.5q7 -17 23.5 -61t27.5 -69.5t15 -25.5q0 37 0.5 109t0.5 109
q0 18 -1 51.5t-1 50.5q0 24 13 32t52 8h20q46 0 49 -24q0 -25 4 -32v-12q0 -26 2 -110.5t2 -97.5q0 -22 -1 -66t-1 -65q0 -47 3 -95.5t3 -69.5v-25q0 -24 -0.5 -36.5t-3 -32t-8 -29t-16 -17t-25.5 -7.5q-94 0 -113 52l-165 436v-3q0 -36 15 -371zM164 780q0 20 36.5 71.5
t53.5 51.5q20 0 44 -16t24 -33q0 -20 -48 -60t-68 -40q-42 0 -42 26z" />
    <glyph glyph-name="Ncommaaccent" unicode="&#x145;" horiz-adv-x="583" 
d="M357 61q-34 66 -65 127.5t-45 90t-26 52t-17.5 31.5t-11.5 11q-1 -5 -1 -6v-4q0 -12 3.5 -32t3.5 -28q14 -202 14 -230q0 -51 -8.5 -62t-56.5 -16q-59 0 -82.5 13.5t-44.5 53.5v555q0 37 13 71t40 34h78q18 0 45 -54q2 -2 2 -3q50 -101 165 -307q3 -6 10 -24t13 -30
t11 -12q4 0 4 8q0 54 -2.5 144t-2.5 146q0 121 39 127q20 3 68 3q35 0 47.5 -19t12.5 -55q0 -44 -3.5 -113t-3.5 -74q-10 -185 -10 -344q0 -13 0.5 -36.5t0.5 -35.5q-4 -39 -25 -45q-44 -6 -63 -6q-55 0 -72 21q-7 8 -16 25t-14 23zM251 -173q0 5 15.5 15t15.5 18l-11 4
q-11 5 -22.5 14.5t-11.5 22.5q0 14 14.5 33.5t32.5 19.5q25 0 43 -15t18 -40q0 -16 -14 -37t-47 -38q-4 -2 -17 -2q-16 0 -16 5z" />
    <glyph glyph-name="ncommaaccent" unicode="&#x146;" horiz-adv-x="523" 
d="M187 116v-18q0 -68 -7.5 -81t-51.5 -13q-79 0 -83 34q-1 6 -1.5 11.5t-1 9.5t-1.5 9l-9 94q0 29 -5 200t-5 210q0 2 -1 20t-1 31q0 98 57 98h34q75 0 101 -25q12 -21 23.5 -46t19 -42.5t19.5 -47t18 -43.5q7 -17 23.5 -61t27.5 -69.5t15 -25.5q0 37 0.5 109t0.5 109
q0 18 -1 51.5t-1 50.5q0 24 13 32t52 8h20q46 0 49 -24q0 -25 4 -32v-12q0 -26 2 -110.5t2 -97.5q0 -22 -1 -66t-1 -65q0 -47 3 -95.5t3 -69.5v-25q0 -24 -0.5 -36.5t-3 -32t-8 -29t-16 -17t-25.5 -7.5q-94 0 -113 52l-165 436v-3q0 -36 15 -371zM221 -173q0 5 15.5 15
t15.5 18q0 1 -11 5t-22.5 13.5t-11.5 22.5q0 14 14.5 33.5t32.5 19.5q25 0 43 -15t18 -40q0 -16 -14 -37t-47 -38q-4 -2 -17 -2q-16 0 -16 5z" />
    <glyph glyph-name="Ncaron" unicode="&#x147;" horiz-adv-x="583" 
d="M357 61q-34 66 -65 127.5t-45 90t-26 52t-17.5 31.5t-11.5 11q-1 -5 -1 -6v-4q0 -12 3.5 -32t3.5 -28q14 -202 14 -230q0 -51 -8.5 -62t-56.5 -16q-59 0 -82.5 13.5t-44.5 53.5v555q0 37 13 71t40 34h78q18 0 45 -54q2 -2 2 -3q50 -101 165 -307q3 -6 10 -24t13 -30
t11 -12q4 0 4 8q0 54 -2.5 144t-2.5 146q0 121 39 127q20 3 68 3q35 0 47.5 -19t12.5 -55q0 -44 -3.5 -113t-3.5 -74q-10 -185 -10 -344q0 -13 0.5 -36.5t0.5 -35.5q-4 -39 -25 -45q-44 -6 -63 -6q-55 0 -72 21q-7 8 -16 25t-14 23zM148 875q0 16 40 16q27 -1 40 -4.5t17 -6
t13.5 -22t17.5 -31.5q0 -2 3 -2q8 0 22.5 30.5t32.5 35.5q4 0 12 0.5t14 0.5l7 1q47 0 47 -15q-1 -12 -31 -60t-47 -55q-25 -10 -65 -7t-59 22q-6 8 -24.5 28t-29 36.5t-10.5 32.5z" />
    <glyph glyph-name="ncaron" unicode="&#x148;" horiz-adv-x="523" 
d="M187 116v-18q0 -68 -7.5 -81t-51.5 -13q-79 0 -83 34q-1 6 -1.5 11.5t-1 9.5t-1.5 9l-9 94q0 29 -5 200t-5 210q0 2 -1 20t-1 31q0 98 57 98h34q75 0 101 -25q12 -21 23.5 -46t19 -42.5t19.5 -47t18 -43.5q7 -17 23.5 -61t27.5 -69.5t15 -25.5q0 37 0.5 109t0.5 109
q0 18 -1 51.5t-1 50.5q0 24 13 32t52 8h20q46 0 49 -24q0 -25 4 -32v-12q0 -26 2 -110.5t2 -97.5q0 -22 -1 -66t-1 -65q0 -47 3 -95.5t3 -69.5v-25q0 -24 -0.5 -36.5t-3 -32t-8 -29t-16 -17t-25.5 -7.5q-94 0 -113 52l-165 436v-3q0 -36 15 -371zM132 875q0 16 40 16
q27 -1 40 -4.5t17 -6t13.5 -22t17.5 -31.5q0 -2 3 -2q8 0 22.5 30.5t32.5 35.5q4 0 12 0.5t14 0.5l7 1q47 0 47 -15q-1 -12 -31 -60t-47 -55q-25 -10 -65 -7t-59 22q-6 8 -24.5 28t-29 36.5t-10.5 32.5z" />
    <glyph glyph-name="napostrophe" unicode="&#x149;" horiz-adv-x="685" 
d="M349 116v-18q0 -68 -7.5 -81t-51.5 -13q-79 0 -83 34q-1 6 -1.5 11.5t-1 9.5t-1.5 9l-9 94q0 29 -5 200t-5 210q0 2 -1 20t-1 31q0 98 57 98h34q75 0 101 -25q12 -21 23.5 -46t19 -42.5t19.5 -47t18 -43.5q7 -17 23.5 -61t27.5 -69.5t15 -25.5q0 37 0.5 109t0.5 109
q0 18 -1 51.5t-1 50.5q0 24 13 32t52 8h20q46 0 49 -24q0 -25 4 -32v-12q0 -26 2 -110.5t2 -97.5q0 -22 -1 -66t-1 -65q0 -47 3 -95.5t3 -69.5v-25q0 -24 -0.5 -36.5t-3 -32t-8 -29t-16 -17t-25.5 -7.5q-94 0 -113 52l-165 436v-3q0 -36 15 -371zM37 602q0 6 18.5 20.5
t18.5 25.5q0 1 -13.5 6.5t-27 18.5t-13.5 32q0 20 17.5 46.5t39.5 26.5q30 0 51.5 -21t21.5 -55q0 -22 -16.5 -51t-56.5 -53q-5 -3 -21 -3q-19 0 -19 7z" />
    <glyph glyph-name="Eng" unicode="&#x14a;" horiz-adv-x="583" 
d="M357 61q-34 66 -65 127.5t-45 90t-26 52t-17.5 31.5t-11.5 11q-1 -5 -1 -6v-4q0 -12 3.5 -32t3.5 -28q14 -202 14 -230q0 -51 -8.5 -62t-56.5 -16q-59 0 -82.5 13.5t-44.5 53.5v555q0 37 13 71t40 34h78q18 0 45 -54q2 -2 2 -3q50 -101 165 -307q3 -6 10 -24t13 -30
t11 -12q4 0 4 8q0 54 -2.5 144t-2.5 146q0 121 39 127q20 3 68 3q35 0 47.5 -19t12.5 -55q0 -44 -3.5 -113t-3.5 -74q-10 -185 -10 -344v-31q1 -14 1 -41l-3 -21q-17 -222 -192 -222q-18 0 -51 13q-51 19 -86 78q-12 20 -1.5 44t32.5 38t47 19.5t43 -11.5q10 -22 37 -22
q21 0 28 42q-11 6 -14 12q-7 8 -16 25t-14 23z" />
    <glyph glyph-name="eng" unicode="&#x14b;" horiz-adv-x="523" 
d="M187 116v-18q0 -68 -7.5 -81t-51.5 -13q-79 0 -83 34q-1 6 -1.5 11.5t-1 9.5t-1.5 9l-9 94q0 29 -5 200t-5 210q0 2 -1 20t-1 31q0 98 57 98h34q75 0 101 -25q12 -21 23.5 -46t19 -42.5t19.5 -47t18 -43.5q7 -17 23.5 -61t27.5 -69.5t15 -25.5q0 37 0.5 109t0.5 109
q0 18 -1 51.5t-1 50.5q0 24 13 32t52 8h20q46 0 49 -24q0 -25 4 -32v-12q0 -26 2 -110.5t2 -97.5q0 -22 -1 -66t-1 -65q0 -47 3 -95.5t3 -69.5v-25q0 -28 -1 -41q1 -59 -6.5 -105.5t-27.5 -89.5t-60.5 -66.5t-99.5 -23.5q-18 0 -51 13q-51 19 -86 78q-12 20 -1.5 44t32.5 38
t47 19.5t43 -11.5q10 -22 37 -22t31 67q-18 12 -23 30l-165 433q0 -36 15 -371z" />
    <glyph glyph-name="Omacron" unicode="&#x14c;" horiz-adv-x="517" 
d="M20 326v23q0 23 7 100q0 5 2 32.5t3 36.5l3.5 31.5t6 35.5t9 30.5t12.5 32.5q0 2 4 6q67 73 125 77h54l16 4l4 1h10.5h8.5q132 0 190 -75q22 -38 22 -120q0 -42 -1 -62l-11 -239q-8 -146 -74 -208q-88 -37 -170 -37q-47 0 -99 12t-75 40q0 1 -4 5q-7 12 -11.5 22t-8 20
t-5.5 15.5t-3.5 16t-2 14.5t-1.5 17.5t-2 19.5q-9 75 -9 149zM156 331v-53q0 -51 11 -84q8 -24 30 -36.5t40.5 -14.5t47.5 -2q37 0 58.5 21.5t21.5 79.5v38q0 38 1 113t1 114q0 1 -2 25t-4 36q-3 21 -24.5 31t-45.5 10q-21 0 -83 -16q-44 -17 -47 -108q-5 -102 -5 -154z
M131 843q0 12 1.5 21t6 14.5t7 9t12 5t12.5 2t16 0.5h16q90 2 134 2q35 -7 35 -67q0 -21 -33 -24q-124 -17 -176 -17q-11 0 -18 4t-9.5 14t-3 16t-0.5 20z" />
    <glyph glyph-name="omacron" unicode="&#x14d;" horiz-adv-x="632" 
d="M181 28q-161 75 -161 316q0 51 7 100t25.5 99t46 87.5t72.5 61t101 23.5q55 0 105.5 -39.5t78 -93t27.5 -101.5q0 -2 1 -5.5t2 -5.5t2 -2q5 0 14.5 20.5t20.5 20.5q18 0 53.5 -32t35.5 -54q0 -23 -13 -40.5t-40 -38t-35 -28.5q-6 -2 -17.5 -10t-17.5 -11q-5 -2 -29 -127
q-21 -74 -70.5 -114.5t-122.5 -40.5q-28 0 -86 15zM141 372v-9q0 -34 5.5 -68.5t19.5 -75t44.5 -66t74.5 -25.5q47 0 69 38.5t22 88.5v3l-1 3l-4 4q-3 3 -19 6q-62 0 -107 25t-87 70q-1 1 -3.5 5.5t-5.5 7.5t-5 3q-3 0 -3 -10zM208 581q0 -61 43.5 -114t104.5 -53
q9 0 12 1.5t3 9.5q0 72 -29 124t-87 52q-47 0 -47 -20zM135 823q0 12 1.5 21t6 14.5t7 9t12 5t12.5 2t16 0.5h16q90 2 134 2q35 -7 35 -67q0 -21 -33 -24q-124 -17 -176 -17q-11 0 -18 4t-9.5 14t-3 16t-0.5 20z" />
    <glyph glyph-name="Obreve" unicode="&#x14e;" horiz-adv-x="517" 
d="M20 326v23q0 23 7 100q0 5 2 32.5t3 36.5l3.5 31.5t6 35.5t9 30.5t12.5 32.5q0 2 4 6q67 73 125 77h54l16 4l4 1h10.5h8.5q132 0 190 -75q22 -38 22 -120q0 -42 -1 -62l-11 -239q-8 -146 -74 -208q-88 -37 -170 -37q-47 0 -99 12t-75 40q0 1 -4 5q-7 12 -11.5 22t-8 20
t-5.5 15.5t-3.5 16t-2 14.5t-1.5 17.5t-2 19.5q-9 75 -9 149zM156 331v-53q0 -51 11 -84q8 -24 30 -36.5t40.5 -14.5t47.5 -2q37 0 58.5 21.5t21.5 79.5v38q0 38 1 113t1 114q0 1 -2 25t-4 36q-3 21 -24.5 31t-45.5 10q-21 0 -83 -16q-44 -17 -47 -108q-5 -102 -5 -154z
M341 796q-37 -14 -77 -15t-71 19.5t-31 56.5q0 28 15.5 38.5t51.5 10.5q34 0 34 -23q0 -4 -1.5 -12t-1.5 -11q0 -11 11 -11q8 0 12 5t7.5 18t3.5 14q5 18 50 18q18 0 29.5 -8.5t11.5 -21.5q0 -21 -12 -44t-32 -34z" />
    <glyph glyph-name="obreve" unicode="&#x14f;" horiz-adv-x="632" 
d="M181 28q-161 75 -161 316q0 51 7 100t25.5 99t46 87.5t72.5 61t101 23.5q55 0 105.5 -39.5t78 -93t27.5 -101.5q0 -2 1 -5.5t2 -5.5t2 -2q5 0 14.5 20.5t20.5 20.5q18 0 53.5 -32t35.5 -54q0 -23 -13 -40.5t-40 -38t-35 -28.5q-6 -2 -17.5 -10t-17.5 -11q-5 -2 -29 -127
q-21 -74 -70.5 -114.5t-122.5 -40.5q-28 0 -86 15zM141 372v-9q0 -34 5.5 -68.5t19.5 -75t44.5 -66t74.5 -25.5q47 0 69 38.5t22 88.5v3l-1 3l-4 4q-3 3 -19 6q-62 0 -107 25t-87 70q-1 1 -3.5 5.5t-5.5 7.5t-5 3q-3 0 -3 -10zM208 581q0 -61 43.5 -114t104.5 -53
q9 0 12 1.5t3 9.5q0 72 -29 124t-87 52q-47 0 -47 -20zM345 776q-37 -14 -77 -15t-71 19.5t-31 56.5q0 28 15.5 38.5t51.5 10.5q34 0 34 -23q0 -4 -1.5 -12t-1.5 -11q0 -11 11 -11q8 0 12 5t7.5 18t3.5 14q5 18 50 18q18 0 29.5 -8.5t11.5 -21.5q0 -21 -12 -44t-32 -34z" />
    <glyph glyph-name="Ohungarumlaut" unicode="&#x150;" horiz-adv-x="517" 
d="M20 326v23q0 23 7 100q0 5 2 32.5t3 36.5l3.5 31.5t6 35.5t9 30.5t12.5 32.5q0 2 4 6q67 73 125 77h54l16 4l4 1h10.5h8.5q132 0 190 -75q22 -38 22 -120q0 -42 -1 -62l-11 -239q-8 -146 -74 -208q-88 -37 -170 -37q-47 0 -99 12t-75 40q0 1 -4 5q-7 12 -11.5 22t-8 20
t-5.5 15.5t-3.5 16t-2 14.5t-1.5 17.5t-2 19.5q-9 75 -9 149zM156 331v-53q0 -51 11 -84q8 -24 30 -36.5t40.5 -14.5t47.5 -2q37 0 58.5 21.5t21.5 79.5v38q0 38 1 113t1 114q0 1 -2 25t-4 36q-3 21 -24.5 31t-45.5 10q-21 0 -83 -16q-44 -17 -47 -108q-5 -102 -5 -154z
M156 791q-6 19 13.5 79t35.5 65q19 6 47 -2.5t33 -24.5q6 -19 -28 -71.5t-53 -58.5q-41 -10 -48 13zM289 787q-6 19 13.5 79t35.5 65q19 6 47 -2.5t33 -24.5q6 -19 -28 -71.5t-53 -58.5q-41 -10 -48 13z" />
    <glyph glyph-name="ohungarumlaut" unicode="&#x151;" horiz-adv-x="632" 
d="M181 28q-161 75 -161 316q0 51 7 100t25.5 99t46 87.5t72.5 61t101 23.5q55 0 105.5 -39.5t78 -93t27.5 -101.5q0 -2 1 -5.5t2 -5.5t2 -2q5 0 14.5 20.5t20.5 20.5q18 0 53.5 -32t35.5 -54q0 -23 -13 -40.5t-40 -38t-35 -28.5q-6 -2 -17.5 -10t-17.5 -11q-5 -2 -29 -127
q-21 -74 -70.5 -114.5t-122.5 -40.5q-28 0 -86 15zM141 372v-9q0 -34 5.5 -68.5t19.5 -75t44.5 -66t74.5 -25.5q47 0 69 38.5t22 88.5v3l-1 3l-4 4q-3 3 -19 6q-62 0 -107 25t-87 70q-1 1 -3.5 5.5t-5.5 7.5t-5 3q-3 0 -3 -10zM208 581q0 -61 43.5 -114t104.5 -53
q9 0 12 1.5t3 9.5q0 72 -29 124t-87 52q-47 0 -47 -20zM160 771q-6 19 13.5 79t35.5 65q19 6 47 -2.5t33 -24.5q6 -19 -28 -71.5t-53 -58.5q-41 -10 -48 13zM293 767q-6 19 13.5 79t35.5 65q19 6 47 -2.5t33 -24.5q6 -19 -28 -71.5t-53 -58.5q-41 -10 -48 13z" />
    <glyph glyph-name="OE" unicode="&#x152;" horiz-adv-x="645" 
d="M192 731l304 -5q8 0 19.5 -0.5t14.5 -0.5q11 0 17 3q41 0 59.5 -18.5t18.5 -59.5t-11 -63t-45 -22q-11 0 -34 0.5t-35 0.5q-7 0 -34.5 -1.5t-42.5 -1.5q-8 -2 -8 -21v-6q0 -6 1 -36t1 -49q4 -11 42 -11q8 0 22 0.5t20 0.5q12 0 20 -10t8 -22v-75q0 -11 -10.5 -21.5
t-21.5 -10.5h-68q-1 0 -4.5 -3t-3.5 -4v-123q0 -4 8 -8q1 0 10.5 0.5t16.5 0.5q37 0 132 -11q34 -9 34 -77q0 -23 -5.5 -38t-12.5 -23t-22.5 -12t-26.5 -4.5t-33 -0.5q-9 0 -100.5 -3t-180.5 -1q-47 0 -99 12t-75 40q0 1 -4 5q-7 12 -11.5 22t-8 20t-5.5 15.5t-3.5 16
t-2 14.5t-1.5 17.5t-2 19.5q-9 75 -9 149v23q0 23 7 100q0 5 2 32.5t3 36.5l3.5 31.5t6 35.5t9 30.5t12.5 32.5q0 2 4 6q67 73 125 77zM156 331v-53q0 -51 11 -84q18 -53 110 -53q-16 442 -15 465q-11 -2 -31.5 -7t-22.5 -6q-44 -17 -47 -108q-5 -102 -5 -154z" />
    <glyph glyph-name="oe" unicode="&#x153;" horiz-adv-x="620" 
d="M272 715q27 0 70.5 -7t79.5 -7q50 0 102 4q23 0 49.5 -15.5t26.5 -36.5q0 -80 -32 -80q-22 0 -77 3.5t-78 3.5q-8 0 -14 -12t-9 -32.5t-4.5 -39t-2.5 -38.5t-2 -25q0 -16 2.5 -22.5t5 -8t12.5 -1.5t17 -2q4 0 19.5 -2t18.5 -2.5t14 -3t13.5 -6t7.5 -9t6.5 -13.5t1.5 -19
q0 -6 -6 -38q0 -2 -1.5 -10t-2 -10t-2.5 -7.5t-4 -6.5t-5.5 -4t-8 -3.5t-11.5 -0.5q-13 0 -38.5 2.5t-38.5 2.5l-4 -2q-1 0 -1 -2t0.5 -9t0.5 -16t0.5 -27.5t0.5 -39.5q0 -18 10 -18h131q45 0 57 -15t12 -61q0 -39 -13 -54t-46 -15h-167q-39 0 -59 5q-12 -2 -36 -2
q-28 0 -86 15q-161 75 -161 316q0 51 7 100t25.5 99t46 87.5t72.5 61t101 23.5zM141 372v-9q0 -31 4.5 -63t16 -70t37 -65.5t61.5 -34.5l-2 159q-49 21 -100 77q-1 1 -3.5 5.5t-5.5 7.5t-5 3q-3 0 -3 -10zM208 581q-13 -23 -14.5 -43t3 -31.5t18.5 -24t22.5 -17t26.5 -13.5
l4 87q1 5 1.5 14t1 22.5t1.5 23.5q-12 2 -17 2q-36 0 -47 -20z" />
    <glyph glyph-name="Racute" unicode="&#x154;" horiz-adv-x="487" 
d="M29 49q-1 16 -3 49t-4 59.5t-2 32.5v390q1 6 1 24v39q0 67 15 77q26 19 198 19q35 0 70 -4q56 -9 94 -47t47 -89t-0.5 -103.5t-48.5 -94.5t-96 -57q-2 0 -2 -3v-6q26 -39 68.5 -116t50.5 -90q5 -9 17 -26t17.5 -26t10.5 -22t5 -23q0 -9 -5 -14.5t-16 -8t-22.5 -3
t-30.5 -0.5q-3 0 -11.5 -0.5t-13.5 -0.5q-38 0 -49 17l-27 43l-93 189q-4 6 -9 18.5t-11 21.5t-14 14q0 -39 3.5 -118.5t3.5 -119.5q0 -35 -5 -47t-26 -16q-15 0 -35 -0.5t-26 -0.5q-24 0 -34.5 7.5t-16.5 35.5zM149 451q5 -17 50 -17q7 0 16 0.5t11 0.5q41 0 59.5 17
t18.5 75q0 62 -31.5 85.5t-110.5 23.5q-14 0 -17 -7q0 -31 2 -89.5t2 -88.5zM102 810q0 20 36.5 71.5t53.5 51.5q20 0 44 -16t24 -33q0 -20 -48 -60t-68 -40q-42 0 -42 26z" />
    <glyph glyph-name="racute" unicode="&#x155;" horiz-adv-x="484" 
d="M258 160q-6 21 -20 38q1 1 -8.5 12.5t-22 23.5t-17.5 12h-33l-4 -2q0 -24 2 -73t2 -74q0 -68 -10 -84.5t-43 -16.5l-21 -1h-2q-48 0 -54 19v29q0 75 -3.5 234t-3.5 245q0 136 7.5 160t50.5 26q13 0 21 1q5 0 15.5 0.5t16.5 0.5q17 0 56 -1t58 -1q81 0 121 -15
q52 -21 75 -72t23 -114q0 -115 -64 -155l-38 -20l-54 -11q-3 -1 -3 -4t5.5 -7t12.5 -8.5t10 -7.5q30 -33 48.5 -99.5t39.5 -95.5q4 -5 13.5 -12t15 -14t5.5 -19q-10 -48 -26.5 -61.5t-68.5 -13.5q-16 0 -39 15.5t-29 33.5q-20 46 -34 132zM144 404q0 -6 5 -6q43 0 64.5 1
t47 5t36.5 12.5t18.5 24t7.5 38.5q0 115 -83 125l-87 5q-14 0 -14 -30q0 -4 0.5 -12t0.5 -11q0 -60 4 -152zM110 782q0 20 36.5 71.5t53.5 51.5q20 0 44 -16t24 -33q0 -20 -48 -60t-68 -40q-42 0 -42 26z" />
    <glyph glyph-name="Rcommaaccent" unicode="&#x156;" horiz-adv-x="487" 
d="M29 49q-1 16 -3 49t-4 59.5t-2 32.5v390q1 6 1 24v39q0 67 15 77q26 19 198 19q35 0 70 -4q56 -9 94 -47t47 -89t-0.5 -103.5t-48.5 -94.5t-96 -57q-2 0 -2 -3v-6q26 -39 68.5 -116t50.5 -90q5 -9 17 -26t17.5 -26t10.5 -22t5 -23q0 -9 -5 -14.5t-16 -8t-22.5 -3
t-30.5 -0.5q-3 0 -11.5 -0.5t-13.5 -0.5q-38 0 -49 17l-27 43l-93 189q-4 6 -9 18.5t-11 21.5t-14 14q0 -39 3.5 -118.5t3.5 -119.5q0 -35 -5 -47t-26 -16q-15 0 -35 -0.5t-26 -0.5q-24 0 -34.5 7.5t-16.5 35.5zM149 451q5 -17 50 -17q7 0 16 0.5t11 0.5q41 0 59.5 17
t18.5 75q0 62 -31.5 85.5t-110.5 23.5q-14 0 -17 -7q0 -31 2 -89.5t2 -88.5zM203 -173q0 5 15.5 15t15.5 18q0 1 -11 5t-22.5 13.5t-11.5 22.5q0 14 14.5 33.5t32.5 19.5q25 0 43 -15t18 -40q0 -16 -14 -37t-47 -38q-4 -2 -17 -2q-16 0 -16 5z" />
    <glyph glyph-name="rcommaaccent" unicode="&#x157;" horiz-adv-x="484" 
d="M258 160q-6 21 -20 38q1 1 -8.5 12.5t-22 23.5t-17.5 12h-33l-4 -2q0 -24 2 -73t2 -74q0 -68 -10 -84.5t-43 -16.5l-21 -1h-2q-48 0 -54 19v29q0 75 -3.5 234t-3.5 245q0 136 7.5 160t50.5 26q13 0 21 1q5 0 15.5 0.5t16.5 0.5q17 0 56 -1t58 -1q81 0 121 -15
q52 -21 75 -72t23 -114q0 -115 -64 -155l-38 -20l-54 -11q-3 -1 -3 -4t5.5 -7t12.5 -8.5t10 -7.5q30 -33 48.5 -99.5t39.5 -95.5q4 -5 13.5 -12t15 -14t5.5 -19q-10 -48 -26.5 -61.5t-68.5 -13.5q-16 0 -39 15.5t-29 33.5q-20 46 -34 132zM144 404q0 -6 5 -6q43 0 64.5 1
t47 5t36.5 12.5t18.5 24t7.5 38.5q0 115 -83 125l-87 5q-14 0 -14 -30q0 -4 0.5 -12t0.5 -11q0 -60 4 -152zM202 -173q0 5 15.5 15t15.5 18q0 1 -11 5t-22.5 13.5t-11.5 22.5q0 14 14.5 33.5t32.5 19.5q25 0 43 -15t18 -40q0 -16 -14 -37t-47 -38q-4 -2 -17 -2q-16 0 -16 5z
" />
    <glyph glyph-name="Rcaron" unicode="&#x158;" horiz-adv-x="487" 
d="M29 49q-1 16 -3 49t-4 59.5t-2 32.5v390q1 6 1 24v39q0 67 15 77q26 19 198 19q35 0 70 -4q56 -9 94 -47t47 -89t-0.5 -103.5t-48.5 -94.5t-96 -57q-2 0 -2 -3v-6q26 -39 68.5 -116t50.5 -90q5 -9 17 -26t17.5 -26t10.5 -22t5 -23q0 -9 -5 -14.5t-16 -8t-22.5 -3
t-30.5 -0.5q-3 0 -11.5 -0.5t-13.5 -0.5q-38 0 -49 17l-27 43l-93 189q-4 6 -9 18.5t-11 21.5t-14 14q0 -39 3.5 -118.5t3.5 -119.5q0 -35 -5 -47t-26 -16q-15 0 -35 -0.5t-26 -0.5q-24 0 -34.5 7.5t-16.5 35.5zM149 451q5 -17 50 -17q7 0 16 0.5t11 0.5q41 0 59.5 17
t18.5 75q0 62 -31.5 85.5t-110.5 23.5q-14 0 -17 -7q0 -31 2 -89.5t2 -88.5zM70 905q0 16 40 16q27 -1 40 -4.5t17 -6t13.5 -22t17.5 -31.5q0 -2 3 -2q8 0 22.5 30.5t32.5 35.5q4 0 12 0.5t14 0.5l7 1q47 0 47 -15q-1 -12 -31 -60t-47 -55q-25 -10 -65 -7t-59 22
q-6 8 -24.5 28t-29 36.5t-10.5 32.5z" />
    <glyph glyph-name="rcaron" unicode="&#x159;" horiz-adv-x="484" 
d="M258 160q-6 21 -20 38q1 1 -8.5 12.5t-22 23.5t-17.5 12h-33l-4 -2q0 -24 2 -73t2 -74q0 -68 -10 -84.5t-43 -16.5l-21 -1h-2q-48 0 -54 19v29q0 75 -3.5 234t-3.5 245q0 136 7.5 160t50.5 26q13 0 21 1q5 0 15.5 0.5t16.5 0.5q17 0 56 -1t58 -1q81 0 121 -15
q52 -21 75 -72t23 -114q0 -115 -64 -155l-38 -20l-54 -11q-3 -1 -3 -4t5.5 -7t12.5 -8.5t10 -7.5q30 -33 48.5 -99.5t39.5 -95.5q4 -5 13.5 -12t15 -14t5.5 -19q-10 -48 -26.5 -61.5t-68.5 -13.5q-16 0 -39 15.5t-29 33.5q-20 46 -34 132zM144 404q0 -6 5 -6q43 0 64.5 1
t47 5t36.5 12.5t18.5 24t7.5 38.5q0 115 -83 125l-87 5q-14 0 -14 -30q0 -4 0.5 -12t0.5 -11q0 -60 4 -152zM78 877q0 16 40 16q27 -1 40 -4.5t17 -6t13.5 -22t17.5 -31.5q0 -2 3 -2q8 0 22.5 30.5t32.5 35.5q4 0 12 0.5t14 0.5l7 1q47 0 47 -15q-1 -12 -31 -60t-47 -55
q-25 -10 -65 -7t-59 22q-6 8 -24.5 28t-29 36.5t-10.5 32.5z" />
    <glyph glyph-name="Sacute" unicode="&#x15a;" horiz-adv-x="437" 
d="M20 179q0 18 30.5 30.5t61.5 12.5q8 0 12.5 -8t8 -23.5t4.5 -19.5q0 -16 20 -46.5t42 -30.5q45 0 70.5 25t25.5 66q0 32 -14.5 60t-38 49.5t-51.5 42.5t-56 43t-51.5 46t-38 56t-14.5 69q0 73 55 117.5t123 44.5q160 0 207 -140q1 -2 1 -7t-3.5 -8.5t-12 -8t-11.5 -6.5
q-2 -2 -17 -14t-27.5 -20t-20.5 -8q-7 0 -9 7q-13 35 -34 49.5t-58 14.5q-24 0 -42.5 -10t-18.5 -33q0 -15 19.5 -32.5t48 -36t70.5 -58t76 -87.5q37 -51 37 -133q0 -101 -96 -161q-42 -27 -135 -27q-99 0 -134 78q-29 68 -29 107zM120 790q0 20 36.5 71.5t53.5 51.5
q20 0 44 -16t24 -33q0 -20 -48 -60t-68 -40q-42 0 -42 26z" />
    <glyph glyph-name="sacute" unicode="&#x15b;" horiz-adv-x="410" 
d="M22 182q0 22 36 37t51 15h23q7 0 12.5 -14t9.5 -31.5t16.5 -31.5t32.5 -14q61 0 65 49q0 29 -17 56.5t-40 48t-65 58.5t-74 73q-52 44 -52 105q0 78 55 122t131 44q61 0 112.5 -29.5t70.5 -83.5l1 -1v-2q0 -4 -7 -18q-2 -3 -10 -13t-14.5 -18t-14 -17t-14.5 -14t-11 -5
h-1l-2 1q-16 8 -37.5 29t-42 34.5t-44.5 13.5q-38 0 -38 -32q0 -23 19 -47q25 -25 68.5 -59t71.5 -57t50 -62.5t22 -86.5q0 -94 -41 -152t-132 -58q-128 0 -173 100q-17 36 -17 60zM102 778q0 20 36.5 71.5t53.5 51.5q20 0 44 -16t24 -33q0 -20 -48 -60t-68 -40
q-42 0 -42 26z" />
    <glyph glyph-name="Scircumflex" unicode="&#x15c;" horiz-adv-x="437" 
d="M20 179q0 18 30.5 30.5t61.5 12.5q8 0 12.5 -8t8 -23.5t4.5 -19.5q0 -16 20 -46.5t42 -30.5q45 0 70.5 25t25.5 66q0 32 -14.5 60t-38 49.5t-51.5 42.5t-56 43t-51.5 46t-38 56t-14.5 69q0 73 55 117.5t123 44.5q160 0 207 -140q1 -2 1 -7t-3.5 -8.5t-12 -8t-11.5 -6.5
q-2 -2 -17 -14t-27.5 -20t-20.5 -8q-7 0 -9 7q-13 35 -34 49.5t-58 14.5q-24 0 -42.5 -10t-18.5 -33q0 -15 19.5 -32.5t48 -36t70.5 -58t76 -87.5q37 -51 37 -133q0 -101 -96 -161q-42 -27 -135 -27q-99 0 -134 78q-29 68 -29 107zM88 783q0 16 10.5 32.5t29 36.5t24.5 28
q19 19 59 22t65 -7q26 -10 60 -89q2 -3 7 -8t8 -9t3 -9q0 -15 -47 -15l-7 1q-6 0 -14 0.5t-12 0.5q-18 5 -32.5 35.5t-22.5 30.5q-3 0 -3 -2q-8 -12 -15.5 -27t-10 -19t-10.5 -9.5t-19 -6.5t-33 -2q-1 0 -3.5 0.5t-3.5 0.5q-33 4 -33 15z" />
    <glyph glyph-name="scircumflex" unicode="&#x15d;" horiz-adv-x="410" 
d="M22 182q0 22 36 37t51 15h23q7 0 12.5 -14t9.5 -31.5t16.5 -31.5t32.5 -14q61 0 65 49q0 29 -17 56.5t-40 48t-65 58.5t-74 73q-52 44 -52 105q0 78 55 122t131 44q61 0 112.5 -29.5t70.5 -83.5l1 -1v-2q0 -4 -7 -18q-2 -3 -10 -13t-14.5 -18t-14 -17t-14.5 -14t-11 -5
h-1l-2 1q-16 8 -37.5 29t-42 34.5t-44.5 13.5q-38 0 -38 -32q0 -23 19 -47q25 -25 68.5 -59t71.5 -57t50 -62.5t22 -86.5q0 -94 -41 -152t-132 -58q-128 0 -173 100q-17 36 -17 60zM70 771q0 16 10.5 32.5t29 36.5t24.5 28q19 19 59 22t65 -7q26 -10 60 -89q2 -3 7 -8t8 -9
t3 -9q0 -15 -47 -15l-7 1q-6 0 -14 0.5t-12 0.5q-18 5 -32.5 35.5t-22.5 30.5q-3 0 -3 -2q-8 -12 -15.5 -27t-10 -19t-10.5 -9.5t-19 -6.5t-33 -2q-1 0 -3.5 0.5t-3.5 0.5q-33 4 -33 15z" />
    <glyph glyph-name="Scedilla" unicode="&#x15e;" horiz-adv-x="437" 
d="M184 -132q4 0 15 -0.5t18 -0.5t16 1t14 5.5t6 11.5q0 16 -7 16h-68q-10 0 -11 21.5t3 71.5q-89 5 -121 78q-29 68 -29 107q0 18 30.5 30.5t61.5 12.5q8 0 12.5 -8t8 -23.5t4.5 -19.5q0 -16 20 -46.5t42 -30.5q45 0 70.5 25t25.5 66q0 32 -14.5 60t-38 49.5t-51.5 42.5
t-56 43t-51.5 46t-38 56t-14.5 69q0 73 55 117.5t123 44.5q160 0 207 -140q1 -2 1 -7t-3.5 -8.5t-12 -8t-11.5 -6.5q-2 -2 -17 -14t-27.5 -20t-20.5 -8q-7 0 -9 7q-13 35 -34 49.5t-58 14.5q-24 0 -42.5 -10t-18.5 -33q0 -15 19.5 -32.5t48 -36t70.5 -58t76 -87.5
q37 -51 37 -133q0 -101 -96 -161q-25 -16 -57 -21q-3 -33 5.5 -47t22.5 -14.5t28 -1.5t22.5 -17.5t6.5 -53.5q-3 -41 -40 -61.5t-83 -20.5q-49 0 -63 26q-10 18 10 48q10 14 14 10z" />
    <glyph glyph-name="scedilla" unicode="&#x15f;" horiz-adv-x="410" 
d="M177 -110q4 0 15 -0.5t18 -0.5t16 1t14 5.5t6 11.5q0 16 -7 16h-68q-10 0 -11 22t4 74q0 1 0.5 3.5t0.5 3.5q-90 15 -126 96q-17 36 -17 60q0 22 36 37t51 15h23q7 0 12.5 -14t9.5 -31.5t16.5 -31.5t32.5 -14q61 0 65 49q0 29 -17 56.5t-40 48t-65 58.5t-74 73
q-52 44 -52 105q0 78 55 122t131 44q61 0 112.5 -29.5t70.5 -83.5l1 -1v-2q0 -4 -7 -18q-2 -3 -10 -13t-14.5 -18t-14 -17t-14.5 -14t-11 -5h-1l-2 1q-16 8 -37.5 29t-42 34.5t-44.5 13.5q-38 0 -38 -32q0 -23 19 -47q25 -25 68.5 -59t71.5 -57t50 -62.5t22 -86.5
q0 -181 -130 -206q-4 -35 4.5 -50t22 -15.5t28 -1.5t23 -17.5t6.5 -53.5q-3 -41 -40 -61.5t-83 -20.5q-49 0 -63 26q-10 18 10 48q10 14 14 10z" />
    <glyph glyph-name="Scaron" unicode="&#x160;" horiz-adv-x="437" 
d="M20 179q0 18 30.5 30.5t61.5 12.5q8 0 12.5 -8t8 -23.5t4.5 -19.5q0 -16 20 -46.5t42 -30.5q45 0 70.5 25t25.5 66q0 32 -14.5 60t-38 49.5t-51.5 42.5t-56 43t-51.5 46t-38 56t-14.5 69q0 73 55 117.5t123 44.5q160 0 207 -140q1 -2 1 -7t-3.5 -8.5t-12 -8t-11.5 -6.5
q-2 -2 -17 -14t-27.5 -20t-20.5 -8q-7 0 -9 7q-13 35 -34 49.5t-58 14.5q-24 0 -42.5 -10t-18.5 -33q0 -15 19.5 -32.5t48 -36t70.5 -58t76 -87.5q37 -51 37 -133q0 -101 -96 -161q-42 -27 -135 -27q-99 0 -134 78q-29 68 -29 107zM88 885q0 16 40 16q27 -1 40 -4.5t17 -6
t13.5 -22t17.5 -31.5q0 -2 3 -2q8 0 22.5 30.5t32.5 35.5q4 0 12 0.5t14 0.5l7 1q47 0 47 -15q-1 -12 -31 -60t-47 -55q-25 -10 -65 -7t-59 22q-6 8 -24.5 28t-29 36.5t-10.5 32.5z" />
    <glyph glyph-name="scaron" unicode="&#x161;" horiz-adv-x="410" 
d="M22 182q0 22 36 37t51 15h23q7 0 12.5 -14t9.5 -31.5t16.5 -31.5t32.5 -14q61 0 65 49q0 29 -17 56.5t-40 48t-65 58.5t-74 73q-52 44 -52 105q0 78 55 122t131 44q61 0 112.5 -29.5t70.5 -83.5l1 -1v-2q0 -4 -7 -18q-2 -3 -10 -13t-14.5 -18t-14 -17t-14.5 -14t-11 -5
h-1l-2 1q-16 8 -37.5 29t-42 34.5t-44.5 13.5q-38 0 -38 -32q0 -23 19 -47q25 -25 68.5 -59t71.5 -57t50 -62.5t22 -86.5q0 -94 -41 -152t-132 -58q-128 0 -173 100q-17 36 -17 60zM70 873q0 16 40 16q27 -1 40 -4.5t17 -6t13.5 -22t17.5 -31.5q0 -2 3 -2q8 0 22.5 30.5
t32.5 35.5q4 0 12 0.5t14 0.5l7 1q47 0 47 -15q-1 -12 -31 -60t-47 -55q-25 -10 -65 -7t-59 22q-6 8 -24.5 28t-29 36.5t-10.5 32.5z" />
    <glyph glyph-name="Tcommaaccent" unicode="&#x162;" horiz-adv-x="440" 
d="M172 23q-6 19 -6 39l-18 454v4q-3 47 -24 47q-9 0 -27 -1t-28 -1q-42 0 -47 22v10q0 10 -1 26t-1 27q0 23 11.5 33t47.5 14.5t116 4.5q76 0 125 -1q25 0 38 -1t30 -3.5t24.5 -8t7.5 -14.5v-80q0 -31 -78 -31q-9 0 -24.5 0.5t-22.5 0.5q-8 -2 -8 -33q0 -3 5 -52.5t10 -158
t5 -252.5q0 -57 -43 -57h-72q-11 0 -20 12zM180 -173q0 5 15.5 15t15.5 18q0 1 -11 5t-22.5 13.5t-11.5 22.5q0 14 14.5 33.5t32.5 19.5q25 0 43 -15t18 -40q0 -16 -14 -37t-47 -38q-4 -2 -17 -2q-16 0 -16 5z" />
    <glyph glyph-name="tcommaaccent" unicode="&#x163;" horiz-adv-x="429" 
d="M200 -11q-41 9 -41 28q0 14 0.5 40.5t0.5 39.5q0 66 1 197.5t1 197.5v20l1 13q-1 4 -1 19.5t-2 24t-6 8.5h-92q-48 3 -48 58q0 50 21 61.5t104 11.5q37 0 109.5 -3.5t108.5 -3.5q100 0 100 -32q0 -35 -1 -51.5t-3 -30t-10 -17.5t-16 -5.5t-27 -1.5h-7q-13 0 -37 1t-37 1
q-9 0 -9 -56v-39q0 -42 2 -140.5t1 -172t-7 -141.5q-7 -29 -39 -29q-19 0 -67 2zM174 -173q0 5 15.5 15t15.5 18q0 1 -11 5t-22.5 13.5t-11.5 22.5q0 14 14.5 33.5t32.5 19.5q25 0 43 -15t18 -40q0 -16 -14 -37t-47 -38q-4 -2 -17 -2q-16 0 -16 5z" />
    <glyph glyph-name="Tcaron" unicode="&#x164;" horiz-adv-x="440" 
d="M172 23q-6 19 -6 39l-18 454v4q-3 47 -24 47q-9 0 -27 -1t-28 -1q-42 0 -47 22v10q0 10 -1 26t-1 27q0 23 11.5 33t47.5 14.5t116 4.5q76 0 125 -1q25 0 38 -1t30 -3.5t24.5 -8t7.5 -14.5v-80q0 -31 -78 -31q-9 0 -24.5 0.5t-22.5 0.5q-8 -2 -8 -33q0 -3 5 -52.5t10 -158
t5 -252.5q0 -57 -43 -57h-72q-11 0 -20 12zM82 871q0 16 40 16q27 -1 40 -4.5t17 -6t13.5 -22t17.5 -31.5q0 -2 3 -2q8 0 22.5 30.5t32.5 35.5q4 0 12 0.5t14 0.5l7 1q47 0 47 -15q-1 -12 -31 -60t-47 -55q-25 -10 -65 -7t-59 22q-6 8 -24.5 28t-29 36.5t-10.5 32.5z" />
    <glyph glyph-name="tcaron" unicode="&#x165;" horiz-adv-x="429" 
d="M200 -11q-41 9 -41 28q0 14 0.5 40.5t0.5 39.5q0 66 1 197.5t1 197.5v20l1 13q-1 4 -1 19.5t-2 24t-6 8.5h-92q-48 3 -48 58q0 50 21 61.5t104 11.5q37 0 109.5 -3.5t108.5 -3.5q100 0 100 -32q0 -35 -1 -51.5t-3 -30t-10 -17.5t-16 -5.5t-27 -1.5h-7q-13 0 -37 1t-37 1
q-9 0 -9 -56v-39q0 -42 2 -140.5t1 -172t-7 -141.5q-7 -29 -39 -29q-19 0 -67 2zM79 851q0 16 40 16q27 -1 40 -4.5t17 -6t13.5 -22t17.5 -31.5q0 -2 3 -2q8 0 22.5 30.5t32.5 35.5q4 0 12 0.5t15 0.5l6 1q47 0 47 -15q-1 -12 -31 -60t-47 -55q-25 -10 -65 -7t-59 22
q-6 8 -24.5 28t-29 36.5t-10.5 32.5z" />
    <glyph glyph-name="Tbar" unicode="&#x166;" horiz-adv-x="440" 
d="M105 455q0 30 11 40.5t32 11.5v13q-3 47 -24 47q-9 0 -27 -1t-28 -1q-42 0 -47 22v10q0 10 -1 26t-1 27q0 23 11.5 33t47.5 14.5t116 4.5q76 0 125 -1q25 0 38 -1t30 -3.5t24.5 -8t7.5 -14.5v-80q0 -31 -78 -31q-9 0 -24.5 0.5t-22.5 0.5q-8 -2 -8 -33q0 -12 1 -22h22
q35 -7 35 -67q0 -21 -33 -24q-10 -2 -15 -2q10 -144 10 -348q0 -57 -43 -57h-72q-11 0 -20 12q-6 19 -6 39l-14 339h-16q-11 0 -18 4t-9.5 14t-3 16t-0.5 20z" />
    <glyph glyph-name="tbar" unicode="&#x167;" horiz-adv-x="429" 
d="M95 467q0 34 13 43t42 9v5l1 2q-1 5 -1 19t-1.5 22.5t-5.5 8.5h-81q-42 2 -42 55q0 47 18.5 58t91.5 11q33 0 96 -3.5t95 -3.5q88 0 88 -30q0 -73 -7 -87t-43 -14h-6q-11 0 -32.5 1t-32.5 1q-8 0 -8 -43h20q35 -7 35 -67q0 -21 -33 -24l-22 -3q0 -28 1 -93t1.5 -102
t-1 -90.5t-5.5 -98.5q-6 -28 -34 -28q-17 0 -59 2q-36 9 -36 27q0 13 0.5 38t0.5 38q0 97 2 293h-24q-11 0 -18 4t-9.5 14t-3 16t-0.5 20z" />
    <glyph glyph-name="Utilde" unicode="&#x168;" horiz-adv-x="449" 
d="M51 108q-8 3 -19.5 99t-11.5 134q0 185 8 336q6 28 52 28q62 0 76 -12.5t14 -53.5q0 -22 -1.5 -65t-1.5 -64q0 -24 -2 -83t-2 -102t2 -91.5t12 -76t27 -29.5q52 0 68 13.5t21 56.5q8 219 8 412q0 9 -2 26.5t-2 26.5q0 33 18 37q36 8 79 8q24 0 30 -20q5 -85 5 -208
q0 -109 -2.5 -179.5t-10 -126.5t-18.5 -85.5t-32 -49t-46 -25t-65 -5.5q-162 0 -204 99zM198 769q-2 2 -6 2q-9 0 -22.5 -16t-27.5 -16q-13 0 -36 7.5t-23 18.5q0 27 29 54t60 27q25 0 53 -19t40 -19q16 0 24.5 15.5t18.5 15.5q14 0 37 -8.5t23 -19.5q0 -6 -2 -9
q-8 -18 -13.5 -27t-15.5 -21.5t-23 -18t-30 -5.5q-47 0 -86 39z" />
    <glyph glyph-name="utilde" unicode="&#x169;" 
d="M86 51q-22 22 -36.5 63.5t-20 101t-8 109t0.5 124t5 108.5t7 97l2 26q4 19 47 19h28q74 0 74 -25v-79l-15 -382q0 -48 16.5 -67.5t71.5 -19.5q9 0 15.5 2t10 3.5t5.5 6.5t2.5 7.5t0.5 10.5v11l22 479q0 15 7.5 24.5t23 13.5t29 5t36.5 1q37 0 45 -3t8 -17q0 -5 -9 -134
q-16 -318 -31 -414q-10 -61 -52 -95.5t-114 -34.5q-115 0 -171 59zM219 759q-2 2 -6 2q-9 0 -22.5 -16t-27.5 -16q-13 0 -36 7.5t-23 18.5q0 27 29 54t60 27q25 0 53 -19t40 -19q16 0 24.5 15.5t18.5 15.5q14 0 37 -8.5t23 -19.5q0 -6 -2 -9q-9 -18 -14 -27t-15 -21.5
t-23 -18t-30 -5.5q-47 0 -86 39z" />
    <glyph glyph-name="Umacron" unicode="&#x16a;" horiz-adv-x="449" 
d="M51 108q-8 3 -19.5 99t-11.5 134q0 185 8 336q6 28 52 28q62 0 76 -12.5t14 -53.5q0 -22 -1.5 -65t-1.5 -64q0 -24 -2 -83t-2 -102t2 -91.5t12 -76t27 -29.5q52 0 68 13.5t21 56.5q8 219 8 412q0 9 -2 26.5t-2 26.5q0 33 18 37q36 8 79 8q24 0 30 -20q5 -85 5 -208
q0 -109 -2.5 -179.5t-10 -126.5t-18.5 -85.5t-32 -49t-46 -25t-65 -5.5q-162 0 -204 99zM93 795q0 12 1.5 21t6 14.5t7 9t12 5t12.5 2t16 0.5h16q90 2 134 2q35 -7 35 -67q0 -21 -33 -24q-124 -17 -176 -17q-11 0 -18 4t-9.5 14t-3 16t-0.5 20z" />
    <glyph glyph-name="umacron" unicode="&#x16b;" 
d="M86 51q-22 22 -36.5 63.5t-20 101t-8 109t0.5 124t5 108.5t7 97l2 26q4 19 47 19h28q74 0 74 -25v-79l-15 -382q0 -48 16.5 -67.5t71.5 -19.5q9 0 15.5 2t10 3.5t5.5 6.5t2.5 7.5t0.5 10.5v11l22 479q0 15 7.5 24.5t23 13.5t29 5t36.5 1q37 0 45 -3t8 -17q0 -5 -9 -134
q-16 -318 -31 -414q-10 -61 -52 -95.5t-114 -34.5q-115 0 -171 59zM114 785q0 12 1.5 21t6 14.5t7 9t12 5t12.5 2t16 0.5h16q90 2 134 2q35 -7 35 -67q0 -21 -33 -24q-124 -17 -176 -17q-11 0 -18 4t-9.5 14t-3 16t-0.5 20z" />
    <glyph glyph-name="Ubreve" unicode="&#x16c;" horiz-adv-x="449" 
d="M51 108q-8 3 -19.5 99t-11.5 134q0 185 8 336q6 28 52 28q62 0 76 -12.5t14 -53.5q0 -22 -1.5 -65t-1.5 -64q0 -24 -2 -83t-2 -102t2 -91.5t12 -76t27 -29.5q52 0 68 13.5t21 56.5q8 219 8 412q0 9 -2 26.5t-2 26.5q0 33 18 37q36 8 79 8q24 0 30 -20q5 -85 5 -208
q0 -109 -2.5 -179.5t-10 -126.5t-18.5 -85.5t-32 -49t-46 -25t-65 -5.5q-162 0 -204 99zM303 748q-37 -14 -77 -15t-71 19.5t-31 56.5q0 28 15.5 38.5t51.5 10.5q34 0 34 -23q0 -4 -1.5 -12t-1.5 -11q0 -11 11 -11q8 0 12 5t7.5 18t3.5 14q5 18 50 18q18 0 29.5 -8.5
t11.5 -21.5q0 -21 -12 -44t-32 -34z" />
    <glyph glyph-name="ubreve" unicode="&#x16d;" 
d="M86 51q-22 22 -36.5 63.5t-20 101t-8 109t0.5 124t5 108.5t7 97l2 26q4 19 47 19h28q74 0 74 -25v-79l-15 -382q0 -48 16.5 -67.5t71.5 -19.5q9 0 15.5 2t10 3.5t5.5 6.5t2.5 7.5t0.5 10.5v11l22 479q0 15 7.5 24.5t23 13.5t29 5t36.5 1q37 0 45 -3t8 -17q0 -5 -9 -134
q-16 -318 -31 -414q-10 -61 -52 -95.5t-114 -34.5q-115 0 -171 59zM324 738q-37 -14 -77 -15t-71 19.5t-31 56.5q0 28 15.5 38.5t51.5 10.5q34 0 34 -23q0 -4 -1.5 -12t-1.5 -11q0 -11 11 -11q8 0 12 5t7.5 18t3.5 14q5 18 50 18q18 0 29.5 -8.5t11.5 -21.5q0 -21 -12 -44
t-32 -34z" />
    <glyph glyph-name="Uring" unicode="&#x16e;" horiz-adv-x="449" 
d="M51 108q-8 3 -19.5 99t-11.5 134q0 185 8 336q6 28 52 28q62 0 76 -12.5t14 -53.5q0 -22 -1.5 -65t-1.5 -64q0 -24 -2 -83t-2 -102t2 -91.5t12 -76t27 -29.5q52 0 68 13.5t21 56.5q8 219 8 412q0 9 -2 26.5t-2 26.5q0 33 18 37q36 8 79 8q24 0 30 -20q5 -85 5 -208
q0 -109 -2.5 -179.5t-10 -126.5t-18.5 -85.5t-32 -49t-46 -25t-65 -5.5q-162 0 -204 99zM133 810q0 37 26.5 70t62.5 33q35 0 60.5 -24t25.5 -59q0 -45 -22 -73t-64 -28q-35 0 -62 21t-27 60zM225 854q-13 0 -19.5 -13t-0.5 -25.5t25 -12.5q9 0 13.5 3.5t5.5 8t1 12.5
q0 10 -7 18.5t-18 8.5z" />
    <glyph glyph-name="uring" unicode="&#x16f;" 
d="M86 51q-22 22 -36.5 63.5t-20 101t-8 109t0.5 124t5 108.5t7 97l2 26q4 19 47 19h28q74 0 74 -25v-79l-15 -382q0 -48 16.5 -67.5t71.5 -19.5q9 0 15.5 2t10 3.5t5.5 6.5t2.5 7.5t0.5 10.5v11l22 479q0 15 7.5 24.5t23 13.5t29 5t36.5 1q37 0 45 -3t8 -17q0 -5 -9 -134
q-16 -318 -31 -414q-10 -61 -52 -95.5t-114 -34.5q-115 0 -171 59zM154 800q0 37 26.5 70t62.5 33q35 0 60.5 -24t25.5 -59q0 -45 -22 -73t-64 -28q-35 0 -62 21t-27 60zM246 844q-13 0 -19.5 -13t-0.5 -25.5t25 -12.5q9 0 13.5 3.5t5.5 8t1 12.5q0 10 -7 18.5t-18 8.5z" />
    <glyph glyph-name="Uhungarumlaut" unicode="&#x170;" horiz-adv-x="449" 
d="M51 108q-8 3 -19.5 99t-11.5 134q0 185 8 336q6 28 52 28q62 0 76 -12.5t14 -53.5q0 -22 -1.5 -65t-1.5 -64q0 -24 -2 -83t-2 -102t2 -91.5t12 -76t27 -29.5q52 0 68 13.5t21 56.5q8 219 8 412q0 9 -2 26.5t-2 26.5q0 33 18 37q36 8 79 8q24 0 30 -20q5 -85 5 -208
q0 -109 -2.5 -179.5t-10 -126.5t-18.5 -85.5t-32 -49t-46 -25t-65 -5.5q-162 0 -204 99zM118 743q-6 19 13.5 79t35.5 65q19 6 47 -2.5t33 -24.5q6 -19 -28 -71.5t-53 -58.5q-41 -10 -48 13zM251 739q-6 19 13.5 79t35.5 65q19 6 47 -2.5t33 -24.5q6 -19 -28 -71.5
t-53 -58.5q-41 -10 -48 13z" />
    <glyph glyph-name="uhungarumlaut" unicode="&#x171;" 
d="M86 51q-22 22 -36.5 63.5t-20 101t-8 109t0.5 124t5 108.5t7 97l2 26q4 19 47 19h28q74 0 74 -25v-79l-15 -382q0 -48 16.5 -67.5t71.5 -19.5q9 0 15.5 2t10 3.5t5.5 6.5t2.5 7.5t0.5 10.5v11l22 479q0 15 7.5 24.5t23 13.5t29 5t36.5 1q37 0 45 -3t8 -17q0 -5 -9 -134
q-16 -318 -31 -414q-10 -61 -52 -95.5t-114 -34.5q-115 0 -171 59zM139 733q-6 19 13.5 79t35.5 65q19 6 47 -2.5t33 -24.5q6 -19 -28 -71.5t-53 -58.5q-41 -10 -48 13zM272 729q-6 19 13.5 79t35.5 65q19 6 47 -2.5t33 -24.5q6 -19 -28 -71.5t-53 -58.5q-41 -10 -48 13z
" />
    <glyph glyph-name="Uogonek" unicode="&#x172;" horiz-adv-x="449" 
d="M237 -82q0 2 -0.5 10t-0.5 9q0 36 14 72q-73 0 -124 21t-75 78q-8 3 -19.5 99t-11.5 134q0 185 8 336q6 28 52 28q62 0 76 -12.5t14 -53.5q0 -22 -1.5 -65t-1.5 -64q0 -24 -2 -83t-2 -102t2 -91.5t12 -76t27 -29.5q52 0 68 13.5t21 56.5q8 219 8 412q0 9 -2 26.5t-2 26.5
q0 33 18 37q36 8 79 8q24 0 30 -20q5 -85 5 -208q0 -242 -17 -337t-69 -120q-3 -7 -12 -20t-14 -24.5t-5 -23.5q0 -22 15 -22q10 0 25 12.5t26 12.5q12 0 22.5 -18t10.5 -29q0 -23 -26.5 -42t-51.5 -19q-35 0 -62 18t-34 50z" />
    <glyph glyph-name="uogonek" unicode="&#x173;" 
d="M227 -102q0 2 -0.5 10t-0.5 9q0 39 15 76q-103 4 -155 58q-22 22 -36.5 63.5t-20 101t-8 109t0.5 124t5 108.5t7 97l2 26q4 19 47 19h28q74 0 74 -25v-79l-15 -382q0 -48 16.5 -67.5t71.5 -19.5q9 0 15.5 2t10 3.5t5.5 6.5t2.5 7.5t0.5 10.5v11l22 479q0 15 7.5 24.5
t23 13.5t29 5t36.5 1q37 0 45 -3t8 -17q0 -5 -9 -134q-16 -318 -31 -414q-14 -87 -89 -117q-3 -7 -12 -20.5t-14.5 -25.5t-5.5 -24q0 -22 15 -22q10 0 25 12.5t26 12.5q12 0 22.5 -18t10.5 -29q0 -23 -26.5 -42t-51.5 -19q-35 0 -62 18t-34 50z" />
    <glyph glyph-name="Wcircumflex" unicode="&#x174;" horiz-adv-x="790" 
d="M103 235v18l-51 267l-5 16q-3 22 -15 77t-12 76q0 13 12 22q15 0 44.5 2.5t43.5 2.5q33 0 42 -32q7 -27 13.5 -78.5t10.5 -71.5q16 -80 33 -224q1 -5 2.5 -22t4.5 -30t9 -17q5 5 5 12l32 133q0 1 4.5 17t11 23.5t17.5 7.5h84q56 0 62 -19q1 -3 16 -53t29.5 -97.5
t16.5 -48.5q3 3 5 8t3.5 13.5t2.5 13.5q6 25 29.5 143.5t42.5 178.5l22 106q3 23 13 30.5t52 7.5q87 0 87 -31q0 -24 -8.5 -54t-22 -68.5t-18.5 -58.5q-4 -15 -33.5 -137.5t-48.5 -190.5q-1 -5 -16.5 -57.5t-22.5 -79.5q-7 -28 -55 -28q-14 0 -41.5 2t-42.5 2h-8
q-2 1 -12.5 4t-18 7t-10.5 9q-15 27 -32 89t-25 84l-6 7q-8 0 -15 -35q0 -1 -1 -8t-1 -8l-25 -114q-4 -20 -17.5 -29.5t-26 -11t-37.5 -1.5h-5q-20 0 -47.5 8.5t-30.5 24.5zM246 717q0 16 10.5 32.5t29 36.5t24.5 28q19 19 59 22t65 -7q26 -10 60 -89q2 -3 7 -8t8 -9t3 -9
q0 -15 -47 -15l-7 1q-6 0 -14 0.5t-12 0.5q-18 5 -32.5 35.5t-22.5 30.5q-3 0 -3 -2q-8 -12 -15.5 -27t-10 -19t-10.5 -9.5t-19 -6.5t-33 -2q-1 0 -3.5 0.5t-3.5 0.5q-33 4 -33 15z" />
    <glyph glyph-name="wcircumflex" unicode="&#x175;" horiz-adv-x="675" 
d="M457 3h-69q-12 0 -20 4t-13.5 12.5t-8 15.5t-6.5 20.5t-6 20.5q-2 6 -8 37t-12 56t-9 25q-5 0 -5 -10l-15 -77q-2 -9 -6 -24t-6 -21.5t-6.5 -17t-9.5 -14.5t-13.5 -10.5t-20 -8.5t-28 -4t-38.5 -2q-15 0 -26.5 9.5t-13.5 23.5l-54 296q-5 52 -21.5 161t-21.5 167
q0 38 76 38q37 0 47 -5.5t13 -28.5l60 -417q2 0 9 29.5t13 58.5l6 29q8 47 98 47q22 0 35 -18t16 -37t5.5 -49t3.5 -38q19 -97 26 -97q3 3 5 9t3.5 14t1.5 10q46 167 71 359q2 12 3.5 33.5t3 32.5t6 26.5t12.5 23t22 13t35 5.5q3 0 11.5 0.5t13.5 0.5q39 0 39 -21l-127 -615
q0 -12 -18.5 -38.5t-38.5 -26.5q-4 0 -14 3zM196 713q0 16 10.5 32.5t29 36.5t24.5 28q19 19 59 22t65 -7q26 -10 60 -89q2 -3 7 -8t8 -9t3 -9q0 -15 -47 -15l-7 1q-6 0 -14 0.5t-12 0.5q-18 5 -32.5 35.5t-22.5 30.5q-3 0 -3 -2q-8 -12 -15.5 -27t-10 -19t-10.5 -9.5
t-19 -6.5t-33 -2q-1 0 -3.5 0.5t-3.5 0.5q-33 4 -33 15z" />
    <glyph glyph-name="Ycircumflex" unicode="&#x176;" horiz-adv-x="576" 
d="M214 212l-14 149q-1 13 -7.5 26t-18 29.5t-15.5 22.5q-14 24 -30 53t-34.5 64t-28.5 54q-5 9 -18.5 26.5t-20.5 32t-7 30.5q0 34 57 34h57q12 0 28 -18.5t16 -29.5l22.5 -40.5t24.5 -48.5q1 -2 8 -20t13 -32t13.5 -31t13.5 -26.5t9 -9.5t7 5t9 14t9 17t8.5 16.5t5.5 11.5
q55 107 59 116q17 51 33 64.5t50 13.5h18q75 0 75 -27l-1 -4q-1 -3 -1 -4q-9 -17 -25 -44t-23 -40l-34 -65q-3 -5 -11.5 -16t-11.5 -17q-49 -86 -94 -159v-326q0 -38 -54 -38l-9 -1h-16q-62 0 -62 27v191zM152 771q0 16 10.5 32.5t29 36.5t24.5 28q19 19 59 22t65 -7
q26 -10 60 -89q2 -3 7 -8t8 -9t3 -9q0 -15 -47 -15l-7 1q-6 0 -14 0.5t-12 0.5q-18 5 -32.5 35.5t-22.5 30.5q-3 0 -3 -2q-8 -12 -15.5 -27t-10 -19t-10.5 -9.5t-19 -6.5t-33 -2q-1 0 -3.5 0.5t-3.5 0.5q-33 4 -33 15z" />
    <glyph glyph-name="ycircumflex" unicode="&#x177;" horiz-adv-x="505" 
d="M32 137q0 15 42 30t75 15q10 0 14 -13.5t6 -30t20 -30t52 -13.5q11 0 23 8q52 30 76.5 85.5t19.5 100.5q-1 1 -2.5 4t-2.5 4t-2.5 3.5t-3 2t-3.5 -0.5q-21 -9 -71 -14.5t-108.5 -2.5t-102.5 32.5t-44 84.5v93l17 187q1 8 15.5 12.5t24.5 4.5h66q13 0 20.5 -9.5t7.5 -21.5
q0 -13 -3 -36t-4 -30q-8 -80 -8 -132v-27q0 -35 13 -48t61 -13q43 0 69 12t36 45q0 78 -14 195q0 4 -1 10t-2 10l-1 5q0 23 42.5 32t78.5 9q45 0 45 -190q0 -17 1 -57.5t1 -62.5q0 -77 -8 -134t-40 -121t-89 -102q-63 -43 -118 -43q-137 0 -179 93q-3 4 -8.5 24t-10.5 30z
M114 741q0 16 10.5 32.5t29 36.5t24.5 28q19 19 59 22t65 -7q26 -10 60 -89q2 -3 7 -8t8 -9t3 -9q0 -15 -47 -15l-7 1q-6 0 -14 0.5t-12 0.5q-18 5 -32.5 35.5t-22.5 30.5q-3 0 -3 -2q-8 -12 -15.5 -27t-10 -19t-10.5 -9.5t-19 -6.5t-33 -2q-1 0 -3.5 0.5t-3.5 0.5
q-33 4 -33 15z" />
    <glyph glyph-name="Ydieresis" unicode="&#x178;" horiz-adv-x="576" 
d="M214 212l-14 149q-1 13 -7.5 26t-18 29.5t-15.5 22.5q-14 24 -30 53t-34.5 64t-28.5 54q-5 9 -18.5 26.5t-20.5 32t-7 30.5q0 34 57 34h57q12 0 28 -18.5t16 -29.5l22.5 -40.5t24.5 -48.5q1 -2 8 -20t13 -32t13.5 -31t13.5 -26.5t9 -9.5t7 5t9 14t9 17t8.5 16.5t5.5 11.5
q55 107 59 116q17 51 33 64.5t50 13.5h18q75 0 75 -27l-1 -4q-1 -3 -1 -4q-9 -17 -25 -44t-23 -40l-34 -65q-3 -5 -11.5 -16t-11.5 -17q-49 -86 -94 -159v-326q0 -38 -54 -38l-9 -1h-16q-62 0 -62 27v191zM138 809q0 19 16 32t36 13q22 0 39 -17t17 -38q0 -18 -16.5 -33.5
t-33.5 -15.5q-21 0 -39.5 19t-18.5 40zM302 819q0 24 18 37.5t43 13.5q29 -2 41.5 -30t-1 -55t-46.5 -27q-22 0 -38.5 20t-16.5 41z" />
    <glyph glyph-name="Zacute" unicode="&#x179;" horiz-adv-x="471" 
d="M39 77q0 51 20 83q10 15 120 200q10 12 28 45.5t34.5 67.5t17.5 36q23 47 23 50q0 7 -3 7q-36 0 -107 -5t-107 -5q-27 0 -36 18.5t-9 51.5v32q0 26 12 45t35 19l342 1q14 -4 23 -17t12 -24t6 -32v-2l1 -2q0 -59 -12 -84l-129 -266q-6 -20 -23.5 -53.5t-23.5 -50.5
q-2 -4 -2 -9q0 -7 3 -7h124q34 0 45 -24.5t11 -74.5q0 -68 -48 -69l-249 -4q-5 -2 -22 -2q-55 0 -70.5 12.5t-15.5 47.5v15zM142 790q0 20 36.5 71.5t53.5 51.5q20 0 44 -16t24 -33q0 -20 -48 -60t-68 -40q-42 0 -42 26z" />
    <glyph glyph-name="zacute" unicode="&#x17a;" 
d="M46 70q0 4 -1 14.5t-1 15.5q0 14 5 23q2 3 11.5 18.5t26 42t42.5 70t71 121.5t103 179q4 6 4 10q0 2 -5 2q-18 0 -55 -1.5t-55 -1.5q-20 0 -42.5 0.5t-49.5 1.5t-43 1q-30 4 -35 60q-2 18 -2 30q0 38 28 40q36 3 195 3q94 0 172 -3q7 -1 16.5 -2.5t13 -2.5t7.5 -4
t5.5 -8.5t2.5 -16.5t1 -32q0 -1 -3 -73l-239 -411q1 -3 5 -6q27 0 81.5 2t82.5 2q41 0 54.5 -6.5t16.5 -32.5q0 -2 0.5 -6.5t0.5 -6.5q0 -7 1.5 -22t1.5 -22q0 -19 -5.5 -27.5t-20.5 -8.5q-7 0 -23 2t-23 2q-8 0 -16 -2q-180 -6 -269 -6q-35 0 -45.5 10.5t-13.5 35.5z
M148 768q0 20 36.5 71.5t53.5 51.5q20 0 44 -16t24 -33q0 -20 -48 -60t-68 -40q-42 0 -42 26z" />
    <glyph glyph-name="Zdotaccent" unicode="&#x17b;" horiz-adv-x="471" 
d="M39 77q0 51 20 83q10 15 120 200q10 12 28 45.5t34.5 67.5t17.5 36q23 47 23 50q0 7 -3 7q-36 0 -107 -5t-107 -5q-27 0 -36 18.5t-9 51.5v32q0 26 12 45t35 19l342 1q14 -4 23 -17t12 -24t6 -32v-2l1 -2q0 -59 -12 -84l-129 -266q-6 -20 -23.5 -53.5t-23.5 -50.5
q-2 -4 -2 -9q0 -7 3 -7h124q34 0 45 -24.5t11 -74.5q0 -68 -48 -69l-249 -4q-5 -2 -22 -2q-55 0 -70.5 12.5t-15.5 47.5v15zM181 811q0 22 19 42.5t47 20.5q24 0 41.5 -18t17.5 -37q0 -22 -16.5 -39.5t-42.5 -17.5q-30 0 -48 13.5t-18 35.5z" />
    <glyph glyph-name="zdotaccent" unicode="&#x17c;" 
d="M46 70q0 4 -1 14.5t-1 15.5q0 14 5 23q2 3 11.5 18.5t26 42t42.5 70t71 121.5t103 179q4 6 4 10q0 2 -5 2q-18 0 -55 -1.5t-55 -1.5q-20 0 -42.5 0.5t-49.5 1.5t-43 1q-30 4 -35 60q-2 18 -2 30q0 38 28 40q36 3 195 3q94 0 172 -3q7 -1 16.5 -2.5t13 -2.5t7.5 -4
t5.5 -8.5t2.5 -16.5t1 -32q0 -1 -3 -73l-239 -411q1 -3 5 -6q27 0 81.5 2t82.5 2q41 0 54.5 -6.5t16.5 -32.5q0 -2 0.5 -6.5t0.5 -6.5q0 -7 1.5 -22t1.5 -22q0 -19 -5.5 -27.5t-20.5 -8.5q-7 0 -23 2t-23 2q-8 0 -16 -2q-180 -6 -269 -6q-35 0 -45.5 10.5t-13.5 35.5z
M187 789q0 22 19 42.5t47 20.5q24 0 41.5 -18t17.5 -37q0 -22 -16.5 -39.5t-42.5 -17.5q-30 0 -48 13.5t-18 35.5z" />
    <glyph glyph-name="Zcaron" unicode="&#x17d;" horiz-adv-x="471" 
d="M39 77q0 51 20 83q10 15 120 200q10 12 28 45.5t34.5 67.5t17.5 36q23 47 23 50q0 7 -3 7q-36 0 -107 -5t-107 -5q-27 0 -36 18.5t-9 51.5v32q0 26 12 45t35 19l342 1q14 -4 23 -17t12 -24t6 -32v-2l1 -2q0 -59 -12 -84l-129 -266q-6 -20 -23.5 -53.5t-23.5 -50.5
q-2 -4 -2 -9q0 -7 3 -7h124q34 0 45 -24.5t11 -74.5q0 -68 -48 -69l-249 -4q-5 -2 -22 -2q-55 0 -70.5 12.5t-15.5 47.5v15zM110 885q0 16 40 16q27 -1 40 -4.5t17 -6t13.5 -22t17.5 -31.5q0 -2 3 -2q8 0 22.5 30.5t32.5 35.5q4 0 12 0.5t14 0.5l7 1q47 0 47 -15
q-1 -12 -31 -60t-47 -55q-25 -10 -65 -7t-59 22q-6 8 -24.5 28t-29 36.5t-10.5 32.5z" />
    <glyph glyph-name="zcaron" unicode="&#x17e;" 
d="M46 70q0 4 -1 14.5t-1 15.5q0 14 5 23q2 3 11.5 18.5t26 42t42.5 70t71 121.5t103 179q4 6 4 10q0 2 -5 2q-18 0 -55 -1.5t-55 -1.5q-20 0 -42.5 0.5t-49.5 1.5t-43 1q-30 4 -35 60q-2 18 -2 30q0 38 28 40q36 3 195 3q94 0 172 -3q7 -1 16.5 -2.5t13 -2.5t7.5 -4
t5.5 -8.5t2.5 -16.5t1 -32q0 -1 -3 -73l-239 -411q1 -3 5 -6q27 0 81.5 2t82.5 2q41 0 54.5 -6.5t16.5 -32.5q0 -2 0.5 -6.5t0.5 -6.5q0 -7 1.5 -22t1.5 -22q0 -19 -5.5 -27.5t-20.5 -8.5q-7 0 -23 2t-23 2q-8 0 -16 -2q-180 -6 -269 -6q-35 0 -45.5 10.5t-13.5 35.5z
M116 863q0 16 40 16q27 -1 40 -4.5t17 -6t13.5 -22t17.5 -31.5q0 -2 3 -2q8 0 22.5 30.5t32.5 35.5q4 0 12 0.5t14 0.5l7 1q47 0 47 -15q-1 -12 -31 -60t-47 -55q-25 -10 -65 -7t-59 22q-6 8 -24.5 28t-29 36.5t-10.5 32.5z" />
    <glyph glyph-name="florin" unicode="&#x192;" horiz-adv-x="380" 
d="M20 74v51q0 351 18 536q6 62 32 68l8 2q68 14 91 14q12 0 45 -3t53 -3q1 0 18 -1t24.5 -2t20.5 -4.5t20 -10.5t10 -17v-19q0 -26 -1 -40t-5 -30.5t-14.5 -24t-27.5 -7.5q-21 0 -64 3t-65 3q-18 0 -18 -46q0 -9 1 -26t1 -26v-9q4 -9 12 -9l19 -2q55 -6 67.5 -17t12.5 -59
t-20 -65q-62 0 -86 -4l-7 -5l-1 -11v-24.5v-20.5q0 -52 5 -122.5t5 -90.5q0 -46 -23 -50q-42 -8 -77 -8q-33 0 -40 11.5t-14 68.5z" />
    <glyph glyph-name="AEacute" unicode="&#x1fc;" horiz-adv-x="710" 
d="M374 31q-10 5 -19.5 34.5t-9.5 37.5l-6 130q-24 -1 -63 -5t-45 -4q-15 -1 -20.5 -53t-15.5 -104t-36 -54h-10q-17 0 -50 -1.5t-51 -1.5q-28 0 -28 17v6l34 161q4 10 6.5 20.5t4 22.5t3.5 20q6 27 13.5 71.5t16.5 80.5q9 46 34 140.5t34 144.5q6 32 25.5 42.5t59.5 13.5
l56 4q7 0 74 -8q13 0 41.5 -5.5t45.5 -5.5q19 0 43.5 3.5t49.5 3.5q8 0 19.5 -0.5t14.5 -0.5q11 0 17 3q41 0 59.5 -18.5t18.5 -59.5t-11 -63t-45 -22q-12 0 -35 0.5t-34 0.5q-7 0 -34.5 -1.5t-42.5 -1.5q-8 -2 -8 -21v-6q0 -6 1 -36t1 -49q4 -11 42 -11q8 0 22 0.5t20 0.5
q12 0 20 -10t8 -22v-75q0 -11 -10.5 -21.5t-21.5 -10.5h-68q-1 0 -4.5 -3t-3.5 -4v-123q0 -4 8 -8q1 0 10.5 0.5t16.5 0.5q37 0 132 -11q34 -9 34 -77q0 -53 -25 -69.5t-75 -16.5q-143 0 -213 24zM245 364q0 -11 1 -11l3 -1q7 -1 10 -1q48 0 74 3l-8 169q0 2 -0.5 8t-0.5 10
q0 8 0.5 22t0.5 18q0 1 0.5 5t0.5 6q-5 2 -14 2q-7 0 -37 -2q-10 -4 -15 -33t-6.5 -82t-2.5 -60q0 -8 -3 -25.5t-3 -27.5zM276 804q0 20 36.5 71.5t53.5 51.5q20 0 44 -16t24 -33q0 -20 -48 -60t-68 -40q-42 0 -42 26z" />
    <glyph glyph-name="aeacute" unicode="&#x1fd;" horiz-adv-x="650" 
d="M293 44l-8 175l2 54q-72 -6 -81 -14q-3 -3 -3 -15l-8 -92q-7 -14 -7 -39q0 -1 -1.5 -33t-7.5 -55t-19 -23h-79q-8 -2 -24 -2q-21 0 -29 7.5t-8 28.5v11l21 130q2 6 2.5 14t1.5 12q1 12 10.5 58t9.5 74l29 236q0 1 1 5t1 5q1 7 2.5 26t2.5 29.5t3.5 28t6 27.5t8.5 21.5
t12.5 18.5t17.5 9q91 11 163 11q29 0 53 -3q42 -2 86 -2q50 0 103 4q22 0 49 -17.5t27 -38.5q0 -87 -32 -87q-22 0 -77.5 3.5t-78.5 3.5q-8 0 -13 -5.5t-7 -15.5t-2.5 -19.5t-0.5 -22.5t-1 -19q0 -17 2.5 -24t4.5 -9t12 -2.5t17 -1.5q5 -1 15.5 -2t15 -1.5t12.5 -2
t11.5 -3.5t9 -4.5t8 -7t5.5 -10t4 -13t1 -16.5q0 -7 -6 -41q0 -2 -1.5 -11t-2 -10.5t-2.5 -8t-4 -7.5t-5.5 -4t-8.5 -4t-12 -1q-13 0 -38.5 2.5t-37.5 2.5l-4 -2q-6 0 -6 -158v-21q0 -19 10 -19h131q45 0 57 -16.5t12 -65.5q0 -43 -13 -59t-46 -16h-167q-95 0 -99 47z
M211 484v-88q0 -7 17 -7h13q32 0 50 2l6 180q3 13 3 42q-6 14 -14 14t-25 -3.5t-26 -3.5q-14 -5 -18 -31t-3.5 -60t-2.5 -45zM228 800q0 20 36.5 71.5t53.5 51.5q20 0 44 -16t24 -33q0 -20 -48 -60t-68 -40q-42 0 -42 26z" />
    <glyph glyph-name="Oslashacute" unicode="&#x1fe;" horiz-adv-x="517" 
d="M20 326v23q0 23 7 100q0 5 2 32.5t3 36.5l3.5 31.5t6 35.5t9 30.5t12.5 32.5q0 2 4 6q67 73 125 77h54l16 4l4 1h10.5h8.5q132 0 190 -75q22 -38 22 -120q0 -42 -1 -62l-11 -239q-8 -146 -74 -208q-88 -37 -170 -37q-47 0 -99 12t-75 40q0 1 -4 5q-7 12 -11.5 22t-8 20
t-5.5 15.5t-3.5 16t-2 14.5t-1.5 17.5t-2 19.5q-9 75 -9 149zM367 507q0 2 -1 10t-1.5 20.5t-1.5 20.5q-53 -236 -91 -417h13q37 0 58.5 21.5t21.5 79.5v38q0 38 1 113t1 114zM156 331v-53q0 -47 10 -81q26 135 86 407q-18 -4 -44 -11q-44 -17 -47 -108q-5 -102 -5 -154z
M151 778q0 20 36.5 71.5t53.5 51.5q20 0 44 -16t24 -33q0 -20 -48 -60t-68 -40q-42 0 -42 26z" />
    <glyph glyph-name="oslashacute" unicode="&#x1ff;" horiz-adv-x="515" 
d="M267 13q-83 0 -140.5 50t-82 122.5t-24.5 158.5q0 51 7 100t25.5 99t46 87.5t72.5 61t101 23.5q50 0 89.5 -22t63 -57.5t41 -80.5t22 -91.5t6.5 -91t-5 -77.5q-2 -43 -16.5 -89.5t-40.5 -91t-69.5 -73t-95.5 -28.5zM252 600q-54 -6 -87 -77t-32 -163t35 -156q0 1 0.5 3.5
t0.5 3.5q32 159 83 389zM285 128q39 0 64.5 69.5t24.5 155t-24 160.5q-39 -169 -84 -384q6 -1 19 -1zM146 748q0 20 36.5 71.5t53.5 51.5q20 0 44 -16t24 -33q0 -20 -48 -60t-68 -40q-42 0 -42 26z" />
    <glyph glyph-name="Scommaaccent" unicode="&#x218;" horiz-adv-x="437" 
d="M20 179q0 18 30.5 30.5t61.5 12.5q8 0 12.5 -8t8 -23.5t4.5 -19.5q0 -16 20 -46.5t42 -30.5q45 0 70.5 25t25.5 66q0 32 -14.5 60t-38 49.5t-51.5 42.5t-56 43t-51.5 46t-38 56t-14.5 69q0 73 55 117.5t123 44.5q160 0 207 -140q1 -2 1 -7t-3.5 -8.5t-12 -8t-11.5 -6.5
q-2 -2 -17 -14t-27.5 -20t-20.5 -8q-7 0 -9 7q-13 35 -34 49.5t-58 14.5q-24 0 -42.5 -10t-18.5 -33q0 -15 19.5 -32.5t48 -36t70.5 -58t76 -87.5q37 -51 37 -133q0 -101 -96 -161q-42 -27 -135 -27q-99 0 -134 78q-29 68 -29 107zM178 -173q0 5 15.5 15t15.5 18q0 1 -11 5
t-22.5 13.5t-11.5 22.5q0 14 14.5 33.5t32.5 19.5q25 0 43 -15t18 -40q0 -16 -14 -37t-47 -38q-4 -2 -17 -2q-16 0 -16 5z" />
    <glyph glyph-name="scommaaccent" unicode="&#x219;" horiz-adv-x="410" 
d="M22 182q0 22 36 37t51 15h23q7 0 12.5 -14t9.5 -31.5t16.5 -31.5t32.5 -14q61 0 65 49q0 29 -17 56.5t-40 48t-65 58.5t-74 73q-52 44 -52 105q0 78 55 122t131 44q61 0 112.5 -29.5t70.5 -83.5l1 -1v-2q0 -4 -7 -18q-2 -3 -10 -13t-14.5 -18t-14 -17t-14.5 -14t-11 -5
h-1l-2 1q-16 8 -37.5 29t-42 34.5t-44.5 13.5q-38 0 -38 -32q0 -23 19 -47q25 -25 68.5 -59t71.5 -57t50 -62.5t22 -86.5q0 -94 -41 -152t-132 -58q-128 0 -173 100q-17 36 -17 60zM165 -173q0 5 15.5 15t15.5 18q0 1 -11 5t-22.5 13.5t-11.5 22.5q0 14 14.5 33.5t32.5 19.5
q25 0 43 -15t18 -40q0 -16 -14 -37t-47 -38q-4 -2 -17 -2q-16 0 -16 5z" />
    <glyph glyph-name="dotlessj" unicode="&#x237;" horiz-adv-x="404" 
d="M22 198q-4 41 14 49q85 10 89 10q18 0 24.5 -28.5t13.5 -59.5t26 -36q53 0 57 28l4 36q-6 277 -14 440v8q-4 53 2 65.5t35 12.5h34q40 0 52 -17.5t18 -91.5q11 -162 6 -294q-1 -39 -1.5 -55.5t-2.5 -51t-5 -50.5t-9 -43.5t-14 -41t-20 -31t-27.5 -26t-36.5 -14.5t-47 -6
q-17 0 -82 10q-50 8 -81.5 72t-34.5 115z" />
    <glyph glyph-name="circumflex" unicode="&#x2c6;" horiz-adv-x="307" 
d="M21 757q0 16 10.5 32.5t29 36.5t24.5 28q19 19 59 22t65 -7q26 -10 60 -89q2 -3 7 -8t8 -9t3 -9q0 -15 -47 -15l-6 1q-7 0 -15 0.5t-12 0.5q-18 5 -32.5 35.5t-22.5 30.5q-3 0 -3 -2q-8 -12 -15.5 -27t-10 -19t-10.5 -9.5t-19 -6.5t-33 -2q-1 0 -3.5 0.5t-3.5 0.5
q-33 4 -33 15z" />
    <glyph glyph-name="caron" unicode="&#x2c7;" horiz-adv-x="307" 
d="M21 859q0 16 40 16q27 -1 40 -4.5t17 -6t13.5 -22t17.5 -31.5q0 -2 3 -2q8 0 22.5 30.5t32.5 35.5q4 0 12 0.5t15 0.5l6 1q47 0 47 -15q-1 -12 -31 -60t-47 -55q-25 -10 -65 -7t-59 22q-6 8 -24.5 28t-29 36.5t-10.5 32.5z" />
    <glyph glyph-name="breve" unicode="&#x2d8;" horiz-adv-x="263" 
d="M199 758q-37 -14 -77 -15t-71 19.5t-31 56.5q0 28 15.5 38.5t51.5 10.5q34 0 34 -23q0 -4 -1.5 -12t-1.5 -11q0 -11 11 -11q8 0 12 5t7.5 18t3.5 14q5 18 50 18q18 0 29.5 -8.5t11.5 -21.5q0 -21 -12 -44t-32 -34z" />
    <glyph glyph-name="dotaccent" unicode="&#x2d9;" horiz-adv-x="165" 
d="M20 787q0 22 19 42.5t47 20.5q24 0 41.5 -18t17.5 -37q0 -22 -16.5 -39.5t-42.5 -17.5q-30 0 -48 13.5t-18 35.5z" />
    <glyph glyph-name="ring" unicode="&#x2da;" horiz-adv-x="215" 
d="M20 822q0 37 26.5 70t62.5 33q35 0 60.5 -24t25.5 -59q0 -45 -22 -73t-64 -28q-35 0 -62 21t-27 60zM112 866q-13 0 -19.5 -13t-0.5 -25.5t25 -12.5q9 0 13.5 3.5t5.5 8t1 12.5q0 10 -7 18.5t-18 8.5z" />
    <glyph glyph-name="ogonek" unicode="&#x2db;" horiz-adv-x="215" 
d="M21 -112q0 2 -0.5 10t-0.5 9q0 73 44 122q4 6 10 6q14 0 36 -5.5t22 -15.5q0 -15 -18 -43t-18 -46q0 -22 15 -22q10 0 25 12.5t26 12.5q12 0 22.5 -18t10.5 -29q0 -23 -26.5 -42t-51.5 -19q-35 0 -62 18t-34 50z" />
    <glyph glyph-name="tilde" unicode="&#x2dc;" horiz-adv-x="325" 
d="M135 781q-2 2 -6 2q-9 0 -22.5 -16t-27.5 -16q-13 0 -36 7.5t-23 18.5q0 27 29 54t60 27q25 0 53 -19t40 -19q16 0 24.5 15.5t18.5 15.5q14 0 37 -8.5t23 -19.5q0 -6 -2 -9q-9 -18 -14 -27t-15 -21.5t-23 -18t-30 -5.5q-47 0 -86 39z" />
    <glyph glyph-name="hungarumlaut" unicode="&#x2dd;" horiz-adv-x="305" 
d="M22 749q-6 19 13.5 79t35.5 65q19 6 47 -2.5t33 -24.5q6 -19 -28 -71.5t-53 -58.5q-41 -10 -48 13zM155 745q-6 19 13.5 79t35.5 65q19 6 47 -2.5t33 -24.5q6 -19 -28 -71.5t-53 -58.5q-41 -10 -48 13z" />
    <glyph glyph-name="Wgrave" unicode="&#x1e80;" horiz-adv-x="790" 
d="M103 235v18l-51 267l-5 16q-3 22 -15 77t-12 76q0 13 12 22q15 0 44.5 2.5t43.5 2.5q33 0 42 -32q7 -27 13.5 -78.5t10.5 -71.5q16 -80 33 -224q1 -5 2.5 -22t4.5 -30t9 -17q5 5 5 12l32 133q0 1 4.5 17t11 23.5t17.5 7.5h84q56 0 62 -19q1 -3 16 -53t29.5 -97.5
t16.5 -48.5q3 3 5 8t3.5 13.5t2.5 13.5q6 25 29.5 143.5t42.5 178.5l22 106q3 23 13 30.5t52 7.5q87 0 87 -31q0 -24 -8.5 -54t-22 -68.5t-18.5 -58.5q-4 -15 -33.5 -137.5t-48.5 -190.5q-1 -5 -16.5 -57.5t-22.5 -79.5q-7 -28 -55 -28q-14 0 -41.5 2t-42.5 2h-8
q-2 1 -12.5 4t-18 7t-10.5 9q-15 27 -32 89t-25 84l-6 7q-8 0 -15 -35q0 -1 -1 -8t-1 -8l-25 -114q-4 -20 -17.5 -29.5t-26 -11t-37.5 -1.5h-5q-20 0 -47.5 8.5t-30.5 24.5zM436 724q0 -26 -42 -26q-20 0 -68 40t-48 60q0 17 24 33t44 16q17 0 53.5 -51.5t36.5 -71.5z" />
    <glyph glyph-name="wgrave" unicode="&#x1e81;" horiz-adv-x="675" 
d="M457 3h-69q-12 0 -20 4t-13.5 12.5t-8 15.5t-6.5 20.5t-6 20.5q-2 6 -8 37t-12 56t-9 25q-5 0 -5 -10l-15 -77q-2 -9 -6 -24t-6 -21.5t-6.5 -17t-9.5 -14.5t-13.5 -10.5t-20 -8.5t-28 -4t-38.5 -2q-15 0 -26.5 9.5t-13.5 23.5l-54 296q-5 52 -21.5 161t-21.5 167
q0 38 76 38q37 0 47 -5.5t13 -28.5l60 -417q2 0 9 29.5t13 58.5l6 29q8 47 98 47q22 0 35 -18t16 -37t5.5 -49t3.5 -38q19 -97 26 -97q3 3 5 9t3.5 14t1.5 10q46 167 71 359q2 12 3.5 33.5t3 32.5t6 26.5t12.5 23t22 13t35 5.5q3 0 11.5 0.5t13.5 0.5q39 0 39 -21l-127 -615
q0 -12 -18.5 -38.5t-38.5 -26.5q-4 0 -14 3zM386 720q0 -26 -42 -26q-20 0 -68 40t-48 60q0 17 24 33t44 16q17 0 53.5 -51.5t36.5 -71.5z" />
    <glyph glyph-name="Wacute" unicode="&#x1e82;" horiz-adv-x="790" 
d="M103 235v18l-51 267l-5 16q-3 22 -15 77t-12 76q0 13 12 22q15 0 44.5 2.5t43.5 2.5q33 0 42 -32q7 -27 13.5 -78.5t10.5 -71.5q16 -80 33 -224q1 -5 2.5 -22t4.5 -30t9 -17q5 5 5 12l32 133q0 1 4.5 17t11 23.5t17.5 7.5h84q56 0 62 -19q1 -3 16 -53t29.5 -97.5
t16.5 -48.5q3 3 5 8t3.5 13.5t2.5 13.5q6 25 29.5 143.5t42.5 178.5l22 106q3 23 13 30.5t52 7.5q87 0 87 -31q0 -24 -8.5 -54t-22 -68.5t-18.5 -58.5q-4 -15 -33.5 -137.5t-48.5 -190.5q-1 -5 -16.5 -57.5t-22.5 -79.5q-7 -28 -55 -28q-14 0 -41.5 2t-42.5 2h-8
q-2 1 -12.5 4t-18 7t-10.5 9q-15 27 -32 89t-25 84l-6 7q-8 0 -15 -35q0 -1 -1 -8t-1 -8l-25 -114q-4 -20 -17.5 -29.5t-26 -11t-37.5 -1.5h-5q-20 0 -47.5 8.5t-30.5 24.5zM278 724q0 20 36.5 71.5t53.5 51.5q20 0 44 -16t24 -33q0 -20 -48 -60t-68 -40q-42 0 -42 26z" />
    <glyph glyph-name="wacute" unicode="&#x1e83;" horiz-adv-x="675" 
d="M457 3h-69q-12 0 -20 4t-13.5 12.5t-8 15.5t-6.5 20.5t-6 20.5q-2 6 -8 37t-12 56t-9 25q-5 0 -5 -10l-15 -77q-2 -9 -6 -24t-6 -21.5t-6.5 -17t-9.5 -14.5t-13.5 -10.5t-20 -8.5t-28 -4t-38.5 -2q-15 0 -26.5 9.5t-13.5 23.5l-54 296q-5 52 -21.5 161t-21.5 167
q0 38 76 38q37 0 47 -5.5t13 -28.5l60 -417q2 0 9 29.5t13 58.5l6 29q8 47 98 47q22 0 35 -18t16 -37t5.5 -49t3.5 -38q19 -97 26 -97q3 3 5 9t3.5 14t1.5 10q46 167 71 359q2 12 3.5 33.5t3 32.5t6 26.5t12.5 23t22 13t35 5.5q3 0 11.5 0.5t13.5 0.5q39 0 39 -21l-127 -615
q0 -12 -18.5 -38.5t-38.5 -26.5q-4 0 -14 3zM228 720q0 20 36.5 71.5t53.5 51.5q20 0 44 -16t24 -33q0 -20 -48 -60t-68 -40q-42 0 -42 26z" />
    <glyph glyph-name="Wdieresis" unicode="&#x1e84;" horiz-adv-x="790" 
d="M103 235v18l-51 267l-5 16q-3 22 -15 77t-12 76q0 13 12 22q15 0 44.5 2.5t43.5 2.5q33 0 42 -32q7 -27 13.5 -78.5t10.5 -71.5q16 -80 33 -224q1 -5 2.5 -22t4.5 -30t9 -17q5 5 5 12l32 133q0 1 4.5 17t11 23.5t17.5 7.5h84q56 0 62 -19q1 -3 16 -53t29.5 -97.5
t16.5 -48.5q3 3 5 8t3.5 13.5t2.5 13.5q6 25 29.5 143.5t42.5 178.5l22 106q3 23 13 30.5t52 7.5q87 0 87 -31q0 -24 -8.5 -54t-22 -68.5t-18.5 -58.5q-4 -15 -33.5 -137.5t-48.5 -190.5q-1 -5 -16.5 -57.5t-22.5 -79.5q-7 -28 -55 -28q-14 0 -41.5 2t-42.5 2h-8
q-2 1 -12.5 4t-18 7t-10.5 9q-15 27 -32 89t-25 84l-6 7q-8 0 -15 -35q0 -1 -1 -8t-1 -8l-25 -114q-4 -20 -17.5 -29.5t-26 -11t-37.5 -1.5h-5q-20 0 -47.5 8.5t-30.5 24.5zM232 755q0 19 16 32t36 13q22 0 39 -17t17 -38q0 -18 -16.5 -33.5t-33.5 -15.5q-21 0 -39.5 19
t-18.5 40zM396 765q0 24 18 37.5t43 13.5q29 -2 41.5 -30t-1 -55t-46.5 -27q-22 0 -38.5 20t-16.5 41z" />
    <glyph glyph-name="wdieresis" unicode="&#x1e85;" horiz-adv-x="675" 
d="M457 3h-69q-12 0 -20 4t-13.5 12.5t-8 15.5t-6.5 20.5t-6 20.5q-2 6 -8 37t-12 56t-9 25q-5 0 -5 -10l-15 -77q-2 -9 -6 -24t-6 -21.5t-6.5 -17t-9.5 -14.5t-13.5 -10.5t-20 -8.5t-28 -4t-38.5 -2q-15 0 -26.5 9.5t-13.5 23.5l-54 296q-5 52 -21.5 161t-21.5 167
q0 38 76 38q37 0 47 -5.5t13 -28.5l60 -417q2 0 9 29.5t13 58.5l6 29q8 47 98 47q22 0 35 -18t16 -37t5.5 -49t3.5 -38q19 -97 26 -97q3 3 5 9t3.5 14t1.5 10q46 167 71 359q2 12 3.5 33.5t3 32.5t6 26.5t12.5 23t22 13t35 5.5q3 0 11.5 0.5t13.5 0.5q39 0 39 -21l-127 -615
q0 -12 -18.5 -38.5t-38.5 -26.5q-4 0 -14 3zM182 751q0 19 16 32t36 13q22 0 39 -17t17 -38q0 -18 -16.5 -33.5t-33.5 -15.5q-21 0 -39.5 19t-18.5 40zM346 761q0 24 18 37.5t43 13.5q29 -2 41.5 -30t-1 -55t-46.5 -27q-22 0 -38.5 20t-16.5 41z" />
    <glyph glyph-name="Ygrave" unicode="&#x1ef2;" horiz-adv-x="576" 
d="M214 212l-14 149q-1 13 -7.5 26t-18 29.5t-15.5 22.5q-14 24 -30 53t-34.5 64t-28.5 54q-5 9 -18.5 26.5t-20.5 32t-7 30.5q0 34 57 34h57q12 0 28 -18.5t16 -29.5l22.5 -40.5t24.5 -48.5q1 -2 8 -20t13 -32t13.5 -31t13.5 -26.5t9 -9.5t7 5t9 14t9 17t8.5 16.5t5.5 11.5
q55 107 59 116q17 51 33 64.5t50 13.5h18q75 0 75 -27l-1 -4q-1 -3 -1 -4q-9 -17 -25 -44t-23 -40l-34 -65q-3 -5 -11.5 -16t-11.5 -17q-49 -86 -94 -159v-326q0 -38 -54 -38l-9 -1h-16q-62 0 -62 27v191zM342 778q0 -26 -42 -26q-20 0 -68 40t-48 60q0 17 24 33t44 16
q17 0 53.5 -51.5t36.5 -71.5z" />
    <glyph glyph-name="ygrave" unicode="&#x1ef3;" horiz-adv-x="505" 
d="M32 137q0 15 42 30t75 15q10 0 14 -13.5t6 -30t20 -30t52 -13.5q11 0 23 8q52 30 76.5 85.5t19.5 100.5q-1 1 -2.5 4t-2.5 4t-2.5 3.5t-3 2t-3.5 -0.5q-21 -9 -71 -14.5t-108.5 -2.5t-102.5 32.5t-44 84.5v93l17 187q1 8 15.5 12.5t24.5 4.5h66q13 0 20.5 -9.5t7.5 -21.5
q0 -13 -3 -36t-4 -30q-8 -80 -8 -132v-27q0 -35 13 -48t61 -13q43 0 69 12t36 45q0 78 -14 195q0 4 -1 10t-2 10l-1 5q0 23 42.5 32t78.5 9q45 0 45 -190q0 -17 1 -57.5t1 -62.5q0 -77 -8 -134t-40 -121t-89 -102q-63 -43 -118 -43q-137 0 -179 93q-3 4 -8.5 24t-10.5 30z
M304 748q0 -26 -42 -26q-20 0 -68 40t-48 60q0 17 24 33t44 16q17 0 53.5 -51.5t36.5 -71.5z" />
    <glyph glyph-name="figuredash" unicode="&#x2012;" horiz-adv-x="574" 
d="M21 351v7q0 20 4 30t17 14q158 8 418 6q31 0 73 -3q21 -7 21 -49v-23q0 -15 -10 -22.5t-21.5 -8.5t-28 -1t-22.5 -1h-415q-13 0 -21 3.5t-11 12.5t-3.5 15t-0.5 20z" />
    <glyph glyph-name="endash" unicode="&#x2013;" horiz-adv-x="492" 
d="M21 351v7q0 20 4 30t17 14q130 7 336 5q31 0 73 -3q21 -7 21 -49v-23q0 -15 -10 -22.5t-21.5 -8.5t-28 -1t-22.5 -1l-333 1q-13 0 -21 3.5t-11 12.5t-3.5 15t-0.5 20z" />
    <glyph glyph-name="emdash" unicode="&#x2014;" horiz-adv-x="574" 
d="M21 351v7q0 20 4 30t17 14q158 8 418 6q31 0 73 -3q21 -7 21 -49v-23q0 -15 -10 -22.5t-21.5 -8.5t-28 -1t-22.5 -1h-415q-13 0 -21 3.5t-11 12.5t-3.5 15t-0.5 20z" />
    <glyph glyph-name="quoteleft" unicode="&#x2018;" horiz-adv-x="141" 
d="M121 524q0 -24 -3 -40t-16.5 -29t-37.5 -13q-44 0 -44 72q0 43 16.5 116.5t43.5 73.5q30 0 34 -42z" />
    <glyph glyph-name="quoteright" unicode="&#x2019;" horiz-adv-x="141" 
d="M20 622q0 24 3 40t16.5 29t37.5 13q44 0 44 -72q0 -43 -16.5 -116.5t-43.5 -73.5q-30 0 -34 42z" />
    <glyph glyph-name="quotesinglbase" unicode="&#x201a;" horiz-adv-x="141" 
d="M20 136q0 24 3 40t16.5 29t37.5 13q44 0 44 -72q0 -43 -16.5 -116.5t-43.5 -73.5q-30 0 -34 42z" />
    <glyph glyph-name="quotedblleft" unicode="&#x201c;" horiz-adv-x="286" 
d="M266 528q0 -38 -11 -60t-46 -22q-44 0 -44 72q0 43 16.5 116.5t43.5 73.5q30 0 34 -42zM121 524q0 -24 -3 -40t-16.5 -29t-37.5 -13q-44 0 -44 72q0 43 16.5 116.5t43.5 73.5q30 0 34 -42z" />
    <glyph glyph-name="quotedblright" unicode="&#x201d;" horiz-adv-x="286" 
d="M20 622q0 24 3 40t16.5 29t37.5 13q44 0 44 -72q0 -43 -16.5 -116.5t-43.5 -73.5q-30 0 -34 42zM165 626q0 24 3 40t16.5 29t37.5 13q44 0 44 -72q0 -43 -16.5 -116.5t-43.5 -73.5q-30 0 -34 42z" />
    <glyph glyph-name="quotedblbase" unicode="&#x201e;" horiz-adv-x="286" 
d="M20 112q0 24 3 40t16.5 29t37.5 13q44 0 44 -72q0 -43 -16.5 -116.5t-43.5 -73.5q-30 0 -34 42zM165 116q0 24 3 40t16.5 29t37.5 13q44 0 44 -72q0 -43 -16.5 -116.5t-43.5 -73.5q-30 0 -34 42z" />
    <glyph glyph-name="dagger" unicode="&#x2020;" horiz-adv-x="281" 
d="M21 567q0 34 13 43t42 9l2 89q6 9 32 9q2 0 14.5 -1t17 -1.5t15.5 -2.5t16 -5t11.5 -7.5t9 -11.5t2.5 -16l-1 -51h31q35 -7 35 -67q0 -21 -33 -24q-25 -4 -34 -5l-4 -458q0 -62 -24 -62h-64q-28 0 -34 22v28q0 52 6 458h-22q-11 0 -18 4t-9.5 14t-3 16t-0.5 20z" />
    </font>
</defs>
</svg>
