<?xml version="1.0" standalone="no"?>
<!DOCTYPE svg PUBLIC "-//W3C//DTD SVG 1.1//EN" "http://www.w3.org/Graphics/SVG/1.1/DTD/svg11.dtd" >
<svg xmlns="http://www.w3.org/2000/svg" xmlns:xlink="http://www.w3.org/1999/xlink" version="1.1">
<metadata>
Created by FontForge 20170731 at Tue Jun  5 18:41:49 2018
 By Aleksey,,,
(c) 2015-2017 Apple Inc. All rights reserved.
</metadata>
<defs>
<font id="SFCompactText-Medium" horiz-adv-x="1800" >
  <font-face 
    font-family="SF Compact Text"
    font-weight="500"
    font-stretch="normal"
    units-per-em="2048"
    panose-1="2 1 6 4 3 2 2 6 2 4"
    ascent="1638"
    descent="-410"
    x-height="1058"
    cap-height="1365"
    bbox="-517 -494 2467 2098"
    underline-thickness="86"
    underline-position="-350"
    unicode-range="U+0020-1F189"
  />
<missing-glyph horiz-adv-x="2048" 
d="M100 -494v244h1848v-244h-1848zM100 -54v244h1848v-244h-1848zM100 386v244h1848v-244h-1848zM100 826v244h1848v-244h-1848zM100 1266v244h1848v-244h-1848zM100 1706v244h1848v-244h-1848z" />
    <glyph glyph-name="uni2460" unicode="&#x31;&#x25cb;" 
d="M1008 365h-157v506h-8l-152 -103v142l160 108h157v-653zM900 91q120 0 229 46.5t188 126t125 189.5t46 231t-46 231t-125 189.5t-188 126t-229 46.5t-229 -46.5t-188 -126t-125 -189.5t-46 -231t46 -231t125 -189.5t188 -126t229 -46.5zM900 -50q-200 0 -369 98t-267 267
t-98 369t98 369t267 267t369 98t369 -98t267 -267t98 -369t-98 -369t-267 -267t-369 -98z" />
    <glyph glyph-name="uni2461" unicode="&#x32;&#x25cb;" 
d="M805 813h-147v4q0 91 64.5 152t178.5 61q107 0 173 -53t66 -136q0 -55 -30 -99.5t-92 -105.5l-137 -137v-7h270v-127h-485v99l244 240q25 25 38.5 40.5t25 38t11.5 44.5q0 34 -25 55.5t-64 21.5q-42 0 -66.5 -25t-24.5 -62v-4zM900 91q120 0 229 46.5t188 126t125 189.5
t46 231t-46 231t-125 189.5t-188 126t-229 46.5t-229 -46.5t-188 -126t-125 -189.5t-46 -231t46 -231t125 -189.5t188 -126t229 -46.5zM900 -50q-200 0 -369 98t-267 267t-98 369t98 369t267 267t369 98t369 -98t267 -267t98 -369t-98 -369t-267 -267t-369 -98z" />
    <glyph glyph-name="uni2462" unicode="&#x33;&#x25cb;" 
d="M827 639v119h69q42 0 68.5 22.5t26.5 57.5q-1 33 -27 53.5t-68 20.5t-69 -22.5t-29 -54.5h-145q2 88 66.5 141t179.5 54q110 -1 176 -49t67 -124q1 -58 -39 -98t-86 -47v-8q55 -5 99.5 -46t45.5 -109q1 -90 -74 -143t-192 -53q-115 0 -183.5 55t-70.5 141h144
q3 -33 33.5 -54t76.5 -22q50 0 81 23.5t31 59.5q-1 38 -30.5 60.5t-78.5 22.5h-72zM900 91q120 0 229 46.5t188 126t125 189.5t46 231t-46 231t-125 189.5t-188 126t-229 46.5t-229 -46.5t-188 -126t-125 -189.5t-46 -231t46 -231t125 -189.5t188 -126t229 -46.5zM900 -50
q-200 0 -369 98t-267 267t-98 369t98 369t267 267t369 98t369 -98t267 -267t98 -369t-98 -369t-267 -267t-369 -98z" />
    <glyph glyph-name="uni2463" unicode="&#x34;&#x25cb;" 
d="M850 1018h218v-416h88v-123h-88v-114h-137v114h-330v124q27 50 62.5 110.5t53.5 90.5t71 115t62 99zM741 602h190v301h-10q-127 -201 -180 -299v-2zM900 91q120 0 229 46.5t188 126t125 189.5t46 231t-46 231t-125 189.5t-188 126t-229 46.5t-229 -46.5t-188 -126
t-125 -189.5t-46 -231t46 -231t125 -189.5t188 -126t229 -46.5zM900 -50q-200 0 -369 98t-267 267t-98 369t98 369t267 267t369 98t369 -98t267 -267t98 -369t-98 -369t-267 -267t-369 -98z" />
    <glyph glyph-name="uni2464" unicode="&#x35;&#x25cb;" 
d="M657 547h145q6 -33 36.5 -51.5t70.5 -18.5q45 0 78 30t33 79q0 45 -32.5 74t-78.5 29q-71 0 -101 -53h-138l28 385h433v-120h-312l-13 -158h7q14 23 51.5 41t88.5 18q94 0 156 -57t62 -154q0 -106 -72.5 -170.5t-191.5 -64.5q-109 0 -178.5 54t-71.5 137zM900 91
q120 0 229 46.5t188 126t125 189.5t46 231t-46 231t-125 189.5t-188 126t-229 46.5t-229 -46.5t-188 -126t-125 -189.5t-46 -231t46 -231t125 -189.5t188 -126t229 -46.5zM900 -50q-200 0 -369 98t-267 267t-98 369t98 369t267 267t369 98t369 -98t267 -267t98 -369
t-98 -369t-267 -267t-369 -98z" />
    <glyph glyph-name="uni2465" unicode="&#x36;&#x25cb;" 
d="M1159 588q0 -106 -70.5 -170.5t-186.5 -64.5q-118 0 -189.5 67t-71.5 177q0 115 95 248q27 45 130 173h180q-18 -18 -88.5 -106t-88.5 -114q-15 -22 -24 -38l10 -1q38 38 105 38q86 0 142.5 -59.5t56.5 -149.5zM789 582q0 -46 32 -76.5t79 -30.5q48 0 79.5 30.5
t31.5 76.5t-31.5 76.5t-79.5 30.5q-47 0 -79 -30.5t-32 -76.5zM900 91q120 0 229 46.5t188 126t125 189.5t46 231t-46 231t-125 189.5t-188 126t-229 46.5t-229 -46.5t-188 -126t-125 -189.5t-46 -231t46 -231t125 -189.5t188 -126t229 -46.5zM900 -50q-200 0 -369 98
t-267 267t-98 369t98 369t267 267t369 98t369 -98t267 -267t98 -369t-98 -369t-267 -267t-369 -98z" />
    <glyph glyph-name="uni2466" unicode="&#x37;&#x25cb;" 
d="M669 1011h488v-129l-268 -524h-166l276 520v6h-330v127zM900 91q120 0 229 46.5t188 126t125 189.5t46 231t-46 231t-125 189.5t-188 126t-229 46.5t-229 -46.5t-188 -126t-125 -189.5t-46 -231t46 -231t125 -189.5t188 -126t229 -46.5zM900 -50q-200 0 -369 98t-267 267
t-98 369t98 369t267 267t369 98t369 -98t267 -267t98 -369t-98 -369t-267 -267t-369 -98z" />
    <glyph glyph-name="uni2467" unicode="&#x38;&#x25cb;" 
d="M900 463q50 0 83 26.5t33 68.5t-32.5 69t-83.5 27t-83.5 -27.5t-32.5 -68.5q0 -42 32.5 -68.5t83.5 -26.5zM900 756q42 0 69 23t27 59q0 35 -27 58t-69 23t-69 -23t-27 -58q0 -36 27 -59t69 -23zM899 353q-124 0 -198.5 53t-74.5 141q0 61 39.5 104.5t105.5 54.5v7
q-118 34 -118 142q0 78 68.5 126.5t178.5 48.5t178.5 -48.5t68.5 -126.5q0 -52 -31 -89t-87 -53v-7q66 -11 105.5 -54.5t39.5 -104.5q0 -88 -75.5 -141t-199.5 -53zM900 91q120 0 229 46.5t188 126t125 189.5t46 231t-46 231t-125 189.5t-188 126t-229 46.5t-229 -46.5
t-188 -126t-125 -189.5t-46 -231t46 -231t125 -189.5t188 -126t229 -46.5zM900 -50q-200 0 -369 98t-267 267t-98 369t98 369t267 267t369 98t369 -98t267 -267t98 -369t-98 -369t-267 -267t-369 -98z" />
    <glyph glyph-name="uni2468" unicode="&#x39;&#x25cb;" 
d="M643 795q0 106 70.5 170.5t185.5 64.5q118 0 190 -67t72 -177q0 -109 -90 -240q-14 -25 -135 -182h-180q20 22 91 110.5t87 113.5q20 30 22 34l-9 2q-38 -38 -106 -38q-86 0 -142 59.5t-56 149.5zM1012 800q0 46 -31.5 76.5t-79.5 30.5q-47 0 -79 -30.5t-32 -76.5t32 -76
t79 -30q48 0 79.5 30t31.5 76zM900 91q120 0 229 46.5t188 126t125 189.5t46 231t-46 231t-125 189.5t-188 126t-229 46.5t-229 -46.5t-188 -126t-125 -189.5t-46 -231t46 -231t125 -189.5t188 -126t229 -46.5zM900 -50q-200 0 -369 98t-267 267t-98 369t98 369t267 267
t369 98t369 -98t267 -267t98 -369t-98 -369t-267 -267t-369 -98z" />
    <glyph glyph-name="uni24B6" unicode="A&#x25cb;" 
d="M817 652h166l-77 246h-12zM741 388h-157l223 653h186l223 -653h-157l-47 148h-224zM900 91q120 0 229 46.5t188 126t125 189.5t46 231t-46 231t-125 189.5t-188 126t-229 46.5t-229 -46.5t-188 -126t-125 -189.5t-46 -231t46 -231t125 -189.5t188 -126t229 -46.5z
M900 -50q-200 0 -369 98t-267 267t-98 369t98 369t267 267t369 98t369 -98t267 -267t98 -369t-98 -369t-267 -267t-369 -98z" />
    <glyph glyph-name="uni24B7" unicode="B&#x25cb;" 
d="M662 365v653h302q93 0 147 -43t54 -118q0 -56 -32.5 -93.5t-87.5 -48.5v-7q69 -8 111.5 -50t42.5 -111q0 -83 -65 -132.5t-168 -49.5h-304zM812 909v-159h84q121 0 121 81q0 37 -25.5 57.5t-69.5 20.5h-110zM812 653v-176h93q137 0 137 86q0 42 -29 66t-83 24h-118z
M900 91q120 0 229 46.5t188 126t125 189.5t46 231t-46 231t-125 189.5t-188 126t-229 46.5t-229 -46.5t-188 -126t-125 -189.5t-46 -231t46 -231t125 -189.5t188 -126t229 -46.5zM900 -50q-200 0 -369 98t-267 267t-98 369t98 369t267 267t369 98t369 -98t267 -267t98 -369
t-98 -369t-267 -267t-369 -98z" />
    <glyph glyph-name="uni24B8" unicode="C&#x25cb;" 
d="M780 726v-72q0 -80 35 -124t99 -44q55 0 88.5 31t33.5 82h152v-14q0 -102 -77.5 -167t-198.5 -65q-139 0 -215 79.5t-76 221.5v73q0 142 76.5 222.5t214.5 80.5q120 0 198 -66.5t78 -171.5v-14h-152q0 53 -33.5 86t-88.5 33q-63 0 -98.5 -45t-35.5 -126zM900 91
q120 0 229 46.5t188 126t125 189.5t46 231t-46 231t-125 189.5t-188 126t-229 46.5t-229 -46.5t-188 -126t-125 -189.5t-46 -231t46 -231t125 -189.5t188 -126t229 -46.5zM900 -50q-200 0 -369 98t-267 267t-98 369t98 369t267 267t369 98t369 -98t267 -267t98 -369
t-98 -369t-267 -267t-369 -98z" />
    <glyph glyph-name="uni24B9" unicode="D&#x25cb;" 
d="M659 1018h263q151 0 228 -84t77 -242t-77 -242.5t-228 -84.5h-263v653zM812 893v-403h87q87 0 127.5 49t40.5 152t-41 152.5t-127 49.5h-87zM900 91q120 0 229 46.5t188 126t125 189.5t46 231t-46 231t-125 189.5t-188 126t-229 46.5t-229 -46.5t-188 -126t-125 -189.5
t-46 -231t46 -231t125 -189.5t188 -126t229 -46.5zM900 -50q-200 0 -369 98t-267 267t-98 369t98 369t267 267t369 98t369 -98t267 -267t98 -369t-98 -369t-267 -267t-369 -98z" />
    <glyph glyph-name="uni24BA" unicode="E&#x25cb;" 
d="M1133 489v-124h-450v653h450v-124h-299v-144h281v-111h-281v-150h299zM900 91q120 0 229 46.5t188 126t125 189.5t46 231t-46 231t-125 189.5t-188 126t-229 46.5t-229 -46.5t-188 -126t-125 -189.5t-46 -231t46 -231t125 -189.5t188 -126t229 -46.5zM900 -50
q-200 0 -369 98t-267 267t-98 369t98 369t267 267t369 98t369 -98t267 -267t98 -369t-98 -369t-267 -267t-369 -98z" />
    <glyph glyph-name="uni24BB" unicode="F&#x25cb;" 
d="M862 365h-156v653h448v-126h-292v-155h266v-124h-266v-248zM900 91q120 0 229 46.5t188 126t125 189.5t46 231t-46 231t-125 189.5t-188 126t-229 46.5t-229 -46.5t-188 -126t-125 -189.5t-46 -231t46 -231t125 -189.5t188 -126t229 -46.5zM900 -50q-200 0 -369 98
t-267 267t-98 369t98 369t267 267t369 98t369 -98t267 -267t98 -369t-98 -369t-267 -267t-369 -98z" />
    <glyph glyph-name="uni24BC" unicode="G&#x25cb;" 
d="M1188 804h-151q-8 46 -42 73t-87 27q-67 0 -104 -46t-37 -128v-81q0 -82 37 -127.5t109 -45.5q60 0 93.5 28t35.5 74v34h-135v111h281v-125q0 -109 -72.5 -177t-204.5 -68q-143 0 -220.5 81t-77.5 221v78q0 136 79.5 216.5t218.5 80.5q122 0 197.5 -64t79.5 -162zM900 91
q120 0 229 46.5t188 126t125 189.5t46 231t-46 231t-125 189.5t-188 126t-229 46.5t-229 -46.5t-188 -126t-125 -189.5t-46 -231t46 -231t125 -189.5t188 -126t229 -46.5zM900 -50q-200 0 -369 98t-267 267t-98 369t98 369t267 267t369 98t369 -98t267 -267t98 -369
t-98 -369t-267 -267t-369 -98z" />
    <glyph glyph-name="uni24BD" unicode="H&#x25cb;" 
d="M1184 365h-151v266h-265v-266h-151v653h151v-257h265v257h151v-653zM900 91q120 0 229 46.5t188 126t125 189.5t46 231t-46 231t-125 189.5t-188 126t-229 46.5t-229 -46.5t-188 -126t-125 -189.5t-46 -231t46 -231t125 -189.5t188 -126t229 -46.5zM900 -50
q-200 0 -369 98t-267 267t-98 369t98 369t267 267t369 98t369 -98t267 -267t98 -369t-98 -369t-267 -267t-369 -98z" />
    <glyph glyph-name="uni24BE" unicode="I&#x25cb;" 
d="M982 365h-164v653h164v-653zM900 91q120 0 229 46.5t188 126t125 189.5t46 231t-46 231t-125 189.5t-188 126t-229 46.5t-229 -46.5t-188 -126t-125 -189.5t-46 -231t46 -231t125 -189.5t188 -126t229 -46.5zM900 -50q-200 0 -369 98t-267 267t-98 369t98 369t267 267
t369 98t369 -98t267 -267t98 -369t-98 -369t-267 -267t-369 -98z" />
    <glyph glyph-name="uni24BF" unicode="J&#x25cb;" 
d="M632 569h153q0 -38 22 -59.5t59 -21.5q85 0 85 95v429h157v-429q0 -112 -63.5 -174t-175.5 -62q-111 0 -174 61.5t-63 160.5zM900 91q120 0 229 46.5t188 126t125 189.5t46 231t-46 231t-125 189.5t-188 126t-229 46.5t-229 -46.5t-188 -126t-125 -189.5t-46 -231
t46 -231t125 -189.5t188 -126t229 -46.5zM900 -50q-200 0 -369 98t-267 267t-98 369t98 369t267 267t369 98t369 -98t267 -267t98 -369t-98 -369t-267 -267t-369 -98z" />
    <glyph glyph-name="uni24C0" unicode="K&#x25cb;" 
d="M1208 1018l-232 -289l241 -364h-183l-173 264l-67 -74v-190h-148v653h148v-276h9l235 276h170zM900 91q120 0 229 46.5t188 126t125 189.5t46 231t-46 231t-125 189.5t-188 126t-229 46.5t-229 -46.5t-188 -126t-125 -189.5t-46 -231t46 -231t125 -189.5t188 -126
t229 -46.5zM900 -50q-200 0 -369 98t-267 267t-98 369t98 369t267 267t369 98t369 -98t267 -267t98 -369t-98 -369t-267 -267t-369 -98z" />
    <glyph glyph-name="uni24C1" unicode="L&#x25cb;" 
d="M1162 505v-134h-441v653h159v-519h282zM900 91q120 0 229 46.5t188 126t125 189.5t46 231t-46 231t-125 189.5t-188 126t-229 46.5t-229 -46.5t-188 -126t-125 -189.5t-46 -231t46 -231t125 -189.5t188 -126t229 -46.5zM900 -50q-200 0 -369 98t-267 267t-98 369t98 369
t267 267t369 98t369 -98t267 -267t98 -369t-98 -369t-267 -267t-369 -98z" />
    <glyph glyph-name="uni24C2" unicode="M&#x25cb;" 
d="M701 365h-133v653h153l177 -397h5l178 397h151v-653h-135v415h-10l-140 -330h-94l-141 330h-11v-415zM900 91q120 0 229 46.5t188 126t125 189.5t46 231t-46 231t-125 189.5t-188 126t-229 46.5t-229 -46.5t-188 -126t-125 -189.5t-46 -231t46 -231t125 -189.5t188 -126
t229 -46.5zM900 -50q-200 0 -369 98t-267 267t-98 369t98 369t267 267t369 98t369 -98t267 -267t98 -369t-98 -369t-267 -267t-369 -98z" />
    <glyph glyph-name="uni24C3" unicode="N&#x25cb;" 
d="M762 365h-140v653h121l285 -400h10v400h140v-653h-121l-286 404h-9v-404zM900 91q120 0 229 46.5t188 126t125 189.5t46 231t-46 231t-125 189.5t-188 126t-229 46.5t-229 -46.5t-188 -126t-125 -189.5t-46 -231t46 -231t125 -189.5t188 -126t229 -46.5zM900 -50
q-200 0 -369 98t-267 267t-98 369t98 369t267 267t369 98t369 -98t267 -267t98 -369t-98 -369t-267 -267t-369 -98z" />
    <glyph glyph-name="uni24C4" unicode="O&#x25cb;" 
d="M900 483q66 0 103.5 45t37.5 124v78q0 79 -38 124t-103 45t-103 -45t-38 -124v-78q0 -79 37.5 -124t103.5 -45zM900 353q-140 0 -220 80t-80 220v76q0 140 80 220.5t220 80.5t220 -80.5t80 -220.5v-76q0 -140 -80 -220t-220 -80zM900 91q120 0 229 46.5t188 126
t125 189.5t46 231t-46 231t-125 189.5t-188 126t-229 46.5t-229 -46.5t-188 -126t-125 -189.5t-46 -231t46 -231t125 -189.5t188 -126t229 -46.5zM900 -50q-200 0 -369 98t-267 267t-98 369t98 369t267 267t369 98t369 -98t267 -267t98 -369t-98 -369t-267 -267t-369 -98z
" />
    <glyph glyph-name="uni24C5" unicode="P&#x25cb;" 
d="M966 1018q108 0 171.5 -63t63.5 -165q0 -100 -63.5 -162t-173.5 -62h-123v-201h-158v653h283zM1046 790q0 51 -28 78t-80 27h-103v-209h103q52 0 80 27t28 77zM900 91q120 0 229 46.5t188 126t125 189.5t46 231t-46 231t-125 189.5t-188 126t-229 46.5t-229 -46.5
t-188 -126t-125 -189.5t-46 -231t46 -231t125 -189.5t188 -126t229 -46.5zM900 -50q-200 0 -369 98t-267 267t-98 369t98 369t267 267t369 98t369 -98t267 -267t98 -369t-98 -369t-267 -267t-369 -98z" />
    <glyph glyph-name="uni24C6" unicode="Q&#x25cb;" 
d="M1191 303h-157l-43 62q-41 -12 -91 -12q-140 0 -220 80t-80 220v76q0 140 80 220.5t220 80.5t220 -80.5t80 -220.5v-76q0 -155 -95 -234zM892 474q21 0 36 4l-65 93h119l32 -39q31 43 31 118v75q0 86 -38.5 132.5t-106.5 46.5t-106.5 -46.5t-38.5 -132.5v-75
q0 -80 36.5 -126.5t100.5 -49.5zM900 91q120 0 229 46.5t188 126t125 189.5t46 231t-46 231t-125 189.5t-188 126t-229 46.5t-229 -46.5t-188 -126t-125 -189.5t-46 -231t46 -231t125 -189.5t188 -126t229 -46.5zM900 -50q-200 0 -369 98t-267 267t-98 369t98 369t267 267
t369 98t369 -98t267 -267t98 -369t-98 -369t-267 -267t-369 -98z" />
    <glyph glyph-name="uni24C7" unicode="R&#x25cb;" 
d="M934 1018q117 0 182.5 -55.5t65.5 -152.5q0 -67 -35.5 -115t-91.5 -68l140 -262h-168l-116 235h-110v-235h-148v653h281zM801 710h112q52 0 81.5 24t29.5 68q0 46 -29.5 71t-79.5 25h-114v-188zM900 91q120 0 229 46.5t188 126t125 189.5t46 231t-46 231t-125 189.5
t-188 126t-229 46.5t-229 -46.5t-188 -126t-125 -189.5t-46 -231t46 -231t125 -189.5t188 -126t229 -46.5zM900 -50q-200 0 -369 98t-267 267t-98 369t98 369t267 267t369 98t369 -98t267 -267t98 -369t-98 -369t-267 -267t-369 -98z" />
    <glyph glyph-name="uni24C8" unicode="S&#x25cb;" 
d="M627 553h150q4 -37 38.5 -59t89.5 -22q54 0 86 21t32 57q0 29 -23.5 45.5t-81.5 28.5l-97 20q-88 16 -133.5 63t-45.5 120q0 91 72 147t189 56q113 0 184 -53.5t76 -141.5h-147q-4 36 -35 57t-79 21q-49 0 -78.5 -20.5t-29.5 -54.5q0 -51 95 -69l100 -20
q95 -19 140 -64.5t45 -121.5q0 -96 -75 -153t-202 -57q-122 0 -194.5 53.5t-75.5 146.5zM900 91q120 0 229 46.5t188 126t125 189.5t46 231t-46 231t-125 189.5t-188 126t-229 46.5t-229 -46.5t-188 -126t-125 -189.5t-46 -231t46 -231t125 -189.5t188 -126t229 -46.5z
M900 -50q-200 0 -369 98t-267 267t-98 369t98 369t267 267t369 98t369 -98t267 -267t98 -369t-98 -369t-267 -267t-369 -98z" />
    <glyph glyph-name="uni24C9" unicode="T&#x25cb;" 
d="M980 343h-160v522h-190v131h540v-131h-190v-522zM900 91q120 0 229 46.5t188 126t125 189.5t46 231t-46 231t-125 189.5t-188 126t-229 46.5t-229 -46.5t-188 -126t-125 -189.5t-46 -231t46 -231t125 -189.5t188 -126t229 -46.5zM900 -50q-200 0 -369 98t-267 267
t-98 369t98 369t267 267t369 98t369 -98t267 -267t98 -369t-98 -369t-267 -267t-369 -98z" />
    <glyph glyph-name="uni24CA" unicode="U&#x25cb;" 
d="M900 463q58 0 92 31.5t34 87.5v414h155v-433q0 -104 -77 -168t-204 -64t-204 64t-77 168v433h155v-414q0 -56 34 -87.5t92 -31.5zM900 91q120 0 229 46.5t188 126t125 189.5t46 231t-46 231t-125 189.5t-188 126t-229 46.5t-229 -46.5t-188 -126t-125 -189.5t-46 -231
t46 -231t125 -189.5t188 -126t229 -46.5zM900 -50q-200 0 -369 98t-267 267t-98 369t98 369t267 267t369 98t369 -98t267 -267t98 -369t-98 -369t-267 -267t-369 -98z" />
    <glyph glyph-name="uni24CB" unicode="V&#x25cb;" 
d="M799 340l-217 653h179l133 -483h12l133 483h179l-217 -653h-202zM900 91q120 0 229 46.5t188 126t125 189.5t46 231t-46 231t-125 189.5t-188 126t-229 46.5t-229 -46.5t-188 -126t-125 -189.5t-46 -231t46 -231t125 -189.5t188 -126t229 -46.5zM900 -50q-200 0 -369 98
t-267 267t-98 369t98 369t267 267t369 98t369 -98t267 -267t98 -369t-98 -369t-267 -267t-369 -98z" />
    <glyph glyph-name="uni24CC" unicode="W&#x25cb;" 
d="M897 775l-114 -432h-137l-167 653h152l93 -458h7l110 458h118l110 -458h7l93 458h152l-167 -653h-137l-114 432h-6zM900 91q120 0 229 46.5t188 126t125 189.5t46 231t-46 231t-125 189.5t-188 126t-229 46.5t-229 -46.5t-188 -126t-125 -189.5t-46 -231t46 -231
t125 -189.5t188 -126t229 -46.5zM900 -50q-200 0 -369 98t-267 267t-98 369t98 369t267 267t369 98t369 -98t267 -267t98 -369t-98 -369t-267 -267t-369 -98z" />
    <glyph glyph-name="uni24CD" unicode="X&#x25cb;" 
d="M1210 1018l-210 -326l209 -327h-180l-131 212h-7l-131 -212h-170l204 329l-203 324h186l125 -218h7l124 218h177zM900 91q120 0 229 46.5t188 126t125 189.5t46 231t-46 231t-125 189.5t-188 126t-229 46.5t-229 -46.5t-188 -126t-125 -189.5t-46 -231t46 -231
t125 -189.5t188 -126t229 -46.5zM900 -50q-200 0 -369 98t-267 267t-98 369t98 369t267 267t369 98t369 -98t267 -267t98 -369t-98 -369t-267 -267t-369 -98z" />
    <glyph glyph-name="uni24CE" unicode="Y&#x25cb;" 
d="M981 354h-161v231l-228 422h174l132 -268h6l132 268h172l-227 -420v-233zM900 91q120 0 229 46.5t188 126t125 189.5t46 231t-46 231t-125 189.5t-188 126t-229 46.5t-229 -46.5t-188 -126t-125 -189.5t-46 -231t46 -231t125 -189.5t188 -126t229 -46.5zM900 -50
q-200 0 -369 98t-267 267t-98 369t98 369t267 267t369 98t369 -98t267 -267t98 -369t-98 -369t-267 -267t-369 -98z" />
    <glyph glyph-name="uni24CF" unicode="Z&#x25cb;" 
d="M646 365v103l308 414v8h-303v128h496v-103l-307 -414v-8h317v-128h-511zM900 91q120 0 229 46.5t188 126t125 189.5t46 231t-46 231t-125 189.5t-188 126t-229 46.5t-229 -46.5t-188 -126t-125 -189.5t-46 -231t46 -231t125 -189.5t188 -126t229 -46.5zM900 -50
q-200 0 -369 98t-267 267t-98 369t98 369t267 267t369 98t369 -98t267 -267t98 -369t-98 -369t-267 -267t-369 -98z" />
    <glyph glyph-name="uni24EA" unicode="&#x30;&#x25cb;" 
d="M788 708v-32q0 -95 29.5 -145.5t82.5 -50.5t82.5 50.5t29.5 145.5v32q0 94 -30 144.5t-82 50.5q-53 0 -82.5 -50t-29.5 -145zM634 676v32q0 146 71.5 234t196.5 88q124 0 194 -87t70 -235v-32q0 -144 -71.5 -233.5t-196.5 -89.5q-124 0 -194 87.5t-70 235.5zM900 91
q120 0 229 46.5t188 126t125 189.5t46 231t-46 231t-125 189.5t-188 126t-229 46.5t-229 -46.5t-188 -126t-125 -189.5t-46 -231t46 -231t125 -189.5t188 -126t229 -46.5zM900 -50q-200 0 -369 98t-267 267t-98 369t98 369t267 267t369 98t369 -98t267 -267t98 -369
t-98 -369t-267 -267t-369 -98z" />
    <glyph glyph-name="uni24FF" unicode="&#x30;&#x25cb;&#x25cf;" 
d="M897 460q-56 0 -87 55.5t-31 157.5v34q0 103 30.5 158t87.5 55t88 -55.5t31 -157.5v-34q0 -102 -31.5 -157.5t-87.5 -55.5zM896 321q134 0 213.5 96t79.5 257v33q0 162 -78 256.5t-213 94.5t-214 -95t-79 -256v-33q0 -163 78.5 -258t212.5 -95zM900 -50q-149 0 -285 58.5
t-234 156.5t-156.5 234t-58.5 285t58.5 285t156.5 234t234 156.5t285 58.5t285 -58.5t234 -156.5t156.5 -234t58.5 -285t-58.5 -285t-156.5 -234t-234 -156.5t-285 -58.5z" />
    <glyph glyph-name="uni278A" unicode="&#x31;&#x25cb;&#x25cf;" 
d="M1020 334v711h-174l-175 -118v-162l170 114h2v-545h177zM900 -50q-149 0 -285 58.5t-234 156.5t-156.5 234t-58.5 285t58.5 285t156.5 234t234 156.5t285 58.5t285 -58.5t234 -156.5t156.5 -234t58.5 -285t-58.5 -285t-156.5 -234t-234 -156.5t-285 -58.5z" />
    <glyph glyph-name="uni278B" unicode="&#x32;&#x25cb;&#x25cf;" 
d="M794 816v8q0 41 26 69t72 28q41 0 68 -23t27 -59q0 -35 -21 -66t-66 -75l-260 -253v-111h530v144h-297v2l159 155q64 63 94 110.5t30 107.5q0 88 -72 146t-185 58q-126 0 -197 -67t-71 -166v-8h163zM900 -50q-149 0 -285 58.5t-234 156.5t-156.5 234t-58.5 285t58.5 285
t156.5 234t234 156.5t285 58.5t285 -58.5t234 -156.5t156.5 -234t58.5 -285t-58.5 -285t-156.5 -234t-234 -156.5t-285 -58.5z" />
    <glyph glyph-name="uni278C" unicode="&#x33;&#x25cb;&#x25cf;" 
d="M813 633h82q52 0 83.5 -24t31.5 -63q0 -40 -32 -65t-85 -25q-49 1 -82 24t-36 59h-161q2 -94 77.5 -156t200.5 -62q127 0 209 59t81 157q-1 73 -48 118t-107 52v2q50 9 92.5 53t41.5 106q-2 84 -75 137t-191 53q-126 -1 -196.5 -59.5t-73.5 -157.5h163q2 35 30 59t73 24
q44 0 72 -22.5t28 -56.5q0 -36 -28 -59t-73 -23h-77v-130zM900 -50q-149 0 -285 58.5t-234 156.5t-156.5 234t-58.5 285t58.5 285t156.5 234t234 156.5t285 58.5t285 -58.5t234 -156.5t156.5 -234t58.5 -285t-58.5 -285t-156.5 -234t-234 -156.5t-285 -58.5z" />
    <glyph glyph-name="uni278D" unicode="&#x34;&#x25cb;&#x25cf;" 
d="M842 1045q-187 -292 -270 -450v-137h354v-124h157v124h95v138h-95v449h-241zM730 597q20 37 46 80t43.5 72t52.5 84t50 79h4v-316h-196v1zM900 -50q-149 0 -285 58.5t-234 156.5t-156.5 234t-58.5 285t58.5 285t156.5 234t234 156.5t285 58.5t285 -58.5t234 -156.5
t156.5 -234t58.5 -285t-58.5 -285t-156.5 -234t-234 -156.5t-285 -58.5z" />
    <glyph glyph-name="uni278E" unicode="&#x35;&#x25cb;&#x25cf;" 
d="M628 537q3 -93 78.5 -152.5t195.5 -59.5q131 0 210 70t79 187q0 105 -68.5 167.5t-171.5 62.5q-54 0 -93.5 -18.5t-57.5 -43.5h-2l13 165h336v133h-474l-30 -422h151q14 25 42.5 43.5t67.5 18.5q51 0 85.5 -30.5t34.5 -80.5q0 -54 -35 -86t-83 -32q-44 0 -77 20.5
t-41 57.5h-160zM900 -50q-149 0 -285 58.5t-234 156.5t-156.5 234t-58.5 285t58.5 285t156.5 234t234 156.5t285 58.5t285 -58.5t234 -156.5t156.5 -234t58.5 -285t-58.5 -285t-156.5 -234t-234 -156.5t-285 -58.5z" />
    <glyph glyph-name="uni278F" unicode="&#x36;&#x25cb;&#x25cf;" 
d="M1177 577q0 98 -60 162.5t-152 64.5q-77 0 -120 -41l-9 2q5 11 32 47q82 114 185 233h-194q-134 -174 -145 -194q-100 -145 -100 -263q0 -120 78 -193t206 -73q126 0 202.5 70t76.5 185zM775 572q0 50 34.5 84t86.5 34t87 -34t35 -84t-35 -84t-87 -34t-86.5 34t-34.5 84z
M900 -50q-149 0 -285 58.5t-234 156.5t-156.5 234t-58.5 285t58.5 285t156.5 234t234 156.5t285 58.5t285 -58.5t234 -156.5t156.5 -234t58.5 -285t-58.5 -285t-156.5 -234t-234 -156.5t-285 -58.5z" />
    <glyph glyph-name="uni2790" unicode="&#x37;&#x25cb;&#x25cf;" 
d="M642 1038v-145h356v-1l-301 -565h187l292 569v142h-534zM900 -50q-149 0 -285 58.5t-234 156.5t-156.5 234t-58.5 285t58.5 285t156.5 234t234 156.5t285 58.5t285 -58.5t234 -156.5t156.5 -234t58.5 -285t-58.5 -285t-156.5 -234t-234 -156.5t-285 -58.5z" />
    <glyph glyph-name="uni2791" unicode="&#x38;&#x25cb;&#x25cf;" 
d="M897 757q-46 0 -74.5 25t-28.5 65t28.5 65t74.5 25t74.5 -25t28.5 -65t-28.5 -65t-74.5 -25zM897 443q-55 0 -90 29t-35 74t35 74.5t90 29.5t90.5 -29.5t35.5 -74.5t-35.5 -74t-90.5 -29zM897 321q136 0 217.5 58t81.5 155q0 66 -42 113t-113 60v2q125 39 125 157
q0 86 -74 139t-195 53t-195 -53t-74 -139q0 -119 126 -157v-2q-72 -13 -114 -60t-42 -113q0 -97 82 -155t217 -58zM900 -50q-149 0 -285 58.5t-234 156.5t-156.5 234t-58.5 285t58.5 285t156.5 234t234 156.5t285 58.5t285 -58.5t234 -156.5t156.5 -234t58.5 -285
t-58.5 -285t-156.5 -234t-234 -156.5t-285 -58.5z" />
    <glyph glyph-name="uni2792" unicode="&#x39;&#x25cb;&#x25cf;" 
d="M615 802q0 -98 60.5 -162.5t152.5 -64.5q76 0 120 41l9 -2q-6 -12 -33 -49q-39 -54 -100.5 -130t-84.5 -101h195q6 8 42.5 55.5t66.5 88t37 52.5q98 143 98 261q0 121 -78 193.5t-206 72.5q-126 0 -202.5 -70t-76.5 -185zM1018 807q0 -50 -35 -84t-87 -34t-86.5 34
t-34.5 84t34.5 84t86.5 34t87 -34t35 -84zM900 -50q-149 0 -285 58.5t-234 156.5t-156.5 234t-58.5 285t58.5 285t156.5 234t234 156.5t285 58.5t285 -58.5t234 -156.5t156.5 -234t58.5 -285t-58.5 -285t-156.5 -234t-234 -156.5t-285 -58.5z" />
    <glyph glyph-name="uni1F130" unicode="A&#x25a1;" 
d="M817 631h166l-77 245h-12zM741 366h-157l223 653h186l223 -653h-157l-47 149h-224zM436 1397h928q103 0 175.5 -71.5t72.5 -172.5v-938q0 -101 -72.5 -172.5t-175.5 -71.5h-928q-103 0 -175.5 71.5t-72.5 172.5v938q0 101 72.5 172.5t175.5 71.5zM1468 1134
q0 54 -38 90.5t-94 36.5h-872q-55 0 -93.5 -37t-38.5 -90v-900q0 -52 39 -89.5t93 -37.5h872q55 0 93.5 37t38.5 90v900z" />
    <glyph glyph-name="uni1F131" unicode="B&#x25a1;" 
d="M662 366v653h302q93 0 147 -42.5t54 -117.5q0 -56 -32.5 -93.5t-87.5 -48.5v-7q69 -8 111.5 -50t42.5 -111q0 -83 -65 -133t-168 -50h-304zM812 911v-159h84q121 0 121 81q0 36 -25.5 57t-69.5 21h-110zM812 655v-176h93q137 0 137 86q0 42 -29.5 66t-82.5 24h-118z
M436 1397h928q103 0 175.5 -71.5t72.5 -172.5v-938q0 -101 -72.5 -172.5t-175.5 -71.5h-928q-103 0 -175.5 71.5t-72.5 172.5v938q0 101 72.5 172.5t175.5 71.5zM1468 1134q0 54 -38 90.5t-94 36.5h-872q-55 0 -93.5 -37t-38.5 -90v-900q0 -52 39 -89.5t93 -37.5h872
q55 0 93.5 37t38.5 90v900z" />
    <glyph glyph-name="uni1F132" unicode="C&#x25a1;" 
d="M780 725v-72q0 -81 35 -125t99 -44q55 0 88.5 31.5t33.5 82.5h152v-15q0 -102 -78 -167t-198 -65q-139 0 -215 79.5t-76 222.5v72q0 143 76.5 223t214.5 80q121 0 198.5 -66t77.5 -171v-15h-152q0 53 -33.5 86t-88.5 33q-63 0 -98.5 -44.5t-35.5 -125.5zM436 1397h928
q103 0 175.5 -71.5t72.5 -172.5v-938q0 -101 -72.5 -172.5t-175.5 -71.5h-928q-103 0 -175.5 71.5t-72.5 172.5v938q0 101 72.5 172.5t175.5 71.5zM1468 1134q0 54 -38 90.5t-94 36.5h-872q-55 0 -93.5 -37t-38.5 -90v-900q0 -52 39 -89.5t93 -37.5h872q55 0 93.5 37
t38.5 90v900z" />
    <glyph glyph-name="uni1F133" unicode="D&#x25a1;" 
d="M638 1019h263q151 0 228 -83.5t77 -241.5t-77 -243t-228 -85h-263v653zM791 894v-402h87q87 0 127.5 49t40.5 151q0 103 -40.5 152.5t-127.5 49.5h-87zM436 1397h928q103 0 175.5 -71.5t72.5 -172.5v-938q0 -101 -72.5 -172.5t-175.5 -71.5h-928q-103 0 -175.5 71.5
t-72.5 172.5v938q0 101 72.5 172.5t175.5 71.5zM1468 1134q0 54 -38 90.5t-94 36.5h-872q-55 0 -93.5 -37t-38.5 -90v-900q0 -52 39 -89.5t93 -37.5h872q55 0 93.5 37t38.5 90v900z" />
    <glyph glyph-name="uni1F134" unicode="E&#x25a1;" 
d="M1130 487v-124h-451v653h451v-124h-299v-144h281v-110h-281v-151h299zM436 1397h928q103 0 175.5 -71.5t72.5 -172.5v-938q0 -101 -72.5 -172.5t-175.5 -71.5h-928q-103 0 -175.5 71.5t-72.5 172.5v938q0 101 72.5 172.5t175.5 71.5zM1468 1134q0 54 -38 90.5t-94 36.5
h-872q-55 0 -93.5 -37t-38.5 -90v-900q0 -52 39 -89.5t93 -37.5h872q55 0 93.5 37t38.5 90v900z" />
    <glyph glyph-name="uni1F135" unicode="F&#x25a1;" 
d="M862 366h-156v653h448v-125h-292v-155h266v-125h-266v-248zM436 1397h928q103 0 175.5 -71.5t72.5 -172.5v-938q0 -101 -72.5 -172.5t-175.5 -71.5h-928q-103 0 -175.5 71.5t-72.5 172.5v938q0 101 72.5 172.5t175.5 71.5zM1468 1134q0 54 -38 90.5t-94 36.5h-872
q-55 0 -93.5 -37t-38.5 -90v-900q0 -52 39 -89.5t93 -37.5h872q55 0 93.5 37t38.5 90v900z" />
    <glyph glyph-name="uni1F136" unicode="G&#x25a1;" 
d="M1188 806h-151q-8 46 -42 72.5t-87 26.5q-67 0 -104 -45.5t-37 -127.5v-81q0 -82 37 -128t109 -46q60 0 93.5 28.5t35.5 74.5v33h-135v111h281v-125q0 -109 -72.5 -177t-204.5 -68q-143 0 -220.5 81t-77.5 221v78q0 136 79.5 216.5t218.5 80.5q122 0 197.5 -64t79.5 -161
zM436 1397h928q103 0 175.5 -71.5t72.5 -172.5v-938q0 -101 -72.5 -172.5t-175.5 -71.5h-928q-103 0 -175.5 71.5t-72.5 172.5v938q0 101 72.5 172.5t175.5 71.5zM1468 1134q0 54 -38 90.5t-94 36.5h-872q-55 0 -93.5 -37t-38.5 -90v-900q0 -52 39 -89.5t93 -37.5h872
q55 0 93.5 37t38.5 90v900z" />
    <glyph glyph-name="uni1F137" unicode="H&#x25a1;" 
d="M1185 366h-151v266h-268v-266h-150v653h150v-257h268v257h151v-653zM436 1397h928q103 0 175.5 -71.5t72.5 -172.5v-938q0 -101 -72.5 -172.5t-175.5 -71.5h-928q-103 0 -175.5 71.5t-72.5 172.5v938q0 101 72.5 172.5t175.5 71.5zM1468 1134q0 54 -38 90.5t-94 36.5
h-872q-55 0 -93.5 -37t-38.5 -90v-900q0 -52 39 -89.5t93 -37.5h872q55 0 93.5 37t38.5 90v900z" />
    <glyph glyph-name="uni1F138" unicode="I&#x25a1;" 
d="M982 366h-164v653h164v-653zM436 1397h928q103 0 175.5 -71.5t72.5 -172.5v-938q0 -101 -72.5 -172.5t-175.5 -71.5h-928q-103 0 -175.5 71.5t-72.5 172.5v938q0 101 72.5 172.5t175.5 71.5zM1468 1134q0 54 -38 90.5t-94 36.5h-872q-55 0 -93.5 -37t-38.5 -90v-900
q0 -52 39 -89.5t93 -37.5h872q55 0 93.5 37t38.5 90v900z" />
    <glyph glyph-name="uni1F139" unicode="J&#x25a1;" 
d="M634 576h152q1 -37 22.5 -58.5t58.5 -21.5q85 0 85 94v429h157v-429q0 -112 -63.5 -174t-175.5 -62q-111 0 -173.5 61.5t-62.5 160.5zM436 1397h928q103 0 175.5 -71.5t72.5 -172.5v-938q0 -101 -72.5 -172.5t-175.5 -71.5h-928q-103 0 -175.5 71.5t-72.5 172.5v938
q0 101 72.5 172.5t175.5 71.5zM1468 1134q0 54 -38 90.5t-94 36.5h-872q-55 0 -93.5 -37t-38.5 -90v-900q0 -52 39 -89.5t93 -37.5h872q55 0 93.5 37t38.5 90v900z" />
    <glyph glyph-name="uni1F13A" unicode="K&#x25a1;" 
d="M1210 1019l-231 -289l240 -364h-182l-173 264l-68 -74v-190h-148v653h148v-276h10l234 276h170zM436 1397h928q103 0 175.5 -71.5t72.5 -172.5v-938q0 -101 -72.5 -172.5t-175.5 -71.5h-928q-103 0 -175.5 71.5t-72.5 172.5v938q0 101 72.5 172.5t175.5 71.5zM1468 1134
q0 54 -38 90.5t-94 36.5h-872q-55 0 -93.5 -37t-38.5 -90v-900q0 -52 39 -89.5t93 -37.5h872q55 0 93.5 37t38.5 90v900z" />
    <glyph glyph-name="uni1F13B" unicode="L&#x25a1;" 
d="M1166 501v-135h-440v653h158v-518h282zM436 1397h928q103 0 175.5 -71.5t72.5 -172.5v-938q0 -101 -72.5 -172.5t-175.5 -71.5h-928q-103 0 -175.5 71.5t-72.5 172.5v938q0 101 72.5 172.5t175.5 71.5zM1468 1134q0 54 -38 90.5t-94 36.5h-872q-55 0 -93.5 -37t-38.5 -90
v-900q0 -52 39 -89.5t93 -37.5h872q55 0 93.5 37t38.5 90v900z" />
    <glyph glyph-name="uni1F13C" unicode="M&#x25a1;" 
d="M701 366h-133v653h153l177 -396h5l178 396h151v-653h-135v416h-10l-140 -331h-94l-141 331h-11v-416zM436 1397h928q103 0 175.5 -71.5t72.5 -172.5v-938q0 -101 -72.5 -172.5t-175.5 -71.5h-928q-103 0 -175.5 71.5t-72.5 172.5v938q0 101 72.5 172.5t175.5 71.5z
M1468 1134q0 54 -38 90.5t-94 36.5h-872q-55 0 -93.5 -37t-38.5 -90v-900q0 -52 39 -89.5t93 -37.5h872q55 0 93.5 37t38.5 90v900z" />
    <glyph glyph-name="uni1F13D" unicode="N&#x25a1;" 
d="M767 366h-147v653h126l280 -387h7v387h147v-653h-125l-281 392h-7v-392zM436 1397h928q103 0 175.5 -71.5t72.5 -172.5v-938q0 -101 -72.5 -172.5t-175.5 -71.5h-928q-103 0 -175.5 71.5t-72.5 172.5v938q0 101 72.5 172.5t175.5 71.5zM1468 1134q0 54 -38 90.5t-94 36.5
h-872q-55 0 -93.5 -37t-38.5 -90v-900q0 -52 39 -89.5t93 -37.5h872q55 0 93.5 37t38.5 90v900z" />
    <glyph glyph-name="uni1F13E" unicode="O&#x25a1;" 
d="M900 485q66 0 103.5 45t37.5 124v77q0 79 -38 124.5t-103 45.5t-103 -45.5t-38 -124.5v-77q0 -79 37.5 -124t103.5 -45zM900 354q-140 0 -220 80.5t-80 220.5v75q0 141 80 221t220 80t220 -80t80 -221v-75q0 -140 -80 -220.5t-220 -80.5zM436 1397h928q103 0 175.5 -71.5
t72.5 -172.5v-938q0 -101 -72.5 -172.5t-175.5 -71.5h-928q-103 0 -175.5 71.5t-72.5 172.5v938q0 101 72.5 172.5t175.5 71.5zM1468 1134q0 54 -38 90.5t-94 36.5h-872q-55 0 -93.5 -37t-38.5 -90v-900q0 -52 39 -89.5t93 -37.5h872q55 0 93.5 37t38.5 90v900z" />
    <glyph glyph-name="uni1F13F" unicode="P&#x25a1;" 
d="M966 1019q108 0 171.5 -63t63.5 -164t-64 -163t-173 -62h-123v-201h-158v653h283zM1046 792q0 51 -28 78t-80 27h-103v-210h103q52 0 80 27.5t28 77.5zM436 1397h928q103 0 175.5 -71.5t72.5 -172.5v-938q0 -101 -72.5 -172.5t-175.5 -71.5h-928q-103 0 -175.5 71.5
t-72.5 172.5v938q0 101 72.5 172.5t175.5 71.5zM1468 1134q0 54 -38 90.5t-94 36.5h-872q-55 0 -93.5 -37t-38.5 -90v-900q0 -52 39 -89.5t93 -37.5h872q55 0 93.5 37t38.5 90v900z" />
    <glyph glyph-name="uni1F140" unicode="Q&#x25a1;" 
d="M1191 305h-157l-43 61q-46 -12 -91 -12q-140 0 -220 80.5t-80 220.5v75q0 141 80 221t220 80t220 -80t80 -221v-75q0 -154 -95 -235zM892 475q18 0 36 5l-65 93h119l32 -40q31 45 31 119v75q0 85 -38.5 132t-106.5 47t-106.5 -47t-38.5 -132v-75q0 -81 36.5 -127
t100.5 -50zM436 1397h928q103 0 175.5 -71.5t72.5 -172.5v-938q0 -101 -72.5 -172.5t-175.5 -71.5h-928q-103 0 -175.5 71.5t-72.5 172.5v938q0 101 72.5 172.5t175.5 71.5zM1468 1134q0 54 -38 90.5t-94 36.5h-872q-55 0 -93.5 -37t-38.5 -90v-900q0 -52 39 -89.5t93 -37.5
h872q55 0 93.5 37t38.5 90v900z" />
    <glyph glyph-name="uni1F141" unicode="R&#x25a1;" 
d="M934 1019q117 0 182.5 -55.5t65.5 -152.5q0 -67 -35.5 -115t-91.5 -67l140 -263h-168l-116 236h-110v-236h-148v653h281zM801 712h112q52 0 81.5 24t29.5 68q0 46 -29.5 70.5t-79.5 24.5h-114v-187zM436 1397h928q103 0 175.5 -71.5t72.5 -172.5v-938
q0 -101 -72.5 -172.5t-175.5 -71.5h-928q-103 0 -175.5 71.5t-72.5 172.5v938q0 101 72.5 172.5t175.5 71.5zM1468 1134q0 54 -38 90.5t-94 36.5h-872q-55 0 -93.5 -37t-38.5 -90v-900q0 -52 39 -89.5t93 -37.5h872q55 0 93.5 37t38.5 90v900z" />
    <glyph glyph-name="uni1F142" unicode="S&#x25a1;" 
d="M627 554h150q4 -37 38.5 -58.5t89.5 -21.5q54 0 86 21t32 57q0 28 -24 45t-81 28l-97 20q-88 17 -133.5 64t-45.5 119q0 91 72 147.5t189 56.5q113 0 184 -53.5t76 -141.5h-147q-4 36 -35 57t-79 21q-49 0 -78.5 -20.5t-29.5 -54.5q0 -51 95 -69l100 -20
q94 -19 139.5 -64.5t45.5 -121.5q0 -97 -75 -153.5t-202 -56.5q-122 0 -194.5 53.5t-75.5 145.5zM436 1397h928q103 0 175.5 -71.5t72.5 -172.5v-938q0 -101 -72.5 -172.5t-175.5 -71.5h-928q-103 0 -175.5 71.5t-72.5 172.5v938q0 101 72.5 172.5t175.5 71.5zM1468 1134
q0 54 -38 90.5t-94 36.5h-872q-55 0 -93.5 -37t-38.5 -90v-900q0 -52 39 -89.5t93 -37.5h872q55 0 93.5 37t38.5 90v900z" />
    <glyph glyph-name="uni1F143" unicode="T&#x25a1;" 
d="M980 366h-160v522h-190v131h540v-131h-190v-522zM436 1397h928q103 0 175.5 -71.5t72.5 -172.5v-938q0 -101 -72.5 -172.5t-175.5 -71.5h-928q-103 0 -175.5 71.5t-72.5 172.5v938q0 101 72.5 172.5t175.5 71.5zM1468 1134q0 54 -38 90.5t-94 36.5h-872q-55 0 -93.5 -37
t-38.5 -90v-900q0 -52 39 -89.5t93 -37.5h872q55 0 93.5 37t38.5 90v900z" />
    <glyph glyph-name="uni1F144" unicode="U&#x25a1;" 
d="M900 486q58 0 92 31.5t34 87.5v414h155v-433q0 -104 -77 -168t-204 -64t-204 64t-77 168v433h155v-414q0 -56 34 -87.5t92 -31.5zM436 1397h928q103 0 175.5 -71.5t72.5 -172.5v-938q0 -101 -72.5 -172.5t-175.5 -71.5h-928q-103 0 -175.5 71.5t-72.5 172.5v938
q0 101 72.5 172.5t175.5 71.5zM1468 1134q0 54 -38 90.5t-94 36.5h-872q-55 0 -93.5 -37t-38.5 -90v-900q0 -52 39 -89.5t93 -37.5h872q55 0 93.5 37t38.5 90v900z" />
    <glyph glyph-name="uni1F145" unicode="V&#x25a1;" 
d="M799 366l-217 653h179l133 -483h12l133 483h179l-217 -653h-202zM436 1397h928q103 0 175.5 -71.5t72.5 -172.5v-938q0 -101 -72.5 -172.5t-175.5 -71.5h-928q-103 0 -175.5 71.5t-72.5 172.5v938q0 101 72.5 172.5t175.5 71.5zM1468 1134q0 54 -38 90.5t-94 36.5h-872
q-55 0 -93.5 -37t-38.5 -90v-900q0 -52 39 -89.5t93 -37.5h872q55 0 93.5 37t38.5 90v900z" />
    <glyph glyph-name="uni1F146" unicode="W&#x25a1;" 
d="M897 800l-114 -432h-137l-167 653h152l93 -459h7l110 459h118l110 -459h7l93 459h152l-167 -653h-137l-114 432h-6zM436 1397h928q103 0 175.5 -71.5t72.5 -172.5v-938q0 -101 -72.5 -172.5t-175.5 -71.5h-928q-103 0 -175.5 71.5t-72.5 172.5v938q0 101 72.5 172.5
t175.5 71.5zM1468 1134q0 54 -38 90.5t-94 36.5h-872q-55 0 -93.5 -37t-38.5 -90v-900q0 -52 39 -89.5t93 -37.5h872q55 0 93.5 37t38.5 90v900z" />
    <glyph glyph-name="uni1F147" unicode="X&#x25a1;" 
d="M1210 1019l-210 -326l209 -327h-180l-131 213h-7l-131 -213h-170l204 329l-203 324h186l125 -218h7l124 218h177zM436 1397h928q103 0 175.5 -71.5t72.5 -172.5v-938q0 -101 -72.5 -172.5t-175.5 -71.5h-928q-103 0 -175.5 71.5t-72.5 172.5v938q0 101 72.5 172.5
t175.5 71.5zM1468 1134q0 54 -38 90.5t-94 36.5h-872q-55 0 -93.5 -37t-38.5 -90v-900q0 -52 39 -89.5t93 -37.5h872q55 0 93.5 37t38.5 90v900z" />
    <glyph glyph-name="uni1F148" unicode="Y&#x25a1;" 
d="M981 366h-161v232l-228 421h174l132 -267h6l132 267h172l-227 -420v-233zM436 1397h928q103 0 175.5 -71.5t72.5 -172.5v-938q0 -101 -72.5 -172.5t-175.5 -71.5h-928q-103 0 -175.5 71.5t-72.5 172.5v938q0 101 72.5 172.5t175.5 71.5zM1468 1134q0 54 -38 90.5
t-94 36.5h-872q-55 0 -93.5 -37t-38.5 -90v-900q0 -52 39 -89.5t93 -37.5h872q55 0 93.5 37t38.5 90v900z" />
    <glyph glyph-name="uni1F149" unicode="Z&#x25a1;" 
d="M646 366v103l308 415v7h-303v128h496v-102l-307 -414v-8h317v-129h-511zM436 1397h928q103 0 175.5 -71.5t72.5 -172.5v-938q0 -101 -72.5 -172.5t-175.5 -71.5h-928q-103 0 -175.5 71.5t-72.5 172.5v938q0 101 72.5 172.5t175.5 71.5zM1468 1134q0 54 -38 90.5t-94 36.5
h-872q-55 0 -93.5 -37t-38.5 -90v-900q0 -52 39 -89.5t93 -37.5h872q55 0 93.5 37t38.5 90v900z" />
    <glyph glyph-name="uni1F150" unicode="A&#x25cb;&#x25cf;" 
d="M987 642h-174l83 271h8zM731 358l52 160h234l52 -160h177l-243 712h-205l-244 -712h177zM900 -50q-149 0 -285 58.5t-234 156.5t-156.5 234t-58.5 285t58.5 285t156.5 234t234 156.5t285 58.5t285 -58.5t234 -156.5t156.5 -234t58.5 -285t-58.5 -285t-156.5 -234
t-234 -156.5t-285 -58.5z" />
    <glyph glyph-name="uni1F151" unicode="B&#x25cb;&#x25cf;" 
d="M634 335h330q116 0 186.5 55t70.5 146q0 71 -42.5 118t-118.5 58v2q58 15 91 56t33 100q0 82 -59.5 129.5t-162.5 47.5h-328v-712zM801 923h117q46 0 73 -22t27 -59q0 -86 -129 -86h-88v167zM801 647h125q57 0 88.5 -25t31.5 -70q0 -90 -147 -90h-98v185zM900 -50
q-149 0 -285 58.5t-234 156.5t-156.5 234t-58.5 285t58.5 285t156.5 234t234 156.5t285 58.5t285 -58.5t234 -156.5t156.5 -234t58.5 -285t-58.5 -285t-156.5 -234t-234 -156.5t-285 -58.5z" />
    <glyph glyph-name="uni1F152" unicode="C&#x25cb;&#x25cf;" 
d="M769 730q0 88 37.5 136.5t105.5 48.5q59 0 95 -37t36 -97h168v19q0 113 -84.5 186t-216.5 73q-150 0 -234 -87.5t-84 -242.5v-78q0 -156 83.5 -242.5t234.5 -86.5q132 0 216.5 71t84.5 182v19h-168q0 -58 -36 -93t-95 -35q-69 0 -106 47.5t-37 135.5v81zM900 -50
q-149 0 -285 58.5t-234 156.5t-156.5 234t-58.5 285t58.5 285t156.5 234t234 156.5t285 58.5t285 -58.5t234 -156.5t156.5 -234t58.5 -285t-58.5 -285t-156.5 -234t-234 -156.5t-285 -58.5z" />
    <glyph glyph-name="uni1F153" unicode="D&#x25cb;&#x25cf;" 
d="M629 1047v-712h287q164 0 248.5 91t84.5 266q0 174 -85 264.5t-248 90.5h-287zM800 909h91q93 0 137 -53t44 -166q0 -112 -44 -165t-137 -53h-91v437zM900 -50q-149 0 -285 58.5t-234 156.5t-156.5 234t-58.5 285t58.5 285t156.5 234t234 156.5t285 58.5t285 -58.5
t234 -156.5t156.5 -234t58.5 -285t-58.5 -285t-156.5 -234t-234 -156.5t-285 -58.5z" />
    <glyph glyph-name="uni1F154" unicode="E&#x25cb;&#x25cf;" 
d="M1152 470h-326v162h307v124h-307v155h326v136h-496v-712h496v135zM900 -50q-149 0 -285 58.5t-234 156.5t-156.5 234t-58.5 285t58.5 285t156.5 234t234 156.5t285 58.5t285 -58.5t234 -156.5t156.5 -234t58.5 -285t-58.5 -285t-156.5 -234t-234 -156.5t-285 -58.5z" />
    <glyph glyph-name="uni1F155" unicode="F&#x25cb;&#x25cf;" 
d="M857 335v267h287v141h-287v164h315v140h-491v-712h176zM900 -50q-149 0 -285 58.5t-234 156.5t-156.5 234t-58.5 285t58.5 285t156.5 234t234 156.5t285 58.5t285 -58.5t234 -156.5t156.5 -234t58.5 -285t-58.5 -285t-156.5 -234t-234 -156.5t-285 -58.5z" />
    <glyph glyph-name="uni1F156" unicode="G&#x25cb;&#x25cf;" 
d="M1212 810q-7 111 -91 180t-211 69q-150 0 -238.5 -87.5t-88.5 -236.5v-84q0 -154 87 -241.5t239 -87.5q139 0 221.5 72.5t82.5 194.5v131h-310v-118h146v-32q-1 -52 -39 -83t-100 -31q-75 0 -115 48.5t-40 139.5v89q0 91 39.5 140t111.5 49q56 0 94.5 -30t45.5 -82h166z
M900 -50q-149 0 -285 58.5t-234 156.5t-156.5 234t-58.5 285t58.5 285t156.5 234t234 156.5t285 58.5t285 -58.5t234 -156.5t156.5 -234t58.5 -285t-58.5 -285t-156.5 -234t-234 -156.5t-285 -58.5z" />
    <glyph glyph-name="uni1F157" unicode="H&#x25cb;&#x25cf;" 
d="M1209 335v712h-169v-278h-279v278h-170v-712h170v286h279v-286h169zM900 -50q-149 0 -285 58.5t-234 156.5t-156.5 234t-58.5 285t58.5 285t156.5 234t234 156.5t285 58.5t285 -58.5t234 -156.5t156.5 -234t58.5 -285t-58.5 -285t-156.5 -234t-234 -156.5t-285 -58.5z
" />
    <glyph glyph-name="uni1F158" unicode="I&#x25cb;&#x25cf;" 
d="M992 335v712h-184v-712h184zM900 -50q-149 0 -285 58.5t-234 156.5t-156.5 234t-58.5 285t58.5 285t156.5 234t234 156.5t285 58.5t285 -58.5t234 -156.5t156.5 -234t58.5 -285t-58.5 -285t-156.5 -234t-234 -156.5t-285 -58.5z" />
    <glyph glyph-name="uni1F159" unicode="J&#x25cb;&#x25cf;" 
d="M607 563q0 -112 70 -179t188 -67q124 0 193.5 67.5t69.5 188.5v468h-178v-467q0 -98 -88 -98q-38 0 -60 23t-23 64h-172zM900 -50q-149 0 -285 58.5t-234 156.5t-156.5 234t-58.5 285t58.5 285t156.5 234t234 156.5t285 58.5t285 -58.5t234 -156.5t156.5 -234t58.5 -285
t-58.5 -285t-156.5 -234t-234 -156.5t-285 -58.5z" />
    <glyph glyph-name="uni1F15A" unicode="K&#x25cb;&#x25cf;" 
d="M1235 1047h-194l-253 -297h-4v297h-168v-712h168v208l66 74l187 -282h206l-263 396zM900 -50q-149 0 -285 58.5t-234 156.5t-156.5 234t-58.5 285t58.5 285t156.5 234t234 156.5t285 58.5t285 -58.5t234 -156.5t156.5 -234t58.5 -285t-58.5 -285t-156.5 -234t-234 -156.5
t-285 -58.5z" />
    <glyph glyph-name="uni1F15B" unicode="L&#x25cb;&#x25cf;" 
d="M1179 493h-305v560h-178v-712h483v152zM900 -50q-149 0 -285 58.5t-234 156.5t-156.5 234t-58.5 285t58.5 285t156.5 234t234 156.5t285 58.5t285 -58.5t234 -156.5t156.5 -234t58.5 -285t-58.5 -285t-156.5 -234t-234 -156.5t-285 -58.5z" />
    <glyph glyph-name="uni1F15C" unicode="M&#x25cb;&#x25cf;" 
d="M689 335v447h4l155 -356h103l154 354h4v-445h154v712h-170l-192 -428h-3l-189 428h-172v-712h152zM900 -50q-149 0 -285 58.5t-234 156.5t-156.5 234t-58.5 285t58.5 285t156.5 234t234 156.5t285 58.5t285 -58.5t234 -156.5t156.5 -234t58.5 -285t-58.5 -285
t-156.5 -234t-234 -156.5t-285 -58.5z" />
    <glyph glyph-name="uni1F15D" unicode="N&#x25cb;&#x25cf;" 
d="M755 335v434h5l307 -434h137v712h-159v-432h-4l-309 432h-136v-712h159zM900 -50q-149 0 -285 58.5t-234 156.5t-156.5 234t-58.5 285t58.5 285t156.5 234t234 156.5t285 58.5t285 -58.5t234 -156.5t156.5 -234t58.5 -285t-58.5 -285t-156.5 -234t-234 -156.5t-285 -58.5
z" />
    <glyph glyph-name="uni1F15E" unicode="O&#x25cb;&#x25cf;" 
d="M1228 650v81q0 154 -87 241t-240 87q-154 0 -241.5 -87t-87.5 -241v-81q0 -154 87.5 -241t241.5 -87q153 0 240 87t87 241zM1050 733v-85q0 -85 -39.5 -133.5t-109.5 -48.5q-71 0 -111 48t-40 134v85q0 85 40 133.5t111 48.5q70 0 109.5 -48.5t39.5 -133.5zM900 -50
q-149 0 -285 58.5t-234 156.5t-156.5 234t-58.5 285t58.5 285t156.5 234t234 156.5t285 58.5t285 -58.5t234 -156.5t156.5 -234t58.5 -285t-58.5 -285t-156.5 -234t-234 -156.5t-285 -58.5z" />
    <glyph glyph-name="uni1F15F" unicode="P&#x25cb;&#x25cf;" 
d="M964 1047h-309v-712h178v217h129q118 0 189.5 67t71.5 178q0 113 -71 181.5t-188 68.5zM1050 797q0 -53 -30 -82t-86 -29h-109v224h109q55 0 85.5 -30t30.5 -83zM900 -50q-149 0 -285 58.5t-234 156.5t-156.5 234t-58.5 285t58.5 285t156.5 234t234 156.5t285 58.5
t285 -58.5t234 -156.5t156.5 -234t58.5 -285t-58.5 -285t-156.5 -234t-234 -156.5t-285 -58.5z" />
    <glyph glyph-name="uni1F160" unicode="Q&#x25cb;&#x25cf;" 
d="M1219 270l-93 126q101 87 101 254v81q0 154 -86.5 241t-240.5 87t-241 -87t-87 -241v-81q0 -154 87 -241t241 -87q54 0 97 12l43 -64h179zM894 465q-68 3 -106.5 51t-38.5 131v86q0 86 40 135t111 49q70 0 110 -49t40 -135v-86q0 -76 -31 -123l-31 39h-131l68 -95
q-13 -3 -31 -3zM900 -50q-149 0 -285 58.5t-234 156.5t-156.5 234t-58.5 285t58.5 285t156.5 234t234 156.5t285 58.5t285 -58.5t234 -156.5t156.5 -234t58.5 -285t-58.5 -285t-156.5 -234t-234 -156.5t-285 -58.5z" />
    <glyph glyph-name="uni1F161" unicode="R&#x25cb;&#x25cf;" 
d="M789 712v199h122q55 0 85.5 -26.5t30.5 -74.5q0 -47 -31 -72.5t-87 -25.5h-120zM932 1047h-307v-712h167v254h112l125 -254h191l-151 284q62 23 97.5 76t35.5 123q0 107 -71.5 168t-198.5 61zM900 -50q-149 0 -285 58.5t-234 156.5t-156.5 234t-58.5 285t58.5 285
t156.5 234t234 156.5t285 58.5t285 -58.5t234 -156.5t156.5 -234t58.5 -285t-58.5 -285t-156.5 -234t-234 -156.5t-285 -58.5z" />
    <glyph glyph-name="uni1F162" unicode="S&#x25cb;&#x25cf;" 
d="M601 545q4 -103 83.5 -162.5t212.5 -59.5q139 0 220.5 62t81.5 168q0 164 -202 204l-109 21q-99 19 -99 72q0 35 31 56.5t82 21.5t83.5 -23t37.5 -62h164q-4 97 -82 157t-202 60q-128 0 -207 -61.5t-79 -161.5q0 -79 50.5 -130.5t145.5 -69.5l105 -22q61 -12 86 -29.5
t25 -46.5q0 -38 -33.5 -60t-90.5 -22t-93.5 24t-40.5 64h-170zM900 -50q-149 0 -285 58.5t-234 156.5t-156.5 234t-58.5 285t58.5 285t156.5 234t234 156.5t285 58.5t285 -58.5t234 -156.5t156.5 -234t58.5 -285t-58.5 -285t-156.5 -234t-234 -156.5t-285 -58.5z" />
    <glyph glyph-name="uni1F163" unicode="T&#x25cb;&#x25cf;" 
d="M989 313v563h206v149h-590v-149h206v-563h178zM900 -50q-149 0 -285 58.5t-234 156.5t-156.5 234t-58.5 285t58.5 285t156.5 234t234 156.5t285 58.5t285 -58.5t234 -156.5t156.5 -234t58.5 -285t-58.5 -285t-156.5 -234t-234 -156.5t-285 -58.5z" />
    <glyph glyph-name="uni1F164" unicode="U&#x25cb;&#x25cf;" 
d="M900 450q-61 0 -96.5 33.5t-35.5 91.5v450h-175v-471q0 -115 84 -184t223 -69t223 69.5t84 183.5v471h-174v-450q0 -58 -35.5 -91.5t-97.5 -33.5zM900 -50q-149 0 -285 58.5t-234 156.5t-156.5 234t-58.5 285t58.5 285t156.5 234t234 156.5t285 58.5t285 -58.5
t234 -156.5t156.5 -234t58.5 -285t-58.5 -285t-156.5 -234t-234 -156.5t-285 -58.5z" />
    <glyph glyph-name="uni1F165" unicode="V&#x25cb;&#x25cf;" 
d="M1009 311l238 711h-200l-142 -524h-10l-141 524h-201l239 -711h217zM900 -50q-149 0 -285 58.5t-234 156.5t-156.5 234t-58.5 285t58.5 285t156.5 234t234 156.5t285 58.5t285 -58.5t234 -156.5t156.5 -234t58.5 -285t-58.5 -285t-156.5 -234t-234 -156.5t-285 -58.5z
" />
    <glyph glyph-name="uni1F166" unicode="W&#x25cb;&#x25cf;" 
d="M898 777h4l123 -464h154l184 712h-173l-97 -495h-5l-119 495h-138l-119 -495h-5l-96 495h-174l184 -712h155zM900 -50q-149 0 -285 58.5t-234 156.5t-156.5 234t-58.5 285t58.5 285t156.5 234t234 156.5t285 58.5t285 -58.5t234 -156.5t156.5 -234t58.5 -285t-58.5 -285
t-156.5 -234t-234 -156.5t-285 -58.5z" />
    <glyph glyph-name="uni1F167" unicode="X&#x25cb;&#x25cf;" 
d="M1242 1047h-201l-132 -236h-4l-135 236h-210l222 -354l-224 -358h194l140 229h4l141 -229h203l-227 356zM900 -50q-149 0 -285 58.5t-234 156.5t-156.5 234t-58.5 285t58.5 285t156.5 234t234 156.5t285 58.5t285 -58.5t234 -156.5t156.5 -234t58.5 -285t-58.5 -285
t-156.5 -234t-234 -156.5t-285 -58.5z" />
    <glyph glyph-name="uni1F168" unicode="Y&#x25cb;&#x25cf;" 
d="M809 324h182v254l248 457h-194l-143 -288h-4l-142 288h-195l248 -457v-254zM900 -50q-149 0 -285 58.5t-234 156.5t-156.5 234t-58.5 285t58.5 285t156.5 234t234 156.5t285 58.5t285 -58.5t234 -156.5t156.5 -234t58.5 -285t-58.5 -285t-156.5 -234t-234 -156.5
t-285 -58.5z" />
    <glyph glyph-name="uni1F169" unicode="Z&#x25cb;&#x25cf;" 
d="M622 335h559v146h-343v2l333 448v116h-544v-147h327v-2l-332 -447v-116zM900 -50q-149 0 -285 58.5t-234 156.5t-156.5 234t-58.5 285t58.5 285t156.5 234t234 156.5t285 58.5t285 -58.5t234 -156.5t156.5 -234t58.5 -285t-58.5 -285t-156.5 -234t-234 -156.5t-285 -58.5
z" />
    <glyph glyph-name="uni1F170" unicode="A&#x25a1;&#x25a0;" 
d="M987 622h-174l83 271h8zM731 338l52 160h234l52 -160h177l-243 712h-205l-244 -712h177zM436 1397h928q103 0 175.5 -71.5t72.5 -172.5v-938q0 -101 -72.5 -172.5t-175.5 -71.5h-928q-103 0 -175.5 71.5t-72.5 172.5v938q0 101 72.5 172.5t175.5 71.5z" />
    <glyph glyph-name="uni1F171" unicode="B&#x25a1;&#x25a0;" 
d="M634 335h330q114 0 185.5 55t71.5 146q0 73 -44 119t-117 57v2q57 14 90.5 54.5t33.5 101.5q0 82 -60 129.5t-162 47.5h-328v-712zM801 923h117q46 0 73 -21.5t27 -59.5q0 -86 -129 -86h-88v167zM801 647h125q58 0 89 -25t31 -70q0 -90 -147 -90h-98v185zM436 1397h928
q103 0 175.5 -71.5t72.5 -172.5v-938q0 -101 -72.5 -172.5t-175.5 -71.5h-928q-103 0 -175.5 71.5t-72.5 172.5v938q0 101 72.5 172.5t175.5 71.5z" />
    <glyph glyph-name="uni1F172" unicode="C&#x25a1;&#x25a0;" 
d="M769 730q0 88 37.5 136.5t105.5 48.5q59 0 95 -37t36 -97h168v19q0 114 -85 186.5t-216 72.5q-150 0 -234 -87.5t-84 -242.5v-78q0 -155 83.5 -242t234.5 -87q131 0 216 71t85 182v19h-168q0 -58 -35.5 -93t-95.5 -35q-69 0 -106 47.5t-37 135.5v81zM436 1397h928
q103 0 175.5 -71.5t72.5 -172.5v-938q0 -101 -72.5 -172.5t-175.5 -71.5h-928q-103 0 -175.5 71.5t-72.5 172.5v938q0 101 72.5 172.5t175.5 71.5z" />
    <glyph glyph-name="uni1F173" unicode="D&#x25a1;&#x25a0;" 
d="M610 1047v-712h286q166 0 250 91.5t84 265.5q0 173 -84 264t-250 91h-286zM781 909h90q94 0 138 -53.5t44 -165.5t-44 -165t-138 -53h-90v437zM436 1397h928q103 0 175.5 -71.5t72.5 -172.5v-938q0 -101 -72.5 -172.5t-175.5 -71.5h-928q-103 0 -175.5 71.5t-72.5 172.5
v938q0 101 72.5 172.5t175.5 71.5z" />
    <glyph glyph-name="uni1F174" unicode="E&#x25a1;&#x25a0;" 
d="M1152 470h-326v162h307v124h-307v155h326v136h-496v-712h496v135zM436 1397h928q103 0 175.5 -71.5t72.5 -172.5v-938q0 -101 -72.5 -172.5t-175.5 -71.5h-928q-103 0 -175.5 71.5t-72.5 172.5v938q0 101 72.5 172.5t175.5 71.5z" />
    <glyph glyph-name="uni1F175" unicode="F&#x25a1;&#x25a0;" 
d="M857 335v267h287v141h-287v164h315v140h-491v-712h176zM436 1397h928q103 0 175.5 -71.5t72.5 -172.5v-938q0 -101 -72.5 -172.5t-175.5 -71.5h-928q-103 0 -175.5 71.5t-72.5 172.5v938q0 101 72.5 172.5t175.5 71.5z" />
    <glyph glyph-name="uni1F176" unicode="G&#x25a1;&#x25a0;" 
d="M1212 810q-8 109 -90 179t-212 70q-152 0 -239.5 -88t-87.5 -236v-84q0 -152 85 -240.5t241 -88.5q144 0 224 74.5t80 192.5v131h-310v-118h146v-32q-1 -50 -37.5 -82t-101.5 -32q-77 0 -116 49.5t-39 138.5v89q0 91 39.5 140t111.5 49q57 0 94.5 -30.5t45.5 -81.5h166z
M436 1397h928q103 0 175.5 -71.5t72.5 -172.5v-938q0 -101 -72.5 -172.5t-175.5 -71.5h-928q-103 0 -175.5 71.5t-72.5 172.5v938q0 101 72.5 172.5t175.5 71.5z" />
    <glyph glyph-name="uni1F177" unicode="H&#x25a1;&#x25a0;" 
d="M1209 335v712h-169v-278h-279v278h-170v-712h170v286h279v-286h169zM436 1397h928q103 0 175.5 -71.5t72.5 -172.5v-938q0 -101 -72.5 -172.5t-175.5 -71.5h-928q-103 0 -175.5 71.5t-72.5 172.5v938q0 101 72.5 172.5t175.5 71.5z" />
    <glyph glyph-name="uni1F178" unicode="I&#x25a1;&#x25a0;" 
d="M992 335v712h-184v-712h184zM436 1397h928q103 0 175.5 -71.5t72.5 -172.5v-938q0 -101 -72.5 -172.5t-175.5 -71.5h-928q-103 0 -175.5 71.5t-72.5 172.5v938q0 101 72.5 172.5t175.5 71.5z" />
    <glyph glyph-name="uni1F179" unicode="J&#x25a1;&#x25a0;" 
d="M607 569q0 -110 68.5 -178.5t189.5 -68.5q123 0 193 67.5t70 189.5v468h-178v-467q0 -98 -88 -98q-38 0 -60 23t-23 64h-172zM436 1397h928q103 0 175.5 -71.5t72.5 -172.5v-938q0 -101 -72.5 -172.5t-175.5 -71.5h-928q-103 0 -175.5 71.5t-72.5 172.5v938
q0 101 72.5 172.5t175.5 71.5z" />
    <glyph glyph-name="uni1F17A" unicode="K&#x25a1;&#x25a0;" 
d="M1235 1047h-194l-253 -297h-4v297h-168v-712h168v208l66 74l187 -282h206q-32 44 -129 195.5t-134 200.5zM436 1397h928q103 0 175.5 -71.5t72.5 -172.5v-938q0 -101 -72.5 -172.5t-175.5 -71.5h-928q-103 0 -175.5 71.5t-72.5 172.5v938q0 101 72.5 172.5t175.5 71.5z
" />
    <glyph glyph-name="uni1F17B" unicode="L&#x25a1;&#x25a0;" 
d="M1187 487h-305v560h-179v-712h484v152zM436 1397h928q103 0 175.5 -71.5t72.5 -172.5v-938q0 -101 -72.5 -172.5t-175.5 -71.5h-928q-103 0 -175.5 71.5t-72.5 172.5v938q0 101 72.5 172.5t175.5 71.5z" />
    <glyph glyph-name="uni1F17C" unicode="M&#x25a1;&#x25a0;" 
d="M687 336v441h2l156 -334h110l154 331h2v-438h159v711h-180l-190 -402h-1l-188 402h-181v-711h157zM436 1397h928q103 0 175.5 -71.5t72.5 -172.5v-938q0 -101 -72.5 -172.5t-175.5 -71.5h-928q-103 0 -175.5 71.5t-72.5 172.5v938q0 101 72.5 172.5t175.5 71.5z" />
    <glyph glyph-name="uni1F17D" unicode="N&#x25a1;&#x25a0;" 
d="M755 335v434h5l307 -434h137v712h-159v-432h-4l-309 432h-136v-712h159zM436 1397h928q103 0 175.5 -71.5t72.5 -172.5v-938q0 -101 -72.5 -172.5t-175.5 -71.5h-928q-103 0 -175.5 71.5t-72.5 172.5v938q0 101 72.5 172.5t175.5 71.5z" />
    <glyph glyph-name="uni1F17E" unicode="O&#x25a1;&#x25a0;" 
d="M1228 650v81q0 154 -87 241t-240 87q-154 0 -241.5 -87t-87.5 -241v-81q0 -154 87.5 -241t241.5 -87q153 0 240 87t87 241zM1050 733v-85q0 -85 -39.5 -133.5t-109.5 -48.5q-71 0 -111 48t-40 134v85q0 85 40 133.5t111 48.5q70 0 109.5 -48.5t39.5 -133.5zM436 1397h928
q103 0 175.5 -71.5t72.5 -172.5v-938q0 -101 -72.5 -172.5t-175.5 -71.5h-928q-103 0 -175.5 71.5t-72.5 172.5v938q0 101 72.5 172.5t175.5 71.5z" />
    <glyph glyph-name="uni1F17F" unicode="P&#x25a1;&#x25a0;" 
d="M964 1047h-309v-712h178v217h129q121 0 191 67.5t70 177.5q0 111 -69.5 180.5t-189.5 69.5zM1050 797q0 -53 -30 -82t-86 -29h-109v224h109q55 0 85.5 -29.5t30.5 -83.5zM436 1397h928q103 0 175.5 -71.5t72.5 -172.5v-938q0 -101 -72.5 -172.5t-175.5 -71.5h-928
q-103 0 -175.5 71.5t-72.5 172.5v938q0 101 72.5 172.5t175.5 71.5z" />
    <glyph glyph-name="uni1F180" unicode="Q&#x25a1;&#x25a0;" 
d="M1219 270l-93 126q101 87 101 254v81q0 154 -86.5 241t-240.5 87t-241 -87t-87 -241v-81q0 -154 87 -241t241 -87q54 0 97 12l43 -64h179zM894 465q-68 3 -106.5 51t-38.5 131v86q0 86 40 135t111 49q70 0 110 -49t40 -135v-86q0 -76 -31 -123l-31 39h-131l68 -95
q-13 -3 -31 -3zM436 1397h928q103 0 175.5 -71.5t72.5 -172.5v-938q0 -101 -72.5 -172.5t-175.5 -71.5h-928q-103 0 -175.5 71.5t-72.5 172.5v938q0 101 72.5 172.5t175.5 71.5z" />
    <glyph glyph-name="uni1F181" unicode="R&#x25a1;&#x25a0;" 
d="M789 712v199h122q54 0 85 -26t31 -75q0 -47 -31 -72.5t-87 -25.5h-120zM932 1047h-307v-712h167v254h112l125 -254h191l-151 284q60 22 96.5 74t36.5 125q0 107 -71 168t-199 61zM436 1397h928q103 0 175.5 -71.5t72.5 -172.5v-938q0 -101 -72.5 -172.5t-175.5 -71.5
h-928q-103 0 -175.5 71.5t-72.5 172.5v938q0 101 72.5 172.5t175.5 71.5z" />
    <glyph glyph-name="uni1F182" unicode="S&#x25a1;&#x25a0;" 
d="M601 545q4 -103 83.5 -162.5t212.5 -59.5q139 0 220.5 62t81.5 168q0 165 -202 203l-109 22q-99 19 -99 72q0 35 31 56.5t82 21.5t83.5 -23t37.5 -62h164q-4 97 -82 157t-202 60q-128 0 -207 -61.5t-79 -161.5q0 -79 50.5 -130.5t145.5 -69.5l105 -22q61 -12 86 -29.5
t25 -47.5q0 -37 -33.5 -59t-90.5 -22t-93.5 24t-40.5 64h-170zM436 1397h928q103 0 175.5 -71.5t72.5 -172.5v-938q0 -101 -72.5 -172.5t-175.5 -71.5h-928q-103 0 -175.5 71.5t-72.5 172.5v938q0 101 72.5 172.5t175.5 71.5z" />
    <glyph glyph-name="uni1F183" unicode="T&#x25a1;&#x25a0;" 
d="M989 335v563h206v149h-590v-149h206v-563h178zM436 1397h928q103 0 175.5 -71.5t72.5 -172.5v-938q0 -101 -72.5 -172.5t-175.5 -71.5h-928q-103 0 -175.5 71.5t-72.5 172.5v938q0 101 72.5 172.5t175.5 71.5z" />
    <glyph glyph-name="uni1F184" unicode="U&#x25a1;&#x25a0;" 
d="M900 471q-61 0 -96.5 33.5t-35.5 91.5v451h-175v-472q0 -115 84 -184t223 -69t223 69.5t84 183.5v472h-174v-451q0 -58 -36 -91.5t-97 -33.5zM436 1397h928q103 0 175.5 -71.5t72.5 -172.5v-938q0 -101 -72.5 -172.5t-175.5 -71.5h-928q-103 0 -175.5 71.5t-72.5 172.5
v938q0 101 72.5 172.5t175.5 71.5z" />
    <glyph glyph-name="uni1F185" unicode="V&#x25a1;&#x25a0;" 
d="M1009 335l238 712h-200l-142 -524h-10l-141 524h-201l239 -712h217zM436 1397h928q103 0 175.5 -71.5t72.5 -172.5v-938q0 -101 -72.5 -172.5t-175.5 -71.5h-928q-103 0 -175.5 71.5t-72.5 172.5v938q0 101 72.5 172.5t175.5 71.5z" />
    <glyph glyph-name="uni1F186" unicode="W&#x25a1;&#x25a0;" 
d="M898 798h4l123 -463h154l184 712h-173l-97 -496h-5l-119 496h-138l-119 -496h-5l-96 496h-174l184 -712h155zM436 1397h928q103 0 175.5 -71.5t72.5 -172.5v-938q0 -101 -72.5 -172.5t-175.5 -71.5h-928q-103 0 -175.5 71.5t-72.5 172.5v938q0 101 72.5 172.5t175.5 71.5
z" />
    <glyph glyph-name="uni1F187" unicode="X&#x25a1;&#x25a0;" 
d="M1242 1050h-201l-132 -236h-4l-135 236h-210l222 -354l-224 -358h194l140 229h4l141 -229h203l-227 356zM436 1397h928q103 0 175.5 -71.5t72.5 -172.5v-938q0 -101 -72.5 -172.5t-175.5 -71.5h-928q-103 0 -175.5 71.5t-72.5 172.5v938q0 101 72.5 172.5t175.5 71.5z
" />
    <glyph glyph-name="uni1F188" unicode="Y&#x25a1;&#x25a0;" 
d="M809 338h182v254l248 458h-194l-143 -289h-4l-142 289h-195l248 -458v-254zM436 1397h928q103 0 175.5 -71.5t72.5 -172.5v-938q0 -101 -72.5 -172.5t-175.5 -71.5h-928q-103 0 -175.5 71.5t-72.5 172.5v938q0 101 72.5 172.5t175.5 71.5z" />
    <glyph glyph-name="uni1F189" unicode="Z&#x25a1;&#x25a0;" 
d="M622 338h559v146h-343v2l333 448v116h-544v-146h327v-3l-332 -447v-116zM436 1397h928q103 0 175.5 -71.5t72.5 -172.5v-938q0 -101 -72.5 -172.5t-175.5 -71.5h-928q-103 0 -175.5 71.5t-72.5 172.5v938q0 101 72.5 172.5t175.5 71.5z" />
    <glyph glyph-name="plus.uc.whitecircle" unicode="&#x2b;&#x25cb;" 
d="M967 624v-195h-134v195h-192v132h192v190h134v-190h192v-132h-192zM900 91q120 0 229 46.5t188 126t125 189.5t46 231t-46 231t-125 189.5t-188 126t-229 46.5t-229 -46.5t-188 -126t-125 -189.5t-46 -231t46 -231t125 -189.5t188 -126t229 -46.5zM900 -50
q-200 0 -369 98t-267 267t-98 369t98 369t267 267t369 98t369 -98t267 -267t98 -369t-98 -369t-267 -267t-369 -98z" />
    <glyph glyph-name="minus.uc.whitecircle" unicode="&#x2212;&#x25cb;" 
d="M1141 619h-482v137h482v-137zM900 91q120 0 229 46.5t188 126t125 189.5t46 231t-46 231t-125 189.5t-188 126t-229 46.5t-229 -46.5t-188 -126t-125 -189.5t-46 -231t46 -231t125 -189.5t188 -126t229 -46.5zM900 -50q-200 0 -369 98t-267 267t-98 369t98 369t267 267
t369 98t369 -98t267 -267t98 -369t-98 -369t-267 -267t-369 -98z" />
    <glyph glyph-name="multiply.uc.whitecircle" unicode="&#xd7;&#x25cb;" 
d="M900 784l149 143l94 -97l-148 -143l148 -143l-94 -96l-149 143l-149 -143l-94 96l148 143l-148 143l95 97zM900 91q120 0 229 46.5t188 126t125 189.5t46 231t-46 231t-125 189.5t-188 126t-229 46.5t-229 -46.5t-188 -126t-125 -189.5t-46 -231t46 -231t125 -189.5
t188 -126t229 -46.5zM900 -50q-200 0 -369 98t-267 267t-98 369t98 369t267 267t369 98t369 -98t267 -267t98 -369t-98 -369t-267 -267t-369 -98z" />
    <glyph glyph-name="divide.uc.whitecircle" unicode="&#xf7;&#x25cb;" 
d="M1141 632h-482v111h482v-111zM816 889q0 36 23.5 58t59.5 22q37 0 61.5 -22.5t24.5 -57.5q0 -34 -24.5 -56.5t-61.5 -22.5q-35 0 -59 22.5t-24 56.5zM816 486q0 36 24 58t60 22t60.5 -22.5t24.5 -57.5q0 -34 -24 -56.5t-61 -22.5q-36 0 -60 22.5t-24 56.5zM900 91
q120 0 229 46.5t188 126t125 189.5t46 231t-46 231t-125 189.5t-188 126t-229 46.5t-229 -46.5t-188 -126t-125 -189.5t-46 -231t46 -231t125 -189.5t188 -126t229 -46.5zM900 -50q-200 0 -369 98t-267 267t-98 369t98 369t267 267t369 98t369 -98t267 -267t98 -369
t-98 -369t-267 -267t-369 -98z" />
    <glyph glyph-name="equal.uc.whitecircle" unicode="&#x3d;&#x25cb;" 
d="M1143 509h-485v121h485v-121zM1143 743h-485v122h485v-122zM900 91q120 0 229 46.5t188 126t125 189.5t46 231t-46 231t-125 189.5t-188 126t-229 46.5t-229 -46.5t-188 -126t-125 -189.5t-46 -231t46 -231t125 -189.5t188 -126t229 -46.5zM900 -50q-200 0 -369 98
t-267 267t-98 369t98 369t267 267t369 98t369 -98t267 -267t98 -369t-98 -369t-267 -267t-369 -98z" />
    <glyph glyph-name="greater.uc.whitecircle" unicode="&#x3e;&#x25cb;" 
d="M1162 730v-94l-473 -235v150l292 132v6l-292 132v154zM900 91q120 0 229 46.5t188 126t125 189.5t46 231t-46 231t-125 189.5t-188 126t-229 46.5t-229 -46.5t-188 -126t-125 -189.5t-46 -231t46 -231t125 -189.5t188 -126t229 -46.5zM900 -50q-200 0 -369 98t-267 267
t-98 369t98 369t267 267t369 98t369 -98t267 -267t98 -369t-98 -369t-267 -267t-369 -98z" />
    <glyph glyph-name="less.uc.whitecircle" unicode="&#x3c;&#x25cb;" 
d="M638 636v94l473 245v-154l-292 -132v-6l292 -132v-150zM900 91q120 0 229 46.5t188 126t125 189.5t46 231t-46 231t-125 189.5t-188 126t-229 46.5t-229 -46.5t-188 -126t-125 -189.5t-46 -231t46 -231t125 -189.5t188 -126t229 -46.5zM900 -50q-200 0 -369 98t-267 267
t-98 369t98 369t267 267t369 98t369 -98t267 -267t98 -369t-98 -369t-267 -267t-369 -98z" />
    <glyph glyph-name="numbersign.whitecircle" unicode="&#x23;&#x25cb;" 
d="M1174 745h-99l-23 -107h97l-22 -108h-97l-36 -169h-112l35 169h-104l-36 -169h-112l35 169h-95l21 108h95l25 107h-94l20 108h94l34 161h112l-34 -161h105l33 161h113l-34 -161h100zM850 753l-27 -130h123l27 130h-123zM900 91q120 0 229 46.5t188 126t125 189.5t46 231
t-46 231t-125 189.5t-188 126t-229 46.5t-229 -46.5t-188 -126t-125 -189.5t-46 -231t46 -231t125 -189.5t188 -126t229 -46.5zM900 -50q-200 0 -369 98t-267 267t-98 369t98 369t267 267t369 98t369 -98t267 -267t98 -369t-98 -369t-267 -267t-369 -98z" />
    <glyph glyph-name="uni25BC.whitecircle" unicode="&#x25bc;&#x25cb;" 
d="M1203 891l-303 -527l-302 527h605zM900 91q120 0 229 46.5t188 126t125 189.5t46 231t-46 231t-125 189.5t-188 126t-229 46.5t-229 -46.5t-188 -126t-125 -189.5t-46 -231t46 -231t125 -189.5t188 -126t229 -46.5zM900 -50q-200 0 -369 98t-267 267t-98 369t98 369
t267 267t369 98t369 -98t267 -267t98 -369t-98 -369t-267 -267t-369 -98z" />
    <glyph glyph-name="uni25B2.whitecircle" unicode="&#x25b2;&#x25cb;" 
d="M1203 484h-605l302 527zM900 91q120 0 229 46.5t188 126t125 189.5t46 231t-46 231t-125 189.5t-188 126t-229 46.5t-229 -46.5t-188 -126t-125 -189.5t-46 -231t46 -231t125 -189.5t188 -126t229 -46.5zM900 -50q-200 0 -369 98t-267 267t-98 369t98 369t267 267t369 98
t369 -98t267 -267t98 -369t-98 -369t-267 -267t-369 -98z" />
    <glyph glyph-name="uni25C0.whitecircle" unicode="&#x25c0;&#x25cb;" 
d="M1102 385l-525 304l525 303v-607zM900 91q120 0 229 46.5t188 126t125 189.5t46 231t-46 231t-125 189.5t-188 126t-229 46.5t-229 -46.5t-188 -126t-125 -189.5t-46 -231t46 -231t125 -189.5t188 -126t229 -46.5zM900 -50q-200 0 -369 98t-267 267t-98 369t98 369
t267 267t369 98t369 -98t267 -267t98 -369t-98 -369t-267 -267t-369 -98z" />
    <glyph glyph-name="uni25B6.whitecircle" unicode="&#x25b6;&#x25cb;" 
d="M698 385v607l525 -303zM900 91q120 0 229 46.5t188 126t125 189.5t46 231t-46 231t-125 189.5t-188 126t-229 46.5t-229 -46.5t-188 -126t-125 -189.5t-46 -231t46 -231t125 -189.5t188 -126t229 -46.5zM900 -50q-200 0 -369 98t-267 267t-98 369t98 369t267 267t369 98
t369 -98t267 -267t98 -369t-98 -369t-267 -267t-369 -98z" />
    <glyph glyph-name="question.whitecircle" unicode="&#x3f;&#x25cb;" 
d="M794 434q0 37 26 58.5t70 21.5t70.5 -22t26.5 -58q0 -35 -26.5 -57t-70.5 -22q-43 0 -69.5 22t-26.5 57zM816 570q0 1 -0.5 16t-0.5 18q-4 85 87 145q31 22 41.5 30t22.5 25.5t12 36.5q0 34 -23 51.5t-58 17.5q-39 0 -61 -22.5t-22 -57.5h-141q-2 100 64.5 150t170.5 50
q97 0 161.5 -48t64.5 -133q0 -39 -16 -70.5t-34 -47.5t-48 -36q-56 -38 -67 -54q-17 -21 -17 -53v-18h-136zM900 91q120 0 229 46.5t188 126t125 189.5t46 231t-46 231t-125 189.5t-188 126t-229 46.5t-229 -46.5t-188 -126t-125 -189.5t-46 -231t46 -231t125 -189.5
t188 -126t229 -46.5zM900 -50q-200 0 -369 98t-267 267t-98 369t98 369t267 267t369 98t369 -98t267 -267t98 -369t-98 -369t-267 -267t-369 -98z" />
    <glyph glyph-name="exclam.whitecircle" unicode="&#x21;&#x25cb;" 
d="M805 434q0 37 26.5 58.5t70.5 21.5t70 -22t26 -58t-26 -57.5t-70 -21.5t-70.5 22t-26.5 57zM818 1018h169l-18 -430h-133zM900 91q120 0 229 46.5t188 126t125 189.5t46 231t-46 231t-125 189.5t-188 126t-229 46.5t-229 -46.5t-188 -126t-125 -189.5t-46 -231t46 -231
t125 -189.5t188 -126t229 -46.5zM900 -50q-200 0 -369 98t-267 267t-98 369t98 369t267 267t369 98t369 -98t267 -267t98 -369t-98 -369t-267 -267t-369 -98z" />
    <glyph glyph-name="uni2717.whitecircle" unicode="&#x2717;&#x25cb;" 
d="M904 783l228 224l96 -98l-228 -225l228 -224l-96 -101l-228 225l-228 -225l-97 100l228 225l-228 226l96 99zM900 91q120 0 229 46.5t188 126t125 189.5t46 231t-46 231t-125 189.5t-188 126t-229 46.5t-229 -46.5t-188 -126t-125 -189.5t-46 -231t46 -231t125 -189.5
t188 -126t229 -46.5zM900 -50q-200 0 -369 98t-267 267t-98 369t98 369t267 267t369 98t369 -98t267 -267t98 -369t-98 -369t-267 -267t-369 -98z" />
    <glyph glyph-name="uni2713.whitecircle" unicode="&#x2713;&#x25cb;" 
d="M1301 874l-513 -507l-283 282l101 102l182 -181l414 409zM900 91q120 0 229 46.5t188 126t125 189.5t46 231t-46 231t-125 189.5t-188 126t-229 46.5t-229 -46.5t-188 -126t-125 -189.5t-46 -231t46 -231t125 -189.5t188 -126t229 -46.5zM900 -50q-200 0 -369 98
t-267 267t-98 369t98 369t267 267t369 98t369 -98t267 -267t98 -369t-98 -369t-267 -267t-369 -98z" />
    <glyph glyph-name="zero.whitesquare" unicode="&#x30;&#x25a1;" 
d="M788 709v-31q0 -95 29.5 -146t82.5 -51q52 0 82 51t30 146v31q0 95 -29.5 145.5t-82.5 50.5t-82.5 -50.5t-29.5 -145.5zM634 678v32q0 146 71.5 233.5t196.5 87.5q124 0 194 -87t70 -234v-32q0 -144 -71.5 -234t-196.5 -90q-124 0 -194 88t-70 236zM436 1397h928
q103 0 175.5 -71.5t72.5 -172.5v-938q0 -101 -72.5 -172.5t-175.5 -71.5h-928q-103 0 -175.5 71.5t-72.5 172.5v938q0 101 72.5 172.5t175.5 71.5zM1468 1134q0 54 -38 90.5t-94 36.5h-872q-55 0 -93.5 -37t-38.5 -90v-900q0 -52 39 -89.5t93 -37.5h872q55 0 93.5 37
t38.5 90v900z" />
    <glyph glyph-name="one.whitesquare" unicode="&#x31;&#x25a1;" 
d="M1015 366h-157v507h-8l-151 -103v141l159 108h157v-653zM436 1397h928q103 0 175.5 -71.5t72.5 -172.5v-938q0 -101 -72.5 -172.5t-175.5 -71.5h-928q-103 0 -175.5 71.5t-72.5 172.5v938q0 101 72.5 172.5t175.5 71.5zM1468 1134q0 54 -38 90.5t-94 36.5h-872
q-55 0 -93.5 -37t-38.5 -90v-900q0 -52 39 -89.5t93 -37.5h872q55 0 93.5 37t38.5 90v900z" />
    <glyph glyph-name="two.whitesquare" unicode="&#x32;&#x25a1;" 
d="M805 815h-147v4q0 90 64.5 151t178.5 61q107 0 173 -53t66 -136q0 -55 -29.5 -99t-92.5 -105l-137 -137v-7h270v-128h-485v99l244 241q26 26 39 41t24.5 37.5t11.5 44.5q0 34 -25.5 55.5t-63.5 21.5q-42 0 -66.5 -25t-24.5 -62v-4zM436 1397h928q103 0 175.5 -71.5
t72.5 -172.5v-938q0 -101 -72.5 -172.5t-175.5 -71.5h-928q-103 0 -175.5 71.5t-72.5 172.5v938q0 101 72.5 172.5t175.5 71.5zM1468 1134q0 54 -38 90.5t-94 36.5h-872q-55 0 -93.5 -37t-38.5 -90v-900q0 -52 39 -89.5t93 -37.5h872q55 0 93.5 37t38.5 90v900z" />
    <glyph glyph-name="three.whitesquare" unicode="&#x33;&#x25a1;" 
d="M827 640v120h69q42 0 68.5 22t26.5 57q-1 33 -27 53.5t-68 20.5t-69 -22.5t-29 -54.5h-145q2 88 66.5 141.5t179.5 53.5q110 0 176 -47.5t67 -124.5q1 -58 -38.5 -98t-86.5 -48v-8q55 -5 99.5 -46t45.5 -109q1 -89 -74 -142t-192 -53q-115 0 -183.5 55t-70.5 140h144
q3 -33 33.5 -54t76.5 -21q50 0 81 23.5t31 59.5q-1 37 -30.5 59.5t-78.5 22.5h-72zM436 1397h928q103 0 175.5 -71.5t72.5 -172.5v-938q0 -101 -72.5 -172.5t-175.5 -71.5h-928q-103 0 -175.5 71.5t-72.5 172.5v938q0 101 72.5 172.5t175.5 71.5zM1468 1134q0 54 -38 90.5
t-94 36.5h-872q-55 0 -93.5 -37t-38.5 -90v-900q0 -52 39 -89.5t93 -37.5h872q55 0 93.5 37t38.5 90v900z" />
    <glyph glyph-name="four.whitesquare" unicode="&#x34;&#x25a1;" 
d="M865 1019h226v-416h80v-126h-80v-111h-148v111h-327v128q40 71 125 209.5t124 204.5zM754 603h189v299h-8q-111 -171 -181 -296v-3zM436 1397h928q103 0 175.5 -71.5t72.5 -172.5v-938q0 -101 -72.5 -172.5t-175.5 -71.5h-928q-103 0 -175.5 71.5t-72.5 172.5v938
q0 101 72.5 172.5t175.5 71.5zM1468 1134q0 54 -38 90.5t-94 36.5h-872q-55 0 -93.5 -37t-38.5 -90v-900q0 -52 39 -89.5t93 -37.5h872q55 0 93.5 37t38.5 90v900z" />
    <glyph glyph-name="five.whitesquare" unicode="&#x35;&#x25a1;" 
d="M657 545h145q6 -33 36.5 -51t70.5 -18q45 0 78 30t33 79q0 45 -32.5 73.5t-78.5 28.5q-71 0 -101 -53h-138l28 385h433v-119h-312l-13 -159h7q14 23 51.5 41t88.5 18q94 0 156 -57t62 -154q0 -106 -72.5 -170.5t-191.5 -64.5q-109 0 -178.5 54t-71.5 137zM436 1397h928
q103 0 175.5 -71.5t72.5 -172.5v-938q0 -101 -72.5 -172.5t-175.5 -71.5h-928q-103 0 -175.5 71.5t-72.5 172.5v938q0 101 72.5 172.5t175.5 71.5zM1468 1134q0 54 -38 90.5t-94 36.5h-872q-55 0 -93.5 -37t-38.5 -90v-900q0 -52 39 -89.5t93 -37.5h872q55 0 93.5 37
t38.5 90v900z" />
    <glyph glyph-name="six.whitesquare" unicode="&#x36;&#x25a1;" 
d="M1159 588q0 -106 -70.5 -170.5t-186.5 -64.5q-118 0 -189.5 67t-71.5 177q0 113 94 247q9 16 61 84.5t70 89.5h180q-19 -20 -89.5 -108t-87.5 -113q-18 -26 -24 -37l10 -1q38 38 105 38q86 0 142.5 -59.5t56.5 -149.5zM789 582q0 -46 32 -76.5t79 -30.5q48 0 79.5 30.5
t31.5 76.5t-31.5 76.5t-79.5 30.5q-47 0 -79 -30.5t-32 -76.5zM436 1397h928q103 0 175.5 -71.5t72.5 -172.5v-938q0 -101 -72.5 -172.5t-175.5 -71.5h-928q-103 0 -175.5 71.5t-72.5 172.5v938q0 101 72.5 172.5t175.5 71.5zM1468 1134q0 54 -38 90.5t-94 36.5h-872
q-55 0 -93.5 -37t-38.5 -90v-900q0 -52 39 -89.5t93 -37.5h872q55 0 93.5 37t38.5 90v900z" />
    <glyph glyph-name="seven.whitesquare" unicode="&#x37;&#x25a1;" 
d="M662 1019h491v-129l-271 -524h-167l274 520v6h-327v127zM436 1397h928q103 0 175.5 -71.5t72.5 -172.5v-938q0 -101 -72.5 -172.5t-175.5 -71.5h-928q-103 0 -175.5 71.5t-72.5 172.5v938q0 101 72.5 172.5t175.5 71.5zM1468 1134q0 54 -38 90.5t-94 36.5h-872
q-55 0 -93.5 -37t-38.5 -90v-900q0 -52 39 -89.5t93 -37.5h872q55 0 93.5 37t38.5 90v900z" />
    <glyph glyph-name="eight.whitesquare" unicode="&#x38;&#x25a1;" 
d="M900 464q50 0 83 27t33 68q0 42 -32.5 69t-83.5 27t-83.5 -27.5t-32.5 -68.5t32.5 -68t83.5 -27zM900 757q42 0 69 23.5t27 59.5q0 35 -27 58t-69 23t-69 -23t-27 -58q0 -36 27 -59.5t69 -23.5zM899 354q-124 0 -198.5 53t-74.5 141q0 62 39.5 105.5t105.5 54.5v6
q-118 36 -118 143q0 77 68.5 125.5t178.5 48.5t178.5 -48.5t68.5 -125.5q0 -52 -31 -89t-87 -54v-6q66 -11 105.5 -54.5t39.5 -104.5q0 -88 -75.5 -141.5t-199.5 -53.5zM436 1397h928q103 0 175.5 -71.5t72.5 -172.5v-938q0 -101 -72.5 -172.5t-175.5 -71.5h-928
q-103 0 -175.5 71.5t-72.5 172.5v938q0 101 72.5 172.5t175.5 71.5zM1468 1134q0 54 -38 90.5t-94 36.5h-872q-55 0 -93.5 -37t-38.5 -90v-900q0 -52 39 -89.5t93 -37.5h872q55 0 93.5 37t38.5 90v900z" />
    <glyph glyph-name="nine.whitesquare" unicode="&#x39;&#x25a1;" 
d="M643 795q0 106 70.5 170.5t185.5 64.5q118 0 190 -67t72 -177t-92 -244q-24 -39 -133 -178h-180q19 20 89.5 108t87.5 114q14 21 23 36l-9 2q-38 -38 -106 -38q-86 0 -142 59.5t-56 149.5zM1012 800q0 46 -31.5 76.5t-79.5 30.5q-47 0 -79 -30.5t-32 -76.5t32 -76t79 -30
q48 0 79.5 30t31.5 76zM436 1397h928q103 0 175.5 -71.5t72.5 -172.5v-938q0 -101 -72.5 -172.5t-175.5 -71.5h-928q-103 0 -175.5 71.5t-72.5 172.5v938q0 101 72.5 172.5t175.5 71.5zM1468 1134q0 54 -38 90.5t-94 36.5h-872q-55 0 -93.5 -37t-38.5 -90v-900
q0 -52 39 -89.5t93 -37.5h872q55 0 93.5 37t38.5 90v900z" />
    <glyph glyph-name="plus.uc.whitesquare" unicode="&#x2b;&#x25a1;" 
d="M967 622v-195h-134v195h-192v132h192v191h134v-191h192v-132h-192zM436 1397h928q103 0 175.5 -71.5t72.5 -172.5v-938q0 -101 -72.5 -172.5t-175.5 -71.5h-928q-103 0 -175.5 71.5t-72.5 172.5v938q0 101 72.5 172.5t175.5 71.5zM1468 1134q0 54 -38 90.5t-94 36.5h-872
q-55 0 -93.5 -37t-38.5 -90v-900q0 -52 39 -89.5t93 -37.5h872q55 0 93.5 37t38.5 90v900z" />
    <glyph glyph-name="minus.uc.whitesquare" unicode="&#x2212;&#x25a1;" 
d="M1141 618h-482v136h482v-136zM436 1397h928q103 0 175.5 -71.5t72.5 -172.5v-938q0 -101 -72.5 -172.5t-175.5 -71.5h-928q-103 0 -175.5 71.5t-72.5 172.5v938q0 101 72.5 172.5t175.5 71.5zM1468 1134q0 54 -38 90.5t-94 36.5h-872q-55 0 -93.5 -37t-38.5 -90v-900
q0 -52 39 -89.5t93 -37.5h872q55 0 93.5 37t38.5 90v900z" />
    <glyph glyph-name="multiply.uc.whitesquare" unicode="&#xd7;&#x25a1;" 
d="M900 782l149 143l94 -96l-148 -143l148 -143l-94 -96l-149 143l-149 -143l-94 96l148 143l-148 143l95 96zM436 1397h928q103 0 175.5 -71.5t72.5 -172.5v-938q0 -101 -72.5 -172.5t-175.5 -71.5h-928q-103 0 -175.5 71.5t-72.5 172.5v938q0 101 72.5 172.5t175.5 71.5z
M1468 1134q0 54 -38 90.5t-94 36.5h-872q-55 0 -93.5 -37t-38.5 -90v-900q0 -52 39 -89.5t93 -37.5h872q55 0 93.5 37t38.5 90v900z" />
    <glyph glyph-name="divide.uc.whitesquare" unicode="&#xf7;&#x25a1;" 
d="M1141 630h-482v112h482v-112zM816 888q0 35 23.5 57.5t59.5 22.5q37 0 61.5 -22.5t24.5 -57.5q0 -34 -24.5 -56.5t-61.5 -22.5q-36 0 -59.5 22t-23.5 57zM816 485q0 35 24 57.5t60 22.5t60.5 -22.5t24.5 -57.5t-24 -57t-61 -22q-36 0 -60 22t-24 57zM436 1397h928
q103 0 175.5 -71.5t72.5 -172.5v-938q0 -101 -72.5 -172.5t-175.5 -71.5h-928q-103 0 -175.5 71.5t-72.5 172.5v938q0 101 72.5 172.5t175.5 71.5zM1468 1134q0 54 -38 90.5t-94 36.5h-872q-55 0 -93.5 -37t-38.5 -90v-900q0 -52 39 -89.5t93 -37.5h872q55 0 93.5 37
t38.5 90v900z" />
    <glyph glyph-name="equal.uc.whitesquare" unicode="&#x3d;&#x25a1;" 
d="M1143 507h-485v122h485v-122zM1143 741h-485v122h485v-122zM436 1397h928q103 0 175.5 -71.5t72.5 -172.5v-938q0 -101 -72.5 -172.5t-175.5 -71.5h-928q-103 0 -175.5 71.5t-72.5 172.5v938q0 101 72.5 172.5t175.5 71.5zM1468 1134q0 54 -38 90.5t-94 36.5h-872
q-55 0 -93.5 -37t-38.5 -90v-900q0 -52 39 -89.5t93 -37.5h872q55 0 93.5 37t38.5 90v900z" />
    <glyph glyph-name="greater.uc.whitesquare" unicode="&#x3e;&#x25a1;" 
d="M1162 728v-93l-473 -236v150l292 132v6l-292 132v154zM436 1397h928q103 0 175.5 -71.5t72.5 -172.5v-938q0 -101 -72.5 -172.5t-175.5 -71.5h-928q-103 0 -175.5 71.5t-72.5 172.5v938q0 101 72.5 172.5t175.5 71.5zM1468 1134q0 54 -38 90.5t-94 36.5h-872
q-55 0 -93.5 -37t-38.5 -90v-900q0 -52 39 -89.5t93 -37.5h872q55 0 93.5 37t38.5 90v900z" />
    <glyph glyph-name="less.uc.whitesquare" unicode="&#x3c;&#x25a1;" 
d="M638 635v93l473 245v-154l-292 -132v-6l292 -132v-150zM436 1397h928q103 0 175.5 -71.5t72.5 -172.5v-938q0 -101 -72.5 -172.5t-175.5 -71.5h-928q-103 0 -175.5 71.5t-72.5 172.5v938q0 101 72.5 172.5t175.5 71.5zM1468 1134q0 54 -38 90.5t-94 36.5h-872
q-55 0 -93.5 -37t-38.5 -90v-900q0 -52 39 -89.5t93 -37.5h872q55 0 93.5 37t38.5 90v900z" />
    <glyph glyph-name="numbersign.whitesquare" unicode="&#x23;&#x25a1;" 
d="M1174 750h-99l-23 -107h97l-22 -108h-97l-36 -169h-112l35 169h-104l-36 -169h-112l35 169h-95l21 108h95l25 107h-94l20 108h94l34 161h112l-34 -161h105l33 161h113l-34 -161h100zM850 757l-27 -129h123l27 129h-123zM436 1397h928q103 0 175.5 -71.5t72.5 -172.5v-938
q0 -101 -72.5 -172.5t-175.5 -71.5h-928q-103 0 -175.5 71.5t-72.5 172.5v938q0 101 72.5 172.5t175.5 71.5zM1468 1134q0 54 -38 90.5t-94 36.5h-872q-55 0 -93.5 -37t-38.5 -90v-900q0 -52 39 -89.5t93 -37.5h872q55 0 93.5 37t38.5 90v900z" />
    <glyph glyph-name="uni25BC.whitesquare" unicode="&#x25bc;&#x25a1;" 
d="M1204 899l-303 -528l-303 528h606zM436 1397h928q103 0 175.5 -71.5t72.5 -172.5v-938q0 -101 -72.5 -172.5t-175.5 -71.5h-928q-103 0 -175.5 71.5t-72.5 172.5v938q0 101 72.5 172.5t175.5 71.5zM1468 1134q0 54 -38 90.5t-94 36.5h-872q-55 0 -93.5 -37t-38.5 -90
v-900q0 -52 39 -89.5t93 -37.5h872q55 0 93.5 37t38.5 90v900z" />
    <glyph glyph-name="uni25B2.whitesquare" unicode="&#x25b2;&#x25a1;" 
d="M1203 473h-605l302 527zM436 1397h928q103 0 175.5 -71.5t72.5 -172.5v-938q0 -101 -72.5 -172.5t-175.5 -71.5h-928q-103 0 -175.5 71.5t-72.5 172.5v938q0 101 72.5 172.5t175.5 71.5zM1468 1134q0 54 -38 90.5t-94 36.5h-872q-55 0 -93.5 -37t-38.5 -90v-900
q0 -52 39 -89.5t93 -37.5h872q55 0 93.5 37t38.5 90v900z" />
    <glyph glyph-name="uni25C0.whitesquare" unicode="&#x25c0;&#x25a1;" 
d="M1102 383l-525 304l525 304v-608zM436 1397h928q103 0 175.5 -71.5t72.5 -172.5v-938q0 -101 -72.5 -172.5t-175.5 -71.5h-928q-103 0 -175.5 71.5t-72.5 172.5v938q0 101 72.5 172.5t175.5 71.5zM1468 1134q0 54 -38 90.5t-94 36.5h-872q-55 0 -93.5 -37t-38.5 -90v-900
q0 -52 39 -89.5t93 -37.5h872q55 0 93.5 37t38.5 90v900z" />
    <glyph glyph-name="uni25B6.whitesquare" unicode="&#x25b6;&#x25a1;" 
d="M698 383v608l525 -304zM436 1397h928q103 0 175.5 -71.5t72.5 -172.5v-938q0 -101 -72.5 -172.5t-175.5 -71.5h-928q-103 0 -175.5 71.5t-72.5 172.5v938q0 101 72.5 172.5t175.5 71.5zM1468 1134q0 54 -38 90.5t-94 36.5h-872q-55 0 -93.5 -37t-38.5 -90v-900
q0 -52 39 -89.5t93 -37.5h872q55 0 93.5 37t38.5 90v900z" />
    <glyph glyph-name="question.whitesquare" unicode="&#x3f;&#x25a1;" 
d="M791 432q0 37 26.5 59t69.5 22q45 0 71 -22t26 -59q0 -36 -26 -57.5t-71 -21.5q-43 0 -69.5 22t-26.5 57zM670 829q-1 100 65.5 149.5t169.5 49.5q98 0 162 -48t64 -133q0 -39 -16 -70.5t-33.5 -47.5t-47.5 -36q-56 -38 -68 -54q-16 -21 -16 -53v-18h-136q-1 3 -1 34
q-4 84 86 145q31 22 41.5 30t22.5 25.5t12 37.5q0 33 -23 50.5t-58 17.5q-39 0 -61 -22t-22 -57h-141zM436 1397h928q103 0 175.5 -71.5t72.5 -172.5v-938q0 -101 -72.5 -172.5t-175.5 -71.5h-928q-103 0 -175.5 71.5t-72.5 172.5v938q0 101 72.5 172.5t175.5 71.5z
M1468 1134q0 54 -38 90.5t-94 36.5h-872q-55 0 -93.5 -37t-38.5 -90v-900q0 -52 39 -89.5t93 -37.5h872q55 0 93.5 37t38.5 90v900z" />
    <glyph glyph-name="exclam.whitesquare" unicode="&#x21;&#x25a1;" 
d="M805 432q0 37 26.5 59t70.5 22t70 -22t26 -59q0 -36 -26 -57.5t-70 -21.5t-70.5 22t-26.5 57zM818 1016h169l-18 -429h-133zM436 1397h928q103 0 175.5 -71.5t72.5 -172.5v-938q0 -101 -72.5 -172.5t-175.5 -71.5h-928q-103 0 -175.5 71.5t-72.5 172.5v938
q0 101 72.5 172.5t175.5 71.5zM1468 1134q0 54 -38 90.5t-94 36.5h-872q-55 0 -93.5 -37t-38.5 -90v-900q0 -52 39 -89.5t93 -37.5h872q55 0 93.5 37t38.5 90v900z" />
    <glyph glyph-name="uni2717.whitesquare" unicode="&#x2717;&#x25a1;" 
d="M904 781l228 225l96 -99l-228 -224l228 -225l-96 -100l-228 225l-228 -225l-97 99l228 226l-228 225l96 99zM436 1397h928q103 0 175.5 -71.5t72.5 -172.5v-938q0 -101 -72.5 -172.5t-175.5 -71.5h-928q-103 0 -175.5 71.5t-72.5 172.5v938q0 101 72.5 172.5t175.5 71.5z
M1468 1134q0 54 -38 90.5t-94 36.5h-872q-55 0 -93.5 -37t-38.5 -90v-900q0 -52 39 -89.5t93 -37.5h872q55 0 93.5 37t38.5 90v900z" />
    <glyph glyph-name="uni2713.whitesquare" unicode="&#x2713;&#x25a1;" 
d="M1301 879l-513 -507l-283 281l101 103l182 -181l414 409zM436 1397h928q103 0 175.5 -71.5t72.5 -172.5v-938q0 -101 -72.5 -172.5t-175.5 -71.5h-928q-103 0 -175.5 71.5t-72.5 172.5v938q0 101 72.5 172.5t175.5 71.5zM1468 1134q0 54 -38 90.5t-94 36.5h-872
q-55 0 -93.5 -37t-38.5 -90v-900q0 -52 39 -89.5t93 -37.5h872q55 0 93.5 37t38.5 90v900z" />
    <glyph glyph-name="plus.uc.blackcircle" unicode="&#x2b;&#x25cb;&#x25cf;" 
d="M976 614h207v149h-207v205h-152v-205h-207v-149h207v-211h152v211zM900 -50q-149 0 -285 58.5t-234 156.5t-156.5 234t-58.5 285t58.5 285t156.5 234t234 156.5t285 58.5t285 -58.5t234 -156.5t156.5 -234t58.5 -285t-58.5 -285t-156.5 -234t-234 -156.5t-285 -58.5z" />
    <glyph glyph-name="minus.uc.blackcircle" unicode="&#x2212;&#x25cb;&#x25cf;" 
d="M1164 608v155h-528v-155h528zM900 -50q-149 0 -285 58.5t-234 156.5t-156.5 234t-58.5 285t58.5 285t156.5 234t234 156.5t285 58.5t285 -58.5t234 -156.5t156.5 -234t58.5 -285t-58.5 -285t-156.5 -234t-234 -156.5t-285 -58.5z" />
    <glyph glyph-name="multiply.uc.blackcircle" unicode="&#xd7;&#x25cb;&#x25cf;" 
d="M900 795l-160 153l-108 -109l160 -154l-160 -153l108 -109l160 154l161 -154l107 109l-160 153l160 154l-108 109zM900 -50q-149 0 -285 58.5t-234 156.5t-156.5 234t-58.5 285t58.5 285t156.5 234t234 156.5t285 58.5t285 -58.5t234 -156.5t156.5 -234t58.5 -285
t-58.5 -285t-156.5 -234t-234 -156.5t-285 -58.5z" />
    <glyph glyph-name="divide.uc.blackcircle" unicode="&#xf7;&#x25cb;&#x25cf;" 
d="M805 908q0 -39 27 -64t67 -25q41 0 68.5 25t27.5 64t-27 64.5t-69 25.5q-41 0 -67.5 -25t-26.5 -65zM1164 621v128h-528v-128h528zM805 463q0 -38 27 -63t68 -25t68.5 25t27.5 63q0 40 -27.5 65.5t-68.5 25.5t-68 -25.5t-27 -65.5zM900 -50q-149 0 -285 58.5t-234 156.5
t-156.5 234t-58.5 285t58.5 285t156.5 234t234 156.5t285 58.5t285 -58.5t234 -156.5t156.5 -234t58.5 -285t-58.5 -285t-156.5 -234t-234 -156.5t-285 -58.5z" />
    <glyph glyph-name="equal.uc.blackcircle" unicode="&#x3d;&#x25cb;&#x25cf;" 
d="M1165 744v136h-530v-136h530zM1165 490v136h-530v-136h530zM900 -50q-149 0 -285 58.5t-234 156.5t-156.5 234t-58.5 285t58.5 285t156.5 234t234 156.5t285 58.5t285 -58.5t234 -156.5t156.5 -234t58.5 -285t-58.5 -285t-156.5 -234t-234 -156.5t-285 -58.5z" />
    <glyph glyph-name="greater.uc.blackcircle" unicode="&#x3e;&#x25cb;&#x25cf;" 
d="M1181 733l-519 268v-167l316 -150l1 -2l-317 -148v-164l519 259v104zM900 -50q-149 0 -285 58.5t-234 156.5t-156.5 234t-58.5 285t58.5 285t156.5 234t234 156.5t285 58.5t285 -58.5t234 -156.5t156.5 -234t58.5 -285t-58.5 -285t-156.5 -234t-234 -156.5t-285 -58.5z
" />
    <glyph glyph-name="less.uc.blackcircle" unicode="&#x3c;&#x25cb;&#x25cf;" 
d="M614 629l517 -259v164l-315 148v2l315 150v167l-517 -268v-104zM900 -50q-149 0 -285 58.5t-234 156.5t-156.5 234t-58.5 285t58.5 285t156.5 234t234 156.5t285 58.5t285 -58.5t234 -156.5t156.5 -234t58.5 -285t-58.5 -285t-156.5 -234t-234 -156.5t-285 -58.5z" />
    <glyph glyph-name="numbersign.blackcircle" unicode="&#x23;&#x25cb;&#x25cf;" 
d="M845 757h133l-30 -140h-132zM1198 745l24 123h-108l36 174h-130l-35 -174h-104l36 174h-129l-36 -174h-102l-24 -123h102l-24 -108h-104l-24 -124h102l-37 -182h129l38 182h105l-39 -182h129l38 182h106l25 124h-104q0 1 5.5 27.5t11 52t5.5 28.5h108zM900 -50
q-149 0 -285 58.5t-234 156.5t-156.5 234t-58.5 285t58.5 285t156.5 234t234 156.5t285 58.5t285 -58.5t234 -156.5t156.5 -234t58.5 -285t-58.5 -285t-156.5 -234t-234 -156.5t-285 -58.5z" />
    <glyph glyph-name="uni25BC.blackcircle" unicode="&#x25bc;&#x25cb;&#x25cf;" 
d="M1226 921h-651l325 -564zM900 -50q-149 0 -285 58.5t-234 156.5t-156.5 234t-58.5 285t58.5 285t156.5 234t234 156.5t285 58.5t285 -58.5t234 -156.5t156.5 -234t58.5 -285t-58.5 -285t-156.5 -234t-234 -156.5t-285 -58.5z" />
    <glyph glyph-name="uni25B2.blackcircle" unicode="&#x25b2;&#x25cb;&#x25cf;" 
d="M1226 468l-326 564l-325 -564h651zM900 -50q-149 0 -285 58.5t-234 156.5t-156.5 234t-58.5 285t58.5 285t156.5 234t234 156.5t285 58.5t285 -58.5t234 -156.5t156.5 -234t58.5 -285t-58.5 -285t-156.5 -234t-234 -156.5t-285 -58.5z" />
    <glyph glyph-name="uni25C0.blackcircle" unicode="&#x25c0;&#x25cb;&#x25cf;" 
d="M1122 369v650l-565 -324zM900 -50q-149 0 -285 58.5t-234 156.5t-156.5 234t-58.5 285t58.5 285t156.5 234t234 156.5t285 58.5t285 -58.5t234 -156.5t156.5 -234t58.5 -285t-58.5 -285t-156.5 -234t-234 -156.5t-285 -58.5z" />
    <glyph glyph-name="uni25B6.blackcircle" unicode="&#x25b6;&#x25cb;&#x25cf;" 
d="M678 369l565 326l-565 324v-650zM900 -50q-149 0 -285 58.5t-234 156.5t-156.5 234t-58.5 285t58.5 285t156.5 234t234 156.5t285 58.5t285 -58.5t234 -156.5t156.5 -234t58.5 -285t-58.5 -285t-156.5 -234t-234 -156.5t-285 -58.5z" />
    <glyph glyph-name="question.blackcircle" unicode="&#x3f;&#x25cb;&#x25cf;" 
d="M777 406q0 -40 29.5 -64.5t78.5 -24.5t78.5 24.5t29.5 64.5q0 42 -29 66.5t-79 24.5q-49 0 -78.5 -24.5t-29.5 -66.5zM647 839v-4l159 2q0 40 23 65t65 25q36 0 61 -18.5t25 -54.5q0 -18 -9 -34t-19.5 -25t-32.5 -25.5t-34 -26.5q-89 -66 -84 -148q0 -33 1 -37h154v22
q0 35 15.5 53t67.5 52q59 41 85.5 77t26.5 98q0 92 -70.5 145t-176.5 53q-112 0 -184.5 -54.5t-72.5 -164.5zM899 -45q-149 0 -285 58.5t-234 156.5t-156.5 234t-58.5 285t58.5 285t156.5 234t234 156.5t285 58.5t285 -58.5t234 -156.5t156.5 -234t58.5 -285t-58.5 -285
t-156.5 -234t-234 -156.5t-285 -58.5z" />
    <glyph glyph-name="exclam.blackcircle" unicode="&#x21;&#x25cb;&#x25cf;" 
d="M806 1045l19 -471h151l20 471h-190zM794 407q0 -41 29 -65t78 -24t78.5 24t29.5 65t-29.5 65.5t-78.5 24.5t-78 -24.5t-29 -65.5zM900 -50q-149 0 -285 58.5t-234 156.5t-156.5 234t-58.5 285t58.5 285t156.5 234t234 156.5t285 58.5t285 -58.5t234 -156.5t156.5 -234
t58.5 -285t-58.5 -285t-156.5 -234t-234 -156.5t-285 -58.5z" />
    <glyph glyph-name="uni2717.blackcircle" unicode="&#x2717;&#x25cb;&#x25cf;" 
d="M902 790l-248 244l-104 -106l248 -245l-248 -245l105 -107l247 243l248 -243l104 108l-247 244l247 243l-104 107zM900 -50q-149 0 -285 58.5t-234 156.5t-156.5 234t-58.5 285t58.5 285t156.5 234t234 156.5t285 58.5t285 -58.5t234 -156.5t156.5 -234t58.5 -285
t-58.5 -285t-156.5 -234t-234 -156.5t-285 -58.5z" />
    <glyph glyph-name="uni2713.blackcircle" unicode="&#x2713;&#x25cb;&#x25cf;" 
d="M777 349l557 550l-108 114l-449 -443l-197 195l-110 -111zM900 -50q-149 0 -285 58.5t-234 156.5t-156.5 234t-58.5 285t58.5 285t156.5 234t234 156.5t285 58.5t285 -58.5t234 -156.5t156.5 -234t58.5 -285t-58.5 -285t-156.5 -234t-234 -156.5t-285 -58.5z" />
    <glyph glyph-name="zero.blacksquare" unicode="&#x30;&#x25a1;&#x25a0;" 
d="M897 460q-56 0 -87 55.5t-31 157.5v34q0 103 30.5 158t87.5 55t88 -55.5t31 -157.5v-34q0 -102 -31.5 -157.5t-87.5 -55.5zM896 321q134 0 213.5 96t79.5 257v33q0 162 -78 256.5t-213 94.5t-214 -95t-79 -256v-33q0 -163 78.5 -258t212.5 -95zM436 1397h928
q103 0 175.5 -71.5t72.5 -172.5v-938q0 -101 -72.5 -172.5t-175.5 -71.5h-928q-103 0 -175.5 71.5t-72.5 172.5v938q0 101 72.5 172.5t175.5 71.5z" />
    <glyph glyph-name="one.blacksquare" unicode="&#x31;&#x25a1;&#x25a0;" 
d="M1027 334v711h-174l-175 -118v-162l170 114h3v-545h176zM436 1397h928q103 0 175.5 -71.5t72.5 -172.5v-938q0 -101 -72.5 -172.5t-175.5 -71.5h-928q-103 0 -175.5 71.5t-72.5 172.5v938q0 101 72.5 172.5t175.5 71.5z" />
    <glyph glyph-name="two.blacksquare" unicode="&#x32;&#x25a1;&#x25a0;" 
d="M794 819v8q0 41 26 69t72 28q41 0 68 -23t27 -59q0 -35 -21 -66t-66 -75l-260 -253v-111h530v144h-297v2l159 155q64 63 94 110.5t30 107.5q0 88 -72 146t-185 58q-126 0 -197 -67t-71 -166v-8h163zM436 1397h928q103 0 175.5 -71.5t72.5 -172.5v-938
q0 -101 -72.5 -172.5t-175.5 -71.5h-928q-103 0 -175.5 71.5t-72.5 172.5v938q0 101 72.5 172.5t175.5 71.5z" />
    <glyph glyph-name="three.blacksquare" unicode="&#x33;&#x25a1;&#x25a0;" 
d="M813 636h82q52 0 83.5 -24t31.5 -63t-32 -64.5t-85 -25.5q-49 1 -82 24t-36 59h-161q2 -94 77.5 -156t200.5 -62q127 0 209 59t81 157q-1 73 -48 118t-107 52v2q50 9 92.5 53t41.5 106q-2 84 -75 137t-191 53q-126 -1 -196.5 -59.5t-73.5 -157.5h163q2 35 30 59t73 24
q44 0 72 -22.5t28 -56.5q0 -36 -28 -59t-73 -23h-77v-130zM436 1397h928q103 0 175.5 -71.5t72.5 -172.5v-938q0 -101 -72.5 -172.5t-175.5 -71.5h-928q-103 0 -175.5 71.5t-72.5 172.5v938q0 101 72.5 172.5t175.5 71.5z" />
    <glyph glyph-name="four.blacksquare" unicode="&#x34;&#x25a1;&#x25a0;" 
d="M857 1048q-187 -292 -270 -450v-137h354v-124h157v124h95v138h-95v449h-241zM745 600q26 47 54.5 94.5t74.5 121t62 99.5h5v-316h-196v1zM436 1397h928q103 0 175.5 -71.5t72.5 -172.5v-938q0 -101 -72.5 -172.5t-175.5 -71.5h-928q-103 0 -175.5 71.5t-72.5 172.5v938
q0 101 72.5 172.5t175.5 71.5z" />
    <glyph glyph-name="five.blacksquare" unicode="&#x35;&#x25a1;&#x25a0;" 
d="M628 537q3 -93 78.5 -152.5t195.5 -59.5q131 0 210 70t79 187q0 105 -68.5 167.5t-171.5 62.5q-54 0 -93.5 -18.5t-57.5 -43.5h-2q2 22 6.5 82.5t6.5 82.5h336v133h-474l-30 -422h151q14 25 42.5 43.5t67.5 18.5q51 0 85.5 -30.5t34.5 -80.5q0 -54 -35 -86t-83 -32
q-44 0 -77 20.5t-41 57.5h-160zM436 1397h928q103 0 175.5 -71.5t72.5 -172.5v-938q0 -101 -72.5 -172.5t-175.5 -71.5h-928q-103 0 -175.5 71.5t-72.5 172.5v938q0 101 72.5 172.5t175.5 71.5z" />
    <glyph glyph-name="six.blacksquare" unicode="&#x36;&#x25a1;&#x25a0;" 
d="M1184 580q0 98 -60.5 163t-152.5 65q-75 0 -119 -42l-9 2q6 14 32 48q37 52 98 128t87 104h-194q-127 -162 -143 -189q-102 -148 -102 -268q0 -121 78 -193.5t206 -72.5q126 0 202.5 70t76.5 185zM782 575q0 50 34.5 84t86.5 34t86.5 -34t34.5 -84t-34.5 -84t-86.5 -34
t-86.5 34t-34.5 84zM436 1397h928q103 0 175.5 -71.5t72.5 -172.5v-938q0 -101 -72.5 -172.5t-175.5 -71.5h-928q-103 0 -175.5 71.5t-72.5 172.5v938q0 101 72.5 172.5t175.5 71.5z" />
    <glyph glyph-name="seven.blacksquare" unicode="&#x37;&#x25a1;&#x25a0;" 
d="M635 1048v-145h356v-1l-301 -565h187l291 569v142h-533zM436 1397h928q103 0 175.5 -71.5t72.5 -172.5v-938q0 -101 -72.5 -172.5t-175.5 -71.5h-928q-103 0 -175.5 71.5t-72.5 172.5v938q0 101 72.5 172.5t175.5 71.5z" />
    <glyph glyph-name="eight.blacksquare" unicode="&#x38;&#x25a1;&#x25a0;" 
d="M897 761q-46 0 -74.5 24.5t-28.5 64.5t28.5 65t74.5 25t74.5 -25t28.5 -65t-28.5 -64.5t-74.5 -24.5zM897 446q-55 0 -90 29t-35 74t35 74.5t90 29.5t90.5 -29.5t35.5 -74.5t-35.5 -74t-90.5 -29zM897 324q136 0 217.5 58t81.5 155q0 66 -42 113t-113 60v2
q125 39 125 157q0 86 -74 139t-195 53t-195 -53t-74 -139q0 -119 126 -157v-2q-72 -13 -114 -60t-42 -113q0 -97 82 -155t217 -58zM436 1397h928q103 0 175.5 -71.5t72.5 -172.5v-938q0 -101 -72.5 -172.5t-175.5 -71.5h-928q-103 0 -175.5 71.5t-72.5 172.5v938
q0 101 72.5 172.5t175.5 71.5z" />
    <glyph glyph-name="nine.blacksquare" unicode="&#x39;&#x25a1;&#x25a0;" 
d="M609 805q0 -98 60.5 -162.5t152.5 -64.5q76 0 120 41l9 -2q-7 -12 -31 -46q-37 -52 -99 -128.5t-88 -105.5h195q142 189 147 198q97 142 97 259q0 121 -77.5 193.5t-205.5 72.5q-127 0 -203.5 -70t-76.5 -185zM1012 810q0 -50 -35 -84t-87 -34t-86.5 34t-34.5 84t34.5 84
t86.5 34t87 -34t35 -84zM436 1397h928q103 0 175.5 -71.5t72.5 -172.5v-938q0 -101 -72.5 -172.5t-175.5 -71.5h-928q-103 0 -175.5 71.5t-72.5 172.5v938q0 101 72.5 172.5t175.5 71.5z" />
    <glyph glyph-name="plus.uc.blacksquare" unicode="&#x2b;&#x25a1;&#x25a0;" 
d="M976 614h207v149h-207v205h-152v-205h-207v-149h207v-211h152v211zM436 1397h928q103 0 175.5 -71.5t72.5 -172.5v-938q0 -101 -72.5 -172.5t-175.5 -71.5h-928q-103 0 -175.5 71.5t-72.5 172.5v938q0 101 72.5 172.5t175.5 71.5z" />
    <glyph glyph-name="minus.uc.blacksquare" unicode="&#x2212;&#x25a1;&#x25a0;" 
d="M1164 608v155h-528v-155h528zM436 1397h928q103 0 175.5 -71.5t72.5 -172.5v-938q0 -101 -72.5 -172.5t-175.5 -71.5h-928q-103 0 -175.5 71.5t-72.5 172.5v938q0 101 72.5 172.5t175.5 71.5z" />
    <glyph glyph-name="multiply.uc.blacksquare" unicode="&#xd7;&#x25a1;&#x25a0;" 
d="M900 795l-160 153l-108 -109l160 -154l-160 -153l108 -109l160 154l161 -154l107 109l-160 153l160 154l-108 109zM436 1397h928q103 0 175.5 -71.5t72.5 -172.5v-938q0 -101 -72.5 -172.5t-175.5 -71.5h-928q-103 0 -175.5 71.5t-72.5 172.5v938q0 101 72.5 172.5
t175.5 71.5z" />
    <glyph glyph-name="divide.uc.blacksquare" unicode="&#xf7;&#x25a1;&#x25a0;" 
d="M805 908q0 -39 27 -64t67 -25q41 0 68.5 25t27.5 64t-27 64.5t-69 25.5q-41 0 -67.5 -25t-26.5 -65zM1164 621v128h-528v-128h528zM805 463q0 -38 27 -63t68 -25t68.5 25t27.5 63q0 40 -27.5 65.5t-68.5 25.5t-68 -25.5t-27 -65.5zM436 1397h928q103 0 175.5 -71.5
t72.5 -172.5v-938q0 -101 -72.5 -172.5t-175.5 -71.5h-928q-103 0 -175.5 71.5t-72.5 172.5v938q0 101 72.5 172.5t175.5 71.5z" />
    <glyph glyph-name="equal.uc.blacksquare" unicode="&#x3d;&#x25a1;&#x25a0;" 
d="M1165 744v136h-530v-136h530zM1165 490v136h-530v-136h530zM436 1397h928q103 0 175.5 -71.5t72.5 -172.5v-938q0 -101 -72.5 -172.5t-175.5 -71.5h-928q-103 0 -175.5 71.5t-72.5 172.5v938q0 101 72.5 172.5t175.5 71.5z" />
    <glyph glyph-name="greater.uc.blacksquare" unicode="&#x3e;&#x25a1;&#x25a0;" 
d="M1181 733l-519 268v-167l316 -150l1 -2l-317 -148v-164l519 259v104zM436 1397h928q103 0 175.5 -71.5t72.5 -172.5v-938q0 -101 -72.5 -172.5t-175.5 -71.5h-928q-103 0 -175.5 71.5t-72.5 172.5v938q0 101 72.5 172.5t175.5 71.5z" />
    <glyph glyph-name="less.uc.blacksquare" unicode="&#x3c;&#x25a1;&#x25a0;" 
d="M614 629l517 -259v164q-147 70 -315 148v2l315 150v167l-517 -268v-104zM436 1397h928q103 0 175.5 -71.5t72.5 -172.5v-938q0 -101 -72.5 -172.5t-175.5 -71.5h-928q-103 0 -175.5 71.5t-72.5 172.5v938q0 101 72.5 172.5t175.5 71.5z" />
    <glyph glyph-name="numbersign.blacksquare" unicode="&#x23;&#x25a1;&#x25a0;" 
d="M845 760h133l-30 -140h-132zM1198 748l24 123h-108l36 174h-130l-35 -174h-104l36 174h-129l-36 -174h-102l-24 -123h102l-24 -108h-104l-24 -124h102l-37 -182h129l38 182h105l-39 -182h129l38 182h106l25 124h-104q1 3 11.5 54t10.5 54h108zM436 1397h928
q103 0 175.5 -71.5t72.5 -172.5v-938q0 -101 -72.5 -172.5t-175.5 -71.5h-928q-103 0 -175.5 71.5t-72.5 172.5v938q0 101 72.5 172.5t175.5 71.5z" />
    <glyph glyph-name="uni25BC.blacksquare" unicode="&#x25bc;&#x25a1;&#x25a0;" 
d="M1226 918h-651l325 -565zM436 1397h928q103 0 175.5 -71.5t72.5 -172.5v-938q0 -101 -72.5 -172.5t-175.5 -71.5h-928q-103 0 -175.5 71.5t-72.5 172.5v938q0 101 72.5 172.5t175.5 71.5z" />
    <glyph glyph-name="uni25B2.blacksquare" unicode="&#x25b2;&#x25a1;&#x25a0;" 
d="M1226 468l-326 564l-325 -564h651zM436 1397h928q103 0 175.5 -71.5t72.5 -172.5v-938q0 -101 -72.5 -172.5t-175.5 -71.5h-928q-103 0 -175.5 71.5t-72.5 172.5v938q0 101 72.5 172.5t175.5 71.5z" />
    <glyph glyph-name="uni25C0.blacksquare" unicode="&#x25c0;&#x25a1;&#x25a0;" 
d="M1122 369v650l-565 -324zM436 1397h928q103 0 175.5 -71.5t72.5 -172.5v-938q0 -101 -72.5 -172.5t-175.5 -71.5h-928q-103 0 -175.5 71.5t-72.5 172.5v938q0 101 72.5 172.5t175.5 71.5z" />
    <glyph glyph-name="uni25B6.blacksquare" unicode="&#x25b6;&#x25a1;&#x25a0;" 
d="M678 369l565 326l-565 324v-650zM436 1397h928q103 0 175.5 -71.5t72.5 -172.5v-938q0 -101 -72.5 -172.5t-175.5 -71.5h-928q-103 0 -175.5 71.5t-72.5 172.5v938q0 101 72.5 172.5t175.5 71.5z" />
    <glyph glyph-name="question.blacksquare" unicode="&#x3f;&#x25a1;&#x25a0;" 
d="M647 841l159 2q0 40 23 65t65 25q36 0 61 -18.5t25 -54.5q0 -18 -9 -34t-19.5 -25t-32.5 -25.5t-34 -26.5q-89 -66 -84 -148q0 -33 1 -37h154v22q0 35 15 53t68 53q39 27 60 46t36.5 52t15.5 76q0 92 -70.5 145t-176.5 53q-112 0 -184.5 -54.5t-72.5 -164.5v-4zM777 412
q0 -40 29.5 -64.5t78.5 -24.5t78.5 24.5t29.5 64.5q0 42 -29 66.5t-79 24.5q-49 0 -78.5 -24.5t-29.5 -66.5zM436 1397h928q103 0 175.5 -71.5t72.5 -172.5v-938q0 -101 -72.5 -172.5t-175.5 -71.5h-928q-103 0 -175.5 71.5t-72.5 172.5v938q0 101 72.5 172.5t175.5 71.5z
" />
    <glyph glyph-name="exclam.blacksquare" unicode="&#x21;&#x25a1;&#x25a0;" 
d="M806 1052l19 -472h151l20 472h-190zM794 413q0 -40 29 -64.5t78 -24.5t78.5 24.5t29.5 64.5q0 41 -29.5 65.5t-78.5 24.5t-78 -24.5t-29 -65.5zM436 1397h928q103 0 175.5 -71.5t72.5 -172.5v-938q0 -101 -72.5 -172.5t-175.5 -71.5h-928q-103 0 -175.5 71.5t-72.5 172.5
v938q0 101 72.5 172.5t175.5 71.5z" />
    <glyph glyph-name="uni2717.blacksquare" unicode="&#x2717;&#x25a1;&#x25a0;" 
d="M550 928l248 -245l-248 -245l105 -107l247 243l248 -243l104 108l-247 244l247 243l-104 107l-248 -243l-248 244zM436 1397h928q103 0 175.5 -71.5t72.5 -172.5v-938q0 -101 -72.5 -172.5t-175.5 -71.5h-928q-103 0 -175.5 71.5t-72.5 172.5v938q0 101 72.5 172.5
t175.5 71.5z" />
    <glyph glyph-name="uni2713.blacksquare" unicode="&#x2713;&#x25a1;&#x25a0;" 
d="M777 352l557 550l-108 114l-449 -443l-197 195l-110 -111zM436 1397h928q103 0 175.5 -71.5t72.5 -172.5v-938q0 -101 -72.5 -172.5t-175.5 -71.5h-928q-103 0 -175.5 71.5t-72.5 172.5v938q0 101 72.5 172.5t175.5 71.5z" />
    <glyph glyph-name=".notdef" horiz-adv-x="2048" 
d="M100 -494v244h1848v-244h-1848zM100 -54v244h1848v-244h-1848zM100 386v244h1848v-244h-1848zM100 826v244h1848v-244h-1848zM100 1266v244h1848v-244h-1848zM100 1706v244h1848v-244h-1848z" />
    <glyph glyph-name=".null" horiz-adv-x="0" 
 />
    <glyph glyph-name="nonmarkingreturn" horiz-adv-x="0" 
 />
    <glyph glyph-name="space" unicode=" " horiz-adv-x="459" 
 />
    <glyph glyph-name="exclam" unicode="!" horiz-adv-x="592" 
d="M136 129q0 66 44.5 108t113.5 42q72 0 117 -41.5t45 -108.5q0 -65 -45 -106.5t-117 -41.5q-68 0 -113 42t-45 106zM173 1365h247l-27 -893h-194z" />
    <glyph glyph-name="quotedbl" unicode="&#x22;" horiz-adv-x="950" 
d="M130 1365h244l-32 -601h-180zM576 1365h243l-31 -601h-181z" />
    <glyph glyph-name="numbersign" unicode="#" horiz-adv-x="1265" 
d="M1192 831h-223l-60 -284h220l-32 -172h-219l-75 -375h-172l76 375h-286l-77 -375h-171l76 375h-208l33 172h211l60 284h-209l32 172h208l73 362h173l-75 -362h287l73 362h172l-74 -362h219zM509 845l-65 -311h302l64 311h-301z" />
    <glyph glyph-name="dollar" unicode="$" horiz-adv-x="1184" 
d="M661 575v-380q105 10 164 62t59 132q0 71 -49 113.5t-156 68.5zM543 821h1v349q-84 -16 -132.5 -65t-48.5 -119q0 -123 180 -165zM661 793l94 -23q171 -41 257 -126.5t86 -234.5q0 -168 -116 -275t-321 -122v-145h-117v145q-193 13 -305.5 114.5t-123.5 252.5h210
q14 -70 71.5 -118.5t147.5 -62.5v405l-79 19q-151 36 -234 124.5t-83 226.5q0 155 109 258.5t287 121.5v147h117v-144q183 -12 295 -110.5t124 -243.5h-208q-13 69 -68.5 115t-142.5 56v-380z" />
    <glyph glyph-name="percent" unicode="%" horiz-adv-x="1563" 
d="M373 871q56 0 89.5 50t33.5 133q0 86 -33 135t-90 49t-90.5 -49.5t-33.5 -134.5q0 -84 34 -133.5t90 -49.5zM373 716q-136 0 -221 94t-85 244t85 243.5t221 93.5t220.5 -93t84.5 -244q0 -150 -84.5 -244t-220.5 -94zM1190 -24q-135 0 -219.5 94t-84.5 244t84.5 243.5
t219.5 93.5q136 0 221 -93.5t85 -243.5q0 -151 -85 -244.5t-221 -93.5zM1190 130q56 0 89.5 50t33.5 134q0 86 -33 134.5t-90 48.5q-56 0 -89.5 -49.5t-33.5 -133.5t33.5 -134t89.5 -50zM212 0l497 709l429 656h221l-509 -721l-415 -644h-223z" />
    <glyph glyph-name="ampersand" unicode="&#x26;" horiz-adv-x="1381" 
d="M1108 0l-115 121q-88 -75 -200 -111.5t-227 -36.5q-204 0 -334.5 104.5t-130.5 279.5q0 124 68 211.5t192 156.5q25 15 56 30q-83 87 -126 157.5t-43 154.5q0 133 103.5 221.5t259.5 88.5q152 0 256.5 -84.5t104.5 -224.5q0 -62 -22 -115t-64.5 -95t-88.5 -74t-109 -65
l299 -317q56 100 56 313v57h191v-66q0 -287 -112 -448l243 -258h-257zM484 609q-83 -45 -128 -101t-45 -134q0 -108 80 -167.5t196 -59.5q78 0 156.5 27t130.5 81l-349 375q-28 -14 -41 -21zM580 832q100 50 150 100t50 124q0 72 -47.5 116t-120.5 44q-74 0 -120.5 -45
t-46.5 -116q0 -51 29.5 -99.5t105.5 -123.5z" />
    <glyph glyph-name="quotesingle" unicode="'" horiz-adv-x="504" 
d="M130 1365h244l-32 -601h-180z" />
    <glyph glyph-name="parenleft" unicode="(" horiz-adv-x="739" 
d="M482 1437h199q-110 -156 -179.5 -375t-69.5 -481q0 -526 249 -892h-201q-124 147 -198 378t-74 512q0 516 274 858z" />
    <glyph glyph-name="parenright" unicode=")" horiz-adv-x="739" 
d="M57 1437h199q275 -343 275 -858q0 -281 -74 -512t-198 -378h-201q248 366 248 892q0 262 -69.5 481t-179.5 375z" />
    <glyph glyph-name="asterisk" unicode="*" horiz-adv-x="984" 
d="M571 579h-162l28 317l-261 -185l-81 146l292 132l-292 131l81 146l262 -187l-29 319h162l-30 -319l263 187l81 -146l-292 -131l292 -132l-81 -146l-262 185z" />
    <glyph glyph-name="plus" unicode="+" horiz-adv-x="1184" 
d="M687 450v-431h-188v431h-400v196h400v412h188v-412h401v-196h-401z" />
    <glyph glyph-name="comma" unicode="," horiz-adv-x="515" 
d="M286 -362h-192l83 601h244z" />
    <glyph glyph-name="hyphen" unicode="&#x2011;" horiz-adv-x="840" 
d="M735 456h-630v208h630v-208z" />
    <glyph glyph-name="hyphen" unicode="-" horiz-adv-x="840" 
d="M735 456h-630v208h630v-208z" />
    <glyph glyph-name="period" unicode="." horiz-adv-x="611" 
d="M146 139q0 72 45.5 117t112.5 45q69 0 115 -45.5t46 -116.5q0 -70 -46 -114t-115 -44q-66 0 -112 44.5t-46 113.5z" />
    <glyph glyph-name="slash" unicode="/" horiz-adv-x="739" 
d="M225 -311h-204l493 1748h203z" />
    <glyph glyph-name="zero" unicode="0" horiz-adv-x="1267" 
d="M356 710v-55q0 -226 74.5 -355t203.5 -129t203 129t74 355v55q0 226 -74 355t-203 129t-203.5 -129t-74.5 -355zM130 654v57q0 311 135 496t371 185t368.5 -183.5t132.5 -497.5v-57q0 -311 -134.5 -496t-370.5 -185q-235 0 -368.5 184t-133.5 497z" />
    <glyph glyph-name="one" unicode="1" horiz-adv-x="953" 
d="M696 0h-224v1128h-11l-313 -223v225l324 235h224v-1365z" />
    <glyph glyph-name="two" unicode="2" horiz-adv-x="1172" 
d="M355 968h-217v11q0 80 29 153t83 131.5t141.5 93.5t196.5 35q200 0 323 -107.5t123 -271.5q0 -38 -8 -75.5t-16 -65t-31 -65t-35 -56.5t-46.5 -59.5t-46 -53.5t-53.5 -58l-337 -370v-12h597v-198h-912v149l507 555q36 39 56.5 64.5t46.5 64.5t38.5 78t12.5 81
q0 91 -63 148t-161 57q-104 0 -166 -63.5t-62 -153.5v-12z" />
    <glyph glyph-name="three" unicode="3" horiz-adv-x="1196" 
d="M434 609v189h143q100 0 165 58.5t64 147.5q0 88 -64.5 143.5t-165.5 55.5q-98 0 -161.5 -53t-68.5 -126h-213q5 157 123.5 262t324.5 106q200 1 323 -98.5t127 -254.5q1 -69 -23.5 -128.5t-64 -98t-82.5 -62t-83 -29.5v-13q48 -5 97 -26.5t94 -59t74.5 -100.5t30.5 -141
q2 -123 -64.5 -217t-180.5 -143t-255 -49q-211 0 -337.5 106t-132.5 265h209q8 -77 81 -127.5t182 -51.5q123 -1 198 62.5t73 162.5q-1 97 -73.5 158.5t-189.5 61.5h-150z" />
    <glyph glyph-name="four" unicode="4" horiz-adv-x="1231" 
d="M646 1365h330v-906h172v-196h-172v-263h-215v263h-661v199q58 107 134.5 237t123.5 206t153 245t135 215zM313 459h448v719h-11q-276 -419 -437 -710v-9z" />
    <glyph glyph-name="five" unicode="5" horiz-adv-x="1221" 
d="M146 338h211q17 -84 91 -128t170 -44q108 0 188 76t80 204q0 117 -78.5 189.5t-191.5 72.5q-89 0 -152 -40.5t-93 -93.5h-196l59 791h803v-196h-618l-33 -390h11q28 42 100 79t175 37q89 0 168 -30t139 -85t95 -139.5t35 -187.5q0 -216 -138 -348t-361 -132
q-198 0 -327 103.5t-137 261.5z" />
    <glyph glyph-name="six" unicode="6" horiz-adv-x="1252" 
d="M1101 1061h-220q-15 53 -72.5 94.5t-151.5 41.5q-140 0 -224.5 -135.5t-83.5 -371.5h14q34 81 119.5 138t218.5 57q82 0 157.5 -28.5t136.5 -81.5t97.5 -137.5t36.5 -188.5q0 -221 -136 -348t-350 -127q-279 0 -411 216q-102 167 -102 451q0 372 142.5 560.5t389.5 188.5
q99 0 182.5 -29.5t137 -77t84.5 -105t35 -117.5zM378 438q0 -125 76.5 -198.5t189.5 -73.5q117 0 191 70t74 201q0 125 -77 194.5t-187 69.5q-118 0 -192.5 -73.5t-74.5 -189.5z" />
    <glyph glyph-name="seven" unicode="7" horiz-adv-x="1121" 
d="M112 1365h906v-204l-556 -1161h-238l566 1155v12h-678v198z" />
    <glyph glyph-name="eight" unicode="8" horiz-adv-x="1256" 
d="M629 152q122 0 202.5 66t80.5 170q0 105 -80.5 171.5t-202.5 66.5t-203 -66.5t-81 -171.5q0 -104 81 -170t203 -66zM629 797q103 0 169 58.5t66 150.5q0 91 -66 148t-169 57t-169.5 -57t-66.5 -148q0 -92 66.5 -150.5t169.5 -58.5zM625 -27q-225 0 -364.5 111t-139.5 290
q0 77 26.5 140t70 102.5t89.5 63.5t95 35v11q-93 30 -160 106.5t-67 197.5q0 158 127 260t327 102t326.5 -102t126.5 -260q0 -64 -20.5 -118t-55.5 -90t-72.5 -59.5t-79.5 -36.5v-11q49 -11 95.5 -35t89.5 -63.5t69.5 -102.5t26.5 -139q0 -178 -142 -290t-368 -112z" />
    <glyph glyph-name="nine" unicode="9" horiz-adv-x="1250" 
d="M157 288h221q14 -49 71 -85t142 -36q112 0 185.5 69.5t102.5 179.5t25 255h-13q-33 -86 -117.5 -142t-212.5 -56q-121 0 -219 51.5t-158.5 156t-60.5 245.5q0 215 138 341t352 126q82 0 152.5 -19.5t137 -68.5t113.5 -125t75.5 -196.5t28.5 -275.5q0 -733 -533 -733
q-98 0 -179 26.5t-132.5 71.5t-82 100t-36.5 115zM869 925q0 129 -74.5 203.5t-191.5 74.5q-111 0 -185 -74.5t-74 -200.5q0 -128 75 -198.5t188 -70.5q110 0 186 70t76 196z" />
    <glyph glyph-name="colon" unicode=":" horiz-adv-x="639" 
d="M160 805q0 72 45.5 117t112.5 45q69 0 115 -45.5t46 -116.5q0 -70 -46 -114t-115 -44q-66 0 -112 44.5t-46 113.5zM160 139q0 72 45.5 117t112.5 45q69 0 115 -45.5t46 -116.5q0 -70 -46 -114t-115 -44q-66 0 -112 44.5t-46 113.5z" />
    <glyph glyph-name="semicolon" unicode=";" horiz-adv-x="638" 
d="M162 805q0 72 45.5 117t112.5 45q70 0 115.5 -45.5t45.5 -116.5q0 -70 -46 -114t-115 -44q-66 0 -112 44.5t-46 113.5zM308 -362h-191l83 601h243z" />
    <glyph glyph-name="less" unicode="&#x3c;" horiz-adv-x="1184" 
d="M146 439v163l890 513v-237l-643 -346v-11l643 -332v-234z" />
    <glyph glyph-name="equal" unicode="=" horiz-adv-x="1184" 
d="M1036 254h-887v185h887v-185zM1036 658h-887v186h887v-186z" />
    <glyph glyph-name="greater" unicode="&#x3e;" horiz-adv-x="1184" 
d="M1039 602v-163l-891 -484v234l644 332v11l-644 346v237z" />
    <glyph glyph-name="question" unicode="?" horiz-adv-x="1016" 
d="M326 129q0 66 45 108t114 42q72 0 117 -41.5t45 -108.5q0 -65 -45 -106.5t-117 -41.5q-69 0 -114 42t-45 106zM80 993q-1 86 23.5 155.5t66.5 114.5t99.5 75t118.5 43t126 13q114 0 207 -37.5t153.5 -120t60.5 -198.5q0 -61 -15.5 -110.5t-48 -89.5t-59.5 -64.5
t-73 -58.5q-44 -33 -62.5 -47.5t-42.5 -38t-32.5 -42t-15 -44.5t-6.5 -60v-55h-206l-1 70q-4 102 44.5 175.5t139.5 139.5q57 42 83.5 65.5t47.5 62t21 85.5q0 90 -59.5 135t-147.5 45q-103 0 -158.5 -59.5t-55.5 -153.5h-208z" />
    <glyph glyph-name="at" unicode="@" horiz-adv-x="1744" 
d="M1287 133q-97 0 -161 40.5t-78 101.5h-9q-16 -59 -78.5 -100.5t-145.5 -41.5q-126 0 -198 89t-72 240v103q0 146 73.5 234t202.5 88q83 0 135.5 -40.5t68.5 -93.5h8v119h163v-493q0 -52 31.5 -81t81.5 -29q74 0 124.5 84.5t50.5 247.5v32q0 110 -40 208.5t-112.5 173
t-184 118.5t-246.5 44h-8q-177 0 -316.5 -77t-219.5 -223t-80 -338v-42q0 -155 48.5 -276t133.5 -195.5t192.5 -112.5t232.5 -38h9q199 0 306 47v-144q-99 -45 -311 -45h-9q-161 0 -298 49t-240.5 142t-162.5 238.5t-59 328.5v54q0 231 100 408.5t275.5 272t398.5 94.5h8
q173 0 315 -56.5t233 -151.5t140 -217t49 -256v-50q0 -204 -97 -330t-254 -126zM718 486q0 -203 153 -203q151 0 151 194v81q0 91 -43 139t-110 48q-68 0 -109.5 -50.5t-41.5 -149.5v-59z" />
    <glyph glyph-name="A" unicode="A" horiz-adv-x="1285" 
d="M278 0h-232l470 1365h253l470 -1365h-240l-121 370h-479zM644 1122h-10l-184 -570h377z" />
    <glyph glyph-name="B" unicode="B" horiz-adv-x="1295" 
d="M180 0v1365h544q179 0 285.5 -90.5t106.5 -245.5q0 -118 -60.5 -194.5t-166.5 -105.5v-10q135 -15 217.5 -102t82.5 -233q0 -179 -129.5 -281.5t-345.5 -102.5h-534zM406 1179v-388h192q293 0 293 198q0 89 -56.5 139.5t-158.5 50.5h-270zM406 615v-429h217
q176 0 255.5 51t79.5 158q0 104 -68.5 162t-194.5 58h-289z" />
    <glyph glyph-name="C" unicode="C" horiz-adv-x="1318" 
d="M355 768v-178q0 -198 86 -305t243 -107q124 0 204 66.5t91 174.5h221v-19q-13 -188 -157.5 -307.5t-359.5 -119.5q-266 0 -412 162.5t-146 454.5v180q0 291 147 456.5t411 165.5q216 0 360.5 -124t156.5 -320v-18h-221q-11 113 -92 185t-203 72q-155 0 -242 -110.5
t-87 -308.5z" />
    <glyph glyph-name="D" unicode="D" horiz-adv-x="1364" 
d="M180 1365h471q302 0 453.5 -174.5t151.5 -505.5q0 -332 -152.5 -508.5t-452.5 -176.5h-471v1365zM407 1166v-967h219q202 0 299.5 119.5t97.5 362.5t-98 364t-299 121h-219z" />
    <glyph glyph-name="E" unicode="E" horiz-adv-x="1167" 
d="M1032 199v-199h-852v1365h852v-199h-626v-379h589v-189h-589v-399h626z" />
    <glyph glyph-name="F" unicode="F" horiz-adv-x="1104" 
d="M407 0h-227v1365h841v-201h-614v-408h562v-198h-562v-558z" />
    <glyph glyph-name="G" unicode="G" horiz-adv-x="1343" 
d="M1210 970h-224q-24 100 -102.5 159t-195.5 59q-158 0 -246 -109t-88 -305v-176q0 -197 87.5 -309.5t253.5 -112.5q146 0 225.5 74t79.5 191v102h-314v185h532v-276q0 -100 -34 -186.5t-98 -152t-165 -103t-227 -37.5q-275 0 -422 167.5t-147 456.5v178q0 282 151.5 449.5
t415.5 167.5q218 0 356.5 -119t161.5 -303z" />
    <glyph glyph-name="H" unicode="H" horiz-adv-x="1439" 
d="M1259 0h-227v600h-625v-600h-227v1365h227v-564h625v564h227v-1365z" />
    <glyph glyph-name="I" unicode="I" horiz-adv-x="587" 
d="M407 0h-227v1365h227v-1365z" />
    <glyph glyph-name="J" unicode="J" horiz-adv-x="1072" 
d="M51 364h220q3 -80 56.5 -129t136.5 -49q102 0 154.5 58t52.5 168v953h228v-943q0 -216 -114 -332.5t-320 -116.5q-193 0 -303.5 111t-110.5 280z" />
    <glyph glyph-name="K" unicode="K" horiz-adv-x="1278" 
d="M1224 1365l-497 -586l521 -779h-278l-410 619l-153 -167v-452h-227v1365h227v-627h10l552 627h255z" />
    <glyph glyph-name="L" unicode="L" horiz-adv-x="1058" 
d="M1008 206v-206h-828v1365h227v-1159h601z" />
    <glyph glyph-name="M" unicode="M" horiz-adv-x="1663" 
d="M387 0h-203v1365h227l417 -945h8l417 945h226v-1365h-205v939h-12l-350 -787h-163l-350 787h-12v-939z" />
    <glyph glyph-name="N" unicode="N" horiz-adv-x="1425" 
d="M398 0h-218v1365h200l637 -960h10v960h218v-1365h-199l-639 963h-9v-963z" />
    <glyph glyph-name="O" unicode="O" horiz-adv-x="1385" 
d="M1030 775q0 201 -93 307.5t-244 106.5q-152 0 -245 -106.5t-93 -307.5v-186q0 -201 93 -307.5t245 -106.5q151 0 244 106.5t93 307.5v186zM1260 590q0 -289 -152 -453t-415 -164t-415.5 164.5t-152.5 452.5v183q0 290 152 454.5t416 164.5q263 0 415 -165t152 -454v-183z
" />
    <glyph glyph-name="P" unicode="P" horiz-adv-x="1228" 
d="M704 1365q206 0 327.5 -125t121.5 -320t-122 -319t-329 -124h-295v-477h-227v1365h524zM921 920q0 119 -66 184.5t-185 65.5h-264v-500h264q119 0 185 66t66 184z" />
    <glyph glyph-name="Q" unicode="Q" horiz-adv-x="1389" 
d="M1261 -142h-236l-112 153q-99 -38 -219 -38q-262 0 -414.5 167t-152.5 451v181q0 286 152 453t415 167t415 -167.5t152 -452.5v-181q0 -313 -180 -478zM351 588q0 -199 90.5 -310.5t248.5 -113.5q63 0 111 19l-168 233h226l92 -119q86 106 86 291v186q0 195 -92 305.5
t-251 110.5t-251 -110.5t-92 -305.5v-186z" />
    <glyph glyph-name="R" unicode="R" horiz-adv-x="1292" 
d="M702 1365q214 0 337 -115t123 -309q0 -140 -70.5 -241t-180.5 -141l276 -559h-255l-245 520h-283v-520h-224v1365h522zM404 707h260q127 0 195.5 58t68.5 169q0 113 -69 175.5t-189 62.5h-266v-465z" />
    <glyph glyph-name="S" unicode="S" horiz-adv-x="1236" 
d="M88 362h223q17 -87 98 -140.5t206 -53.5q133 0 208 56t75 149q0 74 -52 118.5t-165 72.5l-224 54q-160 38 -247 131.5t-87 238.5q0 181 137.5 294t355.5 113q212 0 344.5 -106.5t145.5 -268.5h-220q-17 82 -89 131.5t-183 49.5q-120 0 -191.5 -55t-71.5 -143
q0 -131 189 -174l223 -54q180 -42 271 -132.5t91 -247.5q0 -191 -141 -306.5t-386 -115.5q-230 0 -363.5 109.5t-146.5 279.5z" />
    <glyph glyph-name="T" unicode="T" horiz-adv-x="1115" 
d="M671 0h-227v1162h-399v203h1026v-203h-400v-1162z" />
    <glyph glyph-name="U" unicode="U" horiz-adv-x="1400" 
d="M700 179q142 0 225.5 82.5t83.5 227.5v876h227v-894q0 -225 -146.5 -361.5t-389.5 -136.5t-389.5 136.5t-146.5 361.5v894h227v-876q0 -146 83.5 -228t225.5 -82z" />
    <glyph glyph-name="V" unicode="V" horiz-adv-x="1280" 
d="M512 0l-473 1365h261l339 -1099h11l338 1099h253l-471 -1365h-258z" />
    <glyph glyph-name="W" unicode="W" horiz-adv-x="1767" 
d="M610 0h-206l-368 1365h252l227 -1026h11l255 1026h206l254 -1026h12l226 1026h252l-368 -1365h-206l-269 995h-9z" />
    <glyph glyph-name="X" unicode="X" horiz-adv-x="1210" 
d="M1188 1365l-443 -686l436 -679h-265l-313 502h-11l-315 -502h-250l434 688l-429 677h269l311 -507h11l308 507h257z" />
    <glyph glyph-name="Y" unicode="Y" horiz-adv-x="1176" 
d="M701 0h-226v541l-457 824h254l313 -588h10l314 588h249l-457 -820v-545z" />
    <glyph glyph-name="Z" unicode="Z" horiz-adv-x="1216" 
d="M110 0v159l692 994v12h-671v200h948v-159l-689 -993v-13h707v-200h-987z" />
    <glyph glyph-name="bracketleft" unicode="[" horiz-adv-x="739" 
d="M184 1437h497v-172h-284v-1404h284v-172h-497v1748z" />
    <glyph glyph-name="backslash" unicode="\" horiz-adv-x="739" 
d="M717 -311h-203l-493 1748h204z" />
    <glyph glyph-name="bracketright" unicode="]" horiz-adv-x="739" 
d="M57 1437h497v-1748h-497v172h286v1404h-286v172z" />
    <glyph glyph-name="asciicircum" unicode="^" horiz-adv-x="873" 
d="M805 795h-191l-173 384h-8l-174 -384h-190l268 570h200z" />
    <glyph glyph-name="underscore" unicode="_" horiz-adv-x="901" 
d="M902 -283h-903v180h903v-180z" />
    <glyph glyph-name="grave" unicode="`" horiz-adv-x="1000" 
d="M681 1228h-165l-279 354h206z" />
    <glyph glyph-name="a" unicode="a" horiz-adv-x="1133" 
d="M456 -16q-155 0 -250.5 88t-95.5 235q0 144 97.5 229t276.5 85h267v98q0 86 -52.5 129t-146.5 43q-162 0 -191 -117h-211q10 137 114 218.5t295 81.5q88 0 160.5 -19.5t130.5 -60.5t90 -112t32 -167v-715h-211v136h-10q-39 -67 -112.5 -109.5t-182.5 -42.5zM525 162
q95 0 160.5 56t65.5 139v112h-232q-93 0 -139.5 -40.5t-46.5 -108.5q0 -76 55.5 -117t136.5 -41z" />
    <glyph glyph-name="b" unicode="b" horiz-adv-x="1228" 
d="M706 -15q-111 0 -193 46.5t-116 128.5h-12v-160h-216v1437h222v-547h12q25 82 109.5 132t198.5 50q186 0 292.5 -124t106.5 -340v-157q0 -217 -108 -341.5t-296 -124.5zM645 175q114 0 176.5 79.5t62.5 222.5v99q0 145 -63.5 225.5t-179.5 80.5t-183 -77.5t-67 -210.5
v-147q0 -120 71 -196t183 -76z" />
    <glyph glyph-name="c" unicode="c" horiz-adv-x="1101" 
d="M117 458v148q0 214 123.5 342t332.5 128q130 0 226.5 -50t144 -128.5t50.5 -173.5h-210q-8 63 -57.5 111.5t-148.5 48.5q-114 0 -176 -76t-62 -207v-142q0 -133 63.5 -209.5t175.5 -76.5q184 0 211 151h210q-5 -148 -114.5 -245t-312.5 -97q-211 0 -333.5 127.5
t-122.5 348.5z" />
    <glyph glyph-name="d" unicode="d" horiz-adv-x="1230" 
d="M522 1072q111 0 192 -46t112 -127h11v538h222v-1437h-216v169h-11q-24 -81 -111 -132t-202 -51q-183 0 -292 123t-109 333v175q0 210 110 332.5t294 122.5zM584 882q-112 0 -176 -78t-64 -218v-112q0 -142 65 -220t180 -78q113 0 180.5 76t67.5 208v154q0 120 -71 194
t-182 74z" />
    <glyph glyph-name="e" unicode="e" horiz-adv-x="1136" 
d="M584 -18q-217 0 -342 126.5t-125 351.5v138q0 222 127.5 350t326.5 128q201 0 326.5 -130t125.5 -348v-123h-686v-52q0 -114 66 -185.5t180 -71.5q84 0 141.5 35t69.5 86h217q-5 -50 -33 -101t-77.5 -98t-132.5 -76.5t-184 -29.5zM337 624h469v13q0 116 -64 187t-170 71
t-170.5 -71t-64.5 -187v-13z" />
    <glyph glyph-name="f" unicode="f" horiz-adv-x="821" 
d="M259 0v869h-175v181h175v106q0 156 81 227t266 71q65 0 134 -8v-172q-34 4 -96 4q-90 0 -128.5 -31.5t-38.5 -110.5v-86h241v-181h-238v-869h-221z" />
    <glyph glyph-name="g" unicode="g" horiz-adv-x="1199" 
d="M571 -208q126 0 190 63t64 180v150h-12q-31 -72 -110 -118.5t-186 -46.5q-180 0 -294.5 122.5t-114.5 336.5v133q0 214 114.5 337t294.5 123q111 0 193 -51t110 -124h11v161h215v-1033q0 -108 -37.5 -189.5t-104.5 -129t-152 -70.5t-188 -23q-202 0 -312.5 86t-120.5 216
h220q11 -55 69.5 -89t150.5 -34zM586 882q-116 0 -184 -80t-68 -217v-89q0 -134 70.5 -214.5t183.5 -80.5q110 0 173.5 77.5t63.5 193.5v135q0 118 -65 196.5t-174 78.5z" />
    <glyph glyph-name="h" unicode="h" horiz-adv-x="1238" 
d="M171 0v1437h221v-568h11q10 32 31 64t57.5 65.5t97 54.5t135.5 21q160 0 256.5 -93t96.5 -269v-712h-221v645q0 115 -58 173.5t-157 58.5q-117 0 -183 -80t-66 -210v-587h-221z" />
    <glyph glyph-name="i" unicode="i" horiz-adv-x="601" 
d="M190 0v1058h221v-1058h-221zM154 1375q0 61 41 99.5t104 38.5q66 0 107.5 -38.5t41.5 -99.5t-41.5 -99t-107.5 -38q-63 0 -104 38.5t-41 98.5z" />
    <glyph glyph-name="j" unicode="j" horiz-adv-x="601" 
d="M154 1375q0 61 41 99.5t104 38.5q66 0 107.5 -38.5t41.5 -99.5t-41.5 -99t-107.5 -38q-63 0 -104 38.5t-41 98.5zM411 1058v-1081q0 -176 -83 -262t-237 -86q-71 0 -105 8v172q20 -4 62 -4q77 0 109.5 41.5t32.5 132.5v1079h221z" />
    <glyph glyph-name="k" unicode="k" horiz-adv-x="1113" 
d="M391 376v-376h-221v1437h221v-833h10l389 454h253l-399 -458l426 -600h-262l-331 464z" />
    <glyph glyph-name="l" unicode="l" horiz-adv-x="571" 
d="M174 0v1437h222v-1437h-222z" />
    <glyph glyph-name="m" unicode="m" horiz-adv-x="1813" 
d="M167 0v1058h218v-172h11q10 33 28.5 62.5t51 59.5t86.5 48t122 18q115 0 190.5 -54.5t101.5 -143.5h9q33 84 114.5 141t206.5 57q162 0 253 -88t91 -245v-741h-221v671q0 100 -52.5 154.5t-148.5 54.5q-91 0 -151 -62.5t-60 -164.5v-653h-216v665q0 102 -55.5 158.5
t-148.5 56.5q-92 0 -150 -61t-58 -164v-655h-222z" />
    <glyph glyph-name="n" unicode="n" horiz-adv-x="1232" 
d="M167 0v1058h218v-189h11q12 36 32 68t56 65t95 52.5t135 19.5q165 0 260.5 -92t95.5 -269v-713h-222v646q0 116 -55.5 173.5t-153.5 57.5q-120 0 -185 -80t-65 -210v-587h-222z" />
    <glyph glyph-name="o" unicode="o" horiz-adv-x="1175" 
d="M588 1076q210 0 339.5 -129t129.5 -350v-132q0 -227 -129 -355t-340 -128q-214 0 -342.5 127t-128.5 356v131q0 217 131 348.5t340 131.5zM589 890q-115 0 -181.5 -85t-66.5 -218v-116q0 -134 64.5 -218.5t183.5 -84.5q118 0 181.5 84t63.5 219v116q0 133 -65 218
t-180 85z" />
    <glyph glyph-name="p" unicode="p" horiz-adv-x="1226" 
d="M703 -15q-109 0 -187.5 45.5t-114.5 129.5h-11v-511h-222v1410h216v-169h11q32 85 115.5 133.5t197.5 48.5q185 0 291.5 -124t106.5 -340v-157q0 -217 -107.5 -341.5t-295.5 -124.5zM640 175q115 0 178 79.5t63 223.5v100q0 146 -63.5 225t-181.5 79q-114 0 -180 -76
t-66 -208v-154q0 -121 69 -195t181 -74z" />
    <glyph glyph-name="q" unicode="q" horiz-adv-x="1225" 
d="M518 1072q112 0 195 -48t117 -132h11v166h216v-1409h-222v513h-11q-32 -82 -114.5 -129.5t-193.5 -47.5q-184 0 -291 124.5t-107 338.5v162q0 213 108.5 337.5t291.5 124.5zM585 882q-112 0 -176.5 -79t-64.5 -218v-113q0 -140 64.5 -219t179.5 -79t181 76.5t66 208.5
v154q0 119 -70 194t-180 75z" />
    <glyph glyph-name="r" unicode="r" horiz-adv-x="827" 
d="M181 0v1058h221v-165h12q10 30 29 59t51 58t83 46.5t114 17.5q38 0 75 -7v-205q-25 8 -95 8q-129 0 -197 -67.5t-68 -179.5v-623h-225z" />
    <glyph glyph-name="s" unicode="s" horiz-adv-x="1060" 
d="M122 749q0 111 58.5 186.5t148 108t202.5 32.5q176 0 283.5 -82t107.5 -223h-200q-5 56 -56 97t-141 41q-86 0 -138 -37.5t-52 -101.5q0 -38 18 -64.5t64 -43t69 -22t89 -16.5q6 -1 9.5 -2t8.5 -1.5t9 -1.5q64 -11 112.5 -25t95 -37.5t76 -54.5t47.5 -77t18 -104
q0 -159 -117.5 -249t-319.5 -90q-189 0 -300.5 82t-111.5 223h216q20 -138 207 -138q106 0 158 40.5t52 104.5q0 29 -12.5 51.5t-32.5 36.5t-52 25t-63.5 18.5t-75.5 15.5q-18 3 -27 5q-65 13 -111.5 26.5t-94.5 37.5t-77.5 54.5t-48 77.5t-18.5 107z" />
    <glyph glyph-name="t" unicode="t" horiz-adv-x="800" 
d="M237 1050v264h217v-264h237v-181h-237v-549q0 -83 35.5 -113.5t126.5 -30.5q53 0 87 4v-177q-45 -10 -142 -10q-128 0 -199.5 33t-99.5 97t-28 175v571h-161v181h164z" />
    <glyph glyph-name="u" unicode="u" horiz-adv-x="1227" 
d="M1060 1058v-1058h-218v176h-12q-12 -34 -36 -66t-61 -61.5t-93 -47t-122 -17.5q-167 0 -262.5 86t-95.5 265v723h222v-662q0 -215 211 -215q103 0 174 66t71 164v647h222z" />
    <glyph glyph-name="v" unicode="v" horiz-adv-x="1069" 
d="M407 0l-361 1058h243l235 -835h9l256 835h234l-376 -1058h-240z" />
    <glyph glyph-name="w" unicode="w" horiz-adv-x="1569" 
d="M1517 1058l-278 -1058h-226l-221 773h-6l-217 -773h-227l-290 1058h239l170 -799h10l213 799h209l219 -799h10l173 799h222z" />
    <glyph glyph-name="x" unicode="x" horiz-adv-x="1102" 
d="M776 0l-226 370h-9l-227 -370h-241l341 525l-348 533h260l221 -369h9l228 369h247l-352 -521l351 -537h-254z" />
    <glyph glyph-name="y" unicode="y" horiz-adv-x="1117" 
d="M1051 1058q-13 -48 -54.5 -172.5t-92 -268t-99 -280t-81.5 -227.5l-33 -92l-23 -61q-66 -177 -161 -252.5t-249 -75.5q-74 0 -121 10v175q32 -6 81 -6q89 0 137 35.5t67 117.5l9 32l-377 1065h246l252 -849h9l255 849h235z" />
    <glyph glyph-name="z" unicode="z" horiz-adv-x="1037" 
d="M116 0v139l533 719v12h-531v188h802v-149l-523 -709v-11h532v-189h-813z" />
    <glyph glyph-name="braceleft" unicode="{" horiz-adv-x="739" 
d="M247 593v-26q181 -17 183 -230v-272q0 -110 46.5 -156t165.5 -46h40v-174h-76q-193 0 -288.5 82t-96.5 268v230q0 108 -34 153.5t-130 45.5v223q96 0 130 45.5t34 153.5v205q0 185 95 263.5t290 78.5h75v-173h-39q-119 0 -165.5 -46t-46.5 -156v-249q0 -105 -45.5 -158.5
t-137.5 -61.5z" />
    <glyph glyph-name="bar" unicode="|" horiz-adv-x="739" 
d="M469 -311h-199v1748h199v-1748z" />
    <glyph glyph-name="braceright" unicode="}" horiz-adv-x="739" 
d="M492 567v26q-182 17 -182 220v249q0 110 -47 156t-166 46h-40v173h76q195 0 290 -78.5t95 -263.5v-205q0 -108 33.5 -153.5t129.5 -45.5v-223q-96 0 -129.5 -45.5t-33.5 -153.5v-230q0 -186 -96 -268t-289 -82h-76v174h40q119 0 166 46t47 156v272q0 213 182 230z" />
    <glyph glyph-name="asciitilde" unicode="~" horiz-adv-x="1167" 
d="M791 487q-49 0 -94 15t-75.5 37t-62 48.5t-55.5 48.5t-54 37t-60 15q-56 0 -86 -47.5t-33 -118.5h-179q-4 152 70.5 256.5t213.5 104.5q60 0 111 -20.5t86 -50.5t66.5 -59.5t66 -50t69.5 -20.5q57 0 86.5 47.5t32.5 117.5h179q2 -155 -72 -257.5t-210 -102.5z" />
    <glyph glyph-name="nonbreakingspace" unicode="&#xa0;" horiz-adv-x="459" 
 />
    <glyph glyph-name="exclamdown" unicode="&#xa1;" horiz-adv-x="592" 
d="M419 -278h-247l27 893h194zM456 959q0 -66 -45 -108.5t-114 -42.5q-72 0 -117 42t-45 109q0 65 45 106t117 41q69 0 114 -41.5t45 -105.5z" />
    <glyph glyph-name="cent" unicode="&#xa2;" horiz-adv-x="1184" 
d="M362 724v-62q0 -125 50 -207.5t137 -106.5v683q-88 -23 -137.5 -103.5t-49.5 -203.5zM832 496h199q-19 -148 -113 -235.5t-252 -101.5v-179h-117v179q-188 19 -294 154.5t-106 347.5v66q0 206 106.5 339.5t293.5 152.5v166h117v-166q107 -12 189 -63.5t124.5 -126
t46.5 -161.5h-200q-14 60 -56.5 105.5t-103.5 59.5v-690q70 11 111.5 52.5t54.5 100.5z" />
    <glyph glyph-name="sterling" unicode="&#xa3;" horiz-adv-x="1184" 
d="M465 186h605v-186h-931v176q109 20 173.5 101.5t64.5 199.5q0 65 -19 148h-226v125h192q-41 148 -41 243q0 183 128.5 291t349.5 108q134 0 248 -46v-188q-107 46 -236 46q-121 0 -195.5 -58.5t-74.5 -156.5q0 -94 40 -239h383v-125h-351q16 -76 16 -133
q0 -214 -126 -291v-15z" />
    <glyph glyph-name="currency" unicode="&#xa4;" horiz-adv-x="1184" 
d="M973 145l-169 167q-95 -60 -207 -60q-114 0 -212 63l-171 -170l-117 122l170 169q-65 100 -65 216t61 211l-166 165l118 123l165 -164q100 66 217 66q115 0 213 -64l162 162l119 -123l-163 -161q63 -98 63 -215q0 -120 -67 -220l167 -165zM364 652q0 -95 68 -162t165 -67
q95 0 164 67.5t69 161.5q0 95 -68.5 162.5t-164.5 67.5q-97 0 -165 -67.5t-68 -162.5z" />
    <glyph glyph-name="yen" unicode="&#xa5;" horiz-adv-x="1184" 
d="M1149 1365l-394 -731h237v-110h-285v-143h285v-110h-285v-271h-227v271h-288v110h288v143h-288v110h238l-392 731h254l298 -588h10l299 588h250z" />
    <glyph glyph-name="brokenbar" unicode="&#xa6;" horiz-adv-x="739" 
d="M469 787h-199v650h199v-650zM469 -311h-199v672h199v-672z" />
    <glyph glyph-name="section" unicode="&#xa7;" horiz-adv-x="984" 
d="M684 72q0 30 -12 53.5t-32 39.5t-50.5 29t-62 22.5t-73.5 20.5q-20 5 -31 8q-73 19 -125 40.5t-99 56t-71.5 86t-24.5 119.5q0 161 167 249v7q-161 92 -161 257q0 106 55 183t142 113.5t193 36.5q170 0 274 -90t104 -230h-191q-3 57 -54.5 102.5t-138.5 45.5
q-79 0 -128.5 -41.5t-49.5 -107.5q0 -32 13.5 -56.5t35 -41t53.5 -30t64.5 -23t72.5 -19.5q11 -3 17 -4q40 -10 69.5 -18.5t66 -22.5t62 -29.5t52 -38.5t42.5 -49.5t26 -62.5t10 -79q0 -87 -44 -152.5t-109 -108.5v-7q67 -41 106.5 -95.5t39.5 -141.5q0 -155 -112 -249.5
t-293 -94.5q-112 0 -201 37.5t-142.5 110.5t-54.5 170h196q10 -67 62 -106t141 -39q99 0 147.5 43t48.5 107zM587 390q47 19 78 66.5t31 102.5q0 70 -51.5 109t-149.5 60q-12 3 -37.5 8t-33.5 7q-45 -15 -82.5 -62.5t-37.5 -103.5q0 -70 50 -106.5t148 -61.5q34 -9 85 -19z
" />
    <glyph glyph-name="dieresis" unicode="&#xa8;" horiz-adv-x="1000" 
d="M692 1231q-51 0 -85 32t-34 83q0 50 34 82.5t85 32.5q52 0 85.5 -32.5t33.5 -82.5q0 -51 -33.5 -83t-85.5 -32zM308 1231q-51 0 -85 32t-34 83q0 50 33.5 82.5t85.5 32.5q51 0 85 -32.5t34 -82.5q0 -51 -33.5 -83t-85.5 -32z" />
    <glyph glyph-name="copyright" unicode="&#xa9;" horiz-adv-x="1693" 
d="M523 632v99q0 156 92 244t243 88q138 0 222 -77.5t86 -182.5h-147q-7 48 -45 85.5t-115 37.5q-185 0 -185 -201v-94q0 -96 49.5 -143.5t135.5 -47.5q144 0 164 105h147q-3 -103 -85 -175.5t-227 -72.5q-152 0 -243.5 87.5t-91.5 247.5zM260 641q0 -125 43 -232
t119.5 -183.5t187.5 -120t242 -43.5q264 0 429 163t165 416v106q0 115 -44 217.5t-121 177.5t-188.5 119t-240.5 44q-173 0 -309 -75t-209.5 -202t-73.5 -281v-106zM852 -64q-209 0 -374 92t-255.5 253.5t-90.5 362.5v103q0 142 54 268t148 218t229 145.5t289 53.5
q155 0 290 -54t228.5 -146.5t147.5 -218.5t54 -266v-103q0 -151 -53 -282t-146.5 -224.5t-228.5 -147.5t-292 -54z" />
    <glyph glyph-name="ordfeminine" unicode="&#xaa;" horiz-adv-x="933" 
d="M372 482q-129 0 -207 72.5t-78 193.5t82.5 190t225.5 69h216v82q0 65 -40 99.5t-115 34.5q-127 0 -150 -94h-186q8 121 96.5 187t244.5 66q166 0 255.5 -77t89.5 -220v-589h-186v110h-9q-34 -59 -96 -91.5t-143 -32.5zM434 636q75 0 126 43.5t51 107.5v92h-180
q-69 0 -108 -31.5t-39 -87.5t41 -90t109 -34z" />
    <glyph glyph-name="guillemotleft" unicode="&#xab;" horiz-adv-x="1334" 
d="M617 565l344 404h224l-339 -403v-6l339 -405h-233l-335 402v8zM128 565l344 404h224l-339 -403v-6l339 -405h-233l-335 402v8z" />
    <glyph glyph-name="logicalnot" unicode="&#xac;" horiz-adv-x="1184" 
d="M1083 91h-193v359h-791v187h984v-546z" />
    <glyph glyph-name="registered" unicode="&#xae;" horiz-adv-x="1211" 
d="M606 414q-214 0 -354 135.5t-140 340.5v70q0 194 142 327.5t352 133.5q209 0 351.5 -134.5t142.5 -326.5v-70q0 -205 -139.5 -340.5t-354.5 -135.5zM606 516q170 0 280.5 107t110.5 268v68q0 151 -111.5 256t-279.5 105t-279 -104.5t-111 -256.5v-68q0 -161 110.5 -268
t279.5 -107zM530 1087v-142h77q96 0 96 71q0 34 -23 52.5t-62 18.5h-88zM530 688h-106v480h229q70 0 114.5 -42.5t44.5 -107.5q0 -52 -26.5 -90.5t-67.5 -50.5l109 -189h-120l-95 176h-82v-176z" />
    <glyph glyph-name="macron" unicode="&#xaf;" horiz-adv-x="1000" 
d="M801 1245h-612v131h612v-131z" />
    <glyph glyph-name="degree" unicode="&#xb0;" horiz-adv-x="720" 
d="M361 805q-122 0 -206.5 84t-84.5 205q0 122 84 205t207 83q122 0 205.5 -83.5t83.5 -204.5t-84 -205t-205 -84zM360 949q58 0 99.5 42.5t41.5 102.5t-41 102t-100 42q-58 0 -99.5 -42.5t-41.5 -101.5t42 -102t99 -43z" />
    <glyph glyph-name="plusminus" unicode="&#xb1;" horiz-adv-x="1184" 
d="M683 648v-264h-187v264h-385v180h385v250h187v-250h388v-180h-388zM1073 88h-959v185h959v-185z" />
    <glyph glyph-name="two.sups" unicode="&#xb2;" horiz-adv-x="782" 
d="M275 1476h-200v13q0 121 89 199.5t227 78.5q137 0 222.5 -69t85.5 -178q0 -69 -35.5 -131.5t-127.5 -158.5l-160 -165v-9h340v-176h-629v138l310 318q53 52 74 88.5t21 75.5q0 41 -29.5 67.5t-76.5 26.5q-49 0 -80.5 -30t-31.5 -76v-7z" />
    <glyph glyph-name="three.sups" unicode="&#xb3;" horiz-adv-x="801" 
d="M293 1242v163h95q51 0 83.5 28t31.5 72q0 43 -32 70t-83 27q-50 0 -84 -27.5t-35 -70.5h-197q4 123 90 193t233 70q141 0 227.5 -63t87.5 -167q1 -71 -46 -128.5t-115 -67.5v-11q80 -7 132 -65.5t53 -141.5q0 -117 -95.5 -189.5t-249.5 -72.5q-146 0 -237 73t-93 192h196
q2 -42 39.5 -69t95.5 -27q59 -1 96 28.5t38 78.5q-1 47 -37 76t-95 29h-99z" />
    <glyph glyph-name="acute" unicode="&#xb4;" horiz-adv-x="1000" 
d="M298 1228l238 354h206l-279 -354h-165z" />
    <glyph glyph-name="mugreek" unicode="&#x3bc;" horiz-adv-x="1305" 
d="M170 -351v1409h221v-644q0 -108 55 -170.5t154 -62.5q108 0 174.5 67.5t66.5 164.5v645h221v-762q0 -71 19 -96.5t70 -25.5q20 0 50 6v-177q-46 -12 -105 -12q-97 0 -155.5 41.5t-71.5 121.5l-2 16h-12q-69 -186 -257 -186q-133 0 -195 93h-11v-428h-222z" />
    <glyph glyph-name="mugreek" unicode="&#xb5;" horiz-adv-x="1305" 
d="M170 -351v1409h221v-644q0 -108 55 -170.5t154 -62.5q108 0 174.5 67.5t66.5 164.5v645h221v-762q0 -71 19 -96.5t70 -25.5q20 0 50 6v-177q-46 -12 -105 -12q-97 0 -155.5 41.5t-71.5 121.5l-2 16h-12q-69 -186 -257 -186q-133 0 -195 93h-11v-428h-222z" />
    <glyph glyph-name="paragraph" unicode="&#xb6;" horiz-adv-x="1377" 
d="M808 -210h-213v688h-20q-57 0 -117 15.5t-121 50t-108 84.5t-77 126t-30 167q0 99 30 178t77 127.5t108.5 81t120.5 45t118 12.5h232v-1575zM969 -210v1575h214v-1575h-214z" />
    <glyph glyph-name="periodcentered" unicode="&#xb7;" horiz-adv-x="660" 
d="M167 760q0 74 46 119.5t115 45.5q71 0 118 -46t47 -119q0 -71 -47 -116t-118 -45q-68 0 -114.5 45t-46.5 116z" />
    <glyph glyph-name="cedilla" unicode="&#xb8;" horiz-adv-x="1000" 
d="M384 -235v93l57 149h138l-51 -133q93 0 148 -43t55 -122q0 -94 -64 -142t-170 -51q-83 -3 -148 15v117q47 -14 114 -14q113 0 113 68q0 21 -10 34t-31 19t-42.5 8t-55.5 2h-53z" />
    <glyph glyph-name="one.sups" unicode="&#xb9;" horiz-adv-x="638" 
d="M493 880h-208v669h-10l-200 -138v195l204 143h214v-869z" />
    <glyph glyph-name="ordmasculine" unicode="&#xba;" horiz-adv-x="966" 
d="M483 1382q178 0 284 -108.5t106 -287.5v-94q0 -186 -105 -293.5t-285 -107.5q-181 0 -285.5 107t-104.5 293v94q0 177 107 287t283 110zM484 1222q-90 0 -141.5 -68t-51.5 -175v-85q0 -107 50.5 -174.5t142.5 -67.5q91 0 141.5 67t50.5 175v85q0 108 -51 175.5t-141 67.5
z" />
    <glyph glyph-name="guillemotright" unicode="&#xbb;" horiz-adv-x="1334" 
d="M1206 565v-8l-335 -402h-233l339 405v6l-339 403h224zM717 565v-8l-335 -402h-233l339 405v6l-339 403h224z" />
    <glyph glyph-name="onequarter" unicode="&#xbc;" horiz-adv-x="1906" 
d="M493 496h-208v669h-10l-200 -138v195l204 143h214v-869zM519 0l308 712l253 653h209l-304 -693l-257 -672h-209zM1447 869h298v-553h113v-172h-113v-144h-190v144h-421v177q34 65 77 142t74.5 131t84 143t77.5 132zM1324 310h235v398h-10q-149 -240 -225 -395v-3z" />
    <glyph glyph-name="onehalf" unicode="&#xbd;" horiz-adv-x="1875" 
d="M493 496h-208v669h-10l-200 -138v195l204 143h214v-869zM519 0l308 712l253 653h209l-304 -693l-257 -672h-209zM1398 596h-200v13q0 121 89 199.5t227 78.5q137 0 222.5 -69t85.5 -178q0 -69 -35.5 -131.5t-127.5 -158.5l-160 -165v-9h340v-176h-629v138l310 318
q53 52 74 88.5t21 75.5q0 41 -29.5 67.5t-76.5 26.5q-49 0 -80.5 -30t-31.5 -76q0 -2 1 -7v-5z" />
    <glyph glyph-name="threequarters" unicode="&#xbe;" horiz-adv-x="2026" 
d="M293 858v163h95q51 0 83.5 28t31.5 72q0 43 -32 70t-83 27q-50 0 -84 -27.5t-35 -70.5h-197q4 123 90 193t233 70q141 0 227.5 -63.5t87.5 -166.5q1 -71 -46 -128.5t-115 -67.5v-11q80 -7 132 -65.5t53 -141.5q0 -117 -95.5 -189.5t-249.5 -72.5q-146 0 -237 73t-93 192
h196q2 -42 39.5 -69t95.5 -27q59 -1 96 28.5t38 78.5q-1 47 -37 76t-95 29h-99zM638 0l308 712l253 653h209l-304 -693l-257 -672h-209zM1567 869h298v-553h113v-172h-113v-144h-190v144h-421v177q34 65 77 142t74.5 131t84 143t77.5 132zM1444 310h235v398h-10
q-149 -240 -225 -395v-3z" />
    <glyph glyph-name="questiondown" unicode="&#xbf;" horiz-adv-x="1015" 
d="M689 946q0 -66 -45 -108.5t-114 -42.5q-72 0 -117 42t-45 109q0 65 45 106.5t117 41.5q69 0 114 -42t45 -106zM935 82q1 -86 -23.5 -156t-66.5 -115t-99.5 -75t-118.5 -43t-126 -13q-84 0 -159 22.5t-134 65t-93.5 112t-34.5 156.5q0 61 15.5 111t48 89.5t60 64.5
t72.5 58q53 40 75.5 58.5t46 47t30.5 56.5t7 70v56h207v-70q4 -102 -44.5 -175.5t-139.5 -140.5q-44 -32 -64.5 -49.5t-45 -44.5t-33.5 -54.5t-9 -63.5q0 -90 59.5 -135t147.5 -45q103 0 158.5 59.5t55.5 153.5h208z" />
    <glyph glyph-name="Agrave" unicode="&#xc0;" horiz-adv-x="1285" 
d="M278 0h-232l470 1365h253l470 -1365h-240l-121 370h-479zM644 1122h-10l-184 -570h377zM727 1508h-160l-280 322h203z" />
    <glyph glyph-name="Aacute" unicode="&#xc1;" horiz-adv-x="1285" 
d="M278 0h-232l470 1365h253l470 -1365h-240l-121 370h-479zM644 1122h-10l-184 -570h377zM559 1508l237 322h203l-280 -322h-160z" />
    <glyph glyph-name="Acircumflex" unicode="&#xc2;" horiz-adv-x="1285" 
d="M278 0h-232l470 1365h253l470 -1365h-240l-121 370h-479zM644 1122h-10l-184 -570h377zM718 1741l267 -246h-194l-145 133h-7l-153 -133h-191l277 246h146z" />
    <glyph glyph-name="Atilde" unicode="&#xc3;" horiz-adv-x="1285" 
d="M278 0h-232l470 1365h253l470 -1365h-240l-121 370h-479zM644 1122h-10l-184 -570h377zM768 1461q-45 0 -83 18t-59.5 39.5t-48 39.5t-50.5 18q-36 0 -53 -31t-19 -70h-123q0 89 48.5 154.5t138.5 65.5q44 0 83 -18t62 -40t51 -40t52 -18q35 0 53.5 29.5t20.5 70.5h123
q0 -90 -52.5 -154t-143.5 -64z" />
    <glyph glyph-name="Adieresis" unicode="&#xc4;" horiz-adv-x="1285" 
d="M278 0h-232l470 1365h253l470 -1365h-240l-121 370h-479zM644 1122h-10l-184 -570h377zM824 1468q-49 0 -81 32t-32 80q0 47 32 79t81 32t81 -32t32 -79q0 -48 -32 -80t-81 -32zM460 1468q-49 0 -81 32t-32 80q0 47 32 79t81 32t81 -32t32 -79q0 -48 -32 -80t-81 -32z
" />
    <glyph glyph-name="Aring" unicode="&#xc5;" horiz-adv-x="1285" 
d="M278 0h-232l470 1365h253l470 -1365h-240l-121 370h-479zM644 1122h-10l-184 -570h377zM644 1474q-86 0 -145 57.5t-59 143.5t59 142.5t145 56.5t144.5 -56.5t58.5 -142.5t-59 -143.5t-144 -57.5zM546 1674q0 -41 28 -69t69 -28q42 0 69.5 28t27.5 69t-27.5 69t-69.5 28
q-41 0 -69 -28t-28 -69z" />
    <glyph glyph-name="AE" unicode="&#xc6;" horiz-adv-x="1926" 
d="M876 1166l-309 -617h379v617h-70zM946 363h-462l-195 -363h-252l704 1365h1049v-199h-620v-379h584v-189h-584v-399h620v-199h-844v363z" />
    <glyph glyph-name="Ccedilla" unicode="&#xc7;" horiz-adv-x="1318" 
d="M650 -485q-70 0 -132 16v117q44 -14 114 -14q52 0 83 17.5t31 50.5t-30.5 48t-108.5 15h-54v93l46 119q-227 25 -350.5 185.5t-123.5 427.5v180q0 289 147.5 455.5t407.5 166.5q226 0 373.5 -133t147.5 -340v-18h-220q0 122 -85 204t-215 82q-154 0 -240 -110t-86 -309
v-178q0 -200 85 -306t245 -106q133 0 214.5 75t81.5 194h220v-19q0 -182 -131 -308.5t-333 -143.5l-39 -102q96 0 149.5 -44t53.5 -121q0 -94 -66 -144t-185 -50z" />
    <glyph glyph-name="Egrave" unicode="&#xc8;" horiz-adv-x="1167" 
d="M1032 199v-199h-852v1365h852v-199h-626v-379h589v-189h-589v-399h626zM684 1508h-160l-280 322h203z" />
    <glyph glyph-name="Eacute" unicode="&#xc9;" horiz-adv-x="1167" 
d="M1032 199v-199h-852v1365h852v-199h-626v-379h589v-189h-589v-399h626zM516 1508l237 322h203l-280 -322h-160z" />
    <glyph glyph-name="Ecircumflex" unicode="&#xca;" horiz-adv-x="1167" 
d="M1032 199v-199h-852v1365h852v-199h-626v-379h589v-189h-589v-399h626zM675 1741l267 -246h-194l-145 133h-7l-153 -133h-191l277 246h146z" />
    <glyph glyph-name="Edieresis" unicode="&#xcb;" horiz-adv-x="1167" 
d="M1032 199v-199h-852v1365h852v-199h-626v-379h589v-189h-589v-399h626zM781 1468q-49 0 -81 32t-32 80q0 47 32 79t81 32t81 -32t32 -79q0 -48 -32 -80t-81 -32zM417 1468q-49 0 -81 32t-32 80q0 47 32 79t81 32t81 -32t32 -79q0 -48 -32 -80t-81 -32z" />
    <glyph glyph-name="Igrave" unicode="&#xcc;" horiz-adv-x="587" 
d="M407 0h-227v1365h227v-1365zM378 1508h-160l-280 322h203z" />
    <glyph glyph-name="Iacute" unicode="&#xcd;" horiz-adv-x="587" 
d="M407 0h-227v1365h227v-1365zM210 1508l237 322h203l-280 -322h-160z" />
    <glyph glyph-name="Icircumflex" unicode="&#xce;" horiz-adv-x="587" 
d="M407 0h-227v1365h227v-1365zM369 1741l267 -246h-194l-145 133h-7l-153 -133h-191l277 246h146z" />
    <glyph glyph-name="Idieresis" unicode="&#xcf;" horiz-adv-x="587" 
d="M407 0h-227v1365h227v-1365zM475 1468q-49 0 -81 32t-32 80q0 47 32 79t81 32t81 -32t32 -79q0 -48 -32 -80t-81 -32zM111 1468q-49 0 -81 32t-32 80q0 47 32 79t81 32t81 -32t32 -79q0 -48 -32 -80t-81 -32z" />
    <glyph glyph-name="Eth" unicode="&#xd0;" horiz-adv-x="1448" 
d="M734 0h-471v590h-163v210h163v565h471q302 0 454 -174.5t152 -505.5q0 -332 -152.5 -508.5t-453.5 -176.5zM490 203h219q201 0 298.5 116.5t97.5 364.5t-97.5 366.5t-298.5 118.5h-219v-369h274v-210h-274v-387z" />
    <glyph glyph-name="Ntilde" unicode="&#xd1;" horiz-adv-x="1425" 
d="M398 0h-218v1365h200l637 -960h10v960h218v-1365h-199l-639 963h-9v-963zM837 1461q-45 0 -83 18t-59.5 39.5t-48 39.5t-50.5 18q-36 0 -53 -31t-19 -70h-123q0 89 48.5 154.5t138.5 65.5q44 0 83 -18t62 -40t51 -40t52 -18q35 0 53.5 29.5t20.5 70.5h123
q0 -90 -52.5 -154t-143.5 -64z" />
    <glyph glyph-name="Ograve" unicode="&#xd2;" horiz-adv-x="1385" 
d="M1030 775q0 201 -93 307.5t-244 106.5q-152 0 -245 -106.5t-93 -307.5v-186q0 -201 93 -307.5t245 -106.5q151 0 244 106.5t93 307.5v186zM1260 590q0 -289 -152 -453t-415 -164t-415.5 164.5t-152.5 452.5v183q0 290 152 454.5t416 164.5q263 0 415 -165t152 -454v-183z
M777 1508h-160l-280 322h203z" />
    <glyph glyph-name="Oacute" unicode="&#xd3;" horiz-adv-x="1385" 
d="M1030 775q0 201 -93 307.5t-244 106.5q-152 0 -245 -106.5t-93 -307.5v-186q0 -201 93 -307.5t245 -106.5q151 0 244 106.5t93 307.5v186zM1260 590q0 -289 -152 -453t-415 -164t-415.5 164.5t-152.5 452.5v183q0 290 152 454.5t416 164.5q263 0 415 -165t152 -454v-183z
M609 1508l237 322h203l-280 -322h-160z" />
    <glyph glyph-name="Ocircumflex" unicode="&#xd4;" horiz-adv-x="1385" 
d="M1030 775q0 201 -93 307.5t-244 106.5q-152 0 -245 -106.5t-93 -307.5v-186q0 -201 93 -307.5t245 -106.5q151 0 244 106.5t93 307.5v186zM1260 590q0 -289 -152 -453t-415 -164t-415.5 164.5t-152.5 452.5v183q0 290 152 454.5t416 164.5q263 0 415 -165t152 -454v-183z
M768 1741l267 -246h-194l-145 133h-7l-153 -133h-191l277 246h146z" />
    <glyph glyph-name="Otilde" unicode="&#xd5;" horiz-adv-x="1385" 
d="M1030 775q0 201 -93 307.5t-244 106.5q-152 0 -245 -106.5t-93 -307.5v-186q0 -201 93 -307.5t245 -106.5q151 0 244 106.5t93 307.5v186zM1260 590q0 -289 -152 -453t-415 -164t-415.5 164.5t-152.5 452.5v183q0 290 152 454.5t416 164.5q263 0 415 -165t152 -454v-183z
M818 1461q-45 0 -83 18t-59.5 39.5t-48 39.5t-50.5 18q-36 0 -53 -31t-19 -70h-123q0 89 48.5 154.5t138.5 65.5q44 0 83 -18t62 -40t51 -40t52 -18q35 0 53.5 29.5t20.5 70.5h123q0 -90 -52.5 -154t-143.5 -64z" />
    <glyph glyph-name="Odieresis" unicode="&#xd6;" horiz-adv-x="1385" 
d="M1030 775q0 201 -93 307.5t-244 106.5q-152 0 -245 -106.5t-93 -307.5v-186q0 -201 93 -307.5t245 -106.5q151 0 244 106.5t93 307.5v186zM1260 590q0 -289 -152 -453t-415 -164t-415.5 164.5t-152.5 452.5v183q0 290 152 454.5t416 164.5q263 0 415 -165t152 -454v-183z
M874 1468q-49 0 -81 32t-32 80q0 47 32 79t81 32t81 -32t32 -79q0 -48 -32 -80t-81 -32zM510 1468q-49 0 -81 32t-32 80q0 47 32 79t81 32t81 -32t32 -79q0 -48 -32 -80t-81 -32z" />
    <glyph glyph-name="multiply" unicode="&#xd7;" horiz-adv-x="1184" 
d="M900 67l-308 308l-308 -308l-134 142l308 307l-308 307l134 141l308 -308l308 308l133 -141l-307 -307l307 -307z" />
    <glyph glyph-name="Oslash" unicode="&#xd8;" horiz-adv-x="1385" 
d="M691 -27q-236 0 -379 129l-100 -123l-110 92l115 142q-92 153 -92 372v184q0 290 153 456.5t415 166.5q227 0 373 -127l93 115l115 -86l-113 -138q99 -156 99 -387v-184q0 -288 -152.5 -450t-416.5 -162zM351 583q0 -98 25 -164l556 674q-92 100 -241 100
q-152 0 -246 -109.5t-94 -312.5v-188zM691 171q154 0 248 104.5t94 307.5v188q0 102 -30 179l-558 -677q90 -102 246 -102z" />
    <glyph glyph-name="Ugrave" unicode="&#xd9;" horiz-adv-x="1400" 
d="M700 179q142 0 225.5 82.5t83.5 227.5v876h227v-894q0 -225 -146.5 -361.5t-389.5 -136.5t-389.5 136.5t-146.5 361.5v894h227v-876q0 -146 83.5 -228t225.5 -82zM784 1508h-160l-280 322h203z" />
    <glyph glyph-name="Uacute" unicode="&#xda;" horiz-adv-x="1400" 
d="M700 179q142 0 225.5 82.5t83.5 227.5v876h227v-894q0 -225 -146.5 -361.5t-389.5 -136.5t-389.5 136.5t-146.5 361.5v894h227v-876q0 -146 83.5 -228t225.5 -82zM616 1508l237 322h203l-280 -322h-160z" />
    <glyph glyph-name="Ucircumflex" unicode="&#xdb;" horiz-adv-x="1400" 
d="M700 179q142 0 225.5 82.5t83.5 227.5v876h227v-894q0 -225 -146.5 -361.5t-389.5 -136.5t-389.5 136.5t-146.5 361.5v894h227v-876q0 -146 83.5 -228t225.5 -82zM775 1741l267 -246h-194l-145 133h-7l-153 -133h-191l277 246h146z" />
    <glyph glyph-name="Udieresis" unicode="&#xdc;" horiz-adv-x="1400" 
d="M700 179q142 0 225.5 82.5t83.5 227.5v876h227v-894q0 -225 -146.5 -361.5t-389.5 -136.5t-389.5 136.5t-146.5 361.5v894h227v-876q0 -146 83.5 -228t225.5 -82zM881 1468q-49 0 -81 32t-32 80q0 47 32 79t81 32t81 -32t32 -79q0 -48 -32 -80t-81 -32zM517 1468
q-49 0 -81 32t-32 80q0 47 32 79t81 32t81 -32t32 -79q0 -48 -32 -80t-81 -32z" />
    <glyph glyph-name="Yacute" unicode="&#xdd;" horiz-adv-x="1176" 
d="M701 0h-226v541l-457 824h254l313 -588h10l314 588h249l-457 -820v-545zM504 1508l237 322h203l-280 -322h-160z" />
    <glyph glyph-name="Thorn" unicode="&#xde;" horiz-adv-x="1225" 
d="M906 707q0 222 -251 222h-249v-444h249q251 0 251 222zM1138 707q0 -189 -118.5 -301.5t-332.5 -112.5h-280v-293h-227v1365h226v-241h283q213 0 331 -114t118 -303z" />
    <glyph glyph-name="germandbls" unicode="&#xdf;" horiz-adv-x="1323" 
d="M401 0h-224v1046q0 189 125.5 292.5t329.5 104.5t328.5 -99t124.5 -259q0 -72 -25 -133t-64 -99.5t-80.5 -61t-80.5 -28.5v-14q70 -1 136 -24t120.5 -66.5t87.5 -114t33 -157.5q0 -99 -40 -177.5t-108 -127t-154 -74t-182 -25.5q-99 0 -162 19v186q50 -19 139 -19
q74 0 135 21t103.5 73.5t42.5 130.5q0 110 -86.5 171.5t-230.5 61.5h-77v205h46q87 0 157 62t70 158q0 88 -61 144t-167 56q-236 0 -236 -247v-1005z" />
    <glyph glyph-name="agrave" unicode="&#xe0;" horiz-adv-x="1133" 
d="M456 -16q-155 0 -250.5 88t-95.5 235q0 144 97.5 229t276.5 85h267v98q0 86 -52.5 129t-146.5 43q-162 0 -191 -117h-211q10 137 114 218.5t295 81.5q88 0 160.5 -19.5t130.5 -60.5t90 -112t32 -167v-715h-211v136h-10q-39 -67 -112.5 -109.5t-182.5 -42.5zM525 162
q95 0 160.5 56t65.5 139v112h-232q-93 0 -139.5 -40.5t-46.5 -108.5q0 -76 55.5 -117t136.5 -41zM672 1228h-165l-279 354h206z" />
    <glyph glyph-name="aacute" unicode="&#xe1;" horiz-adv-x="1133" 
d="M456 -16q-155 0 -250.5 88t-95.5 235q0 144 97.5 229t276.5 85h267v98q0 86 -52.5 129t-146.5 43q-162 0 -191 -117h-211q10 137 114 218.5t295 81.5q88 0 160.5 -19.5t130.5 -60.5t90 -112t32 -167v-715h-211v136h-10q-39 -67 -112.5 -109.5t-182.5 -42.5zM525 162
q95 0 160.5 56t65.5 139v112h-232q-93 0 -139.5 -40.5t-46.5 -108.5q0 -76 55.5 -117t136.5 -41zM467 1228l238 354h206l-279 -354h-165z" />
    <glyph glyph-name="acircumflex" unicode="&#xe2;" horiz-adv-x="1133" 
d="M456 -16q-155 0 -250.5 88t-95.5 235q0 144 97.5 229t276.5 85h267v98q0 86 -52.5 129t-146.5 43q-162 0 -191 -117h-211q10 137 114 218.5t295 81.5q88 0 160.5 -19.5t130.5 -60.5t90 -112t32 -167v-715h-211v136h-10q-39 -67 -112.5 -109.5t-182.5 -42.5zM525 162
q95 0 160.5 56t65.5 139v112h-232q-93 0 -139.5 -40.5t-46.5 -108.5q0 -76 55.5 -117t136.5 -41zM241 1228l250 364h152l250 -364h-179l-143 231h-8l-143 -231h-179z" />
    <glyph glyph-name="atilde" unicode="&#xe3;" horiz-adv-x="1133" 
d="M456 -16q-155 0 -250.5 88t-95.5 235q0 144 97.5 229t276.5 85h267v98q0 86 -52.5 129t-146.5 43q-162 0 -191 -117h-211q10 137 114 218.5t295 81.5q88 0 160.5 -19.5t130.5 -60.5t90 -112t32 -167v-715h-211v136h-10q-39 -67 -112.5 -109.5t-182.5 -42.5zM525 162
q95 0 160.5 56t65.5 139v112h-232q-93 0 -139.5 -40.5t-46.5 -108.5q0 -76 55.5 -117t136.5 -41zM694 1216q-46 0 -82 21.5t-55.5 47t-45.5 47t-53 21.5q-35 0 -52 -29.5t-22 -91.5h-131q0 118 52 190t145 72q40 0 72.5 -14t53 -34.5t38.5 -41t36.5 -34.5t38.5 -14
q61 0 69 121h131q0 -115 -54 -188t-141 -73z" />
    <glyph glyph-name="adieresis" unicode="&#xe4;" horiz-adv-x="1133" 
d="M456 -16q-155 0 -250.5 88t-95.5 235q0 144 97.5 229t276.5 85h267v98q0 86 -52.5 129t-146.5 43q-162 0 -191 -117h-211q10 137 114 218.5t295 81.5q88 0 160.5 -19.5t130.5 -60.5t90 -112t32 -167v-715h-211v136h-10q-39 -67 -112.5 -109.5t-182.5 -42.5zM525 162
q95 0 160.5 56t65.5 139v112h-232q-93 0 -139.5 -40.5t-46.5 -108.5q0 -76 55.5 -117t136.5 -41zM759 1220q-51 0 -85 32t-34 83q0 50 34 82.5t85 32.5q52 0 85.5 -32.5t33.5 -82.5q0 -51 -33.5 -83t-85.5 -32zM375 1220q-51 0 -85 32t-34 83q0 50 33.5 82.5t85.5 32.5
q51 0 85 -32.5t34 -82.5q0 -51 -33.5 -83t-85.5 -32z" />
    <glyph glyph-name="aring" unicode="&#xe5;" horiz-adv-x="1133" 
d="M456 -16q-155 0 -250.5 88t-95.5 235q0 144 97.5 229t276.5 85h267v98q0 86 -52.5 129t-146.5 43q-162 0 -191 -117h-211q10 137 114 218.5t295 81.5q88 0 160.5 -19.5t130.5 -60.5t90 -112t32 -167v-715h-211v136h-10q-39 -67 -112.5 -109.5t-182.5 -42.5zM525 162
q95 0 160.5 56t65.5 139v112h-232q-93 0 -139.5 -40.5t-46.5 -108.5q0 -76 55.5 -117t136.5 -41zM568 1222q-86 0 -145 57.5t-59 143.5t59 142.5t145 56.5t144.5 -56.5t58.5 -142.5t-59 -143.5t-144 -57.5zM470 1422q0 -41 28 -69t69 -28q42 0 69.5 28t27.5 69t-27.5 69
t-69.5 28q-41 0 -69 -28t-28 -69z" />
    <glyph glyph-name="ae" unicode="&#xe6;" horiz-adv-x="1776" 
d="M1229 -18q-149 0 -248 55.5t-137 143.5h-15q-43 -84 -134.5 -141.5t-223.5 -57.5q-165 0 -264 86.5t-99 236.5q0 147 99.5 231.5t280.5 84.5h265v98q0 85 -52.5 128t-145.5 43q-168 0 -197 -116h-211q10 136 116.5 218.5t297.5 82.5q106 0 193 -34.5t131 -98.5h14
q45 63 130.5 98t186.5 35q200 0 322.5 -129t122.5 -348v-123h-679v-72q0 -104 68 -170t178 -66q83 0 137.5 34t66.5 86h217q-5 -50 -32 -101t-75.5 -98t-130 -76.5t-182.5 -29.5zM1217 896q-102 0 -168.5 -69t-66.5 -176v-27h462v19q0 117 -61 185t-166 68zM526 160
q96 0 161.5 56t65.5 139v114h-230q-95 0 -145 -40.5t-50 -108.5q0 -76 58.5 -118t139.5 -42z" />
    <glyph glyph-name="ccedilla" unicode="&#xe7;" horiz-adv-x="1101" 
d="M560 -485q-72 0 -132 16v117q42 -14 113 -14q52 0 83 17.5t31 50.5t-30.5 48t-108.5 15h-54v93l49 127q-183 19 -288.5 143.5t-105.5 329.5v148q0 214 123 342t333 128q194 0 305.5 -102.5t115.5 -249.5h-210q-4 28 -16 54.5t-34.5 52.5t-62.5 41.5t-93 15.5
q-114 0 -176.5 -77.5t-62.5 -209.5v-142q0 -133 64 -208t176 -75q183 0 211 148h210q-4 -136 -94.5 -227.5t-254.5 -110.5l-44 -112q96 0 149.5 -44t53.5 -121q0 -94 -65.5 -144t-184.5 -50z" />
    <glyph glyph-name="egrave" unicode="&#xe8;" horiz-adv-x="1136" 
d="M584 -18q-217 0 -342 126.5t-125 351.5v138q0 222 127.5 350t326.5 128q201 0 326.5 -130t125.5 -348v-123h-686v-52q0 -114 66 -185.5t180 -71.5q84 0 141.5 35t69.5 86h217q-5 -50 -33 -101t-77.5 -98t-132.5 -76.5t-184 -29.5zM337 624h469v13q0 116 -64 187t-170 71
t-170.5 -71t-64.5 -187v-13zM673 1228h-165l-279 354h206z" />
    <glyph glyph-name="eacute" unicode="&#xe9;" horiz-adv-x="1136" 
d="M584 -18q-217 0 -342 126.5t-125 351.5v138q0 222 127.5 350t326.5 128q201 0 326.5 -130t125.5 -348v-123h-686v-52q0 -114 66 -185.5t180 -71.5q84 0 141.5 35t69.5 86h217q-5 -50 -33 -101t-77.5 -98t-132.5 -76.5t-184 -29.5zM337 624h469v13q0 116 -64 187t-170 71
t-170.5 -71t-64.5 -187v-13zM468 1228l238 354h206l-279 -354h-165z" />
    <glyph glyph-name="ecircumflex" unicode="&#xea;" horiz-adv-x="1136" 
d="M584 -18q-217 0 -342 126.5t-125 351.5v138q0 222 127.5 350t326.5 128q201 0 326.5 -130t125.5 -348v-123h-686v-52q0 -114 66 -185.5t180 -71.5q84 0 141.5 35t69.5 86h217q-5 -50 -33 -101t-77.5 -98t-132.5 -76.5t-184 -29.5zM337 624h469v13q0 116 -64 187t-170 71
t-170.5 -71t-64.5 -187v-13zM242 1228l250 364h152l250 -364h-179l-143 231h-8l-143 -231h-179z" />
    <glyph glyph-name="edieresis" unicode="&#xeb;" horiz-adv-x="1136" 
d="M584 -18q-217 0 -342 126.5t-125 351.5v138q0 222 127.5 350t326.5 128q201 0 326.5 -130t125.5 -348v-123h-686v-52q0 -114 66 -185.5t180 -71.5q84 0 141.5 35t69.5 86h217q-5 -50 -33 -101t-77.5 -98t-132.5 -76.5t-184 -29.5zM337 624h469v13q0 116 -64 187t-170 71
t-170.5 -71t-64.5 -187v-13zM760 1220q-51 0 -85 32t-34 83q0 50 34 82.5t85 32.5q52 0 85.5 -32.5t33.5 -82.5q0 -51 -33.5 -83t-85.5 -32zM376 1220q-51 0 -85 32t-34 83q0 50 33.5 82.5t85.5 32.5q51 0 85 -32.5t34 -82.5q0 -51 -33.5 -83t-85.5 -32z" />
    <glyph glyph-name="igrave" unicode="&#xec;" horiz-adv-x="601" 
d="M190 0v1058h221v-1058h-221zM405 1228h-165l-279 354h206z" />
    <glyph glyph-name="iacute" unicode="&#xed;" horiz-adv-x="601" 
d="M190 0v1058h221v-1058h-221zM200 1228l238 354h206l-279 -354h-165z" />
    <glyph glyph-name="icircumflex" unicode="&#xee;" horiz-adv-x="601" 
d="M190 0v1058h221v-1058h-221zM-26 1228l250 364h152l250 -364h-179l-143 231h-8l-143 -231h-179z" />
    <glyph glyph-name="idieresis" unicode="&#xef;" horiz-adv-x="601" 
d="M190 0v1058h221v-1058h-221zM492 1220q-51 0 -85 32t-34 83q0 50 34 82.5t85 32.5q52 0 85.5 -32.5t33.5 -82.5q0 -51 -33.5 -83t-85.5 -32zM108 1220q-51 0 -85 32t-34 83q0 50 33.5 82.5t85.5 32.5q51 0 85 -32.5t34 -82.5q0 -51 -33.5 -83t-85.5 -32z" />
    <glyph glyph-name="eth" unicode="&#xf0;" horiz-adv-x="1175" 
d="M589 -18q-226 0 -349 134t-123 363v53q0 220 114 355.5t311 135.5q171 0 253 -113h12q-1 3 -8.5 25t-12.5 36q-51 134 -135 238l-254 -96l-49 117l216 78q-115 125 -228 219h267q75 -58 151 -142l267 98l45 -113l-223 -82q214 -301 214 -694v-108q0 -231 -120 -367.5
t-348 -136.5zM588 838q-120 0 -185 -77.5t-65 -224.5v-58q0 -148 65.5 -227t184.5 -79t184.5 80.5t65.5 229.5v52q0 148 -65 226t-185 78z" />
    <glyph glyph-name="ntilde" unicode="&#xf1;" horiz-adv-x="1232" 
d="M167 0v1058h218v-189h11q12 36 32 68t56 65t95 52.5t135 19.5q165 0 260.5 -92t95.5 -269v-713h-222v646q0 116 -55.5 173.5t-153.5 57.5q-120 0 -185 -80t-65 -210v-587h-222zM743 1216q-46 0 -82 21.5t-55.5 47t-45.5 47t-53 21.5q-35 0 -52 -29.5t-22 -91.5h-131
q0 118 52 190t145 72q40 0 72.5 -14t53 -34.5t38.5 -41t36.5 -34.5t38.5 -14q61 0 69 121h131q0 -115 -54 -188t-141 -73z" />
    <glyph glyph-name="ograve" unicode="&#xf2;" horiz-adv-x="1175" 
d="M588 1076q210 0 339.5 -129t129.5 -350v-132q0 -227 -129 -355t-340 -128q-214 0 -342.5 127t-128.5 356v131q0 217 131 348.5t340 131.5zM589 890q-115 0 -181.5 -85t-66.5 -218v-116q0 -134 64.5 -218.5t183.5 -84.5q118 0 181.5 84t63.5 219v116q0 133 -65 218
t-180 85zM692 1228h-165l-279 354h206z" />
    <glyph glyph-name="oacute" unicode="&#xf3;" horiz-adv-x="1175" 
d="M588 1076q210 0 339.5 -129t129.5 -350v-132q0 -227 -129 -355t-340 -128q-214 0 -342.5 127t-128.5 356v131q0 217 131 348.5t340 131.5zM589 890q-115 0 -181.5 -85t-66.5 -218v-116q0 -134 64.5 -218.5t183.5 -84.5q118 0 181.5 84t63.5 219v116q0 133 -65 218
t-180 85zM487 1228l238 354h206l-279 -354h-165z" />
    <glyph glyph-name="ocircumflex" unicode="&#xf4;" horiz-adv-x="1175" 
d="M588 1076q210 0 339.5 -129t129.5 -350v-132q0 -227 -129 -355t-340 -128q-214 0 -342.5 127t-128.5 356v131q0 217 131 348.5t340 131.5zM589 890q-115 0 -181.5 -85t-66.5 -218v-116q0 -134 64.5 -218.5t183.5 -84.5q118 0 181.5 84t63.5 219v116q0 133 -65 218
t-180 85zM261 1228l250 364h152l250 -364h-179l-143 231h-8l-143 -231h-179z" />
    <glyph glyph-name="otilde" unicode="&#xf5;" horiz-adv-x="1175" 
d="M588 1076q210 0 339.5 -129t129.5 -350v-132q0 -227 -129 -355t-340 -128q-214 0 -342.5 127t-128.5 356v131q0 217 131 348.5t340 131.5zM589 890q-115 0 -181.5 -85t-66.5 -218v-116q0 -134 64.5 -218.5t183.5 -84.5q118 0 181.5 84t63.5 219v116q0 133 -65 218
t-180 85zM714 1216q-46 0 -82 21.5t-55.5 47t-45.5 47t-53 21.5q-35 0 -52 -29.5t-22 -91.5h-131q0 118 52 190t145 72q40 0 72.5 -14t53 -34.5t38.5 -41t36.5 -34.5t38.5 -14q61 0 69 121h131q0 -115 -54 -188t-141 -73z" />
    <glyph glyph-name="odieresis" unicode="&#xf6;" horiz-adv-x="1175" 
d="M588 1076q210 0 339.5 -129t129.5 -350v-132q0 -227 -129 -355t-340 -128q-214 0 -342.5 127t-128.5 356v131q0 217 131 348.5t340 131.5zM589 890q-115 0 -181.5 -85t-66.5 -218v-116q0 -134 64.5 -218.5t183.5 -84.5q118 0 181.5 84t63.5 219v116q0 133 -65 218
t-180 85zM779 1220q-51 0 -85 32t-34 83q0 50 34 82.5t85 32.5q52 0 85.5 -32.5t33.5 -82.5q0 -51 -33.5 -83t-85.5 -32zM395 1220q-51 0 -85 32t-34 83q0 50 33.5 82.5t85.5 32.5q51 0 85 -32.5t34 -82.5q0 -51 -33.5 -83t-85.5 -32z" />
    <glyph glyph-name="divide" unicode="&#xf7;" horiz-adv-x="1184" 
d="M1072 476h-959v176h959v-176zM447 966q0 64 41.5 105t102.5 41q63 0 105 -41t42 -105q0 -62 -42 -102.5t-105 -40.5q-61 0 -102.5 40.5t-41.5 102.5zM447 166q0 64 41.5 105t102.5 41q63 0 105 -41.5t42 -104.5q0 -62 -42 -102.5t-105 -40.5q-61 0 -102.5 40.5
t-41.5 102.5z" />
    <glyph glyph-name="oslash" unicode="&#xf8;" horiz-adv-x="1175" 
d="M426 223q63 -60 162 -60q120 0 185.5 86.5t65.5 222.5v138q0 67 -27 119zM334 451q0 -71 27 -123l388 510q-63 60 -161 60q-117 0 -185.5 -87.5t-68.5 -221.5v-138zM588 -18q-160 0 -278 80l-102 -133l-101 81l109 142q-99 126 -99 313v131q0 217 131 348.5t340 131.5
q156 0 275 -82l100 131l103 -82l-108 -140q99 -126 99 -306v-132q0 -227 -129 -355t-340 -128z" />
    <glyph glyph-name="ugrave" unicode="&#xf9;" horiz-adv-x="1227" 
d="M1060 1058v-1058h-218v176h-12q-12 -34 -36 -66t-61 -61.5t-93 -47t-122 -17.5q-167 0 -262.5 86t-95.5 265v723h222v-662q0 -215 211 -215q103 0 174 66t71 164v647h222zM719 1228h-165l-279 354h206z" />
    <glyph glyph-name="uacute" unicode="&#xfa;" horiz-adv-x="1227" 
d="M1060 1058v-1058h-218v176h-12q-12 -34 -36 -66t-61 -61.5t-93 -47t-122 -17.5q-167 0 -262.5 86t-95.5 265v723h222v-662q0 -215 211 -215q103 0 174 66t71 164v647h222zM514 1228l238 354h206l-279 -354h-165z" />
    <glyph glyph-name="ucircumflex" unicode="&#xfb;" horiz-adv-x="1227" 
d="M1060 1058v-1058h-218v176h-12q-12 -34 -36 -66t-61 -61.5t-93 -47t-122 -17.5q-167 0 -262.5 86t-95.5 265v723h222v-662q0 -215 211 -215q103 0 174 66t71 164v647h222zM288 1228l250 364h152l250 -364h-179l-143 231h-8l-143 -231h-179z" />
    <glyph glyph-name="udieresis" unicode="&#xfc;" horiz-adv-x="1227" 
d="M1060 1058v-1058h-218v176h-12q-12 -34 -36 -66t-61 -61.5t-93 -47t-122 -17.5q-167 0 -262.5 86t-95.5 265v723h222v-662q0 -215 211 -215q103 0 174 66t71 164v647h222zM806 1220q-51 0 -85 32t-34 83q0 50 34 82.5t85 32.5q52 0 85.5 -32.5t33.5 -82.5
q0 -51 -33.5 -83t-85.5 -32zM422 1220q-51 0 -85 32t-34 83q0 50 33.5 82.5t85.5 32.5q51 0 85 -32.5t34 -82.5q0 -51 -33.5 -83t-85.5 -32z" />
    <glyph glyph-name="yacute" unicode="&#xfd;" horiz-adv-x="1117" 
d="M1051 1058q-13 -48 -54.5 -172.5t-92 -268t-99 -280t-81.5 -227.5l-33 -92l-23 -61q-66 -177 -161 -252.5t-249 -75.5q-74 0 -121 10v175q32 -6 81 -6q89 0 137 35.5t67 117.5l9 32l-377 1065h246l252 -849h9l255 849h235zM458 1228l238 354h206l-279 -354h-165z" />
    <glyph glyph-name="thorn" unicode="&#xfe;" horiz-adv-x="1226" 
d="M703 -15q-109 0 -187.5 45.5t-114.5 129.5h-11v-511h-222v1788h222v-547h11q32 86 113.5 134t193.5 48q185 0 291.5 -124t106.5 -340v-157q0 -217 -107.5 -341.5t-295.5 -124.5zM640 175q115 0 178 79.5t63 223.5v100q0 146 -63.5 225t-181.5 79q-114 0 -180 -76
t-66 -208v-154q0 -121 69 -195t181 -74z" />
    <glyph glyph-name="ydieresis" unicode="&#xff;" horiz-adv-x="1117" 
d="M1051 1058q-13 -48 -54.5 -172.5t-92 -268t-99 -280t-81.5 -227.5l-33 -92l-23 -61q-66 -177 -161 -252.5t-249 -75.5q-74 0 -121 10v175q32 -6 81 -6q89 0 137 35.5t67 117.5l9 32l-377 1065h246l252 -849h9l255 849h235zM750 1220q-51 0 -85 32t-34 83q0 50 34 82.5
t85 32.5q52 0 85.5 -32.5t33.5 -82.5q0 -51 -33.5 -83t-85.5 -32zM366 1220q-51 0 -85 32t-34 83q0 50 33.5 82.5t85.5 32.5q51 0 85 -32.5t34 -82.5q0 -51 -33.5 -83t-85.5 -32z" />
    <glyph glyph-name="Amacron" unicode="&#x100;" horiz-adv-x="1285" 
d="M278 0h-232l470 1365h253l470 -1365h-240l-121 370h-479zM644 1122h-10l-184 -570h377zM946 1505h-606v124h606v-124z" />
    <glyph glyph-name="amacron" unicode="&#x101;" horiz-adv-x="1133" 
d="M456 -16q-155 0 -250.5 88t-95.5 235q0 144 97.5 229t276.5 85h267v98q0 86 -52.5 129t-146.5 43q-162 0 -191 -117h-211q10 137 114 218.5t295 81.5q88 0 160.5 -19.5t130.5 -60.5t90 -112t32 -167v-715h-211v136h-10q-39 -67 -112.5 -109.5t-182.5 -42.5zM525 162
q95 0 160.5 56t65.5 139v112h-232q-93 0 -139.5 -40.5t-46.5 -108.5q0 -76 55.5 -117t136.5 -41zM873 1250h-612v131h612v-131z" />
    <glyph glyph-name="Abreve" unicode="&#x102;" horiz-adv-x="1285" 
d="M278 0h-232l470 1365h253l470 -1365h-240l-121 370h-479zM644 1122h-10l-184 -570h377zM312 1757h149q0 -66 47.5 -107t134.5 -41t134.5 41t47.5 107h147q0 -120 -92 -200t-237 -80t-238 79.5t-93 200.5z" />
    <glyph glyph-name="abreve" unicode="&#x103;" horiz-adv-x="1133" 
d="M456 -16q-155 0 -250.5 88t-95.5 235q0 144 97.5 229t276.5 85h267v98q0 86 -52.5 129t-146.5 43q-162 0 -191 -117h-211q10 137 114 218.5t295 81.5q88 0 160.5 -19.5t130.5 -60.5t90 -112t32 -167v-715h-211v136h-10q-39 -67 -112.5 -109.5t-182.5 -42.5zM525 162
q95 0 160.5 56t65.5 139v112h-232q-93 0 -139.5 -40.5t-46.5 -108.5q0 -76 55.5 -117t136.5 -41zM263 1515h139q0 -73 44.5 -118.5t120.5 -45.5t120.5 45.5t44.5 118.5h138q-1 -129 -86 -212.5t-217 -83.5q-133 0 -218.5 83.5t-85.5 212.5z" />
    <glyph glyph-name="Aogonek" unicode="&#x104;" horiz-adv-x="1285" 
d="M1122 -388q-110 0 -176.5 53t-66.5 145q0 137 138 216v5h-30l-109 339h-479l-121 -370h-232l470 1365h253l461 -1336q-83 -30 -128.5 -75.5t-45.5 -95.5q0 -44 31 -70.5t86 -26.5q42 0 78 8v-137q-48 -20 -129 -20zM644 1122h-10l-184 -570h377z" />
    <glyph glyph-name="aogonek" unicode="&#x105;" horiz-adv-x="1133" 
d="M985 -366q-60 -22 -132 -22q-96 0 -163 50t-67 148q0 73 39 124t106 95v107h-12q-39 -67 -113 -109.5t-184 -42.5q-155 0 -252 88.5t-97 235.5q0 143 97.5 228t275.5 85h268v98q0 86 -52.5 128.5t-147.5 42.5q-161 0 -190 -116h-211q10 138 115 219t294 81q88 0 160 -19
t130 -60t90.5 -112t32.5 -167v-692q-29 -11 -56.5 -25.5t-57 -35.5t-47 -49t-17.5 -59q0 -43 31.5 -66.5t81.5 -23.5q43 0 78 8v-139zM524 160q96 0 161.5 56.5t65.5 140.5v112h-231q-94 0 -140.5 -40.5t-46.5 -108.5q0 -76 55.5 -118t135.5 -42z" />
    <glyph glyph-name="Cacute" unicode="&#x106;" horiz-adv-x="1318" 
d="M355 768v-178q0 -198 86 -305t243 -107q124 0 204 66.5t91 174.5h221v-19q-13 -188 -157.5 -307.5t-359.5 -119.5q-266 0 -412 162.5t-146 454.5v180q0 291 147 456.5t411 165.5q216 0 360.5 -124t156.5 -320v-18h-221q-11 113 -92 185t-203 72q-155 0 -242 -110.5
t-87 -308.5zM591 1508l237 322h203l-280 -322h-160z" />
    <glyph glyph-name="cacute" unicode="&#x107;" horiz-adv-x="1101" 
d="M117 458v148q0 214 123.5 342t332.5 128q130 0 226.5 -50t144 -128.5t50.5 -173.5h-210q-8 63 -57.5 111.5t-148.5 48.5q-114 0 -176 -76t-62 -207v-142q0 -133 63.5 -209.5t175.5 -76.5q184 0 211 151h210q-5 -148 -114.5 -245t-312.5 -97q-211 0 -333.5 127.5
t-122.5 348.5zM451 1228l238 354h206l-279 -354h-165z" />
    <glyph glyph-name="Ccircumflex" unicode="&#x108;" horiz-adv-x="1318" 
d="M355 768v-178q0 -198 86 -305t243 -107q124 0 204 66.5t91 174.5h221v-19q-13 -188 -157.5 -307.5t-359.5 -119.5q-266 0 -412 162.5t-146 454.5v180q0 291 147 456.5t411 165.5q216 0 360.5 -124t156.5 -320v-18h-221q-11 113 -92 185t-203 72q-155 0 -242 -110.5
t-87 -308.5zM750 1741l267 -246h-194l-145 133h-7l-153 -133h-191l277 246h146z" />
    <glyph glyph-name="ccircumflex" unicode="&#x109;" horiz-adv-x="1101" 
d="M117 458v148q0 214 123.5 342t332.5 128q130 0 226.5 -50t144 -128.5t50.5 -173.5h-210q-8 63 -57.5 111.5t-148.5 48.5q-114 0 -176 -76t-62 -207v-142q0 -133 63.5 -209.5t175.5 -76.5q184 0 211 151h210q-5 -148 -114.5 -245t-312.5 -97q-211 0 -333.5 127.5
t-122.5 348.5zM225 1228l250 364h152l250 -364h-179l-143 231h-8l-143 -231h-179z" />
    <glyph glyph-name="Cdotaccent" unicode="&#x10a;" horiz-adv-x="1318" 
d="M355 768v-178q0 -198 86 -305t243 -107q124 0 204 66.5t91 174.5h221v-19q-13 -188 -157.5 -307.5t-359.5 -119.5q-266 0 -412 162.5t-146 454.5v180q0 291 147 456.5t411 165.5q216 0 360.5 -124t156.5 -320v-18h-221q-11 113 -92 185t-203 72q-155 0 -242 -110.5
t-87 -308.5zM557 1610q0 50 34.5 85.5t83.5 35.5t83.5 -35.5t34.5 -85.5t-34.5 -85.5t-83.5 -35.5t-83.5 35.5t-34.5 85.5z" />
    <glyph glyph-name="cdotaccent" unicode="&#x10b;" horiz-adv-x="1101" 
d="M117 458v148q0 214 123.5 342t332.5 128q130 0 226.5 -50t144 -128.5t50.5 -173.5h-210q-8 63 -57.5 111.5t-148.5 48.5q-114 0 -176 -76t-62 -207v-142q0 -133 63.5 -209.5t175.5 -76.5q184 0 211 151h210q-5 -148 -114.5 -245t-312.5 -97q-211 0 -333.5 127.5
t-122.5 348.5zM428 1364q0 51 35.5 86t86.5 35q50 0 85.5 -35t35.5 -86t-35.5 -86t-85.5 -35q-51 0 -86.5 35t-35.5 86z" />
    <glyph glyph-name="Ccaron" unicode="&#x10c;" horiz-adv-x="1318" 
d="M355 768v-178q0 -198 86 -305t243 -107q124 0 204 66.5t91 174.5h221v-19q-13 -188 -157.5 -307.5t-359.5 -119.5q-266 0 -412 162.5t-146 454.5v180q0 291 147 456.5t411 165.5q216 0 360.5 -124t156.5 -320v-18h-221q-11 113 -92 185t-203 72q-155 0 -242 -110.5
t-87 -308.5zM328 1744h194l145 -134h9l150 134h192l-272 -247h-151z" />
    <glyph glyph-name="ccaron" unicode="&#x10d;" horiz-adv-x="1101" 
d="M117 458v148q0 214 123.5 342t332.5 128q130 0 226.5 -50t144 -128.5t50.5 -173.5h-210q-8 63 -57.5 111.5t-148.5 48.5q-114 0 -176 -76t-62 -207v-142q0 -133 63.5 -209.5t175.5 -76.5q184 0 211 151h210q-5 -148 -114.5 -245t-312.5 -97q-211 0 -333.5 127.5
t-122.5 348.5zM225 1587h178l146 -238h6l136 238h180l-240 -364h-155z" />
    <glyph glyph-name="Dcaron" unicode="&#x10e;" horiz-adv-x="1364" 
d="M180 1365h471q302 0 453.5 -174.5t151.5 -505.5q0 -332 -152.5 -508.5t-452.5 -176.5h-471v1365zM407 1166v-967h219q202 0 299.5 119.5t97.5 362.5t-98 364t-299 121h-219zM282 1744h194l145 -134h9l150 134h192l-272 -247h-151z" />
    <glyph glyph-name="dcaron" unicode="&#x10f;" horiz-adv-x="1432" 
d="M1246 1436h188l-46 -488h-142v488zM522 1072q111 0 192 -46t112 -127h11v538h222v-1437h-216v169h-11q-24 -81 -111 -132t-202 -51q-183 0 -292 123t-109 333v175q0 210 110 332.5t294 122.5zM584 882q-112 0 -176 -78t-64 -218v-112q0 -142 65 -220t180 -78
q113 0 180.5 76t67.5 208v154q0 120 -71 194t-182 74z" />
    <glyph glyph-name="Dcroat" unicode="&#x110;" horiz-adv-x="1448" 
d="M734 0h-471v590h-163v210h163v565h471q302 0 454 -174.5t152 -505.5q0 -332 -152.5 -508.5t-453.5 -176.5zM490 203h219q201 0 298.5 116.5t97.5 364.5t-97.5 366.5t-298.5 118.5h-219v-369h274v-210h-274v-387z" />
    <glyph glyph-name="dcroat" unicode="&#x111;" horiz-adv-x="1230" 
d="M585 882q-111 0 -175.5 -78t-64.5 -219v-112q0 -143 65.5 -220.5t178.5 -77.5q114 0 181.5 76t67.5 209v153q0 120 -70.5 194.5t-182.5 74.5zM833 169q-23 -76 -106 -129.5t-207 -53.5q-182 0 -291.5 122.5t-109.5 333.5v175q0 209 109.5 332t294.5 123q119 0 197.5 -49
t106.5 -124h11v267h-246v147h252v124h211v-124h130v-147h-125v-1166h-216v169h-11z" />
    <glyph glyph-name="Emacron" unicode="&#x112;" horiz-adv-x="1167" 
d="M1032 199v-199h-852v1365h852v-199h-626v-379h589v-189h-589v-399h626zM903 1505h-606v124h606v-124z" />
    <glyph glyph-name="emacron" unicode="&#x113;" horiz-adv-x="1136" 
d="M584 -18q-217 0 -342 126.5t-125 351.5v138q0 222 127.5 350t326.5 128q201 0 326.5 -130t125.5 -348v-123h-686v-52q0 -114 66 -185.5t180 -71.5q84 0 141.5 35t69.5 86h217q-5 -50 -33 -101t-77.5 -98t-132.5 -76.5t-184 -29.5zM337 624h469v13q0 116 -64 187t-170 71
t-170.5 -71t-64.5 -187v-13zM874 1250h-612v131h612v-131z" />
    <glyph glyph-name="Ebreve" unicode="&#x114;" horiz-adv-x="1167" 
d="M1032 199v-199h-852v1365h852v-199h-626v-379h589v-189h-589v-399h626zM269 1757h149q0 -66 47.5 -107t134.5 -41t134.5 41t47.5 107h147q0 -120 -92 -200t-237 -80t-238 79.5t-93 200.5z" />
    <glyph glyph-name="ebreve" unicode="&#x115;" horiz-adv-x="1136" 
d="M584 -18q-217 0 -342 126.5t-125 351.5v138q0 222 127.5 350t326.5 128q201 0 326.5 -130t125.5 -348v-123h-686v-52q0 -114 66 -185.5t180 -71.5q84 0 141.5 35t69.5 86h217q-5 -50 -33 -101t-77.5 -98t-132.5 -76.5t-184 -29.5zM337 624h469v13q0 116 -64 187t-170 71
t-170.5 -71t-64.5 -187v-13zM264 1515h139q0 -73 44.5 -118.5t120.5 -45.5t120.5 45.5t44.5 118.5h138q-1 -129 -86 -212.5t-217 -83.5q-133 0 -218.5 83.5t-85.5 212.5z" />
    <glyph glyph-name="Edotaccent" unicode="&#x116;" horiz-adv-x="1167" 
d="M1032 199v-199h-852v1365h852v-199h-626v-379h589v-189h-589v-399h626zM482 1610q0 50 34.5 85.5t83.5 35.5t83.5 -35.5t34.5 -85.5t-34.5 -85.5t-83.5 -35.5t-83.5 35.5t-34.5 85.5z" />
    <glyph glyph-name="edotaccent" unicode="&#x117;" horiz-adv-x="1136" 
d="M584 -18q-217 0 -342 126.5t-125 351.5v138q0 222 127.5 350t326.5 128q201 0 326.5 -130t125.5 -348v-123h-686v-52q0 -114 66 -185.5t180 -71.5q84 0 141.5 35t69.5 86h217q-5 -50 -33 -101t-77.5 -98t-132.5 -76.5t-184 -29.5zM337 624h469v13q0 116 -64 187t-170 71
t-170.5 -71t-64.5 -187v-13zM445 1364q0 51 35.5 86t86.5 35q50 0 85.5 -35t35.5 -86t-35.5 -86t-85.5 -35q-51 0 -86.5 35t-35.5 86z" />
    <glyph glyph-name="Eogonek" unicode="&#x118;" horiz-adv-x="1167" 
d="M1032 -368q-56 -20 -127 -20q-101 0 -168 50t-67 147q0 57 28 105.5t71 79.5v6h-589v1365h852v-199h-627v-379h590v-189h-589v-399h626v-166q-75 -16 -133.5 -61t-59.5 -113q0 -47 32.5 -72.5t86.5 -25.5q45 0 74 8v-137z" />
    <glyph glyph-name="eogonek" unicode="&#x119;" horiz-adv-x="1136" 
d="M952 -226v-142q-51 -20 -128 -20q-101 0 -167.5 52.5t-66.5 143.5q0 114 101 197l-5 11q-51 -31 -138 -31q-188 0 -309.5 127t-121.5 347v139q0 223 127 351t327 128q202 0 327 -130.5t125 -348.5v-123h-686v-51q0 -114 66 -185.5t183 -71.5q82 0 139 34.5t69 85.5h216
q-10 -48 -35.5 -93.5t-46.5 -70.5t-59 -65t-56 -61.5t-36 -57t-18 -70.5q0 -50 34 -77t85 -27q42 0 74 9zM337 624h469v14q0 116 -64 187t-170 71t-170.5 -71t-64.5 -187v-14z" />
    <glyph glyph-name="Ecaron" unicode="&#x11a;" horiz-adv-x="1167" 
d="M1032 199v-199h-852v1365h852v-199h-626v-379h589v-189h-589v-399h626zM253 1744h194l145 -134h9l150 134h192l-272 -247h-151z" />
    <glyph glyph-name="ecaron" unicode="&#x11b;" horiz-adv-x="1136" 
d="M584 -18q-217 0 -342 126.5t-125 351.5v138q0 222 127.5 350t326.5 128q201 0 326.5 -130t125.5 -348v-123h-686v-52q0 -114 66 -185.5t180 -71.5q84 0 141.5 35t69.5 86h217q-5 -50 -33 -101t-77.5 -98t-132.5 -76.5t-184 -29.5zM337 624h469v13q0 116 -64 187t-170 71
t-170.5 -71t-64.5 -187v-13zM242 1587h178l146 -238h6l136 238h180l-240 -364h-155z" />
    <glyph glyph-name="Gcircumflex" unicode="&#x11c;" horiz-adv-x="1343" 
d="M1210 970h-224q-24 100 -102.5 159t-195.5 59q-158 0 -246 -109t-88 -305v-176q0 -197 87.5 -309.5t253.5 -112.5q146 0 225.5 74t79.5 191v102h-314v185h532v-276q0 -100 -34 -186.5t-98 -152t-165 -103t-227 -37.5q-275 0 -422 167.5t-147 456.5v178q0 282 151.5 449.5
t415.5 167.5q218 0 356.5 -119t161.5 -303zM761 1741l267 -246h-194l-145 133h-7l-153 -133h-191l277 246h146z" />
    <glyph glyph-name="gcircumflex" unicode="&#x11d;" horiz-adv-x="1199" 
d="M571 -208q126 0 190 63t64 180v150h-12q-31 -72 -110 -118.5t-186 -46.5q-180 0 -294.5 122.5t-114.5 336.5v133q0 214 114.5 337t294.5 123q111 0 193 -51t110 -124h11v161h215v-1033q0 -108 -37.5 -189.5t-104.5 -129t-152 -70.5t-188 -23q-202 0 -312.5 86t-120.5 216
h220q11 -55 69.5 -89t150.5 -34zM586 882q-116 0 -184 -80t-68 -217v-89q0 -134 70.5 -214.5t183.5 -80.5q110 0 173.5 77.5t63.5 193.5v135q0 118 -65 196.5t-174 78.5zM273 1228l250 364h152l250 -364h-179l-143 231h-8l-143 -231h-179z" />
    <glyph glyph-name="Gbreve" unicode="&#x11e;" horiz-adv-x="1343" 
d="M1210 970h-224q-24 100 -102.5 159t-195.5 59q-158 0 -246 -109t-88 -305v-176q0 -197 87.5 -309.5t253.5 -112.5q146 0 225.5 74t79.5 191v102h-314v185h532v-276q0 -100 -34 -186.5t-98 -152t-165 -103t-227 -37.5q-275 0 -422 167.5t-147 456.5v178q0 282 151.5 449.5
t415.5 167.5q218 0 356.5 -119t161.5 -303zM355 1757h149q0 -66 47.5 -107t134.5 -41t134.5 41t47.5 107h147q0 -120 -92 -200t-237 -80t-238 79.5t-93 200.5z" />
    <glyph glyph-name="gbreve" unicode="&#x11f;" horiz-adv-x="1199" 
d="M571 -208q126 0 190 63t64 180v150h-12q-31 -72 -110 -118.5t-186 -46.5q-180 0 -294.5 122.5t-114.5 336.5v133q0 214 114.5 337t294.5 123q111 0 193 -51t110 -124h11v161h215v-1033q0 -108 -37.5 -189.5t-104.5 -129t-152 -70.5t-188 -23q-202 0 -312.5 86t-120.5 216
h220q11 -55 69.5 -89t150.5 -34zM586 882q-116 0 -184 -80t-68 -217v-89q0 -134 70.5 -214.5t183.5 -80.5q110 0 173.5 77.5t63.5 193.5v135q0 118 -65 196.5t-174 78.5zM295 1515h139q0 -73 44.5 -118.5t120.5 -45.5t120.5 45.5t44.5 118.5h138q-1 -129 -86 -212.5
t-217 -83.5q-133 0 -218.5 83.5t-85.5 212.5z" />
    <glyph glyph-name="Gdotaccent" unicode="&#x120;" horiz-adv-x="1343" 
d="M1210 970h-224q-24 100 -102.5 159t-195.5 59q-158 0 -246 -109t-88 -305v-176q0 -197 87.5 -309.5t253.5 -112.5q146 0 225.5 74t79.5 191v102h-314v185h532v-276q0 -100 -34 -186.5t-98 -152t-165 -103t-227 -37.5q-275 0 -422 167.5t-147 456.5v178q0 282 151.5 449.5
t415.5 167.5q218 0 356.5 -119t161.5 -303zM568 1610q0 50 34.5 85.5t83.5 35.5t83.5 -35.5t34.5 -85.5t-34.5 -85.5t-83.5 -35.5t-83.5 35.5t-34.5 85.5z" />
    <glyph glyph-name="gdotaccent" unicode="&#x121;" horiz-adv-x="1199" 
d="M571 -208q126 0 190 63t64 180v150h-12q-31 -72 -110 -118.5t-186 -46.5q-180 0 -294.5 122.5t-114.5 336.5v133q0 214 114.5 337t294.5 123q111 0 193 -51t110 -124h11v161h215v-1033q0 -108 -37.5 -189.5t-104.5 -129t-152 -70.5t-188 -23q-202 0 -312.5 86t-120.5 216
h220q11 -55 69.5 -89t150.5 -34zM586 882q-116 0 -184 -80t-68 -217v-89q0 -134 70.5 -214.5t183.5 -80.5q110 0 173.5 77.5t63.5 193.5v135q0 118 -65 196.5t-174 78.5zM476 1364q0 51 35.5 86t86.5 35q50 0 85.5 -35t35.5 -86t-35.5 -86t-85.5 -35q-51 0 -86.5 35
t-35.5 86z" />
    <glyph glyph-name="Gcommaaccent" unicode="&#x122;" horiz-adv-x="1343" 
d="M1210 970h-224q-24 100 -102.5 159t-195.5 59q-158 0 -246 -109t-88 -305v-176q0 -197 87.5 -309.5t253.5 -112.5q146 0 225.5 74t79.5 191v102h-314v185h532v-276q0 -100 -34 -186.5t-98 -152t-165 -103t-227 -37.5q-275 0 -422 167.5t-147 456.5v178q0 282 151.5 449.5
t415.5 167.5q218 0 356.5 -119t161.5 -303zM684 -468h-153l82 319h180z" />
    <glyph glyph-name="gcommaaccent" unicode="&#x123;" horiz-adv-x="1199" 
d="M579 1590h159l-85 -335h-188zM571 -208q126 0 190 63t64 180v150h-12q-31 -72 -110 -118.5t-186 -46.5q-180 0 -294.5 122.5t-114.5 336.5v133q0 214 114.5 337t294.5 123q111 0 193 -51t110 -124h11v161h215v-1033q0 -108 -37.5 -189.5t-104.5 -129t-152 -70.5t-188 -23
q-202 0 -312.5 86t-120.5 216h220q11 -55 69.5 -89t150.5 -34zM586 882q-116 0 -184 -80t-68 -217v-89q0 -134 70.5 -214.5t183.5 -80.5q110 0 173.5 77.5t63.5 193.5v135q0 118 -65 196.5t-174 78.5z" />
    <glyph glyph-name="Hcircumflex" unicode="&#x124;" horiz-adv-x="1439" 
d="M1259 0h-227v600h-625v-600h-227v1365h227v-564h625v564h227v-1365zM794 1741l267 -246h-194l-145 133h-7l-153 -133h-191l277 246h146z" />
    <glyph glyph-name="hcircumflex" unicode="&#x125;" horiz-adv-x="1238" 
d="M171 0v1437h221v-568h11q10 32 31 64t57.5 65.5t97 54.5t135.5 21q160 0 256.5 -93t96.5 -269v-712h-221v645q0 115 -58 173.5t-157 58.5q-117 0 -183 -80t-66 -210v-587h-221zM355 1813l267 -246h-194l-145 133h-7l-153 -133h-191l277 246h146z" />
    <glyph glyph-name="Hbar" unicode="&#x126;" horiz-adv-x="1439" 
d="M407 781h625v217h-625v-217zM407 579v-579h-227v998h-102v157h102v210h227v-210h625v210h227v-210h102v-157h-102v-998h-227v579h-625z" />
    <glyph glyph-name="hbar" unicode="&#x127;" horiz-adv-x="1238" 
d="M392 587v-587h-221v1166h-118v147h123v124h211v-124h256v-147h-251v-297h11q10 35 33.5 68.5t61 65.5t96.5 51.5t130 19.5q160 0 256.5 -94t96.5 -268v-712h-221v645q0 110 -57 171t-158 61q-118 0 -183.5 -81.5t-65.5 -208.5z" />
    <glyph glyph-name="Itilde" unicode="&#x128;" horiz-adv-x="587" 
d="M407 0h-227v1365h227v-1365zM419 1461q-45 0 -83 18t-59.5 39.5t-48 39.5t-50.5 18q-36 0 -53 -31t-19 -70h-123q0 89 48.5 154.5t138.5 65.5q44 0 83 -18t62 -40t51 -40t52 -18q35 0 53.5 29.5t20.5 70.5h123q0 -90 -52.5 -154t-143.5 -64z" />
    <glyph glyph-name="itilde" unicode="&#x129;" horiz-adv-x="601" 
d="M190 0v1058h221v-1058h-221zM427 1216q-46 0 -82 21.5t-55.5 47t-45.5 47t-53 21.5q-35 0 -52 -29.5t-22 -91.5h-131q0 118 52 190t145 72q40 0 72.5 -14t53 -34.5t38.5 -41t36.5 -34.5t38.5 -14q61 0 69 121h131q0 -115 -54 -188t-141 -73z" />
    <glyph glyph-name="Imacron" unicode="&#x12a;" horiz-adv-x="587" 
d="M407 0h-227v1365h227v-1365zM597 1505h-606v124h606v-124z" />
    <glyph glyph-name="imacron" unicode="&#x12b;" horiz-adv-x="601" 
d="M190 0v1058h221v-1058h-221zM606 1250h-612v131h612v-131z" />
    <glyph glyph-name="Ibreve" unicode="&#x12c;" horiz-adv-x="587" 
d="M407 0h-227v1365h227v-1365zM-37 1757h149q0 -66 47.5 -107t134.5 -41t134.5 41t47.5 107h147q0 -120 -92 -200t-237 -80t-238 79.5t-93 200.5z" />
    <glyph glyph-name="ibreve" unicode="&#x12d;" horiz-adv-x="601" 
d="M190 0v1058h221v-1058h-221zM-3 1515h139q0 -73 44.5 -118.5t120.5 -45.5t120.5 45.5t44.5 118.5h138q-1 -129 -86 -212.5t-217 -83.5q-133 0 -218.5 83.5t-85.5 212.5z" />
    <glyph glyph-name="Iogonek" unicode="&#x12e;" horiz-adv-x="587" 
d="M431 -366q-44 -22 -131 -22q-112 0 -173.5 54.5t-61.5 145.5q0 67 36.5 121t99.5 86v5h-21v1341h227v-1339q-169 -61 -169 -169q0 -46 30.5 -71.5t84.5 -25.5q46 0 78 9v-135z" />
    <glyph glyph-name="iogonek" unicode="&#x12f;" horiz-adv-x="601" 
d="M430 -231v-138q-46 -19 -128 -19q-115 0 -182.5 52t-67.5 150q0 135 138 210v1034h221v-1025q-32 -11 -60.5 -25.5t-57 -36t-45.5 -50.5t-17 -62q0 -47 32.5 -72.5t86.5 -25.5q48 0 80 8zM154 1375q0 60 40.5 99t104.5 39q66 0 107.5 -39t41.5 -99t-41.5 -98.5
t-107.5 -38.5q-64 0 -104.5 39t-40.5 98z" />
    <glyph glyph-name="Idotaccent" unicode="&#x130;" horiz-adv-x="587" 
d="M407 0h-227v1365h227v-1365zM176 1610q0 50 34.5 85.5t83.5 35.5t83.5 -35.5t34.5 -85.5t-34.5 -85.5t-83.5 -35.5t-83.5 35.5t-34.5 85.5z" />
    <glyph glyph-name="dotlessi" unicode="&#x131;" horiz-adv-x="601" 
d="M190 0v1058h221v-1058h-221z" />
    <glyph glyph-name="IJ" unicode="&#x132;" horiz-adv-x="1662" 
d="M407 0h-227v1365h227v-1365zM641 364h220q3 -80 56.5 -129t136.5 -49q102 0 154.5 58t52.5 168v953h228v-943q0 -216 -114 -332.5t-320 -116.5q-193 0 -303.5 111t-110.5 280z" />
    <glyph glyph-name="ij" unicode="&#x133;" horiz-adv-x="1176" 
d="M190 0v1058h221v-1058h-221zM154 1375q0 61 41 99.5t104 38.5q66 0 107.5 -38.5t41.5 -99.5t-41.5 -99t-107.5 -38q-63 0 -104 38.5t-41 98.5zM729 1375q0 61 41 99.5t104 38.5q66 0 107.5 -38.5t41.5 -99.5t-41.5 -99t-107.5 -38q-63 0 -104 38.5t-41 98.5zM986 1058
v-1081q0 -176 -83 -262t-237 -86q-71 0 -105 8v172q20 -4 62 -4q77 0 109.5 41.5t32.5 132.5v1079h221z" />
    <glyph glyph-name="Jcircumflex" unicode="&#x134;" horiz-adv-x="1072" 
d="M51 364h220q3 -80 56.5 -129t136.5 -49q102 0 154.5 58t52.5 168v953h228v-943q0 -216 -114 -332.5t-320 -116.5q-193 0 -303.5 111t-110.5 280zM860 1741l267 -246h-194l-145 133h-7l-153 -133h-191l277 246h146z" />
    <glyph glyph-name="jcircumflex" unicode="&#x135;" horiz-adv-x="601" 
d="M411 1058v-1087q0 -177 -84 -262.5t-236 -85.5q-60 0 -105 8v173q25 -5 62 -5q76 0 109 41t33 134v1084h221zM-23 1228l250 364h152l250 -364h-179l-143 231h-8l-143 -231h-179z" />
    <glyph glyph-name="Kcommaaccent" unicode="&#x136;" horiz-adv-x="1278" 
d="M1224 1365l-497 -586l521 -779h-278l-410 619l-153 -167v-452h-227v1365h227v-627h10l552 627h255zM637 -468h-153l82 319h180z" />
    <glyph glyph-name="kcommaaccent" unicode="&#x137;" horiz-adv-x="1113" 
d="M391 376v-376h-221v1437h221v-833h10l389 454h253l-399 -458l426 -600h-262l-331 464zM575 -468h-153l82 319h180z" />
    <glyph glyph-name="Lacute" unicode="&#x139;" horiz-adv-x="1058" 
d="M1008 206v-206h-828v1365h227v-1159h601zM209 1508l237 322h203l-280 -322h-160z" />
    <glyph glyph-name="lacute" unicode="&#x13a;" horiz-adv-x="571" 
d="M174 0v1437h222v-1437h-222zM202 1580l237 322h203l-280 -322h-160z" />
    <glyph glyph-name="Lcommaaccent" unicode="&#x13b;" horiz-adv-x="1058" 
d="M1008 206v-206h-828v1365h227v-1159h601zM535 -468h-153l82 319h180z" />
    <glyph glyph-name="lcommaaccent" unicode="&#x13c;" horiz-adv-x="571" 
d="M174 0v1437h222v-1437h-222zM284 -468h-153l82 319h180z" />
    <glyph glyph-name="Lcaron" unicode="&#x13d;" horiz-adv-x="1058" 
d="M626 1436h194l-50 -488h-144v488zM1008 206v-206h-828v1365h227v-1159h601z" />
    <glyph glyph-name="lcaron" unicode="&#x13e;" horiz-adv-x="746" 
d="M564 1436h187l-46 -488h-141v488zM174 0v1437h222v-1437h-222z" />
    <glyph glyph-name="Lslash" unicode="&#x141;" horiz-adv-x="1076" 
d="M1027 0h-829v522l-124 -71v210l124 72v632h227v-498l346 198v-213l-346 -196v-450h602v-206z" />
    <glyph glyph-name="lslash" unicode="&#x142;" horiz-adv-x="651" 
d="M437 0h-222v583l-147 -95v203l147 96v650h222v-505l146 96v-210l-146 -95v-723z" />
    <glyph glyph-name="Nacute" unicode="&#x143;" horiz-adv-x="1425" 
d="M398 0h-218v1365h200l637 -960h10v960h218v-1365h-199l-639 963h-9v-963zM628 1508l237 322h203l-280 -322h-160z" />
    <glyph glyph-name="nacute" unicode="&#x144;" horiz-adv-x="1232" 
d="M167 0v1058h218v-189h11q12 36 32 68t56 65t95 52.5t135 19.5q165 0 260.5 -92t95.5 -269v-713h-222v646q0 116 -55.5 173.5t-153.5 57.5q-120 0 -185 -80t-65 -210v-587h-222zM516 1228l238 354h206l-279 -354h-165z" />
    <glyph glyph-name="Ncommaaccent" unicode="&#x145;" horiz-adv-x="1425" 
d="M398 0h-218v1365h200l637 -960h10v960h218v-1365h-199l-639 963h-9v-963zM710 -468h-153l82 319h180z" />
    <glyph glyph-name="ncommaaccent" unicode="&#x146;" horiz-adv-x="1232" 
d="M167 0v1058h218v-189h11q12 36 32 68t56 65t95 52.5t135 19.5q165 0 260.5 -92t95.5 -269v-713h-222v646q0 116 -55.5 173.5t-153.5 57.5q-120 0 -185 -80t-65 -210v-587h-222zM614 -468h-153l82 319h180z" />
    <glyph glyph-name="Ncaron" unicode="&#x147;" horiz-adv-x="1425" 
d="M398 0h-218v1365h200l637 -960h10v960h218v-1365h-199l-639 963h-9v-963zM365 1744h194l145 -134h9l150 134h192l-272 -247h-151z" />
    <glyph glyph-name="ncaron" unicode="&#x148;" horiz-adv-x="1232" 
d="M167 0v1058h218v-189h11q12 36 32 68t56 65t95 52.5t135 19.5q165 0 260.5 -92t95.5 -269v-713h-222v646q0 116 -55.5 173.5t-153.5 57.5q-120 0 -185 -80t-65 -210v-587h-222zM290 1587h178l146 -238h6l136 238h180l-240 -364h-155z" />
    <glyph glyph-name="Omacron" unicode="&#x14c;" horiz-adv-x="1385" 
d="M1030 775q0 201 -93 307.5t-244 106.5q-152 0 -245 -106.5t-93 -307.5v-186q0 -201 93 -307.5t245 -106.5q151 0 244 106.5t93 307.5v186zM1260 590q0 -289 -152 -453t-415 -164t-415.5 164.5t-152.5 452.5v183q0 290 152 454.5t416 164.5q263 0 415 -165t152 -454v-183z
M996 1505h-606v124h606v-124z" />
    <glyph glyph-name="omacron" unicode="&#x14d;" horiz-adv-x="1175" 
d="M588 1076q210 0 339.5 -129t129.5 -350v-132q0 -227 -129 -355t-340 -128q-214 0 -342.5 127t-128.5 356v131q0 217 131 348.5t340 131.5zM589 890q-115 0 -181.5 -85t-66.5 -218v-116q0 -134 64.5 -218.5t183.5 -84.5q118 0 181.5 84t63.5 219v116q0 133 -65 218
t-180 85zM893 1250h-612v131h612v-131z" />
    <glyph glyph-name="Obreve" unicode="&#x14e;" horiz-adv-x="1385" 
d="M1030 775q0 201 -93 307.5t-244 106.5q-152 0 -245 -106.5t-93 -307.5v-186q0 -201 93 -307.5t245 -106.5q151 0 244 106.5t93 307.5v186zM1260 590q0 -289 -152 -453t-415 -164t-415.5 164.5t-152.5 452.5v183q0 290 152 454.5t416 164.5q263 0 415 -165t152 -454v-183z
M362 1757h149q0 -66 47.5 -107t134.5 -41t134.5 41t47.5 107h147q0 -120 -92 -200t-237 -80t-238 79.5t-93 200.5z" />
    <glyph glyph-name="obreve" unicode="&#x14f;" horiz-adv-x="1175" 
d="M588 1076q210 0 339.5 -129t129.5 -350v-132q0 -227 -129 -355t-340 -128q-214 0 -342.5 127t-128.5 356v131q0 217 131 348.5t340 131.5zM589 890q-115 0 -181.5 -85t-66.5 -218v-116q0 -134 64.5 -218.5t183.5 -84.5q118 0 181.5 84t63.5 219v116q0 133 -65 218
t-180 85zM283 1515h139q0 -73 44.5 -118.5t120.5 -45.5t120.5 45.5t44.5 118.5h138q-1 -129 -86 -212.5t-217 -83.5q-133 0 -218.5 83.5t-85.5 212.5z" />
    <glyph glyph-name="Ohungarumlaut" unicode="&#x150;" horiz-adv-x="1385" 
d="M1030 775q0 201 -93 307.5t-244 106.5q-152 0 -245 -106.5t-93 -307.5v-186q0 -201 93 -307.5t245 -106.5q151 0 244 106.5t93 307.5v186zM1260 590q0 -289 -152 -453t-415 -164t-415.5 164.5t-152.5 452.5v183q0 290 152 454.5t416 164.5q263 0 415 -165t152 -454v-183z
M414 1508l237 322h202l-280 -322h-159zM772 1508l237 322h202l-280 -322h-159z" />
    <glyph glyph-name="ohungarumlaut" unicode="&#x151;" horiz-adv-x="1175" 
d="M588 1076q210 0 339.5 -129t129.5 -350v-132q0 -227 -129 -355t-340 -128q-214 0 -342.5 127t-128.5 356v131q0 217 131 348.5t340 131.5zM589 890q-115 0 -181.5 -85t-66.5 -218v-116q0 -134 64.5 -218.5t183.5 -84.5q118 0 181.5 84t63.5 219v116q0 133 -65 218
t-180 85zM465 1228h-151l245 333h197zM808 1228h-151l245 333h198z" />
    <glyph glyph-name="OE" unicode="&#x152;" horiz-adv-x="2013" 
d="M360 770v-186q0 -194 89.5 -302t248.5 -108q162 0 251.5 104.5t89.5 295.5v212q0 191 -90.5 297t-250.5 106q-157 0 -247.5 -111.5t-90.5 -307.5zM668 -27q-254 0 -398.5 165t-144.5 448v182q0 292 148 458t398 166q125 0 221.5 -44t146.5 -123h15v140h824v-199h-619
v-379h582v-189h-582v-399h619v-199h-824v144h-14q-53 -79 -151 -125t-221 -46z" />
    <glyph glyph-name="oe" unicode="&#x153;" horiz-adv-x="1859" 
d="M1305 -18q-115 0 -209 44t-142 117h-15q-51 -73 -146 -117t-205 -44q-214 0 -342.5 127t-128.5 356v131q0 217 131 348.5t340 131.5q114 0 206.5 -42t144.5 -122h14q49 75 140 119.5t199 44.5q201 0 326.5 -130t125.5 -348v-123h-687v-51q0 -114 66 -185.5t181 -71.5
q84 0 141.5 34.5t69.5 85.5h217q-5 -50 -33 -101t-77.5 -98t-132.5 -76.5t-184 -29.5zM588 891q-115 0 -181.5 -85t-66.5 -218v-117q0 -134 64.5 -218.5t183.5 -84.5q118 0 181.5 84t63.5 219v117q0 133 -65 218t-180 85zM1057 624h470v13q0 116 -64 187.5t-170 71.5
t-171 -71.5t-65 -187.5v-13z" />
    <glyph glyph-name="Racute" unicode="&#x154;" horiz-adv-x="1292" 
d="M702 1365q214 0 337 -115t123 -309q0 -140 -70.5 -241t-180.5 -141l276 -559h-255l-245 520h-283v-520h-224v1365h522zM404 707h260q127 0 195.5 58t68.5 169q0 113 -69 175.5t-189 62.5h-266v-465zM533 1508l237 322h203l-280 -322h-160z" />
    <glyph glyph-name="racute" unicode="&#x155;" horiz-adv-x="827" 
d="M181 0v1058h221v-165h12q10 30 29 59t51 58t83 46.5t114 17.5q38 0 75 -7v-205q-25 8 -95 8q-129 0 -197 -67.5t-68 -179.5v-623h-225zM350 1228l238 354h206l-279 -354h-165z" />
    <glyph glyph-name="Rcommaaccent" unicode="&#x156;" horiz-adv-x="1292" 
d="M702 1365q214 0 337 -115t123 -309q0 -140 -70.5 -241t-180.5 -141l276 -559h-255l-245 520h-283v-520h-224v1365h522zM404 707h260q127 0 195.5 58t68.5 169q0 113 -69 175.5t-189 62.5h-266v-465zM615 -468h-153l82 319h180z" />
    <glyph glyph-name="rcommaaccent" unicode="&#x157;" horiz-adv-x="827" 
d="M181 0v1058h221v-165h12q10 30 29 59t51 58t83 46.5t114 17.5q38 0 75 -7v-205q-25 8 -95 8q-129 0 -197 -67.5t-68 -179.5v-623h-225zM294 -468h-153l82 319h180z" />
    <glyph glyph-name="Rcaron" unicode="&#x158;" horiz-adv-x="1292" 
d="M702 1365q214 0 337 -115t123 -309q0 -140 -70.5 -241t-180.5 -141l276 -559h-255l-245 520h-283v-520h-224v1365h522zM404 707h260q127 0 195.5 58t68.5 169q0 113 -69 175.5t-189 62.5h-266v-465zM270 1744h194l145 -134h9l150 134h192l-272 -247h-151z" />
    <glyph glyph-name="rcaron" unicode="&#x159;" horiz-adv-x="827" 
d="M181 0v1058h221v-165h12q10 30 29 59t51 58t83 46.5t114 17.5q38 0 75 -7v-205q-25 8 -95 8q-129 0 -197 -67.5t-68 -179.5v-623h-225zM124 1587h178l146 -238h6l136 238h180l-240 -364h-155z" />
    <glyph glyph-name="Sacute" unicode="&#x15a;" horiz-adv-x="1236" 
d="M88 362h223q17 -87 98 -140.5t206 -53.5q133 0 208 56t75 149q0 74 -52 118.5t-165 72.5l-224 54q-160 38 -247 131.5t-87 238.5q0 181 137.5 294t355.5 113q212 0 344.5 -106.5t145.5 -268.5h-220q-17 82 -89 131.5t-183 49.5q-120 0 -191.5 -55t-71.5 -143
q0 -131 189 -174l223 -54q180 -42 271 -132.5t91 -247.5q0 -191 -141 -306.5t-386 -115.5q-230 0 -363.5 109.5t-146.5 279.5zM532 1508l237 322h203l-280 -322h-160z" />
    <glyph glyph-name="sacute" unicode="&#x15b;" horiz-adv-x="1060" 
d="M122 749q0 111 58.5 186.5t148 108t202.5 32.5q176 0 283.5 -82t107.5 -223h-200q-5 56 -56 97t-141 41q-86 0 -138 -37.5t-52 -101.5q0 -38 18 -64.5t64 -43t69 -22t89 -16.5q6 -1 9.5 -2t8.5 -1.5t9 -1.5q64 -11 112.5 -25t95 -37.5t76 -54.5t47.5 -77t18 -104
q0 -159 -117.5 -249t-319.5 -90q-189 0 -300.5 82t-111.5 223h216q20 -138 207 -138q106 0 158 40.5t52 104.5q0 29 -12.5 51.5t-32.5 36.5t-52 25t-63.5 18.5t-75.5 15.5q-18 3 -27 5q-65 13 -111.5 26.5t-94.5 37.5t-77.5 54.5t-48 77.5t-18.5 107zM430 1228l238 354h206
l-279 -354h-165z" />
    <glyph glyph-name="Scircumflex" unicode="&#x15c;" horiz-adv-x="1236" 
d="M88 362h223q17 -87 98 -140.5t206 -53.5q133 0 208 56t75 149q0 74 -52 118.5t-165 72.5l-224 54q-160 38 -247 131.5t-87 238.5q0 181 137.5 294t355.5 113q212 0 344.5 -106.5t145.5 -268.5h-220q-17 82 -89 131.5t-183 49.5q-120 0 -191.5 -55t-71.5 -143
q0 -131 189 -174l223 -54q180 -42 271 -132.5t91 -247.5q0 -191 -141 -306.5t-386 -115.5q-230 0 -363.5 109.5t-146.5 279.5zM691 1741l267 -246h-194l-145 133h-7l-153 -133h-191l277 246h146z" />
    <glyph glyph-name="scircumflex" unicode="&#x15d;" horiz-adv-x="1060" 
d="M122 749q0 111 58.5 186.5t148 108t202.5 32.5q176 0 283.5 -82t107.5 -223h-200q-5 56 -56 97t-141 41q-86 0 -138 -37.5t-52 -101.5q0 -38 18 -64.5t64 -43t69 -22t89 -16.5q6 -1 9.5 -2t8.5 -1.5t9 -1.5q64 -11 112.5 -25t95 -37.5t76 -54.5t47.5 -77t18 -104
q0 -159 -117.5 -249t-319.5 -90q-189 0 -300.5 82t-111.5 223h216q20 -138 207 -138q106 0 158 40.5t52 104.5q0 29 -12.5 51.5t-32.5 36.5t-52 25t-63.5 18.5t-75.5 15.5q-18 3 -27 5q-65 13 -111.5 26.5t-94.5 37.5t-77.5 54.5t-48 77.5t-18.5 107zM204 1228l250 364h152
l250 -364h-179l-143 231h-8l-143 -231h-179z" />
    <glyph glyph-name="Scedilla" unicode="&#x15e;" horiz-adv-x="1236" 
d="M612 -485q-71 0 -133 16v117q44 -14 114 -14q52 0 83 17.5t31 50.5t-30.5 48t-108.5 15h-54v93l45 116q-219 10 -343.5 123.5t-129.5 283.5h222q9 -95 92 -154t215 -59q133 0 208 56t75 149q0 74 -52 118.5t-165 72.5l-224 54q-160 38 -247 131.5t-87 238.5
q0 181 137.5 294t355.5 113q220 0 354 -114t137 -286h-217q-8 92 -82 149t-194 57t-191.5 -55t-71.5 -143q0 -131 189 -174l223 -54q180 -42 271 -132.5t91 -247.5q0 -170 -112.5 -281.5t-313.5 -135.5l-40 -104q96 0 149.5 -44t53.5 -121q0 -94 -65.5 -144t-184.5 -50z" />
    <glyph glyph-name="scedilla" unicode="&#x15f;" horiz-adv-x="1060" 
d="M514 -485q-72 0 -132 16v117q44 -14 114 -14q52 0 82.5 17.5t30.5 50.5t-30.5 48t-108.5 15h-53v93l48 125q-168 11 -265.5 91.5t-97.5 212.5h216q20 -138 207 -138q106 0 158 40.5t52 104.5q0 29 -12.5 51.5t-32.5 36.5t-52 25t-63.5 18.5t-75.5 15.5q-18 3 -27 5
q-65 13 -111.5 26.5t-94.5 37.5t-77.5 54.5t-48 77.5t-18.5 107q0 111 58.5 186.5t148 108t202.5 32.5q176 0 283.5 -82t107.5 -223h-200q-5 56 -56 97t-141 41q-86 0 -138 -37.5t-52 -101.5q0 -38 18 -64.5t64 -43t69 -22t89 -16.5q6 -1 9.5 -2t8.5 -1.5t9 -1.5
q64 -11 112.5 -25t95 -37.5t76 -54.5t47.5 -77t18 -104q0 -140 -92 -226.5t-254 -106.5l-44 -114q96 0 149.5 -44t53.5 -121q0 -94 -65.5 -144t-184.5 -50z" />
    <glyph glyph-name="Scaron" unicode="&#x160;" horiz-adv-x="1236" 
d="M88 362h223q17 -87 98 -140.5t206 -53.5q133 0 208 56t75 149q0 74 -52 118.5t-165 72.5l-224 54q-160 38 -247 131.5t-87 238.5q0 181 137.5 294t355.5 113q212 0 344.5 -106.5t145.5 -268.5h-220q-17 82 -89 131.5t-183 49.5q-120 0 -191.5 -55t-71.5 -143
q0 -131 189 -174l223 -54q180 -42 271 -132.5t91 -247.5q0 -191 -141 -306.5t-386 -115.5q-230 0 -363.5 109.5t-146.5 279.5zM269 1744h194l145 -134h9l150 134h192l-272 -247h-151z" />
    <glyph glyph-name="scaron" unicode="&#x161;" horiz-adv-x="1060" 
d="M122 749q0 111 58.5 186.5t148 108t202.5 32.5q176 0 283.5 -82t107.5 -223h-200q-5 56 -56 97t-141 41q-86 0 -138 -37.5t-52 -101.5q0 -38 18 -64.5t64 -43t69 -22t89 -16.5q6 -1 9.5 -2t8.5 -1.5t9 -1.5q64 -11 112.5 -25t95 -37.5t76 -54.5t47.5 -77t18 -104
q0 -159 -117.5 -249t-319.5 -90q-189 0 -300.5 82t-111.5 223h216q20 -138 207 -138q106 0 158 40.5t52 104.5q0 29 -12.5 51.5t-32.5 36.5t-52 25t-63.5 18.5t-75.5 15.5q-18 3 -27 5q-65 13 -111.5 26.5t-94.5 37.5t-77.5 54.5t-48 77.5t-18.5 107zM204 1587h178l146 -238
h6l136 238h180l-240 -364h-155z" />
    <glyph glyph-name="Tcedilla" unicode="&#x162;" horiz-adv-x="1115" 
d="M504 0h-60v1162h-399v203h1026v-203h-400v-1162h-28l-62 -126q96 0 149.5 -44t53.5 -121q0 -94 -66 -144t-185 -50q-72 0 -132 16v117q44 -14 114 -14q52 0 83 17.5t31 50.5t-31 48t-109 15h-53v93z" />
    <glyph glyph-name="tcedilla" unicode="&#x163;" horiz-adv-x="800" 
d="M455 -478q-72 0 -132 16v117q42 -14 114 -14q52 0 82.5 17.5t30.5 50.5q0 34 -30.5 48.5t-108.5 14.5h-53v93l54 143q-100 24 -139 93t-39 197v571h-161v181h164v264h217v-264h237v-181h-237v-549q0 -83 35.5 -113.5t126.5 -30.5q53 0 87 4v-177q-45 -10 -142 -10h-16
l-43 -112q96 0 149.5 -44t53.5 -121q0 -94 -65.5 -144t-184.5 -50z" />
    <glyph glyph-name="Tcaron" unicode="&#x164;" horiz-adv-x="1115" 
d="M671 0h-227v1162h-399v203h1026v-203h-400v-1162zM210 1744h194l145 -134h9l150 134h192l-272 -247h-151z" />
    <glyph glyph-name="tcaron" unicode="&#x165;" horiz-adv-x="815" 
d="M628 1690h187l-46 -488h-141v488zM237 1050v264h217v-264h237v-181h-237v-549q0 -83 35.5 -113.5t126.5 -30.5q53 0 87 4v-177q-45 -10 -142 -10q-128 0 -199.5 33t-99.5 97t-28 175v571h-161v181h164z" />
    <glyph glyph-name="Tbar" unicode="&#x166;" horiz-adv-x="1115" 
d="M902 614h-231v-614h-227v614h-230v157h230v391h-399v203h1026v-203h-400v-391h231v-157z" />
    <glyph glyph-name="tbar" unicode="&#x167;" horiz-adv-x="800" 
d="M703 3q-45 -10 -142 -10q-128 0 -199.5 33t-99.5 97t-28 175v214h-153v152h153v205h-161v181h164v264h217v-264h237v-181h-237v-205h225v-152h-225v-192q0 -83 35.5 -113.5t126.5 -30.5q53 0 87 4v-177z" />
    <glyph glyph-name="Utilde" unicode="&#x168;" horiz-adv-x="1400" 
d="M700 179q142 0 225.5 82.5t83.5 227.5v876h227v-894q0 -225 -146.5 -361.5t-389.5 -136.5t-389.5 136.5t-146.5 361.5v894h227v-876q0 -146 83.5 -228t225.5 -82zM825 1461q-45 0 -83 18t-59.5 39.5t-48 39.5t-50.5 18q-36 0 -53 -31t-19 -70h-123q0 89 48.5 154.5
t138.5 65.5q44 0 83 -18t62 -40t51 -40t52 -18q35 0 53.5 29.5t20.5 70.5h123q0 -90 -52.5 -154t-143.5 -64z" />
    <glyph glyph-name="utilde" unicode="&#x169;" horiz-adv-x="1227" 
d="M1060 1058v-1058h-218v176h-12q-12 -34 -36 -66t-61 -61.5t-93 -47t-122 -17.5q-167 0 -262.5 86t-95.5 265v723h222v-662q0 -215 211 -215q103 0 174 66t71 164v647h222zM741 1216q-46 0 -82 21.5t-55.5 47t-45.5 47t-53 21.5q-35 0 -52 -29.5t-22 -91.5h-131
q0 118 52 190t145 72q40 0 72.5 -14t53 -34.5t38.5 -41t36.5 -34.5t38.5 -14q61 0 69 121h131q0 -115 -54 -188t-141 -73z" />
    <glyph glyph-name="Umacron" unicode="&#x16a;" horiz-adv-x="1400" 
d="M700 179q142 0 225.5 82.5t83.5 227.5v876h227v-894q0 -225 -146.5 -361.5t-389.5 -136.5t-389.5 136.5t-146.5 361.5v894h227v-876q0 -146 83.5 -228t225.5 -82zM1003 1505h-606v124h606v-124z" />
    <glyph glyph-name="umacron" unicode="&#x16b;" horiz-adv-x="1227" 
d="M1060 1058v-1058h-218v176h-12q-12 -34 -36 -66t-61 -61.5t-93 -47t-122 -17.5q-167 0 -262.5 86t-95.5 265v723h222v-662q0 -215 211 -215q103 0 174 66t71 164v647h222zM920 1250h-612v131h612v-131z" />
    <glyph glyph-name="Ubreve" unicode="&#x16c;" horiz-adv-x="1400" 
d="M700 179q142 0 225.5 82.5t83.5 227.5v876h227v-894q0 -225 -146.5 -361.5t-389.5 -136.5t-389.5 136.5t-146.5 361.5v894h227v-876q0 -146 83.5 -228t225.5 -82zM369 1757h149q0 -66 47.5 -107t134.5 -41t134.5 41t47.5 107h147q0 -120 -92 -200t-237 -80t-238 79.5
t-93 200.5z" />
    <glyph glyph-name="ubreve" unicode="&#x16d;" horiz-adv-x="1227" 
d="M1060 1058v-1058h-218v176h-12q-12 -34 -36 -66t-61 -61.5t-93 -47t-122 -17.5q-167 0 -262.5 86t-95.5 265v723h222v-662q0 -215 211 -215q103 0 174 66t71 164v647h222zM310 1515h139q0 -73 44.5 -118.5t120.5 -45.5t120.5 45.5t44.5 118.5h138q-1 -129 -86 -212.5
t-217 -83.5q-133 0 -218.5 83.5t-85.5 212.5z" />
    <glyph glyph-name="Uring" unicode="&#x16e;" horiz-adv-x="1400" 
d="M700 179q142 0 225.5 82.5t83.5 227.5v876h227v-894q0 -225 -146.5 -361.5t-389.5 -136.5t-389.5 136.5t-146.5 361.5v894h227v-876q0 -146 83.5 -228t225.5 -82zM701 1474q-86 0 -145 57.5t-59 143.5t59 142.5t145 56.5t144.5 -56.5t58.5 -142.5t-59 -143.5t-144 -57.5z
M603 1674q0 -41 28 -69t69 -28q42 0 69.5 28t27.5 69t-27.5 69t-69.5 28q-41 0 -69 -28t-28 -69z" />
    <glyph glyph-name="uring" unicode="&#x16f;" horiz-adv-x="1227" 
d="M1060 1058v-1058h-218v176h-12q-12 -34 -36 -66t-61 -61.5t-93 -47t-122 -17.5q-167 0 -262.5 86t-95.5 265v723h222v-662q0 -215 211 -215q103 0 174 66t71 164v647h222zM615 1222q-86 0 -145 57.5t-59 143.5t59 142.5t145 56.5t144.5 -56.5t58.5 -142.5t-59 -143.5
t-144 -57.5zM517 1422q0 -41 28 -69t69 -28q42 0 69.5 28t27.5 69t-27.5 69t-69.5 28q-41 0 -69 -28t-28 -69z" />
    <glyph glyph-name="Uhungarumlaut" unicode="&#x170;" horiz-adv-x="1400" 
d="M700 179q142 0 225.5 82.5t83.5 227.5v876h227v-894q0 -225 -146.5 -361.5t-389.5 -136.5t-389.5 136.5t-146.5 361.5v894h227v-876q0 -146 83.5 -228t225.5 -82zM421 1508l237 322h202l-280 -322h-159zM779 1508l237 322h202l-280 -322h-159z" />
    <glyph glyph-name="uhungarumlaut" unicode="&#x171;" horiz-adv-x="1227" 
d="M1060 1058v-1058h-218v176h-12q-12 -34 -36 -66t-61 -61.5t-93 -47t-122 -17.5q-167 0 -262.5 86t-95.5 265v723h222v-662q0 -215 211 -215q103 0 174 66t71 164v647h222zM492 1228h-151l245 333h197zM835 1228h-151l245 333h198z" />
    <glyph glyph-name="Uogonek" unicode="&#x172;" horiz-adv-x="1400" 
d="M1000 -388q-102 0 -168.5 53t-66.5 152q0 108 92 186l-4 6q-78 -36 -171 -36q-241 0 -379.5 135.5t-138.5 362.5v894h227v-876q0 -146 83.5 -228t225.5 -82t225.5 82.5t83.5 227.5v876h227v-894q0 -227 -150 -382q-14 -15 -49 -47.5t-53 -52t-34.5 -52.5t-16.5 -67
q0 -52 33 -79t84 -27q37 0 76 10v-141q-60 -21 -126 -21z" />
    <glyph glyph-name="uogonek" unicode="&#x173;" horiz-adv-x="1227" 
d="M1072 -368q-51 -20 -133 -20q-98 0 -165.5 50t-67.5 148q0 41 12.5 76t37.5 63t43.5 44t48.5 38v145h-12q-26 -75 -107 -133.5t-209 -58.5q-166 0 -263 86t-97 265v723h222v-664q0 -116 58 -165.5t152 -49.5q104 0 175 66t71 164v649h222v-1025q-74 -28 -128 -74.5
t-54 -103.5q0 -44 32 -67t84 -23q44 0 78 8v-141z" />
    <glyph glyph-name="Wcircumflex" unicode="&#x174;" horiz-adv-x="1767" 
d="M610 0h-206l-368 1365h252l227 -1026h11l255 1026h206l254 -1026h12l226 1026h252l-368 -1365h-206l-269 995h-9zM959 1741l267 -246h-194l-145 133h-7l-153 -133h-191l277 246h146z" />
    <glyph glyph-name="wcircumflex" unicode="&#x175;" horiz-adv-x="1569" 
d="M1517 1058l-278 -1058h-226l-221 773h-6l-217 -773h-227l-290 1058h239l170 -799h10l213 799h209l219 -799h10l173 799h222zM458 1228l250 364h152l250 -364h-179l-143 231h-8l-143 -231h-179z" />
    <glyph glyph-name="Ycircumflex" unicode="&#x176;" horiz-adv-x="1176" 
d="M701 0h-226v541l-457 824h254l313 -588h10l314 588h249l-457 -820v-545zM663 1741l267 -246h-194l-145 133h-7l-153 -133h-191l277 246h146z" />
    <glyph glyph-name="ycircumflex" unicode="&#x177;" horiz-adv-x="1117" 
d="M1051 1058q-13 -48 -54.5 -172.5t-92 -268t-99 -280t-81.5 -227.5l-33 -92l-23 -61q-66 -177 -161 -252.5t-249 -75.5q-74 0 -121 10v175q32 -6 81 -6q89 0 137 35.5t67 117.5l9 32l-377 1065h246l252 -849h9l255 849h235zM232 1228l250 364h152l250 -364h-179l-143 231
h-8l-143 -231h-179z" />
    <glyph glyph-name="Ydieresis" unicode="&#x178;" horiz-adv-x="1176" 
d="M701 0h-226v541l-457 824h254l313 -588h10l314 588h249l-457 -820v-545zM769 1468q-49 0 -81 32t-32 80q0 47 32 79t81 32t81 -32t32 -79q0 -48 -32 -80t-81 -32zM405 1468q-49 0 -81 32t-32 80q0 47 32 79t81 32t81 -32t32 -79q0 -48 -32 -80t-81 -32z" />
    <glyph glyph-name="Zacute" unicode="&#x179;" horiz-adv-x="1216" 
d="M110 0v159l692 994v12h-671v200h948v-159l-689 -993v-13h707v-200h-987zM524 1508l237 322h203l-280 -322h-160z" />
    <glyph glyph-name="zacute" unicode="&#x17a;" horiz-adv-x="1037" 
d="M116 0v139l533 719v12h-531v188h802v-149l-523 -709v-11h532v-189h-813zM419 1228l238 354h206l-279 -354h-165z" />
    <glyph glyph-name="Zdotaccent" unicode="&#x17b;" horiz-adv-x="1216" 
d="M110 0v159l692 994v12h-671v200h948v-159l-689 -993v-13h707v-200h-987zM490 1610q0 50 34.5 85.5t83.5 35.5t83.5 -35.5t34.5 -85.5t-34.5 -85.5t-83.5 -35.5t-83.5 35.5t-34.5 85.5z" />
    <glyph glyph-name="zdotaccent" unicode="&#x17c;" horiz-adv-x="1037" 
d="M116 0v139l533 719v12h-531v188h802v-149l-523 -709v-11h532v-189h-813zM396 1364q0 51 35.5 86t86.5 35q50 0 85.5 -35t35.5 -86t-35.5 -86t-85.5 -35q-51 0 -86.5 35t-35.5 86z" />
    <glyph glyph-name="Zcaron" unicode="&#x17d;" horiz-adv-x="1216" 
d="M110 0v159l692 994v12h-671v200h948v-159l-689 -993v-13h707v-200h-987zM261 1744h194l145 -134h9l150 134h192l-272 -247h-151z" />
    <glyph glyph-name="zcaron" unicode="&#x17e;" horiz-adv-x="1037" 
d="M116 0v139l533 719v12h-531v188h802v-149l-523 -709v-11h532v-189h-813zM193 1587h178l146 -238h6l136 238h180l-240 -364h-155z" />
    <glyph glyph-name="uni04D8" unicode="&#x4d8;" horiz-adv-x="1396" 
d="M693 176q146 0 241 93t95 258v10h-671v-6q0 -169 93 -262t242 -93zM148 941q1 92 40 174t107 143.5t167 97.5t215 36q268 0 424.5 -164.5t156.5 -448.5v-189q0 -282 -149 -449.5t-413 -167.5q-261 0 -409.5 161.5t-148.5 440.5l3 147h889v62q0 196 -98.5 300t-256.5 104
q-133 0 -218 -70t-87 -177h-222z" />
    <glyph glyph-name="uni04D8" unicode="&#x18f;" horiz-adv-x="1396" 
d="M693 176q146 0 241 93t95 258v10h-671v-6q0 -169 93 -262t242 -93zM148 941q1 92 40 174t107 143.5t167 97.5t215 36q268 0 424.5 -164.5t156.5 -448.5v-189q0 -282 -149 -449.5t-413 -167.5q-261 0 -409.5 161.5t-148.5 440.5l3 147h889v62q0 196 -98.5 300t-256.5 104
q-133 0 -218 -70t-87 -177h-222z" />
    <glyph glyph-name="florin" unicode="&#x192;" horiz-adv-x="1184" 
d="M1079 1374v-177q-43 13 -135 13q-172 0 -194 -174l-25 -189h279v-156h-299l-51 -387q-22 -164 -122 -247.5t-274 -83.5q-95 0 -152 18v177q46 -14 136 -14q169 0 193 175l47 362h-254v156h275l28 214q21 163 121.5 247t273.5 84q96 0 153 -18z" />
    <glyph glyph-name="Ohorn" unicode="&#x1a0;" horiz-adv-x="1436" 
d="M1260 585q0 -284 -151 -448t-418 -164t-416.5 163.5t-149.5 448.5v184q0 287 152 455t416 168q82 0 157.5 -20t137.5 -40.5t112 -20.5q73 0 104 36t31 111v108h185v-127q0 -134 -67.5 -209t-192.5 -75l-3 -4q46 -69 74.5 -174t28.5 -208v-184zM355 770v-186
q0 -193 89 -301t248 -108t249 108t90 301v186q0 196 -91 307.5t-248 111.5q-156 0 -246.5 -111.5t-90.5 -307.5z" />
    <glyph glyph-name="ohorn" unicode="&#x1a1;" horiz-adv-x="1189" 
d="M588 -18q-214 0 -342.5 127t-128.5 356v131q0 217 131 348.5t340 131.5q62 0 141 -19.5t132 -19.5q69 0 96 34t27 103v157h184v-167q0 -253 -201 -275v-9q37 -53 63.5 -128.5t26.5 -154.5v-132q0 -227 -129 -355t-340 -128zM589 891q-115 0 -181.5 -85t-66.5 -218v-117
q0 -134 64.5 -218.5t183.5 -84.5q117 0 181 84.5t64 218.5v117q0 133 -65 218t-180 85z" />
    <glyph glyph-name="Uhorn" unicode="&#x1af;" horiz-adv-x="1508" 
d="M700 -26q-243 0 -389.5 136.5t-146.5 361.5v893h227v-875q0 -146 83.5 -228t225.5 -82t225.5 82.5t83.5 227.5v875h229q63 0 92.5 33t29.5 104v116h183v-134q0 -131 -67.5 -207.5t-187.5 -76.5h-52v-728q0 -225 -146.5 -361.5t-389.5 -136.5z" />
    <glyph glyph-name="uhorn" unicode="&#x1b0;" horiz-adv-x="1338" 
d="M830 176q-12 -34 -36 -66t-61 -61.5t-93 -47t-122 -17.5q-167 0 -262.5 86t-95.5 265v723h222v-664q0 -215 211 -215q103 0 174 66t71 164v649h199q67 0 92 34.5t25 102.5v136h184v-154q0 -126 -64.5 -204.5t-191.5 -78.5h-22v-894h-218v176h-12z" />
    <glyph glyph-name="uni01C4" unicode="&#x1c4;" horiz-adv-x="2586" 
d="M180 1365h471q302 0 453.5 -174.5t151.5 -505.5q0 -332 -152.5 -508.5t-452.5 -176.5h-471v1365zM407 1166v-967h219q202 0 299.5 119.5t97.5 362.5t-98 364t-299 121h-219zM1480 0v159l692 994v12h-671v200h948v-159l-689 -993v-13h707v-200h-987zM1631 1744h194
l145 -134h9l150 134h192l-272 -247h-151z" />
    <glyph glyph-name="uni01C5" unicode="&#x1c5;" horiz-adv-x="2418" 
d="M180 1365h471q302 0 453.5 -174.5t151.5 -505.5q0 -332 -152.5 -508.5t-452.5 -176.5h-471v1365zM407 1166v-967h219q202 0 299.5 119.5t97.5 362.5t-98 364t-299 121h-219zM1496 0v139l533 719v12h-531v188h802v-149l-523 -709v-11h532v-189h-813zM1573 1587h178
l146 -238h6l136 238h180l-240 -364h-155z" />
    <glyph glyph-name="uni01C6" unicode="&#x1c6;" horiz-adv-x="2280" 
d="M522 1072q111 0 192 -46t112 -127h11v538h222v-1437h-216v169h-11q-24 -81 -111 -132t-202 -51q-183 0 -292 123t-109 333v175q0 210 110 332.5t294 122.5zM584 882q-112 0 -176 -78t-64 -218v-112q0 -142 65 -220t180 -78q113 0 180.5 76t67.5 208v154q0 120 -71 194
t-182 74zM1359 0v139l533 719v12h-531v188h802v-149l-523 -709v-11h532v-189h-813zM1436 1587h178l146 -238h6l136 238h180l-240 -364h-155z" />
    <glyph glyph-name="uni01C7" unicode="&#x1c7;" horiz-adv-x="2190" 
d="M1008 206v-206h-828v1365h227v-1159h601zM1169 364h220q3 -80 56.5 -129t136.5 -49q102 0 154.5 58t52.5 168v953h228v-943q0 -216 -114 -332.5t-320 -116.5q-193 0 -303.5 111t-110.5 280z" />
    <glyph glyph-name="uni01C8" unicode="&#x1c8;" horiz-adv-x="1719" 
d="M1008 206v-206h-828v1365h227v-1159h601zM1272 1375q0 61 41 99.5t104 38.5q66 0 107.5 -38.5t41.5 -99.5t-41.5 -99t-107.5 -38q-63 0 -104 38.5t-41 98.5zM1529 1058v-1081q0 -176 -83 -262t-237 -86q-71 0 -105 8v172q20 -4 62 -4q77 0 109.5 41.5t32.5 132.5v1079
h221z" />
    <glyph glyph-name="uni01C9" unicode="&#x1c9;" horiz-adv-x="1180" 
d="M174 0v1437h222v-1437h-222zM733 1375q0 61 41 99.5t104 38.5q66 0 107.5 -38.5t41.5 -99.5t-41.5 -99t-107.5 -38q-63 0 -104 38.5t-41 98.5zM990 1058v-1081q0 -176 -83 -262t-237 -86q-71 0 -105 8v172q20 -4 62 -4q77 0 109.5 41.5t32.5 132.5v1079h221z" />
    <glyph glyph-name="uni01CA" unicode="&#x1ca;" horiz-adv-x="2496" 
d="M398 0h-218v1365h200l637 -960h10v960h218v-1365h-199l-639 963h-9v-963zM1476 364h220q3 -80 56.5 -129t136.5 -49q102 0 154.5 58t52.5 168v953h228v-943q0 -216 -114 -332.5t-320 -116.5q-193 0 -303.5 111t-110.5 280z" />
    <glyph glyph-name="uni01CB" unicode="&#x1cb;" horiz-adv-x="2026" 
d="M398 0h-218v1365h200l637 -960h10v960h218v-1365h-199l-639 963h-9v-963zM1579 1375q0 61 41 99.5t104 38.5q66 0 107.5 -38.5t41.5 -99.5t-41.5 -99t-107.5 -38q-63 0 -104 38.5t-41 98.5zM1836 1058v-1081q0 -176 -83 -262t-237 -86q-71 0 -105 8v172q20 -4 62 -4
q77 0 109.5 41.5t32.5 132.5v1079h221z" />
    <glyph glyph-name="uni01CC" unicode="&#x1cc;" horiz-adv-x="1838" 
d="M167 0v1058h218v-189h11q12 36 32 68t56 65t95 52.5t135 19.5q165 0 260.5 -92t95.5 -269v-713h-222v646q0 116 -55.5 173.5t-153.5 57.5q-120 0 -185 -80t-65 -210v-587h-222zM1391 1375q0 61 41 99.5t104 38.5q66 0 107.5 -38.5t41.5 -99.5t-41.5 -99t-107.5 -38
q-63 0 -104 38.5t-41 98.5zM1648 1058v-1081q0 -176 -83 -262t-237 -86q-71 0 -105 8v172q20 -4 62 -4q77 0 109.5 41.5t32.5 132.5v1079h221z" />
    <glyph glyph-name="Acaron" unicode="&#x1cd;" horiz-adv-x="1285" 
d="M278 0h-232l470 1365h253l470 -1365h-240l-121 370h-479zM644 1122h-10l-184 -570h377zM296 1744h194l145 -134h9l150 134h192l-272 -247h-151z" />
    <glyph glyph-name="acaron" unicode="&#x1ce;" horiz-adv-x="1133" 
d="M456 -16q-155 0 -250.5 88t-95.5 235q0 144 97.5 229t276.5 85h267v98q0 86 -52.5 129t-146.5 43q-162 0 -191 -117h-211q10 137 114 218.5t295 81.5q88 0 160.5 -19.5t130.5 -60.5t90 -112t32 -167v-715h-211v136h-10q-39 -67 -112.5 -109.5t-182.5 -42.5zM525 162
q95 0 160.5 56t65.5 139v112h-232q-93 0 -139.5 -40.5t-46.5 -108.5q0 -76 55.5 -117t136.5 -41zM241 1587h178l146 -238h6l136 238h180l-240 -364h-155z" />
    <glyph glyph-name="Icaron" unicode="&#x1cf;" horiz-adv-x="587" 
d="M407 0h-227v1365h227v-1365zM-53 1744h194l145 -134h9l150 134h192l-272 -247h-151z" />
    <glyph glyph-name="icaron" unicode="&#x1d0;" horiz-adv-x="601" 
d="M190 0v1058h221v-1058h-221zM-23 1587h178l146 -238h6l136 238h180l-240 -364h-155z" />
    <glyph glyph-name="Ocaron" unicode="&#x1d1;" horiz-adv-x="1385" 
d="M1030 775q0 201 -93 307.5t-244 106.5q-152 0 -245 -106.5t-93 -307.5v-186q0 -201 93 -307.5t245 -106.5q151 0 244 106.5t93 307.5v186zM1260 590q0 -289 -152 -453t-415 -164t-415.5 164.5t-152.5 452.5v183q0 290 152 454.5t416 164.5q263 0 415 -165t152 -454v-183z
M346 1744h194l145 -134h9l150 134h192l-272 -247h-151z" />
    <glyph glyph-name="ocaron" unicode="&#x1d2;" horiz-adv-x="1175" 
d="M588 1076q210 0 339.5 -129t129.5 -350v-132q0 -227 -129 -355t-340 -128q-214 0 -342.5 127t-128.5 356v131q0 217 131 348.5t340 131.5zM589 890q-115 0 -181.5 -85t-66.5 -218v-116q0 -134 64.5 -218.5t183.5 -84.5q118 0 181.5 84t63.5 219v116q0 133 -65 218
t-180 85zM261 1587h178l146 -238h6l136 238h180l-240 -364h-155z" />
    <glyph glyph-name="Ucaron" unicode="&#x1d3;" horiz-adv-x="1400" 
d="M700 179q142 0 225.5 82.5t83.5 227.5v876h227v-894q0 -225 -146.5 -361.5t-389.5 -136.5t-389.5 136.5t-146.5 361.5v894h227v-876q0 -146 83.5 -228t225.5 -82zM353 1744h194l145 -134h9l150 134h192l-272 -247h-151z" />
    <glyph glyph-name="ucaron" unicode="&#x1d4;" horiz-adv-x="1227" 
d="M1060 1058v-1058h-218v176h-12q-12 -34 -36 -66t-61 -61.5t-93 -47t-122 -17.5q-167 0 -262.5 86t-95.5 265v723h222v-662q0 -215 211 -215q103 0 174 66t71 164v647h222zM288 1587h178l146 -238h6l136 238h180l-240 -364h-155z" />
    <glyph glyph-name="Udieresismacron" unicode="&#x1d5;" horiz-adv-x="1400" 
d="M700 179q142 0 225.5 82.5t83.5 227.5v876h227v-894q0 -225 -146.5 -361.5t-389.5 -136.5t-389.5 136.5t-146.5 361.5v894h227v-876q0 -146 83.5 -228t225.5 -82zM882 1468q-49 0 -81 32t-32 80q0 47 32 79t81 32t81 -32t32 -79q0 -48 -32 -80t-81 -32zM518 1468
q-49 0 -81 32t-32 80q0 47 32 79t81 32t81 -32t32 -79q0 -48 -32 -80t-81 -32zM1003 1780h-606v124h606v-124z" />
    <glyph glyph-name="udieresismacron" unicode="&#x1d6;" horiz-adv-x="1227" 
d="M1060 1058v-1058h-218v176h-12q-12 -34 -36 -66t-61 -61.5t-93 -47t-122 -17.5q-167 0 -262.5 86t-95.5 265v723h222v-662q0 -215 211 -215q103 0 174 66t71 164v647h222zM806 1214q-51 0 -85 32t-34 83q0 50 34 82.5t85 32.5q52 0 85.5 -32.5t33.5 -82.5
q0 -51 -33.5 -83t-85.5 -32zM422 1214q-51 0 -85 32t-34 83q0 50 33.5 82.5t85.5 32.5q51 0 85 -32.5t34 -82.5q0 -51 -33.5 -83t-85.5 -32zM920 1596h-612v131h612v-131z" />
    <glyph glyph-name="Udieresisacute" unicode="&#x1d7;" horiz-adv-x="1400" 
d="M700 179q142 0 225.5 82.5t83.5 227.5v876h227v-894q0 -225 -146.5 -361.5t-389.5 -136.5t-389.5 136.5t-146.5 361.5v894h227v-876q0 -146 83.5 -228t225.5 -82zM595 1741l228 194h213l-269 -194h-172zM882 1468q-49 0 -81 32t-32 80q0 47 32 79t81 32t81 -32t32 -79
q0 -48 -32 -80t-81 -32zM518 1468q-49 0 -81 32t-32 80q0 47 32 79t81 32t81 -32t32 -79q0 -48 -32 -80t-81 -32z" />
    <glyph glyph-name="udieresisacute" unicode="&#x1d8;" horiz-adv-x="1227" 
d="M1060 1058v-1058h-218v176h-12q-12 -34 -36 -66t-61 -61.5t-93 -47t-122 -17.5q-167 0 -262.5 86t-95.5 265v723h222v-662q0 -215 211 -215q103 0 174 66t71 164v647h222zM806 1214q-51 0 -85 32t-34 83q0 50 34 82.5t85 32.5q52 0 85.5 -32.5t33.5 -82.5
q0 -51 -33.5 -83t-85.5 -32zM422 1214q-51 0 -85 32t-34 83q0 50 33.5 82.5t85.5 32.5q51 0 85 -32.5t34 -82.5q0 -51 -33.5 -83t-85.5 -32zM518 1537l238 354h206l-279 -354h-165z" />
    <glyph glyph-name="Udieresiscaron" unicode="&#x1d9;" horiz-adv-x="1400" 
d="M700 179q142 0 225.5 82.5t83.5 227.5v876h227v-894q0 -225 -146.5 -361.5t-389.5 -136.5t-389.5 136.5t-146.5 361.5v894h227v-876q0 -146 83.5 -228t225.5 -82zM521 1469q-46 0 -77.5 31.5t-31.5 78.5q0 46 31.5 78t77.5 32t78.5 -32t32.5 -78t-32 -78t-79 -32z
M878 1469q-46 0 -78 31.5t-32 78.5q0 46 32 78t78 32t78 -32t32 -78t-32 -78t-78 -32zM359 1945h198l141 -109h4l149 109h194l-269 -198h-156z" />
    <glyph glyph-name="udieresiscaron" unicode="&#x1da;" horiz-adv-x="1227" 
d="M1060 1058v-1058h-218v176h-12q-12 -34 -36 -66t-61 -61.5t-93 -47t-122 -17.5q-167 0 -262.5 86t-95.5 265v723h222v-662q0 -215 211 -215q103 0 174 66t71 164v647h222zM806 1214q-51 0 -85 32t-34 83q0 50 34 82.5t85 32.5q52 0 85.5 -32.5t33.5 -82.5
q0 -51 -33.5 -83t-85.5 -32zM422 1214q-51 0 -85 32t-34 83q0 50 33.5 82.5t85.5 32.5q51 0 85 -32.5t34 -82.5q0 -51 -33.5 -83t-85.5 -32zM288 1901h178l146 -238h6l136 238h180l-240 -364h-155z" />
    <glyph glyph-name="Udieresisgrave" unicode="&#x1db;" horiz-adv-x="1400" 
d="M700 179q142 0 225.5 82.5t83.5 227.5v876h227v-894q0 -225 -146.5 -361.5t-389.5 -136.5t-389.5 136.5t-146.5 361.5v894h227v-876q0 -146 83.5 -228t225.5 -82zM805 1741h-172l-269 194h213zM882 1468q-49 0 -81 32t-32 80q0 47 32 79t81 32t81 -32t32 -79
q0 -48 -32 -80t-81 -32zM518 1468q-49 0 -81 32t-32 80q0 47 32 79t81 32t81 -32t32 -79q0 -48 -32 -80t-81 -32z" />
    <glyph glyph-name="udieresisgrave" unicode="&#x1dc;" horiz-adv-x="1227" 
d="M1060 1058v-1058h-218v176h-12q-12 -34 -36 -66t-61 -61.5t-93 -47t-122 -17.5q-167 0 -262.5 86t-95.5 265v723h222v-662q0 -215 211 -215q103 0 174 66t71 164v647h222zM806 1214q-51 0 -85 32t-34 83q0 50 34 82.5t85 32.5q52 0 85.5 -32.5t33.5 -82.5
q0 -51 -33.5 -83t-85.5 -32zM422 1214q-51 0 -85 32t-34 83q0 50 33.5 82.5t85.5 32.5q51 0 85 -32.5t34 -82.5q0 -51 -33.5 -83t-85.5 -32zM719 1537h-165l-279 354h206z" />
    <glyph glyph-name="uni04D9" unicode="&#x4d9;" horiz-adv-x="1143" 
d="M558 1076q216 0 340.5 -126.5t124.5 -351.5v-138q0 -223 -127 -350.5t-327 -127.5q-201 0 -326.5 130t-125.5 348v123h687v52q0 114 -65.5 185.5t-179.5 71.5q-85 0 -142 -34.5t-70 -86.5h-218q6 54 36 106.5t81.5 97.5t132.5 73t179 28zM804 434h-470v-13
q0 -116 64.5 -187t170.5 -71t170.5 71t64.5 187v13z" />
    <glyph glyph-name="uni04D9" unicode="&#x259;" horiz-adv-x="1143" 
d="M558 1076q216 0 340.5 -126.5t124.5 -351.5v-138q0 -223 -127 -350.5t-327 -127.5q-201 0 -326.5 130t-125.5 348v123h687v52q0 114 -65.5 185.5t-179.5 71.5q-85 0 -142 -34.5t-70 -86.5h-218q6 54 36 106.5t81.5 97.5t132.5 73t179 28zM804 434h-470v-13
q0 -116 64.5 -187t170.5 -71t170.5 71t64.5 187v13z" />
    <glyph glyph-name="uni04D9" unicode="&#x1dd;" horiz-adv-x="1143" 
d="M558 1076q216 0 340.5 -126.5t124.5 -351.5v-138q0 -223 -127 -350.5t-327 -127.5q-201 0 -326.5 130t-125.5 348v123h687v52q0 114 -65.5 185.5t-179.5 71.5q-85 0 -142 -34.5t-70 -86.5h-218q6 54 36 106.5t81.5 97.5t132.5 73t179 28zM804 434h-470v-13
q0 -116 64.5 -187t170.5 -71t170.5 71t64.5 187v13z" />
    <glyph glyph-name="Adieresismacron" unicode="&#x1de;" horiz-adv-x="1285" 
d="M278 0h-232l470 1365h253l470 -1365h-240l-121 370h-479zM644 1122h-10l-184 -570h377zM825 1468q-49 0 -81 32t-32 80q0 47 32 79t81 32t81 -32t32 -79q0 -48 -32 -80t-81 -32zM461 1468q-49 0 -81 32t-32 80q0 47 32 79t81 32t81 -32t32 -79q0 -48 -32 -80t-81 -32z
M946 1780h-606v124h606v-124z" />
    </font>
</defs>
</svg>
