<?xml version="1.0" standalone="no"?>
<!DOCTYPE svg PUBLIC "-//W3C//DTD SVG 1.1//EN" "http://www.w3.org/Graphics/SVG/1.1/DTD/svg11.dtd" >
<svg xmlns="http://www.w3.org/2000/svg" xmlns:xlink="http://www.w3.org/1999/xlink" version="1.1">
<metadata>
Created by FontForge 20170731 at Thu Jan  4 15:34:55 2018
 By Aleksey,,,
Jorge Cisterna
</metadata>
<defs>
<font id="FibraOne-Regular" horiz-adv-x="0" >
  <font-face 
    font-family="Fibra One"
    font-weight="400"
    font-stretch="normal"
    units-per-em="1000"
    panose-1="0 0 5 0 0 0 0 0 0 0"
    ascent="800"
    descent="-200"
    x-height="520"
    cap-height="730"
    bbox="-801 -223 1264 975"
    underline-thickness="50"
    underline-position="-200"
    unicode-range="U+0020-FB02"
  />
<missing-glyph horiz-adv-x="600" 
 />
    <glyph glyph-name="fi" unicode="fi" horiz-adv-x="656" 
d="M47 440q-25 0 -25 25v30q0 25 25 25h70q10 0 10 10v92q0 163 158 163q46 0 88 -13q21 -6 18 -29l-4 -31q-3 -26 -29 -18q-29 8 -58 8q-40 0 -59.5 -18.5t-19.5 -61.5v-92q0 -10 10 -10h126q25 0 25 -25v-30q0 -25 -25 -25h-126q-10 0 -10 -10v-410q0 -25 -25 -25h-44
q-25 0 -25 25v410q0 10 -10 10h-70zM529 622q-29 0 -48.5 20t-19.5 49q0 27 20 46.5t48 19.5t48 -19.5t20 -46.5q0 -29 -20 -49t-48 -20zM547 520q25 0 25 -25v-470q0 -25 -25 -25h-44q-25 0 -25 25v470q0 25 25 25h44z" />
    <glyph glyph-name="fl" unicode="fl" horiz-adv-x="656" 
d="M47 440q-25 0 -25 25v30q0 25 25 25h70q10 0 10 10v92q0 163 158 163q46 0 88 -13q21 -6 18 -29l-4 -31q-3 -26 -29 -18q-29 8 -58 8q-40 0 -59.5 -18.5t-19.5 -61.5v-92q0 -10 10 -10h126q25 0 25 -25v-30q0 -25 -25 -25h-126q-10 0 -10 -10v-410q0 -25 -25 -25h-44
q-25 0 -25 25v410q0 10 -10 10h-70zM547 780q25 0 25 -25v-730q0 -25 -25 -25h-44q-25 0 -25 25v730q0 25 25 25h44z" />
    <glyph glyph-name=".notdef" horiz-adv-x="600" 
 />
    <glyph glyph-name=".null" 
 />
    <glyph glyph-name="nonmarkingreturn" horiz-adv-x="333" 
 />
    <glyph glyph-name="space" unicode=" " horiz-adv-x="260" 
 />
    <glyph glyph-name="exclam" unicode="!" horiz-adv-x="272" 
d="M158 780q24 0 24 -25l-11 -540q0 -25 -26 -25h-18q-26 0 -26 25l-11 540q0 25 24 25h44zM136 -10q-26 0 -44.5 19t-18.5 46q0 25 18.5 43t44.5 18t44.5 -18t18.5 -43q0 -27 -18.5 -46t-44.5 -19z" />
    <glyph glyph-name="quotedbl" unicode="&#x22;" horiz-adv-x="355" 
d="M114 780q20 0 20 -20v-194q0 -20 -20 -20h-28q-20 0 -20 20v194q0 20 20 20h28zM269 780q20 0 20 -20v-194q0 -20 -20 -20h-28q-20 0 -20 20v194q0 20 20 20h28z" />
    <glyph glyph-name="numbersign" unicode="#" horiz-adv-x="786" 
d="M36 205v23q0 25 25 25h108q31 0 35 30l19 106q3 16 -5 26t-25 10h-83q-25 0 -25 25v23q0 25 25 25h101q31 0 36 30l25 144q4 23 27 23h32q27 0 22 -27l-24 -134q-6 -36 30 -36h123q32 0 36 30l25 144q4 23 27 23h32q27 0 22 -27l-24 -134q-6 -36 30 -36h94q25 0 25 -25
v-23q0 -25 -25 -25h-112q-32 0 -36 -30l-18 -106q-6 -36 30 -36h88q25 0 25 -25v-23q0 -25 -25 -25h-107q-31 0 -36 -30l-22 -127q-5 -23 -27 -23h-31q-27 0 -22 27l20 117q6 36 -30 36h-123q-32 0 -36 -30l-22 -127q-5 -23 -27 -23h-31q-27 0 -22 27l20 117q6 36 -30 36
h-89q-25 0 -25 25zM287 289q-6 -36 30 -36h123q30 0 35 30l19 106q3 16 -5 26t-25 10h-123q-31 0 -36 -30z" />
    <glyph glyph-name="dollar" unicode="$" horiz-adv-x="616" 
d="M41 183q-4 13 2.5 20.5t19.5 7.5h37q20 0 29 -21q35 -93 139 -113q16 -3 16 14v166q0 15 -13 16q-85 9 -143 60t-58 142q0 70 55 117.5t144 56.5q15 1 15 16v23q0 25 25 25h11q25 0 25 -25v-25q0 -13 14 -16q79 -12 131 -59t68 -120q6 -27 -22 -27h-41q-21 0 -28 21
q-27 77 -105 100q-17 5 -17 -13v-189q0 -15 13 -16q45 -7 77 -16.5t65 -28.5t50 -52.5t17 -81.5q0 -72 -57 -117.5t-150 -55.5q-15 -2 -15 -15v-38q0 -25 -25 -25h-11q-25 0 -25 24v39q0 15 -13 16q-82 11 -145 60t-85 130zM162 472q0 -45 30 -78t75 -37q17 -2 17 12v184
q0 18 -23 13q-47 -9 -73 -34.5t-26 -59.5zM362 262q-17 2 -17 -13v-159q0 -16 16 -14q53 8 82.5 31.5t29.5 59.5q0 84 -111 95z" />
    <glyph glyph-name="percent" unicode="%" horiz-adv-x="909" 
d="M34 549q0 85 47.5 138t122.5 53t122.5 -53t47.5 -138t-47.5 -138t-122.5 -53t-122.5 53t-47.5 138zM262 54l325 664q11 23 33 13l26 -11q24 -10 13 -33l-323 -667q-10 -22 -33 -12l-29 13q-23 11 -12 33zM110 549q0 -57 25 -88t69 -31t69 31t25 88t-25 88t-69 31t-69 -31
t-25 -88zM535 181q0 84 47.5 137.5t122.5 53.5t122.5 -53.5t47.5 -137.5t-47.5 -137.5t-122.5 -53.5t-122.5 53.5t-47.5 137.5zM613 181q0 -56 24.5 -87.5t67.5 -31.5t67.5 31.5t24.5 87.5t-24.5 87.5t-67.5 31.5t-67.5 -31.5t-24.5 -87.5z" />
    <glyph glyph-name="ampersand" unicode="&#x26;" horiz-adv-x="743" 
d="M46 199q0 110 97 163q22 13 4 31q-53 51 -53 132q0 86 65 142.5t163 56.5q84 0 143 -48t81 -125q3 -13 -3 -20.5t-19 -7.5h-46q-20 0 -29 20q-17 43 -50.5 68.5t-76.5 25.5q-57 0 -93.5 -32t-36.5 -86q0 -51 31.5 -86.5t74.5 -35.5h57q25 0 25 -25v-26q0 -25 -25 -25h-68
q-68 0 -106 -32.5t-38 -85.5t49.5 -89.5t129.5 -36.5q99 0 157.5 63t66.5 155q2 26 -25 26h-26q-25 0 -25 25v26q0 25 25 25h207q25 0 25 -25v-26q0 -25 -25 -25h-38q-24 0 -26 -25q-8 -129 -92 -217t-223 -88q-125 0 -201 59t-76 149z" />
    <glyph glyph-name="quotesingle" unicode="'" horiz-adv-x="200" 
d="M114 780q20 0 20 -20v-194q0 -20 -20 -20h-28q-20 0 -20 20v194q0 20 20 20h28z" />
    <glyph glyph-name="parenleft" unicode="(" horiz-adv-x="317" 
d="M267 739q24 -26 0 -50q-61 -61 -89.5 -144.5t-28.5 -207.5q0 -113 36 -204.5t85 -147.5q19 -22 -2 -49l-9 -11q-21 -27 -49 -1q-160 149 -160 413q0 270 158 414q26 25 49 -1z" />
    <glyph glyph-name="parenright" unicode=")" horiz-adv-x="317" 
d="M168 337q0 125 -27.5 206.5t-91.5 145.5q-23 23 0 50l10 11q23 26 49 1q158 -144 158 -414q0 -264 -160 -413q-28 -26 -49 1l-9 11q-22 28 -9 41q129 129 129 360z" />
    <glyph glyph-name="asterisk" unicode="*" horiz-adv-x="341" 
d="M242 690q11 5 20.5 0.5t12.5 -16.5l2 -6q6 -25 -19 -31l-33 -8q-13 -3 -5 -15l26 -32q16 -19 -3 -36h-1q-21 -17 -36 3l-28 38q-8 10 -16 0l-28 -38q-16 -21 -36 -4l-1 1q-19 17 -3 36l26 32q9 11 -5 15l-32 8q-25 6 -19 31l1 5q3 13 12.5 17.5t20.5 -0.5l30 -12
q5 -2 9 0.5t4 8.5l-1 40q0 26 26 26h8q26 0 26 -26l-1 -40q0 -6 4 -8.5t9 -0.5z" />
    <glyph glyph-name="plus" unicode="+" horiz-adv-x="488" 
d="M45 280v28q0 25 25 25h113q22 0 22 22v112q0 25 25 25h29q25 0 25 -25v-112q0 -22 22 -22h112q25 0 25 -25v-28q0 -25 -25 -25h-112q-22 0 -22 -22v-112q0 -25 -25 -25h-28q-25 0 -25 25v112q0 22 -22 22h-114q-25 0 -25 25z" />
    <glyph glyph-name="comma" unicode="," horiz-adv-x="222" 
d="M70 89q3 23 27 23h38q27 0 22 -27l-32 -157q-4 -22 -27 -22h-22q-27 0 -24 26z" />
    <glyph glyph-name="hyphen" unicode="-" horiz-adv-x="528" 
d="M423 307q35 0 35 -35v-6q0 -35 -35 -35h-319q-35 0 -35 35v6q0 35 35 35h319z" />
    <glyph glyph-name="period" unicode="." horiz-adv-x="256" 
d="M128 -10q-28 0 -48.5 21t-20.5 50q0 28 20 47.5t49 19.5t49 -19.5t20 -47.5q0 -29 -20.5 -50t-48.5 -21z" />
    <glyph glyph-name="slash" unicode="/" horiz-adv-x="472" 
d="M62 -10q-14 0 -19 8t0 21l300 695q7 19 29 19h37q14 0 19.5 -8t0.5 -21l-296 -695q-7 -19 -29 -19h-42z" />
    <glyph glyph-name="zero" unicode="0" horiz-adv-x="760" 
d="M56 368q0 165 89 268.5t236 103.5q146 0 235 -103.5t89 -268.5q0 -167 -89 -272.5t-235 -105.5q-147 0 -236 105.5t-89 272.5zM156 365q0 -127 61.5 -207t163.5 -80q101 0 162.5 80t61.5 207t-61.5 207t-162.5 80q-102 0 -163.5 -80t-61.5 -207z" />
    <glyph glyph-name="one" unicode="1" horiz-adv-x="503" 
d="M77 522q-12 -2 -19 4.5t-7 18.5v40q0 21 23 26q55 9 107.5 37.5t83.5 66.5q12 15 30 15h10q25 0 25 -25v-585q0 -28 28 -28h100q25 0 25 -25v-42q0 -25 -25 -25h-369q-25 0 -25 25v42q0 25 25 25h116q28 0 28 28v428q0 15 -7.5 19.5t-19.5 -2.5q-58 -34 -129 -43z" />
    <glyph glyph-name="two" unicode="2" horiz-adv-x="640" 
d="M75 508q-27 0 -24 26q12 92 83 149t175 57q120 0 188 -58t68 -150q0 -42 -12.5 -79.5t-40.5 -74.5t-54.5 -64t-72.5 -69l-134 -122q-13 -12 -9 -21.5t21 -9.5h307q25 0 25 -25v-42q0 -25 -25 -25h-490q-25 0 -25 25v7q0 18 13 31l252 245q38 37 53 52t38.5 41t32 42
t15.5 38t7 45q0 57 -43 93.5t-114 36.5q-63 0 -108 -35t-55 -89q-4 -24 -27 -24h-44z" />
    <glyph glyph-name="three" unicode="3" horiz-adv-x="660" 
d="M49 178q-4 13 1.5 20.5t19.5 7.5h49q20 0 28 -20q45 -111 189 -111q75 0 122.5 37.5t46.5 96.5q0 56 -45 85.5t-131 29.5h-55q-25 0 -25 25v37q0 25 25 25h55q69 0 107.5 34t39.5 87q1 55 -38 89t-105 35q-66 0 -109 -28.5t-59 -76.5q-6 -22 -27 -22h-44q-29 0 -23 27
q20 83 89 133.5t173 50.5q112 0 177.5 -55t64.5 -146q-2 -96 -82 -151q-24 -16 3 -26q108 -40 108 -161q1 -98 -77 -154.5t-191 -56.5q-112 0 -184.5 49.5t-102.5 138.5z" />
    <glyph glyph-name="four" unicode="4" horiz-adv-x="653" 
d="M51 149q-25 0 -25 25v14q0 17 10 31q205 288 223 492q1 24 25 24h49q27 0 24 -26q-12 -101 -64 -220.5t-129 -224.5q-11 -14 -5.5 -25t22.5 -11h200q28 0 28 28v175q0 25 25 25h43q25 0 25 -25v-175q0 -28 28 -28h79q25 0 25 -25v-29q0 -25 -25 -25h-79q-28 0 -28 -28
v-101q0 -25 -25 -25h-43q-25 0 -25 25v101q0 28 -28 28h-330z" />
    <glyph glyph-name="five" unicode="5" horiz-adv-x="618" 
d="M43 178q-4 13 1.5 20.5t19.5 7.5h48q21 0 28 -20q18 -51 63 -81.5t105 -30.5q69 0 119 42t49 108q-2 144 -190 144h-156q-51 0 -51 51v283q0 28 28 28h383q25 0 25 -25v-42q0 -25 -25 -25h-294q-28 0 -28 -28v-126q0 -28 28 -28h92q143 0 214.5 -62.5t72.5 -169.5
q1 -104 -74 -169t-193 -65q-99 0 -167.5 52t-97.5 136z" />
    <glyph glyph-name="six" unicode="6" horiz-adv-x="666" 
d="M58 360q0 185 81.5 283t212.5 97q90 0 154 -49t87 -129q4 -13 -2.5 -20.5t-19.5 -7.5l-46 1q-19 0 -28 20q-19 46 -57 73t-88 27q-88 1 -143.5 -66t-59.5 -188v-17q0 -12 8.5 -15t18.5 7q74 67 197 65q108 0 174 -64.5t66 -160.5q-1 -98 -74.5 -162t-187.5 -64
q-138 0 -215.5 100t-77.5 270zM169 248q-7 -17 -1 -36q46 -137 183 -137q71 1 118 41t47 100q0 62 -44 102.5t-114 40.5q-63 0 -115 -30t-74 -81z" />
    <glyph glyph-name="seven" unicode="7" horiz-adv-x="559" 
d="M47 638q-25 0 -25 25v42q0 25 25 25h454q27 0 33 -26l1 -6q4 -22 -10 -39q-127 -150 -189 -297.5t-68 -336.5q0 -25 -26 -25h-57q-26 0 -24 26q27 335 228 583q9 12 3.5 20.5t-20.5 8.5h-325z" />
    <glyph glyph-name="eight" unicode="8" horiz-adv-x="673" 
d="M52 208q0 105 98 167q26 17 2 38q-61 55 -61 131q0 89 66.5 142.5t178.5 53.5t179 -53.5t67 -142.5q0 -77 -62 -131q-22 -21 3 -38q98 -63 98 -167q0 -98 -78.5 -158t-206.5 -60q-127 0 -205.5 60t-78.5 158zM187 544q0 -52 39.5 -85t109.5 -33t110 33t40 85t-42 86
t-108 34t-107.5 -34t-41.5 -86zM149 210q0 -62 52 -101.5t135 -39.5q84 0 136 39.5t52 101.5q0 63 -50.5 100.5t-137.5 37.5t-137 -37.5t-50 -100.5z" />
    <glyph glyph-name="nine" unicode="9" horiz-adv-x="664" 
d="M605 380q0 -189 -72 -289.5t-215 -100.5q-93 0 -158 50.5t-90 137.5q-4 13 2.5 20.5t19.5 7.5h45q21 0 28 -22q17 -53 58.5 -81.5t98.5 -28.5q164 0 189 229q1 5 1 14t1 13q1 13 -6.5 16.5t-16.5 -5.5q-77 -72 -190 -72q-111 0 -178 68.5t-67 164.5q0 111 73 174.5
t187 63.5q133 0 212 -90.5t78 -269.5zM152 504q0 -62 43 -106t120 -44q60 0 109.5 29.5t71.5 83.5q8 20 1 42q-23 71 -71 108.5t-112 37.5q-72 0 -117 -40t-45 -111z" />
    <glyph glyph-name="colon" unicode=":" horiz-adv-x="273" 
d="M136 334q-28 0 -48.5 21t-20.5 50q0 28 20 47.5t49 19.5t49 -19.5t20 -47.5q0 -29 -20.5 -50t-48.5 -21zM136 -10q-28 0 -48.5 21t-20.5 50q0 28 20 47.5t49 19.5t49 -19.5t20 -47.5q0 -29 -20.5 -50t-48.5 -21z" />
    <glyph glyph-name="semicolon" unicode=";" horiz-adv-x="264" 
d="M134 336q-28 0 -48.5 21t-20.5 50q0 28 20 47.5t49 19.5t49 -19.5t20 -47.5q0 -29 -20.5 -50t-48.5 -21zM89 89q3 23 27 23h35q28 0 22 -27l-32 -154q-5 -22 -28 -22h-18q-27 0 -24 26z" />
    <glyph glyph-name="less" unicode="&#x3c;" horiz-adv-x="471" 
d="M66 227q-19 9 -19 30v34q0 20 18 29l314 154q13 6 21.5 1t8.5 -20v-42q0 -22 -19 -29l-216 -93q-15 -7 -15.5 -16.5t15.5 -16.5l216 -89q19 -8 19 -29v-42q0 -14 -8 -19.5t-21 0.5z" />
    <glyph glyph-name="equal" unicode="=" horiz-adv-x="524" 
d="M426 387q25 0 25 -25v-27q0 -25 -25 -25h-328q-25 0 -25 25v27q0 25 25 25h328zM426 206q25 0 25 -25v-27q0 -25 -25 -25h-328q-25 0 -25 25v27q0 25 25 25h328z" />
    <glyph glyph-name="greater" unicode="&#x3e;" horiz-adv-x="471" 
d="M91 79q-13 -6 -21 -0.5t-8 19.5v42q0 21 19 29l216 89q22 9 21.5 16.5t-21.5 16.5l-216 93q-19 7 -19 29v42q0 14 8.5 20t21.5 -1l314 -154q18 -9 18 -29v-34q0 -21 -19 -30z" />
    <glyph glyph-name="question" unicode="?" horiz-adv-x="565" 
d="M60 529q-13 0 -19.5 7.5t-2.5 20.5q24 83 87.5 133t157.5 50q107 0 173 -59.5t66 -163.5q0 -85 -53 -144t-137 -84q-29 -9 -30 -37l-3 -47q-2 -24 -26 -24h-21q-24 0 -26 24l-6 97q-3 41 40 50q79 17 122 59.5t43 105.5q0 62 -39.5 99t-102.5 37q-110 0 -154 -104
q-8 -20 -28 -20h-41zM200 55q0 25 18.5 43t44.5 18t44.5 -18t18.5 -43q0 -27 -18.5 -46t-44.5 -19t-44.5 19t-18.5 46z" />
    <glyph glyph-name="at" unicode="@" horiz-adv-x="940" 
d="M51 297q0 194 135.5 319.5t342.5 125.5q160 0 266.5 -94.5t106.5 -245.5q0 -119 -57.5 -195.5t-149.5 -76.5q-58 0 -94 43q-13 15 -27 4q-61 -50 -151 -50q-73 0 -123 50t-50 135q0 98 62 164t160 66q84 0 137 -56q13 -15 21 3l10 25q7 20 29 20h5q28 0 23 -27l-43 -240
q-6 -35 9.5 -52.5t44.5 -17.5q54 0 85 56t31 146q0 119 -84 194.5t-219 75.5q-171 0 -282 -104t-111 -261q0 -131 83 -209t217 -78q91 0 163 26q20 7 31 1.5t7 -21.5l-3 -15q-6 -28 -31 -36q-78 -28 -178 -28q-156 0 -261 99.5t-105 253.5zM328 313q0 -52 29.5 -83.5
t76.5 -31.5q93 0 136 63q9 14 14 36l12 66q5 21 -3 39q-31 70 -119 70q-64 0 -105 -43t-41 -116z" />
    <glyph glyph-name="A" unicode="A" horiz-adv-x="713" 
d="M39 0q-12 0 -18 8.5t-1 20.5l271 682q8 19 27 19h76q19 0 27 -19l271 -682q11 -29 -19 -29h-52q-21 0 -29 20l-51 136q-5 11 -16 11h-340q-11 0 -16 -11l-52 -136q-7 -20 -29 -20h-49zM215 276q-3 -7 0 -11.5t11 -4.5h258q8 0 11 4.5t0 11.5l-130 342q-3 9 -9 9t-9 -9z
" />
    <glyph glyph-name="B" unicode="B" horiz-adv-x="673" 
d="M127 0q-28 0 -28 28v674q0 28 28 28h221q117 0 184 -52t67 -141q0 -93 -84 -145q-24 -16 1 -28q104 -54 104 -170q0 -86 -67 -140t-183 -54h-243zM195 433q0 -18 18 -18h133q67 0 112 33.5t45 83.5q0 57 -41.5 85.5t-116.5 28.5h-132q-18 0 -18 -18v-195zM195 102
q0 -18 18 -18h151q77 0 118 33.5t41 86.5q0 37 -16.5 63t-44 39.5t-55.5 19t-59 5.5h-135q-18 0 -18 -18v-211z" />
    <glyph glyph-name="C" unicode="C" horiz-adv-x="828" 
d="M49 367q0 162 111 267.5t271 105.5q136 0 232 -81.5t116 -196.5q5 -26 -23 -26h-51q-22 0 -27 23q-18 83 -84.5 136.5t-162.5 53.5q-118 0 -200 -79t-82 -203q0 -126 82 -206t200 -80q89 0 155 42t92 115q8 21 28 21h51q13 0 19 -7.5t2 -20.5q-30 -105 -124.5 -173
t-222.5 -68q-160 0 -271 106.5t-111 270.5z" />
    <glyph glyph-name="D" unicode="D" horiz-adv-x="796" 
d="M127 0q-28 0 -28 28v674q0 28 28 28h243q162 0 269 -102.5t107 -262.5q0 -162 -107 -263.5t-269 -101.5h-243zM197 103q0 -18 18 -18h155q115 0 195.5 74.5t80.5 205.5q0 132 -80.5 206.5t-195.5 74.5h-155q-18 0 -18 -18v-525z" />
    <glyph glyph-name="E" unicode="E" horiz-adv-x="566" 
d="M127 0q-28 0 -28 28v674q0 28 28 28h355q25 0 25 -25v-35q0 -25 -25 -25h-268q-18 0 -18 -18v-203q0 -18 18 -18h248q25 0 25 -25v-36q0 -25 -25 -25h-248q-18 0 -18 -18v-198q0 -18 18 -18h273q25 0 25 -25v-36q0 -25 -25 -25h-360z" />
    <glyph glyph-name="F" unicode="F" horiz-adv-x="551" 
d="M124 0q-25 0 -25 25v677q0 28 28 28h357q25 0 25 -25v-36q0 -25 -25 -25h-269q-18 0 -18 -18v-208q0 -18 18 -18h264q25 0 25 -25v-36q0 -25 -25 -25h-264q-18 0 -18 -18v-271q0 -25 -25 -25h-48z" />
    <glyph glyph-name="G" unicode="G" horiz-adv-x="820" 
d="M49 368q0 161 112 266.5t271 105.5q126 0 217.5 -73.5t112.5 -186.5q5 -27 -23 -27h-42q-22 0 -27 23q-18 80 -81.5 128.5t-156.5 48.5q-118 0 -200.5 -80.5t-82.5 -207.5t82.5 -208t200.5 -81q95 0 157.5 42t83.5 116q5 20 -16 20h-185q-25 0 -25 25v35q0 25 25 25h263
q33 0 33 -29v-4q0 -139 -93 -227.5t-243 -88.5q-159 0 -271 107t-112 271z" />
    <glyph glyph-name="H" unicode="H" horiz-adv-x="832" 
d="M124 0q-25 0 -25 25v680q0 25 25 25h48q25 0 25 -25v-267q0 -28 28 -28h382q28 0 28 28v267q0 25 25 25h48q25 0 25 -25v-680q0 -25 -25 -25h-48q-25 0 -25 25v264q0 28 -28 28h-382q-28 0 -28 -28v-264q0 -25 -25 -25h-48z" />
    <glyph glyph-name="I" unicode="I" horiz-adv-x="297" 
d="M172 730q25 0 25 -25v-680q0 -25 -25 -25h-48q-25 0 -25 25v680q0 25 25 25h48z" />
    <glyph glyph-name="J" unicode="J" horiz-adv-x="683" 
d="M23 223q-3 27 24 27h44q22 0 27 -23q16 -69 67 -107.5t130 -38.5q82 0 131 54.5t49 137.5l1 339q0 28 -28 28h-240q-25 0 -25 25v40q0 25 25 25h330q35 0 35 -35v-422q0 -121 -76 -202t-202 -81q-120 0 -197 64.5t-95 168.5z" />
    <glyph glyph-name="K" unicode="K" horiz-adv-x="647" 
d="M172 730q25 0 25 -25v-680q0 -25 -25 -25h-48q-25 0 -25 25v680q0 25 25 25h48zM252 319q-13 14 -13 35v22q0 20 12 35l252 305q11 14 31 14h57q16 0 20 -9.5t-6 -21.5l-267 -319q-11 -12 0 -25l286 -324q10 -12 6 -21.5t-20 -9.5h-64q-20 0 -31 14z" />
    <glyph glyph-name="L" unicode="L" horiz-adv-x="576" 
d="M134 0q-35 0 -35 35v670q0 25 25 25h48q25 0 25 -25v-595q0 -18 18 -18h321q25 0 25 -25v-42q0 -25 -25 -25h-402z" />
    <glyph glyph-name="M" unicode="M" horiz-adv-x="895" 
d="M124 0q-25 0 -25 25v670q0 35 35 35h25q28 0 42 -23l236 -356q5 -8 12.5 -8t12.5 8l237 356q15 23 42 23h20q35 0 35 -35v-670q0 -25 -25 -25h-41q-25 0 -25 25v506q0 13 -7.5 15t-14.5 -9l-194 -292q-14 -21 -40 -21h-1q-25 0 -40 21l-196 289q-8 10 -15 8t-7 -15v-502
q0 -25 -25 -25h-41z" />
    <glyph glyph-name="N" unicode="N" horiz-adv-x="820" 
d="M124 0q-25 0 -25 25v672q0 33 33 33h10q24 0 40 -19l429 -540q7 -10 14.5 -7.5t7.5 15.5v526q0 25 25 25h37q25 0 25 -25v-672q0 -33 -33 -33h-21q-25 0 -41 19l-416 515q-7 10 -14.5 8t-7.5 -15v-502q0 -25 -25 -25h-38z" />
    <glyph glyph-name="O" unicode="O" horiz-adv-x="869" 
d="M49 367q0 163 111.5 268t273.5 105q163 0 274.5 -105t111.5 -268q0 -165 -111.5 -271t-274.5 -106q-162 0 -273.5 106t-111.5 271zM149 367q0 -128 82 -209.5t203 -81.5t203.5 81.5t82.5 209.5q0 126 -82.5 206.5t-203.5 80.5t-203 -80.5t-82 -206.5z" />
    <glyph glyph-name="P" unicode="P" horiz-adv-x="623" 
d="M124 0q-25 0 -25 25v677q0 28 28 28h160q132 0 218.5 -71t86.5 -186q0 -111 -87 -185.5t-218 -74.5h-72q-18 0 -18 -18v-170q0 -25 -25 -25h-48zM197 317q0 -18 18 -18h74q87 0 145 50t58 124q0 77 -57.5 124t-145.5 47h-74q-18 0 -18 -18v-309z" />
    <glyph glyph-name="Q" unicode="Q" horiz-adv-x="869" 
d="M721 109l57 -65q22 -23 -3 -43l-17 -14q-23 -20 -43 3l-58 65q-97 -65 -223 -65q-162 0 -273.5 106t-111.5 271q0 163 111.5 268t273.5 105q163 0 274.5 -105t111.5 -268q0 -154 -99 -258zM434 76q90 0 162 47l-105 118q-21 22 3 43l19 17q22 19 43 -3l103 -117
q61 77 61 186q0 126 -82.5 206.5t-203.5 80.5t-203 -80.5t-82 -206.5q0 -128 82 -209.5t203 -81.5z" />
    <glyph glyph-name="R" unicode="R" horiz-adv-x="624" 
d="M99 25v677q0 28 28 28h149q129 0 213 -67t84 -173q0 -91 -71.5 -156t-158.5 -70l-5 -1q-8 -2 -9.5 -8.5t6.5 -14.5l215 -210q12 -12 8.5 -21.5t-20.5 -9.5l-69 1q-18 0 -31 13l-219 222q-8 9 -15 6t-7 -15v-201q0 -25 -25 -25h-48q-25 0 -25 25zM197 359q0 -18 18 -18h61
q90 0 144 40.5t54 108.5q0 69 -54.5 111.5t-144.5 42.5h-60q-18 0 -18 -18v-267z" />
    <glyph glyph-name="S" unicode="S" horiz-adv-x="626" 
d="M41 183q-4 13 1.5 20.5t19.5 7.5h48q20 0 28 -20q24 -56 72 -85t111 -29q67 0 111 32t44 80q0 36 -22 61.5t-58 40.5t-79 28.5t-85.5 30t-78.5 39.5t-58 63.5t-22 95.5q0 85 67 138.5t173 53.5q95 0 160 -49.5t90 -133.5q4 -13 -2.5 -20.5t-19.5 -7.5h-46q-20 0 -28 20
q-44 104 -154 104q-63 0 -102.5 -29t-39.5 -76q0 -51 41.5 -82.5t101 -50t119 -40t101 -67.5t41.5 -117q0 -89 -74 -145t-180 -56q-102 0 -175.5 51t-104.5 142z" />
    <glyph glyph-name="T" unicode="T" horiz-adv-x="591" 
d="M40 638q-25 0 -25 25v42q0 25 25 25h511q25 0 25 -25v-42q0 -25 -25 -25h-182q-25 0 -25 -25v-588q0 -25 -25 -25h-52q-25 0 -25 25v588q0 25 -25 25h-177z" />
    <glyph glyph-name="U" unicode="U" horiz-adv-x="788" 
d="M88 307v398q0 25 25 25h50q25 0 25 -25v-404q0 -98 57 -159.5t149 -61.5q90 0 148 60.5t58 160.5v404q0 25 25 25h50q25 0 25 -25v-398q0 -139 -84.5 -228t-221.5 -89q-134 0 -220 87.5t-86 229.5z" />
    <glyph glyph-name="V" unicode="V" horiz-adv-x="703" 
d="M17 701q-11 29 19 29h60q21 0 29 -20l218 -573q5 -14 14.5 -14t14.5 14l212 573q8 20 28 20h49q14 0 19.5 -8t0.5 -21l-263 -674q-10 -27 -41 -27h-48q-29 0 -40 27z" />
    <glyph glyph-name="W" unicode="W" horiz-adv-x="987" 
d="M25 702q-8 28 21 28h52q22 0 28 -21l133 -516q4 -16 13.5 -16t13.5 15l158 516q7 22 31 22h45q25 0 31 -23l154 -519q3 -10 8.5 -14t11.5 0t8 15l132 519q6 22 27 22h45q29 0 21 -28l-184 -679q-6 -23 -30 -23h-47q-25 0 -31 23l-153 527q-5 15 -14 15t-14 -15l-161 -528
q-7 -22 -31 -22h-45q-24 0 -30 23z" />
    <glyph glyph-name="X" unicode="X" horiz-adv-x="674" 
d="M39 0q-16 0 -20 9t5 21l246 327q11 15 0 31l-224 312q-9 13 -4.5 21.5t19.5 8.5h57q18 0 30 -16l180 -249q16 -22 31 0l182 250q11 15 30 15h51q16 0 20 -8.5t-5 -21.5l-231 -312q-11 -16 0 -31l235 -327q9 -13 4.5 -21.5t-19.5 -8.5h-58q-18 0 -30 16l-188 261
q-16 22 -31 0l-195 -262q-12 -15 -30 -15h-55z" />
    <glyph glyph-name="Y" unicode="Y" horiz-adv-x="641" 
d="M22 700q-7 14 -2.5 22t19.5 8h59q20 0 30 -17l181 -325q6 -11 15 -11t15 11l181 325q10 17 30 17h45q14 0 19 -8t-2 -22l-234 -411q-7 -14 -7 -28v-232q0 -29 -29 -29h-40q-29 0 -29 29v232q0 15 -7 28z" />
    <glyph glyph-name="Z" unicode="Z" horiz-adv-x="658" 
d="M46 0q-24 0 -24 23v6q0 16 10 30l418 550q10 14 5 24t-22 10h-366q-25 0 -25 25v37q0 25 25 25h526q24 0 24 -23v-6q0 -16 -10 -30l-418 -551q-10 -14 -5 -24t22 -10h403q25 0 25 -25v-36q0 -25 -25 -25h-563z" />
    <glyph glyph-name="bracketleft" unicode="[" horiz-adv-x="332" 
d="M129 -106q-35 0 -35 35v816q0 35 35 35h137q35 0 35 -35v-15q0 -35 -35 -35h-64q-20 0 -20 -20v-676q0 -20 20 -20h64q35 0 35 -35v-15q0 -35 -35 -35h-137z" />
    <glyph glyph-name="backslash" unicode="\" horiz-adv-x="466" 
d="M422 19q5 -13 0 -21t-19 -8h-31q-22 0 -29 19l-300 695q-5 13 0 21t19 8h31q22 0 29 -19z" />
    <glyph glyph-name="bracketright" unicode="]" horiz-adv-x="332" 
d="M67 -106q-35 0 -35 35v15q0 35 35 35h63q20 0 20 20v676q0 20 -20 20h-63q-35 0 -35 35v15q0 35 35 35h136q35 0 35 -35v-816q0 -35 -35 -35h-136z" />
    <glyph glyph-name="asciicircum" unicode="^" horiz-adv-x="477" 
d="M69 626q-11 21 10 34l128 76q28 17 58 0l132 -76q22 -13 10 -34l-2 -4q-13 -21 -34 -11l-107 48q-28 13 -56 0l-103 -48q-21 -10 -34 11z" />
    <glyph glyph-name="underscore" unicode="_" horiz-adv-x="562" 
d="M480 0q35 0 35 -35v-6q0 -35 -35 -35h-399q-35 0 -35 35v6q0 35 35 35h399z" />
    <glyph glyph-name="grave" unicode="`" horiz-adv-x="600" 
d="M226 738q11 24 34 9l165 -100q21 -13 10 -34l-4 -7q-11 -22 -33 -12l-177 76q-23 10 -12 33z" />
    <glyph glyph-name="a" unicode="a" horiz-adv-x="579" 
d="M41 143q0 67 59.5 109.5t160.5 41.5l116 -1q35 0 35 32q0 59 -35.5 91t-97.5 32q-49 0 -82.5 -21.5t-43.5 -56.5q-6 -22 -27 -22h-39q-13 0 -19.5 7t-4.5 20q14 72 73 113.5t147 41.5q105 0 163 -59t58 -166v-280q0 -25 -25 -25h-12q-22 0 -28 21l-3 10q-11 38 -46 16
q-86 -57 -179 -57q-74 0 -122 43t-48 110zM135 145q0 -35 27 -53.5t70 -18.5q76 0 159 57q21 15 21 42v10q0 35 -35 35h-114q-128 0 -128 -72z" />
    <glyph glyph-name="b" unicode="b" horiz-adv-x="660" 
d="M81 25v730q0 25 25 25h41q25 0 25 -25v-246q0 -45 40 -18q58 39 144 39q108 0 183.5 -78t75.5 -190q0 -113 -75.5 -192.5t-184.5 -79.5q-100 0 -162 50q-34 28 -45 -12l-1 -6q-6 -22 -27 -22h-14q-25 0 -25 25zM175 202q0 -26 11 -43q54 -88 161 -88q70 0 121 56t51 135
q0 78 -51 132.5t-121 54.5q-109 0 -161 -87q-11 -17 -11 -43v-117z" />
    <glyph glyph-name="c" unicode="c" horiz-adv-x="600" 
d="M492 331q-20 0 -27 22q-14 40 -54 68t-94 28q-76 0 -126 -53t-50 -136q0 -84 51 -136.5t124 -52.5q53 0 92 24t53 65q7 21 28 21h43q29 0 23 -27q-18 -73 -84.5 -118.5t-152.5 -45.5q-119 0 -196 78t-77 195q0 114 76.5 190.5t193.5 76.5q93 0 158.5 -50t82.5 -122
q6 -27 -23 -27h-41z" />
    <glyph glyph-name="d" unicode="d" horiz-adv-x="659" 
d="M45 262q0 114 77 191t190 77q75 0 134 -34q18 -11 29 -6t11 26v239q0 25 25 25h41q25 0 25 -25v-730q0 -25 -25 -25h-10q-22 0 -28 21l-2 6q-11 41 -44 13q-62 -50 -154 -50q-116 0 -192.5 77t-76.5 195zM141 262q0 -80 52 -135.5t124 -55.5q101 0 155 83q11 17 11 43
v127q0 26 -11 43q-54 82 -155 82q-72 0 -124 -54t-52 -133z" />
    <glyph glyph-name="e" unicode="e" horiz-adv-x="595" 
d="M45 263q0 114 76 190.5t187 76.5q102 0 172.5 -76t69.5 -187q0 -14 -9.5 -23t-24.5 -9l-340 1q-18 0 -27 -10.5t-5 -27.5q17 -59 61 -93t104 -34q49 0 84.5 19.5t50.5 53.5q9 20 29 20h38q13 0 19.5 -8t2.5 -20q-22 -63 -82.5 -104.5t-141.5 -41.5q-113 0 -188.5 77.5
t-75.5 195.5zM157 354q-9 -17 -0.5 -28.5t28.5 -11.5l231 -1q19 0 28 11t2 29q-18 44 -54.5 70.5t-84.5 26.5t-88 -25.5t-62 -70.5z" />
    <glyph glyph-name="f" unicode="f" horiz-adv-x="395" 
d="M47 440q-25 0 -25 25v30q0 25 25 25h70q10 0 10 10v92q0 163 158 163q46 0 88 -13q21 -6 18 -29l-4 -31q-3 -26 -29 -18q-29 8 -58 8q-40 0 -59.5 -18.5t-19.5 -61.5v-92q0 -10 10 -10h126q25 0 25 -25v-30q0 -25 -25 -25h-126q-10 0 -10 -10v-410q0 -25 -25 -25h-44
q-25 0 -25 25v410q0 10 -10 10h-70z" />
    <glyph glyph-name="g" unicode="g" horiz-adv-x="658" 
d="M44 264q0 113 77 189.5t190 76.5q92 0 154 -50q35 -27 44 13l1 5q5 22 28 22h14q25 0 25 -25v-476q0 -103 -72 -167.5t-184 -64.5q-84 0 -145.5 36t-85.5 98q-5 12 1 20t20 8h38q18 0 29 -20q16 -29 54.5 -45.5t88.5 -16.5q73 0 121 42.5t48 109.5v3q0 19 -11 22t-28 -9
q-57 -39 -137 -39q-116 0 -193 76.5t-77 191.5zM140 264q0 -78 52 -133t125 -55q103 0 155 85q11 17 11 43v118q0 26 -11 43q-53 84 -155 84q-73 0 -125 -54t-52 -131z" />
    <glyph glyph-name="h" unicode="h" horiz-adv-x="647" 
d="M106 0q-25 0 -25 25v730q0 25 25 25h40q25 0 25 -25v-252q0 -21 11.5 -27.5t30.5 4.5q86 50 177 50q86 0 133.5 -51t47.5 -146v-308q0 -25 -25 -25h-44q-25 0 -25 25v304q0 57 -29 87.5t-80 30.5q-74 0 -170 -60q-23 -14 -23 -42v-320q0 -25 -25 -25h-44z" />
    <glyph glyph-name="i" unicode="i" horiz-adv-x="261" 
d="M134 622q-29 0 -48.5 20t-19.5 49q0 27 20 46.5t48 19.5t48 -19.5t20 -46.5q0 -29 -20 -49t-48 -20zM152 520q25 0 25 -25v-470q0 -25 -25 -25h-44q-25 0 -25 25v470q0 25 25 25h44z" />
    <glyph glyph-name="j" unicode="j" horiz-adv-x="267" 
d="M138 622q-29 0 -48.5 20t-19.5 49q0 27 20 46.5t48 19.5t48 -19.5t20 -46.5q0 -29 -20 -49t-48 -20zM51 -210q-31 0 -61 5q-22 4 -19 29l3 31q3 23 27 20q16 -2 25 -2q63 0 63 72v550q0 25 25 25h44q25 0 25 -25v-557q0 -67 -36.5 -107.5t-95.5 -40.5z" />
    <glyph glyph-name="k" unicode="k" horiz-adv-x="572" 
d="M106 0q-25 0 -25 25v730q0 25 25 25h44q25 0 25 -25v-452q0 -63 43 -17l210 221q12 13 31 13h51q17 0 21 -9.5t-7 -21.5l-157 -164q-22 -22 -3 -49l185 -245q9 -12 5 -21.5t-20 -9.5h-54q-18 0 -30 15l-146 190q-22 30 -49 3l-63 -61q-17 -17 -17 -44v-78q0 -25 -25 -25
h-44z" />
    <glyph glyph-name="l" unicode="l" horiz-adv-x="261" 
d="M152 780q25 0 25 -25v-730q0 -25 -25 -25h-44q-25 0 -25 25v730q0 25 25 25h44z" />
    <glyph glyph-name="m" unicode="m" horiz-adv-x="1042" 
d="M106 0q-25 0 -25 25v470q0 25 25 25h17q22 0 27 -22l2 -7q4 -19 17 -24t29 6q92 57 195 57q90 0 137 -58q21 -27 47 -9q101 67 211 67q84 0 131 -51t47 -146v-308q0 -25 -25 -25h-44q-25 0 -25 25v303q0 57 -29 88t-82 31q-73 0 -169 -60q-22 -14 -22 -34q1 -7 1 -20
v-308q0 -25 -25 -25h-44q-25 0 -25 25v303q0 57 -29 88t-82 31q-71 0 -168 -59q-23 -14 -23 -42v-321q0 -25 -25 -25h-44z" />
    <glyph glyph-name="n" unicode="n" horiz-adv-x="651" 
d="M106 0q-25 0 -25 25v470q0 25 25 25h18q23 0 28 -22l2 -8q9 -41 45 -18q95 58 196 58q86 0 133.5 -51t47.5 -146v-308q0 -25 -25 -25h-44q-25 0 -25 25v304q0 57 -29.5 87.5t-84.5 30.5q-72 0 -170 -60q-23 -14 -23 -42v-320q0 -25 -25 -25h-44z" />
    <glyph glyph-name="o" unicode="o" horiz-adv-x="641" 
d="M45 263q0 113 78 190t198 77q119 0 197 -77t78 -190q0 -115 -78 -194t-197 -79q-120 0 -198 79t-78 194zM139 260q0 -80 51.5 -134.5t130.5 -54.5t130 54.5t51 134.5t-51 134.5t-130 54.5t-130.5 -54.5t-51.5 -134.5z" />
    <glyph glyph-name="p" unicode="p" horiz-adv-x="658" 
d="M106 -220q-25 0 -25 25v690q0 25 25 25h18q22 0 27 -23v-2q8 -43 44 -15q65 50 159 50q108 0 184 -78t76 -190q0 -114 -76 -193t-186 -79q-84 0 -144 40q-18 13 -29 8.5t-11 -26.5v-207q0 -25 -25 -25h-37zM175 198q0 -26 11 -43q53 -84 157 -84q72 0 123.5 56t51.5 135
q0 78 -52 132.5t-123 54.5q-103 0 -157 -83q-11 -17 -11 -43v-125z" />
    <glyph glyph-name="q" unicode="q" horiz-adv-x="659" 
d="M45 262q0 115 77.5 191.5t193.5 76.5q88 0 150 -51q36 -29 45 13l1 6q5 22 27 22h13q25 0 25 -25v-680q0 -25 -25 -25h-36q-25 0 -25 25v197q0 22 -11 26.5t-29 -8.5q-55 -40 -132 -40q-119 0 -196.5 77t-77.5 195zM141 262q0 -80 53 -135.5t129 -55.5q95 0 149 83
q11 17 11 43v127q0 26 -11 43q-54 82 -149 82q-76 0 -129 -54t-53 -133z" />
    <glyph glyph-name="r" unicode="r" horiz-adv-x="413" 
d="M106 0q-25 0 -25 25v470q0 25 25 25h18q22 0 27 -22l1 -5q5 -19 17 -23.5t29 7.5q80 53 148 53q18 0 33 -3q22 -4 19 -29l-5 -42q-3 -25 -29 -20q-16 3 -37 3q-55 0 -131 -58q-21 -17 -21 -43v-313q0 -25 -25 -25h-44z" />
    <glyph glyph-name="s" unicode="s" horiz-adv-x="544" 
d="M62 385q0 64 55.5 104.5t157.5 40.5q91 0 145 -41.5t67 -109.5q2 -12 -4.5 -19t-19.5 -7h-37q-21 0 -27 22q-20 80 -126 80q-58 0 -88.5 -19.5t-30.5 -49.5q0 -35 35.5 -54.5t86 -28.5t101.5 -21.5t86.5 -47t35.5 -92.5q0 -72 -61 -112t-158 -40q-91 0 -156.5 40
t-83.5 114q-5 27 23 27h39q21 0 28 -21q32 -85 152 -85q58 0 92 20t33 57q0 30 -26 48.5t-64 25.5t-83 17.5t-83 24t-63.5 46t-25.5 81.5z" />
    <glyph glyph-name="t" unicode="t" horiz-adv-x="418" 
d="M51 440q-25 0 -25 25v30q0 25 25 25h45q10 0 10 10v92q0 22 21 28l42 11q13 4 20.5 -2.5t7.5 -19.5v-109q0 -10 10 -10h163q25 0 25 -25v-30q0 -25 -25 -25h-163q-10 0 -10 -10v-276q0 -81 72 -81q46 0 94 15q27 9 30 -18l3 -30q3 -22 -18 -30q-62 -20 -125 -20
q-68 0 -109 39t-41 123v278q0 10 -10 10h-42z" />
    <glyph glyph-name="u" unicode="u" horiz-adv-x="631" 
d="M76 187v308q0 25 25 25h44q25 0 25 -25v-304q0 -58 28 -88t81 -30q64 0 153 52q24 13 24 41v329q0 25 25 25h44q25 0 25 -25v-470q0 -25 -25 -25h-17q-21 0 -27 22l-1 2q-9 39 -45 18q-93 -52 -183 -52q-83 0 -129.5 51t-46.5 146z" />
    <glyph glyph-name="v" unicode="v" horiz-adv-x="567" 
d="M25 491q-5 13 0.5 21t19.5 8h57q20 0 28 -20l143 -388q5 -11 13 -11t13 11l146 388q8 20 28 20h49q14 0 19.5 -8t0.5 -21l-198 -468q-9 -23 -35 -23h-51q-26 0 -35 23z" />
    <glyph glyph-name="w" unicode="w" horiz-adv-x="807" 
d="M27 492q-8 28 21 28h42q22 0 28 -21l94 -354q2 -9 7.5 -12.5t10.5 -0.5t8 12l115 353q7 25 34 25h35q26 0 34 -25l114 -358q3 -9 8 -12t10.5 0.5t7.5 12.5l95 359q6 21 28 21h41q28 0 20 -28l-140 -467q-7 -25 -34 -25h-48q-26 0 -34 25l-106 339q-3 9 -8 12.5t-10 0
t-8 -12.5l-113 -339q-8 -25 -34 -25h-44q-27 0 -34 25z" />
    <glyph glyph-name="x" unicode="x" horiz-adv-x="542" 
d="M50 0q-16 0 -20 9t5 21l169 225q11 14 0 28l-161 206q-10 12 -5.5 21.5t20.5 9.5h52q19 0 30 -15l120 -166q6 -9 14 -9t14 9l117 165q12 16 30 16h44q16 0 20.5 -8.5t-4.5 -21.5l-157 -213q-10 -13 1 -28l171 -218q10 -12 5.5 -21.5t-20.5 -9.5h-54q-18 0 -30 15
l-128 173q-14 19 -28 0l-127 -173q-12 -15 -30 -15h-48z" />
    <glyph glyph-name="y" unicode="y" horiz-adv-x="559" 
d="M26 491q-11 29 19 29h55q20 0 28 -20l144 -385q3 -8 8 -11.5t10 -0.5t8 12l140 385q8 20 28 20h48q30 0 19 -29l-220 -546q-33 -81 -76.5 -119.5t-118.5 -38.5q-36 0 -70 9q-23 6 -19 30l4 23q5 25 29 20q30 -8 61 -8q42 0 68 25.5t47 77.5l15 36h-11q-17 0 -23 16z" />
    <glyph glyph-name="z" unicode="z" horiz-adv-x="525" 
d="M29 28q0 16 11 30l304 359q8 10 5 17.5t-16 7.5h-268q-25 0 -25 25v28q0 25 25 25h390q24 0 24 -24v-24q0 -16 -11 -30l-283 -339q-8 -11 -4.5 -18t16.5 -7h272q25 0 25 -25v-28q0 -25 -25 -25h-415q-24 0 -25 24v4z" />
    <glyph glyph-name="braceleft" unicode="{" horiz-adv-x="314" 
d="M195 431q0 -42 -15.5 -66t-38.5 -29q54 -12 54 -90l1 -172q0 -79 49 -92q32 -9 32 -37v-15q0 -18 -9.5 -27t-26.5 -7q-138 15 -139 155l-1 185q0 44 -30 54q-32 11 -32 37v19q0 26 32 37q30 10 30 58l1 188q1 137 139 149q36 3 36 -35v-14q0 -28 -34 -36q-27 -6 -37 -26
t-10 -61z" />
    <glyph glyph-name="bar" unicode="|" horiz-adv-x="265" 
d="M119 0q-25 0 -25 25v680q0 25 25 25l27 -1q25 0 25 -25v-680q0 -25 -25 -25z" />
    <glyph glyph-name="braceright" unicode="}" horiz-adv-x="314" 
d="M117 607q0 41 -9.5 61t-36.5 26q-34 8 -34 36v13q0 38 36 35q138 -12 139 -149l1 -186q0 -48 30 -58q32 -11 32 -37v-23q0 -26 -32 -37q-30 -10 -30 -54l-1 -183q-1 -140 -139 -155q-17 -2 -26.5 7t-9.5 27v15q0 28 32 37q48 13 48 92l1 168q0 41 17 65t41 29
q-24 5 -41 31t-17 68z" />
    <glyph glyph-name="asciitilde" unicode="~" horiz-adv-x="549" 
d="M459 324q24 -7 18 -30q-9 -37 -39 -59.5t-74 -21.5q-39 1 -89 22.5t-72 21.5q-41 0 -58 -27q-14 -20 -31 -15l-22 6q-24 7 -21 28q6 40 34 64t70 23q37 -1 92 -24t79 -23q42 0 60 26q14 20 32 15z" />
    <glyph glyph-name="uni00A0" unicode="&#xa0;" horiz-adv-x="260" 
 />
    <glyph glyph-name="exclamdown" unicode="&#xa1;" horiz-adv-x="258" 
d="M192 511q0 -25 -18.5 -43t-44.5 -18t-44.5 18t-18.5 43q0 27 18.5 46t44.5 19t44.5 -19t18.5 -46zM151 -214h-44q-24 0 -24 25l11 540q0 25 26 25h18q26 0 26 -25l11 -540q0 -25 -24 -25z" />
    <glyph glyph-name="cent" unicode="&#xa2;" horiz-adv-x="606" 
d="M47 303q0 101 62 174t161 89q14 3 14 16v86q0 25 25 25h15q25 0 25 -25v-85q0 -14 14 -16q81 -11 133 -58t65 -111q6 -27 -23 -27h-44q-20 0 -27 22q-11 31 -37.5 55t-63.5 33q-17 3 -17 -14v-334q0 -17 16 -14q77 18 98 80q9 22 28 22h46q29 0 23 -27
q-15 -64 -68.5 -107t-128.5 -54q-14 -2 -14 -16v-62q0 -25 -25 -25h-15q-25 0 -25 25v63q0 14 -14 16q-100 17 -161.5 91.5t-61.5 177.5zM146 300q0 -68 33.5 -115t87.5 -64q17 -5 17 14v330q0 8 -4 12t-11 2q-56 -16 -89.5 -64t-33.5 -115z" />
    <glyph glyph-name="sterling" unicode="&#xa3;" horiz-adv-x="666" 
d="M44 259v11q0 25 25 25h74q-1 3 -8.5 27.5t-10 34.5t-5.5 31t-3 40q0 100 67.5 161t177.5 61q96 0 160 -49.5t83 -130.5q6 -27 -23 -27h-48q-21 0 -28 21q-18 45 -56.5 72.5t-88.5 27.5q-66 0 -106 -38.5t-40 -100.5q0 -18 2.5 -37.5t5 -31.5t7 -32.5t6.5 -28.5h226
q25 0 25 -25v-11q0 -25 -25 -25h-218q0 -54 -44 -116q-10 -13 6 -15q3 0 8 -0.5t8 -0.5q30 -3 100 -20.5t119 -17.5q89 0 104 48q8 22 27 22h20q25 0 26 -23q4 -56 -38.5 -95t-128.5 -39q-53 0 -129.5 20t-129.5 19q-36 -1 -69 -14q-29 -11 -42 15l-9 18q-12 24 6 45
q76 89 76 154h-84q-25 0 -25 25z" />
    <glyph glyph-name="currency" unicode="&#xa4;" horiz-adv-x="648" 
d="M72 309q0 93 57 158l-47 40q-18 15 -3 35l9 11q16 20 35 4l57 -48q66 41 147 41q76 0 141 -37l52 43q18 15 35 -3l10 -11q17 -18 -2 -35l-42 -36q61 -64 61 -162q0 -100 -63 -168l44 -37q19 -16 3 -35l-9 -10q-16 -19 -35 -3l-53 44q-66 -39 -142 -39q-83 0 -147 43
l-57 -48q-19 -16 -35 3l-9 10q-15 18 3 35l48 42q-58 66 -58 163zM168 307q0 -72 45.5 -119t113.5 -47t113.5 47t45.5 119q0 71 -45 117t-114 46t-114 -46t-45 -117z" />
    <glyph glyph-name="yen" unicode="&#xa5;" horiz-adv-x="635" 
d="M60 605q-8 13 -3.5 21.5t19.5 8.5h53q20 0 30 -17l157 -281q8 -15 16 0l154 280q9 18 30 18h45q15 0 19.5 -8.5t-2.5 -21.5l-163 -276q-8 -14 9 -14h95q25 0 25 -25v-3q0 -25 -25 -25h-119q-28 0 -28 -28v-18q0 -18 18 -18h104q25 0 25 -25v-4q0 -25 -25 -25h-104
q-18 0 -18 -18v-101q0 -25 -25 -25h-46q-25 0 -25 25v101q0 18 -18 18h-122q-25 0 -25 25v4q0 25 25 25h122q18 0 18 18v18q0 28 -28 28h-137q-25 0 -25 25v3q0 25 25 25h111q16 0 8 14z" />
    <glyph glyph-name="brokenbar" unicode="&#xa6;" horiz-adv-x="265" 
d="M119 429q-25 0 -25 25v251q0 25 25 25h27q25 0 25 -25v-251q0 -25 -25 -25h-27zM146 301q25 0 25 -25v-251q0 -25 -25 -25h-27q-25 0 -25 25v251q0 25 25 25h27z" />
    <glyph glyph-name="section" unicode="&#xa7;" horiz-adv-x="637" 
d="M77 541q0 87 64.5 143t179.5 56q95 0 160 -49.5t90 -133.5q4 -13 -2.5 -20.5t-19.5 -7.5h-46q-20 0 -28 20q-44 104 -154 104q-68 0 -107.5 -31t-39.5 -80q0 -42 27 -68t68.5 -35.5t90.5 -22.5t92 -27.5t75 -51.5t38 -94q1 -13 -6 -19.5t-20 -4.5l-47 8q-20 3 -22 17
q-5 32 -36.5 52t-75 28t-93 22t-91.5 32t-69.5 59.5t-27.5 103.5zM49 -3q-8 28 21 28h49q21 0 28 -20q48 -113 179 -113q69 0 112 30t43 79q0 43 -28.5 68.5t-72 33t-95 18.5t-96.5 24.5t-78.5 53t-39.5 102.5q-1 13 6.5 19.5t20.5 4.5l48 -9q18 -4 23 -25q8 -33 42.5 -53
t80 -27t97 -19.5t94 -29t71 -57.5t28.5 -103q0 -88 -71.5 -143t-184.5 -55q-105 0 -175.5 50.5t-101.5 142.5z" />
    <glyph glyph-name="dieresis" unicode="&#xa8;" horiz-adv-x="600" 
d="M124 619q-24 0 -41 17.5t-17 42.5q0 23 17 40t41 17t41.5 -17t17.5 -40q0 -25 -17.5 -42.5t-41.5 -17.5zM314 619q-24 0 -41.5 17.5t-17.5 42.5q0 23 17.5 40t41.5 17t41.5 -17t17.5 -40q0 -25 -17.5 -42.5t-41.5 -17.5z" />
    <glyph glyph-name="copyright" unicode="&#xa9;" horiz-adv-x="904" 
d="M452 -62q-167 0 -286 119t-119 286t119 285.5t286 118.5q166 0 285 -118.5t119 -285.5t-118.5 -286t-285.5 -119zM452 12q136 0 232.5 97t96.5 234t-96.5 233.5t-232.5 96.5t-232.5 -97t-96.5 -233q0 -137 96.5 -234t232.5 -97zM603 404q-19 0 -27 21q-13 31 -44 51
t-74 20q-61 0 -99.5 -42t-38.5 -109q0 -69 39 -112t98 -43q90 0 119 69q8 21 28 21h35q13 0 19.5 -7.5t2.5 -19.5q-17 -58 -73 -95t-129 -37q-98 0 -162 65t-64 161q0 94 63.5 158t160.5 64q79 0 133 -40.5t69 -97.5q4 -12 -2.5 -19.5t-19.5 -7.5h-34z" />
    <glyph glyph-name="ordfeminine" unicode="&#xaa;" horiz-adv-x="461" 
d="M45 574q0 74 47 120t116 46q66 0 110 -39q11 -10 15 5l1 7q4 22 27 22h2q25 0 25 -25v-275q0 -25 -23 -25h-2q-22 0 -27 22l-2 7q-3 13 -14 4q-44 -39 -110 -39q-70 0 -117.5 48t-47.5 122zM123 574q0 -45 27.5 -74t67.5 -29q58 0 90 50q8 13 8 34v31q0 21 -7 34
q-28 51 -91 51q-41 0 -68 -26t-27 -71z" />
    <glyph glyph-name="guillemotleft" unicode="&#xab;" horiz-adv-x="529" 
d="M138 293q-22 -18 0 -36l89 -69q21 -17 21 -42v-20q0 -22 -13 -28t-30 8l-139 112q-20 17 -20 42v27q0 26 20 43l139 113q17 14 30 8t13 -28v-18q0 -25 -21 -42zM350 293q-22 -18 0 -36l89 -69q21 -17 21 -42v-20q0 -22 -13 -28t-30 8l-139 112q-20 17 -20 42v27
q0 26 20 43l139 113q17 14 30 8t13 -28v-18q0 -25 -21 -42z" />
    <glyph glyph-name="registered" unicode="&#xae;" horiz-adv-x="904" 
d="M47 343q0 167 119 285.5t286 118.5q166 0 285 -118.5t119 -285.5t-118.5 -286t-285.5 -119t-286 119t-119 286zM123 343q0 -137 96.5 -234t232.5 -97t232.5 97t96.5 234t-96.5 233.5t-232.5 96.5t-232.5 -97t-96.5 -233zM342 130q-25 0 -25 25v408q0 27 27 27h89
q86 0 141 -42t55 -109q0 -49 -31.5 -84.5t-85.5 -50.5q-22 -6 -8 -24l106 -120q11 -12 7 -21.5t-20 -9.5l-41 1q-19 0 -30 14l-128 149h-4v-138q0 -25 -25 -25h-27zM394 377q0 -20 20 -20h17q55 0 88 21t33 61q0 41 -33.5 63.5t-88.5 22.5h-16q-20 0 -20 -20v-128z" />
    <glyph glyph-name="macron" unicode="&#xaf;" horiz-adv-x="600" 
d="M167 674q0 25 25 25h242q25 0 25 -25v-27q0 -25 -25 -25h-242q-25 0 -25 25v27z" />
    <glyph glyph-name="degree" unicode="&#xb0;" horiz-adv-x="423" 
d="M212 406q-70 0 -119 49t-49 119q0 69 49 117.5t119 48.5q68 0 117 -49t49 -117q0 -70 -49 -119t-117 -49zM212 464q45 0 76.5 32t31.5 78q0 45 -31.5 77t-76.5 32t-77 -32t-32 -77q0 -46 31.5 -78t77.5 -32z" />
    <glyph glyph-name="plusminus" unicode="&#xb1;" horiz-adv-x="524" 
d="M63 335v28q0 25 25 25h113q22 0 22 22v112q0 25 25 25h29q25 0 25 -25v-112q0 -22 22 -22h112q25 0 25 -25v-28q0 -25 -25 -25h-112q-22 0 -22 -22v-112q0 -25 -25 -25h-28q-25 0 -25 25v112q0 22 -22 22h-114q-25 0 -25 25zM436 76q25 0 25 -25v-28q0 -25 -25 -25h-348
q-25 0 -25 25v28q0 25 25 25h348z" />
    <glyph glyph-name="acute" unicode="&#xb4;" horiz-adv-x="600" 
d="M379 740q22 14 34 -10l17 -34q11 -23 -12 -33l-173 -72q-22 -10 -34 11l-3 6q-12 21 9 34z" />
    <glyph glyph-name="paragraph" unicode="&#xb6;" horiz-adv-x="772" 
d="M36 498q0 104 72.5 168t205.5 64h394q25 0 25 -25v-30q0 -25 -25 -25h-40q-27 0 -27 -27v-603q0 -25 -25 -25h-35q-25 0 -25 25v603q0 27 -27 27h-48q-27 0 -27 -27v-603q0 -25 -25 -25h-30q-25 0 -25 25v208q0 27 -27 27h-33q-133 0 -205.5 67t-72.5 176z" />
    <glyph glyph-name="periodcentered" unicode="&#xb7;" horiz-adv-x="250" 
d="M125 255q-26 0 -44.5 19t-18.5 46q0 25 18.5 43t44.5 18t44.5 -18t18.5 -43q0 -27 -18.5 -46t-44.5 -19z" />
    <glyph glyph-name="cedilla" unicode="&#xb8;" horiz-adv-x="600" 
d="M261 -89q-14 0 -21.5 8.5t-3.5 22.5l17 61h64l-7 -26q-4 -16 15 -20q32 -8 51 -29t19 -53q0 -44 -34 -69.5t-86 -25.5q-47 0 -83 21q-17 10 -7 31l1 6q9 18 31 9q25 -10 51 -10q50 0 50 36q0 38 -49 38h-8z" />
    <glyph glyph-name="ordmasculine" unicode="&#xba;" horiz-adv-x="447" 
d="M223 740q80 0 130 -46.5t50 -120.5q0 -76 -50 -123.5t-130 -47.5q-79 0 -128.5 47.5t-49.5 123.5q0 74 49.5 120.5t128.5 46.5zM223 471q45 0 71.5 28t26.5 72q0 43 -26.5 70.5t-71.5 27.5q-44 0 -70.5 -27.5t-26.5 -70.5q0 -44 26.5 -72t70.5 -28z" />
    <glyph glyph-name="guillemotright" unicode="&#xbb;" horiz-adv-x="538" 
d="M178 293l-89 70q-21 17 -21 42v18q0 22 13 28t30 -8l139 -113q20 -17 20 -43v-27q0 -25 -20 -42l-139 -112q-17 -14 -30 -8t-13 28v20q0 25 21 42l89 69q22 18 0 36zM400 293l-89 70q-21 17 -21 42v18q0 22 13 28t30 -8l139 -113q20 -17 20 -43v-27q0 -25 -20 -42
l-139 -112q-17 -14 -30 -8t-13 28v20q0 25 21 42l89 69q22 18 0 36z" />
    <glyph glyph-name="onequarter" unicode="&#xbc;" horiz-adv-x="882" 
d="M80 377q-25 0 -25 25v17q0 25 25 25h55q13 0 13 13v149q0 16 -14 9q-22 -12 -51 -19q-12 -2 -19 4.5t-7 19.5v19q0 21 23 27q43 11 93 52q14 12 27 12h5q23 0 23 -25v-248q0 -13 13 -13h59q25 0 25 -25v-17q0 -25 -25 -25h-220zM181 101q-20 17 -3 36l447 481q17 18 35 3
l24 -19q20 -16 3 -35l-446 -484q-18 -18 -36 -2zM536 75q-25 0 -25 22v4q0 18 11 32q87 104 96 204q3 24 26 24h34q27 0 24 -26q-8 -86 -77 -179q-10 -15 7 -15h56q12 0 12 12v54q0 25 25 25h26q25 0 25 -25v-54q0 -12 12 -12h38q25 0 25 -25v-16q0 -25 -25 -25h-38
q-12 0 -12 -12v-38q0 -25 -25 -25h-26q-25 0 -25 25v38q0 12 -12 12h-152z" />
    <glyph glyph-name="onehalf" unicode="&#xbd;" horiz-adv-x="847" 
d="M49 402v17q0 25 25 25h52q20 0 20 20v143q0 13 -13 7q-28 -16 -56 -21q-12 -3 -19 3.5t-7 19.5v23q0 21 22 27q44 11 94 52q13 12 32 12h2q25 0 25 -25v-241q0 -20 20 -20h47q25 0 25 -25v-17q0 -25 -25 -25h-219q-25 0 -25 25zM176 136l447 481q16 18 35 2l24 -21
q19 -17 2 -36l-447 -483q-18 -19 -35 -2l-25 24q-17 17 -1 35zM526 23q0 12 13 25l120 112q55 51 64 66q7 13 7 26q0 48 -65 48q-49 0 -65 -42q-7 -22 -27 -22h-22q-13 0 -19.5 7.5t-2.5 19.5q12 46 47.5 73.5t88.5 27.5q62 0 98.5 -29.5t36.5 -73.5q0 -37 -19 -63.5
t-70 -71.5l-47 -42q-7 -6 -5 -11t11 -5h116q25 0 25 -25v-18q0 -25 -25 -25h-235q-25 0 -25 18v5z" />
    <glyph glyph-name="threequarters" unicode="&#xbe;" horiz-adv-x="870" 
d="M49 450q-4 12 2.5 19.5t19.5 7.5h20q17 0 28 -21q17 -39 79 -39q36 0 58 14t21 41q-2 47 -80 47h-29q-25 0 -25 25v9q0 25 25 25h29q61 0 63 52q1 23 -16 36t-47 13q-50 0 -67 -39q-9 -21 -28 -21h-18q-13 0 -20 7.5t-3 19.5q12 43 48 68.5t88 25.5q65 0 100.5 -30.5
t35.5 -74.5q0 -46 -37 -73q-10 -8 2 -14q51 -23 51 -84q0 -48 -42 -78t-109 -30q-61 0 -99 25.5t-50 68.5zM185 108q-17 17 -1 35l447 481q16 18 35 2l26 -23q19 -17 2 -36l-447 -483q-18 -19 -35 -2zM520 75q-25 0 -25 22v4q0 18 11 32q90 106 99 204q3 24 26 24h32
q27 0 24 -26q-9 -87 -80 -183q-5 -6 -2.5 -10.5t9.5 -4.5h62q12 0 12 12v58q0 25 25 25h26q25 0 25 -25v-58q0 -12 12 -12h37q25 0 25 -25v-12q0 -25 -25 -25h-37q-12 0 -12 -12v-38q0 -25 -25 -25h-26q-25 0 -25 25v38q0 12 -12 12h-156z" />
    <glyph glyph-name="questiondown" unicode="&#xbf;" horiz-adv-x="562" 
d="M366 468q0 -25 -18.5 -43t-44.5 -18t-44.5 18t-18.5 43q0 27 18.5 46t44.5 19t44.5 -19t18.5 -46zM506 -6q13 0 19.5 -7.5t2.5 -20.5q-24 -83 -87.5 -133t-157.5 -50q-107 0 -173 59.5t-66 163.5q0 85 53 144t137 84q29 9 30 37l3 47q2 24 26 24h21q24 0 26 -24l6 -97
q3 -41 -40 -50q-79 -17 -122 -59.5t-43 -105.5q0 -62 39.5 -99t102.5 -37q110 0 154 104q8 20 28 20h41z" />
    <glyph glyph-name="Agrave" unicode="&#xc0;" horiz-adv-x="713" 
d="M229 901q6 25 32 15l181 -64q23 -9 17 -32l-2 -7q-6 -24 -30 -19l-189 39q-24 6 -18 30zM39 0q-12 0 -18 8.5t-1 20.5l271 682q8 19 27 19h76q19 0 27 -19l271 -682q11 -29 -19 -29h-52q-21 0 -29 20l-51 136q-5 11 -16 11h-340q-11 0 -16 -11l-52 -136q-7 -20 -29 -20
h-49zM215 276q-3 -7 0 -11.5t11 -4.5h258q8 0 11 4.5t0 11.5l-130 342q-3 9 -9 9t-9 -9z" />
    <glyph glyph-name="Aacute" unicode="&#xc1;" horiz-adv-x="713" 
d="M442 915q24 8 31 -18l8 -37q6 -25 -19 -29l-184 -31q-23 -5 -31 18l-2 7q-6 22 17 31zM39 0q-12 0 -18 8.5t-1 20.5l271 682q8 19 27 19h76q19 0 27 -19l271 -682q11 -29 -19 -29h-52q-21 0 -29 20l-51 136q-5 11 -16 11h-340q-11 0 -16 -11l-52 -136q-7 -20 -29 -20h-49
zM215 276q-3 -7 0 -11.5t11 -4.5h258q8 0 11 4.5t0 11.5l-130 342q-3 9 -9 9t-9 -9z" />
    <glyph glyph-name="Acircumflex" unicode="&#xc2;" horiz-adv-x="713" 
d="M194 826q-8 18 7 27l134 70q22 12 44 0l137 -70q16 -10 8 -27l-8 -18q-7 -16 -25 -10l-113 38q-21 7 -42 0l-109 -37q-18 -7 -25 9zM39 0q-12 0 -18 8.5t-1 20.5l271 682q8 19 27 19h76q19 0 27 -19l271 -682q11 -29 -19 -29h-52q-21 0 -29 20l-51 136q-5 11 -16 11h-340
q-11 0 -16 -11l-52 -136q-7 -20 -29 -20h-49zM215 276q-3 -7 0 -11.5t11 -4.5h258q8 0 11 4.5t0 11.5l-130 342q-3 9 -9 9t-9 -9z" />
    <glyph glyph-name="Atilde" unicode="&#xc3;" horiz-adv-x="713" 
d="M506 890q26 -5 20 -29q-9 -34 -34 -52t-60 -18q-33 1 -74 22t-57 21q-26 0 -39 -16q-13 -19 -32 -15l-15 3q-26 5 -20 30q17 70 89 70q29 -1 75 -22.5t63 -21.5q26 0 38 15q14 20 31 16zM39 0q-12 0 -18 8.5t-1 20.5l271 682q8 19 27 19h76q19 0 27 -19l271 -682
q11 -29 -19 -29h-52q-21 0 -29 20l-51 136q-5 11 -16 11h-340q-11 0 -16 -11l-52 -136q-7 -20 -29 -20h-49zM215 276q-3 -7 0 -11.5t11 -4.5h258q8 0 11 4.5t0 11.5l-130 342q-3 9 -9 9t-9 -9z" />
    <glyph glyph-name="Adieresis" unicode="&#xc4;" horiz-adv-x="713" 
d="M253 785q-25 0 -43 18.5t-18 44.5q0 25 18 42.5t43 17.5q26 0 44 -17.5t18 -42.5q0 -26 -18 -44.5t-44 -18.5zM453 785q-26 0 -44 18.5t-18 44.5q0 25 18 42.5t44 17.5q25 0 43.5 -17.5t18.5 -42.5q0 -26 -18.5 -44.5t-43.5 -18.5zM39 0q-12 0 -18 8.5t-1 20.5l271 682
q8 19 27 19h76q19 0 27 -19l271 -682q11 -29 -19 -29h-52q-21 0 -29 20l-51 136q-5 11 -16 11h-340q-11 0 -16 -11l-52 -136q-7 -20 -29 -20h-49zM215 276q-3 -7 0 -11.5t11 -4.5h258q8 0 11 4.5t0 11.5l-130 342q-3 9 -9 9t-9 -9z" />
    <glyph glyph-name="Aring" unicode="&#xc5;" horiz-adv-x="713" 
d="M357 766q-51 0 -82.5 30.5t-31.5 74.5q0 43 32 73.5t82 30.5q52 0 84 -30.5t32 -73.5q0 -45 -32 -75t-84 -30zM357 826q21 0 34.5 13t13.5 32t-13.5 32.5t-34.5 13.5q-20 0 -33 -13.5t-13 -32.5t13 -32t33 -13zM39 0q-12 0 -18 8.5t-1 20.5l271 682q8 19 27 19h76
q19 0 27 -19l271 -682q11 -29 -19 -29h-52q-21 0 -29 20l-51 136q-5 11 -16 11h-340q-11 0 -16 -11l-52 -136q-7 -20 -29 -20h-49zM215 276q-3 -7 0 -11.5t11 -4.5h258q8 0 11 4.5t0 11.5l-130 342q-3 9 -9 9t-9 -9z" />
    <glyph glyph-name="AE" unicode="&#xc6;" horiz-adv-x="959" 
d="M13 0q-15 0 -20 8.5t3 21.5l420 684q9 16 29 16h410q25 0 25 -25v-35q0 -25 -25 -25h-257q-18 0 -18 -18v-201q0 -18 18 -18h280q25 0 25 -25v-35q0 -25 -25 -25h-280q-18 0 -18 -18v-201q0 -18 18 -18h272q25 0 25 -25v-36q0 -25 -25 -25h-363q-24 0 -24 24v128
q0 18 -18 18h-267q-14 0 -21 -12l-86 -141q-11 -17 -30 -17h-48zM254 285q-5 -9 -1.5 -15.5t13.5 -6.5h199q18 0 18 18v338q0 13 -7.5 15.5t-14.5 -9.5z" />
    <glyph glyph-name="Ccedilla" unicode="&#xc7;" horiz-adv-x="828" 
d="M757 259q13 0 19 -7.5t2 -20.5q-29 -101 -118.5 -168.5t-210.5 -72.5l-4 -13q-4 -16 15 -20q32 -8 51 -29t19 -53q0 -44 -34 -69.5t-86 -25.5q-47 0 -83 21q-17 10 -7 31l1 6q9 18 31 9q25 -10 51 -10q50 0 50 36q0 38 -49 38h-8q-14 0 -21.5 8.5t-3.5 22.5l14 51
q-144 15 -240 118.5t-96 255.5q0 162 111 267.5t271 105.5q136 0 232 -81.5t116 -196.5q5 -26 -23 -26h-51q-22 0 -27 23q-18 83 -84.5 136.5t-162.5 53.5q-118 0 -200 -79t-82 -203q0 -126 82 -206t200 -80q89 0 155 42t92 115q8 21 28 21h51z" />
    <glyph glyph-name="Egrave" unicode="&#xc8;" horiz-adv-x="566" 
d="M177 901q6 25 32 15l181 -64q23 -9 17 -32l-2 -7q-6 -24 -30 -19l-189 39q-24 6 -18 30zM127 0q-28 0 -28 28v674q0 28 28 28h355q25 0 25 -25v-35q0 -25 -25 -25h-268q-18 0 -18 -18v-203q0 -18 18 -18h248q25 0 25 -25v-36q0 -25 -25 -25h-248q-18 0 -18 -18v-198
q0 -18 18 -18h273q25 0 25 -25v-36q0 -25 -25 -25h-360z" />
    <glyph glyph-name="Eacute" unicode="&#xc9;" horiz-adv-x="566" 
d="M390 915q24 8 31 -18l8 -37q6 -25 -19 -29l-184 -31q-23 -5 -31 18l-2 7q-6 22 17 31zM127 0q-28 0 -28 28v674q0 28 28 28h355q25 0 25 -25v-35q0 -25 -25 -25h-268q-18 0 -18 -18v-203q0 -18 18 -18h248q25 0 25 -25v-36q0 -25 -25 -25h-248q-18 0 -18 -18v-198
q0 -18 18 -18h273q25 0 25 -25v-36q0 -25 -25 -25h-360z" />
    <glyph glyph-name="Ecircumflex" unicode="&#xca;" horiz-adv-x="566" 
d="M142 826q-8 18 7 27l134 70q22 12 44 0l137 -70q16 -10 8 -27l-8 -18q-7 -16 -25 -10l-113 38q-21 7 -42 0l-109 -37q-18 -7 -25 9zM127 0q-28 0 -28 28v674q0 28 28 28h355q25 0 25 -25v-35q0 -25 -25 -25h-268q-18 0 -18 -18v-203q0 -18 18 -18h248q25 0 25 -25v-36
q0 -25 -25 -25h-248q-18 0 -18 -18v-198q0 -18 18 -18h273q25 0 25 -25v-36q0 -25 -25 -25h-360z" />
    <glyph glyph-name="Edieresis" unicode="&#xcb;" horiz-adv-x="566" 
d="M201 785q-25 0 -43 18.5t-18 44.5q0 25 18 42.5t43 17.5q26 0 44 -17.5t18 -42.5q0 -26 -18 -44.5t-44 -18.5zM401 785q-26 0 -44 18.5t-18 44.5q0 25 18 42.5t44 17.5q25 0 43.5 -17.5t18.5 -42.5q0 -26 -18.5 -44.5t-43.5 -18.5zM127 0q-28 0 -28 28v674q0 28 28 28
h355q25 0 25 -25v-35q0 -25 -25 -25h-268q-18 0 -18 -18v-203q0 -18 18 -18h248q25 0 25 -25v-36q0 -25 -25 -25h-248q-18 0 -18 -18v-198q0 -18 18 -18h273q25 0 25 -25v-36q0 -25 -25 -25h-360z" />
    <glyph glyph-name="Igrave" unicode="&#xcc;" horiz-adv-x="297" 
d="M19 901q6 25 32 15l181 -64q23 -9 17 -32l-2 -7q-6 -24 -30 -19l-189 39q-24 6 -18 30zM172 730q25 0 25 -25v-680q0 -25 -25 -25h-48q-25 0 -25 25v680q0 25 25 25h48z" />
    <glyph glyph-name="Iacute" unicode="&#xcd;" horiz-adv-x="297" 
d="M232 915q24 8 31 -18l8 -37q6 -25 -19 -29l-184 -31q-23 -5 -31 18l-2 7q-6 22 17 31zM172 730q25 0 25 -25v-680q0 -25 -25 -25h-48q-25 0 -25 25v680q0 25 25 25h48z" />
    <glyph glyph-name="Icircumflex" unicode="&#xce;" horiz-adv-x="297" 
d="M-16 826q-8 18 7 27l134 70q22 12 44 0l137 -70q16 -10 8 -27l-8 -18q-7 -16 -25 -10l-113 38q-21 7 -42 0l-109 -37q-18 -7 -25 9zM172 730q25 0 25 -25v-680q0 -25 -25 -25h-48q-25 0 -25 25v680q0 25 25 25h48z" />
    <glyph glyph-name="Idieresis" unicode="&#xcf;" horiz-adv-x="297" 
d="M43 785q-25 0 -43 18.5t-18 44.5q0 25 18 42.5t43 17.5q26 0 44 -17.5t18 -42.5q0 -26 -18 -44.5t-44 -18.5zM243 785q-26 0 -44 18.5t-18 44.5q0 25 18 42.5t44 17.5q25 0 43.5 -17.5t18.5 -42.5q0 -26 -18.5 -44.5t-43.5 -18.5zM172 730q25 0 25 -25v-680
q0 -25 -25 -25h-48q-25 0 -25 25v680q0 25 25 25h48z" />
    <glyph glyph-name="Eth" unicode="&#xd0;" horiz-adv-x="796" 
d="M370 730q162 0 269 -102.5t107 -262.5q0 -162 -107 -263.5t-269 -101.5h-243q-28 0 -28 28v303h-50q-25 0 -25 25v24q0 25 25 25h50v297q0 28 28 28h243zM370 85q115 0 195.5 74.5t80.5 205.5q0 132 -80.5 206.5t-195.5 74.5h-155q-18 0 -18 -18v-223h139q25 0 25 -25
v-24q0 -25 -25 -25h-139v-228q0 -18 18 -18h155z" />
    <glyph glyph-name="Ntilde" unicode="&#xd1;" horiz-adv-x="820" 
d="M558 890q26 -5 20 -29q-9 -34 -34 -52t-60 -18q-33 1 -74 22t-57 21q-26 0 -39 -16q-13 -19 -32 -15l-15 3q-26 5 -20 30q17 70 89 70q29 -1 75 -22.5t63 -21.5q26 0 38 15q14 20 31 16zM124 0q-25 0 -25 25v672q0 33 33 33h10q24 0 40 -19l429 -540q7 -10 14.5 -7.5
t7.5 15.5v526q0 25 25 25h37q25 0 25 -25v-672q0 -33 -33 -33h-21q-25 0 -41 19l-416 515q-7 10 -14.5 8t-7.5 -15v-502q0 -25 -25 -25h-38z" />
    <glyph glyph-name="Ograve" unicode="&#xd2;" horiz-adv-x="869" 
d="M305 901q6 25 32 15l181 -64q23 -9 17 -32l-2 -7q-6 -24 -30 -19l-189 39q-24 6 -18 30zM49 367q0 163 111.5 268t273.5 105q163 0 274.5 -105t111.5 -268q0 -165 -111.5 -271t-274.5 -106q-162 0 -273.5 106t-111.5 271zM149 367q0 -128 82 -209.5t203 -81.5t203.5 81.5
t82.5 209.5q0 126 -82.5 206.5t-203.5 80.5t-203 -80.5t-82 -206.5z" />
    <glyph glyph-name="Oacute" unicode="&#xd3;" horiz-adv-x="869" 
d="M518 915q24 8 31 -18l8 -37q6 -25 -19 -29l-184 -31q-23 -5 -31 18l-2 7q-6 22 17 31zM49 367q0 163 111.5 268t273.5 105q163 0 274.5 -105t111.5 -268q0 -165 -111.5 -271t-274.5 -106q-162 0 -273.5 106t-111.5 271zM149 367q0 -128 82 -209.5t203 -81.5t203.5 81.5
t82.5 209.5q0 126 -82.5 206.5t-203.5 80.5t-203 -80.5t-82 -206.5z" />
    <glyph glyph-name="Ocircumflex" unicode="&#xd4;" horiz-adv-x="869" 
d="M270 826q-8 18 7 27l134 70q22 12 44 0l137 -70q16 -10 8 -27l-8 -18q-7 -16 -25 -10l-113 38q-21 7 -42 0l-109 -37q-18 -7 -25 9zM49 367q0 163 111.5 268t273.5 105q163 0 274.5 -105t111.5 -268q0 -165 -111.5 -271t-274.5 -106q-162 0 -273.5 106t-111.5 271z
M149 367q0 -128 82 -209.5t203 -81.5t203.5 81.5t82.5 209.5q0 126 -82.5 206.5t-203.5 80.5t-203 -80.5t-82 -206.5z" />
    <glyph glyph-name="Otilde" unicode="&#xd5;" horiz-adv-x="869" 
d="M582 890q26 -5 20 -29q-9 -34 -34 -52t-60 -18q-33 1 -74 22t-57 21q-26 0 -39 -16q-13 -19 -32 -15l-15 3q-26 5 -20 30q17 70 89 70q29 -1 75 -22.5t63 -21.5q26 0 38 15q14 20 31 16zM49 367q0 163 111.5 268t273.5 105q163 0 274.5 -105t111.5 -268
q0 -165 -111.5 -271t-274.5 -106q-162 0 -273.5 106t-111.5 271zM149 367q0 -128 82 -209.5t203 -81.5t203.5 81.5t82.5 209.5q0 126 -82.5 206.5t-203.5 80.5t-203 -80.5t-82 -206.5z" />
    <glyph glyph-name="Odieresis" unicode="&#xd6;" horiz-adv-x="869" 
d="M329 785q-25 0 -43 18.5t-18 44.5q0 25 18 42.5t43 17.5q26 0 44 -17.5t18 -42.5q0 -26 -18 -44.5t-44 -18.5zM529 785q-26 0 -44 18.5t-18 44.5q0 25 18 42.5t44 17.5q25 0 43.5 -17.5t18.5 -42.5q0 -26 -18.5 -44.5t-43.5 -18.5zM49 367q0 163 111.5 268t273.5 105
q163 0 274.5 -105t111.5 -268q0 -165 -111.5 -271t-274.5 -106q-162 0 -273.5 106t-111.5 271zM149 367q0 -128 82 -209.5t203 -81.5t203.5 81.5t82.5 209.5q0 126 -82.5 206.5t-203.5 80.5t-203 -80.5t-82 -206.5z" />
    <glyph glyph-name="multiply" unicode="&#xd7;" horiz-adv-x="479" 
d="M81 138q-18 18 0 36l91 89q16 15 0 31l-91 91q-18 18 0 36l15 15q18 18 36 -1l91 -91q15 -16 31 0l93 92q18 18 36 0l15 -15q18 -18 0 -36l-93 -91q-16 -16 0 -32l93 -93q18 -18 0 -36l-15 -15q-17 -18 -36 1l-93 93q-16 16 -32 1l-90 -90q-18 -18 -36 0z" />
    <glyph glyph-name="Oslash" unicode="&#xd8;" horiz-adv-x="869" 
d="M722 621q98 -103 98 -254q0 -165 -111.5 -271t-274.5 -106q-145 0 -250 85l-55 -56q-17 -19 -36 0l-14 14q-18 18 -1 36l55 56q-84 101 -84 242q0 163 111.5 268t273.5 105q131 0 232 -70l39 40q17 19 36 0l16 -16q18 -18 1 -36zM149 367q0 -98 51 -173l401 410
q-73 50 -167 50q-121 0 -203 -80.5t-82 -206.5zM434 76q121 0 203.5 81.5t82.5 209.5q0 109 -64 187l-407 -413q77 -65 185 -65z" />
    <glyph glyph-name="Ugrave" unicode="&#xd9;" horiz-adv-x="788" 
d="M265 901q6 25 32 15l181 -64q23 -9 17 -32l-2 -7q-6 -24 -30 -19l-189 39q-24 6 -18 30zM88 307v398q0 25 25 25h50q25 0 25 -25v-404q0 -98 57 -159.5t149 -61.5q90 0 148 60.5t58 160.5v404q0 25 25 25h50q25 0 25 -25v-398q0 -139 -84.5 -228t-221.5 -89
q-134 0 -220 87.5t-86 229.5z" />
    <glyph glyph-name="Uacute" unicode="&#xda;" horiz-adv-x="788" 
d="M478 915q24 8 31 -18l8 -37q6 -25 -19 -29l-184 -31q-23 -5 -31 18l-2 7q-6 22 17 31zM88 307v398q0 25 25 25h50q25 0 25 -25v-404q0 -98 57 -159.5t149 -61.5q90 0 148 60.5t58 160.5v404q0 25 25 25h50q25 0 25 -25v-398q0 -139 -84.5 -228t-221.5 -89
q-134 0 -220 87.5t-86 229.5z" />
    <glyph glyph-name="Ucircumflex" unicode="&#xdb;" horiz-adv-x="788" 
d="M230 826q-8 18 7 27l134 70q22 12 44 0l137 -70q16 -10 8 -27l-8 -18q-7 -16 -25 -10l-113 38q-21 7 -42 0l-109 -37q-18 -7 -25 9zM88 307v398q0 25 25 25h50q25 0 25 -25v-404q0 -98 57 -159.5t149 -61.5q90 0 148 60.5t58 160.5v404q0 25 25 25h50q25 0 25 -25v-398
q0 -139 -84.5 -228t-221.5 -89q-134 0 -220 87.5t-86 229.5z" />
    <glyph glyph-name="Udieresis" unicode="&#xdc;" horiz-adv-x="788" 
d="M289 785q-25 0 -43 18.5t-18 44.5q0 25 18 42.5t43 17.5q26 0 44 -17.5t18 -42.5q0 -26 -18 -44.5t-44 -18.5zM489 785q-26 0 -44 18.5t-18 44.5q0 25 18 42.5t44 17.5q25 0 43.5 -17.5t18.5 -42.5q0 -26 -18.5 -44.5t-43.5 -18.5zM88 307v398q0 25 25 25h50q25 0 25 -25
v-404q0 -98 57 -159.5t149 -61.5q90 0 148 60.5t58 160.5v404q0 25 25 25h50q25 0 25 -25v-398q0 -139 -84.5 -228t-221.5 -89q-134 0 -220 87.5t-86 229.5z" />
    <glyph glyph-name="Yacute" unicode="&#xdd;" horiz-adv-x="641" 
d="M409 915q24 8 31 -18l8 -37q6 -25 -19 -29l-184 -31q-23 -5 -31 18l-2 7q-6 22 17 31zM22 700q-7 14 -2.5 22t19.5 8h59q20 0 30 -17l181 -325q6 -11 15 -11t15 11l181 325q10 17 30 17h45q14 0 19 -8t-2 -22l-234 -411q-7 -14 -7 -28v-232q0 -29 -29 -29h-40
q-29 0 -29 29v232q0 15 -7 28z" />
    <glyph glyph-name="Thorn" unicode="&#xde;" horiz-adv-x="636" 
d="M124 0q-25 0 -25 25v680q0 25 25 25h48q25 0 25 -25v-67q0 -18 18 -18h72q133 0 219 -71t86 -185q0 -113 -86 -183.5t-219 -70.5h-72q-18 0 -18 -18v-67q0 -25 -25 -25h-48zM197 207q0 -18 18 -18h74q88 0 145.5 49.5t57.5 125.5q0 78 -57.5 127.5t-145.5 49.5h-74
q-18 0 -18 -18v-316z" />
    <glyph glyph-name="germandbls" unicode="&#xdf;" horiz-adv-x="658" 
d="M106 0q-25 0 -25 25v550q0 87 61.5 143.5t165.5 56.5t166 -59t62 -162v-31q0 -31 -35 -36q-78 -10 -78 -69q0 -23 15 -40.5t37.5 -28.5t48.5 -27t48.5 -35t37.5 -54t15 -81q0 -72 -57 -117t-136 -45q-82 0 -134 42t-68 111q-6 27 22 27h36q21 0 27 -22q25 -75 116 -75
q43 0 72 20.5t29 57.5q0 38 -21 64t-50.5 42.5t-59.5 34t-51 49t-21 77.5q0 43 22 77t60 50q33 15 27 42q-10 48 -43 76.5t-87 28.5q-60 0 -96.5 -33.5t-36.5 -88.5v-545q0 -25 -25 -25h-44z" />
    <glyph glyph-name="agrave" unicode="&#xe0;" horiz-adv-x="579" 
d="M179 738q11 24 34 9l165 -100q21 -13 10 -34l-4 -7q-11 -22 -33 -12l-177 76q-22 10 -12 33zM41 143q0 67 59.5 109.5t160.5 41.5l116 -1q35 0 35 32q0 59 -35.5 91t-97.5 32q-49 0 -82.5 -21.5t-43.5 -56.5q-6 -22 -27 -22h-39q-13 0 -19.5 7t-4.5 20q14 72 73 113.5
t147 41.5q105 0 163 -59t58 -166v-280q0 -25 -25 -25h-12q-22 0 -28 21l-3 10q-11 38 -46 16q-86 -57 -179 -57q-74 0 -122 43t-48 110zM135 145q0 -35 27 -53.5t70 -18.5q76 0 159 57q21 15 21 42v10q0 35 -35 35h-114q-128 0 -128 -72z" />
    <glyph glyph-name="aacute" unicode="&#xe1;" horiz-adv-x="579" 
d="M353 740q22 14 34 -10l17 -34q11 -23 -12 -33l-173 -72q-22 -10 -34 11l-3 6q-12 21 9 34zM41 143q0 67 59.5 109.5t160.5 41.5l116 -1q35 0 35 32q0 59 -35.5 91t-97.5 32q-49 0 -82.5 -21.5t-43.5 -56.5q-6 -22 -27 -22h-39q-13 0 -19.5 7t-4.5 20q14 72 73 113.5
t147 41.5q105 0 163 -59t58 -166v-280q0 -25 -25 -25h-12q-22 0 -28 21l-3 10q-11 38 -46 16q-86 -57 -179 -57q-74 0 -122 43t-48 110zM135 145q0 -35 27 -53.5t70 -18.5q76 0 159 57q21 15 21 42v10q0 35 -35 35h-114q-128 0 -128 -72z" />
    <glyph glyph-name="acircumflex" unicode="&#xe2;" horiz-adv-x="579" 
d="M123 639q-8 17 7 26l131 69q22 12 44 0l134 -69q16 -9 8 -26l-8 -18q-7 -16 -25 -10l-110 38q-21 7 -42 0l-106 -37q-18 -7 -25 9zM41 143q0 67 59.5 109.5t160.5 41.5l116 -1q35 0 35 32q0 59 -35.5 91t-97.5 32q-49 0 -82.5 -21.5t-43.5 -56.5q-6 -22 -27 -22h-39
q-13 0 -19.5 7t-4.5 20q14 72 73 113.5t147 41.5q105 0 163 -59t58 -166v-280q0 -25 -25 -25h-12q-22 0 -28 21l-3 10q-11 38 -46 16q-86 -57 -179 -57q-74 0 -122 43t-48 110zM135 145q0 -35 27 -53.5t70 -18.5q76 0 159 57q21 15 21 42v10q0 35 -35 35h-114
q-128 0 -128 -72z" />
    <glyph glyph-name="atilde" unicode="&#xe3;" horiz-adv-x="579" 
d="M425 694q26 -5 20 -29q-9 -34 -34 -52t-60 -18q-33 1 -74 22t-57 21q-26 0 -39 -16q-13 -19 -32 -15l-15 3q-26 5 -20 30q17 70 89 70q29 -1 75 -22.5t63 -21.5q26 0 38 15q14 20 31 16zM41 143q0 67 59.5 109.5t160.5 41.5l116 -1q35 0 35 32q0 59 -35.5 91t-97.5 32
q-49 0 -82.5 -21.5t-43.5 -56.5q-6 -22 -27 -22h-39q-13 0 -19.5 7t-4.5 20q14 72 73 113.5t147 41.5q105 0 163 -59t58 -166v-280q0 -25 -25 -25h-12q-22 0 -28 21l-3 10q-11 38 -46 16q-86 -57 -179 -57q-74 0 -122 43t-48 110zM135 145q0 -35 27 -53.5t70 -18.5
q76 0 159 57q21 15 21 42v10q0 35 -35 35h-114q-128 0 -128 -72z" />
    <glyph glyph-name="adieresis" unicode="&#xe4;" horiz-adv-x="579" 
d="M188 619q-24 0 -41 17.5t-17 42.5q0 23 17 40t41 17t41.5 -17t17.5 -40q0 -25 -17.5 -42.5t-41.5 -17.5zM378 619q-24 0 -41.5 17.5t-17.5 42.5q0 23 17.5 40t41.5 17t41.5 -17t17.5 -40q0 -25 -17.5 -42.5t-41.5 -17.5zM41 143q0 67 59.5 109.5t160.5 41.5l116 -1
q35 0 35 32q0 59 -35.5 91t-97.5 32q-49 0 -82.5 -21.5t-43.5 -56.5q-6 -22 -27 -22h-39q-13 0 -19.5 7t-4.5 20q14 72 73 113.5t147 41.5q105 0 163 -59t58 -166v-280q0 -25 -25 -25h-12q-22 0 -28 21l-3 10q-11 38 -46 16q-86 -57 -179 -57q-74 0 -122 43t-48 110z
M135 145q0 -35 27 -53.5t70 -18.5q76 0 159 57q21 15 21 42v10q0 35 -35 35h-114q-128 0 -128 -72z" />
    <glyph glyph-name="aring" unicode="&#xe5;" horiz-adv-x="579" 
d="M282 581q-51 0 -82.5 30.5t-31.5 74.5q0 43 32 73.5t82 30.5q52 0 84 -30.5t32 -73.5q0 -45 -32 -75t-84 -30zM282 641q21 0 34.5 13t13.5 32t-13.5 32.5t-34.5 13.5q-20 0 -33 -13.5t-13 -32.5t13 -32t33 -13zM41 143q0 67 59.5 109.5t160.5 41.5l116 -1q35 0 35 32
q0 59 -35.5 91t-97.5 32q-49 0 -82.5 -21.5t-43.5 -56.5q-6 -22 -27 -22h-39q-13 0 -19.5 7t-4.5 20q14 72 73 113.5t147 41.5q105 0 163 -59t58 -166v-280q0 -25 -25 -25h-12q-22 0 -28 21l-3 10q-11 38 -46 16q-86 -57 -179 -57q-74 0 -122 43t-48 110zM135 145
q0 -35 27 -53.5t70 -18.5q76 0 159 57q21 15 21 42v10q0 35 -35 35h-114q-128 0 -128 -72z" />
    <glyph glyph-name="ae" unicode="&#xe6;" horiz-adv-x="951" 
d="M41 131q0 74 59.5 117.5t160.5 43.5l115 -1q25 0 25 12v12q0 65 -33.5 98.5t-91.5 33.5q-45 0 -79.5 -21.5t-45.5 -55.5q-6 -22 -27 -22h-37q-29 0 -24 26q15 71 76 113.5t141 42.5q109 0 165 -71q17 -20 34 -2q75 73 184 73q103 0 174.5 -75.5t69.5 -179.5
q-1 -22 -9.5 -31t-28.5 -9l-348 1q-28 0 -23 -27q14 -63 59 -101t108 -38q49 0 84.5 20t50.5 54q9 20 29 20h38q13 0 19.5 -8t2.5 -20q-21 -64 -81 -105t-143 -41q-116 0 -191 81q-17 19 -35 2q-100 -83 -217 -83q-80 0 -130.5 40.5t-50.5 100.5zM507 337q-5 -12 1 -20
t20 -8l258 -1q31 0 20 34q-13 47 -51.5 77.5t-91.5 30.5q-51 0 -94 -30.5t-62 -82.5zM135 143q0 -33 28.5 -50.5t71.5 -17.5q86 0 170 68q15 12 10 28q-8 26 -10 31q-3 14 -23 14h-119q-128 0 -128 -73z" />
    <glyph glyph-name="ccedilla" unicode="&#xe7;" horiz-adv-x="600" 
d="M532 181q29 0 23 -27q-17 -70 -79.5 -115t-145.5 -49l-4 -13q-4 -16 15 -20q32 -8 51 -29t19 -53q0 -44 -34 -69.5t-86 -25.5q-47 0 -83 21q-17 10 -7 31l1 6q9 18 31 9q25 -10 51 -10q50 0 50 36q0 38 -49 38h-8q-14 0 -21.5 8.5t-3.5 22.5l15 52q-100 17 -161 91.5
t-61 177.5q0 114 76.5 190.5t193.5 76.5q93 0 158.5 -50t82.5 -122q6 -27 -23 -27h-41q-20 0 -27 22q-14 40 -54 68t-94 28q-76 0 -126 -53t-50 -136q0 -84 51 -136.5t124 -52.5q53 0 92 24t53 65q7 21 28 21h43z" />
    <glyph glyph-name="egrave" unicode="&#xe8;" horiz-adv-x="595" 
d="M196 738q11 24 34 9l165 -100q21 -13 10 -34l-4 -7q-11 -22 -33 -12l-177 76q-23 10 -12 33zM45 263q0 114 76 190.5t187 76.5q102 0 172.5 -76t69.5 -187q0 -14 -9.5 -23t-24.5 -9l-340 1q-18 0 -27 -10.5t-5 -27.5q17 -59 61 -93t104 -34q49 0 84.5 19.5t50.5 53.5
q9 20 29 20h38q13 0 19.5 -8t2.5 -20q-22 -63 -82.5 -104.5t-141.5 -41.5q-113 0 -188.5 77.5t-75.5 195.5zM157 354q-9 -17 -0.5 -28.5t28.5 -11.5l231 -1q19 0 28 11t2 29q-18 44 -54.5 70.5t-84.5 26.5t-88 -25.5t-62 -70.5z" />
    <glyph glyph-name="eacute" unicode="&#xe9;" horiz-adv-x="595" 
d="M370 740q22 14 34 -10l17 -34q11 -23 -12 -33l-173 -72q-22 -10 -34 11l-3 6q-12 21 9 34zM45 263q0 114 76 190.5t187 76.5q102 0 172.5 -76t69.5 -187q0 -14 -9.5 -23t-24.5 -9l-340 1q-18 0 -27 -10.5t-5 -27.5q17 -59 61 -93t104 -34q49 0 84.5 19.5t50.5 53.5
q9 20 29 20h38q13 0 19.5 -8t2.5 -20q-22 -63 -82.5 -104.5t-141.5 -41.5q-113 0 -188.5 77.5t-75.5 195.5zM157 354q-9 -17 -0.5 -28.5t28.5 -11.5l231 -1q19 0 28 11t2 29q-18 44 -54.5 70.5t-84.5 26.5t-88 -25.5t-62 -70.5z" />
    <glyph glyph-name="ecircumflex" unicode="&#xea;" horiz-adv-x="595" 
d="M140 639q-8 17 7 26l131 69q22 12 44 0l134 -69q16 -9 8 -26l-8 -18q-7 -16 -25 -10l-110 38q-21 7 -42 0l-106 -37q-18 -7 -25 9zM45 263q0 114 76 190.5t187 76.5q102 0 172.5 -76t69.5 -187q0 -14 -9.5 -23t-24.5 -9l-340 1q-18 0 -27 -10.5t-5 -27.5q17 -59 61 -93
t104 -34q49 0 84.5 19.5t50.5 53.5q9 20 29 20h38q13 0 19.5 -8t2.5 -20q-22 -63 -82.5 -104.5t-141.5 -41.5q-113 0 -188.5 77.5t-75.5 195.5zM157 354q-9 -17 -0.5 -28.5t28.5 -11.5l231 -1q19 0 28 11t2 29q-18 44 -54.5 70.5t-84.5 26.5t-88 -25.5t-62 -70.5z" />
    <glyph glyph-name="edieresis" unicode="&#xeb;" horiz-adv-x="595" 
d="M205 619q-24 0 -41 17.5t-17 42.5q0 23 17 40t41 17t41.5 -17t17.5 -40q0 -25 -17.5 -42.5t-41.5 -17.5zM395 619q-24 0 -41.5 17.5t-17.5 42.5q0 23 17.5 40t41.5 17t41.5 -17t17.5 -40q0 -25 -17.5 -42.5t-41.5 -17.5zM45 263q0 114 76 190.5t187 76.5q102 0 172.5 -76
t69.5 -187q0 -14 -9.5 -23t-24.5 -9l-340 1q-18 0 -27 -10.5t-5 -27.5q17 -59 61 -93t104 -34q49 0 84.5 19.5t50.5 53.5q9 20 29 20h38q13 0 19.5 -8t2.5 -20q-22 -63 -82.5 -104.5t-141.5 -41.5q-113 0 -188.5 77.5t-75.5 195.5zM157 354q-9 -17 -0.5 -28.5t28.5 -11.5
l231 -1q19 0 28 11t2 29q-18 44 -54.5 70.5t-84.5 26.5t-88 -25.5t-62 -70.5z" />
    <glyph glyph-name="igrave" unicode="&#xec;" horiz-adv-x="261" 
d="M31 738q11 24 34 9l164 -100q21 -13 10 -34l-4 -7q-11 -22 -33 -12l-176 76q-22 10 -12 33zM152 520q25 0 25 -25v-470q0 -25 -25 -25h-44q-25 0 -25 25v470q0 25 25 25h44z" />
    <glyph glyph-name="iacute" unicode="&#xed;" horiz-adv-x="261" 
d="M201 740q21 14 33 -10l16 -34q11 -23 -11 -33l-167 -72q-21 -9 -33 11l-3 6q-12 21 9 34zM152 520q25 0 25 -25v-470q0 -25 -25 -25h-44q-25 0 -25 25v470q0 25 25 25h44z" />
    <glyph glyph-name="icircumflex" unicode="&#xee;" horiz-adv-x="261" 
d="M-18 639q-8 17 7 26l124 69q22 12 42 0l127 -69q16 -9 8 -26l-8 -18q-6 -17 -23 -10l-105 38q-20 7 -40 0l-101 -37q-17 -7 -23 9zM152 520q25 0 25 -25v-470q0 -25 -25 -25h-44q-25 0 -25 25v470q0 25 25 25h44z" />
    <glyph glyph-name="idieresis" unicode="&#xef;" horiz-adv-x="261" 
d="M39 619q-24 0 -41 17.5t-17 42.5q0 23 17 40t41 17t41.5 -17t17.5 -40q0 -25 -17.5 -42.5t-41.5 -17.5zM229 619q-24 0 -41.5 17.5t-17.5 42.5q0 23 17.5 40t41.5 17t41.5 -17t17.5 -40q0 -25 -17.5 -42.5t-41.5 -17.5zM152 520q25 0 25 -25v-470q0 -25 -25 -25h-44
q-25 0 -25 25v470q0 25 25 25h44z" />
    <glyph glyph-name="eth" unicode="&#xf0;" horiz-adv-x="621" 
d="M353 589l-92 -31q-23 -8 -32 14l-8 20q-9 24 14 32l81 28l-58 98q-7 14 -2.5 22t19.5 8h41q20 0 30 -17l48 -85l104 36q24 8 32 -15l7 -20q8 -24 -15 -32l-93 -32l72 -126q38 -63 55.5 -118t17.5 -129q0 -110 -74.5 -181t-189.5 -71q-116 0 -190 73.5t-74 190.5
q0 107 71.5 176t182.5 69q38 0 75 -13q35 -12 34 4q0 2 -1 5zM142 252q0 -79 48 -130t120 -51q75 0 123.5 47.5t48.5 125.5v48q-12 62 -58 95.5t-113 33.5q-72 0 -120.5 -48t-48.5 -121z" />
    <glyph glyph-name="ntilde" unicode="&#xf1;" horiz-adv-x="651" 
d="M474 694q26 -5 20 -29q-9 -34 -34 -52t-60 -18q-33 1 -74 22t-57 21q-26 0 -39 -16q-13 -19 -32 -15l-15 3q-26 5 -20 30q17 70 89 70q29 -1 75 -22.5t63 -21.5q26 0 38 15q14 20 31 16zM106 0q-25 0 -25 25v470q0 25 25 25h18q23 0 28 -22l2 -8q9 -41 45 -18
q95 58 196 58q86 0 133.5 -51t47.5 -146v-308q0 -25 -25 -25h-44q-25 0 -25 25v304q0 57 -29.5 87.5t-84.5 30.5q-72 0 -170 -60q-23 -14 -23 -42v-320q0 -25 -25 -25h-44z" />
    <glyph glyph-name="ograve" unicode="&#xf2;" horiz-adv-x="641" 
d="M215 738q11 24 34 9l165 -100q21 -13 10 -34l-4 -7q-11 -22 -33 -12l-177 76q-22 10 -12 33zM45 263q0 113 78 190t198 77q119 0 197 -77t78 -190q0 -115 -78 -194t-197 -79q-120 0 -198 79t-78 194zM139 260q0 -80 51.5 -134.5t130.5 -54.5t130 54.5t51 134.5t-51 134.5
t-130 54.5t-130.5 -54.5t-51.5 -134.5z" />
    <glyph glyph-name="oacute" unicode="&#xf3;" horiz-adv-x="641" 
d="M389 740q22 14 34 -10l17 -34q11 -23 -12 -33l-173 -72q-22 -10 -34 11l-3 6q-12 21 9 34zM45 263q0 113 78 190t198 77q119 0 197 -77t78 -190q0 -115 -78 -194t-197 -79q-120 0 -198 79t-78 194zM139 260q0 -80 51.5 -134.5t130.5 -54.5t130 54.5t51 134.5t-51 134.5
t-130 54.5t-130.5 -54.5t-51.5 -134.5z" />
    <glyph glyph-name="ocircumflex" unicode="&#xf4;" horiz-adv-x="641" 
d="M159 639q-8 17 7 26l131 69q22 12 44 0l134 -69q16 -9 8 -26l-8 -18q-7 -16 -25 -10l-110 38q-21 7 -42 0l-106 -37q-18 -7 -25 9zM45 263q0 113 78 190t198 77q119 0 197 -77t78 -190q0 -115 -78 -194t-197 -79q-120 0 -198 79t-78 194zM139 260q0 -80 51.5 -134.5
t130.5 -54.5t130 54.5t51 134.5t-51 134.5t-130 54.5t-130.5 -54.5t-51.5 -134.5z" />
    <glyph glyph-name="otilde" unicode="&#xf5;" horiz-adv-x="641" 
d="M461 694q26 -5 20 -29q-9 -34 -34 -52t-60 -18q-33 1 -74 22t-57 21q-26 0 -39 -16q-13 -19 -32 -15l-15 3q-26 5 -20 30q17 70 89 70q29 -1 75 -22.5t63 -21.5q26 0 38 15q14 20 31 16zM45 263q0 113 78 190t198 77q119 0 197 -77t78 -190q0 -115 -78 -194t-197 -79
q-120 0 -198 79t-78 194zM139 260q0 -80 51.5 -134.5t130.5 -54.5t130 54.5t51 134.5t-51 134.5t-130 54.5t-130.5 -54.5t-51.5 -134.5z" />
    <glyph glyph-name="odieresis" unicode="&#xf6;" horiz-adv-x="641" 
d="M224 619q-24 0 -41 17.5t-17 42.5q0 23 17 40t41 17t41.5 -17t17.5 -40q0 -25 -17.5 -42.5t-41.5 -17.5zM414 619q-24 0 -41.5 17.5t-17.5 42.5q0 23 17.5 40t41.5 17t41.5 -17t17.5 -40q0 -25 -17.5 -42.5t-41.5 -17.5zM45 263q0 113 78 190t198 77q119 0 197 -77
t78 -190q0 -115 -78 -194t-197 -79q-120 0 -198 79t-78 194zM139 260q0 -80 51.5 -134.5t130.5 -54.5t130 54.5t51 134.5t-51 134.5t-130 54.5t-130.5 -54.5t-51.5 -134.5z" />
    <glyph glyph-name="divide" unicode="&#xf7;" horiz-adv-x="545" 
d="M272 381q-24 0 -40.5 17.5t-16.5 42.5q0 23 16.5 40t40.5 17t41 -17t17 -40q0 -25 -17 -42.5t-41 -17.5zM461 302q25 0 25 -25v-27q0 -25 -25 -25h-378q-25 0 -25 25v27q0 25 25 25h378zM273 19q-24 0 -41 17.5t-17 42.5q0 23 17 40t41 17t40.5 -17t16.5 -40
q0 -25 -16.5 -42.5t-40.5 -17.5z" />
    <glyph glyph-name="oslash" unicode="&#xf8;" horiz-adv-x="641" 
d="M539 430q57 -71 57 -167q0 -115 -78 -194t-197 -79q-98 0 -172 56l-37 -37q-21 -21 -42 0l-8 7q-22 21 0 43l37 37q-54 73 -54 167q0 113 78 190t198 77q92 0 165 -50l31 30q21 21 42 0l9 -8q22 -22 0 -43zM139 260q0 -55 25 -99l260 257q-45 31 -103 31
q-79 0 -130.5 -54.5t-51.5 -134.5zM321 71q79 0 130 54.5t51 134.5q0 61 -29 105l-262 -258q47 -36 110 -36z" />
    <glyph glyph-name="ugrave" unicode="&#xf9;" horiz-adv-x="631" 
d="M211 738q11 24 34 9l165 -100q21 -13 10 -34l-4 -7q-11 -22 -33 -12l-177 76q-22 10 -12 33zM76 187v308q0 25 25 25h44q25 0 25 -25v-304q0 -58 28 -88t81 -30q64 0 153 52q24 13 24 41v329q0 25 25 25h44q25 0 25 -25v-470q0 -25 -25 -25h-17q-21 0 -27 22l-1 2
q-9 39 -45 18q-93 -52 -183 -52q-83 0 -129.5 51t-46.5 146z" />
    <glyph glyph-name="uacute" unicode="&#xfa;" horiz-adv-x="631" 
d="M385 740q22 14 34 -10l17 -34q11 -23 -12 -33l-173 -72q-22 -10 -34 11l-3 6q-12 21 9 34zM76 187v308q0 25 25 25h44q25 0 25 -25v-304q0 -58 28 -88t81 -30q64 0 153 52q24 13 24 41v329q0 25 25 25h44q25 0 25 -25v-470q0 -25 -25 -25h-17q-21 0 -27 22l-1 2
q-9 39 -45 18q-93 -52 -183 -52q-83 0 -129.5 51t-46.5 146z" />
    <glyph glyph-name="ucircumflex" unicode="&#xfb;" horiz-adv-x="631" 
d="M155 639q-8 17 7 26l131 69q22 12 44 0l134 -69q16 -9 8 -26l-8 -18q-7 -16 -25 -10l-110 38q-21 7 -42 0l-106 -37q-18 -7 -25 9zM76 187v308q0 25 25 25h44q25 0 25 -25v-304q0 -58 28 -88t81 -30q64 0 153 52q24 13 24 41v329q0 25 25 25h44q25 0 25 -25v-470
q0 -25 -25 -25h-17q-21 0 -27 22l-1 2q-9 39 -45 18q-93 -52 -183 -52q-83 0 -129.5 51t-46.5 146z" />
    <glyph glyph-name="udieresis" unicode="&#xfc;" horiz-adv-x="631" 
d="M220 619q-24 0 -41 17.5t-17 42.5q0 23 17 40t41 17t41.5 -17t17.5 -40q0 -25 -17.5 -42.5t-41.5 -17.5zM410 619q-24 0 -41.5 17.5t-17.5 42.5q0 23 17.5 40t41.5 17t41.5 -17t17.5 -40q0 -25 -17.5 -42.5t-41.5 -17.5zM76 187v308q0 25 25 25h44q25 0 25 -25v-304
q0 -58 28 -88t81 -30q64 0 153 52q24 13 24 41v329q0 25 25 25h44q25 0 25 -25v-470q0 -25 -25 -25h-17q-21 0 -27 22l-1 2q-9 39 -45 18q-93 -52 -183 -52q-83 0 -129.5 51t-46.5 146z" />
    <glyph glyph-name="yacute" unicode="&#xfd;" horiz-adv-x="559" 
d="M351 740q22 14 34 -10l17 -34q11 -23 -12 -33l-173 -72q-22 -10 -34 11l-3 6q-12 21 9 34zM26 491q-11 29 19 29h55q20 0 28 -20l144 -385q3 -8 8 -11.5t10 -0.5t8 12l140 385q8 20 28 20h48q30 0 19 -29l-220 -546q-33 -81 -76.5 -119.5t-118.5 -38.5q-36 0 -70 9
q-23 6 -19 30l4 23q5 25 29 20q30 -8 61 -8q42 0 68 25.5t47 77.5l15 36h-11q-17 0 -23 16z" />
    <glyph glyph-name="thorn" unicode="&#xfe;" horiz-adv-x="658" 
d="M106 -220q-25 0 -25 25v925q0 25 25 25h36q25 0 25 -25v-225q0 -22 11 -26.5t29 8.5q61 43 147 43q108 0 184 -78t76 -190q0 -114 -76 -193t-186 -79q-85 0 -144 42q-18 13 -29 8.5t-11 -26.5v-209q0 -25 -25 -25h-37zM175 198q0 -26 11 -43q53 -84 157 -84
q72 0 123.5 56t51.5 135q0 78 -52 132.5t-123 54.5q-103 0 -157 -83q-11 -17 -11 -43v-125z" />
    <glyph glyph-name="ydieresis" unicode="&#xff;" horiz-adv-x="559" 
d="M186 619q-24 0 -41 17.5t-17 42.5q0 23 17 40t41 17t41.5 -17t17.5 -40q0 -25 -17.5 -42.5t-41.5 -17.5zM376 619q-24 0 -41.5 17.5t-17.5 42.5q0 23 17.5 40t41.5 17t41.5 -17t17.5 -40q0 -25 -17.5 -42.5t-41.5 -17.5zM26 491q-11 29 19 29h55q20 0 28 -20l144 -385
q3 -8 8 -11.5t10 -0.5t8 12l140 385q8 20 28 20h48q30 0 19 -29l-220 -546q-33 -81 -76.5 -119.5t-118.5 -38.5q-36 0 -70 9q-23 6 -19 30l4 23q5 25 29 20q30 -8 61 -8q42 0 68 25.5t47 77.5l15 36h-11q-17 0 -23 16z" />
    <glyph glyph-name="Amacron" unicode="&#x100;" horiz-adv-x="713" 
d="M212 859q0 25 25 25h242q25 0 25 -25v-27q0 -25 -25 -25h-242q-25 0 -25 25v27zM39 0q-12 0 -18 8.5t-1 20.5l271 682q8 19 27 19h76q19 0 27 -19l271 -682q11 -29 -19 -29h-52q-21 0 -29 20l-51 136q-5 11 -16 11h-340q-11 0 -16 -11l-52 -136q-7 -20 -29 -20h-49z
M215 276q-3 -7 0 -11.5t11 -4.5h258q8 0 11 4.5t0 11.5l-130 342q-3 9 -9 9t-9 -9z" />
    <glyph glyph-name="amacron" unicode="&#x101;" horiz-adv-x="579" 
d="M137 674q0 25 25 25h242q25 0 25 -25v-27q0 -25 -25 -25h-242q-25 0 -25 25v27zM41 143q0 67 59.5 109.5t160.5 41.5l116 -1q35 0 35 32q0 59 -35.5 91t-97.5 32q-49 0 -82.5 -21.5t-43.5 -56.5q-6 -22 -27 -22h-39q-13 0 -19.5 7t-4.5 20q14 72 73 113.5t147 41.5
q105 0 163 -59t58 -166v-280q0 -25 -25 -25h-12q-22 0 -28 21l-3 10q-11 38 -46 16q-86 -57 -179 -57q-74 0 -122 43t-48 110zM135 145q0 -35 27 -53.5t70 -18.5q76 0 159 57q21 15 21 42v10q0 35 -35 35h-114q-128 0 -128 -72z" />
    <glyph glyph-name="Abreve" unicode="&#x102;" horiz-adv-x="713" 
d="M257 915q19 0 28 -20q20 -44 78 -44q57 0 79 44q10 20 29 20l28 -1q29 -2 22 -27q-15 -50 -58 -79t-100 -29q-55 0 -99.5 28.5t-59.5 79.5q-7 25 22 27zM39 0q-12 0 -18 8.5t-1 20.5l271 682q8 19 27 19h76q19 0 27 -19l271 -682q11 -29 -19 -29h-52q-21 0 -29 20
l-51 136q-5 11 -16 11h-340q-11 0 -16 -11l-52 -136q-7 -20 -29 -20h-49zM215 276q-3 -7 0 -11.5t11 -4.5h258q8 0 11 4.5t0 11.5l-130 342q-3 9 -9 9t-9 -9z" />
    <glyph glyph-name="abreve" unicode="&#x103;" horiz-adv-x="579" 
d="M177 727q19 0 28 -20q20 -44 78 -44q57 0 79 44q10 20 29 20l28 -1q29 -2 22 -27q-15 -50 -58 -79t-100 -29q-55 0 -99.5 28.5t-59.5 79.5q-7 25 22 27zM41 143q0 67 59.5 109.5t160.5 41.5l116 -1q35 0 35 32q0 59 -35.5 91t-97.5 32q-49 0 -82.5 -21.5t-43.5 -56.5
q-6 -22 -27 -22h-39q-13 0 -19.5 7t-4.5 20q14 72 73 113.5t147 41.5q105 0 163 -59t58 -166v-280q0 -25 -25 -25h-12q-22 0 -28 21l-3 10q-11 38 -46 16q-86 -57 -179 -57q-74 0 -122 43t-48 110zM135 145q0 -35 27 -53.5t70 -18.5q76 0 159 57q21 15 21 42v10q0 35 -35 35
h-114q-128 0 -128 -72z" />
    <glyph glyph-name="Aogonek" unicode="&#x104;" horiz-adv-x="713" 
d="M675 -158q21 3 21 -17v-18q0 -17 -16 -21q-16 -5 -41 -5q-47 0 -76.5 25.5t-29.5 72.5q0 74 76 123q-13 5 -17 18l-51 136q-5 11 -16 11h-340q-11 0 -16 -11l-52 -136q-7 -20 -29 -20h-49q-12 0 -18 8.5t-1 20.5l271 682q8 19 27 19h76q19 0 27 -19l271 -682
q9 -21 -9 -28q-74 -44 -74 -118q0 -21 12 -32t32 -11q8 0 22 2zM484 260q8 0 11 4.5t0 11.5l-130 342q-3 9 -9 9t-9 -9l-132 -342q-3 -7 0 -11.5t11 -4.5h258z" />
    <glyph glyph-name="aogonek" unicode="&#x105;" horiz-adv-x="579" 
d="M489 1q-74 -44 -74 -118q0 -21 12 -32t32 -11q8 0 22 2q21 3 21 -17v-18q0 -17 -16 -21q-16 -5 -41 -5q-47 0 -76.5 25.5t-29.5 72.5q0 42 27 78.5t74 59.5l-1 4l-3 10q-11 38 -46 16q-86 -57 -179 -57q-74 0 -122 43t-48 110t59.5 109.5t160.5 41.5l116 -1q35 0 35 32
q0 59 -35.5 91t-97.5 32q-49 0 -82.5 -21.5t-43.5 -56.5q-6 -22 -27 -22h-39q-13 0 -19.5 7t-4.5 20q14 72 73 113.5t147 41.5q105 0 163 -59t58 -166v-280q0 -18 -15 -24zM412 172v10q0 35 -35 35h-114q-128 0 -128 -72q0 -35 27 -53.5t70 -18.5q76 0 159 57q21 15 21 42z
" />
    <glyph glyph-name="Cacute" unicode="&#x106;" horiz-adv-x="828" 
d="M512 920q24 8 31 -18l8 -37q6 -25 -19 -29l-184 -31q-23 -5 -31 18l-2 7q-6 22 17 31zM49 367q0 162 111 267.5t271 105.5q136 0 232 -81.5t116 -196.5q5 -26 -23 -26h-51q-22 0 -27 23q-18 83 -84.5 136.5t-162.5 53.5q-118 0 -200 -79t-82 -203q0 -126 82 -206t200 -80
q89 0 155 42t92 115q8 21 28 21h51q13 0 19 -7.5t2 -20.5q-30 -105 -124.5 -173t-222.5 -68q-160 0 -271 106.5t-111 270.5z" />
    <glyph glyph-name="cacute" unicode="&#x107;" horiz-adv-x="600" 
d="M388 740q22 14 34 -10l17 -34q11 -23 -12 -33l-173 -72q-22 -10 -34 11l-3 6q-12 21 9 34zM492 331q-20 0 -27 22q-14 40 -54 68t-94 28q-76 0 -126 -53t-50 -136q0 -84 51 -136.5t124 -52.5q53 0 92 24t53 65q7 21 28 21h43q29 0 23 -27q-18 -73 -84.5 -118.5
t-152.5 -45.5q-119 0 -196 78t-77 195q0 114 76.5 190.5t193.5 76.5q93 0 158.5 -50t82.5 -122q6 -27 -23 -27h-41z" />
    <glyph glyph-name="Cdotaccent" unicode="&#x10a;" horiz-adv-x="828" 
d="M428 789q-29 0 -48.5 20t-19.5 49q0 27 20 46.5t48 19.5t48 -19.5t20 -46.5q0 -29 -20 -49t-48 -20zM49 367q0 162 111 267.5t271 105.5q136 0 232 -81.5t116 -196.5q5 -26 -23 -26h-51q-22 0 -27 23q-18 83 -84.5 136.5t-162.5 53.5q-118 0 -200 -79t-82 -203
q0 -126 82 -206t200 -80q89 0 155 42t92 115q8 21 28 21h51q13 0 19 -7.5t2 -20.5q-30 -105 -124.5 -173t-222.5 -68q-160 0 -271 106.5t-111 270.5z" />
    <glyph glyph-name="cdotaccent" unicode="&#x10b;" horiz-adv-x="600" 
d="M318 622q-29 0 -48.5 20t-19.5 49q0 27 20 46.5t48 19.5t48 -19.5t20 -46.5q0 -29 -20 -49t-48 -20zM492 331q-20 0 -27 22q-14 40 -54 68t-94 28q-76 0 -126 -53t-50 -136q0 -84 51 -136.5t124 -52.5q53 0 92 24t53 65q7 21 28 21h43q29 0 23 -27q-18 -73 -84.5 -118.5
t-152.5 -45.5q-119 0 -196 78t-77 195q0 114 76.5 190.5t193.5 76.5q93 0 158.5 -50t82.5 -122q6 -27 -23 -27h-41z" />
    <glyph glyph-name="Ccaron" unicode="&#x10c;" horiz-adv-x="828" 
d="M273 890l5 17q6 22 28 14l105 -33q17 -6 35 0l105 33q22 7 28 -14l5 -17q7 -21 -12 -29l-117 -52q-27 -13 -55 0l-115 52q-20 8 -12 29zM49 367q0 162 111 267.5t271 105.5q136 0 232 -81.5t116 -196.5q5 -26 -23 -26h-51q-22 0 -27 23q-18 83 -84.5 136.5t-162.5 53.5
q-118 0 -200 -79t-82 -203q0 -126 82 -206t200 -80q89 0 155 42t92 115q8 21 28 21h51q13 0 19 -7.5t2 -20.5q-30 -105 -124.5 -173t-222.5 -68q-160 0 -271 106.5t-111 270.5z" />
    <glyph glyph-name="ccaron" unicode="&#x10d;" horiz-adv-x="600" 
d="M165 693l5 16q6 22 28 14l103 -32q18 -6 35 0l103 32q22 7 28 -14l5 -16q7 -21 -12 -29l-115 -51q-27 -13 -54 0l-114 51q-19 8 -12 29zM492 331q-20 0 -27 22q-14 40 -54 68t-94 28q-76 0 -126 -53t-50 -136q0 -84 51 -136.5t124 -52.5q53 0 92 24t53 65q7 21 28 21h43
q29 0 23 -27q-18 -73 -84.5 -118.5t-152.5 -45.5q-119 0 -196 78t-77 195q0 114 76.5 190.5t193.5 76.5q93 0 158.5 -50t82.5 -122q6 -27 -23 -27h-41z" />
    <glyph glyph-name="Dcaron" unicode="&#x10e;" horiz-adv-x="796" 
d="M206 885l5 17q6 22 28 14l105 -33q17 -6 35 0l105 33q22 7 28 -14l5 -17q7 -21 -12 -29l-117 -52q-27 -13 -55 0l-115 52q-20 8 -12 29zM127 0q-28 0 -28 28v674q0 28 28 28h243q162 0 269 -102.5t107 -262.5q0 -162 -107 -263.5t-269 -101.5h-243zM197 103q0 -18 18 -18
h155q115 0 195.5 74.5t80.5 205.5q0 132 -80.5 206.5t-195.5 74.5h-155q-18 0 -18 -18v-525z" />
    <glyph glyph-name="dcaron" unicode="&#x10f;" horiz-adv-x="659" 
d="M680 600q24 0 27 23l26 172q3 27 -23 27h-31q-24 0 -26 -24l-15 -172q-2 -26 24 -26h18zM45 262q0 114 77 191t190 77q75 0 134 -34q18 -11 29 -6t11 26v239q0 25 25 25h41q25 0 25 -25v-730q0 -25 -25 -25h-10q-22 0 -28 21l-2 6q-11 41 -44 13q-62 -50 -154 -50
q-116 0 -192.5 77t-76.5 195zM141 262q0 -80 52 -135.5t124 -55.5q101 0 155 83q11 17 11 43v127q0 26 -11 43q-54 82 -155 82q-72 0 -124 -54t-52 -133z" />
    <glyph glyph-name="Dcroat" unicode="&#x110;" horiz-adv-x="796" 
d="M370 730q162 0 269 -102.5t107 -262.5q0 -162 -107 -263.5t-269 -101.5h-243q-28 0 -28 28v303h-50q-25 0 -25 25v24q0 25 25 25h50v297q0 28 28 28h243zM370 85q115 0 195.5 74.5t80.5 205.5q0 132 -80.5 206.5t-195.5 74.5h-155q-18 0 -18 -18v-223h139q25 0 25 -25
v-24q0 -25 -25 -25h-139v-228q0 -18 18 -18h155z" />
    <glyph glyph-name="dcroat" unicode="&#x111;" horiz-adv-x="659" 
d="M667 670q25 0 25 -25v-24q0 -25 -25 -25h-90v-571q0 -25 -25 -25h-10q-22 0 -28 21l-2 6q-11 41 -44 13q-62 -50 -154 -50q-116 0 -192.5 77t-76.5 195q0 114 77 191t190 77q75 0 134 -34q18 -11 29 -6t11 26v80h-106q-25 0 -25 25v24q0 25 25 25h106v85q0 25 25 25h41
q25 0 25 -25v-85h90zM483 197v127q0 26 -11 43q-54 82 -155 82q-72 0 -124 -54t-52 -133q0 -80 52 -135.5t124 -55.5q101 0 155 83q11 17 11 43z" />
    <glyph glyph-name="Emacron" unicode="&#x112;" horiz-adv-x="566" 
d="M160 859q0 25 25 25h242q25 0 25 -25v-27q0 -25 -25 -25h-242q-25 0 -25 25v27zM127 0q-28 0 -28 28v674q0 28 28 28h355q25 0 25 -25v-35q0 -25 -25 -25h-268q-18 0 -18 -18v-203q0 -18 18 -18h248q25 0 25 -25v-36q0 -25 -25 -25h-248q-18 0 -18 -18v-198q0 -18 18 -18
h273q25 0 25 -25v-36q0 -25 -25 -25h-360z" />
    <glyph glyph-name="emacron" unicode="&#x113;" horiz-adv-x="595" 
d="M154 674q0 25 25 25h242q25 0 25 -25v-27q0 -25 -25 -25h-242q-25 0 -25 25v27zM45 263q0 114 76 190.5t187 76.5q102 0 172.5 -76t69.5 -187q0 -14 -9.5 -23t-24.5 -9l-340 1q-18 0 -27 -10.5t-5 -27.5q17 -59 61 -93t104 -34q49 0 84.5 19.5t50.5 53.5q9 20 29 20h38
q13 0 19.5 -8t2.5 -20q-22 -63 -82.5 -104.5t-141.5 -41.5q-113 0 -188.5 77.5t-75.5 195.5zM157 354q-9 -17 -0.5 -28.5t28.5 -11.5l231 -1q19 0 28 11t2 29q-18 44 -54.5 70.5t-84.5 26.5t-88 -25.5t-62 -70.5z" />
    <glyph glyph-name="Edotaccent" unicode="&#x116;" horiz-adv-x="566" 
d="M306 784q-29 0 -48.5 20t-19.5 49q0 27 20 46.5t48 19.5t48 -19.5t20 -46.5q0 -29 -20 -49t-48 -20zM127 0q-28 0 -28 28v674q0 28 28 28h355q25 0 25 -25v-35q0 -25 -25 -25h-268q-18 0 -18 -18v-203q0 -18 18 -18h248q25 0 25 -25v-36q0 -25 -25 -25h-248
q-18 0 -18 -18v-198q0 -18 18 -18h273q25 0 25 -25v-36q0 -25 -25 -25h-360z" />
    <glyph glyph-name="edotaccent" unicode="&#x117;" horiz-adv-x="595" 
d="M300 622q-29 0 -48.5 20t-19.5 49q0 27 20 46.5t48 19.5t48 -19.5t20 -46.5q0 -29 -20 -49t-48 -20zM45 263q0 114 76 190.5t187 76.5q102 0 172.5 -76t69.5 -187q0 -14 -9.5 -23t-24.5 -9l-340 1q-18 0 -27 -10.5t-5 -27.5q17 -59 61 -93t104 -34q49 0 84.5 19.5
t50.5 53.5q9 20 29 20h38q13 0 19.5 -8t2.5 -20q-22 -63 -82.5 -104.5t-141.5 -41.5q-113 0 -188.5 77.5t-75.5 195.5zM157 354q-9 -17 -0.5 -28.5t28.5 -11.5l231 -1q19 0 28 11t2 29q-18 44 -54.5 70.5t-84.5 26.5t-88 -25.5t-62 -70.5z" />
    <glyph glyph-name="Eogonek" unicode="&#x118;" horiz-adv-x="566" 
d="M495 1q-75 -45 -75 -119q0 -21 12 -32t32 -11q8 0 22 2q21 3 21 -17v-18q0 -17 -16 -21q-16 -5 -41 -5q-47 0 -76.5 25.5t-29.5 72.5q0 72 74 122h-291q-28 0 -28 28v674q0 28 28 28h355q25 0 25 -25v-35q0 -25 -25 -25h-268q-18 0 -18 -18v-203q0 -18 18 -18h248
q25 0 25 -25v-36q0 -25 -25 -25h-248q-18 0 -18 -18v-198q0 -18 18 -18h273q25 0 25 -25v-36q0 -21 -17 -24z" />
    <glyph glyph-name="eogonek" unicode="&#x119;" horiz-adv-x="595" 
d="M308 530q102 0 172.5 -76t69.5 -187q0 -14 -9.5 -23t-24.5 -9l-340 1q-18 0 -27 -10.5t-5 -27.5q17 -59 61 -93t104 -34q49 0 84.5 19.5t50.5 53.5q9 20 29 20h38q13 0 19.5 -8t2.5 -20q-16 -47 -55.5 -84t-94.5 -52q-74 -46 -74 -118q0 -21 12 -32t32 -11q8 0 22 2
q21 3 21 -17v-18q0 -17 -16 -21q-16 -5 -41 -5q-47 0 -76.5 25.5t-29.5 72.5q0 65 61 112q-108 6 -178.5 82.5t-70.5 190.5t76 190.5t187 76.5zM416 313q19 0 28 11t2 29q-18 44 -54.5 70.5t-84.5 26.5t-88 -25.5t-62 -70.5q-9 -17 -0.5 -28.5t28.5 -11.5z" />
    <glyph glyph-name="Ecaron" unicode="&#x11a;" horiz-adv-x="566" 
d="M151 885l5 17q6 22 28 14l105 -33q18 -6 35 0l105 33q22 7 28 -14l5 -17q7 -21 -12 -29l-117 -52q-27 -13 -55 0l-115 52q-20 8 -12 29zM127 0q-28 0 -28 28v674q0 28 28 28h355q25 0 25 -25v-35q0 -25 -25 -25h-268q-18 0 -18 -18v-203q0 -18 18 -18h248q25 0 25 -25
v-36q0 -25 -25 -25h-248q-18 0 -18 -18v-198q0 -18 18 -18h273q25 0 25 -25v-36q0 -25 -25 -25h-360z" />
    <glyph glyph-name="ecaron" unicode="&#x11b;" horiz-adv-x="595" 
d="M147 693l5 16q6 22 28 14l103 -32q18 -6 35 0l103 32q22 7 28 -14l5 -16q7 -21 -12 -29l-115 -51q-27 -13 -54 0l-114 51q-19 8 -12 29zM45 263q0 114 76 190.5t187 76.5q102 0 172.5 -76t69.5 -187q0 -14 -9.5 -23t-24.5 -9l-340 1q-18 0 -27 -10.5t-5 -27.5
q17 -59 61 -93t104 -34q49 0 84.5 19.5t50.5 53.5q9 20 29 20h38q13 0 19.5 -8t2.5 -20q-22 -63 -82.5 -104.5t-141.5 -41.5q-113 0 -188.5 77.5t-75.5 195.5zM157 354q-9 -17 -0.5 -28.5t28.5 -11.5l231 -1q19 0 28 11t2 29q-18 44 -54.5 70.5t-84.5 26.5t-88 -25.5
t-62 -70.5z" />
    <glyph glyph-name="Gbreve" unicode="&#x11e;" horiz-adv-x="820" 
d="M323 915q19 0 28 -20q20 -44 78 -44q57 0 79 44q10 20 29 20l28 -1q29 -2 22 -27q-15 -50 -58 -79t-100 -29q-55 0 -99.5 28.5t-59.5 79.5q-7 25 22 27zM49 368q0 161 112 266.5t271 105.5q126 0 217.5 -73.5t112.5 -186.5q5 -27 -23 -27h-42q-22 0 -27 23
q-18 80 -81.5 128.5t-156.5 48.5q-118 0 -200.5 -80.5t-82.5 -207.5t82.5 -208t200.5 -81q95 0 157.5 42t83.5 116q5 20 -16 20h-185q-25 0 -25 25v35q0 25 25 25h263q33 0 33 -29v-4q0 -139 -93 -227.5t-243 -88.5q-159 0 -271 107t-112 271z" />
    <glyph glyph-name="gbreve" unicode="&#x11f;" horiz-adv-x="658" 
d="M226 727q19 0 28 -20q20 -44 78 -44q57 0 79 44q10 20 29 20l28 -1q29 -2 22 -27q-15 -50 -58 -79t-100 -29q-55 0 -99.5 28.5t-59.5 79.5q-7 25 22 27zM44 264q0 113 77 189.5t190 76.5q92 0 154 -50q35 -27 44 13l1 5q5 22 28 22h14q25 0 25 -25v-476
q0 -103 -72 -167.5t-184 -64.5q-84 0 -145.5 36t-85.5 98q-5 12 1 20t20 8h38q18 0 29 -20q16 -29 54.5 -45.5t88.5 -16.5q73 0 121 42.5t48 109.5v3q0 19 -11 22t-28 -9q-57 -39 -137 -39q-116 0 -193 76.5t-77 191.5zM140 264q0 -78 52 -133t125 -55q103 0 155 85
q11 17 11 43v118q0 26 -11 43q-53 84 -155 84q-73 0 -125 -54t-52 -131z" />
    <glyph glyph-name="Gdotaccent" unicode="&#x120;" horiz-adv-x="820" 
d="M424 784q-29 0 -48.5 20t-19.5 49q0 27 20 46.5t48 19.5t48 -19.5t20 -46.5q0 -29 -20 -49t-48 -20zM49 368q0 161 112 266.5t271 105.5q126 0 217.5 -73.5t112.5 -186.5q5 -27 -23 -27h-42q-22 0 -27 23q-18 80 -81.5 128.5t-156.5 48.5q-118 0 -200.5 -80.5
t-82.5 -207.5t82.5 -208t200.5 -81q95 0 157.5 42t83.5 116q5 20 -16 20h-185q-25 0 -25 25v35q0 25 25 25h263q33 0 33 -29v-4q0 -139 -93 -227.5t-243 -88.5q-159 0 -271 107t-112 271z" />
    <glyph glyph-name="gdotaccent" unicode="&#x121;" horiz-adv-x="658" 
d="M332 622q-29 0 -48.5 20t-19.5 49q0 27 20 46.5t48 19.5t48 -19.5t20 -46.5q0 -29 -20 -49t-48 -20zM44 264q0 113 77 189.5t190 76.5q92 0 154 -50q35 -27 44 13l1 5q5 22 28 22h14q25 0 25 -25v-476q0 -103 -72 -167.5t-184 -64.5q-84 0 -145.5 36t-85.5 98q-5 12 1 20
t20 8h38q18 0 29 -20q16 -29 54.5 -45.5t88.5 -16.5q73 0 121 42.5t48 109.5v3q0 19 -11 22t-28 -9q-57 -39 -137 -39q-116 0 -193 76.5t-77 191.5zM140 264q0 -78 52 -133t125 -55q103 0 155 85q11 17 11 43v118q0 26 -11 43q-53 84 -155 84q-73 0 -125 -54t-52 -131z" />
    <glyph glyph-name="Gcommaaccent" unicode="&#x122;" horiz-adv-x="820" 
d="M49 368q0 161 112 266.5t271 105.5q126 0 217.5 -73.5t112.5 -186.5q5 -27 -23 -27h-42q-22 0 -27 23q-18 80 -81.5 128.5t-156.5 48.5q-118 0 -200.5 -80.5t-82.5 -207.5t82.5 -208t200.5 -81q95 0 157.5 42t83.5 116q5 20 -16 20h-185q-25 0 -25 25v35q0 25 25 25h263
q33 0 33 -29v-4q0 -139 -93 -227.5t-243 -88.5q-159 0 -271 107t-112 271zM379 -56q3 23 27 23h43q29 0 21 -28l-41 -140q-6 -21 -28 -21h-21q-27 0 -22 27z" />
    <glyph glyph-name="gcommaaccent" unicode="&#x123;" horiz-adv-x="658" 
d="M368 617q-3 -23 -27 -23h-43q-29 0 -21 28l41 140q6 21 28 21h21q27 0 22 -27zM44 264q0 113 77 189.5t190 76.5q92 0 154 -50q35 -27 44 13l1 5q5 22 28 22h14q25 0 25 -25v-476q0 -103 -72 -167.5t-184 -64.5q-84 0 -145.5 36t-85.5 98q-5 12 1 20t20 8h38q18 0 29 -20
q16 -29 54.5 -45.5t88.5 -16.5q73 0 121 42.5t48 109.5v3q0 19 -11 22t-28 -9q-57 -39 -137 -39q-116 0 -193 76.5t-77 191.5zM140 264q0 -78 52 -133t125 -55q103 0 155 85q11 17 11 43v118q0 26 -11 43q-53 84 -155 84q-73 0 -125 -54t-52 -131z" />
    <glyph glyph-name="Hbar" unicode="&#x126;" horiz-adv-x="832" 
d="M780 603q25 0 25 -25v-15q0 -25 -25 -25h-47v-513q0 -25 -25 -25h-48q-25 0 -25 25v264q0 28 -28 28h-382q-28 0 -28 -28v-264q0 -25 -25 -25h-48q-25 0 -25 25v513h-55q-25 0 -25 25v15q0 25 25 25h55v102q0 25 25 25h48q25 0 25 -25v-102h438v102q0 25 25 25h48
q25 0 25 -25v-102h47zM635 438v100h-438v-100q0 -28 28 -28h382q28 0 28 28z" />
    <glyph glyph-name="hbar" unicode="&#x127;" horiz-adv-x="647" 
d="M390 530q86 0 133.5 -51t47.5 -146v-308q0 -25 -25 -25h-44q-25 0 -25 25v304q0 57 -29 87.5t-80 30.5q-74 0 -170 -60q-23 -14 -23 -42v-320q0 -25 -25 -25h-44q-25 0 -25 25v570h-58q-25 0 -25 25v24q0 25 25 25h58v86q0 25 25 25h40q25 0 25 -25v-86h139q25 0 25 -25
v-24q0 -25 -25 -25h-139v-92q0 -21 11.5 -27.5t30.5 4.5q86 50 177 50z" />
    <glyph glyph-name="Itilde" unicode="&#x128;" horiz-adv-x="297" 
d="M296 890q26 -5 20 -29q-9 -34 -34 -52t-60 -18q-33 1 -74 22t-57 21q-26 0 -39 -16q-13 -19 -32 -15l-15 3q-26 5 -20 30q17 70 89 70q29 -1 75 -22.5t63 -21.5q26 0 38 15q14 20 31 16zM172 730q25 0 25 -25v-680q0 -25 -25 -25h-48q-25 0 -25 25v680q0 25 25 25h48z
" />
    <glyph glyph-name="itilde" unicode="&#x129;" horiz-adv-x="261" 
d="M271 694q25 -5 20 -29q-9 -34 -33 -52t-58 -18q-32 1 -71.5 22t-55.5 21q-25 0 -37 -16q-13 -19 -31 -15l-15 3q-25 5 -19 30q17 70 86 70q28 -1 72.5 -22.5t60.5 -21.5q25 0 37 15q14 20 30 16zM152 520q25 0 25 -25v-470q0 -25 -25 -25h-44q-25 0 -25 25v470
q0 25 25 25h44z" />
    <glyph glyph-name="Imacron" unicode="&#x12a;" horiz-adv-x="297" 
d="M2 859q0 25 25 25h242q25 0 25 -25v-27q0 -25 -25 -25h-242q-25 0 -25 25v27zM172 730q25 0 25 -25v-680q0 -25 -25 -25h-48q-25 0 -25 25v680q0 25 25 25h48z" />
    <glyph glyph-name="imacron" unicode="&#x12b;" horiz-adv-x="261" 
d="M-3 674q0 25 24 25h226q24 0 24 -25v-27q0 -25 -24 -25h-226q-24 0 -24 25v27zM152 520q25 0 25 -25v-470q0 -25 -25 -25h-44q-25 0 -25 25v470q0 25 25 25h44z" />
    <glyph glyph-name="Iogonek" unicode="&#x12e;" horiz-adv-x="297" 
d="M182 1q-74 -44 -74 -118q0 -21 12 -32t32 -11q8 0 22 2q21 3 21 -17v-18q0 -17 -16 -21q-16 -5 -41 -5q-47 0 -76.5 25.5t-29.5 72.5q0 74 77 124q-10 7 -10 22v680q0 25 25 25h48q25 0 25 -25v-680q0 -18 -15 -24z" />
    <glyph glyph-name="iogonek" unicode="&#x12f;" horiz-adv-x="261" 
d="M134 757q28 0 48 -19.5t20 -46.5q0 -29 -20 -49t-48 -20q-29 0 -48.5 20t-19.5 49q0 27 20 46.5t48 19.5zM152 520q25 0 25 -25v-470q0 -18 -15 -24q-74 -44 -74 -118q0 -21 12 -32t32 -11q8 0 22 2q21 3 21 -17v-18q0 -17 -16 -21q-16 -5 -41 -5q-47 0 -76.5 25.5
t-29.5 72.5q0 75 80 126q-9 6 -9 20v470q0 25 25 25h44z" />
    <glyph glyph-name="Idotaccent" unicode="&#x130;" horiz-adv-x="297" 
d="M148 784q-29 0 -48.5 20t-19.5 49q0 27 20 46.5t48 19.5t48 -19.5t20 -46.5q0 -29 -20 -49t-48 -20zM172 730q25 0 25 -25v-680q0 -25 -25 -25h-48q-25 0 -25 25v680q0 25 25 25h48z" />
    <glyph glyph-name="dotlessi" unicode="&#x131;" horiz-adv-x="261" 
d="M152 520q25 0 25 -25v-470q0 -25 -25 -25h-44q-25 0 -25 25v470q0 25 25 25h44z" />
    <glyph glyph-name="IJ" unicode="&#x132;" horiz-adv-x="980" 
d="M172 730q25 0 25 -25v-680q0 -25 -25 -25h-48q-25 0 -25 25v680q0 25 25 25h48zM320 223q-3 27 24 27h44q22 0 27 -23q16 -69 67 -107.5t130 -38.5q82 0 131 54.5t49 137.5l1 339q0 28 -28 28h-240q-25 0 -25 25v40q0 25 25 25h330q35 0 35 -35v-422q0 -121 -76 -202
t-202 -81q-120 0 -197 64.5t-95 168.5z" />
    <glyph glyph-name="ij" unicode="&#x133;" horiz-adv-x="528" 
d="M134 622q-29 0 -48.5 20t-19.5 49q0 27 20 46.5t48 19.5t48 -19.5t20 -46.5q0 -29 -20 -49t-48 -20zM399 622q-29 0 -48.5 20t-19.5 49q0 27 20 46.5t48 19.5t48 -19.5t20 -46.5q0 -29 -20 -49t-48 -20zM152 520q25 0 25 -25v-470q0 -25 -25 -25h-44q-25 0 -25 25v470
q0 25 25 25h44zM312 -210q-31 0 -61 5q-22 4 -19 29l3 31q3 23 27 20q16 -2 25 -2q63 0 63 72v550q0 25 25 25h44q25 0 25 -25v-557q0 -67 -36.5 -107.5t-95.5 -40.5z" />
    <glyph glyph-name="Kcommaaccent" unicode="&#x136;" horiz-adv-x="647" 
d="M172 730q25 0 25 -25v-680q0 -25 -25 -25h-48q-25 0 -25 25v680q0 25 25 25h48zM252 319q-13 14 -13 35v22q0 20 12 35l252 305q11 14 31 14h57q16 0 20 -9.5t-6 -21.5l-267 -319q-11 -12 0 -25l286 -324q10 -12 6 -21.5t-20 -9.5h-64q-20 0 -31 14zM288 -56q3 23 27 23
h43q29 0 21 -28l-41 -140q-6 -21 -28 -21h-21q-27 0 -22 27z" />
    <glyph glyph-name="kcommaaccent" unicode="&#x137;" horiz-adv-x="572" 
d="M106 0q-25 0 -25 25v730q0 25 25 25h44q25 0 25 -25v-452q0 -63 43 -17l210 221q12 13 31 13h51q17 0 21 -9.5t-7 -21.5l-157 -164q-22 -22 -3 -49l185 -245q9 -12 5 -21.5t-20 -9.5h-54q-18 0 -30 15l-146 190q-22 30 -49 3l-63 -61q-17 -17 -17 -44v-78q0 -25 -25 -25
h-44zM275 -56q3 23 27 23h43q29 0 21 -28l-41 -140q-6 -21 -28 -21h-21q-27 0 -22 27z" />
    <glyph glyph-name="kgreenlandic" unicode="&#x138;" horiz-adv-x="572" 
d="M106 0q-25 0 -25 25v470q0 25 25 25h44q25 0 25 -25v-199q0 -29 11.5 -34t31.5 17l211 228q13 13 30 13h51q17 0 21 -9.5t-7 -21.5l-158 -164q-22 -22 -2 -49l185 -245q9 -12 5 -21.5t-20 -9.5h-54q-18 0 -30 16l-140 195q-22 31 -50 3l-68 -68q-17 -17 -17 -43v-78
q0 -25 -25 -25h-44z" />
    <glyph glyph-name="Lacute" unicode="&#x139;" horiz-adv-x="576" 
d="M257 915q24 8 31 -18l8 -37q6 -25 -19 -29l-184 -31q-23 -5 -31 18l-2 7q-6 22 17 31zM134 0q-35 0 -35 35v670q0 25 25 25h48q25 0 25 -25v-595q0 -18 18 -18h321q25 0 25 -25v-42q0 -25 -25 -25h-402z" />
    <glyph glyph-name="lacute" unicode="&#x13a;" horiz-adv-x="261" 
d="M205 965q24 8 31 -18l8 -37q6 -25 -19 -29l-184 -31q-23 -5 -31 18l-2 7q-6 22 17 31zM152 780q25 0 25 -25v-730q0 -25 -25 -25h-44q-25 0 -25 25v730q0 25 25 25h44z" />
    <glyph glyph-name="Lcommaaccent" unicode="&#x13b;" horiz-adv-x="576" 
d="M134 0q-35 0 -35 35v670q0 25 25 25h48q25 0 25 -25v-595q0 -18 18 -18h321q25 0 25 -25v-42q0 -25 -25 -25h-402zM297 -56q3 23 27 23h43q29 0 21 -28l-41 -140q-6 -21 -28 -21h-21q-27 0 -22 27z" />
    <glyph glyph-name="lcommaaccent" unicode="&#x13c;" horiz-adv-x="261" 
d="M152 780q25 0 25 -25v-730q0 -25 -25 -25h-44q-25 0 -25 25v730q0 25 25 25h44zM83 -56q3 23 27 23h43q29 0 21 -28l-41 -140q-6 -21 -28 -21h-21q-27 0 -22 27z" />
    <glyph glyph-name="Lcaron" unicode="&#x13d;" horiz-adv-x="576" 
d="M428 563q24 0 27 23l26 172q3 27 -23 27h-31q-24 0 -26 -24l-15 -172q-2 -26 24 -26h18zM134 0q-35 0 -35 35v670q0 25 25 25h48q25 0 25 -25v-595q0 -18 18 -18h321q25 0 25 -25v-42q0 -25 -25 -25h-402z" />
    <glyph glyph-name="lcaron" unicode="&#x13e;" horiz-adv-x="261" 
d="M281 630q24 0 27 23l26 172q3 27 -23 27h-31q-24 0 -26 -24l-15 -172q-2 -26 24 -26h18zM152 780q25 0 25 -25v-730q0 -25 -25 -25h-44q-25 0 -25 25v730q0 25 25 25h44z" />
    <glyph glyph-name="Ldot" unicode="&#x13f;" horiz-adv-x="589" 
d="M134 0q-35 0 -35 35v670q0 25 25 25h48q25 0 25 -25v-595q0 -18 18 -18h321q25 0 25 -25v-42q0 -25 -25 -25h-402zM466 344q-29 0 -48.5 20t-19.5 49q0 27 20 46.5t48 19.5t48 -19.5t20 -46.5q0 -29 -20 -49t-48 -20z" />
    <glyph glyph-name="ldot" unicode="&#x140;" horiz-adv-x="398" 
d="M152 780q25 0 25 -25v-730q0 -25 -25 -25h-44q-25 0 -25 25v730q0 25 25 25h44zM329 286q-26 0 -44.5 19t-18.5 46q0 25 18.5 43t44.5 18t44.5 -18t18.5 -43q0 -27 -18.5 -46t-44.5 -19z" />
    <glyph glyph-name="Lslash" unicode="&#x141;" horiz-adv-x="576" 
d="M536 92q25 0 25 -25v-42q0 -25 -25 -25h-402q-35 0 -35 35v264l-69 -30q-25 -11 -32 14l-5 17q-6 23 15 32l91 40v333q0 25 25 25h48q25 0 25 -25v-290l91 40q24 11 32 -14l6 -17q8 -24 -14 -33l-115 -50v-231q0 -18 18 -18h321z" />
    <glyph glyph-name="lslash" unicode="&#x142;" horiz-adv-x="261" 
d="M292 461q12 -28 -15 -40l-100 -43v-353q0 -25 -25 -25h-44q-25 0 -25 25v313l-58 -25q-29 -13 -40 16l-6 15q-11 29 16 40l88 38v333q0 25 25 25h44q25 0 25 -25v-293l69 29q27 11 39 -15z" />
    <glyph glyph-name="Nacute" unicode="&#x143;" horiz-adv-x="820" 
d="M494 915q24 8 31 -18l8 -37q6 -25 -19 -29l-184 -31q-23 -5 -31 18l-2 7q-6 22 17 31zM124 0q-25 0 -25 25v672q0 33 33 33h10q24 0 40 -19l429 -540q7 -10 14.5 -7.5t7.5 15.5v526q0 25 25 25h37q25 0 25 -25v-672q0 -33 -33 -33h-21q-25 0 -41 19l-416 515
q-7 10 -14.5 8t-7.5 -15v-502q0 -25 -25 -25h-38z" />
    <glyph glyph-name="nacute" unicode="&#x144;" horiz-adv-x="651" 
d="M402 740q22 14 34 -10l17 -34q11 -23 -12 -33l-173 -72q-22 -10 -34 11l-3 6q-12 21 9 34zM106 0q-25 0 -25 25v470q0 25 25 25h18q23 0 28 -22l2 -8q9 -41 45 -18q95 58 196 58q86 0 133.5 -51t47.5 -146v-308q0 -25 -25 -25h-44q-25 0 -25 25v304q0 57 -29.5 87.5
t-84.5 30.5q-72 0 -170 -60q-23 -14 -23 -42v-320q0 -25 -25 -25h-44z" />
    <glyph glyph-name="Ncommaaccent" unicode="&#x145;" horiz-adv-x="820" 
d="M124 0q-25 0 -25 25v672q0 33 33 33h10q24 0 40 -19l429 -540q7 -10 14.5 -7.5t7.5 15.5v526q0 25 25 25h37q25 0 25 -25v-672q0 -33 -33 -33h-21q-25 0 -41 19l-416 515q-7 10 -14.5 8t-7.5 -15v-502q0 -25 -25 -25h-38zM368 -56q3 23 27 23h43q29 0 21 -28l-41 -140
q-6 -21 -28 -21h-21q-27 0 -22 27z" />
    <glyph glyph-name="ncommaaccent" unicode="&#x146;" horiz-adv-x="651" 
d="M106 0q-25 0 -25 25v470q0 25 25 25h18q23 0 28 -22l2 -8q9 -41 45 -18q95 58 196 58q86 0 133.5 -51t47.5 -146v-308q0 -25 -25 -25h-44q-25 0 -25 25v304q0 57 -29.5 87.5t-84.5 30.5q-72 0 -170 -60q-23 -14 -23 -42v-320q0 -25 -25 -25h-44zM283 -56q3 23 27 23h43
q29 0 21 -28l-41 -140q-6 -21 -28 -21h-21q-27 0 -22 27z" />
    <glyph glyph-name="Ncaron" unicode="&#x147;" horiz-adv-x="820" 
d="M255 885l5 17q6 22 28 14l105 -33q17 -6 35 0l105 33q22 7 28 -14l5 -17q7 -21 -12 -29l-117 -52q-27 -13 -55 0l-115 52q-20 8 -12 29zM124 0q-25 0 -25 25v672q0 33 33 33h10q24 0 40 -19l429 -540q7 -10 14.5 -7.5t7.5 15.5v526q0 25 25 25h37q25 0 25 -25v-672
q0 -33 -33 -33h-21q-25 0 -41 19l-416 515q-7 10 -14.5 8t-7.5 -15v-502q0 -25 -25 -25h-38z" />
    <glyph glyph-name="ncaron" unicode="&#x148;" horiz-adv-x="651" 
d="M179 693l5 16q6 22 28 14l103 -32q17 -6 35 0l103 32q22 7 28 -14l5 -16q7 -21 -12 -29l-115 -51q-27 -13 -54 0l-114 51q-19 8 -12 29zM106 0q-25 0 -25 25v470q0 25 25 25h18q23 0 28 -22l2 -8q9 -41 45 -18q95 58 196 58q86 0 133.5 -51t47.5 -146v-308q0 -25 -25 -25
h-44q-25 0 -25 25v304q0 57 -29.5 87.5t-84.5 30.5q-72 0 -170 -60q-23 -14 -23 -42v-320q0 -25 -25 -25h-44z" />
    <glyph glyph-name="napostrophe" unicode="&#x149;" horiz-adv-x="693" 
d="M-4 737q3 23 27 23h38q27 0 22 -27l-32 -157q-4 -22 -27 -22h-22q-27 0 -24 26zM106 0q-25 0 -25 25v470q0 25 25 25h18q23 0 28 -22l2 -8q9 -41 45 -18q95 58 196 58q86 0 133.5 -51t47.5 -146v-308q0 -25 -25 -25h-44q-25 0 -25 25v304q0 57 -29.5 87.5t-84.5 30.5
q-72 0 -170 -60q-23 -14 -23 -42v-320q0 -25 -25 -25h-44z" />
    <glyph glyph-name="Eng" unicode="&#x14a;" horiz-adv-x="815" 
d="M124 0q-25 0 -25 25v672q0 33 33 33h16q24 0 40 -18l416 -443q8 -9 15 -6t7 15v427q0 25 25 25h40q25 0 25 -25v-600q0 -135 -80.5 -215.5t-234.5 -86.5q-26 -2 -26 24v22q0 23 25 25q226 16 226 231v12q0 11 -9 22l-406 428q-8 9 -15 6t-7 -15v-533q0 -25 -25 -25h-40z
" />
    <glyph glyph-name="eng" unicode="&#x14b;" horiz-adv-x="651" 
d="M106 0q-25 0 -25 25v470q0 25 25 25h18q23 0 28 -22l4 -18q7 -30 34 -14q102 64 205 64q86 0 133.5 -51t47.5 -146v-395q0 -65 -37 -106.5t-96 -41.5q-31 0 -61 5q-22 4 -19 29l3 31q3 23 27 20q16 -2 25 -2q64 0 64 72v384q0 57 -29.5 87.5t-84.5 30.5q-76 0 -176 -64
q-17 -11 -17 -31v-327q0 -25 -25 -25h-44z" />
    <glyph glyph-name="Omacron" unicode="&#x14c;" horiz-adv-x="869" 
d="M288 859q0 25 25 25h242q25 0 25 -25v-27q0 -25 -25 -25h-242q-25 0 -25 25v27zM49 367q0 163 111.5 268t273.5 105q163 0 274.5 -105t111.5 -268q0 -165 -111.5 -271t-274.5 -106q-162 0 -273.5 106t-111.5 271zM149 367q0 -128 82 -209.5t203 -81.5t203.5 81.5
t82.5 209.5q0 126 -82.5 206.5t-203.5 80.5t-203 -80.5t-82 -206.5z" />
    <glyph glyph-name="omacron" unicode="&#x14d;" horiz-adv-x="641" 
d="M173 674q0 25 25 25h242q25 0 25 -25v-27q0 -25 -25 -25h-242q-25 0 -25 25v27zM45 263q0 113 78 190t198 77q119 0 197 -77t78 -190q0 -115 -78 -194t-197 -79q-120 0 -198 79t-78 194zM139 260q0 -80 51.5 -134.5t130.5 -54.5t130 54.5t51 134.5t-51 134.5t-130 54.5
t-130.5 -54.5t-51.5 -134.5z" />
    <glyph glyph-name="Ohungarumlaut" unicode="&#x150;" horiz-adv-x="869" 
d="M356 908q7 19 29 19l43 -1q15 0 19.5 -8.5t-3.5 -21.5l-59 -94q-11 -17 -30 -17h-19q-14 0 -19.5 8t-0.5 21zM515 908q7 19 29 19l43 -1q15 0 19.5 -8.5t-3.5 -21.5l-59 -94q-11 -17 -30 -17h-19q-14 0 -19.5 8t-0.5 21zM49 367q0 163 111.5 268t273.5 105
q163 0 274.5 -105t111.5 -268q0 -165 -111.5 -271t-274.5 -106q-162 0 -273.5 106t-111.5 271zM149 367q0 -128 82 -209.5t203 -81.5t203.5 81.5t82.5 209.5q0 126 -82.5 206.5t-203.5 80.5t-203 -80.5t-82 -206.5z" />
    <glyph glyph-name="ohungarumlaut" unicode="&#x151;" horiz-adv-x="641" 
d="M237 716q7 19 29 19l43 -1q15 0 19.5 -8.5t-3.5 -21.5l-59 -94q-11 -17 -30 -17h-19q-14 0 -19.5 8t-0.5 21zM396 716q7 19 29 19l43 -1q15 0 19.5 -8.5t-3.5 -21.5l-59 -94q-11 -17 -30 -17h-19q-14 0 -19.5 8t-0.5 21zM45 263q0 113 78 190t198 77q119 0 197 -77
t78 -190q0 -115 -78 -194t-197 -79q-120 0 -198 79t-78 194zM139 260q0 -80 51.5 -134.5t130.5 -54.5t130 54.5t51 134.5t-51 134.5t-130 54.5t-130.5 -54.5t-51.5 -134.5z" />
    <glyph glyph-name="OE" unicode="&#x152;" horiz-adv-x="1197" 
d="M1116 406q25 0 25 -25v-36q0 -25 -25 -25h-273q-26 0 -26 -26v-182q0 -26 26 -26h265q25 0 25 -25v-36q0 -25 -25 -25h-360q-28 0 -28 28v80q-110 -118 -286 -118q-162 0 -273.5 106t-111.5 271q0 163 111.5 268t273.5 105q175 0 286 -117v79q0 28 28 28h345q25 0 25 -25
v-36q0 -25 -25 -25h-250q-26 0 -26 -26v-186q0 -26 26 -26h273zM434 76q121 0 203.5 81.5t82.5 209.5q0 126 -82.5 206.5t-203.5 80.5t-203 -80.5t-82 -206.5q0 -128 82 -209.5t203 -81.5z" />
    <glyph glyph-name="oe" unicode="&#x153;" horiz-adv-x="1032" 
d="M45 263q0 113 78 190t198 77q114 0 191 -75q24 -23 48 1q72 74 188 74q99 0 169.5 -75t69.5 -179q0 -18 -12 -29t-32 -11h-335q-18 0 -27 -10t-4 -28q18 -59 63.5 -95t108.5 -36q46 0 81.5 21t51.5 56q9 20 28 20h39q13 0 19.5 -8t2.5 -20q-21 -64 -81.5 -105t-140.5 -41
q-118 0 -189 79q-25 23 -48 0q-76 -79 -191 -79q-120 0 -198 79t-78 194zM587 351q-7 -18 1.5 -29t27.5 -11l238 -1q19 0 28 11t2 28q-17 47 -53.5 75.5t-83.5 28.5q-53 0 -96.5 -27.5t-63.5 -74.5zM139 260q0 -80 51.5 -134.5t130.5 -54.5q55 0 100 26.5t65 72.5q9 21 5 45
q-4 20 -4 48q0 30 3 45q4 24 -5 45q-21 45 -65.5 70.5t-98.5 25.5q-79 0 -130.5 -54.5t-51.5 -134.5z" />
    <glyph glyph-name="Racute" unicode="&#x154;" horiz-adv-x="624" 
d="M374 915q24 8 31 -18l8 -37q6 -25 -19 -29l-184 -31q-23 -5 -31 18l-2 7q-6 22 17 31zM99 25v677q0 28 28 28h149q129 0 213 -67t84 -173q0 -91 -71.5 -156t-158.5 -70l-5 -1q-8 -2 -9.5 -8.5t6.5 -14.5l215 -210q12 -12 8.5 -21.5t-20.5 -9.5l-69 1q-18 0 -31 13
l-219 222q-8 9 -15 6t-7 -15v-201q0 -25 -25 -25h-48q-25 0 -25 25zM197 359q0 -18 18 -18h61q90 0 144 40.5t54 108.5q0 69 -54.5 111.5t-144.5 42.5h-60q-18 0 -18 -18v-267z" />
    <glyph glyph-name="racute" unicode="&#x155;" horiz-adv-x="413" 
d="M281 740q22 14 34 -10l17 -34q11 -23 -12 -33l-173 -72q-22 -10 -34 11l-3 6q-12 21 9 34zM106 0q-25 0 -25 25v470q0 25 25 25h18q22 0 27 -22l1 -5q5 -19 17 -23.5t29 7.5q80 53 148 53q18 0 33 -3q22 -4 19 -29l-5 -42q-3 -25 -29 -20q-16 3 -37 3q-55 0 -131 -58
q-21 -17 -21 -43v-313q0 -25 -25 -25h-44z" />
    <glyph glyph-name="Rcommaaccent" unicode="&#x156;" horiz-adv-x="624" 
d="M99 25v677q0 28 28 28h149q129 0 213 -67t84 -173q0 -91 -71.5 -156t-158.5 -70l-5 -1q-8 -2 -9.5 -8.5t6.5 -14.5l215 -210q12 -12 8.5 -21.5t-20.5 -9.5l-69 1q-18 0 -31 13l-219 222q-8 9 -15 6t-7 -15v-201q0 -25 -25 -25h-48q-25 0 -25 25zM197 359q0 -18 18 -18h61
q90 0 144 40.5t54 108.5q0 69 -54.5 111.5t-144.5 42.5h-60q-18 0 -18 -18v-267zM290 -56q3 23 27 23h43q29 0 21 -28l-41 -140q-6 -21 -28 -21h-21q-27 0 -22 27z" />
    <glyph glyph-name="rcommaaccent" unicode="&#x157;" horiz-adv-x="413" 
d="M106 0q-25 0 -25 25v470q0 25 25 25h18q22 0 27 -22l1 -5q5 -19 17 -23.5t29 7.5q80 53 148 53q18 0 33 -3q22 -4 19 -29l-5 -42q-3 -25 -29 -20q-16 3 -37 3q-55 0 -131 -58q-21 -17 -21 -43v-313q0 -25 -25 -25h-44zM79 -56q3 23 27 23h43q29 0 21 -28l-41 -140
q-6 -21 -28 -21h-21q-27 0 -22 27z" />
    <glyph glyph-name="Rcaron" unicode="&#x158;" horiz-adv-x="624" 
d="M135 885l5 17q6 22 28 14l105 -33q17 -6 35 0l105 33q22 7 28 -14l5 -17q7 -21 -12 -29l-117 -52q-27 -13 -55 0l-115 52q-20 8 -12 29zM99 25v677q0 28 28 28h149q129 0 213 -67t84 -173q0 -91 -71.5 -156t-158.5 -70l-5 -1q-8 -2 -9.5 -8.5t6.5 -14.5l215 -210
q12 -12 8.5 -21.5t-20.5 -9.5l-69 1q-18 0 -31 13l-219 222q-8 9 -15 6t-7 -15v-201q0 -25 -25 -25h-48q-25 0 -25 25zM197 359q0 -18 18 -18h61q90 0 144 40.5t54 108.5q0 69 -54.5 111.5t-144.5 42.5h-60q-18 0 -18 -18v-267z" />
    <glyph glyph-name="rcaron" unicode="&#x159;" horiz-adv-x="413" 
d="M58 693l5 16q6 22 28 14l103 -32q17 -6 35 0l103 32q22 7 28 -14l5 -16q7 -21 -12 -29l-115 -51q-27 -13 -54 0l-114 51q-19 8 -12 29zM106 0q-25 0 -25 25v470q0 25 25 25h18q22 0 27 -22l1 -5q5 -19 17 -23.5t29 7.5q80 53 148 53q18 0 33 -3q22 -4 19 -29l-5 -42
q-3 -25 -29 -20q-16 3 -37 3q-55 0 -131 -58q-21 -17 -21 -43v-313q0 -25 -25 -25h-44z" />
    <glyph glyph-name="Sacute" unicode="&#x15a;" horiz-adv-x="626" 
d="M404 915q24 8 31 -18l8 -37q6 -25 -19 -29l-184 -31q-23 -5 -31 18l-2 7q-6 22 17 31zM41 183q-4 13 1.5 20.5t19.5 7.5h48q20 0 28 -20q24 -56 72 -85t111 -29q67 0 111 32t44 80q0 36 -22 61.5t-58 40.5t-79 28.5t-85.5 30t-78.5 39.5t-58 63.5t-22 95.5q0 85 67 138.5
t173 53.5q95 0 160 -49.5t90 -133.5q4 -13 -2.5 -20.5t-19.5 -7.5h-46q-20 0 -28 20q-44 104 -154 104q-63 0 -102.5 -29t-39.5 -76q0 -51 41.5 -82.5t101 -50t119 -40t101 -67.5t41.5 -117q0 -89 -74 -145t-180 -56q-102 0 -175.5 51t-104.5 142z" />
    <glyph glyph-name="sacute" unicode="&#x15b;" horiz-adv-x="544" 
d="M338 740q22 14 34 -10l17 -34q11 -23 -12 -33l-173 -72q-22 -10 -34 11l-3 6q-12 21 9 34zM62 385q0 64 55.5 104.5t157.5 40.5q91 0 145 -41.5t67 -109.5q2 -12 -4.5 -19t-19.5 -7h-37q-21 0 -27 22q-20 80 -126 80q-58 0 -88.5 -19.5t-30.5 -49.5q0 -35 35.5 -54.5
t86 -28.5t101.5 -21.5t86.5 -47t35.5 -92.5q0 -72 -61 -112t-158 -40q-91 0 -156.5 40t-83.5 114q-5 27 23 27h39q21 0 28 -21q32 -85 152 -85q58 0 92 20t33 57q0 30 -26 48.5t-64 25.5t-83 17.5t-83 24t-63.5 46t-25.5 81.5z" />
    <glyph glyph-name="Scedilla" unicode="&#x15e;" horiz-adv-x="626" 
d="M353 -9l-4 -14q-4 -16 15 -20q32 -8 51 -29t19 -53q0 -44 -34 -69.5t-86 -25.5q-47 0 -83 21q-17 10 -7 31l1 6q9 18 31 9q25 -10 51 -10q50 0 50 36q0 38 -49 38h-8q-14 0 -21.5 8.5t-3.5 22.5l14 49q-90 8 -154.5 58t-93.5 134q-4 13 1.5 20.5t19.5 7.5h48q20 0 28 -20
q24 -56 72 -85t111 -29q67 0 111 32t44 80q0 36 -22 61.5t-58 40.5t-79 28.5t-85.5 30t-78.5 39.5t-58 63.5t-22 95.5q0 85 67 138.5t173 53.5q95 0 160 -49.5t90 -133.5q4 -13 -2.5 -20.5t-19.5 -7.5h-46q-20 0 -28 20q-44 104 -154 104q-63 0 -102.5 -29t-39.5 -76
q0 -51 41.5 -82.5t101 -50t119 -40t101 -67.5t41.5 -117q0 -82 -63.5 -136.5t-158.5 -63.5z" />
    <glyph glyph-name="scedilla" unicode="&#x15f;" horiz-adv-x="544" 
d="M298 -10l-4 -13q-4 -16 15 -20q32 -8 51 -29t19 -53q0 -44 -34 -69.5t-86 -25.5q-47 0 -83 21q-17 10 -7 31l1 6q9 18 31 9q25 -10 51 -10q50 0 50 36q0 38 -49 38h-8q-14 0 -21.5 8.5t-3.5 22.5l14 51q-74 9 -126 48t-68 103q-5 27 23 27h39q21 0 28 -21q32 -85 152 -85
q58 0 92 20t33 57q0 30 -26 48.5t-64 25.5t-83 17.5t-83 24t-63.5 46t-25.5 81.5q0 64 55.5 104.5t157.5 40.5q91 0 145 -41.5t67 -109.5q2 -12 -4.5 -19t-19.5 -7h-37q-21 0 -27 22q-20 80 -126 80q-58 0 -88.5 -19.5t-30.5 -49.5q0 -35 35.5 -54.5t86 -28.5t101.5 -21.5
t86.5 -47t35.5 -92.5q0 -68 -55.5 -108t-145.5 -44z" />
    <glyph glyph-name="Scaron" unicode="&#x160;" horiz-adv-x="626" 
d="M165 885l5 17q6 22 28 14l105 -33q17 -6 35 0l105 33q22 7 28 -14l5 -17q7 -21 -12 -29l-117 -52q-27 -13 -55 0l-115 52q-20 8 -12 29zM41 183q-4 13 1.5 20.5t19.5 7.5h48q20 0 28 -20q24 -56 72 -85t111 -29q67 0 111 32t44 80q0 36 -22 61.5t-58 40.5t-79 28.5
t-85.5 30t-78.5 39.5t-58 63.5t-22 95.5q0 85 67 138.5t173 53.5q95 0 160 -49.5t90 -133.5q4 -13 -2.5 -20.5t-19.5 -7.5h-46q-20 0 -28 20q-44 104 -154 104q-63 0 -102.5 -29t-39.5 -76q0 -51 41.5 -82.5t101 -50t119 -40t101 -67.5t41.5 -117q0 -89 -74 -145t-180 -56
q-102 0 -175.5 51t-104.5 142z" />
    <glyph glyph-name="scaron" unicode="&#x161;" horiz-adv-x="544" 
d="M115 693l5 16q6 22 28 14l103 -32q17 -6 35 0l103 32q22 7 28 -14l5 -16q7 -21 -12 -29l-115 -51q-27 -13 -54 0l-114 51q-19 8 -12 29zM62 385q0 64 55.5 104.5t157.5 40.5q91 0 145 -41.5t67 -109.5q2 -12 -4.5 -19t-19.5 -7h-37q-21 0 -27 22q-20 80 -126 80
q-58 0 -88.5 -19.5t-30.5 -49.5q0 -35 35.5 -54.5t86 -28.5t101.5 -21.5t86.5 -47t35.5 -92.5q0 -72 -61 -112t-158 -40q-91 0 -156.5 40t-83.5 114q-5 27 23 27h39q21 0 28 -21q32 -85 152 -85q58 0 92 20t33 57q0 30 -26 48.5t-64 25.5t-83 17.5t-83 24t-63.5 46
t-25.5 81.5z" />
    <glyph glyph-name="uni0162" unicode="&#x162;" horiz-adv-x="591" 
d="M551 730q25 0 25 -25v-42q0 -25 -25 -25h-182q-25 0 -25 -25v-588q0 -23 -24 -25l-6 -24q-4 -16 15 -20q70 -18 70 -82q0 -44 -34 -69.5t-86 -25.5q-47 0 -83 21q-17 10 -7 31l1 6q9 18 31 9q25 -10 51 -10q50 0 50 36q0 38 -49 38h-8q-14 0 -21.5 8.5t-3.5 22.5l17 60
q-15 6 -15 24v588q0 25 -25 25h-177q-25 0 -25 25v42q0 25 25 25h511z" />
    <glyph glyph-name="uni0163" unicode="&#x163;" horiz-adv-x="418" 
d="M396 40q3 -22 -18 -30q-55 -17 -106 -20l-4 -13q-4 -16 15 -20q32 -8 51 -29t19 -53q0 -44 -34 -69.5t-86 -25.5q-47 0 -83 21q-17 10 -7 31l1 6q9 18 31 9q25 -10 51 -10q50 0 50 36q0 38 -49 38h-8q-14 0 -21.5 8.5t-3.5 22.5l15 53q-106 24 -106 157v278q0 10 -10 10
h-42q-25 0 -25 25v30q0 25 25 25h45q10 0 10 10v92q0 22 21 28l42 11q13 4 20.5 -2.5t7.5 -19.5v-109q0 -10 10 -10h163q25 0 25 -25v-30q0 -25 -25 -25h-163q-10 0 -10 -10v-276q0 -81 72 -81q46 0 94 15q27 9 30 -18z" />
    <glyph glyph-name="Tcaron" unicode="&#x164;" horiz-adv-x="591" 
d="M136 885l5 17q6 22 28 14l105 -33q18 -6 35 0l105 33q22 7 28 -14l5 -17q7 -21 -12 -29l-117 -52q-27 -13 -55 0l-115 52q-20 8 -12 29zM40 638q-25 0 -25 25v42q0 25 25 25h511q25 0 25 -25v-42q0 -25 -25 -25h-182q-25 0 -25 -25v-588q0 -25 -25 -25h-52q-25 0 -25 25
v588q0 25 -25 25h-177z" />
    <glyph glyph-name="tcaron" unicode="&#x165;" horiz-adv-x="418" 
d="M312 600q24 0 27 23l26 172q3 27 -23 27h-31q-24 0 -26 -24l-15 -172q-2 -26 24 -26h18zM51 440q-25 0 -25 25v30q0 25 25 25h45q10 0 10 10v92q0 22 21 28l42 11q13 4 20.5 -2.5t7.5 -19.5v-109q0 -10 10 -10h163q25 0 25 -25v-30q0 -25 -25 -25h-163q-10 0 -10 -10
v-276q0 -81 72 -81q46 0 94 15q27 9 30 -18l3 -30q3 -22 -18 -30q-62 -20 -125 -20q-68 0 -109 39t-41 123v278q0 10 -10 10h-42z" />
    <glyph glyph-name="Tbar" unicode="&#x166;" horiz-adv-x="591" 
d="M551 730q25 0 25 -25v-42q0 -25 -25 -25h-182q-25 0 -25 -25v-208h100q26 0 26 -25v-24q0 -25 -26 -25h-100v-306q0 -25 -25 -25h-52q-25 0 -25 25v306h-98q-27 0 -27 25v24q0 25 27 25h98v208q0 25 -25 25h-177q-25 0 -25 25v42q0 25 25 25h511z" />
    <glyph glyph-name="tbar" unicode="&#x167;" horiz-adv-x="418" 
d="M396 40q3 -22 -18 -30q-62 -20 -125 -20q-68 0 -109 39t-41 123v101h-52q-25 0 -25 25v24q0 25 25 25h52v103q0 10 -10 10h-42q-25 0 -25 25v30q0 25 25 25h45q10 0 10 10v92q0 22 21 28l42 11q13 4 20.5 -2.5t7.5 -19.5v-109q0 -10 10 -10h163q25 0 25 -25v-30
q0 -25 -25 -25h-163q-10 0 -10 -10v-103h141q25 0 25 -25v-24q0 -25 -25 -25h-141v-99q0 -81 72 -81q46 0 94 15q27 9 30 -18z" />
    <glyph glyph-name="Utilde" unicode="&#x168;" horiz-adv-x="788" 
d="M542 890q26 -5 20 -29q-9 -34 -34 -52t-60 -18q-33 1 -74 22t-57 21q-26 0 -39 -16q-13 -19 -32 -15l-15 3q-26 5 -20 30q17 70 89 70q29 -1 75 -22.5t63 -21.5q26 0 38 15q14 20 31 16zM88 307v398q0 25 25 25h50q25 0 25 -25v-404q0 -98 57 -159.5t149 -61.5
q90 0 148 60.5t58 160.5v404q0 25 25 25h50q25 0 25 -25v-398q0 -139 -84.5 -228t-221.5 -89q-134 0 -220 87.5t-86 229.5z" />
    <glyph glyph-name="utilde" unicode="&#x169;" horiz-adv-x="631" 
d="M457 694q26 -5 20 -29q-9 -34 -34 -52t-60 -18q-33 1 -74 22t-57 21q-26 0 -39 -16q-13 -19 -32 -15l-15 3q-26 5 -20 30q17 70 89 70q29 -1 75 -22.5t63 -21.5q26 0 38 15q14 20 31 16zM76 187v308q0 25 25 25h44q25 0 25 -25v-304q0 -58 28 -88t81 -30q64 0 153 52
q24 13 24 41v329q0 25 25 25h44q25 0 25 -25v-470q0 -25 -25 -25h-17q-21 0 -27 22l-1 2q-9 39 -45 18q-93 -52 -183 -52q-83 0 -129.5 51t-46.5 146z" />
    <glyph glyph-name="Umacron" unicode="&#x16a;" horiz-adv-x="788" 
d="M248 859q0 25 25 25h242q25 0 25 -25v-27q0 -25 -25 -25h-242q-25 0 -25 25v27zM88 307v398q0 25 25 25h50q25 0 25 -25v-404q0 -98 57 -159.5t149 -61.5q90 0 148 60.5t58 160.5v404q0 25 25 25h50q25 0 25 -25v-398q0 -139 -84.5 -228t-221.5 -89q-134 0 -220 87.5
t-86 229.5z" />
    <glyph glyph-name="umacron" unicode="&#x16b;" horiz-adv-x="631" 
d="M169 674q0 25 25 25h242q25 0 25 -25v-27q0 -25 -25 -25h-242q-25 0 -25 25v27zM76 187v308q0 25 25 25h44q25 0 25 -25v-304q0 -58 28 -88t81 -30q64 0 153 52q24 13 24 41v329q0 25 25 25h44q25 0 25 -25v-470q0 -25 -25 -25h-17q-21 0 -27 22l-1 2q-9 39 -45 18
q-93 -52 -183 -52q-83 0 -129.5 51t-46.5 146z" />
    <glyph glyph-name="Uring" unicode="&#x16e;" horiz-adv-x="788" 
d="M393 766q-51 0 -82.5 30.5t-31.5 74.5q0 43 32 73.5t82 30.5q52 0 84 -30.5t32 -73.5q0 -45 -32 -75t-84 -30zM393 826q21 0 34.5 13t13.5 32t-13.5 32.5t-34.5 13.5q-20 0 -33 -13.5t-13 -32.5t13 -32t33 -13zM88 307v398q0 25 25 25h50q25 0 25 -25v-404
q0 -98 57 -159.5t149 -61.5q90 0 148 60.5t58 160.5v404q0 25 25 25h50q25 0 25 -25v-398q0 -139 -84.5 -228t-221.5 -89q-134 0 -220 87.5t-86 229.5z" />
    <glyph glyph-name="uring" unicode="&#x16f;" horiz-adv-x="631" 
d="M314 581q-51 0 -82.5 30.5t-31.5 74.5q0 43 32 73.5t82 30.5q52 0 84 -30.5t32 -73.5q0 -45 -32 -75t-84 -30zM314 641q21 0 34.5 13t13.5 32t-13.5 32.5t-34.5 13.5q-20 0 -33 -13.5t-13 -32.5t13 -32t33 -13zM76 187v308q0 25 25 25h44q25 0 25 -25v-304q0 -58 28 -88
t81 -30q64 0 153 52q24 13 24 41v329q0 25 25 25h44q25 0 25 -25v-470q0 -25 -25 -25h-17q-21 0 -27 22l-1 2q-9 39 -45 18q-93 -52 -183 -52q-83 0 -129.5 51t-46.5 146z" />
    <glyph glyph-name="Uhungarumlaut" unicode="&#x170;" horiz-adv-x="788" 
d="M316 908q7 19 29 19l43 -1q15 0 19.5 -8.5t-3.5 -21.5l-59 -94q-11 -17 -30 -17h-19q-14 0 -19.5 8t-0.5 21zM475 908q7 19 29 19l43 -1q15 0 19.5 -8.5t-3.5 -21.5l-59 -94q-11 -17 -30 -17h-19q-14 0 -19.5 8t-0.5 21zM88 307v398q0 25 25 25h50q25 0 25 -25v-404
q0 -98 57 -159.5t149 -61.5q90 0 148 60.5t58 160.5v404q0 25 25 25h50q25 0 25 -25v-398q0 -139 -84.5 -228t-221.5 -89q-134 0 -220 87.5t-86 229.5z" />
    <glyph glyph-name="uhungarumlaut" unicode="&#x171;" horiz-adv-x="631" 
d="M233 716q7 19 29 19l43 -1q15 0 19.5 -8.5t-3.5 -21.5l-59 -94q-11 -17 -30 -17h-19q-14 0 -19.5 8t-0.5 21zM392 716q7 19 29 19l43 -1q15 0 19.5 -8.5t-3.5 -21.5l-59 -94q-11 -17 -30 -17h-19q-14 0 -19.5 8t-0.5 21zM76 187v308q0 25 25 25h44q25 0 25 -25v-304
q0 -58 28 -88t81 -30q64 0 153 52q24 13 24 41v329q0 25 25 25h44q25 0 25 -25v-470q0 -25 -25 -25h-17q-21 0 -27 22l-1 2q-9 39 -45 18q-93 -52 -183 -52q-83 0 -129.5 51t-46.5 146z" />
    <glyph glyph-name="Uogonek" unicode="&#x172;" horiz-adv-x="788" 
d="M675 730q25 0 25 -25v-398q0 -119 -63 -202.5t-169 -106.5q-71 -45 -71 -117q0 -21 12 -32t32 -11q8 0 22 2q21 3 21 -17v-18q0 -17 -16 -21q-16 -5 -41 -5q-47 0 -76.5 25.5t-29.5 72.5q0 65 62 113q-130 4 -212.5 91.5t-82.5 225.5v398q0 25 25 25h50q25 0 25 -25v-404
q0 -98 57 -159.5t149 -61.5q90 0 148 60.5t58 160.5v404q0 25 25 25h50z" />
    <glyph glyph-name="uogonek" unicode="&#x173;" horiz-adv-x="631" 
d="M536 2q-73 -46 -73 -118q0 -21 12 -32t32 -11q8 0 22 2q21 3 21 -17v-18q0 -17 -16 -21q-16 -5 -41 -5q-47 0 -76.5 25.5t-29.5 72.5q0 40 25.5 76t70.5 59q-1 1 -1 3.5t-1 3.5l-1 2q-9 39 -45 18q-93 -52 -183 -52q-83 0 -129.5 51t-46.5 146v308q0 25 25 25h44
q25 0 25 -25v-304q0 -58 28 -88t81 -30q64 0 153 52q24 13 24 41v329q0 25 25 25h44q25 0 25 -25v-470q0 -18 -14 -23z" />
    <glyph glyph-name="Wcircumflex" unicode="&#x174;" horiz-adv-x="987" 
d="M337 826q-8 18 7 27l134 70q22 12 44 0l137 -70q16 -10 8 -27l-8 -18q-7 -16 -25 -10l-113 38q-21 7 -42 0l-109 -37q-18 -7 -25 9zM25 702q-8 28 21 28h52q22 0 28 -21l133 -516q4 -16 13.5 -16t13.5 15l158 516q7 22 31 22h45q25 0 31 -23l154 -519q3 -10 8.5 -14
t11.5 0t8 15l132 519q6 22 27 22h45q29 0 21 -28l-184 -679q-6 -23 -30 -23h-47q-25 0 -31 23l-153 527q-5 15 -14 15t-14 -15l-161 -528q-7 -22 -31 -22h-45q-24 0 -30 23z" />
    <glyph glyph-name="wcircumflex" unicode="&#x175;" horiz-adv-x="807" 
d="M244 639q-8 17 7 26l131 69q22 12 44 0l134 -69q16 -9 8 -26l-8 -18q-7 -16 -25 -10l-110 38q-21 7 -42 0l-106 -37q-18 -7 -25 9zM27 492q-8 28 21 28h42q22 0 28 -21l94 -354q2 -9 7.5 -12.5t10.5 -0.5t8 12l115 353q7 25 34 25h35q26 0 34 -25l114 -358q3 -9 8 -12
t10.5 0.5t7.5 12.5l95 359q6 21 28 21h41q28 0 20 -28l-140 -467q-7 -25 -34 -25h-48q-26 0 -34 25l-106 339q-3 9 -8 12.5t-10 0t-8 -12.5l-113 -339q-8 -25 -34 -25h-44q-27 0 -34 25z" />
    <glyph glyph-name="Ycircumflex" unicode="&#x176;" horiz-adv-x="641" 
d="M161 826q-8 18 7 27l134 70q22 12 44 0l137 -70q16 -10 8 -27l-8 -18q-7 -16 -25 -10l-113 38q-21 7 -42 0l-109 -37q-18 -7 -25 9zM22 700q-7 14 -2.5 22t19.5 8h59q20 0 30 -17l181 -325q6 -11 15 -11t15 11l181 325q10 17 30 17h45q14 0 19 -8t-2 -22l-234 -411
q-7 -14 -7 -28v-232q0 -29 -29 -29h-40q-29 0 -29 29v232q0 15 -7 28z" />
    <glyph glyph-name="ycircumflex" unicode="&#x177;" horiz-adv-x="559" 
d="M121 639q-8 17 7 26l131 69q22 12 44 0l134 -69q16 -9 8 -26l-8 -18q-7 -16 -25 -10l-110 38q-21 7 -42 0l-106 -37q-18 -7 -25 9zM26 491q-11 29 19 29h55q20 0 28 -20l144 -385q3 -8 8 -11.5t10 -0.5t8 12l140 385q8 20 28 20h48q30 0 19 -29l-220 -546
q-33 -81 -76.5 -119.5t-118.5 -38.5q-36 0 -70 9q-23 6 -19 30l4 23q5 25 29 20q30 -8 61 -8q42 0 68 25.5t47 77.5l15 36h-11q-17 0 -23 16z" />
    <glyph glyph-name="Ydieresis" unicode="&#x178;" horiz-adv-x="641" 
d="M220 785q-25 0 -43 18.5t-18 44.5q0 25 18 42.5t43 17.5q26 0 44 -17.5t18 -42.5q0 -26 -18 -44.5t-44 -18.5zM420 785q-26 0 -44 18.5t-18 44.5q0 25 18 42.5t44 17.5q25 0 43.5 -17.5t18.5 -42.5q0 -26 -18.5 -44.5t-43.5 -18.5zM22 700q-7 14 -2.5 22t19.5 8h59
q20 0 30 -17l181 -325q6 -11 15 -11t15 11l181 325q10 17 30 17h45q14 0 19 -8t-2 -22l-234 -411q-7 -14 -7 -28v-232q0 -29 -29 -29h-40q-29 0 -29 29v232q0 15 -7 28z" />
    <glyph glyph-name="Zacute" unicode="&#x179;" horiz-adv-x="658" 
d="M415 915q24 8 31 -18l8 -37q6 -25 -19 -29l-184 -31q-23 -5 -31 18l-2 7q-6 22 17 31zM46 0q-24 0 -24 23v6q0 16 10 30l418 550q10 14 5 24t-22 10h-366q-25 0 -25 25v37q0 25 25 25h526q24 0 24 -23v-6q0 -16 -10 -30l-418 -551q-10 -14 -5 -24t22 -10h403q25 0 25 -25
v-36q0 -25 -25 -25h-563z" />
    <glyph glyph-name="zacute" unicode="&#x17a;" horiz-adv-x="525" 
d="M335 740q22 14 34 -10l17 -34q11 -23 -12 -33l-173 -72q-22 -10 -34 11l-3 6q-12 21 9 34zM29 28q0 16 11 30l304 359q8 10 5 17.5t-16 7.5h-268q-25 0 -25 25v28q0 25 25 25h390q24 0 24 -24v-24q0 -16 -11 -30l-283 -339q-8 -11 -4.5 -18t16.5 -7h272q25 0 25 -25v-28
q0 -25 -25 -25h-415q-24 0 -25 24v4z" />
    <glyph glyph-name="Zdotaccent" unicode="&#x17b;" horiz-adv-x="658" 
d="M331 784q-29 0 -48.5 20t-19.5 49q0 27 20 46.5t48 19.5t48 -19.5t20 -46.5q0 -29 -20 -49t-48 -20zM46 0q-24 0 -24 23v6q0 16 10 30l418 550q10 14 5 24t-22 10h-366q-25 0 -25 25v37q0 25 25 25h526q24 0 24 -23v-6q0 -16 -10 -30l-418 -551q-10 -14 -5 -24t22 -10
h403q25 0 25 -25v-36q0 -25 -25 -25h-563z" />
    <glyph glyph-name="zdotaccent" unicode="&#x17c;" horiz-adv-x="525" 
d="M265 622q-29 0 -48.5 20t-19.5 49q0 27 20 46.5t48 19.5t48 -19.5t20 -46.5q0 -29 -20 -49t-48 -20zM29 28q0 16 11 30l304 359q8 10 5 17.5t-16 7.5h-268q-25 0 -25 25v28q0 25 25 25h390q24 0 24 -24v-24q0 -16 -11 -30l-283 -339q-8 -11 -4.5 -18t16.5 -7h272
q25 0 25 -25v-28q0 -25 -25 -25h-415q-24 0 -25 24v4z" />
    <glyph glyph-name="Zcaron" unicode="&#x17d;" horiz-adv-x="658" 
d="M176 885l5 17q6 22 28 14l105 -33q17 -6 35 0l105 33q22 7 28 -14l5 -17q7 -21 -12 -29l-117 -52q-27 -13 -55 0l-115 52q-20 8 -12 29zM46 0q-24 0 -24 23v6q0 16 10 30l418 550q10 14 5 24t-22 10h-366q-25 0 -25 25v37q0 25 25 25h526q24 0 24 -23v-6q0 -16 -10 -30
l-418 -551q-10 -14 -5 -24t22 -10h403q25 0 25 -25v-36q0 -25 -25 -25h-563z" />
    <glyph glyph-name="zcaron" unicode="&#x17e;" horiz-adv-x="525" 
d="M112 693l5 16q6 22 28 14l103 -32q17 -6 35 0l103 32q22 7 28 -14l5 -16q7 -21 -12 -29l-115 -51q-27 -13 -54 0l-114 51q-19 8 -12 29zM29 28q0 16 11 30l304 359q8 10 5 17.5t-16 7.5h-268q-25 0 -25 25v28q0 25 25 25h390q24 0 24 -24v-24q0 -16 -11 -30l-283 -339
q-8 -11 -4.5 -18t16.5 -7h272q25 0 25 -25v-28q0 -25 -25 -25h-415q-24 0 -25 24v4z" />
    <glyph glyph-name="uni01EA" unicode="&#x1ea;" horiz-adv-x="869" 
d="M504 -4q-68 -45 -68 -115q0 -21 12 -32t32 -11q8 0 22 2q21 3 21 -17v-18q0 -17 -16 -21q-16 -5 -41 -5q-47 0 -76.5 25.5t-29.5 72.5q0 65 62 113q-159 5 -266 110t-107 267q0 163 111.5 268t273.5 105q163 0 274.5 -105t111.5 -268q0 -146 -89 -247.5t-227 -123.5z
M149 367q0 -128 82 -209.5t203 -81.5t203.5 81.5t82.5 209.5q0 126 -82.5 206.5t-203.5 80.5t-203 -80.5t-82 -206.5z" />
    <glyph glyph-name="uni01EB" unicode="&#x1eb;" horiz-adv-x="641" 
d="M385 -3q-70 -44 -70 -116q0 -21 12 -32t32 -11q8 0 22 2q21 3 21 -17v-18q0 -17 -16 -21q-16 -5 -41 -5q-47 0 -76.5 25.5t-29.5 72.5q0 65 62 114q-112 7 -184 84.5t-72 187.5q0 113 78 190t198 77q119 0 197 -77t78 -190q0 -98 -58.5 -172t-152.5 -94zM139 260
q0 -80 51.5 -134.5t130.5 -54.5t130 54.5t51 134.5t-51 134.5t-130 54.5t-130.5 -54.5t-51.5 -134.5z" />
    <glyph glyph-name="AEacute" unicode="&#x1fc;" horiz-adv-x="959" 
d="M696 915q24 8 31 -18l8 -37q6 -25 -19 -29l-184 -31q-23 -5 -31 18l-2 7q-6 22 17 31zM13 0q-15 0 -20 8.5t3 21.5l420 684q9 16 29 16h410q25 0 25 -25v-35q0 -25 -25 -25h-257q-18 0 -18 -18v-201q0 -18 18 -18h280q25 0 25 -25v-35q0 -25 -25 -25h-280q-18 0 -18 -18
v-201q0 -18 18 -18h272q25 0 25 -25v-36q0 -25 -25 -25h-363q-24 0 -24 24v128q0 18 -18 18h-267q-14 0 -21 -12l-86 -141q-11 -17 -30 -17h-48zM254 285q-5 -9 -1.5 -15.5t13.5 -6.5h199q18 0 18 18v338q0 13 -7.5 15.5t-14.5 -9.5z" />
    <glyph glyph-name="aeacute" unicode="&#x1fd;" horiz-adv-x="951" 
d="M537 740q22 14 34 -10l17 -34q11 -23 -12 -33l-173 -72q-22 -10 -34 11l-3 6q-12 21 9 34zM41 131q0 74 59.5 117.5t160.5 43.5l115 -1q25 0 25 12v12q0 65 -33.5 98.5t-91.5 33.5q-45 0 -79.5 -21.5t-45.5 -55.5q-6 -22 -27 -22h-37q-29 0 -24 26q15 71 76 113.5
t141 42.5q109 0 165 -71q17 -20 34 -2q75 73 184 73q103 0 174.5 -75.5t69.5 -179.5q-1 -22 -9.5 -31t-28.5 -9l-348 1q-28 0 -23 -27q14 -63 59 -101t108 -38q49 0 84.5 20t50.5 54q9 20 29 20h38q13 0 19.5 -8t2.5 -20q-21 -64 -81 -105t-143 -41q-116 0 -191 81
q-17 19 -35 2q-100 -83 -217 -83q-80 0 -130.5 40.5t-50.5 100.5zM507 337q-5 -12 1 -20t20 -8l258 -1q31 0 20 34q-13 47 -51.5 77.5t-91.5 30.5q-51 0 -94 -30.5t-62 -82.5zM135 143q0 -33 28.5 -50.5t71.5 -17.5q86 0 170 68q15 12 10 28q-8 26 -10 31q-3 14 -23 14h-119
q-128 0 -128 -73z" />
    <glyph glyph-name="Oslashacute" unicode="&#x1fe;" horiz-adv-x="869" 
d="M324 818l-2 7q-6 22 17 31l180 59q24 8 31 -18l8 -37q6 -25 -19 -29l-184 -31q-23 -5 -31 18zM722 621q98 -103 98 -254q0 -165 -111.5 -271t-274.5 -106q-145 0 -250 85l-55 -56q-17 -19 -36 0l-14 14q-18 18 -1 36l55 56q-84 101 -84 242q0 163 111.5 268t273.5 105
q131 0 232 -70l39 40q17 19 36 0l16 -16q18 -18 1 -36zM149 367q0 -98 51 -173l401 410q-73 50 -167 50q-121 0 -203 -80.5t-82 -206.5zM434 76q121 0 203.5 81.5t82.5 209.5q0 109 -64 187l-407 -413q77 -65 185 -65z" />
    <glyph glyph-name="oslashacute" unicode="&#x1ff;" horiz-adv-x="641" 
d="M227 602l-3 6q-12 21 9 34l162 98q22 14 34 -10l17 -34q11 -23 -12 -33l-173 -72q-22 -10 -34 11zM539 430q57 -71 57 -167q0 -115 -78 -194t-197 -79q-98 0 -172 56l-37 -37q-21 -21 -42 0l-8 7q-22 21 0 43l37 37q-54 73 -54 167q0 113 78 190t198 77q92 0 165 -50
l31 30q21 21 42 0l9 -8q22 -22 0 -43zM139 260q0 -55 25 -99l260 257q-45 31 -103 31q-79 0 -130.5 -54.5t-51.5 -134.5zM321 71q79 0 130 54.5t51 134.5q0 61 -29 105l-262 -258q47 -36 110 -36z" />
    <glyph glyph-name="Scommaaccent" unicode="&#x218;" horiz-adv-x="626" 
d="M41 183q-4 13 1.5 20.5t19.5 7.5h48q20 0 28 -20q24 -56 72 -85t111 -29q67 0 111 32t44 80q0 36 -22 61.5t-58 40.5t-79 28.5t-85.5 30t-78.5 39.5t-58 63.5t-22 95.5q0 85 67 138.5t173 53.5q95 0 160 -49.5t90 -133.5q4 -13 -2.5 -20.5t-19.5 -7.5h-46q-20 0 -28 20
q-44 104 -154 104q-63 0 -102.5 -29t-39.5 -76q0 -51 41.5 -82.5t101 -50t119 -40t101 -67.5t41.5 -117q0 -89 -74 -145t-180 -56q-102 0 -175.5 51t-104.5 142zM281 -56q3 23 27 23h43q29 0 21 -28l-41 -140q-6 -21 -28 -21h-21q-27 0 -22 27z" />
    <glyph glyph-name="scommaaccent" unicode="&#x219;" horiz-adv-x="544" 
d="M62 385q0 64 55.5 104.5t157.5 40.5q91 0 145 -41.5t67 -109.5q2 -12 -4.5 -19t-19.5 -7h-37q-21 0 -27 22q-20 80 -126 80q-58 0 -88.5 -19.5t-30.5 -49.5q0 -35 35.5 -54.5t86 -28.5t101.5 -21.5t86.5 -47t35.5 -92.5q0 -72 -61 -112t-158 -40q-91 0 -156.5 40
t-83.5 114q-5 27 23 27h39q21 0 28 -21q32 -85 152 -85q58 0 92 20t33 57q0 30 -26 48.5t-64 25.5t-83 17.5t-83 24t-63.5 46t-25.5 81.5zM226 -56q3 23 27 23h43q29 0 21 -28l-41 -140q-6 -21 -28 -21h-21q-27 0 -22 27z" />
    <glyph glyph-name="uni021A" unicode="&#x21a;" horiz-adv-x="591" 
d="M40 638q-25 0 -25 25v42q0 25 25 25h511q25 0 25 -25v-42q0 -25 -25 -25h-182q-25 0 -25 -25v-588q0 -25 -25 -25h-52q-25 0 -25 25v588q0 25 -25 25h-177zM246 -57q3 23 27 23h43q29 0 21 -28l-41 -140q-6 -21 -28 -21h-21q-27 0 -22 27z" />
    <glyph glyph-name="uni021B" unicode="&#x21b;" horiz-adv-x="418" 
d="M51 440q-25 0 -25 25v30q0 25 25 25h45q10 0 10 10v92q0 22 21 28l42 11q13 4 20.5 -2.5t7.5 -19.5v-109q0 -10 10 -10h163q25 0 25 -25v-30q0 -25 -25 -25h-163q-10 0 -10 -10v-276q0 -81 72 -81q46 0 94 15q27 9 30 -18l3 -30q3 -22 -18 -30q-62 -20 -125 -20
q-68 0 -109 39t-41 123v278q0 10 -10 10h-42zM200 -56q3 23 27 23h43q29 0 21 -28l-41 -140q-6 -21 -28 -21h-21q-27 0 -22 27z" />
    <glyph glyph-name="uni0237" unicode="&#x237;" horiz-adv-x="267" 
d="M51 -210q-31 0 -61 5q-22 4 -19 29l3 31q3 23 27 20q16 -2 25 -2q63 0 63 72v550q0 25 25 25h44q25 0 25 -25v-557q0 -67 -36.5 -107.5t-95.5 -40.5z" />
    <glyph glyph-name="circumflex" unicode="&#x2c6;" horiz-adv-x="600" 
d="M179 639q-8 17 7 26l131 69q22 12 44 0l134 -69q16 -9 8 -26l-8 -18q-7 -16 -25 -10l-110 38q-21 7 -42 0l-106 -37q-18 -7 -25 9z" />
    <glyph glyph-name="caron" unicode="&#x2c7;" horiz-adv-x="600" 
d="M102 693l5 16q6 22 28 14l103 -32q18 -6 35 0l103 32q22 7 28 -14l5 -16q7 -21 -12 -29l-115 -51q-27 -13 -54 0l-114 51q-19 8 -12 29z" />
    <glyph glyph-name="breve" unicode="&#x2d8;" horiz-adv-x="600" 
d="M194 727q19 0 28 -20q20 -44 78 -44q57 0 79 44q10 20 29 20l28 -1q29 -2 22 -27q-15 -50 -58 -79t-100 -29q-55 0 -99.5 28.5t-59.5 79.5q-7 25 22 27z" />
    <glyph glyph-name="dotaccent" unicode="&#x2d9;" horiz-adv-x="301" 
d="M151 661q-25 0 -42.5 17.5t-17.5 43.5q0 24 17.5 41.5t42.5 17.5t42.5 -17.5t17.5 -41.5q0 -25 -17.5 -43t-42.5 -18z" />
    <glyph glyph-name="ring" unicode="&#x2da;" horiz-adv-x="600" 
d="M155 581q-51 0 -82.5 30.5t-31.5 74.5q0 43 32 73.5t82 30.5q52 0 84 -30.5t32 -73.5q0 -45 -32 -75t-84 -30zM155 641q21 0 34.5 13t13.5 32t-13.5 32.5t-34.5 13.5q-20 0 -33 -13.5t-13 -32.5t13 -32t33 -13z" />
    <glyph glyph-name="ogonek" unicode="&#x2db;" horiz-adv-x="600" 
d="M367 -194q0 -17 -16 -21q-16 -5 -41 -5q-47 0 -76.5 25.5t-29.5 72.5q0 45 32 84t87 62l32 -23q-75 -45 -75 -119q0 -21 12 -32t32 -11q8 0 22 2q21 3 21 -17v-18z" />
    <glyph glyph-name="tilde" unicode="&#x2dc;" horiz-adv-x="600" 
d="M423 694q26 -5 20 -29q-9 -34 -34 -52t-60 -18q-33 1 -74 22t-57 21q-26 0 -39 -16q-13 -19 -32 -15l-15 3q-26 5 -20 30q17 70 89 70q29 -1 75 -22.5t63 -21.5q26 0 38 15q14 20 31 16z" />
    <glyph glyph-name="hungarumlaut" unicode="&#x2dd;" horiz-adv-x="600" 
d="M233 716q7 19 29 19l43 -1q15 0 19.5 -8.5t-3.5 -21.5l-59 -94q-11 -17 -30 -17h-19q-14 0 -19.5 8t-0.5 21zM392 716q7 19 29 19l43 -1q15 0 19.5 -8.5t-3.5 -21.5l-59 -94q-11 -17 -30 -17h-19q-14 0 -19.5 8t-0.5 21z" />
    <glyph glyph-name="gravecomb" unicode="&#x300;" 
d="M-374 738q11 24 34 9l165 -100q21 -13 10 -34l-4 -7q-11 -22 -33 -12l-177 76q-23 10 -12 33z" />
    <glyph glyph-name="acutecomb" unicode="&#x301;" 
d="M-221 740q22 14 34 -10l17 -34q11 -23 -12 -33l-173 -72q-22 -10 -34 11l-3 6q-12 21 9 34z" />
    <glyph glyph-name="uni0302" unicode="&#x302;" 
d="M-415 639q-8 17 7 26l131 69q22 12 44 0l134 -69q16 -9 8 -26l-8 -18q-7 -16 -25 -10l-110 38q-21 7 -42 0l-106 -37q-18 -7 -25 9z" />
    <glyph glyph-name="tildecomb" unicode="&#x303;" 
d="M-142 694q26 -5 20 -29q-9 -34 -34 -52t-60 -18q-33 1 -74 22t-57 21q-26 0 -39 -16q-13 -19 -32 -15l-15 3q-26 5 -20 30q17 70 89 70q29 -1 75 -22.5t63 -21.5q26 0 38 15q14 20 31 16z" />
    <glyph glyph-name="uni0304" unicode="&#x304;" 
d="M-433 674q0 25 25 25h242q25 0 25 -25v-27q0 -25 -25 -25h-242q-25 0 -25 25v27z" />
    <glyph glyph-name="uni0306" unicode="&#x306;" 
d="M-417 727q19 0 28 -20q20 -44 78 -44q57 0 79 44q10 20 29 20l28 -1q29 -2 22 -27q-15 -50 -58 -79t-100 -29q-55 0 -99.5 28.5t-59.5 79.5q-7 25 22 27z" />
    <glyph glyph-name="uni0307" unicode="&#x307;" 
d="M-142 622q-29 0 -48.5 20t-19.5 49q0 27 20 46.5t48 19.5t48 -19.5t20 -46.5q0 -29 -20 -49t-48 -20z" />
    <glyph glyph-name="uni0308" unicode="&#x308;" 
d="M-313 619q-24 0 -41 17.5t-17 42.5q0 23 17 40t41 17t41.5 -17t17.5 -40q0 -25 -17.5 -42.5t-41.5 -17.5zM-123 619q-24 0 -41.5 17.5t-17.5 42.5q0 23 17.5 40t41.5 17t41.5 -17t17.5 -40q0 -25 -17.5 -42.5t-41.5 -17.5z" />
    <glyph glyph-name="uni030A" unicode="&#x30a;" 
d="M-156 581q-51 0 -82.5 30.5t-31.5 74.5q0 43 32 73.5t82 30.5q52 0 84 -30.5t32 -73.5q0 -45 -32 -75t-84 -30zM-156 641q21 0 34.5 13t13.5 32t-13.5 32.5t-34.5 13.5q-20 0 -33 -13.5t-13 -32.5t13 -32t33 -13z" />
    <glyph glyph-name="uni030B" unicode="&#x30b;" 
d="M-367 716q7 19 29 19l43 -1q15 0 19.5 -8.5t-3.5 -21.5l-59 -94q-11 -17 -30 -17h-19q-14 0 -19.5 8t-0.5 21zM-208 716q7 19 29 19l43 -1q15 0 19.5 -8.5t-3.5 -21.5l-59 -94q-11 -17 -30 -17h-19q-14 0 -19.5 8t-0.5 21z" />
    <glyph glyph-name="uni030C" unicode="&#x30c;" 
d="M-409 693l5 16q6 22 28 14l103 -32q18 -6 35 0l103 32q22 7 28 -14l5 -16q7 -21 -12 -29l-115 -51q-27 -13 -54 0l-114 51q-19 8 -12 29z" />
    <glyph glyph-name="uni0312" unicode="&#x312;" 
 />
    <glyph glyph-name="uni0326" unicode="&#x326;" 
d="M-127 -56q3 23 27 23h43q29 0 21 -28l-41 -140q-6 -21 -28 -21h-21q-27 0 -22 27z" />
    <glyph glyph-name="uni0327" unicode="&#x327;" 
d="M-339 -89q-14 0 -21.5 8.5t-3.5 22.5l17 61h64l-7 -26q-4 -16 15 -20q32 -8 51 -29t19 -53q0 -44 -34 -69.5t-86 -25.5q-47 0 -83 21q-17 10 -7 31l1 6q9 18 31 9q25 -10 51 -10q50 0 50 36q0 38 -49 38h-8z" />
    <glyph glyph-name="uni0328" unicode="&#x328;" 
d="M-233 -194q0 -17 -16 -21q-16 -5 -41 -5q-47 0 -76.5 25.5t-29.5 72.5q0 45 32 84t87 62l32 -23q-75 -45 -75 -119q0 -21 12 -32t32 -11q8 0 22 2q21 3 21 -17v-18z" />
    <glyph glyph-name="uni0335" unicode="&#x335;" 
d="M-383 414q0 25 25 25h287q25 0 25 -25v-24q0 -25 -25 -25h-287q-25 0 -25 25v24z" />
    <glyph glyph-name="uni0336" unicode="&#x336;" 
d="M-801 408q0 25 25 25h736q25 0 25 -25v-15q0 -25 -25 -25h-736q-25 0 -25 25v15z" />
    <glyph glyph-name="uni0337" unicode="&#x337;" 
d="M-94 500q27 11 39 -15l7 -15q12 -28 -15 -40l-252 -108q-29 -13 -40 16l-6 15q-11 29 16 40z" />
    <glyph glyph-name="uni0338" unicode="&#x338;" 
d="M-85 518q21 21 42 0l9 -8q22 -22 0 -43l-456 -450q-21 -21 -42 0l-8 7q-22 21 0 43z" />
    <glyph glyph-name="Wgrave" unicode="&#x1e80;" horiz-adv-x="987" 
d="M372 901q6 25 32 15l181 -64q23 -9 17 -32l-2 -7q-6 -24 -30 -19l-189 39q-24 6 -18 30zM25 702q-8 28 21 28h52q22 0 28 -21l133 -516q4 -16 13.5 -16t13.5 15l158 516q7 22 31 22h45q25 0 31 -23l154 -519q3 -10 8.5 -14t11.5 0t8 15l132 519q6 22 27 22h45
q29 0 21 -28l-184 -679q-6 -23 -30 -23h-47q-25 0 -31 23l-153 527q-5 15 -14 15t-14 -15l-161 -528q-7 -22 -31 -22h-45q-24 0 -30 23z" />
    <glyph glyph-name="wgrave" unicode="&#x1e81;" horiz-adv-x="807" 
d="M300 738q11 24 34 9l165 -100q21 -13 10 -34l-4 -7q-11 -22 -33 -12l-177 76q-23 10 -12 33zM27 492q-8 28 21 28h42q22 0 28 -21l94 -354q2 -9 7.5 -12.5t10.5 -0.5t8 12l115 353q7 25 34 25h35q26 0 34 -25l114 -358q3 -9 8 -12t10.5 0.5t7.5 12.5l95 359q6 21 28 21
h41q28 0 20 -28l-140 -467q-7 -25 -34 -25h-48q-26 0 -34 25l-106 339q-3 9 -8 12.5t-10 0t-8 -12.5l-113 -339q-8 -25 -34 -25h-44q-27 0 -34 25z" />
    <glyph glyph-name="Wacute" unicode="&#x1e82;" horiz-adv-x="987" 
d="M585 915q24 8 31 -18l8 -37q6 -25 -19 -29l-184 -31q-23 -5 -31 18l-2 7q-6 22 17 31zM25 702q-8 28 21 28h52q22 0 28 -21l133 -516q4 -16 13.5 -16t13.5 15l158 516q7 22 31 22h45q25 0 31 -23l154 -519q3 -10 8.5 -14t11.5 0t8 15l132 519q6 22 27 22h45q29 0 21 -28
l-184 -679q-6 -23 -30 -23h-47q-25 0 -31 23l-153 527q-5 15 -14 15t-14 -15l-161 -528q-7 -22 -31 -22h-45q-24 0 -30 23z" />
    <glyph glyph-name="wacute" unicode="&#x1e83;" horiz-adv-x="807" 
d="M474 740q22 14 34 -10l17 -34q11 -23 -12 -33l-173 -72q-22 -10 -34 11l-3 6q-12 21 9 34zM27 492q-8 28 21 28h42q22 0 28 -21l94 -354q2 -9 7.5 -12.5t10.5 -0.5t8 12l115 353q7 25 34 25h35q26 0 34 -25l114 -358q3 -9 8 -12t10.5 0.5t7.5 12.5l95 359q6 21 28 21h41
q28 0 20 -28l-140 -467q-7 -25 -34 -25h-48q-26 0 -34 25l-106 339q-3 9 -8 12.5t-10 0t-8 -12.5l-113 -339q-8 -25 -34 -25h-44q-27 0 -34 25z" />
    <glyph glyph-name="Wdieresis" unicode="&#x1e84;" horiz-adv-x="987" 
d="M396 785q-25 0 -43 18.5t-18 44.5q0 25 18 42.5t43 17.5q26 0 44 -17.5t18 -42.5q0 -26 -18 -44.5t-44 -18.5zM596 785q-26 0 -44 18.5t-18 44.5q0 25 18 42.5t44 17.5q25 0 43.5 -17.5t18.5 -42.5q0 -26 -18.5 -44.5t-43.5 -18.5zM25 702q-8 28 21 28h52q22 0 28 -21
l133 -516q4 -16 13.5 -16t13.5 15l158 516q7 22 31 22h45q25 0 31 -23l154 -519q3 -10 8.5 -14t11.5 0t8 15l132 519q6 22 27 22h45q29 0 21 -28l-184 -679q-6 -23 -30 -23h-47q-25 0 -31 23l-153 527q-5 15 -14 15t-14 -15l-161 -528q-7 -22 -31 -22h-45q-24 0 -30 23z" />
    <glyph glyph-name="wdieresis" unicode="&#x1e85;" horiz-adv-x="807" 
d="M309 619q-24 0 -41 17.5t-17 42.5q0 23 17 40t41 17t41.5 -17t17.5 -40q0 -25 -17.5 -42.5t-41.5 -17.5zM499 619q-24 0 -41.5 17.5t-17.5 42.5q0 23 17.5 40t41.5 17t41.5 -17t17.5 -40q0 -25 -17.5 -42.5t-41.5 -17.5zM27 492q-8 28 21 28h42q22 0 28 -21l94 -354
q2 -9 7.5 -12.5t10.5 -0.5t8 12l115 353q7 25 34 25h35q26 0 34 -25l114 -358q3 -9 8 -12t10.5 0.5t7.5 12.5l95 359q6 21 28 21h41q28 0 20 -28l-140 -467q-7 -25 -34 -25h-48q-26 0 -34 25l-106 339q-3 9 -8 12.5t-10 0t-8 -12.5l-113 -339q-8 -25 -34 -25h-44
q-27 0 -34 25z" />
    <glyph glyph-name="uni1E9E" unicode="&#x1e9e;" horiz-adv-x="777" 
d="M118 0q-25 0 -25 25v398q0 144 84 230.5t217 86.5q86 0 151.5 -34t101.5 -90q16 -26 -3 -54l-124 -171q99 0 161 -57.5t63 -144.5q1 -89 -65 -144t-166 -55q-86 0 -152.5 42.5t-91.5 112.5q-4 13 1.5 20.5t19.5 7.5h51q20 0 29 -20q17 -36 55 -57t88 -21q63 0 97.5 33
t34.5 81q0 55 -42 90.5t-101 35.5h-57q-33 0 -33 33v10q0 21 13 41l112 167q13 21 -3 35q-53 49 -140 49q-90 0 -145.5 -60.5t-55.5 -160.5v-404q0 -25 -25 -25h-50z" />
    <glyph glyph-name="Ygrave" unicode="&#x1ef2;" horiz-adv-x="641" 
d="M196 901q6 25 32 15l181 -64q23 -9 17 -32l-2 -7q-6 -24 -30 -19l-189 39q-24 6 -18 30zM22 700q-7 14 -2.5 22t19.5 8h59q20 0 30 -17l181 -325q6 -11 15 -11t15 11l181 325q10 17 30 17h45q14 0 19 -8t-2 -22l-234 -411q-7 -14 -7 -28v-232q0 -29 -29 -29h-40
q-29 0 -29 29v232q0 15 -7 28z" />
    <glyph glyph-name="ygrave" unicode="&#x1ef3;" horiz-adv-x="559" 
d="M177 738q11 24 34 9l165 -100q21 -13 10 -34l-4 -7q-11 -22 -33 -12l-177 76q-22 10 -12 33zM26 491q-11 29 19 29h55q20 0 28 -20l144 -385q3 -8 8 -11.5t10 -0.5t8 12l140 385q8 20 28 20h48q30 0 19 -29l-220 -546q-33 -81 -76.5 -119.5t-118.5 -38.5q-36 0 -70 9
q-23 6 -19 30l4 23q5 25 29 20q30 -8 61 -8q42 0 68 25.5t47 77.5l15 36h-11q-17 0 -23 16z" />
    <glyph glyph-name="uni1EF8" unicode="&#x1ef8;" horiz-adv-x="641" 
d="M473 890q26 -5 20 -29q-9 -34 -34 -52t-60 -18q-33 1 -74 22t-57 21q-26 0 -39 -16q-13 -19 -32 -15l-15 3q-26 5 -20 30q17 70 89 70q29 -1 75 -22.5t63 -21.5q26 0 38 15q14 20 31 16zM22 700q-7 14 -2.5 22t19.5 8h59q20 0 30 -17l181 -325q6 -11 15 -11t15 11
l181 325q10 17 30 17h45q14 0 19 -8t-2 -22l-234 -411q-7 -14 -7 -28v-232q0 -29 -29 -29h-40q-29 0 -29 29v232q0 15 -7 28z" />
    <glyph glyph-name="uni1EF9" unicode="&#x1ef9;" horiz-adv-x="559" 
d="M423 694q26 -5 20 -29q-9 -34 -34 -52t-60 -18q-33 1 -74 22t-57 21q-26 0 -39 -16q-13 -19 -32 -15l-15 3q-26 5 -20 30q17 70 89 70q29 -1 75 -22.5t63 -21.5q26 0 38 15q14 20 31 16zM26 491q-11 29 19 29h55q20 0 28 -20l144 -385q3 -8 8 -11.5t10 -0.5t8 12l140 385
q8 20 28 20h48q30 0 19 -29l-220 -546q-33 -81 -76.5 -119.5t-118.5 -38.5q-36 0 -70 9q-23 6 -19 30l4 23q5 25 29 20q30 -8 61 -8q42 0 68 25.5t47 77.5l15 36h-11q-17 0 -23 16z" />
    <glyph glyph-name="endash" unicode="&#x2013;" horiz-adv-x="608" 
d="M503 307q35 0 35 -35v-6q0 -35 -35 -35h-399q-35 0 -35 35v6q0 35 35 35h399z" />
    <glyph glyph-name="emdash" unicode="&#x2014;" horiz-adv-x="733" 
d="M628 307q35 0 35 -35v-6q0 -35 -35 -35h-524q-35 0 -35 35v6q0 35 35 35h524z" />
    <glyph glyph-name="quoteleft" unicode="&#x2018;" horiz-adv-x="222" 
d="M147 536q-3 -23 -27 -23h-38q-27 0 -22 27l32 157q4 22 27 22h22q27 0 24 -26z" />
    <glyph glyph-name="quoteright" unicode="&#x2019;" horiz-adv-x="214" 
d="M78 717q3 23 27 23h38q27 0 22 -27l-32 -157q-4 -22 -27 -22h-22q-27 0 -24 26z" />
    <glyph glyph-name="quotesinglbase" unicode="&#x201a;" horiz-adv-x="222" 
d="M70 89q3 23 27 23h38q27 0 22 -27l-32 -157q-4 -22 -27 -22h-22q-27 0 -24 26z" />
    <glyph glyph-name="quotedblleft" unicode="&#x201c;" horiz-adv-x="387" 
d="M147 536q-3 -23 -27 -23h-38q-27 0 -22 27l32 157q4 22 27 22h22q27 0 24 -26zM311 536q-3 -23 -27 -23h-38q-27 0 -22 27l32 157q4 22 27 22h22q27 0 24 -26z" />
    <glyph glyph-name="quotedblright" unicode="&#x201d;" horiz-adv-x="379" 
d="M78 717q3 23 27 23h38q27 0 22 -27l-32 -157q-4 -22 -27 -22h-22q-27 0 -24 26zM242 717q3 23 27 23h38q27 0 22 -27l-32 -157q-4 -22 -27 -22h-22q-27 0 -24 26z" />
    <glyph glyph-name="quotedblbase" unicode="&#x201e;" horiz-adv-x="386" 
d="M70 89q3 23 27 23h38q27 0 22 -27l-32 -157q-4 -22 -27 -22h-22q-27 0 -24 26zM234 89q3 23 27 23h38q27 0 22 -27l-32 -157q-4 -22 -27 -22h-22q-27 0 -24 26z" />
    <glyph glyph-name="dagger" unicode="&#x2020;" horiz-adv-x="552" 
d="M39 469v32q0 25 25 25h143q27 0 27 27l-2 202q0 25 25 25h38q25 0 25 -25l-2 -202q0 -27 27 -27h143q25 0 25 -25v-32q0 -25 -25 -25h-144q-27 0 -27 -27l-4 -452q0 -25 -25 -25h-24q-25 0 -25 25l-4 452q0 27 -27 27h-144q-25 0 -25 25z" />
    <glyph glyph-name="daggerdbl" unicode="&#x2021;" horiz-adv-x="552" 
d="M39 306v29q0 25 25 25h144q27 0 27 27v65q0 27 -27 27h-144q-25 0 -25 25v29q0 25 25 25h143q27 0 27 27l-2 170q0 25 25 25h38q25 0 25 -25l-2 -170q0 -27 27 -27h143q25 0 25 -25v-29q0 -25 -25 -25h-144q-27 0 -27 -27v-65q0 -27 27 -27h144q25 0 25 -25v-29
q0 -25 -25 -25h-145q-27 0 -27 -27l-3 -289q0 -25 -25 -25h-24q-25 0 -25 25l-3 289q0 27 -27 27h-145q-25 0 -25 25z" />
    <glyph glyph-name="bullet" unicode="&#x2022;" horiz-adv-x="420" 
d="M210 165q-54 0 -92 39t-38 95q0 51 38.5 88.5t91.5 37.5t91.5 -37.5t38.5 -88.5q0 -56 -38 -95t-92 -39z" />
    <glyph glyph-name="ellipsis" unicode="&#x2026;" horiz-adv-x="719" 
d="M128 -10q-28 0 -48.5 21t-20.5 50q0 28 20 47.5t49 19.5t49 -19.5t20 -47.5q0 -29 -20.5 -50t-48.5 -21zM362 -10q-28 0 -48.5 21t-20.5 50q0 28 20 47.5t49 19.5t49 -19.5t20 -47.5q0 -29 -20.5 -50t-48.5 -21zM603 -10q-28 0 -48.5 21t-20.5 50q0 28 20 47.5t49 19.5
t49 -19.5t20 -47.5q0 -29 -20.5 -50t-48.5 -21z" />
    <glyph glyph-name="perthousand" unicode="&#x2030;" horiz-adv-x="1298" 
d="M374 549q0 -85 -47.5 -138t-122.5 -53t-122.5 53t-47.5 138t47.5 138t122.5 53t122.5 -53t47.5 -138zM646 720q24 -10 13 -33l-323 -667q-10 -22 -33 -12l-29 13q-23 11 -12 33l325 664q11 23 33 13zM204 430q44 0 69 31t25 88t-25 88t-69 31t-69 -31t-25 -88t25 -88
t69 -31zM705 372q75 0 122.5 -53.5t47.5 -137.5t-47.5 -137.5t-122.5 -53.5t-122.5 53.5t-47.5 137.5t47.5 137.5t122.5 53.5zM1094 372q75 0 122.5 -53.5t47.5 -137.5q0 -85 -47.5 -138t-122.5 -53q-74 0 -121.5 53t-47.5 138q0 84 47.5 137.5t121.5 53.5zM705 62
q43 0 67.5 31.5t24.5 87.5t-24.5 87.5t-67.5 31.5t-67.5 -31.5t-24.5 -87.5t24.5 -87.5t67.5 -31.5zM1094 62q44 0 68.5 31t24.5 88q0 56 -24.5 87t-68.5 31t-68.5 -31t-24.5 -87q0 -57 24.5 -88t68.5 -31z" />
    <glyph glyph-name="guilsinglleft" unicode="&#x2039;" horiz-adv-x="316" 
d="M138 293q-22 -18 0 -36l89 -69q21 -17 21 -42v-20q0 -22 -13 -28t-30 8l-139 112q-20 17 -20 42v27q0 26 20 43l139 113q17 14 30 8t13 -28v-18q0 -25 -21 -42z" />
    <glyph glyph-name="guilsinglright" unicode="&#x203a;" horiz-adv-x="316" 
d="M111 105q-17 -14 -30 -9.5t-13 24.5v27q0 25 21 42l90 68q23 19 0 36l-90 70q-21 15 -21 42v18q0 22 13 28t30 -8l140 -113q20 -17 20 -43v-27q0 -25 -20 -42z" />
    <glyph glyph-name="fraction" unicode="&#x2044;" horiz-adv-x="349" 
d="M31 -10q-17 0 -23.5 9.5t-0.5 25.5l259 684q8 24 34 24h19q17 0 23.5 -9.5t0.5 -25.5l-259 -684q-8 -24 -34 -24h-19z" />
    <glyph glyph-name="Euro" unicode="&#x20ac;" horiz-adv-x="787" 
d="M37 256l2 12q4 23 27 23h37q16 0 14 14v14v13q0 15 -14 15h-20q-28 0 -23 27l2 11q5 23 27 23h24q14 0 17 13q29 106 113 167.5t204 61.5q95 0 172 -53.5t105 -135.5q4 -13 -1.5 -20.5t-19.5 -7.5h-47q-21 0 -28 20q-22 49 -71 80t-110 31q-75 0 -131 -37t-81 -102
q-7 -17 12 -17h248q28 0 23 -27l-2 -11q-5 -23 -27 -23h-257q-15 0 -16 -13v-13v-16q2 -14 16 -14h238q28 0 23 -27l-2 -12q-3 -23 -27 -23h-217q-19 0 -12 -17q25 -64 78.5 -100t127.5 -36q65 0 115.5 28.5t73.5 77.5q9 19 29 19h44q14 0 19.5 -7.5t1.5 -20.5
q-27 -80 -103.5 -131.5t-179.5 -51.5q-113 0 -197 60.5t-113 165.5q-4 13 -17 13h-55q-27 0 -22 27z" />
    <glyph glyph-name="trademark" unicode="&#x2122;" horiz-adv-x="778" 
d="M35 694v12q0 25 25 25h243q25 0 25 -25v-12q0 -25 -25 -25h-52q-34 0 -34 -30v-210q0 -25 -25 -25h-24q-25 0 -25 25l1 210q0 30 -34 30h-50q-25 0 -25 25zM357 429v277q0 25 25 25h12q20 0 30 -16l85 -127q7 -11 17 -11t17 11l87 127q10 16 30 16h11q25 0 25 -25v-277
q0 -25 -25 -25h-15q-25 0 -25 25v175l-72 -103q-11 -15 -29 -15h-5q-18 0 -29 15l-75 106v-178q0 -25 -25 -25h-14q-25 0 -25 25z" />
    <glyph glyph-name="minus" unicode="&#x2212;" horiz-adv-x="542" 
d="M445 303q25 0 25 -25v-28q0 -25 -25 -25h-348q-25 0 -25 25v28q0 25 25 25h348z" />
    <glyph glyph-name="approxequal" unicode="&#x2248;" horiz-adv-x="552" 
d="M461 419q24 -7 18 -30q-9 -37 -39 -59.5t-74 -21.5q-39 1 -89 22.5t-72 21.5q-41 0 -58 -27q-14 -20 -31 -15l-22 6q-24 7 -21 28q6 40 34 64t70 23q37 -1 92 -24t79 -23q42 0 60 26q14 20 32 15zM461 199q24 -7 18 -30q-9 -37 -39 -59.5t-74 -21.5q-39 1 -89 22.5
t-72 21.5q-41 0 -58 -27q-14 -20 -31 -15l-22 6q-24 7 -21 28q6 40 34 64t70 23q37 -1 92 -24t79 -23q42 0 60 26q14 20 32 15z" />
    <glyph glyph-name="notequal" unicode="&#x2260;" horiz-adv-x="524" 
d="M73 154v27q0 25 25 25h98q20 0 25 19l17 60q6 25 -19 25h-121q-25 0 -25 25v27q0 25 25 25h149q19 0 24 19l19 66q6 21 28 21h21q29 0 21 -28l-15 -53q-6 -25 19 -25h62q25 0 25 -25v-27q0 -25 -25 -25h-90q-20 0 -24 -19l-17 -60q-6 -25 19 -25h112q25 0 25 -25v-27
q0 -25 -25 -25h-140q-20 0 -24 -19l-21 -74q-6 -21 -28 -21h-22q-29 0 -21 28l17 61q6 25 -19 25h-70q-25 0 -25 25z" />
    <glyph glyph-name="uniF8FF" unicode="&#xf8ff;" horiz-adv-x="1170" 
d="M300 573q0 22 -22 22h-58v102q0 11 -7 18t-18 7q-25 0 -25 -25v-146h108q22 0 22 22zM316 636q0 -38 26.5 -63t66.5 -25t66 25t26 63t-26 62t-66 24t-66.5 -24.5t-26.5 -61.5zM617 600q0 -9 -20 -9q-13 0 -26 6t-20 6q-22 0 -22 -20q0 -35 66 -35q32 0 51.5 14.5
t19.5 39.5q0 22 -13 35t-28 16t-28 7t-13 10q0 10 16 10q10 0 24 -5.5t21 -5.5q20 0 20 19q0 17 -17.5 25.5t-42.5 8.5q-34 0 -52 -14.5t-18 -39.5q0 -21 13 -33t28 -15t28 -7.5t13 -12.5zM449 636q0 -19 -11 -30.5t-29 -11.5t-30 12t-12 30t11.5 29.5t30.5 11.5
q18 0 29 -11.5t11 -29.5zM505 285h32v146q0 11 -7.5 18t-18.5 7t-18 -7t-7 -18v-63l-81 85h-32v-146q0 -11 7 -18.5t18 -7.5t18.5 7.5t7.5 18.5v63zM1038 334q0 -10 -20 -10q-13 0 -26 6.5t-19 6.5q-22 0 -22 -21q0 -16 18 -25.5t47 -9.5q33 0 52.5 14.5t19.5 39.5
q0 22 -13 35t-28 16t-28 7t-13 11q0 9 16 9q9 0 23.5 -5.5t21.5 -5.5q20 0 20 19q0 17 -17.5 26t-42.5 9q-71 0 -71 -54q0 -21 13 -33.5t28 -15.5t28 -7.5t13 -11.5zM312 281q14 0 20 11t0 25l-65 136h-40l-66 -136q-7 -14 0 -25t21 -11q19 0 25 15l5 13h70l5 -13
q6 -15 25 -15zM751 369q0 38 -25 61t-66 23h-75v-168h75q41 0 66 23t25 61zM912 369q0 9 -6 15t-16 6h-48v20h58q21 0 21 22q0 21 -21 21h-109v-168h109q21 0 21 20q0 21 -21 21h-58v23h48q22 0 22 20zM700 368q0 -18 -11 -29t-30 -11h-23v80h23q19 0 30 -11t11 -29z
M268 343h-42l21 51zM209 22q0 -11 7 -18t18 -7t18.5 7t7.5 18v104h35q10 0 17 6.5t7 15.5q0 10 -6.5 16t-17.5 6h-122q-22 0 -22 -22q0 -9 6 -15.5t16 -6.5h36v-104zM506 169h-57l-30 -59l-31 59h-58l62 -100v-47q0 -11 7.5 -18t18.5 -7t18 7t7 18v47zM606 42q32 0 50.5 18
t18.5 46q0 27 -18.5 45t-50.5 18h-74v-147q0 -11 8 -18t19 -7t17.5 7t6.5 18v20h23zM831 85q0 9 -6 15t-16 6h-48v20h58q22 0 22 22q0 21 -22 21h-109v-169h109q22 0 22 21q0 22 -22 22h-58v22h48q22 0 22 20zM602 84h-19v44h19q25 0 25 -22t-25 -22z" />
    <glyph glyph-name="uni00A40301" horiz-adv-x="683" 
d="M488 915q24 8 31 -18l8 -37q6 -25 -19 -29l-184 -31q-23 -5 -31 18l-2 7q-6 22 17 31zM23 223q-3 27 24 27h44q22 0 27 -23q16 -69 67 -107.5t130 -38.5q82 0 131 54.5t49 137.5l1 339q0 28 -28 28h-240q-25 0 -25 25v40q0 25 25 25h330q35 0 35 -35v-422
q0 -121 -76 -202t-202 -81q-120 0 -197 64.5t-95 168.5z" />
    <glyph glyph-name="A.ss01" horiz-adv-x="713" 
d="M41 0q-14 0 -19.5 8t1.5 22l291 578q7 13 1 27l-35 76q-6 13 -0.5 21t19.5 8h42q21 0 30 -19l319 -692q13 -29 -18 -29h-51q-20 0 -29 19l-55 121q-5 12 -18 12h-323q-13 0 -19 -12l-59 -122q-9 -18 -29 -18h-48zM237 264q-4 -8 -0.5 -13.5t12.5 -5.5h220q21 0 13 19
l-107 238q-5 9 -11 9.5t-11 -9.5z" />
    <glyph glyph-name="Aacute.ss01" horiz-adv-x="713" 
d="M430 915q24 8 31 -18l8 -37q6 -25 -19 -29l-184 -31q-23 -5 -31 18l-2 7q-6 22 17 31zM41 0q-14 0 -19.5 8t1.5 22l291 578q7 13 1 27l-35 76q-6 13 -0.5 21t19.5 8h42q21 0 30 -19l319 -692q13 -29 -18 -29h-51q-20 0 -29 19l-55 121q-5 12 -18 12h-323q-13 0 -19 -12
l-59 -122q-9 -18 -29 -18h-48zM237 264q-4 -8 -0.5 -13.5t12.5 -5.5h220q21 0 13 19l-107 238q-5 9 -11 9.5t-11 -9.5z" />
    <glyph glyph-name="Abreve.ss01" horiz-adv-x="713" 
d="M245 915q19 0 28 -20q20 -44 78 -44q57 0 79 44q10 20 29 20l28 -1q29 -2 22 -27q-15 -50 -58 -79t-100 -29q-55 0 -99.5 28.5t-59.5 79.5q-7 25 22 27zM41 0q-14 0 -19.5 8t1.5 22l291 578q7 13 1 27l-35 76q-6 13 -0.5 21t19.5 8h42q21 0 30 -19l319 -692
q13 -29 -18 -29h-51q-20 0 -29 19l-55 121q-5 12 -18 12h-323q-13 0 -19 -12l-59 -122q-9 -18 -29 -18h-48zM237 264q-4 -8 -0.5 -13.5t12.5 -5.5h220q21 0 13 19l-107 238q-5 9 -11 9.5t-11 -9.5z" />
    <glyph glyph-name="Acircumflex.ss01" horiz-adv-x="713" 
d="M182 826q-8 18 7 27l134 70q22 12 44 0l137 -70q16 -10 8 -27l-8 -18q-7 -16 -25 -10l-113 38q-21 7 -42 0l-109 -37q-18 -7 -25 9zM41 0q-14 0 -19.5 8t1.5 22l291 578q7 13 1 27l-35 76q-6 13 -0.5 21t19.5 8h42q21 0 30 -19l319 -692q13 -29 -18 -29h-51q-20 0 -29 19
l-55 121q-5 12 -18 12h-323q-13 0 -19 -12l-59 -122q-9 -18 -29 -18h-48zM237 264q-4 -8 -0.5 -13.5t12.5 -5.5h220q21 0 13 19l-107 238q-5 9 -11 9.5t-11 -9.5z" />
    <glyph glyph-name="Adieresis.ss01" horiz-adv-x="713" 
d="M241 785q-25 0 -43 18.5t-18 44.5q0 25 18 42.5t43 17.5q26 0 44 -17.5t18 -42.5q0 -26 -18 -44.5t-44 -18.5zM441 785q-26 0 -44 18.5t-18 44.5q0 25 18 42.5t44 17.5q25 0 43.5 -17.5t18.5 -42.5q0 -26 -18.5 -44.5t-43.5 -18.5zM41 0q-14 0 -19.5 8t1.5 22l291 578
q7 13 1 27l-35 76q-6 13 -0.5 21t19.5 8h42q21 0 30 -19l319 -692q13 -29 -18 -29h-51q-20 0 -29 19l-55 121q-5 12 -18 12h-323q-13 0 -19 -12l-59 -122q-9 -18 -29 -18h-48zM237 264q-4 -8 -0.5 -13.5t12.5 -5.5h220q21 0 13 19l-107 238q-5 9 -11 9.5t-11 -9.5z" />
    <glyph glyph-name="Agrave.ss01" horiz-adv-x="713" 
d="M217 901q6 25 32 15l181 -64q23 -9 17 -32l-2 -7q-6 -24 -30 -19l-189 39q-24 6 -18 30zM41 0q-14 0 -19.5 8t1.5 22l291 578q7 13 1 27l-35 76q-6 13 -0.5 21t19.5 8h42q21 0 30 -19l319 -692q13 -29 -18 -29h-51q-20 0 -29 19l-55 121q-5 12 -18 12h-323q-13 0 -19 -12
l-59 -122q-9 -18 -29 -18h-48zM237 264q-4 -8 -0.5 -13.5t12.5 -5.5h220q21 0 13 19l-107 238q-5 9 -11 9.5t-11 -9.5z" />
    <glyph glyph-name="Amacron.ss01" horiz-adv-x="713" 
d="M200 859q0 25 25 25h242q25 0 25 -25v-27q0 -25 -25 -25h-242q-25 0 -25 25v27zM41 0q-14 0 -19.5 8t1.5 22l291 578q7 13 1 27l-35 76q-6 13 -0.5 21t19.5 8h42q21 0 30 -19l319 -692q13 -29 -18 -29h-51q-20 0 -29 19l-55 121q-5 12 -18 12h-323q-13 0 -19 -12
l-59 -122q-9 -18 -29 -18h-48zM237 264q-4 -8 -0.5 -13.5t12.5 -5.5h220q21 0 13 19l-107 238q-5 9 -11 9.5t-11 -9.5z" />
    <glyph glyph-name="Aogonek.ss01" horiz-adv-x="713" 
d="M671 -159q21 3 21 -17v-18q0 -17 -16 -21q-16 -5 -41 -5q-47 0 -76.5 25.5t-29.5 72.5q0 74 78 125q-9 5 -15 16l-55 121q-5 12 -18 12h-323q-13 0 -19 -12l-59 -122q-9 -18 -29 -18h-48q-14 0 -19.5 8t1.5 22l291 578q7 13 1 27l-35 76q-6 13 -0.5 21t19.5 8h42
q21 0 30 -19l319 -692q12 -25 -11 -28q-74 -46 -74 -119q0 -21 12 -32t32 -11q8 0 22 2zM469 245q21 0 13 19l-107 238q-5 9 -11 9.5t-11 -9.5l-116 -238q-4 -8 -0.5 -13.5t12.5 -5.5h220z" />
    <glyph glyph-name="Aring.ss01" horiz-adv-x="713" 
d="M345 766q-51 0 -82.5 30.5t-31.5 74.5q0 43 32 73.5t82 30.5q52 0 84 -30.5t32 -73.5q0 -45 -32 -75t-84 -30zM345 826q21 0 34.5 13t13.5 32t-13.5 32.5t-34.5 13.5q-20 0 -33 -13.5t-13 -32.5t13 -32t33 -13zM41 0q-14 0 -19.5 8t1.5 22l291 578q7 13 1 27l-35 76
q-6 13 -0.5 21t19.5 8h42q21 0 30 -19l319 -692q13 -29 -18 -29h-51q-20 0 -29 19l-55 121q-5 12 -18 12h-323q-13 0 -19 -12l-59 -122q-9 -18 -29 -18h-48zM237 264q-4 -8 -0.5 -13.5t12.5 -5.5h220q21 0 13 19l-107 238q-5 9 -11 9.5t-11 -9.5z" />
    <glyph glyph-name="Atilde.ss01" horiz-adv-x="713" 
d="M494 890q26 -5 20 -29q-9 -34 -34 -52t-60 -18q-33 1 -74 22t-57 21q-26 0 -39 -16q-13 -19 -32 -15l-15 3q-26 5 -20 30q17 70 89 70q29 -1 75 -22.5t63 -21.5q26 0 38 15q14 20 31 16zM41 0q-14 0 -19.5 8t1.5 22l291 578q7 13 1 27l-35 76q-6 13 -0.5 21t19.5 8h42
q21 0 30 -19l319 -692q13 -29 -18 -29h-51q-20 0 -29 19l-55 121q-5 12 -18 12h-323q-13 0 -19 -12l-59 -122q-9 -18 -29 -18h-48zM237 264q-4 -8 -0.5 -13.5t12.5 -5.5h220q21 0 13 19l-107 238q-5 9 -11 9.5t-11 -9.5z" />
    <glyph glyph-name="E.ss01" horiz-adv-x="575" 
d="M127 0q-28 0 -28 28v674q0 28 28 28h345q25 0 25 -25v-36q0 -25 -25 -25h-250q-26 0 -26 -26v-186q0 -26 26 -26h273q25 0 25 -25v-36q0 -25 -25 -25h-273q-26 0 -26 -26v-182q0 -26 26 -26h265q25 0 25 -25v-36q0 -25 -25 -25h-360z" />
    <glyph glyph-name="Eacute.ss01" horiz-adv-x="575" 
d="M399 915q24 8 31 -18l8 -37q6 -25 -19 -29l-184 -31q-23 -5 -31 18l-2 7q-6 22 17 31zM127 0q-28 0 -28 28v674q0 28 28 28h345q25 0 25 -25v-36q0 -25 -25 -25h-250q-26 0 -26 -26v-186q0 -26 26 -26h273q25 0 25 -25v-36q0 -25 -25 -25h-273q-26 0 -26 -26v-182
q0 -26 26 -26h265q25 0 25 -25v-36q0 -25 -25 -25h-360z" />
    <glyph glyph-name="Ecaron.ss01" horiz-adv-x="575" 
d="M160 885l5 17q6 22 28 14l105 -33q18 -6 35 0l105 33q22 7 28 -14l5 -17q7 -21 -12 -29l-117 -52q-27 -13 -55 0l-115 52q-20 8 -12 29zM127 0q-28 0 -28 28v674q0 28 28 28h345q25 0 25 -25v-36q0 -25 -25 -25h-250q-26 0 -26 -26v-186q0 -26 26 -26h273q25 0 25 -25
v-36q0 -25 -25 -25h-273q-26 0 -26 -26v-182q0 -26 26 -26h265q25 0 25 -25v-36q0 -25 -25 -25h-360z" />
    <glyph glyph-name="Ecircumflex.ss01" horiz-adv-x="575" 
d="M151 826q-8 18 7 27l134 70q22 12 44 0l137 -70q16 -10 8 -27l-8 -18q-7 -16 -25 -10l-113 38q-21 7 -42 0l-109 -37q-18 -7 -25 9zM127 0q-28 0 -28 28v674q0 28 28 28h345q25 0 25 -25v-36q0 -25 -25 -25h-250q-26 0 -26 -26v-186q0 -26 26 -26h273q25 0 25 -25v-36
q0 -25 -25 -25h-273q-26 0 -26 -26v-182q0 -26 26 -26h265q25 0 25 -25v-36q0 -25 -25 -25h-360z" />
    <glyph glyph-name="Edieresis.ss01" horiz-adv-x="575" 
d="M210 785q-25 0 -43 18.5t-18 44.5q0 25 18 42.5t43 17.5q26 0 44 -17.5t18 -42.5q0 -26 -18 -44.5t-44 -18.5zM410 785q-26 0 -44 18.5t-18 44.5q0 25 18 42.5t44 17.5q25 0 43.5 -17.5t18.5 -42.5q0 -26 -18.5 -44.5t-43.5 -18.5zM127 0q-28 0 -28 28v674q0 28 28 28
h345q25 0 25 -25v-36q0 -25 -25 -25h-250q-26 0 -26 -26v-186q0 -26 26 -26h273q25 0 25 -25v-36q0 -25 -25 -25h-273q-26 0 -26 -26v-182q0 -26 26 -26h265q25 0 25 -25v-36q0 -25 -25 -25h-360z" />
    <glyph glyph-name="Edotaccent.ss01" horiz-adv-x="575" 
d="M315 784q-29 0 -48.5 20t-19.5 49q0 27 20 46.5t48 19.5t48 -19.5t20 -46.5q0 -29 -20 -49t-48 -20zM127 0q-28 0 -28 28v674q0 28 28 28h345q25 0 25 -25v-36q0 -25 -25 -25h-250q-26 0 -26 -26v-186q0 -26 26 -26h273q25 0 25 -25v-36q0 -25 -25 -25h-273
q-26 0 -26 -26v-182q0 -26 26 -26h265q25 0 25 -25v-36q0 -25 -25 -25h-360z" />
    <glyph glyph-name="Egrave.ss01" horiz-adv-x="575" 
d="M186 901q6 25 32 15l181 -64q23 -9 17 -32l-2 -7q-6 -24 -30 -19l-189 39q-24 6 -18 30zM127 0q-28 0 -28 28v674q0 28 28 28h345q25 0 25 -25v-36q0 -25 -25 -25h-250q-26 0 -26 -26v-186q0 -26 26 -26h273q25 0 25 -25v-36q0 -25 -25 -25h-273q-26 0 -26 -26v-182
q0 -26 26 -26h265q25 0 25 -25v-36q0 -25 -25 -25h-360z" />
    <glyph glyph-name="Emacron.ss01" horiz-adv-x="575" 
d="M169 859q0 25 25 25h242q25 0 25 -25v-27q0 -25 -25 -25h-242q-25 0 -25 25v27zM127 0q-28 0 -28 28v674q0 28 28 28h345q25 0 25 -25v-36q0 -25 -25 -25h-250q-26 0 -26 -26v-186q0 -26 26 -26h273q25 0 25 -25v-36q0 -25 -25 -25h-273q-26 0 -26 -26v-182q0 -26 26 -26
h265q25 0 25 -25v-36q0 -25 -25 -25h-360z" />
    <glyph glyph-name="Eogonek.ss01" horiz-adv-x="575" 
d="M495 406q25 0 25 -25v-36q0 -25 -25 -25h-273q-26 0 -26 -26v-182q0 -26 26 -26h265q25 0 25 -25v-36q0 -18 -15 -24q-74 -44 -74 -118q0 -21 12 -32t32 -11q8 0 22 2q21 3 21 -17v-18q0 -17 -16 -21q-16 -5 -41 -5q-47 0 -76.5 25.5t-29.5 72.5q0 71 72 121h-292
q-28 0 -28 28v674q0 28 28 28h345q25 0 25 -25v-36q0 -25 -25 -25h-250q-26 0 -26 -26v-186q0 -26 26 -26h273z" />
    <glyph glyph-name="G.ss01" horiz-adv-x="847" 
d="M784 344q25 0 25 -25v-35q0 -25 -25 -25h-22q-22 -123 -113 -196t-222 -73q-157 0 -267.5 106.5t-110.5 271.5q0 163 109.5 267.5t266.5 104.5q131 0 224.5 -74t114.5 -186q5 -27 -23 -27h-45q-22 0 -27 23q-19 79 -84 126t-160 47q-115 0 -195.5 -79t-80.5 -205
t81.5 -205t196.5 -79q197 0 246 178h-196q-25 0 -25 25v35q0 25 25 25h307z" />
    <glyph glyph-name="Gbreve.ss01" horiz-adv-x="847" 
d="M431 779q-55 0 -99.5 28.5t-59.5 79.5q-7 25 22 27l31 1q19 0 28 -20q20 -44 78 -44q57 0 79 44q10 20 29 20l28 -1q29 -2 22 -27q-15 -50 -58 -79t-100 -29zM784 344q25 0 25 -25v-35q0 -25 -25 -25h-22q-22 -123 -113 -196t-222 -73q-157 0 -267.5 106.5t-110.5 271.5
q0 163 109.5 267.5t266.5 104.5q131 0 224.5 -74t114.5 -186q5 -27 -23 -27h-45q-22 0 -27 23q-19 79 -84 126t-160 47q-115 0 -195.5 -79t-80.5 -205t81.5 -205t196.5 -79q197 0 246 178h-196q-25 0 -25 25v35q0 25 25 25h307z" />
    <glyph glyph-name="Gcommaaccent.ss01" horiz-adv-x="847" 
d="M784 344q25 0 25 -25v-35q0 -25 -25 -25h-22q-22 -123 -113 -196t-222 -73q-157 0 -267.5 106.5t-110.5 271.5q0 163 109.5 267.5t266.5 104.5q131 0 224.5 -74t114.5 -186q5 -27 -23 -27h-45q-22 0 -27 23q-19 79 -84 126t-160 47q-115 0 -195.5 -79t-80.5 -205
t81.5 -205t196.5 -79q197 0 246 178h-196q-25 0 -25 25v35q0 25 25 25h307zM450 -33q29 0 21 -28l-41 -140q-6 -21 -28 -21h-21q-27 0 -22 27l21 139q3 23 27 23h43z" />
    <glyph glyph-name="Gdotaccent.ss01" horiz-adv-x="847" 
d="M426 784q-29 0 -48.5 20t-19.5 49q0 27 20 46.5t48 19.5t48 -19.5t20 -46.5q0 -29 -20 -49t-48 -20zM784 344q25 0 25 -25v-35q0 -25 -25 -25h-22q-22 -123 -113 -196t-222 -73q-157 0 -267.5 106.5t-110.5 271.5q0 163 109.5 267.5t266.5 104.5q131 0 224.5 -74
t114.5 -186q5 -27 -23 -27h-45q-22 0 -27 23q-19 79 -84 126t-160 47q-115 0 -195.5 -79t-80.5 -205t81.5 -205t196.5 -79q197 0 246 178h-196q-25 0 -25 25v35q0 25 25 25h307z" />
    <glyph glyph-name="I.ss01" horiz-adv-x="398" 
d="M68 0q-25 0 -25 25v35q0 25 25 25h66q16 0 16 16v527q0 16 -16 16h-66q-25 0 -25 25v36q0 25 25 25h262q25 0 25 -25v-36q0 -25 -25 -25h-66q-16 0 -16 -16v-527q0 -16 16 -16h66q25 0 25 -25v-35q0 -25 -25 -25h-262z" />
    <glyph glyph-name="Iacute.ss01" horiz-adv-x="398" 
d="M285 915q24 8 31 -18l8 -37q6 -25 -19 -29l-184 -31q-23 -5 -31 18l-2 7q-6 22 17 31zM68 0q-25 0 -25 25v35q0 25 25 25h66q16 0 16 16v527q0 16 -16 16h-66q-25 0 -25 25v36q0 25 25 25h262q25 0 25 -25v-36q0 -25 -25 -25h-66q-16 0 -16 -16v-527q0 -16 16 -16h66
q25 0 25 -25v-35q0 -25 -25 -25h-262z" />
    <glyph glyph-name="Icircumflex.ss01" horiz-adv-x="398" 
d="M37 826q-8 18 7 27l134 70q22 12 44 0l137 -70q16 -10 8 -27l-8 -18q-7 -16 -25 -10l-113 38q-21 7 -42 0l-109 -37q-18 -7 -25 9zM68 0q-25 0 -25 25v35q0 25 25 25h66q16 0 16 16v527q0 16 -16 16h-66q-25 0 -25 25v36q0 25 25 25h262q25 0 25 -25v-36q0 -25 -25 -25
h-66q-16 0 -16 -16v-527q0 -16 16 -16h66q25 0 25 -25v-35q0 -25 -25 -25h-262z" />
    <glyph glyph-name="Idieresis.ss01" horiz-adv-x="398" 
d="M96 785q-25 0 -43 18.5t-18 44.5q0 25 18 42.5t43 17.5q26 0 44 -17.5t18 -42.5q0 -26 -18 -44.5t-44 -18.5zM296 785q-26 0 -44 18.5t-18 44.5q0 25 18 42.5t44 17.5q25 0 43.5 -17.5t18.5 -42.5q0 -26 -18.5 -44.5t-43.5 -18.5zM68 0q-25 0 -25 25v35q0 25 25 25h66
q16 0 16 16v527q0 16 -16 16h-66q-25 0 -25 25v36q0 25 25 25h262q25 0 25 -25v-36q0 -25 -25 -25h-66q-16 0 -16 -16v-527q0 -16 16 -16h66q25 0 25 -25v-35q0 -25 -25 -25h-262z" />
    <glyph glyph-name="Idotaccent.ss01" horiz-adv-x="398" 
d="M201 784q-29 0 -48.5 20t-19.5 49q0 27 20 46.5t48 19.5t48 -19.5t20 -46.5q0 -29 -20 -49t-48 -20zM68 0q-25 0 -25 25v35q0 25 25 25h66q16 0 16 16v527q0 16 -16 16h-66q-25 0 -25 25v36q0 25 25 25h262q25 0 25 -25v-36q0 -25 -25 -25h-66q-16 0 -16 -16v-527
q0 -16 16 -16h66q25 0 25 -25v-35q0 -25 -25 -25h-262z" />
    <glyph glyph-name="Igrave.ss01" horiz-adv-x="398" 
d="M72 901q6 25 32 15l181 -64q23 -9 17 -32l-2 -7q-6 -24 -30 -19l-189 39q-24 6 -18 30zM68 0q-25 0 -25 25v35q0 25 25 25h66q16 0 16 16v527q0 16 -16 16h-66q-25 0 -25 25v36q0 25 25 25h262q25 0 25 -25v-36q0 -25 -25 -25h-66q-16 0 -16 -16v-527q0 -16 16 -16h66
q25 0 25 -25v-35q0 -25 -25 -25h-262z" />
    <glyph glyph-name="Imacron.ss01" horiz-adv-x="398" 
d="M55 859q0 25 25 25h242q25 0 25 -25v-27q0 -25 -25 -25h-242q-25 0 -25 25v27zM68 0q-25 0 -25 25v35q0 25 25 25h66q16 0 16 16v527q0 16 -16 16h-66q-25 0 -25 25v36q0 25 25 25h262q25 0 25 -25v-36q0 -25 -25 -25h-66q-16 0 -16 -16v-527q0 -16 16 -16h66
q25 0 25 -25v-35q0 -25 -25 -25h-262z" />
    <glyph glyph-name="Iogonek.ss01" horiz-adv-x="398" 
d="M264 644q-16 0 -16 -16v-527q0 -16 16 -16h66q25 0 25 -25v-35q0 -25 -25 -25h-85q-75 -45 -75 -119q0 -21 12 -32t32 -11q8 0 22 2q21 3 21 -17v-18q0 -17 -16 -21q-16 -5 -41 -5q-47 0 -76.5 25.5t-29.5 72.5q0 74 75 123h-101q-25 0 -25 25v35q0 25 25 25h66
q16 0 16 16v527q0 16 -16 16h-66q-25 0 -25 25v36q0 25 25 25h262q25 0 25 -25v-36q0 -25 -25 -25h-66z" />
    <glyph glyph-name="Itilde.ss01" horiz-adv-x="398" 
d="M349 890q26 -5 20 -29q-9 -34 -34 -52t-60 -18q-33 1 -74 22t-57 21q-26 0 -39 -16q-13 -19 -32 -15l-15 3q-26 5 -20 30q17 70 89 70q29 -1 75 -22.5t63 -21.5q26 0 38 15q14 20 31 16zM68 0q-25 0 -25 25v35q0 25 25 25h66q16 0 16 16v527q0 16 -16 16h-66
q-25 0 -25 25v36q0 25 25 25h262q25 0 25 -25v-36q0 -25 -25 -25h-66q-16 0 -16 -16v-527q0 -16 16 -16h66q25 0 25 -25v-35q0 -25 -25 -25h-262z" />
    <glyph glyph-name="J.ss01" horiz-adv-x="483" 
d="M370 730q25 0 25 -25l-1 -420q0 -143 -88 -228t-260 -92q-26 0 -26 25v40q0 24 25 26q128 5 190 65t62 164v420q0 25 25 25h48z" />
    <glyph glyph-name="uni00A40301.ss01" horiz-adv-x="483" 
d="M424 915q24 8 31 -18l8 -37q6 -25 -19 -29l-184 -31q-23 -5 -31 18l-2 7q-6 22 17 31zM370 730q25 0 25 -25l-1 -420q0 -143 -88 -228t-260 -92q-26 0 -26 25v40q0 24 25 26q128 5 190 65t62 164v420q0 25 25 25h48z" />
    <glyph glyph-name="K.ss01" horiz-adv-x="683" 
d="M99 25v680q0 25 25 25h48q25 0 25 -25v-680q0 -25 -25 -25h-48q-25 0 -25 25zM245 334q-10 13 -10 28v12q0 15 10 28l264 314q11 14 31 14h59q16 0 20 -9.5t-6 -21.5l-268 -318q-8 -11 0 -22l219 -260q13 -16 34 -16h61q25 0 25 -25v-33q0 -25 -25 -25h-117q-21 0 -34 16
z" />
    <glyph glyph-name="Kcommaaccent.ss01" horiz-adv-x="683" 
d="M99 25v680q0 25 25 25h48q25 0 25 -25v-680q0 -25 -25 -25h-48q-25 0 -25 25zM245 334q-10 13 -10 28v12q0 15 10 28l264 314q11 14 31 14h59q16 0 20 -9.5t-6 -21.5l-268 -318q-8 -11 0 -22l219 -260q13 -16 34 -16h61q25 0 25 -25v-33q0 -25 -25 -25h-117q-21 0 -34 16
zM298 -56q3 23 27 23h43q29 0 21 -28l-41 -140q-6 -21 -28 -21h-21q-27 0 -22 27z" />
    <glyph glyph-name="N.ss01" horiz-adv-x="815" 
d="M124 0q-25 0 -25 25v677q0 28 28 28h28q19 0 34 -15l405 -431q12 -13 22 -8.5t10 21.5v408q0 25 25 25h40q25 0 25 -25v-680q0 -25 -25 -25h-40q-25 0 -25 25v81q0 19 -13 32l-392 413q-12 13 -22 9t-10 -21v-514q0 -25 -25 -25h-40z" />
    <glyph glyph-name="Nacute.ss01" horiz-adv-x="815" 
d="M496 915q24 8 31 -18l8 -37q6 -25 -19 -29l-184 -31q-23 -5 -31 18l-2 7q-6 22 17 31zM124 0q-25 0 -25 25v677q0 28 28 28h28q19 0 34 -15l405 -431q12 -13 22 -8.5t10 21.5v408q0 25 25 25h40q25 0 25 -25v-680q0 -25 -25 -25h-40q-25 0 -25 25v81q0 19 -13 32
l-392 413q-12 13 -22 9t-10 -21v-514q0 -25 -25 -25h-40z" />
    <glyph glyph-name="Ncaron.ss01" horiz-adv-x="815" 
d="M257 885l5 17q6 22 28 14l105 -33q17 -6 35 0l105 33q22 7 28 -14l5 -17q7 -21 -12 -29l-117 -52q-27 -13 -55 0l-115 52q-20 8 -12 29zM124 0q-25 0 -25 25v677q0 28 28 28h28q19 0 34 -15l405 -431q12 -13 22 -8.5t10 21.5v408q0 25 25 25h40q25 0 25 -25v-680
q0 -25 -25 -25h-40q-25 0 -25 25v81q0 19 -13 32l-392 413q-12 13 -22 9t-10 -21v-514q0 -25 -25 -25h-40z" />
    <glyph glyph-name="Ncommaaccent.ss01" horiz-adv-x="815" 
d="M124 0q-25 0 -25 25v677q0 28 28 28h28q19 0 34 -15l405 -431q12 -13 22 -8.5t10 21.5v408q0 25 25 25h40q25 0 25 -25v-680q0 -25 -25 -25h-40q-25 0 -25 25v81q0 19 -13 32l-392 413q-12 13 -22 9t-10 -21v-514q0 -25 -25 -25h-40zM373 -56q3 23 27 23h43q29 0 21 -28
l-41 -140q-6 -21 -28 -21h-21q-27 0 -22 27z" />
    <glyph glyph-name="Ntilde.ss01" horiz-adv-x="815" 
d="M560 890q26 -5 20 -29q-9 -34 -34 -52t-60 -18q-33 1 -74 22t-57 21q-26 0 -39 -16q-13 -19 -32 -15l-15 3q-26 5 -20 30q17 70 89 70q29 -1 75 -22.5t63 -21.5q26 0 38 15q14 20 31 16zM124 0q-25 0 -25 25v677q0 28 28 28h28q19 0 34 -15l405 -431q12 -13 22 -8.5
t10 21.5v408q0 25 25 25h40q25 0 25 -25v-680q0 -25 -25 -25h-40q-25 0 -25 25v81q0 19 -13 32l-392 413q-12 13 -22 9t-10 -21v-514q0 -25 -25 -25h-40z" />
    <glyph glyph-name="Q.ss01" horiz-adv-x="869" 
d="M49 367q0 163 111.5 268t273.5 105q163 0 274.5 -105t111.5 -268q0 -135 -77.5 -233.5t-201.5 -130.5q-13 -3 -15 -10.5t8 -16.5l25 -22q67 -57 131 -57q32 0 59 6q32 8 36 -22l2 -19q3 -29 -23 -35q-33 -8 -81 -8q-101 0 -193 84l-87 79q-10 10 -24 11
q-143 18 -236.5 121t-93.5 253zM149 367q0 -128 82 -209.5t203 -81.5t203.5 81.5t82.5 209.5q0 126 -82.5 206.5t-203.5 80.5t-203 -80.5t-82 -206.5z" />
    <glyph glyph-name="R.ss01" horiz-adv-x="632" 
d="M99 25v675q0 30 30 30h147q129 0 213 -67t84 -173q0 -86 -58 -145.5t-156 -79.5l-21 -3q-11 -2 -13.5 -8.5t5.5 -14.5l153 -144q13 -13 33 -13l50 1q25 0 25 -25v-33q0 -25 -25 -25h-95q-20 0 -32 13l-220 223q-8 9 -15 5.5t-7 -15.5v-201q0 -25 -25 -25h-48
q-25 0 -25 25zM197 367q0 -26 26 -26h53q90 0 144 40.5t54 108.5q0 70 -54.5 114.5t-144.5 44.5h-52q-26 0 -26 -26v-256z" />
    <glyph glyph-name="Racute.ss01" horiz-adv-x="632" 
d="M420 915q24 8 31 -18l8 -37q6 -25 -19 -29l-184 -31q-23 -5 -31 18l-2 7q-6 22 17 31zM99 25v675q0 30 30 30h147q129 0 213 -67t84 -173q0 -86 -58 -145.5t-156 -79.5l-21 -3q-11 -2 -13.5 -8.5t5.5 -14.5l153 -144q13 -13 33 -13l50 1q25 0 25 -25v-33q0 -25 -25 -25
h-95q-20 0 -32 13l-220 223q-8 9 -15 5.5t-7 -15.5v-201q0 -25 -25 -25h-48q-25 0 -25 25zM197 367q0 -26 26 -26h53q90 0 144 40.5t54 108.5q0 70 -54.5 114.5t-144.5 44.5h-52q-26 0 -26 -26v-256z" />
    <glyph glyph-name="Rcaron.ss01" horiz-adv-x="632" 
d="M181 885l5 17q6 22 28 14l105 -33q18 -6 35 0l105 33q22 7 28 -14l5 -17q7 -21 -12 -29l-117 -52q-27 -13 -55 0l-115 52q-20 8 -12 29zM99 25v675q0 30 30 30h147q129 0 213 -67t84 -173q0 -86 -58 -145.5t-156 -79.5l-21 -3q-11 -2 -13.5 -8.5t5.5 -14.5l153 -144
q13 -13 33 -13l50 1q25 0 25 -25v-33q0 -25 -25 -25h-95q-20 0 -32 13l-220 223q-8 9 -15 5.5t-7 -15.5v-201q0 -25 -25 -25h-48q-25 0 -25 25zM197 367q0 -26 26 -26h53q90 0 144 40.5t54 108.5q0 70 -54.5 114.5t-144.5 44.5h-52q-26 0 -26 -26v-256z" />
    <glyph glyph-name="Rcommaaccent.ss01" horiz-adv-x="632" 
d="M99 25v675q0 30 30 30h147q129 0 213 -67t84 -173q0 -86 -58 -145.5t-156 -79.5l-21 -3q-11 -2 -13.5 -8.5t5.5 -14.5l153 -144q13 -13 33 -13l50 1q25 0 25 -25v-33q0 -25 -25 -25h-95q-20 0 -32 13l-220 223q-8 9 -15 5.5t-7 -15.5v-201q0 -25 -25 -25h-48
q-25 0 -25 25zM197 367q0 -26 26 -26h53q90 0 144 40.5t54 108.5q0 70 -54.5 114.5t-144.5 44.5h-52q-26 0 -26 -26v-256zM301 -56q3 23 27 23h43q29 0 21 -28l-41 -140q-6 -21 -28 -21h-21q-27 0 -22 27z" />
    <glyph glyph-name="W.ss01" horiz-adv-x="995" 
d="M28 702q-8 28 21 28h51q22 0 28 -21l150 -530q4 -14 12.5 -14t13.5 13l155 399q5 12 0 27l-36 97q-5 13 1 21t19 8h46q20 0 28 -20l191 -534q5 -13 13 -13t12 14l143 532q6 21 28 21h43q29 0 21 -28l-192 -677q-7 -25 -33 -25h-36q-27 0 -35 24l-149 406q-3 9 -8 12
t-10.5 -0.5t-8.5 -11.5l-161 -407q-9 -23 -34 -23h-32q-27 0 -34 25z" />
    <glyph glyph-name="Wacute.ss01" horiz-adv-x="995" 
d="M588 915q24 8 31 -18l8 -37q6 -25 -19 -29l-184 -31q-23 -5 -31 18l-2 7q-6 22 17 31zM28 702q-8 28 21 28h51q22 0 28 -21l150 -530q4 -14 12.5 -14t13.5 13l155 399q5 12 0 27l-36 97q-5 13 1 21t19 8h46q20 0 28 -20l191 -534q5 -13 13 -13t12 14l143 532q6 21 28 21
h43q29 0 21 -28l-192 -677q-7 -25 -33 -25h-36q-27 0 -35 24l-149 406q-3 9 -8 12t-10.5 -0.5t-8.5 -11.5l-161 -407q-9 -23 -34 -23h-32q-27 0 -34 25z" />
    <glyph glyph-name="Wcircumflex.ss01" horiz-adv-x="995" 
d="M340 826q-8 18 7 27l134 70q22 12 44 0l137 -70q16 -10 8 -27l-8 -18q-7 -16 -25 -10l-113 38q-21 7 -42 0l-109 -37q-18 -7 -25 9zM28 702q-8 28 21 28h51q22 0 28 -21l150 -530q4 -14 12.5 -14t13.5 13l155 399q5 12 0 27l-36 97q-5 13 1 21t19 8h46q20 0 28 -20
l191 -534q5 -13 13 -13t12 14l143 532q6 21 28 21h43q29 0 21 -28l-192 -677q-7 -25 -33 -25h-36q-27 0 -35 24l-149 406q-3 9 -8 12t-10.5 -0.5t-8.5 -11.5l-161 -407q-9 -23 -34 -23h-32q-27 0 -34 25z" />
    <glyph glyph-name="Wdieresis.ss01" horiz-adv-x="995" 
d="M399 785q-25 0 -43 18.5t-18 44.5q0 25 18 42.5t43 17.5q26 0 44 -17.5t18 -42.5q0 -26 -18 -44.5t-44 -18.5zM599 785q-26 0 -44 18.5t-18 44.5q0 25 18 42.5t44 17.5q25 0 43.5 -17.5t18.5 -42.5q0 -26 -18.5 -44.5t-43.5 -18.5zM28 702q-8 28 21 28h51q22 0 28 -21
l150 -530q4 -14 12.5 -14t13.5 13l155 399q5 12 0 27l-36 97q-5 13 1 21t19 8h46q20 0 28 -20l191 -534q5 -13 13 -13t12 14l143 532q6 21 28 21h43q29 0 21 -28l-192 -677q-7 -25 -33 -25h-36q-27 0 -35 24l-149 406q-3 9 -8 12t-10.5 -0.5t-8.5 -11.5l-161 -407
q-9 -23 -34 -23h-32q-27 0 -34 25z" />
    <glyph glyph-name="Wgrave.ss01" horiz-adv-x="995" 
d="M375 901q6 25 32 15l181 -64q23 -9 17 -32l-2 -7q-6 -24 -30 -19l-189 39q-24 6 -18 30zM28 702q-8 28 21 28h51q22 0 28 -21l150 -530q4 -14 12.5 -14t13.5 13l155 399q5 12 0 27l-36 97q-5 13 1 21t19 8h46q20 0 28 -20l191 -534q5 -13 13 -13t12 14l143 532
q6 21 28 21h43q29 0 21 -28l-192 -677q-7 -25 -33 -25h-36q-27 0 -35 24l-149 406q-3 9 -8 12t-10.5 -0.5t-8.5 -11.5l-161 -407q-9 -23 -34 -23h-32q-27 0 -34 25z" />
    <glyph glyph-name="i.loclTRK" horiz-adv-x="261" 
d="M134 622q-29 0 -48.5 20t-19.5 49q0 27 20 46.5t48 19.5t48 -19.5t20 -46.5q0 -29 -20 -49t-48 -20zM152 520q25 0 25 -25v-470q0 -25 -25 -25h-44q-25 0 -25 25v470q0 25 25 25h44z" />
    <glyph glyph-name="uni006A0301" horiz-adv-x="267" 
d="M208 740q22 14 34 -10l17 -34q11 -23 -12 -33l-173 -72q-22 -10 -34 11l-3 6q-12 21 9 34zM51 -210q-31 0 -61 5q-22 4 -19 29l3 31q3 23 27 20q16 -2 25 -2q63 0 63 72v550q0 25 25 25h44q25 0 25 -25v-557q0 -67 -36.5 -107.5t-95.5 -40.5z" />
    <glyph glyph-name="a.ss01" horiz-adv-x="658" 
d="M45 262q0 115 78 191.5t194 76.5q94 0 162 -57q20 -17 25 8l3 17q5 22 28 22h16q25 0 25 -25v-470q0 -25 -25 -25h-13q-22 0 -27 22l-5 21q-5 24 -25 7q-66 -60 -161 -60q-120 0 -197.5 77t-77.5 195zM141 262q0 -80 53 -135.5t129 -55.5q101 0 153 90q6 10 6 23v153
q0 13 -6 23q-53 89 -153 89q-76 0 -129 -54t-53 -133z" />
    <glyph glyph-name="aacute.ss01" horiz-adv-x="658" 
d="M399 740q22 14 34 -10l17 -34q11 -23 -12 -33l-173 -72q-22 -10 -34 11l-3 6q-12 21 9 34zM45 262q0 115 78 191.5t194 76.5q94 0 162 -57q20 -17 25 8l3 17q5 22 28 22h16q25 0 25 -25v-470q0 -25 -25 -25h-13q-22 0 -27 22l-5 21q-5 24 -25 7q-66 -60 -161 -60
q-120 0 -197.5 77t-77.5 195zM141 262q0 -80 53 -135.5t129 -55.5q101 0 153 90q6 10 6 23v153q0 13 -6 23q-53 89 -153 89q-76 0 -129 -54t-53 -133z" />
    <glyph glyph-name="abreve.ss01" horiz-adv-x="658" 
d="M223 727q19 0 28 -20q20 -44 78 -44q57 0 79 44q10 20 29 20l28 -1q29 -2 22 -27q-15 -50 -58 -79t-100 -29q-55 0 -99.5 28.5t-59.5 79.5q-7 25 22 27zM45 262q0 115 78 191.5t194 76.5q94 0 162 -57q20 -17 25 8l3 17q5 22 28 22h16q25 0 25 -25v-470q0 -25 -25 -25
h-13q-22 0 -27 22l-5 21q-5 24 -25 7q-66 -60 -161 -60q-120 0 -197.5 77t-77.5 195zM141 262q0 -80 53 -135.5t129 -55.5q101 0 153 90q6 10 6 23v153q0 13 -6 23q-53 89 -153 89q-76 0 -129 -54t-53 -133z" />
    <glyph glyph-name="acircumflex.ss01" horiz-adv-x="658" 
d="M169 639q-8 17 7 26l131 69q22 12 44 0l134 -69q16 -9 8 -26l-8 -18q-7 -16 -25 -10l-110 38q-21 7 -42 0l-106 -37q-18 -7 -25 9zM45 262q0 115 78 191.5t194 76.5q94 0 162 -57q20 -17 25 8l3 17q5 22 28 22h16q25 0 25 -25v-470q0 -25 -25 -25h-13q-22 0 -27 22l-5 21
q-5 24 -25 7q-66 -60 -161 -60q-120 0 -197.5 77t-77.5 195zM141 262q0 -80 53 -135.5t129 -55.5q101 0 153 90q6 10 6 23v153q0 13 -6 23q-53 89 -153 89q-76 0 -129 -54t-53 -133z" />
    <glyph glyph-name="adieresis.ss01" horiz-adv-x="658" 
d="M234 619q-24 0 -41 17.5t-17 42.5q0 23 17 40t41 17t41.5 -17t17.5 -40q0 -25 -17.5 -42.5t-41.5 -17.5zM424 619q-24 0 -41.5 17.5t-17.5 42.5q0 23 17.5 40t41.5 17t41.5 -17t17.5 -40q0 -25 -17.5 -42.5t-41.5 -17.5zM45 262q0 115 78 191.5t194 76.5q94 0 162 -57
q20 -17 25 8l3 17q5 22 28 22h16q25 0 25 -25v-470q0 -25 -25 -25h-13q-22 0 -27 22l-5 21q-5 24 -25 7q-66 -60 -161 -60q-120 0 -197.5 77t-77.5 195zM141 262q0 -80 53 -135.5t129 -55.5q101 0 153 90q6 10 6 23v153q0 13 -6 23q-53 89 -153 89q-76 0 -129 -54t-53 -133z
" />
    <glyph glyph-name="agrave.ss01" horiz-adv-x="658" 
d="M225 738q11 24 34 9l165 -100q21 -13 10 -34l-4 -7q-11 -22 -33 -12l-177 76q-22 10 -12 33zM45 262q0 115 78 191.5t194 76.5q94 0 162 -57q20 -17 25 8l3 17q5 22 28 22h16q25 0 25 -25v-470q0 -25 -25 -25h-13q-22 0 -27 22l-5 21q-5 24 -25 7q-66 -60 -161 -60
q-120 0 -197.5 77t-77.5 195zM141 262q0 -80 53 -135.5t129 -55.5q101 0 153 90q6 10 6 23v153q0 13 -6 23q-53 89 -153 89q-76 0 -129 -54t-53 -133z" />
    <glyph glyph-name="amacron.ss01" horiz-adv-x="658" 
d="M183 674q0 25 25 25h242q25 0 25 -25v-27q0 -25 -25 -25h-242q-25 0 -25 25v27zM45 262q0 115 78 191.5t194 76.5q94 0 162 -57q20 -17 25 8l3 17q5 22 28 22h16q25 0 25 -25v-470q0 -25 -25 -25h-13q-22 0 -27 22l-5 21q-5 24 -25 7q-66 -60 -161 -60q-120 0 -197.5 77
t-77.5 195zM141 262q0 -80 53 -135.5t129 -55.5q101 0 153 90q6 10 6 23v153q0 13 -6 23q-53 89 -153 89q-76 0 -129 -54t-53 -133z" />
    <glyph glyph-name="aogonek.ss01" horiz-adv-x="658" 
d="M561 1q-74 -44 -74 -118q0 -21 12 -32t32 -11q8 0 22 2q21 3 21 -17v-18q0 -17 -16 -21q-16 -5 -41 -5q-47 0 -76.5 25.5t-29.5 72.5q0 42 27 78.5t74 59.5q0 1 -0.5 2.5t-0.5 2.5l-5 21q-5 24 -25 7q-66 -60 -161 -60q-120 0 -197.5 77t-77.5 195q0 115 78 191.5
t194 76.5q94 0 162 -57q20 -17 25 8l3 17q5 22 28 22h16q25 0 25 -25v-470q0 -18 -15 -24zM482 184v153q0 13 -6 23q-53 89 -153 89q-76 0 -129 -54t-53 -133q0 -80 53 -135.5t129 -55.5q101 0 153 90q6 10 6 23z" />
    <glyph glyph-name="aring.ss01" horiz-adv-x="658" 
d="M328 581q-51 0 -82.5 30.5t-31.5 74.5q0 43 32 73.5t82 30.5q52 0 84 -30.5t32 -73.5q0 -45 -32 -75t-84 -30zM328 641q21 0 34.5 13t13.5 32t-13.5 32.5t-34.5 13.5q-20 0 -33 -13.5t-13 -32.5t13 -32t33 -13zM45 262q0 115 78 191.5t194 76.5q94 0 162 -57q20 -17 25 8
l3 17q5 22 28 22h16q25 0 25 -25v-470q0 -25 -25 -25h-13q-22 0 -27 22l-5 21q-5 24 -25 7q-66 -60 -161 -60q-120 0 -197.5 77t-77.5 195zM141 262q0 -80 53 -135.5t129 -55.5q101 0 153 90q6 10 6 23v153q0 13 -6 23q-53 89 -153 89q-76 0 -129 -54t-53 -133z" />
    <glyph glyph-name="atilde.ss01" horiz-adv-x="658" 
d="M471 694q26 -5 20 -29q-9 -34 -34 -52t-60 -18q-33 1 -74 22t-57 21q-26 0 -39 -16q-13 -19 -32 -15l-15 3q-26 5 -20 30q17 70 89 70q29 -1 75 -22.5t63 -21.5q26 0 38 15q14 20 31 16zM45 262q0 115 78 191.5t194 76.5q94 0 162 -57q20 -17 25 8l3 17q5 22 28 22h16
q25 0 25 -25v-470q0 -25 -25 -25h-13q-22 0 -27 22l-5 21q-5 24 -25 7q-66 -60 -161 -60q-120 0 -197.5 77t-77.5 195zM141 262q0 -80 53 -135.5t129 -55.5q101 0 153 90q6 10 6 23v153q0 13 -6 23q-53 89 -153 89q-76 0 -129 -54t-53 -133z" />
    <glyph glyph-name="k.ss01" horiz-adv-x="611" 
d="M106 0q-25 0 -25 25v730q0 25 25 25h44q25 0 25 -25v-474q0 -13 7 -16t16 6l239 236q13 13 31 13h49q16 0 20 -9.5t-7 -21.5l-174 -175q-12 -12 -2 -27l145 -194q11 -15 29 -15h52q25 0 25 -25v-28q0 -25 -25 -25h-107q-19 0 -29 15l-150 207q-13 18 -27 2l-82 -83
q-10 -10 -10 -24v-92q0 -25 -25 -25h-44z" />
    <glyph glyph-name="kcommaaccent.ss01" horiz-adv-x="611" 
d="M106 0q-25 0 -25 25v730q0 25 25 25h44q25 0 25 -25v-474q0 -13 7 -16t16 6l239 236q13 13 31 13h49q16 0 20 -9.5t-7 -21.5l-174 -175q-12 -12 -2 -27l145 -194q11 -15 29 -15h52q25 0 25 -25v-28q0 -25 -25 -25h-107q-19 0 -29 15l-150 207q-13 18 -27 2l-82 -83
q-10 -10 -10 -24v-92q0 -25 -25 -25h-44zM256 -56q3 23 27 23h43q29 0 21 -28l-41 -140q-6 -21 -28 -21h-21q-27 0 -22 27z" />
    <glyph glyph-name="l.ss01" horiz-adv-x="351" 
d="M79 157v598q0 25 25 25h44q25 0 25 -25v-596q0 -44 17 -65t55 -21q31 0 64 11q27 8 30 -18l3 -30q3 -23 -17 -30q-48 -16 -95 -16q-151 0 -151 167z" />
    <glyph glyph-name="lacute.ss01" horiz-adv-x="351" 
d="M201 965q24 8 31 -18l8 -37q6 -25 -19 -29l-184 -31q-23 -5 -31 18l-2 7q-6 22 17 31zM79 157v598q0 25 25 25h44q25 0 25 -25v-596q0 -44 17 -65t55 -21q31 0 64 11q27 8 30 -18l3 -30q3 -23 -17 -30q-48 -16 -95 -16q-151 0 -151 167z" />
    <glyph glyph-name="lcaron.ss01" horiz-adv-x="351" 
d="M277 661q24 0 27 23l26 172q3 27 -23 27h-31q-24 0 -26 -24l-15 -172q-2 -26 24 -26h18zM79 157v598q0 25 25 25h44q25 0 25 -25v-596q0 -44 17 -65t55 -21q31 0 64 11q27 8 30 -18l3 -30q3 -23 -17 -30q-48 -16 -95 -16q-151 0 -151 167z" />
    <glyph glyph-name="lcommaaccent.ss01" horiz-adv-x="351" 
d="M79 157v598q0 25 25 25h44q25 0 25 -25v-596q0 -44 17 -65t55 -21q31 0 64 11q27 8 30 -18l3 -30q3 -23 -17 -30q-48 -16 -95 -16q-151 0 -151 167zM158 -56q3 23 27 23h43q29 0 21 -28l-41 -140q-6 -21 -28 -21h-21q-27 0 -22 27z" />
    <glyph glyph-name="ldot.ss01" horiz-adv-x="378" 
d="M79 157v598q0 25 25 25h44q25 0 25 -25v-596q0 -44 17 -65t55 -21q31 0 64 11q27 8 30 -18l3 -30q3 -23 -17 -30q-48 -16 -95 -16q-151 0 -151 167zM305 295q-26 0 -44.5 19t-18.5 46q0 25 18.5 43t44.5 18t44.5 -18t18.5 -43q0 -27 -18.5 -46t-44.5 -19z" />
    <glyph glyph-name="lslash.ss01" horiz-adv-x="351" 
d="M342 36q3 -23 -17 -30q-48 -16 -95 -16q-151 0 -151 167v181l-58 -25q-29 -13 -40 16l-6 15q-11 29 16 40l88 38v333q0 25 25 25h44q25 0 25 -25v-293l69 29q27 11 39 -15l7 -15q12 -28 -15 -40l-100 -43v-219q0 -44 17 -65t55 -21q31 0 64 11q27 8 30 -18z" />
    <glyph glyph-name="t.ss01" horiz-adv-x="522" 
d="M50 440q-25 0 -25 25v30q0 25 25 25h32q24 0 24 24v78q0 22 21 28l42 11q13 4 20.5 -2.5t7.5 -19.5v-95q0 -24 24 -24h200q25 0 25 -25v-30q0 -25 -25 -25h-200q-24 0 -24 -24v-209q0 -66 31 -101t76 -35q43 0 77 24.5t50 66.5q7 21 28 21h38q28 0 23 -27
q-16 -78 -73 -122t-138 -44q-89 0 -147.5 56.5t-58.5 160.5v209q0 24 -24 24h-29z" />
    <glyph glyph-name="tbar.ss01" horiz-adv-x="522" 
d="M497 183q28 0 23 -27q-16 -78 -73 -122t-138 -44q-89 0 -147.5 56.5t-58.5 160.5v56h-56q-25 0 -25 25v24q0 25 25 25h56v79q0 24 -24 24h-29q-25 0 -25 25v30q0 25 25 25h32q24 0 24 24v78q0 22 21 28l42 11q13 4 20.5 -2.5t7.5 -19.5v-95q0 -24 24 -24h200q25 0 25 -25
v-30q0 -25 -25 -25h-200q-24 0 -24 -24v-79h137q25 0 25 -25v-24q0 -25 -25 -25h-137v-56q0 -66 31 -101t76 -35q43 0 77 24.5t50 66.5q7 21 28 21h38z" />
    <glyph glyph-name="tcaron.ss01" horiz-adv-x="522" 
d="M308 600q24 0 27 23l26 172q3 27 -23 27h-31q-24 0 -26 -24l-15 -172q-2 -26 24 -26h18zM50 440q-25 0 -25 25v30q0 25 25 25h32q24 0 24 24v78q0 22 21 28l42 11q13 4 20.5 -2.5t7.5 -19.5v-95q0 -24 24 -24h200q25 0 25 -25v-30q0 -25 -25 -25h-200q-24 0 -24 -24v-209
q0 -66 31 -101t76 -35q43 0 77 24.5t50 66.5q7 21 28 21h38q28 0 23 -27q-16 -78 -73 -122t-138 -44q-89 0 -147.5 56.5t-58.5 160.5v209q0 24 -24 24h-29z" />
    <glyph glyph-name="uni0163.ss01" horiz-adv-x="522" 
d="M497 183q28 0 23 -27q-15 -71 -64.5 -114.5t-122.5 -50.5l-4 -14q-4 -16 15 -20q32 -8 51 -29t19 -53q0 -44 -34 -69.5t-86 -25.5q-47 0 -83 21q-17 10 -7 31l1 6q9 18 31 9q25 -10 51 -10q50 0 50 36q0 38 -49 38h-8q-14 0 -21.5 8.5t-3.5 22.5l14 51q-74 13 -120 68
t-46 146v209q0 24 -24 24h-29q-25 0 -25 25v30q0 25 25 25h32q24 0 24 24v78q0 22 21 28l42 11q13 4 20.5 -2.5t7.5 -19.5v-95q0 -24 24 -24h200q25 0 25 -25v-30q0 -25 -25 -25h-200q-24 0 -24 -24v-209q0 -66 31 -101t76 -35q43 0 77 24.5t50 66.5q7 21 28 21h38z" />
    <glyph glyph-name="uni021B.ss01" horiz-adv-x="522" 
d="M50 440q-25 0 -25 25v30q0 25 25 25h32q24 0 24 24v78q0 22 21 28l42 11q13 4 20.5 -2.5t7.5 -19.5v-95q0 -24 24 -24h200q25 0 25 -25v-30q0 -25 -25 -25h-200q-24 0 -24 -24v-209q0 -66 31 -101t76 -35q43 0 77 24.5t50 66.5q7 21 28 21h38q28 0 23 -27
q-16 -78 -73 -122t-138 -44q-89 0 -147.5 56.5t-58.5 160.5v209q0 24 -24 24h-29zM261 -56q3 23 27 23h43q29 0 21 -28l-41 -140q-6 -21 -28 -21h-21q-27 0 -22 27z" />
    <glyph glyph-name="u.ss01" horiz-adv-x="616" 
d="M75 210v285q0 25 25 25h44q25 0 25 -25v-288q0 -59 39 -97t100 -37q62 0 101 37.5t39 96.5v288q0 25 25 25h44q25 0 25 -25v-285q0 -97 -65.5 -158.5t-168.5 -61.5q-102 0 -167.5 61.5t-65.5 158.5z" />
    <glyph glyph-name="uacute.ss01" horiz-adv-x="616" 
d="M378 740q22 14 34 -10l17 -34q11 -23 -12 -33l-173 -72q-22 -10 -34 11l-3 6q-12 21 9 34zM75 210v285q0 25 25 25h44q25 0 25 -25v-288q0 -59 39 -97t100 -37q62 0 101 37.5t39 96.5v288q0 25 25 25h44q25 0 25 -25v-285q0 -97 -65.5 -158.5t-168.5 -61.5
q-102 0 -167.5 61.5t-65.5 158.5z" />
    <glyph glyph-name="ucircumflex.ss01" horiz-adv-x="616" 
d="M148 639q-8 17 7 26l131 69q22 12 44 0l134 -69q16 -9 8 -26l-8 -18q-7 -16 -25 -10l-110 38q-21 7 -42 0l-106 -37q-18 -7 -25 9zM75 210v285q0 25 25 25h44q25 0 25 -25v-288q0 -59 39 -97t100 -37q62 0 101 37.5t39 96.5v288q0 25 25 25h44q25 0 25 -25v-285
q0 -97 -65.5 -158.5t-168.5 -61.5q-102 0 -167.5 61.5t-65.5 158.5z" />
    <glyph glyph-name="udieresis.ss01" horiz-adv-x="616" 
d="M213 619q-24 0 -41 17.5t-17 42.5q0 23 17 40t41 17t41.5 -17t17.5 -40q0 -25 -17.5 -42.5t-41.5 -17.5zM403 619q-24 0 -41.5 17.5t-17.5 42.5q0 23 17.5 40t41.5 17t41.5 -17t17.5 -40q0 -25 -17.5 -42.5t-41.5 -17.5zM75 210v285q0 25 25 25h44q25 0 25 -25v-288
q0 -59 39 -97t100 -37q62 0 101 37.5t39 96.5v288q0 25 25 25h44q25 0 25 -25v-285q0 -97 -65.5 -158.5t-168.5 -61.5q-102 0 -167.5 61.5t-65.5 158.5z" />
    <glyph glyph-name="ugrave.ss01" horiz-adv-x="616" 
d="M204 738q11 24 34 9l165 -100q21 -13 10 -34l-4 -7q-11 -22 -33 -12l-177 76q-23 10 -12 33zM75 210v285q0 25 25 25h44q25 0 25 -25v-288q0 -59 39 -97t100 -37q62 0 101 37.5t39 96.5v288q0 25 25 25h44q25 0 25 -25v-285q0 -97 -65.5 -158.5t-168.5 -61.5
q-102 0 -167.5 61.5t-65.5 158.5z" />
    <glyph glyph-name="uhungarumlaut.ss01" horiz-adv-x="616" 
d="M226 716q7 19 29 19l43 -1q15 0 19.5 -8.5t-3.5 -21.5l-59 -94q-11 -17 -30 -17h-19q-14 0 -19.5 8t-0.5 21zM385 716q7 19 29 19l43 -1q15 0 19.5 -8.5t-3.5 -21.5l-59 -94q-11 -17 -30 -17h-19q-14 0 -19.5 8t-0.5 21zM75 210v285q0 25 25 25h44q25 0 25 -25v-288
q0 -59 39 -97t100 -37q62 0 101 37.5t39 96.5v288q0 25 25 25h44q25 0 25 -25v-285q0 -97 -65.5 -158.5t-168.5 -61.5q-102 0 -167.5 61.5t-65.5 158.5z" />
    <glyph glyph-name="umacron.ss01" horiz-adv-x="616" 
d="M162 674q0 25 25 25h242q25 0 25 -25v-27q0 -25 -25 -25h-242q-25 0 -25 25v27zM75 210v285q0 25 25 25h44q25 0 25 -25v-288q0 -59 39 -97t100 -37q62 0 101 37.5t39 96.5v288q0 25 25 25h44q25 0 25 -25v-285q0 -97 -65.5 -158.5t-168.5 -61.5q-102 0 -167.5 61.5
t-65.5 158.5z" />
    <glyph glyph-name="uogonek.ss01" horiz-adv-x="616" 
d="M517 520q25 0 25 -25v-285q0 -81 -46.5 -138t-123.5 -75q-70 -44 -70 -116q0 -21 12 -32t32 -11q8 0 22 2q21 3 21 -17v-18q0 -17 -16 -21q-16 -5 -41 -5q-47 0 -76.5 25.5t-29.5 72.5q0 65 62 114q-94 6 -153.5 66.5t-59.5 152.5v285q0 25 25 25h44q25 0 25 -25v-288
q0 -59 39 -97t100 -37q62 0 101 37.5t39 96.5v288q0 25 25 25h44z" />
    <glyph glyph-name="uring.ss01" horiz-adv-x="616" 
d="M307 581q-51 0 -82.5 30.5t-31.5 74.5q0 43 32 73.5t82 30.5q52 0 84 -30.5t32 -73.5q0 -45 -32 -75t-84 -30zM307 641q21 0 34.5 13t13.5 32t-13.5 32.5t-34.5 13.5q-20 0 -33 -13.5t-13 -32.5t13 -32t33 -13zM75 210v285q0 25 25 25h44q25 0 25 -25v-288q0 -59 39 -97
t100 -37q62 0 101 37.5t39 96.5v288q0 25 25 25h44q25 0 25 -25v-285q0 -97 -65.5 -158.5t-168.5 -61.5q-102 0 -167.5 61.5t-65.5 158.5z" />
    <glyph glyph-name="utilde.ss01" horiz-adv-x="616" 
d="M450 694q26 -5 20 -29q-9 -34 -34 -52t-60 -18q-33 1 -74 22t-57 21q-26 0 -39 -16q-13 -19 -32 -15l-15 3q-26 5 -20 30q17 70 89 70q29 -1 75 -22.5t63 -21.5q26 0 38 15q14 20 31 16zM75 210v285q0 25 25 25h44q25 0 25 -25v-288q0 -59 39 -97t100 -37q62 0 101 37.5
t39 96.5v288q0 25 25 25h44q25 0 25 -25v-285q0 -97 -65.5 -158.5t-168.5 -61.5q-102 0 -167.5 61.5t-65.5 158.5z" />
    <glyph glyph-name="w.ss01" horiz-adv-x="809" 
d="M26 492q-9 28 21 28h41q22 0 28 -21l112 -376q2 -8 7 -11t9.5 0t7.5 10l115 273q7 15 1 33l-23 63q-4 13 1 21t19 8h34q20 0 28 -20l131 -375q3 -8 7.5 -11t9 0.5t6.5 11.5l115 373q6 21 28 21h40q14 0 19 -8t1 -21l-157 -465q-9 -26 -37 -26h-41q-27 0 -36 26l-84 234
q-6 16 -16.5 16t-17.5 -16l-99 -235q-10 -25 -37 -25h-43q-28 0 -37 26z" />
    <glyph glyph-name="wacute.ss01" horiz-adv-x="809" 
d="M475 740q22 14 34 -10l17 -34q11 -23 -12 -33l-173 -72q-22 -10 -34 11l-3 6q-12 21 9 34zM26 492q-9 28 21 28h41q22 0 28 -21l112 -376q2 -8 7 -11t9.5 0t7.5 10l115 273q7 15 1 33l-23 63q-4 13 1 21t19 8h34q20 0 28 -20l131 -375q3 -8 7.5 -11t9 0.5t6.5 11.5
l115 373q6 21 28 21h40q14 0 19 -8t1 -21l-157 -465q-9 -26 -37 -26h-41q-27 0 -36 26l-84 234q-6 16 -16.5 16t-17.5 -16l-99 -235q-10 -25 -37 -25h-43q-28 0 -37 26z" />
    <glyph glyph-name="wcircumflex.ss01" horiz-adv-x="809" 
d="M245 639q-8 17 7 26l131 69q22 12 44 0l134 -69q16 -9 8 -26l-8 -18q-7 -16 -25 -10l-110 38q-21 7 -42 0l-106 -37q-18 -7 -25 9zM26 492q-9 28 21 28h41q22 0 28 -21l112 -376q2 -8 7 -11t9.5 0t7.5 10l115 273q7 15 1 33l-23 63q-4 13 1 21t19 8h34q20 0 28 -20
l131 -375q3 -8 7.5 -11t9 0.5t6.5 11.5l115 373q6 21 28 21h40q14 0 19 -8t1 -21l-157 -465q-9 -26 -37 -26h-41q-27 0 -36 26l-84 234q-6 16 -16.5 16t-17.5 -16l-99 -235q-10 -25 -37 -25h-43q-28 0 -37 26z" />
    <glyph glyph-name="wdieresis.ss01" horiz-adv-x="809" 
d="M310 619q-24 0 -41 17.5t-17 42.5q0 23 17 40t41 17t41.5 -17t17.5 -40q0 -25 -17.5 -42.5t-41.5 -17.5zM500 619q-24 0 -41.5 17.5t-17.5 42.5q0 23 17.5 40t41.5 17t41.5 -17t17.5 -40q0 -25 -17.5 -42.5t-41.5 -17.5zM26 492q-9 28 21 28h41q22 0 28 -21l112 -376
q2 -8 7 -11t9.5 0t7.5 10l115 273q7 15 1 33l-23 63q-4 13 1 21t19 8h34q20 0 28 -20l131 -375q3 -8 7.5 -11t9 0.5t6.5 11.5l115 373q6 21 28 21h40q14 0 19 -8t1 -21l-157 -465q-9 -26 -37 -26h-41q-27 0 -36 26l-84 234q-6 16 -16.5 16t-17.5 -16l-99 -235
q-10 -25 -37 -25h-43q-28 0 -37 26z" />
    <glyph glyph-name="wgrave.ss01" horiz-adv-x="809" 
d="M301 738q11 24 34 9l165 -100q21 -13 10 -34l-4 -7q-11 -22 -33 -12l-177 76q-22 10 -12 33zM26 492q-9 28 21 28h41q22 0 28 -21l112 -376q2 -8 7 -11t9.5 0t7.5 10l115 273q7 15 1 33l-23 63q-4 13 1 21t19 8h34q20 0 28 -20l131 -375q3 -8 7.5 -11t9 0.5t6.5 11.5
l115 373q6 21 28 21h40q14 0 19 -8t1 -21l-157 -465q-9 -26 -37 -26h-41q-27 0 -36 26l-84 234q-6 16 -16.5 16t-17.5 -16l-99 -235q-10 -25 -37 -25h-43q-28 0 -37 26z" />
    <glyph glyph-name="y.ss01" horiz-adv-x="559" 
d="M26 491q-11 29 19 29h51q20 0 28 -20l142 -383q4 -10 10 -14t12 0t9 14l139 383q8 20 28 20h50q30 0 19 -29l-274 -691q-7 -20 -29 -20h-39q-14 0 -19.5 8t-0.5 21l81 191h-10q-17 0 -23 16z" />
    <glyph glyph-name="yacute.ss01" horiz-adv-x="559" 
d="M354 740q22 14 34 -10l17 -34q11 -23 -12 -33l-173 -72q-22 -10 -34 11l-3 6q-12 21 9 34zM26 491q-11 29 19 29h51q20 0 28 -20l142 -383q4 -10 10 -14t12 0t9 14l139 383q8 20 28 20h50q30 0 19 -29l-274 -691q-7 -20 -29 -20h-39q-14 0 -19.5 8t-0.5 21l81 191h-10
q-17 0 -23 16z" />
    <glyph glyph-name="ycircumflex.ss01" horiz-adv-x="559" 
d="M124 639q-8 17 7 26l131 69q22 12 44 0l134 -69q16 -9 8 -26l-8 -18q-7 -16 -25 -10l-110 38q-21 7 -42 0l-106 -37q-18 -7 -25 9zM26 491q-11 29 19 29h51q20 0 28 -20l142 -383q4 -10 10 -14t12 0t9 14l139 383q8 20 28 20h50q30 0 19 -29l-274 -691q-7 -20 -29 -20
h-39q-14 0 -19.5 8t-0.5 21l81 191h-10q-17 0 -23 16z" />
    <glyph glyph-name="ydieresis.ss01" horiz-adv-x="559" 
d="M189 619q-24 0 -41 17.5t-17 42.5q0 23 17 40t41 17t41.5 -17t17.5 -40q0 -25 -17.5 -42.5t-41.5 -17.5zM379 619q-24 0 -41.5 17.5t-17.5 42.5q0 23 17.5 40t41.5 17t41.5 -17t17.5 -40q0 -25 -17.5 -42.5t-41.5 -17.5zM26 491q-11 29 19 29h51q20 0 28 -20l142 -383
q4 -10 10 -14t12 0t9 14l139 383q8 20 28 20h50q30 0 19 -29l-274 -691q-7 -20 -29 -20h-39q-14 0 -19.5 8t-0.5 21l81 191h-10q-17 0 -23 16z" />
    <glyph glyph-name="ygrave.ss01" horiz-adv-x="559" 
d="M180 738q11 24 34 9l165 -100q21 -13 10 -34l-4 -7q-11 -22 -33 -12l-177 76q-23 10 -12 33zM26 491q-11 29 19 29h51q20 0 28 -20l142 -383q4 -10 10 -14t12 0t9 14l139 383q8 20 28 20h50q30 0 19 -29l-274 -691q-7 -20 -29 -20h-39q-14 0 -19.5 8t-0.5 21l81 191h-10
q-17 0 -23 16z" />
    <glyph glyph-name="uni1EF9.ss01" horiz-adv-x="559" 
d="M426 694q26 -5 20 -29q-9 -34 -34 -52t-60 -18q-33 1 -74 22t-57 21q-26 0 -39 -16q-13 -19 -32 -15l-15 3q-26 5 -20 30q17 70 89 70q29 -1 75 -22.5t63 -21.5q26 0 38 15q14 20 31 16zM26 491q-11 29 19 29h51q20 0 28 -20l142 -383q4 -10 10 -14t12 0t9 14l139 383
q8 20 28 20h50q30 0 19 -29l-274 -691q-7 -20 -29 -20h-39q-14 0 -19.5 8t-0.5 21l81 191h-10q-17 0 -23 16z" />
    <glyph glyph-name="zero.zero" horiz-adv-x="760" 
d="M381 740q146 0 235 -103.5t89 -268.5q0 -167 -89 -272.5t-235 -105.5q-147 0 -236 105.5t-89 272.5q0 165 89 268.5t236 103.5zM381 652q-102 0 -163.5 -80t-61.5 -207q0 -104 41 -175l300 427q-51 35 -116 35zM381 78q101 0 162.5 80t61.5 207q0 117 -53 195l-304 -434
q56 -48 133 -48z" />
    <glyph glyph-name="ampersand.ss01" horiz-adv-x="710" 
d="M42 182q0 112 137 181q31 14 8 40q-66 75 -66 145q0 79 56.5 130t151.5 51q90 0 145.5 -51.5t55.5 -126.5q0 -60 -34.5 -103.5t-101.5 -79.5q-32 -16 -7 -41l106 -103q26 -24 42 5q29 53 35 109q2 24 25 24h35q26 0 24 -25q-7 -93 -58 -174q-13 -24 5 -42l80 -77
q13 -13 13 -28q0 -16 -25 -16h-43q-19 0 -31 12l-49 46q-20 20 -42 2q-92 -69 -215 -69q-110 0 -178.5 53.5t-68.5 137.5zM217 545q0 -51 66 -117q17 -19 42 -8q58 27 86 56t27 69t-32 68.5t-77 28.5q-51 0 -81.5 -27t-30.5 -70zM137 184q0 -48 42 -79t110 -31q80 0 146 45
q26 19 2 43l-146 139q-19 19 -51 3q-103 -47 -103 -120z" />
    <glyph glyph-name="caroncomb.alt" 
d="M-249 600q24 0 27 23l26 172q3 27 -23 27h-31q-24 0 -26 -24l-15 -172q-2 -26 24 -26h18z" />
    <glyph glyph-name="uni0308.case" 
d="M-322 785q-25 0 -43 18.5t-18 44.5q0 25 18 42.5t43 17.5q26 0 44 -17.5t18 -42.5q0 -26 -18 -44.5t-44 -18.5zM-122 785q-26 0 -44 18.5t-18 44.5q0 25 18 42.5t44 17.5q25 0 43.5 -17.5t18.5 -42.5q0 -26 -18.5 -44.5t-43.5 -18.5z" />
    <glyph glyph-name="uni0307.case" 
d="M-142 610q-29 0 -48.5 20t-19.5 49q0 27 20 46.5t48 19.5t48 -19.5t20 -46.5q0 -29 -20 -49t-48 -20z" />
    <glyph glyph-name="gravecomb.case" 
d="M-401 901q6 25 32 15l181 -64q23 -9 17 -32l-2 -7q-6 -24 -30 -19l-189 39q-24 6 -18 30z" />
    <glyph glyph-name="acutecomb.case" 
d="M-232 915q24 8 31 -18l8 -37q6 -25 -19 -29l-184 -31q-23 -5 -31 18l-2 7q-6 22 17 31z" />
    <glyph glyph-name="uni030B.case" 
d="M-355 908q7 19 29 19l43 -1q15 0 19.5 -8.5t-3.5 -21.5l-59 -94q-11 -17 -30 -17h-19q-14 0 -19.5 8t-0.5 21zM-196 908q7 19 29 19l43 -1q15 0 19.5 -8.5t-3.5 -21.5l-59 -94q-11 -17 -30 -17h-19q-14 0 -19.5 8t-0.5 21z" />
    <glyph glyph-name="uni0302.case" 
d="M-417 826q-8 18 7 27l134 70q22 12 44 0l137 -70q16 -10 8 -27l-8 -18q-7 -16 -25 -10l-113 38q-21 7 -42 0l-109 -37q-18 -7 -25 9z" />
    <glyph glyph-name="uni030C.case" 
d="M-411 885l5 17q6 22 28 14l105 -33q18 -6 35 0l105 33q22 7 28 -14l5 -17q7 -21 -12 -29l-117 -52q-27 -13 -55 0l-115 52q-20 8 -12 29z" />
    <glyph glyph-name="uni0306.case" 
d="M-407 915q19 0 28 -20q20 -44 78 -44q57 0 79 44q10 20 29 20l28 -1q29 -2 22 -27q-15 -50 -58 -79t-100 -29q-55 0 -99.5 28.5t-59.5 79.5q-7 25 22 27z" />
    <glyph glyph-name="uni030A.case" 
d="M-311 766q-51 0 -82.5 30.5t-31.5 74.5q0 43 32 73.5t82 30.5q52 0 84 -30.5t32 -73.5q0 -45 -32 -75t-84 -30zM-311 826q21 0 34.5 13t13.5 32t-13.5 32.5t-34.5 13.5q-20 0 -33 -13.5t-13 -32.5t13 -32t33 -13z" />
    <glyph glyph-name="tildecomb.case" 
d="M-136 890q26 -5 20 -29q-9 -34 -34 -52t-60 -18q-33 1 -74 22t-57 21q-26 0 -39 -16q-13 -19 -32 -15l-15 3q-26 5 -20 30q17 70 89 70q29 -1 75 -22.5t63 -21.5q26 0 38 15q14 20 31 16z" />
    <glyph glyph-name="uni0304.case" 
d="M-433 859q0 25 25 25h242q25 0 25 -25v-27q0 -25 -25 -25h-242q-25 0 -25 25v27z" />
    <glyph glyph-name="uni0337.case" 
d="M-165 515q24 11 32 -14l6 -17q8 -24 -14 -33l-282 -122q-25 -11 -32 14l-5 17q-6 23 15 32z" />
    <glyph glyph-name="uni0338.case" 
d="M-5 616q17 19 36 0l16 -16q18 -18 1 -36l-629 -639q-17 -19 -36 0l-14 14q-18 18 -1 36z" />
    <glyph glyph-name="caron.alt" horiz-adv-x="600" 
d="M230 600q24 0 27 23l26 172q3 27 -23 27h-31q-24 0 -26 -24l-15 -172q-2 -26 24 -26h18z" />
    <glyph glyph-name="acute.case" horiz-adv-x="600" 
d="M368 915q24 8 31 -18l8 -37q6 -25 -19 -29l-184 -31q-23 -5 -31 18l-2 7q-6 22 17 31z" />
    <glyph glyph-name="breve.case" horiz-adv-x="600" 
d="M193 915q19 0 28 -20q20 -44 78 -44q57 0 79 44q10 20 29 20l28 -1q29 -2 22 -27q-15 -50 -58 -79t-100 -29q-55 0 -99.5 28.5t-59.5 79.5q-7 25 22 27z" />
    <glyph glyph-name="caron.case" horiz-adv-x="517" 
d="M100 885l5 17q6 22 28 14l105 -33q18 -6 35 0l105 33q22 7 28 -14l5 -17q7 -21 -12 -29l-117 -52q-27 -13 -55 0l-115 52q-20 8 -12 29z" />
    <glyph glyph-name="circumflex.case" horiz-adv-x="511" 
d="M94 826q-8 18 7 27l134 70q22 12 44 0l137 -70q16 -10 8 -27l-8 -18q-7 -16 -25 -10l-113 38q-21 7 -42 0l-109 -37q-18 -7 -25 9z" />
    <glyph glyph-name="dieresis.case" horiz-adv-x="437" 
d="M115 785q-25 0 -43 18.5t-18 44.5q0 25 18 42.5t43 17.5q26 0 44 -17.5t18 -42.5q0 -26 -18 -44.5t-44 -18.5zM315 785q-26 0 -44 18.5t-18 44.5q0 25 18 42.5t44 17.5q25 0 43.5 -17.5t18.5 -42.5q0 -26 -18.5 -44.5t-43.5 -18.5z" />
    <glyph glyph-name="dotaccent.case" horiz-adv-x="284" 
d="M142 610q-29 0 -48.5 20t-19.5 49q0 27 20 46.5t48 19.5t48 -19.5t20 -46.5q0 -29 -20 -49t-48 -20z" />
    <glyph glyph-name="grave.case" horiz-adv-x="600" 
d="M149 901q6 25 32 15l181 -64q23 -9 17 -32l-2 -7q-6 -24 -30 -19l-189 39q-24 6 -18 30z" />
    <glyph glyph-name="hungarumlaut.case" horiz-adv-x="600" 
d="M245 908q7 19 29 19l43 -1q15 0 19.5 -8.5t-3.5 -21.5l-59 -94q-11 -17 -30 -17h-19q-14 0 -19.5 8t-0.5 21zM404 908q7 19 29 19l43 -1q15 0 19.5 -8.5t-3.5 -21.5l-59 -94q-11 -17 -30 -17h-19q-14 0 -19.5 8t-0.5 21z" />
    <glyph glyph-name="macron.case" horiz-adv-x="600" 
d="M167 859q0 25 25 25h242q25 0 25 -25v-27q0 -25 -25 -25h-242q-25 0 -25 25v27z" />
    <glyph glyph-name="ring.case" horiz-adv-x="466" 
d="M155 766q-51 0 -82.5 30.5t-31.5 74.5q0 43 32 73.5t82 30.5q52 0 84 -30.5t32 -73.5q0 -45 -32 -75t-84 -30zM155 826q21 0 34.5 13t13.5 32t-13.5 32.5t-34.5 13.5q-20 0 -33 -13.5t-13 -32.5t13 -32t33 -13z" />
    <glyph glyph-name="tilde.case" horiz-adv-x="600" 
d="M419 890q26 -5 20 -29q-9 -34 -34 -52t-60 -18q-33 1 -74 22t-57 21q-26 0 -39 -16q-13 -19 -32 -15l-15 3q-26 5 -20 30q17 70 89 70q29 -1 75 -22.5t63 -21.5q26 0 38 15q14 20 31 16z" />
    <glyph glyph-name="caronalt" horiz-adv-x="600" 
 />
    <glyph glyph-name="IJacute" horiz-adv-x="1002" 
d="M830 915q24 8 31 -18l8 -37q6 -25 -19 -29l-184 -31q-23 -5 -31 18l-2 7q-6 22 17 31zM243 914q24 8 31 -18l8 -37q6 -25 -19 -29l-184 -31q-23 -5 -31 18l-2 7q-6 22 17 31zM172 730q25 0 25 -25v-680q0 -25 -25 -25h-48q-25 0 -25 25v680q0 25 25 25h48zM320 223
q-3 27 24 27h44q22 0 27 -23q16 -69 67 -107.5t130 -38.5q82 0 131 54.5t49 137.5l1 339q0 28 -28 28h-240q-25 0 -25 25v40q0 25 25 25h330q35 0 35 -35v-422q0 -121 -76 -202t-202 -81q-120 0 -197 64.5t-95 168.5z" />
    <glyph glyph-name="ijacute" horiz-adv-x="558" 
d="M510 744q22 14 34 -10l17 -34q11 -23 -12 -33l-173 -72q-22 -10 -34 11l-3 6q-12 21 9 34zM207 740q22 14 34 -10l17 -34q11 -23 -12 -33l-173 -72q-22 -10 -34 11l-3 6q-12 21 9 34zM152 520q25 0 25 -25v-470q0 -25 -25 -25h-44q-25 0 -25 25v470q0 25 25 25h44z
M342 -210q-31 0 -61 5q-22 4 -19 29l3 31q3 23 27 20q16 -2 25 -2q63 0 63 72v550q0 25 25 25h44q25 0 25 -25v-557q0 -67 -36.5 -107.5t-95.5 -40.5z" />
    <glyph glyph-name="sign" horiz-adv-x="600" 
 />
    <glyph glyph-name="slashlong.case" horiz-adv-x="600" 
 />
    <glyph glyph-name="slashlong" horiz-adv-x="600" 
 />
    <glyph glyph-name="slashshort.case" horiz-adv-x="600" 
 />
    <glyph glyph-name="slashshort" horiz-adv-x="600" 
 />
    <glyph glyph-name="stroke" horiz-adv-x="600" 
 />
    </font>
</defs>
</svg>
