<?xml version="1.0" standalone="no"?>
<!DOCTYPE svg PUBLIC "-//W3C//DTD SVG 1.1//EN" "http://www.w3.org/Graphics/SVG/1.1/DTD/svg11.dtd" >
<svg xmlns="http://www.w3.org/2000/svg" xmlns:xlink="http://www.w3.org/1999/xlink" version="1.1">
<metadata>
Created by FontForge 20170731 at Thu Jan  4 15:34:59 2018
 By Aleksey,,,
Jorge Cisterna
</metadata>
<defs>
<font id="FibraOne-Bold" horiz-adv-x="0" >
  <font-face 
    font-family="Fibra One Bold"
    font-weight="700"
    font-stretch="normal"
    units-per-em="1000"
    panose-1="0 0 8 0 0 0 0 0 0 0"
    ascent="800"
    descent="-200"
    x-height="520"
    cap-height="730"
    bbox="-790 -245 1256 988.881"
    underline-thickness="50"
    underline-position="-200"
    unicode-range="U+0020-FB02"
  />
<missing-glyph horiz-adv-x="600" 
 />
    <glyph glyph-name="fi" unicode="fi" horiz-adv-x="688" 
d="M57 403q-32 0 -32 32v53q0 32 32 32h45q11 0 11 11v80q0 177 180 177q50 0 92 -13q26 -7 23 -37l-6 -54q-4 -32 -37 -24q-22 7 -47 7q-34 0 -50 -12.5t-16 -43.5v-80q0 -11 11 -11h101q32 0 32 -32v-53q0 -32 -32 -32h-101q-11 0 -11 -12v-361q0 -32 -32 -32h-75
q-32 0 -32 32v361q0 12 -11 12h-45zM555 588q-39 0 -65.5 27.5t-26.5 66.5q0 38 26.5 64.5t65.5 26.5q38 0 65.5 -27t27.5 -64q0 -39 -27.5 -66.5t-65.5 -27.5zM586 520q32 0 32 -32v-456q0 -32 -32 -32h-75q-32 0 -32 32v456q0 32 32 32h75z" />
    <glyph glyph-name="fl" unicode="fl" horiz-adv-x="688" 
d="M57 403q-32 0 -32 32v53q0 32 32 32h45q11 0 11 11v80q0 177 180 177q50 0 92 -13q26 -7 23 -37l-6 -54q-4 -32 -37 -24q-22 7 -47 7q-34 0 -50 -12.5t-16 -43.5v-80q0 -11 11 -11h101q32 0 32 -32v-53q0 -32 -32 -32h-101q-11 0 -11 -12v-361q0 -32 -32 -32h-75
q-32 0 -32 32v361q0 12 -11 12h-45zM586 780q32 0 32 -32v-716q0 -32 -32 -32h-75q-32 0 -32 32v716q0 32 32 32h75z" />
    <glyph glyph-name=".notdef" horiz-adv-x="600" 
 />
    <glyph glyph-name=".null" 
 />
    <glyph glyph-name="nonmarkingreturn" horiz-adv-x="333" 
 />
    <glyph glyph-name="space" unicode=" " horiz-adv-x="236" 
 />
    <glyph glyph-name="exclam" unicode="!" horiz-adv-x="284" 
d="M179 780q33 0 31 -32l-15 -488q0 -31 -32 -31h-42q-31 0 -32 31l-15 488q-2 32 31 32h74zM141 -10q-34 0 -58 25t-24 60q0 33 24 57t58 24t59 -24t25 -57q0 -35 -24.5 -60t-59.5 -25z" />
    <glyph glyph-name="quotedbl" unicode="&#x22;" horiz-adv-x="378" 
d="M123 780q27 0 27 -27v-187q0 -27 -27 -27h-40q-27 0 -27 27v187q0 27 27 27h40zM295 780q27 0 27 -27v-187q0 -27 -27 -27h-40q-27 0 -27 27v187q0 27 27 27h40z" />
    <glyph glyph-name="numbersign" unicode="#" horiz-adv-x="779" 
d="M34 207v41q0 31 32 31h96q26 0 31 28l11 65q5 32 -27 32h-69q-32 0 -32 32v40q0 32 32 32h91q27 0 32 27l21 128q4 29 33 29h53q16 0 24 -9.5t5 -25.5l-19 -117q-5 -32 27 -32h83q28 0 32 27l21 128q4 29 33 29h53q16 0 24 -9.5t5 -25.5l-19 -117q-6 -32 26 -32h80
q31 0 31 -32v-40q0 -32 -31 -32h-101q-28 0 -32 -27l-11 -66q-5 -32 27 -32h75q31 0 31 -31v-41q0 -32 -31 -32h-97q-28 0 -32 -27l-19 -119q-4 -29 -34 -29h-53q-34 0 -29 34l18 109q6 32 -27 32h-83q-27 0 -32 -27l-19 -119q-4 -29 -34 -29h-53q-34 0 -28 34l17 109
q6 32 -27 32h-73q-32 0 -32 32zM310 311q-5 -32 27 -32h83q27 0 32 28l11 65q5 32 -27 32h-83q-27 0 -32 -27z" />
    <glyph glyph-name="dollar" unicode="$" horiz-adv-x="625" 
d="M39 192q-4 17 4.5 26t24.5 9h63q25 0 36 -27q26 -65 102 -83q14 -5 14 11v126q0 13 -11 14q-210 37 -210 202q0 77 58 126.5t150 58.5q13 1 13 14v11q0 30 31 30h4q30 0 30 -30v-13q0 -11 12 -13q86 -12 140 -61t72 -126q6 -34 -29 -34h-70q-26 0 -36 25q-21 53 -74 73
q-15 5 -15 -11v-139q0 -13 12 -14q39 -7 64.5 -14t58.5 -21.5t52.5 -33.5t33.5 -51t14 -74q0 -78 -61.5 -125.5t-160.5 -56.5q-13 0 -13 -13v-30q0 -31 -30 -31h-4q-31 0 -31 30v33q0 13 -11 14q-86 11 -150 62t-83 136zM196 465q0 -60 72 -79q15 -3 15 11v128q0 16 -19 11
q-33 -7 -50.5 -26t-17.5 -45zM363 251q-15 2 -15 -11v-115q0 -14 14 -12q84 11 84 67q0 54 -83 71z" />
    <glyph glyph-name="percent" unicode="%" horiz-adv-x="892" 
d="M31 549q0 86 48.5 138.5t127.5 52.5q78 0 127 -52.5t49 -138.5q0 -85 -49 -138.5t-127 -53.5q-79 0 -127.5 53t-48.5 139zM248 87l319 617q14 29 43 16l35 -15q31 -14 15 -42l-318 -622q-14 -28 -42 -14l-37 18q-29 13 -15 42zM132 549q0 -48 20 -75t55 -27t55 27t20 75
q0 46 -20 73.5t-55 27.5t-55 -27.5t-20 -73.5zM509 182q0 85 49 138t127 53q79 0 127.5 -53t48.5 -138q0 -86 -48.5 -139t-127.5 -53q-78 0 -127 53.5t-49 138.5zM611 182q0 -47 20 -74.5t54 -27.5q35 0 55 27.5t20 74.5t-20 74t-55 27q-34 0 -54 -27t-20 -74z" />
    <glyph glyph-name="ampersand" unicode="&#x26;" horiz-adv-x="753" 
d="M39 204q0 104 86 159q20 13 4 30q-49 49 -49 127q0 89 71 148.5t178 59.5q93 0 156.5 -52t86.5 -137q4 -15 -3.5 -24.5t-23.5 -9.5h-81q-24 0 -35 24q-33 72 -100 72q-46 0 -75 -24t-29 -67q0 -45 28 -72.5t69 -27.5h38q30 0 30 -31v-49q0 -30 -30 -30h-57
q-60 0 -90.5 -24t-30.5 -66q0 -40 40.5 -66.5t104.5 -26.5q81 0 132.5 45t62.5 109q6 29 -23 29h-9q-31 0 -31 30v49q0 31 31 31h219q31 0 31 -31v-49q0 -30 -31 -30h-23q-24 0 -26 -24q-13 -120 -101 -202.5t-230 -82.5q-130 0 -210 60t-80 153z" />
    <glyph glyph-name="quotesingle" unicode="'" horiz-adv-x="206" 
d="M123 780q27 0 27 -27v-187q0 -27 -27 -27h-40q-27 0 -27 27v187q0 27 27 27h40z" />
    <glyph glyph-name="parenleft" unicode="(" horiz-adv-x="329" 
d="M280 714q23 -25 1 -50q-111 -116 -111 -327q0 -106 31 -190t81 -138q22 -23 -2 -49l-31 -30q-23 -25 -48 -3q-75 67 -117.5 173t-42.5 237t42.5 237t116.5 172q25 24 49 -2z" />
    <glyph glyph-name="parenright" unicode=")" horiz-adv-x="329" 
d="M159 337q0 210 -111 327q-23 25 0 50l31 30q24 26 49 2q74 -66 116.5 -172t42.5 -237t-42.5 -237t-116.5 -173q-26 -23 -49 3l-32 30q-23 26 -8 41q120 120 120 336z" />
    <glyph glyph-name="asterisk" unicode="*" horiz-adv-x="355" 
d="M261 691q28 11 38 -18l2 -7q8 -28 -21 -36l-37 -11q-8 -2 -9.5 -8t4.5 -12l31 -34q20 -22 -1 -42l-6 -5q-22 -19 -41 3l-34 38q-11 12 -21 0l-33 -38q-20 -23 -42 -3l-5 5q-24 20 -2 42l32 34q6 6 4.5 12t-10.5 8l-35 11q-28 7 -22 36l2 6q8 29 38 19l31 -12
q7 -2 12.5 1.5t5.5 11.5l-1 39q0 30 30 30h12q30 0 30 -30l-1 -39q0 -8 5.5 -11.5t12.5 -1.5z" />
    <glyph glyph-name="plus" unicode="+" horiz-adv-x="472" 
d="M40 276v47q0 32 32 32h91q17 0 17 17v90q0 32 32 32h49q32 0 32 -32v-89q0 -18 17 -18h90q32 0 32 -31v-48q0 -32 -32 -32h-90q-17 0 -17 -17v-89q0 -32 -32 -32h-49q-32 0 -32 32v89q0 17 -17 17h-91q-32 0 -32 32z" />
    <glyph glyph-name="comma" unicode="," horiz-adv-x="244" 
d="M63 119q5 30 34 30h63q35 0 27 -36l-44 -188q-6 -28 -34 -28h-39q-34 0 -29 34z" />
    <glyph glyph-name="hyphen" unicode="-" horiz-adv-x="506" 
d="M411 331q35 0 35 -35v-41q0 -35 -35 -35h-316q-35 0 -35 35v41q0 35 35 35h316z" />
    <glyph glyph-name="period" unicode="." horiz-adv-x="259" 
d="M129 -10q-35 0 -59.5 25.5t-24.5 61.5q0 34 25 58.5t59 24.5q35 0 60.5 -24.5t25.5 -58.5q0 -36 -25.5 -61.5t-60.5 -25.5z" />
    <glyph glyph-name="slash" unicode="/" horiz-adv-x="500" 
d="M64 -10q-18 0 -24.5 10t0.5 27l294 682q10 24 37 24h64q18 0 25 -10t0 -27l-288 -682q-10 -24 -36 -24h-72z" />
    <glyph glyph-name="zero" unicode="0" horiz-adv-x="767" 
d="M49 370q0 164 92 267t243 103t243 -103t92 -267q0 -169 -92 -274.5t-243 -105.5t-243 105.5t-92 274.5zM196 365q0 -110 51.5 -177.5t136.5 -67.5t136.5 67.5t51.5 177.5t-51.5 177.5t-136.5 67.5t-136.5 -67.5t-51.5 -177.5z" />
    <glyph glyph-name="one" unicode="1" horiz-adv-x="500" 
d="M83 494q-15 -2 -24 6.5t-9 24.5v60q0 28 29 34q111 21 173 92q16 19 39 19h23q32 0 32 -32v-544q0 -35 35 -35h66q32 0 32 -32v-55q0 -32 -32 -32h-357q-32 0 -32 32v55q0 32 32 32h79q35 0 35 35v341q0 17 -9 23.5t-24 0.5q-39 -19 -88 -25z" />
    <glyph glyph-name="two" unicode="2" horiz-adv-x="639" 
d="M74 494q-16 0 -24.5 9t-5.5 25q15 96 88 154t177 58q125 0 192 -60.5t67 -155.5q0 -31 -8 -60.5t-15.5 -48t-32 -49.5t-32.5 -40t-44.5 -45t-42.5 -42l-89 -89q-11 -13 -7.5 -22t20.5 -9h251q32 0 32 -32v-55q0 -32 -32 -32h-484q-32 0 -32 32v16q0 22 17 39l228 228
q72 70 99 110.5t27 87.5q0 45 -30.5 74.5t-83.5 29.5q-46 0 -80.5 -26t-45.5 -68q-10 -29 -36 -29h-73z" />
    <glyph glyph-name="three" unicode="3" horiz-adv-x="661" 
d="M46 183q-5 16 2.5 26t24.5 10h82q24 0 36 -26q33 -79 142 -79q60 0 97 30t36 74q0 46 -37 70.5t-109 24.5h-34q-32 0 -32 32v46q0 32 32 32h34q55 0 88 26.5t33 69.5t-31 70t-81 28q-97 0 -129 -77q-10 -26 -36 -26h-74q-17 0 -24.5 9.5t-3.5 25.5q22 85 91.5 138
t175.5 53q120 0 189 -56.5t69 -153.5q-2 -87 -72 -140q-23 -16 3 -27q94 -43 94 -158q0 -68 -41 -118.5t-103 -73.5t-135 -23q-116 0 -187.5 51t-99.5 142z" />
    <glyph glyph-name="four" unicode="4" horiz-adv-x="654" 
d="M54 135q-32 0 -32 32v29q0 21 13 40q91 131 143.5 243t56.5 221q2 32 31 32h76q34 0 31 -32q-11 -198 -167 -415q-10 -14 -4.5 -24.5t22.5 -10.5h129q30 0 30 31v146q0 32 32 32h72q32 0 32 -32v-146q0 -31 31 -31h50q32 0 32 -31v-52q0 -32 -32 -32h-50q-31 0 -31 -30
v-81q0 -32 -32 -32h-72q-32 0 -32 32v81q0 30 -30 30h-299z" />
    <glyph glyph-name="five" unicode="5" horiz-adv-x="618" 
d="M40 183q-6 16 1.5 26t25.5 10h80q26 0 36 -26q16 -37 50.5 -58.5t75.5 -21.5q51 0 89 31t38 86q0 51 -34 83t-94 32h-177q-55 0 -55 56v288q0 41 40 41h373q32 0 32 -32v-62q0 -32 -32 -32h-258q-35 0 -35 -35v-81q0 -28 28 -28h88q128 0 198.5 -62t71.5 -168
q0 -109 -75.5 -174.5t-197.5 -65.5q-103 0 -171.5 52.5t-97.5 140.5z" />
    <glyph glyph-name="six" unicode="6" horiz-adv-x="678" 
d="M50 361q0 186 87.5 282.5t217.5 96.5q100 0 166.5 -52t90.5 -137q4 -16 -3.5 -25.5t-24.5 -9.5h-79q-24 0 -36 25q-34 76 -114 76q-69 0 -116.5 -53t-54.5 -151q0 -16 1 -23q6 -24 28 -3q66 56 176 56q109 0 175.5 -61t66.5 -157q0 -103 -76.5 -169t-197.5 -66
q-143 0 -225 100.5t-82 270.5zM212 241q-10 -24 3 -45q42 -82 143 -82q56 0 93.5 32t37.5 79t-34.5 77.5t-87.5 30.5q-52 0 -94 -24.5t-61 -67.5z" />
    <glyph glyph-name="seven" unicode="7" horiz-adv-x="569" 
d="M54 604q-32 0 -32 32v62q0 32 32 32h450q33 0 39 -31l5 -19q5 -25 -11 -47q-119 -143 -171 -275.5t-60 -325.5q-2 -32 -32 -32h-92q-33 0 -31 33q18 314 191 539q10 14 5.5 23t-21.5 9h-272z" />
    <glyph glyph-name="eight" unicode="8" horiz-adv-x="682" 
d="M45 215q0 99 85 153q31 21 6 46q-54 54 -54 118q0 96 70.5 152t188.5 56t189 -56t71 -152q0 -66 -55 -118q-25 -25 3 -46q88 -63 88 -153q0 -101 -81.5 -163t-214.5 -62t-214.5 62t-81.5 163zM222 532q0 -43 32.5 -70t86.5 -27q53 0 86 27.5t33 69.5q0 41 -34 69.5
t-85 28.5q-52 0 -85.5 -28t-33.5 -70zM188 218q0 -50 42.5 -82t110.5 -32t111 32t43 82t-42.5 82.5t-111.5 32.5t-111 -32.5t-42 -82.5z" />
    <glyph glyph-name="nine" unicode="9" horiz-adv-x="675" 
d="M624 377q0 -192 -78.5 -289.5t-227.5 -97.5q-95 0 -161.5 52.5t-93.5 140.5q-5 16 2.5 26t24.5 10h76q24 0 36 -27q15 -37 48 -58t75 -21q64 0 105.5 44t54.5 129l3 21q3 19 -6.5 23t-22.5 -8q-67 -56 -163 -56q-110 0 -177.5 66.5t-67.5 162.5q0 113 75 179t195 66
q140 0 221.5 -92t81.5 -271zM192 499q0 -48 33 -82.5t93 -34.5q49 0 89.5 24.5t58.5 64.5q10 24 -3 48q-45 97 -142 97q-59 0 -94 -32t-35 -85z" />
    <glyph glyph-name="colon" unicode=":" horiz-adv-x="285" 
d="M142 320q-35 0 -59.5 25.5t-24.5 61.5q0 34 24.5 58.5t59.5 24.5t60 -24.5t25 -58.5q0 -36 -25 -61.5t-60 -25.5zM142 -10q-35 0 -59.5 25.5t-24.5 61.5q0 34 24.5 58.5t59.5 24.5t60 -24.5t25 -58.5q0 -36 -25 -61.5t-60 -25.5z" />
    <glyph glyph-name="semicolon" unicode=";" horiz-adv-x="281" 
d="M144 318q-36 0 -61.5 26.5t-25.5 63.5q0 35 25.5 60t61.5 25t62 -25t26 -60q0 -37 -26 -63.5t-62 -26.5zM78 119q3 30 33 30h62q36 0 28 -36l-44 -187q-7 -28 -35 -28h-38q-34 0 -29 34z" />
    <glyph glyph-name="less" unicode="&#x3c;" horiz-adv-x="451" 
d="M65 215q-24 10 -24 37v51q0 25 23 37l294 145q16 8 26.5 1.5t10.5 -25.5v-70q0 -27 -25 -37l-159 -62q-13 -5 -13 -14t13 -14l159 -59q25 -10 25 -37v-70q0 -18 -10.5 -24.5t-26.5 0.5z" />
    <glyph glyph-name="equal" unicode="=" horiz-adv-x="513" 
d="M417 414q32 0 32 -32v-46q0 -32 -32 -32h-321q-32 0 -32 32v46q0 32 32 32h321zM417 224q32 0 32 -31v-47q0 -32 -32 -32h-321q-32 0 -32 32v47q0 31 32 31h321z" />
    <glyph glyph-name="greater" unicode="&#x3e;" horiz-adv-x="451" 
d="M92 74q-16 -8 -26.5 -1t-10.5 25v70q0 27 25 37l160 59q15 6 15.5 14t-15.5 14l-160 62q-25 10 -25 37v70q0 19 10.5 25.5t27.5 -1.5l293 -145q24 -12 24 -37v-51q0 -26 -24 -37z" />
    <glyph glyph-name="question" unicode="?" horiz-adv-x="584" 
d="M63 514q-16 0 -24 9.5t-4 25.5q25 86 91.5 138.5t168.5 52.5q112 0 181.5 -60.5t69.5 -168.5q0 -84 -54 -140.5t-137 -86.5q-18 -6 -19 -23l-2 -19q-3 -29 -33 -29h-47q-30 0 -33 30l-6 81q-4 42 40 51q148 29 148 135q0 46 -30.5 74.5t-77.5 28.5q-84 0 -118 -74
q-12 -25 -37 -25h-77zM195 75q0 33 24 57t58 24t59 -24t25 -57q0 -35 -24.5 -60t-59.5 -25q-34 0 -58 25t-24 60z" />
    <glyph glyph-name="at" unicode="@" horiz-adv-x="939" 
d="M44 298q0 197 139.5 320t346.5 123q158 0 266.5 -91.5t108.5 -243.5q0 -121 -61 -194.5t-160 -73.5q-59 0 -99 42q-12 12 -26 2q-55 -47 -141 -47q-75 0 -125 47.5t-50 133.5q0 92 61 157.5t159 65.5q71 0 122 -46q13 -15 23 2l8 15q11 21 36 21h16q33 0 28 -33l-37 -205
q-11 -59 43 -59q46 0 71 45t25 121q0 107 -78.5 173t-201.5 66q-156 0 -261.5 -93t-105.5 -236q0 -121 79 -192.5t201 -71.5q81 0 147 19q20 5 30 -2.5t6 -25.5l-8 -36q-6 -28 -33 -35q-71 -21 -156 -21q-153 0 -263 101.5t-110 251.5zM352 316q0 -38 23 -62.5t59 -24.5
q69 0 105 51q12 17 16 41l6 33q5 27 -5 44q-28 47 -88 47q-50 0 -83 -34.5t-33 -94.5z" />
    <glyph glyph-name="A" unicode="A" horiz-adv-x="718" 
d="M42 0q-16 0 -23 10t-2 26l240 654q13 40 56 40h82q43 0 57 -39l257 -655q6 -17 -0.5 -26.5t-23.5 -9.5h-88q-27 0 -37 25l-39 109q-5 12 -18 12h-288q-13 0 -17 -12l-38 -108q-8 -26 -35 -26h-83zM250 287q-5 -18 13 -18h191q8 0 11.5 5t0.5 13l-100 274q-2 7 -6 9.5
t-8 0t-6 -9.5z" />
    <glyph glyph-name="B" unicode="B" horiz-adv-x="683" 
d="M125 0q-42 0 -42 42v646q0 42 42 42h239q118 0 187.5 -57.5t69.5 -144.5q0 -88 -74 -138q-25 -18 1 -33q92 -56 92 -160q0 -89 -71.5 -143t-191.5 -54h-252zM223 440q0 -18 18 -18h114q66 1 96 27.5t30 70.5q0 42 -34 68.5t-88 26.5h-118q-18 0 -18 -18v-157zM223 133
q0 -18 18 -18h126q62 0 96.5 27.5t34.5 71.5q0 100 -139 100h-118q-18 0 -18 -18v-163z" />
    <glyph glyph-name="C" unicode="C" horiz-adv-x="831" 
d="M40 368q0 160 111.5 266t279.5 106q142 0 238.5 -82t118.5 -207q5 -33 -29 -33h-87q-27 0 -35 29q-18 73 -73.5 119t-132.5 46q-106 0 -174.5 -69.5t-68.5 -174.5q0 -108 68.5 -179t174.5 -71q75 0 128.5 34t75.5 93q11 26 37 26h86q17 0 25 -9.5t4 -25.5
q-28 -107 -123.5 -176.5t-232.5 -69.5q-168 0 -279.5 107t-111.5 271z" />
    <glyph glyph-name="D" unicode="D" horiz-adv-x="785" 
d="M125 0q-42 0 -42 42v646q0 42 42 42h236q168 0 275.5 -103t107.5 -262q0 -163 -107.5 -264t-275.5 -101h-236zM227 136q0 -18 18 -18h116q99 0 167.5 64t68.5 183q0 120 -68.5 183.5t-167.5 63.5h-116q-18 0 -18 -18v-458z" />
    <glyph glyph-name="E" unicode="E" horiz-adv-x="564" 
d="M125 0q-42 0 -42 42v646q0 42 42 42h350q31 0 31 -32v-54q0 -32 -31 -32h-231q-18 0 -18 -18v-154q0 -18 18 -18h211q32 0 32 -32v-54q0 -32 -32 -32h-211q-18 0 -18 -18v-150q0 -18 18 -18h240q32 0 32 -31v-55q0 -32 -32 -32h-359z" />
    <glyph glyph-name="F" unicode="F" horiz-adv-x="551" 
d="M115 0q-32 0 -32 32v656q0 42 42 42h354q32 0 32 -32v-57q0 -32 -32 -32h-234q-18 0 -18 -18v-151q0 -18 18 -18h230q32 0 32 -32v-56q0 -32 -32 -32h-230q-18 0 -18 -18v-252q0 -32 -31 -32h-81z" />
    <glyph glyph-name="G" unicode="G" horiz-adv-x="811" 
d="M40 370q0 159 111.5 264.5t275.5 105.5q126 0 218.5 -73t115.5 -187q3 -16 -5 -25t-24 -9h-76q-26 0 -34 28q-18 63 -69.5 102.5t-125.5 39.5q-102 0 -170.5 -71t-68.5 -180t68.5 -180.5t170.5 -71.5q75 0 127 30.5t73 84.5q4 9 -1 15t-14 6h-139q-31 0 -31 31v42
q0 32 31 32h256q36 0 36 -35v-6q0 -148 -92 -235.5t-246 -87.5q-164 0 -275.5 108.5t-111.5 271.5z" />
    <glyph glyph-name="H" unicode="H" horiz-adv-x="818" 
d="M115 0q-32 0 -32 32v666q0 32 32 32h81q31 0 31 -32v-238q0 -34 35 -34h294q35 0 35 34v238q0 32 32 32h80q32 0 32 -32v-666q0 -32 -32 -32h-80q-32 0 -32 32v229q0 34 -35 34h-294q-35 0 -35 -34v-229q0 -32 -31 -32h-81z" />
    <glyph glyph-name="I" unicode="I" horiz-adv-x="311" 
d="M196 730q31 0 31 -32v-666q0 -32 -31 -32h-81q-32 0 -32 32v666q0 32 32 32h81z" />
    <glyph glyph-name="J" unicode="J" horiz-adv-x="702" 
d="M22 230q-3 16 5.5 25t24.5 9h76q26 0 34 -28q15 -54 59 -86t107 -32q71 0 113 46.5t42 121.5v303q0 21 -21 21h-208q-32 0 -32 32v56q0 32 32 32h334q39 0 39 -38v-406q0 -128 -82.5 -212t-216.5 -84q-125 0 -206.5 67.5t-99.5 172.5z" />
    <glyph glyph-name="K" unicode="K" horiz-adv-x="669" 
d="M196 730q31 0 31 -32v-666q0 -32 -31 -32h-81q-32 0 -32 32v666q0 32 32 32h81zM251 307q-12 16 -12 34v42q0 18 12 34l230 294q14 19 39 19h93q20 0 25.5 -11.5t-7.5 -27.5l-257 -313q-10 -12 0 -25l273 -314q13 -16 7.5 -27.5t-25.5 -11.5h-107q-24 0 -38 19z" />
    <glyph glyph-name="L" unicode="L" horiz-adv-x="580" 
d="M122 0q-39 0 -39 38v660q0 32 32 32h81q31 0 31 -32v-552q0 -18 18 -18h287q32 0 32 -32v-64q0 -32 -32 -32h-410z" />
    <glyph glyph-name="M" unicode="M" horiz-adv-x="896" 
d="M115 0q-32 0 -32 32v660q0 38 39 38h49q30 0 46 -24l217 -314q12 -18 25 0l224 314q17 24 47 24h44q38 0 38 -38v-660q0 -32 -32 -32h-70q-32 0 -32 32v433q0 13 -7 15.5t-15 -8.5l-159 -232q-15 -23 -46 -23h-8q-29 0 -45 23l-158 231q-8 11 -15 8.5t-7 -15.5v-432
q0 -32 -32 -32h-71z" />
    <glyph glyph-name="N" unicode="N" horiz-adv-x="802" 
d="M115 0q-32 0 -32 32v660q0 38 38 38h23q28 0 46 -22l380 -471q8 -10 15 -7.5t7 15.5v453q0 32 32 32h63q32 0 32 -32v-660q0 -38 -38 -38h-43q-28 0 -46 22l-360 437q-8 10 -15 7.5t-7 -15.5v-419q0 -32 -32 -32h-63z" />
    <glyph glyph-name="O" unicode="O" horiz-adv-x="863" 
d="M40 368q0 161 111 266.5t280 105.5t280.5 -105.5t111.5 -266.5q0 -164 -111 -271t-281 -107q-169 0 -280 107t-111 271zM188 368q0 -110 68 -180.5t175 -70.5q108 0 176 70.5t68 180.5q0 108 -68 176.5t-176 68.5q-107 0 -175 -68.5t-68 -176.5z" />
    <glyph glyph-name="P" unicode="P" horiz-adv-x="645" 
d="M115 0q-32 0 -32 32v656q0 42 42 42h185q133 0 221.5 -73.5t88.5 -190.5q0 -115 -88.5 -188.5t-221.5 -73.5h-65q-18 0 -18 -18v-154q0 -32 -31 -32h-81zM227 340q0 -18 18 -18h68q68 0 114 42t46 102q0 63 -46 104.5t-114 41.5h-68q-18 0 -18 -18v-254z" />
    <glyph glyph-name="Q" unicode="Q" horiz-adv-x="863" 
d="M735 122l55 -60q24 -25 -3 -47l-34 -29q-26 -23 -47 3l-55 60q-96 -59 -220 -59q-169 0 -280 107t-111 271q0 161 111 266.5t280 105.5t280.5 -105.5t111.5 -266.5q0 -144 -88 -246zM431 117q70 0 128 33l-76 82q-24 25 3 47l35 29q25 22 47 -3l70 -77q37 60 37 140
q0 108 -68 176.5t-176 68.5q-107 0 -175 -68.5t-68 -176.5q0 -110 68 -180.5t175 -70.5z" />
    <glyph glyph-name="R" unicode="R" horiz-adv-x="648" 
d="M83 32v662q0 36 37 36h182q130 0 215 -68.5t85 -176.5q0 -81 -53 -140.5t-134 -78.5l-4 -1q-12 -4 -14.5 -12t6.5 -18l179 -195q14 -16 8.5 -28t-25.5 -12h-105q-24 0 -38 18l-166 199q-10 12 -19.5 8.5t-9.5 -19.5v-174q0 -32 -31 -32h-81q-32 0 -32 32zM227 379
q0 -18 18 -18h57q71 0 112 35t41 89q0 55 -41 90t-112 35h-57q-18 0 -18 -18v-213z" />
    <glyph glyph-name="S" unicode="S" horiz-adv-x="635" 
d="M34 192q-5 16 2.5 25.5t24.5 9.5h82q25 0 36 -25q40 -85 145 -85q55 0 89 21.5t34 56.5q0 34 -28.5 58t-71 36t-92 30.5t-92 40.5t-71 67t-28.5 108q0 92 70.5 148.5t181.5 56.5q102 0 169.5 -52.5t91.5 -138.5q4 -16 -4 -25.5t-25 -9.5h-78q-25 0 -37 25q-34 74 -117 74
q-48 0 -78 -21t-30 -57q0 -26 16.5 -46t43.5 -32t61.5 -24.5t71 -23.5t71 -29t61.5 -40.5t43.5 -59t16.5 -82.5q0 -95 -78.5 -151.5t-190.5 -56.5q-108 0 -183 53t-107 149z" />
    <glyph glyph-name="T" unicode="T" horiz-adv-x="588" 
d="M48 605q-32 0 -32 32v61q0 32 32 32h492q31 0 31 -32v-61q0 -32 -31 -32h-155q-20 0 -20 -20v-553q0 -32 -32 -32h-87q-32 0 -32 32v553q0 20 -20 20h-146z" />
    <glyph glyph-name="U" unicode="U" horiz-adv-x="777" 
d="M74 308v390q0 32 32 32h83q32 0 32 -32v-399q0 -81 48 -129.5t120 -48.5q71 0 119 48.5t48 129.5v399q0 32 32 32h84q31 0 31 -32v-390q0 -140 -88.5 -229t-225.5 -89q-136 0 -225.5 89t-89.5 229z" />
    <glyph glyph-name="V" unicode="V" horiz-adv-x="712" 
d="M12 694q-7 16 0 26t25 10h91q28 0 37 -26l179 -514q4 -10 10 -14t12 -0.5t10 14.5l180 515q9 25 36 25h82q17 0 24.5 -10t0.5 -26l-253 -664q-12 -30 -45 -30h-91q-32 0 -44 30z" />
    <glyph glyph-name="W" unicode="W" horiz-adv-x="981" 
d="M16 695q-4 16 3 25.5t24 9.5h82q29 0 36 -28l105 -447q2 -11 8 -15.5t12 -0.5t9 15l131 451q7 25 34 25h64q28 0 34 -26l131 -456q3 -11 9 -15t12 0t9 16l108 453q8 28 35 28h72q35 0 27 -35l-182 -669q-6 -26 -33 -26h-75q-27 0 -34 26l-129 463q-3 11 -9 15.5t-12 0
t-9 -15.5l-132 -464q-7 -25 -34 -25h-73q-27 0 -34 26z" />
    <glyph glyph-name="X" unicode="X" horiz-adv-x="704" 
d="M40 0q-20 0 -25.5 11.5t6.5 27.5l239 319q11 15 0 31l-218 302q-11 16 -5 27.5t25 11.5h94q25 0 39 -20l151 -208q16 -23 31 0l146 208q13 20 38 20h85q20 0 25.5 -11.5t-5.5 -27.5l-217 -301q-11 -16 0 -31l231 -320q12 -16 6.5 -27.5t-25.5 -11.5h-96q-25 0 -39 20
l-160 223q-16 22 -31 0l-165 -223q-14 -20 -39 -20h-91z" />
    <glyph glyph-name="Y" unicode="Y" horiz-adv-x="651" 
d="M14 692q-10 17 -3.5 27.5t25.5 10.5h93q26 0 38 -23l146 -287q6 -11 14.5 -11t14.5 11l146 287q12 23 38 23h81q19 0 25.5 -10.5t-2.5 -27.5l-225 -409q-7 -14 -7 -27v-223q0 -33 -33 -33h-75q-33 0 -33 33v222q0 14 -7 28z" />
    <glyph glyph-name="Z" unicode="Z" horiz-adv-x="657" 
d="M57 0q-35 0 -35 32v9q0 22 14 42l365 498q8 13 4 21.5t-19 8.5h-314q-32 0 -32 31v56q0 32 32 32h515q35 0 35 -31v-7q0 -21 -14 -43l-368 -501q-9 -12 -4.5 -20.5t19.5 -8.5h343q31 0 31 -32v-55q0 -32 -31 -32h-541z" />
    <glyph glyph-name="bracketleft" unicode="[" horiz-adv-x="339" 
d="M122 -106q-42 0 -42 42v802q0 42 42 42h147q35 0 35 -35v-50q0 -35 -35 -35h-48q-23 0 -23 -24v-599q0 -23 23 -23h48q35 0 35 -36v-49q0 -35 -35 -35h-147z" />
    <glyph glyph-name="backslash" unicode="\" horiz-adv-x="486" 
d="M445 27q7 -16 0 -26.5t-24 -10.5h-50q-27 0 -37 24l-294 682q-7 16 -0.5 26.5t24.5 10.5h50q27 0 37 -24z" />
    <glyph glyph-name="bracketright" unicode="]" horiz-adv-x="339" 
d="M70 -106q-35 0 -35 35v50q0 35 35 35h48q23 0 23 24v599q0 24 -23 24h-48q-35 0 -35 35v49q0 35 35 35h147q42 0 42 -42v-802q0 -42 -42 -42h-147z" />
    <glyph glyph-name="asciicircum" unicode="^" horiz-adv-x="466" 
d="M54 633q-15 27 12 43l131 74q31 19 63 0l138 -75q27 -15 13 -42l-7 -14q-15 -25 -42 -15l-102 41q-30 13 -61 0l-96 -40q-26 -12 -41 14z" />
    <glyph glyph-name="underscore" unicode="_" horiz-adv-x="555" 
d="M475 0q35 0 35 -35v-41q0 -35 -35 -35h-395q-35 0 -35 35v41q0 35 35 35h395z" />
    <glyph glyph-name="grave" unicode="`" horiz-adv-x="600" 
d="M233 754q14 30 43 12l173 -106q26 -17 12 -44l-9 -15q-14 -25 -42 -16l-187 71q-30 12 -17 42z" />
    <glyph glyph-name="a" unicode="a" horiz-adv-x="580" 
d="M35 134q0 72 60.5 114t161.5 41l96 -1q28 0 28 28q0 45 -28.5 71t-74.5 26q-71 0 -97 -58q-10 -25 -35 -25h-62q-16 0 -24.5 9.5t-5.5 24.5q16 78 79.5 122t150.5 44q110 0 171.5 -62.5t61.5 -171.5v-264q0 -32 -32 -32h-23q-26 0 -38 22l-6 12q-13 25 -39 10
q-86 -54 -177 -54q-75 0 -121 42t-46 102zM174 150q0 -24 18.5 -37.5t47.5 -13.5q54 0 123 40q18 10 18 32v5q0 27 -28 27h-93q-86 0 -86 -53z" />
    <glyph glyph-name="b" unicode="b" horiz-adv-x="661" 
d="M69 32v716q0 32 32 32h70q32 0 32 -32v-231q0 -17 9 -21.5t24 4.5q53 30 125 30q112 0 188 -77.5t76 -190.5q0 -114 -76.5 -193t-190.5 -79q-94 0 -157 50q-26 21 -37 -9l-3 -6q-9 -25 -36 -25h-24q-32 0 -32 32zM207 212q0 -19 8 -34q42 -70 131 -70q57 0 97 45.5
t40 108.5q0 62 -40.5 106t-96.5 44q-90 0 -130 -69q-9 -14 -9 -34v-97z" />
    <glyph glyph-name="c" unicode="c" horiz-adv-x="605" 
d="M467 320q-22 0 -36 26q-13 29 -42.5 47.5t-70.5 18.5q-61 0 -100.5 -41.5t-39.5 -110.5q0 -71 41 -111.5t98 -40.5q82 0 110 59q14 25 36 25h74q16 0 25 -9.5t5 -24.5q-18 -76 -86.5 -122t-160.5 -46q-125 0 -204.5 78.5t-79.5 195.5q0 114 78.5 190t200.5 76
q105 0 170.5 -49t82.5 -127q3 -15 -5.5 -24.5t-24.5 -9.5h-71z" />
    <glyph glyph-name="d" unicode="d" horiz-adv-x="662" 
d="M37 262q0 116 78 192t197 76q63 0 114 -27q14 -8 23 -3t9 21v227q0 32 32 32h71q32 0 32 -32v-716q0 -32 -32 -32h-20q-26 0 -36 24l-5 9q-13 31 -37 8q-60 -51 -147 -51q-124 0 -201.5 76t-77.5 196zM179 262q0 -64 41 -109t101 -45q40 0 73.5 19.5t51.5 50.5q8 14 8 34
v97q0 21 -8 34q-19 31 -52.5 50t-72.5 19q-60 0 -101 -43.5t-41 -106.5z" />
    <glyph glyph-name="e" unicode="e" horiz-adv-x="596" 
d="M36 264q0 117 77.5 191.5t195.5 74.5q105 0 179.5 -78.5t70.5 -200.5q0 -13 -8.5 -21t-22.5 -8h-322q-15 0 -22 -8.5t-1 -22.5q15 -41 48.5 -64.5t77.5 -23.5q74 0 101 46q16 23 37 23h68q17 0 25.5 -10t2.5 -25q-23 -65 -85.5 -106t-148.5 -41q-117 0 -195 77t-78 197z
M189 345q-7 -14 0 -23.5t23 -9.5h179q16 0 23 8.5t1 23.5q-31 74 -108 74q-78 0 -118 -73z" />
    <glyph glyph-name="f" unicode="f" horiz-adv-x="410" 
d="M57 403q-32 0 -32 32v53q0 32 32 32h45q11 0 11 11v80q0 177 180 177q50 0 92 -13q26 -7 23 -37l-6 -54q-4 -32 -37 -24q-22 7 -47 7q-34 0 -50 -12.5t-16 -43.5v-80q0 -11 11 -11h101q32 0 32 -32v-53q0 -32 -32 -32h-101q-11 0 -11 -12v-361q0 -32 -32 -32h-75
q-32 0 -32 32v361q0 12 -11 12h-45z" />
    <glyph glyph-name="g" unicode="g" horiz-adv-x="659" 
d="M36 266q0 113 78 188.5t197 75.5q84 0 145 -47q27 -20 37 9l2 4q11 24 37 24h26q32 0 32 -32v-473q0 -104 -73 -168t-191 -64q-91 0 -154.5 38t-90.5 105q-7 16 1 26t25 10h65q19 0 38 -22q34 -46 116 -46q61 0 99.5 34t38.5 87v2q0 31 -33 12q-49 -30 -116 -30
q-124 0 -201.5 75.5t-77.5 191.5zM178 266q0 -61 41 -105t101 -44q39 0 71.5 17.5t50.5 46.5q9 13 9 35v97q0 22 -9 34q-19 30 -52 47.5t-70 17.5q-59 0 -100.5 -42.5t-41.5 -103.5z" />
    <glyph glyph-name="h" unicode="h" horiz-adv-x="648" 
d="M101 0q-32 0 -32 32v716q0 32 32 32h69q32 0 32 -32v-240q0 -16 9.5 -21.5t24.5 2.5q76 41 164 41q87 0 135.5 -55t48.5 -156v-287q0 -32 -32 -32h-75q-32 0 -32 32v281q0 44 -23 69.5t-65 25.5q-58 0 -131 -47q-19 -11 -19 -34v-295q0 -32 -32 -32h-74z" />
    <glyph glyph-name="i" unicode="i" horiz-adv-x="278" 
d="M145 588q-39 0 -65.5 27.5t-26.5 66.5q0 38 26.5 64.5t65.5 26.5q38 0 65.5 -27t27.5 -64q0 -39 -27.5 -66.5t-65.5 -27.5zM176 520q32 0 32 -32v-456q0 -32 -32 -32h-75q-32 0 -32 32v456q0 32 32 32h75z" />
    <glyph glyph-name="j" unicode="j" horiz-adv-x="285" 
d="M149 588q-39 0 -65.5 27.5t-26.5 66.5q0 38 26.5 64.5t65.5 26.5q38 0 65.5 -27t27.5 -64q0 -39 -27.5 -66.5t-65.5 -27.5zM62 -217q-25 0 -61 4q-30 5 -27 36l5 55q3 31 22 28q4 0 10.5 -0.5t9.5 -0.5q56 0 56 63v520q0 32 32 32h75q31 0 31 -32v-532q0 -78 -42 -125.5
t-111 -47.5z" />
    <glyph glyph-name="k" unicode="k" horiz-adv-x="596" 
d="M101 0q-32 0 -32 32v716q0 32 32 32h75q31 0 31 -32v-417q0 -22 10.5 -26t24.5 12l167 185q15 18 39 18h86q21 0 25.5 -11.5t-9.5 -27.5l-144 -153q-18 -18 -3 -38l171 -252q10 -16 4.5 -27t-24.5 -11h-90q-23 0 -38 21l-109 168q-17 27 -40 4l-56 -57q-14 -14 -14 -35
v-69q0 -32 -31 -32h-75z" />
    <glyph glyph-name="l" unicode="l" horiz-adv-x="278" 
d="M176 780q32 0 32 -32v-716q0 -32 -32 -32h-75q-32 0 -32 32v716q0 32 32 32h75z" />
    <glyph glyph-name="m" unicode="m" horiz-adv-x="1027" 
d="M101 0q-32 0 -32 32v456q0 32 32 32h30q27 0 37 -25l3 -8q11 -29 38 -13q89 56 192 56q88 0 136 -57q17 -20 39 -7q98 64 205 64q86 0 134 -55t48 -156v-287q0 -32 -31 -32h-76q-31 0 -31 32v278q0 45 -23.5 71.5t-66.5 26.5q-56 0 -134 -49q-17 -10 -17 -26v-14v-287
q0 -32 -32 -32h-75q-32 0 -32 32v279q0 45 -23 71t-65 26q-57 0 -132 -47q-18 -11 -18 -34v-295q0 -32 -32 -32h-74z" />
    <glyph glyph-name="n" unicode="n" horiz-adv-x="649" 
d="M101 0q-32 0 -32 32v456q0 32 32 32h34q27 0 36 -25l2 -7q10 -30 38 -13q90 55 191 55q87 0 135 -55t48 -156v-287q0 -32 -31 -32h-75q-32 0 -32 32v281q0 44 -23.5 69.5t-66.5 25.5q-57 0 -132 -47q-18 -11 -18 -34v-295q0 -32 -32 -32h-74z" />
    <glyph glyph-name="o" unicode="o" horiz-adv-x="642" 
d="M36 264q0 113 80.5 189.5t204.5 76.5t204 -76.5t80 -189.5q0 -117 -80 -195.5t-204 -78.5t-204.5 78.5t-80.5 195.5zM175 260q0 -65 41 -108.5t105 -43.5t105 43.5t41 108.5t-41 108.5t-105 43.5t-105 -43.5t-41 -108.5z" />
    <glyph glyph-name="p" unicode="p" horiz-adv-x="659" 
d="M101 -220q-32 0 -32 32v676q0 32 32 32h32q27 0 36 -26q8 -33 37 -11q62 47 153 47q112 0 188 -77.5t76 -190.5q0 -114 -76 -193t-190 -79q-75 0 -129 31q-15 9 -24 4.5t-9 -20.5v-193q0 -32 -32 -32h-62zM207 206q0 -20 9 -34q43 -64 126 -64q59 0 99 45t40 109
q0 62 -41 106t-98 44q-83 0 -126 -64q-9 -14 -9 -34v-108z" />
    <glyph glyph-name="q" unicode="q" horiz-adv-x="660" 
d="M37 262q0 116 78 192t197 76q85 0 146 -49q26 -21 37 9l3 6q10 24 36 24h25q32 0 32 -32v-673q0 -32 -32 -32h-63q-31 0 -31 32v189q0 17 -9.5 21.5t-23.5 -4.5q-51 -31 -116 -31q-124 0 -201.5 76t-77.5 196zM179 262q0 -64 41 -109t103 -45q37 0 69 17.5t51 46.5
q9 13 9 35v107q0 22 -9 34q-20 29 -52 46.5t-68 17.5q-61 0 -102.5 -43t-41.5 -107z" />
    <glyph glyph-name="r" unicode="r" horiz-adv-x="429" 
d="M101 0q-32 0 -32 32v456q0 32 32 32h32q26 0 36 -25l4 -11q11 -31 38 -12q85 58 156 58q17 0 25 -2q28 -4 25 -36l-8 -74q-3 -29 -36 -26q-22 2 -34 2q-51 0 -113 -43q-19 -13 -19 -35v-284q0 -32 -31 -32h-75z" />
    <glyph glyph-name="s" unicode="s" horiz-adv-x="548" 
d="M54 374q0 70 58 113t163 43q94 0 150.5 -41.5t72.5 -113.5q4 -15 -4.5 -24t-25.5 -9h-64q-24 0 -35 28q-19 52 -96 52q-40 0 -62 -12t-22 -33q0 -26 33 -41t80 -24t94.5 -23t80.5 -49t33 -91q0 -75 -62 -117t-164 -42q-100 0 -166.5 42t-82.5 118q-4 16 4.5 25t24.5 9h68
q24 0 35 -26q28 -60 120 -60q88 0 88 50q0 26 -33.5 41t-80.5 23.5t-94 22t-80 48.5t-33 91z" />
    <glyph glyph-name="t" unicode="t" horiz-adv-x="436" 
d="M58 403q-31 0 -31 32v53q0 32 31 32h33q11 0 11 11v75q0 29 27 35l71 18q16 4 26 -3.5t10 -23.5v-101q0 -11 11 -11h128q32 0 32 -32v-53q0 -32 -32 -32h-128q-11 0 -11 -12v-215q0 -64 55 -64q39 0 77 11q35 8 38 -26l6 -52q3 -29 -25 -38q-61 -17 -122 -17
q-75 0 -121.5 43.5t-46.5 139.5v218q0 12 -11 12h-28z" />
    <glyph glyph-name="u" unicode="u" horiz-adv-x="628" 
d="M64 201v287q0 32 32 32h75q31 0 31 -32v-281q0 -45 21 -70t61 -25q48 0 118 39q20 10 20 33v304q0 32 31 32h75q31 0 31 -32v-456q0 -32 -31 -32h-31q-27 0 -37 25l-2 5q-10 29 -37 13q-90 -53 -182 -53q-81 0 -128 55.5t-47 155.5z" />
    <glyph glyph-name="v" unicode="v" horiz-adv-x="577" 
d="M19 484q-6 16 0.5 26t24.5 10h93q29 0 36 -27l105 -338q4 -13 13 -13t13 13l108 338q9 27 35 27h87q18 0 25 -10t1 -27l-184 -455q-12 -28 -42 -28h-93q-30 0 -42 28z" />
    <glyph glyph-name="w" unicode="w" horiz-adv-x="805" 
d="M20 485q-4 16 3 25.5t24 9.5h71q29 0 35 -28l69 -300q3 -14 11 -14t12 13l93 307q7 25 33 25h65q26 0 33 -25l92 -312q3 -9 8 -11.5t9.5 1t6.5 11.5l69 305q6 28 35 28h69q37 0 27 -35l-130 -459q-7 -26 -33 -26h-96q-26 0 -34 26l-79 277q-2 9 -6.5 12t-9.5 0t-7 -12
l-87 -278q-7 -25 -33 -25h-87q-27 0 -34 26z" />
    <glyph glyph-name="x" unicode="x" horiz-adv-x="554" 
d="M51 0q-19 0 -24.5 11.5t5.5 27.5l156 219q7 11 0 24l-148 199q-11 16 -5.5 27.5t24.5 11.5h88q26 0 38 -21l85 -132q12 -20 24 -1l85 133q14 21 38 21h75q20 0 25.5 -11t-4.5 -27l-145 -210q-8 -10 1 -24l155 -209q12 -16 6 -27.5t-26 -11.5h-89q-25 0 -38 21l-91 136
q-5 8 -12 8t-12 -8l-93 -137q-13 -20 -38 -20h-80z" />
    <glyph glyph-name="y" unicode="y" horiz-adv-x="571" 
d="M18 484q-6 16 1 26t24 10h87q28 0 37 -26l109 -338q2 -9 7 -12t10 0t8 12l107 338q7 26 36 26h84q17 0 24 -10t1 -26l-201 -533q-32 -87 -84 -128t-136 -41q-38 0 -73 9q-28 6 -25 37l6 47q4 31 36 27q24 -5 64 -5q67 0 100 86l7 17h-21q-22 0 -30 21z" />
    <glyph glyph-name="z" unicode="z" horiz-adv-x="527" 
d="M26 44q0 20 13 34l260 307q7 8 4.5 14.5t-13.5 6.5h-219q-32 0 -32 32v50q0 32 32 32h381q28 0 28 -28v-48q0 -20 -13 -34l-230 -275q-7 -8 -4 -14.5t14 -6.5h219q31 0 31 -32v-50q0 -32 -31 -32h-411q-27 0 -29 28v16z" />
    <glyph glyph-name="braceleft" unicode="{" horiz-adv-x="334" 
d="M222 434q0 -39 -19 -65.5t-38 -32.5q19 -6 38 -32t19 -65l1 -143q0 -65 40 -79q32 -11 32 -37v-50q0 -18 -9.5 -27t-26.5 -7q-157 16 -158 165l-1 165q0 38 -34 47t-34 36v54q0 28 34 36q34 10 34 49l1 165q1 76 43 116.5t115 47.5q36 3 36 -35v-50q0 -26 -32 -36
q-40 -12 -40 -78z" />
    <glyph glyph-name="bar" unicode="|" horiz-adv-x="268" 
d="M112 0q-32 0 -32 32v666q0 32 32 32l45 -1q32 0 32 -32v-666q0 -32 -32 -32z" />
    <glyph glyph-name="braceright" unicode="}" horiz-adv-x="334" 
d="M111 578q0 65 -39 78q-32 11 -32 37v49q0 38 36 35q72 -7 114.5 -47.5t43.5 -116.5l1 -165q0 -40 34 -48q33 -9 33 -36v-55q0 -28 -33 -37q-34 -8 -34 -47l-1 -164q-1 -78 -44 -118t-114 -47q-17 -2 -26.5 7t-9.5 27v50q0 26 32 37q39 14 39 79l1 142q0 41 19 67t46 31
q-27 5 -46 31.5t-19 68.5z" />
    <glyph glyph-name="asciitilde" unicode="~" horiz-adv-x="542" 
d="M458 333q30 -10 24 -38q-9 -42 -41.5 -67.5t-79.5 -25.5q-36 1 -81 16.5t-66 15.5q-28 0 -43 -17q-22 -21 -39 -16l-45 11q-30 9 -27 35q2 46 31.5 75t77.5 28q40 0 93 -18.5t70 -18.5q28 0 44 16q20 22 40 16z" />
    <glyph glyph-name="uni00A0" unicode="&#xa0;" horiz-adv-x="236" 
 />
    <glyph glyph-name="exclamdown" unicode="&#xa1;" horiz-adv-x="272" 
d="M219 493q0 -33 -25 -57t-59 -24t-58 24t-24 57q0 35 24 60t58 25q35 0 59.5 -25t24.5 -60zM173 -212h-74q-33 0 -31 32l15 488q1 31 32 31h42q32 0 32 -31l15 -488q2 -32 -31 -32z" />
    <glyph glyph-name="cent" unicode="&#xa2;" horiz-adv-x="615" 
d="M40 304q0 103 65.5 176t169.5 87q12 3 12 14v84q0 14 9 23t25 9h6q34 -2 34 -32v-85q0 -11 13 -13q83 -11 135 -58t67 -115q4 -16 -4.5 -25t-25.5 -9h-76q-20 0 -35 26q-21 42 -62 54q-15 3 -15 -12v-256q0 -14 14 -11q43 10 58 45q14 26 36 26h80q16 0 24.5 -9.5
t5.5 -24.5q-15 -66 -71 -110t-132 -55q-12 -2 -12 -13l1 -58q0 -15 -10 -23.5t-25 -8.5h-7q-33 2 -33 32v58q0 12 -12 13q-105 16 -170 91t-65 180zM187 300q0 -56 24 -91.5t65 -48.5q7 -2 11 1.5t4 10.5v256q0 17 -13 12q-42 -12 -66.5 -48.5t-24.5 -91.5z" />
    <glyph glyph-name="sterling" unicode="&#xa3;" horiz-adv-x="674" 
d="M41 266v14q0 32 32 32h65q-29 71 -29 120q0 101 70.5 163t185.5 62q98 0 167 -51.5t90 -136.5q4 -16 -4 -25.5t-25 -9.5h-81q-24 0 -36 26q-14 32 -44 51t-69 19q-50 0 -80 -30.5t-30 -81.5q0 -38 21 -106h194q32 0 32 -32v-14q0 -29 -32 -29l-185 -2q-5 -38 -34 -79
q-10 -16 8 -21q5 0 15 -2q17 -3 50.5 -11t61.5 -12.5t58 -4.5q67 0 84 29q7 10 9.5 13t9.5 7t15 4h37q31 0 34 -27q8 -64 -35 -109.5t-137 -45.5q-50 0 -121 20.5t-115 20.5q-33 0 -69 -12q-41 -14 -56 21l-17 38q-14 32 13 59q58 64 60 112l-81 1q-32 2 -32 30z" />
    <glyph glyph-name="currency" unicode="&#xa4;" horiz-adv-x="637" 
d="M56 309q0 91 57 154l-33 28q-24 19 -4 44l10 12q20 25 44 5l47 -39q66 36 143 36q75 0 139 -33l43 35q24 20 45 -4l10 -12q21 -24 -3 -45l-29 -24q59 -62 59 -157q0 -98 -61 -165l30 -25q25 -21 4 -45l-9 -11q-21 -25 -45 -4l-44 36q-66 -34 -139 -34q-78 0 -143 37
l-47 -39q-24 -21 -44 4l-10 11q-19 24 5 45l33 29q-58 66 -58 161zM198 306q0 -56 35 -92t87 -36t87 36t35 92q0 55 -35 90.5t-87 35.5t-87 -35.5t-35 -90.5z" />
    <glyph glyph-name="yen" unicode="&#xa5;" horiz-adv-x="658" 
d="M55 607q-9 17 -3 27.5t25 10.5h88q27 0 37 -23l122 -244q5 -10 11 -9.5t11 9.5l124 244q11 23 37 23h76q19 0 25.5 -10.5t-2.5 -27.5l-138 -241q-5 -9 -1.5 -14.5t12.5 -5.5h55q32 0 32 -32v-4q0 -32 -32 -32h-88q-16 0 -26 -9t-10 -23v-11q0 -16 16 -16h86q32 0 32 -32
v-4q0 -32 -32 -32h-90q-15 0 -15 -16v-103q0 -32 -32 -32h-77q-32 0 -32 32v103q0 16 -16 16h-109q-32 0 -32 32v4q0 32 32 32h104q16 0 16 16v11q0 32 -35 32h-107q-32 0 -32 32v4q0 32 32 32h71q9 0 12 6t-2 14z" />
    <glyph glyph-name="brokenbar" unicode="&#xa6;" horiz-adv-x="268" 
d="M112 429q-32 0 -32 32v237q0 32 32 32h45q32 0 32 -32v-237q0 -32 -32 -32h-45zM157 296q32 0 32 -31v-233q0 -32 -32 -32h-45q-32 0 -32 32v233q0 31 32 31h45z" />
    <glyph glyph-name="section" unicode="&#xa7;" horiz-adv-x="651" 
d="M75 530q0 93 67 151.5t186 58.5q103 0 170.5 -52.5t91.5 -139.5q4 -15 -3.5 -24.5t-23.5 -9.5h-82q-23 0 -34 24q-35 75 -119 75q-48 0 -79.5 -22t-31.5 -58q0 -30 19 -48.5t49.5 -28t67.5 -16.5t75.5 -19t71 -30.5t56 -56t28.5 -91.5q2 -16 -7.5 -24.5t-24.5 -5.5
l-82 13q-24 4 -26 18q-5 27 -35 43.5t-71 23t-87.5 20.5t-85 32.5t-64.5 61t-26 105.5zM44 -6q-4 16 3 25t23 9h86q24 0 34 -24q36 -84 146 -84q55 0 87.5 22.5t32.5 57.5q0 31 -20 49t-53 25t-73 12t-80.5 15.5t-75.5 28.5t-60 58t-30 98q-2 16 7 24t25 6l84 -16
q19 -3 30 -29q11 -29 57 -43.5t101 -23t109 -24t90.5 -60t36.5 -118.5q0 -92 -74.5 -151.5t-193.5 -59.5q-228 0 -292 203z" />
    <glyph glyph-name="dieresis" unicode="&#xa8;" horiz-adv-x="600" 
d="M166 598q-32 0 -54 22.5t-22 56.5q0 31 22.5 53t53.5 22q32 0 55 -22t23 -53q0 -33 -23 -56t-55 -23zM382 598q-31 0 -54 23t-23 56q0 31 23 53t54 22q32 0 55 -22t23 -53q0 -33 -23 -56t-55 -23z" />
    <glyph glyph-name="copyright" unicode="&#xa9;" horiz-adv-x="887" 
d="M444 -62q-167 0 -286 119t-119 286t119 285.5t286 118.5q166 0 285 -118.5t119 -285.5t-118.5 -286t-285.5 -119zM444 36q127 0 216 90t89 217t-89 216.5t-216 89.5t-216 -89.5t-89 -216.5q0 -128 89 -217.5t216 -89.5zM576 390q-22 0 -34 24q-25 50 -91 50
q-48 0 -79.5 -35t-31.5 -89q0 -57 32.5 -91t77.5 -34q65 0 89 45q13 24 35 24h60q15 0 23 -9t4 -24q-18 -58 -76 -96t-132 -38q-103 0 -168 64.5t-65 161.5q0 94 64 157.5t165 63.5q85 0 140 -41t71 -101q4 -15 -3.5 -23.5t-23.5 -8.5h-57z" />
    <glyph glyph-name="ordfeminine" unicode="&#xaa;" horiz-adv-x="454" 
d="M36 574q0 75 47 120.5t117 45.5q63 0 106 -35q7 -6 11 3v3q9 24 35 24h8q30 0 30 -30v-264q0 -30 -30 -30h-4q-25 0 -36 23l-2 5q-3 9 -9 3q-45 -37 -106 -37q-72 0 -119.5 46.5t-47.5 122.5zM139 574q0 -35 21.5 -57.5t55.5 -22.5q43 0 70 37q8 10 8 29v25q0 19 -8 29
q-26 37 -70 37q-34 0 -55.5 -21t-21.5 -56z" />
    <glyph glyph-name="guillemotleft" unicode="&#xab;" horiz-adv-x="557" 
d="M155 297q-23 -17 0 -35l78 -57q22 -16 22 -42v-53q0 -22 -13 -28t-30 7l-151 118q-21 17 -21 42v58q0 26 21 43l151 115q17 14 30 7t13 -29v-49q0 -26 -23 -42zM399 297q-23 -17 0 -35l78 -57q22 -16 22 -42v-53q0 -22 -13 -28t-30 7l-151 118q-21 17 -21 42v58
q0 26 21 43l151 115q17 14 30 7t13 -29v-49q0 -26 -23 -42z" />
    <glyph glyph-name="registered" unicode="&#xae;" horiz-adv-x="887" 
d="M39 343q0 167 119 285.5t286 118.5q166 0 285 -118.5t119 -285.5t-118.5 -286t-285.5 -119t-286 119t-119 286zM139 343q0 -128 89 -217.5t216 -89.5t216 90t89 217t-89 216.5t-216 89.5t-216 -89.5t-89 -216.5zM333 139q-31 0 -31 31v357q0 21 12.5 33.5t33.5 12.5h94
q82 0 135.5 -40t53.5 -105q0 -81 -85 -118q-23 -11 -10 -30l71 -104q10 -15 4.5 -26t-23.5 -11h-63q-24 0 -36 21l-79 126h-4v-116q0 -31 -30 -31h-43zM406 385q0 -18 18 -18h14q37 0 60.5 16t23.5 45t-23.5 45t-61.5 16h-13q-18 0 -18 -18v-86z" />
    <glyph glyph-name="macron" unicode="&#xaf;" horiz-adv-x="600" 
d="M157 673q0 32 32 32h248q32 0 32 -32v-37q0 -32 -32 -32h-248q-32 0 -32 32v37z" />
    <glyph glyph-name="degree" unicode="&#xb0;" horiz-adv-x="403" 
d="M203 406q-70 0 -119 49t-49 119q0 69 49 117.5t119 48.5q68 0 117 -49t49 -117q0 -70 -49 -119t-117 -49zM203 487q35 0 60 25t25 62q0 35 -25 60.5t-60 25.5q-37 0 -62 -25t-25 -61q0 -37 25 -62t62 -25z" />
    <glyph glyph-name="plusminus" unicode="&#xb1;" horiz-adv-x="502" 
d="M55 341v47q0 32 32 32h91q17 0 17 17v90q0 32 32 32h49q32 0 32 -32v-89q0 -18 17 -18h90q32 0 32 -31v-48q0 -32 -32 -32h-90q-17 0 -17 -17v-89q0 -32 -32 -32h-49q-32 0 -32 32v89q0 17 -17 17h-91q-32 0 -32 32zM415 109q31 0 31 -32v-48q0 -32 -31 -32h-328
q-32 0 -32 32v48q0 32 32 32h328z" />
    <glyph glyph-name="acute" unicode="&#xb4;" horiz-adv-x="600" 
d="M389 764q29 18 43 -12l27 -57q14 -29 -17 -41l-185 -70q-29 -9 -43 15l-8 16q-14 27 12 43z" />
    <glyph glyph-name="paragraph" unicode="&#xb6;" horiz-adv-x="817" 
d="M32 493q0 105 71.5 171t203.5 66h440q31 0 31 -30v-57q0 -30 -31 -30h-30q-25 0 -25 -24v-560q0 -31 -30 -31h-61q-30 0 -30 31v560q0 24 -24 24h-44q-24 0 -24 -24v-560q0 -31 -30 -31h-54q-30 0 -30 30v193q0 24 -25 24h-33q-132 0 -203.5 69t-71.5 179z" />
    <glyph glyph-name="periodcentered" unicode="&#xb7;" horiz-adv-x="263" 
d="M131 250q-35 0 -59 25t-24 61q0 32 24.5 56t58.5 24t58.5 -24t24.5 -56q0 -36 -24 -61t-59 -25z" />
    <glyph glyph-name="cedilla" unicode="&#xb8;" horiz-adv-x="600" 
d="M247 -93q-14 0 -20.5 9t-2.5 23l20 64h78l-5 -19q-4 -18 16 -21q33 -6 53.5 -27t20.5 -57q0 -47 -37.5 -73t-94.5 -26q-50 0 -86 19q-22 12 -9 37l3 8q10 21 37 13q18 -7 43 -7q40 0 40 28q0 29 -40 29h-16z" />
    <glyph glyph-name="ordmasculine" unicode="&#xba;" horiz-adv-x="439" 
d="M219 740q83 0 134 -46t51 -120q0 -77 -51 -124.5t-134 -47.5t-133.5 47.5t-50.5 124.5q0 74 51 120t133 46zM219 496q33 0 53.5 21t20.5 54t-20 53.5t-54 20.5q-33 0 -53 -20.5t-20 -53.5t20 -54t53 -21z" />
    <glyph glyph-name="guillemotright" unicode="&#xbb;" horiz-adv-x="560" 
d="M158 297l-77 55q-23 16 -23 42v49q0 22 13 29t30 -7l151 -115q21 -17 21 -43v-58q0 -25 -21 -42l-151 -118q-17 -13 -30 -7t-13 28v53q0 26 22 42l78 57q23 18 0 35zM405 297l-77 55q-23 16 -23 42v49q0 22 13 29t30 -7l151 -115q21 -17 21 -43v-58q0 -25 -21 -42
l-151 -118q-17 -13 -30 -7t-13 28v53q0 26 22 42l78 57q23 18 0 35z" />
    <glyph glyph-name="onequarter" unicode="&#xbc;" horiz-adv-x="851" 
d="M80 377q-32 0 -32 32v22q0 32 32 32h31q13 0 13 13v105q0 15 -12 8q-15 -8 -27 -11q-15 -5 -24.5 3t-9.5 25v26q0 24 27 35q33 10 74 47q17 16 38 16h7q31 0 31 -32v-222q0 -13 13 -13h32q32 0 32 -32v-22q0 -32 -32 -32h-193zM153 106q-22 22 -1 46l459 490q21 23 44 2
l30 -27q23 -21 2 -45l-459 -494q-21 -23 -45 -1zM510 67q-31 0 -31 31v8q0 20 13 39q75 96 85 185q3 31 32 31h38q34 0 31 -33q-9 -80 -73 -167q-10 -13 6 -13h41q11 0 11 10v37q0 32 32 32h37q32 0 32 -32v-37q0 -10 10 -10h15q32 0 32 -32v-17q0 -32 -32 -32h-15
q-10 0 -10 -11v-24q0 -32 -32 -32h-37q-32 0 -32 32v24q0 11 -11 11h-142z" />
    <glyph glyph-name="onehalf" unicode="&#xbd;" horiz-adv-x="826" 
d="M42 409v22q0 32 32 32h26q20 0 20 20v98q0 13 -13 7q-14 -8 -28 -11q-15 -6 -24.5 2.5t-9.5 25.5v27q0 24 27 35q33 10 74 47q16 16 39 16h7q31 0 31 -32v-215q0 -20 20 -20h24q31 0 31 -32v-22q0 -32 -31 -32h-193q-32 0 -32 32zM152 152l459 489q22 24 44 2l30 -27
q22 -22 2 -45l-459 -495q-22 -22 -45 0l-30 30q-21 23 -1 46zM500 30q0 19 17 35l108 101q58 54 58 77q0 39 -44 39q-31 0 -45 -27q-13 -27 -35 -27h-32q-17 0 -25 9.5t-3 24.5q13 47 49.5 75t90.5 28q67 0 104 -31t37 -76q0 -38 -20 -67t-71 -71l-22 -19q-5 -5 -3.5 -9
t9.5 -4h87q32 0 32 -32v-24q0 -32 -32 -32h-228q-32 0 -32 25v5z" />
    <glyph glyph-name="threequarters" unicode="&#xbe;" horiz-adv-x="858" 
d="M42 448q-5 15 3.5 24.5t24.5 9.5h30q18 0 36 -23q16 -24 60 -24q62 0 62 43q0 36 -70 36h-15q-31 0 -31 29v8q0 29 30 29h16q24 0 38.5 11.5t14.5 29.5q0 40 -46 40q-32 0 -47 -23q-18 -24 -37 -24h-27q-17 0 -25 9.5t-4 24.5q14 42 51 67t89 25q70 0 106.5 -29.5
t36.5 -76.5q0 -45 -37 -74q-10 -7 1 -13q52 -22 52 -82q0 -50 -44.5 -79.5t-113.5 -29.5q-62 0 -101.5 24.5t-52.5 67.5zM176 109q-21 23 0 45l458 490q22 22 45 2l31 -29q22 -22 1 -45l-459 -494q-22 -22 -45 -1zM511 67q-32 0 -32 31v8q0 19 14 39q81 101 89 185
q5 31 33 31h37q16 0 24.5 -9t6.5 -24q-9 -82 -74 -169q-4 -5 -2 -9t8 -4h43q11 0 11 11v38q0 32 32 32h37q32 0 32 -32v-38q0 -11 11 -11h14q32 0 32 -31v-16q0 -32 -32 -32h-14q-11 0 -11 -11v-24q0 -32 -32 -32h-37q-32 0 -32 32v24q0 11 -11 11h-147z" />
    <glyph glyph-name="questiondown" unicode="&#xbf;" horiz-adv-x="578" 
d="M387 449q0 -33 -24 -57t-58 -24t-59 24t-25 57q0 35 24.5 60t59.5 25q34 0 58 -25t24 -60zM519 10q16 0 24 -9.5t4 -25.5q-25 -86 -91.5 -138.5t-168.5 -52.5q-112 0 -181.5 60.5t-69.5 168.5q0 84 54 140.5t137 86.5q18 6 19 23l2 19q3 29 33 29h47q30 0 33 -30l6 -81
q4 -42 -40 -51q-148 -29 -148 -135q0 -46 30.5 -74.5t77.5 -28.5q84 0 118 74q12 25 37 25h77z" />
    <glyph glyph-name="Agrave" unicode="&#xc0;" horiz-adv-x="718" 
d="M225 919q9 33 41 20l189 -73q28 -12 20 -41l-7 -16q-7 -27 -38 -24l-197 36q-31 7 -24 38zM42 0q-16 0 -23 10t-2 26l240 654q13 40 56 40h82q43 0 57 -39l257 -655q6 -17 -0.5 -26.5t-23.5 -9.5h-88q-27 0 -37 25l-39 109q-5 12 -18 12h-288q-13 0 -17 -12l-38 -108
q-8 -26 -35 -26h-83zM250 287q-5 -18 13 -18h191q8 0 11.5 5t0.5 13l-100 274q-2 7 -6 9.5t-8 0t-6 -9.5z" />
    <glyph glyph-name="Aacute" unicode="&#xc1;" horiz-adv-x="718" 
d="M443 936q32 11 40 -20l15 -62q8 -31 -25 -36l-196 -31q-29 -3 -39 23l-4 17q-9 30 20 40zM42 0q-16 0 -23 10t-2 26l240 654q13 40 56 40h82q43 0 57 -39l257 -655q6 -17 -0.5 -26.5t-23.5 -9.5h-88q-27 0 -37 25l-39 109q-5 12 -18 12h-288q-13 0 -17 -12l-38 -108
q-8 -26 -35 -26h-83zM250 287q-5 -18 13 -18h191q8 0 11.5 5t0.5 13l-100 274q-2 7 -6 9.5t-8 0t-6 -9.5z" />
    <glyph glyph-name="Acircumflex" unicode="&#xc2;" horiz-adv-x="718" 
d="M175 822q-14 29 12 42l138 74q29 15 57 1l144 -75q28 -12 13 -42l-10 -19q-12 -25 -40 -16l-107 37q-27 9 -55 0l-102 -36q-29 -10 -41 15zM42 0q-16 0 -23 10t-2 26l240 654q13 40 56 40h82q43 0 57 -39l257 -655q6 -17 -0.5 -26.5t-23.5 -9.5h-88q-27 0 -37 25l-39 109
q-5 12 -18 12h-288q-13 0 -17 -12l-38 -108q-8 -26 -35 -26h-83zM250 287q-5 -18 13 -18h191q8 0 11.5 5t0.5 13l-100 274q-2 7 -6 9.5t-8 0t-6 -9.5z" />
    <glyph glyph-name="Atilde" unicode="&#xc3;" horiz-adv-x="718" 
d="M511 905q29 -5 26 -36q-6 -38 -35 -60t-68 -22q-33 0 -73.5 17.5t-51.5 17.5q-19 0 -31 -16q-10 -17 -35 -13l-32 6q-31 6 -26 37q7 40 33.5 63t63.5 22q28 -1 74.5 -18.5t59.5 -17.5q21 0 32 15q7 15 32 11zM42 0q-16 0 -23 10t-2 26l240 654q13 40 56 40h82
q43 0 57 -39l257 -655q6 -17 -0.5 -26.5t-23.5 -9.5h-88q-27 0 -37 25l-39 109q-5 12 -18 12h-288q-13 0 -17 -12l-38 -108q-8 -26 -35 -26h-83zM250 287q-5 -18 13 -18h191q8 0 11.5 5t0.5 13l-100 274q-2 7 -6 9.5t-8 0t-6 -9.5z" />
    <glyph glyph-name="Adieresis" unicode="&#xc4;" horiz-adv-x="718" 
d="M237 764q-35 0 -58.5 24.5t-23.5 61.5q0 33 24 57t58 24t59 -24t25 -57q0 -36 -25 -61t-59 -25zM471 764q-34 0 -58.5 25t-24.5 61q0 33 25 57t58 24q35 0 60 -24t25 -57q0 -36 -25 -61t-60 -25zM42 0q-16 0 -23 10t-2 26l240 654q13 40 56 40h82q43 0 57 -39l257 -655
q6 -17 -0.5 -26.5t-23.5 -9.5h-88q-27 0 -37 25l-39 109q-5 12 -18 12h-288q-13 0 -17 -12l-38 -108q-8 -26 -35 -26h-83zM250 287q-5 -18 13 -18h191q8 0 11.5 5t0.5 13l-100 274q-2 7 -6 9.5t-8 0t-6 -9.5z" />
    <glyph glyph-name="Aring" unicode="&#xc5;" horiz-adv-x="718" 
d="M356 759q-59 0 -92.5 32t-33.5 79t34 79t92 32q59 0 93 -32t34 -79t-34 -79t-93 -32zM356 831q19 0 31 11t12 28t-12 29t-31 12t-30.5 -12t-10.5 -29q-1 -17 10.5 -28t30.5 -11zM42 0q-16 0 -23 10t-2 26l240 654q13 40 56 40h82q43 0 57 -39l257 -655q6 -17 -0.5 -26.5
t-23.5 -9.5h-88q-27 0 -37 25l-39 109q-5 12 -18 12h-288q-13 0 -17 -12l-38 -108q-8 -26 -35 -26h-83zM250 287q-5 -18 13 -18h191q8 0 11.5 5t0.5 13l-100 274q-2 7 -6 9.5t-8 0t-6 -9.5z" />
    <glyph glyph-name="AE" unicode="&#xc6;" horiz-adv-x="950" 
d="M16 0q-19 0 -25 11t3 27l379 669q13 23 40 23h431q31 0 31 -32v-54q0 -32 -31 -32h-224q-18 0 -18 -18v-153q0 -18 18 -18h247q31 0 31 -32v-54q0 -32 -31 -32h-247q-18 0 -18 -18v-151q0 -18 18 -18h240q32 0 32 -31v-55q0 -32 -32 -32h-367q-34 0 -34 33v96
q0 18 -18 18h-224q-15 0 -21 -13l-62 -112q-13 -22 -38 -22h-80zM281 292q-5 -9 -1 -15.5t14 -6.5h147q18 0 18 18v282q0 13 -7.5 15t-13.5 -10z" />
    <glyph glyph-name="Ccedilla" unicode="&#xc7;" horiz-adv-x="831" 
d="M758 271q17 0 25 -9.5t4 -25.5q-27 -103 -116.5 -171.5t-218.5 -74.5l-2 -6q-4 -18 16 -21q33 -6 53.5 -27t20.5 -57q0 -47 -37.5 -73t-94.5 -26q-50 0 -86 19q-22 12 -9 37l3 8q10 21 37 13q18 -7 43 -7q40 0 40 28q0 29 -40 29h-16q-14 0 -20.5 9t-2.5 23l17 55
q-147 18 -240.5 121.5t-93.5 252.5q0 160 111.5 266t279.5 106q142 0 238.5 -82t118.5 -207q5 -33 -29 -33h-87q-27 0 -35 29q-18 73 -73.5 119t-132.5 46q-106 0 -174.5 -69.5t-68.5 -174.5q0 -108 68.5 -179t174.5 -71q75 0 128.5 34t75.5 93q11 26 37 26h86z" />
    <glyph glyph-name="Egrave" unicode="&#xc8;" horiz-adv-x="564" 
d="M169 919q9 33 41 20l189 -73q28 -12 20 -41l-7 -16q-7 -27 -38 -24l-197 36q-31 7 -24 38zM125 0q-42 0 -42 42v646q0 42 42 42h350q31 0 31 -32v-54q0 -32 -31 -32h-231q-18 0 -18 -18v-154q0 -18 18 -18h211q32 0 32 -32v-54q0 -32 -32 -32h-211q-18 0 -18 -18v-150
q0 -18 18 -18h240q32 0 32 -31v-55q0 -32 -32 -32h-359z" />
    <glyph glyph-name="Eacute" unicode="&#xc9;" horiz-adv-x="564" 
d="M387 936q32 11 40 -20l15 -62q8 -31 -25 -36l-196 -31q-29 -3 -39 23l-4 17q-9 30 20 40zM125 0q-42 0 -42 42v646q0 42 42 42h350q31 0 31 -32v-54q0 -32 -31 -32h-231q-18 0 -18 -18v-154q0 -18 18 -18h211q32 0 32 -32v-54q0 -32 -32 -32h-211q-18 0 -18 -18v-150
q0 -18 18 -18h240q32 0 32 -31v-55q0 -32 -32 -32h-359z" />
    <glyph glyph-name="Ecircumflex" unicode="&#xca;" horiz-adv-x="564" 
d="M119 822q-14 29 12 42l138 74q29 15 57 1l144 -75q28 -12 13 -42l-10 -19q-12 -25 -40 -16l-107 37q-27 9 -55 0l-102 -36q-29 -10 -41 15zM125 0q-42 0 -42 42v646q0 42 42 42h350q31 0 31 -32v-54q0 -32 -31 -32h-231q-18 0 -18 -18v-154q0 -18 18 -18h211q32 0 32 -32
v-54q0 -32 -32 -32h-211q-18 0 -18 -18v-150q0 -18 18 -18h240q32 0 32 -31v-55q0 -32 -32 -32h-359z" />
    <glyph glyph-name="Edieresis" unicode="&#xcb;" horiz-adv-x="564" 
d="M181 764q-35 0 -58.5 24.5t-23.5 61.5q0 33 24 57t58 24t59 -24t25 -57q0 -36 -25 -61t-59 -25zM415 764q-34 0 -58.5 25t-24.5 61q0 33 25 57t58 24q35 0 60 -24t25 -57q0 -36 -25 -61t-60 -25zM125 0q-42 0 -42 42v646q0 42 42 42h350q31 0 31 -32v-54q0 -32 -31 -32
h-231q-18 0 -18 -18v-154q0 -18 18 -18h211q32 0 32 -32v-54q0 -32 -32 -32h-211q-18 0 -18 -18v-150q0 -18 18 -18h240q32 0 32 -31v-55q0 -32 -32 -32h-359z" />
    <glyph glyph-name="Igrave" unicode="&#xcc;" horiz-adv-x="311" 
d="M23 919q9 33 41 20l189 -73q28 -12 20 -41l-7 -16q-7 -27 -38 -24l-197 36q-31 7 -24 38zM196 730q31 0 31 -32v-666q0 -32 -31 -32h-81q-32 0 -32 32v666q0 32 32 32h81z" />
    <glyph glyph-name="Iacute" unicode="&#xcd;" horiz-adv-x="311" 
d="M241 936q32 11 40 -20l15 -62q8 -31 -25 -36l-196 -31q-29 -3 -39 23l-4 17q-9 30 20 40zM196 730q31 0 31 -32v-666q0 -32 -31 -32h-81q-32 0 -32 32v666q0 32 32 32h81z" />
    <glyph glyph-name="Icircumflex" unicode="&#xce;" horiz-adv-x="311" 
d="M-27 822q-14 29 12 42l138 74q29 15 57 1l144 -75q28 -12 13 -42l-10 -19q-12 -25 -40 -16l-107 37q-27 9 -55 0l-102 -36q-29 -10 -41 15zM196 730q31 0 31 -32v-666q0 -32 -31 -32h-81q-32 0 -32 32v666q0 32 32 32h81z" />
    <glyph glyph-name="Idieresis" unicode="&#xcf;" horiz-adv-x="311" 
d="M35 764q-35 0 -58.5 24.5t-23.5 61.5q0 33 24 57t58 24t59 -24t25 -57q0 -36 -25 -61t-59 -25zM269 764q-34 0 -58.5 25t-24.5 61q0 33 25 57t58 24q35 0 60 -24t25 -57q0 -36 -25 -61t-60 -25zM196 730q31 0 31 -32v-666q0 -32 -31 -32h-81q-32 0 -32 32v666q0 32 32 32
h81z" />
    <glyph glyph-name="Eth" unicode="&#xd0;" horiz-adv-x="785" 
d="M361 730q168 0 275.5 -103t107.5 -262q0 -163 -107.5 -264t-275.5 -101h-236q-42 0 -42 42v273h-32q-32 0 -32 32v43q0 32 32 32h32v266q0 42 42 42h236zM361 118q99 0 167.5 64t68.5 183q0 120 -68.5 183.5t-167.5 63.5h-116q-18 0 -18 -18v-172h119q32 0 32 -32v-43
q0 -32 -32 -32h-119v-179q0 -18 18 -18h116z" />
    <glyph glyph-name="Ntilde" unicode="&#xd1;" horiz-adv-x="802" 
d="M551 905q29 -5 26 -36q-6 -38 -35 -60t-68 -22q-33 0 -73.5 17.5t-51.5 17.5q-19 0 -31 -16q-10 -17 -35 -13l-32 6q-31 6 -26 37q7 40 33.5 63t63.5 22q28 -1 74.5 -18.5t59.5 -17.5q21 0 32 15q7 15 32 11zM115 0q-32 0 -32 32v660q0 38 38 38h23q28 0 46 -22l380 -471
q8 -10 15 -7.5t7 15.5v453q0 32 32 32h63q32 0 32 -32v-660q0 -38 -38 -38h-43q-28 0 -46 22l-360 437q-8 10 -15 7.5t-7 -15.5v-419q0 -32 -32 -32h-63z" />
    <glyph glyph-name="Ograve" unicode="&#xd2;" horiz-adv-x="863" 
d="M299 919q9 33 41 20l189 -73q28 -12 20 -41l-7 -16q-7 -27 -38 -24l-197 36q-31 7 -24 38zM40 368q0 161 111 266.5t280 105.5t280.5 -105.5t111.5 -266.5q0 -164 -111 -271t-281 -107q-169 0 -280 107t-111 271zM188 368q0 -110 68 -180.5t175 -70.5q108 0 176 70.5
t68 180.5q0 108 -68 176.5t-176 68.5q-107 0 -175 -68.5t-68 -176.5z" />
    <glyph glyph-name="Oacute" unicode="&#xd3;" horiz-adv-x="863" 
d="M517 936q32 11 40 -20l15 -62q8 -31 -25 -36l-196 -31q-29 -3 -39 23l-4 17q-9 30 20 40zM40 368q0 161 111 266.5t280 105.5t280.5 -105.5t111.5 -266.5q0 -164 -111 -271t-281 -107q-169 0 -280 107t-111 271zM188 368q0 -110 68 -180.5t175 -70.5q108 0 176 70.5
t68 180.5q0 108 -68 176.5t-176 68.5q-107 0 -175 -68.5t-68 -176.5z" />
    <glyph glyph-name="Ocircumflex" unicode="&#xd4;" horiz-adv-x="863" 
d="M249 822q-14 29 12 42l138 74q29 15 57 1l144 -75q28 -12 13 -42l-10 -19q-12 -25 -40 -16l-107 37q-27 9 -55 0l-102 -36q-29 -10 -41 15zM40 368q0 161 111 266.5t280 105.5t280.5 -105.5t111.5 -266.5q0 -164 -111 -271t-281 -107q-169 0 -280 107t-111 271zM188 368
q0 -110 68 -180.5t175 -70.5q108 0 176 70.5t68 180.5q0 108 -68 176.5t-176 68.5q-107 0 -175 -68.5t-68 -176.5z" />
    <glyph glyph-name="Otilde" unicode="&#xd5;" horiz-adv-x="863" 
d="M585 905q29 -5 26 -36q-6 -38 -35 -60t-68 -22q-33 0 -73.5 17.5t-51.5 17.5q-19 0 -31 -16q-10 -17 -35 -13l-32 6q-31 6 -26 37q7 40 33.5 63t63.5 22q28 -1 74.5 -18.5t59.5 -17.5q21 0 32 15q7 15 32 11zM40 368q0 161 111 266.5t280 105.5t280.5 -105.5
t111.5 -266.5q0 -164 -111 -271t-281 -107q-169 0 -280 107t-111 271zM188 368q0 -110 68 -180.5t175 -70.5q108 0 176 70.5t68 180.5q0 108 -68 176.5t-176 68.5q-107 0 -175 -68.5t-68 -176.5z" />
    <glyph glyph-name="Odieresis" unicode="&#xd6;" horiz-adv-x="863" 
d="M311 764q-35 0 -58.5 24.5t-23.5 61.5q0 33 24 57t58 24t59 -24t25 -57q0 -36 -25 -61t-59 -25zM545 764q-34 0 -58.5 25t-24.5 61q0 33 25 57t58 24q35 0 60 -24t25 -57q0 -36 -25 -61t-60 -25zM40 368q0 161 111 266.5t280 105.5t280.5 -105.5t111.5 -266.5
q0 -164 -111 -271t-281 -107q-169 0 -280 107t-111 271zM188 368q0 -110 68 -180.5t175 -70.5q108 0 176 70.5t68 180.5q0 108 -68 176.5t-176 68.5q-107 0 -175 -68.5t-68 -176.5z" />
    <glyph glyph-name="multiply" unicode="&#xd7;" horiz-adv-x="478" 
d="M72 151q-23 23 0 45l78 76q14 14 0 29l-78 79q-23 22 0 45l25 26q22 22 46 0l79 -80q15 -14 29 0l84 81q22 22 45 0l26 -27q24 -23 0 -45l-83 -81q-15 -15 0 -29l83 -83q23 -22 0 -45l-26 -27q-22 -21 -46 1l-83 84q-15 14 -30 0l-77 -76q-23 -23 -46 0z" />
    <glyph glyph-name="Oslash" unicode="&#xd8;" horiz-adv-x="863" 
d="M724 622q99 -104 99 -254q0 -164 -111 -271t-281 -107q-134 0 -234 69l-46 -49q-21 -24 -46 -2l-17 16q-22 22 -2 46l45 48q-91 104 -91 250q0 161 111 266.5t280 105.5q126 0 223 -61l33 35q21 24 45 2l19 -18q23 -21 2 -45zM188 368q0 -84 40 -146l334 358
q-58 33 -131 33q-107 0 -175 -68.5t-68 -176.5zM431 117q108 0 176 70.5t68 180.5q0 88 -47 152l-338 -361q61 -42 141 -42z" />
    <glyph glyph-name="Ugrave" unicode="&#xd9;" horiz-adv-x="777" 
d="M259 919q9 33 41 20l189 -73q28 -12 20 -41l-7 -16q-7 -27 -38 -24l-197 36q-31 7 -24 38zM74 308v390q0 32 32 32h83q32 0 32 -32v-399q0 -81 48 -129.5t120 -48.5q71 0 119 48.5t48 129.5v399q0 32 32 32h84q31 0 31 -32v-390q0 -140 -88.5 -229t-225.5 -89
q-136 0 -225.5 89t-89.5 229z" />
    <glyph glyph-name="Uacute" unicode="&#xda;" horiz-adv-x="777" 
d="M477 936q32 11 40 -20l15 -62q8 -31 -25 -36l-196 -31q-29 -3 -39 23l-4 17q-9 30 20 40zM74 308v390q0 32 32 32h83q32 0 32 -32v-399q0 -81 48 -129.5t120 -48.5q71 0 119 48.5t48 129.5v399q0 32 32 32h84q31 0 31 -32v-390q0 -140 -88.5 -229t-225.5 -89
q-136 0 -225.5 89t-89.5 229z" />
    <glyph glyph-name="Ucircumflex" unicode="&#xdb;" horiz-adv-x="777" 
d="M209 822q-14 29 12 42l138 74q29 15 57 1l144 -75q28 -12 13 -42l-10 -19q-12 -25 -40 -16l-107 37q-27 9 -55 0l-102 -36q-29 -10 -41 15zM74 308v390q0 32 32 32h83q32 0 32 -32v-399q0 -81 48 -129.5t120 -48.5q71 0 119 48.5t48 129.5v399q0 32 32 32h84q31 0 31 -32
v-390q0 -140 -88.5 -229t-225.5 -89q-136 0 -225.5 89t-89.5 229z" />
    <glyph glyph-name="Udieresis" unicode="&#xdc;" horiz-adv-x="777" 
d="M271 764q-35 0 -58.5 24.5t-23.5 61.5q0 33 24 57t58 24t59 -24t25 -57q0 -36 -25 -61t-59 -25zM505 764q-34 0 -58.5 25t-24.5 61q0 33 25 57t58 24q35 0 60 -24t25 -57q0 -36 -25 -61t-60 -25zM74 308v390q0 32 32 32h83q32 0 32 -32v-399q0 -81 48 -129.5t120 -48.5
q71 0 119 48.5t48 129.5v399q0 32 32 32h84q31 0 31 -32v-390q0 -140 -88.5 -229t-225.5 -89q-136 0 -225.5 89t-89.5 229z" />
    <glyph glyph-name="Yacute" unicode="&#xdd;" horiz-adv-x="651" 
d="M418 936q32 11 40 -20l15 -62q8 -31 -25 -36l-196 -31q-29 -3 -39 23l-4 17q-9 30 20 40zM14 692q-10 17 -3.5 27.5t25.5 10.5h93q26 0 38 -23l146 -287q6 -11 14.5 -11t14.5 11l146 287q12 23 38 23h81q19 0 25.5 -10.5t-2.5 -27.5l-225 -409q-7 -14 -7 -27v-223
q0 -33 -33 -33h-75q-33 0 -33 33v222q0 14 -7 28z" />
    <glyph glyph-name="Thorn" unicode="&#xde;" horiz-adv-x="656" 
d="M115 0q-32 0 -32 32v666q0 32 32 32h81q31 0 31 -32v-53q0 -18 18 -18h65q133 0 221.5 -73.5t88.5 -190.5q0 -115 -88.5 -187.5t-221.5 -72.5h-65q-18 0 -18 -18v-53q0 -32 -31 -32h-81zM227 237q0 -18 18 -18h68q69 0 114.5 41.5t45.5 102.5q0 63 -45.5 105.5
t-114.5 42.5h-68q-18 0 -18 -18v-256z" />
    <glyph glyph-name="germandbls" unicode="&#xdf;" horiz-adv-x="680" 
d="M101 0q-32 0 -32 32v529q0 91 68.5 154t180.5 63q104 0 173 -65t69 -163v-36q0 -36 -35 -43q-64 -12 -64 -55q0 -21 14 -38t35 -28.5t46 -28t46 -35t35 -52t14 -75.5q0 -76 -58 -122.5t-141 -46.5q-92 0 -143 44t-64 116q-2 16 6 24.5t24 8.5h60q26 0 35 -28
q19 -52 80 -52q29 0 47 14.5t18 39.5q0 30 -19.5 53.5t-47 41t-55 36.5t-47 52t-19.5 76q0 38 19.5 71t55.5 51q27 13 20 42q-9 33 -36.5 56.5t-67.5 23.5q-50 0 -80.5 -30t-30.5 -77v-521q0 -32 -31 -32h-75z" />
    <glyph glyph-name="agrave" unicode="&#xe0;" horiz-adv-x="580" 
d="M182 754q14 30 43 12l173 -106q26 -17 12 -44l-9 -15q-14 -25 -42 -16l-187 71q-30 12 -17 42zM35 134q0 72 60.5 114t161.5 41l96 -1q28 0 28 28q0 45 -28.5 71t-74.5 26q-71 0 -97 -58q-10 -25 -35 -25h-62q-16 0 -24.5 9.5t-5.5 24.5q16 78 79.5 122t150.5 44
q110 0 171.5 -62.5t61.5 -171.5v-264q0 -32 -32 -32h-23q-26 0 -38 22l-6 12q-13 25 -39 10q-86 -54 -177 -54q-75 0 -121 42t-46 102zM174 150q0 -24 18.5 -37.5t47.5 -13.5q54 0 123 40q18 10 18 32v5q0 27 -28 27h-93q-86 0 -86 -53z" />
    <glyph glyph-name="aacute" unicode="&#xe1;" horiz-adv-x="580" 
d="M349 764q29 18 43 -12l27 -57q14 -29 -17 -41l-185 -70q-29 -9 -43 15l-8 16q-14 27 12 43zM35 134q0 72 60.5 114t161.5 41l96 -1q28 0 28 28q0 45 -28.5 71t-74.5 26q-71 0 -97 -58q-10 -25 -35 -25h-62q-16 0 -24.5 9.5t-5.5 24.5q16 78 79.5 122t150.5 44
q110 0 171.5 -62.5t61.5 -171.5v-264q0 -32 -32 -32h-23q-26 0 -38 22l-6 12q-13 25 -39 10q-86 -54 -177 -54q-75 0 -121 42t-46 102zM174 150q0 -24 18.5 -37.5t47.5 -13.5q54 0 123 40q18 10 18 32v5q0 27 -28 27h-93q-86 0 -86 -53z" />
    <glyph glyph-name="acircumflex" unicode="&#xe2;" horiz-adv-x="580" 
d="M112 638q-13 28 12 41l133 71q28 15 55 1l140 -72q27 -13 12 -41l-9 -18q-12 -26 -39 -16l-104 36q-25 9 -53 0l-98 -35q-28 -10 -40 15zM35 134q0 72 60.5 114t161.5 41l96 -1q28 0 28 28q0 45 -28.5 71t-74.5 26q-71 0 -97 -58q-10 -25 -35 -25h-62q-16 0 -24.5 9.5
t-5.5 24.5q16 78 79.5 122t150.5 44q110 0 171.5 -62.5t61.5 -171.5v-264q0 -32 -32 -32h-23q-26 0 -38 22l-6 12q-13 25 -39 10q-86 -54 -177 -54q-75 0 -121 42t-46 102zM174 150q0 -24 18.5 -37.5t47.5 -13.5q54 0 123 40q18 10 18 32v5q0 27 -28 27h-93q-86 0 -86 -53z
" />
    <glyph glyph-name="atilde" unicode="&#xe3;" horiz-adv-x="580" 
d="M433 695q29 -5 26 -36q-6 -38 -35 -60t-68 -22q-33 0 -73.5 17.5t-51.5 17.5q-19 0 -31 -16q-10 -17 -35 -13l-32 6q-31 6 -26 37q7 40 33.5 63t63.5 22q28 -1 74.5 -18.5t59.5 -17.5q21 0 32 15q7 15 32 11zM35 134q0 72 60.5 114t161.5 41l96 -1q28 0 28 28
q0 45 -28.5 71t-74.5 26q-71 0 -97 -58q-10 -25 -35 -25h-62q-16 0 -24.5 9.5t-5.5 24.5q16 78 79.5 122t150.5 44q110 0 171.5 -62.5t61.5 -171.5v-264q0 -32 -32 -32h-23q-26 0 -38 22l-6 12q-13 25 -39 10q-86 -54 -177 -54q-75 0 -121 42t-46 102zM174 150
q0 -24 18.5 -37.5t47.5 -13.5q54 0 123 40q18 10 18 32v5q0 27 -28 27h-93q-86 0 -86 -53z" />
    <glyph glyph-name="adieresis" unicode="&#xe4;" horiz-adv-x="580" 
d="M177 598q-32 0 -54 22.5t-22 56.5q0 31 22.5 53t53.5 22q32 0 55 -22t23 -53q0 -33 -23 -56t-55 -23zM393 598q-31 0 -54 23t-23 56q0 31 23 53t54 22q32 0 55 -22t23 -53q0 -33 -22.5 -56t-55.5 -23zM35 134q0 72 60.5 114t161.5 41l96 -1q28 0 28 28q0 45 -28.5 71
t-74.5 26q-71 0 -97 -58q-10 -25 -35 -25h-62q-16 0 -24.5 9.5t-5.5 24.5q16 78 79.5 122t150.5 44q110 0 171.5 -62.5t61.5 -171.5v-264q0 -32 -32 -32h-23q-26 0 -38 22l-6 12q-13 25 -39 10q-86 -54 -177 -54q-75 0 -121 42t-46 102zM174 150q0 -24 18.5 -37.5
t47.5 -13.5q54 0 123 40q18 10 18 32v5q0 27 -28 27h-93q-86 0 -86 -53z" />
    <glyph glyph-name="aring" unicode="&#xe5;" horiz-adv-x="580" 
d="M284 570q-59 0 -92.5 32t-33.5 79t34 79t92 32q59 0 93 -32t34 -79t-34 -79t-93 -32zM284 642q19 0 31 11t12 28t-12 29t-31 12t-30.5 -12t-10.5 -29q-1 -17 10.5 -28t30.5 -11zM35 134q0 72 60.5 114t161.5 41l96 -1q28 0 28 28q0 45 -28.5 71t-74.5 26q-71 0 -97 -58
q-10 -25 -35 -25h-62q-16 0 -24.5 9.5t-5.5 24.5q16 78 79.5 122t150.5 44q110 0 171.5 -62.5t61.5 -171.5v-264q0 -32 -32 -32h-23q-26 0 -38 22l-6 12q-13 25 -39 10q-86 -54 -177 -54q-75 0 -121 42t-46 102zM174 150q0 -24 18.5 -37.5t47.5 -13.5q54 0 123 40
q18 10 18 32v5q0 27 -28 27h-93q-86 0 -86 -53z" />
    <glyph glyph-name="ae" unicode="&#xe6;" horiz-adv-x="935" 
d="M35 130q0 75 60.5 117t161.5 42l91 -1q26 0 26 21v5q0 46 -28 72.5t-72 26.5q-33 0 -57.5 -15.5t-34.5 -39.5q-11 -28 -34 -28h-64q-16 0 -24.5 9.5t-5.5 26.5q17 77 80.5 120.5t145.5 43.5q97 0 155 -52q21 -18 42 -2q73 54 170 54q104 0 179 -76.5t72 -194.5
q-2 -37 -38 -37h-317q-14 0 -20.5 -8t-2.5 -21q15 -42 48.5 -66t78.5 -24q73 0 102 46q16 23 37 23h67q17 0 25.5 -10t3.5 -25q-23 -65 -85.5 -106t-149.5 -41q-105 0 -182 67q-21 18 -43 2q-92 -69 -202 -69q-86 0 -135.5 41t-49.5 99zM527 340q-7 -13 -0.5 -21.5
t20.5 -8.5h186q14 0 20.5 8.5t1.5 22.5q-13 35 -42.5 56t-67.5 21t-70 -21t-48 -57zM174 149q0 -23 19.5 -36t48.5 -13q75 0 140 50q12 9 7 21q0 1 -3 9t-4 13q-3 9 -17 9h-105q-86 0 -86 -53z" />
    <glyph glyph-name="ccedilla" unicode="&#xe7;" horiz-adv-x="605" 
d="M537 192q16 0 25 -9.5t5 -24.5q-17 -72 -80.5 -117.5t-149.5 -50.5l-2 -6q-4 -18 16 -21q33 -6 53.5 -27t20.5 -57q0 -47 -37.5 -73t-94.5 -26q-50 0 -86 19q-22 12 -9 37l3 8q10 21 37 13q18 -7 43 -7q40 0 40 28q0 29 -40 29h-16q-14 0 -20.5 9t-2.5 23l18 56
q-101 19 -162.5 93t-61.5 176q0 114 78.5 190t200.5 76q105 0 170.5 -49t82.5 -127q3 -15 -5.5 -24.5t-24.5 -9.5h-71q-22 0 -36 26q-13 29 -42.5 47.5t-70.5 18.5q-61 0 -100.5 -41.5t-39.5 -110.5q0 -71 41 -111.5t98 -40.5q82 0 110 59q14 25 36 25h74z" />
    <glyph glyph-name="egrave" unicode="&#xe8;" horiz-adv-x="596" 
d="M200 754q14 30 43 12l173 -106q26 -17 12 -44l-9 -15q-14 -25 -42 -16l-187 71q-30 12 -17 42zM36 264q0 117 77.5 191.5t195.5 74.5q105 0 179.5 -78.5t70.5 -200.5q0 -13 -8.5 -21t-22.5 -8h-322q-15 0 -22 -8.5t-1 -22.5q15 -41 48.5 -64.5t77.5 -23.5q74 0 101 46
q16 23 37 23h68q17 0 25.5 -10t2.5 -25q-23 -65 -85.5 -106t-148.5 -41q-117 0 -195 77t-78 197zM189 345q-7 -14 0 -23.5t23 -9.5h179q16 0 23 8.5t1 23.5q-31 74 -108 74q-78 0 -118 -73z" />
    <glyph glyph-name="eacute" unicode="&#xe9;" horiz-adv-x="596" 
d="M367 764q29 18 43 -12l27 -57q14 -29 -17 -41l-185 -70q-29 -9 -43 15l-8 16q-14 27 12 43zM36 264q0 117 77.5 191.5t195.5 74.5q105 0 179.5 -78.5t70.5 -200.5q0 -13 -8.5 -21t-22.5 -8h-322q-15 0 -22 -8.5t-1 -22.5q15 -41 48.5 -64.5t77.5 -23.5q74 0 101 46
q16 23 37 23h68q17 0 25.5 -10t2.5 -25q-23 -65 -85.5 -106t-148.5 -41q-117 0 -195 77t-78 197zM189 345q-7 -14 0 -23.5t23 -9.5h179q16 0 23 8.5t1 23.5q-31 74 -108 74q-78 0 -118 -73z" />
    <glyph glyph-name="ecircumflex" unicode="&#xea;" horiz-adv-x="596" 
d="M130 638q-13 28 12 41l133 71q28 15 55 1l140 -72q27 -13 12 -41l-9 -18q-12 -26 -39 -16l-104 36q-25 9 -53 0l-98 -35q-28 -10 -40 15zM36 264q0 117 77.5 191.5t195.5 74.5q105 0 179.5 -78.5t70.5 -200.5q0 -13 -8.5 -21t-22.5 -8h-322q-15 0 -22 -8.5t-1 -22.5
q15 -41 48.5 -64.5t77.5 -23.5q74 0 101 46q16 23 37 23h68q17 0 25.5 -10t2.5 -25q-23 -65 -85.5 -106t-148.5 -41q-117 0 -195 77t-78 197zM189 345q-7 -14 0 -23.5t23 -9.5h179q16 0 23 8.5t1 23.5q-31 74 -108 74q-78 0 -118 -73z" />
    <glyph glyph-name="edieresis" unicode="&#xeb;" horiz-adv-x="596" 
d="M195 598q-32 0 -54 22.5t-22 56.5q0 31 22.5 53t53.5 22q32 0 55 -22t23 -53q0 -33 -23 -56t-55 -23zM411 598q-31 0 -54 23t-23 56q0 31 23 53t54 22q32 0 55 -22t23 -53q0 -33 -22.5 -56t-55.5 -23zM36 264q0 117 77.5 191.5t195.5 74.5q105 0 179.5 -78.5t70.5 -200.5
q0 -13 -8.5 -21t-22.5 -8h-322q-15 0 -22 -8.5t-1 -22.5q15 -41 48.5 -64.5t77.5 -23.5q74 0 101 46q16 23 37 23h68q17 0 25.5 -10t2.5 -25q-23 -65 -85.5 -106t-148.5 -41q-117 0 -195 77t-78 197zM189 345q-7 -14 0 -23.5t23 -9.5h179q16 0 23 8.5t1 23.5q-31 74 -108 74
q-78 0 -118 -73z" />
    <glyph glyph-name="igrave" unicode="&#xec;" horiz-adv-x="278" 
d="M42 754q14 30 43 12l173 -106q26 -17 12 -44l-9 -15q-13 -25 -42 -16l-187 71q-30 12 -17 42zM176 520q32 0 32 -32v-456q0 -32 -32 -32h-75q-32 0 -32 32v456q0 32 32 32h75z" />
    <glyph glyph-name="iacute" unicode="&#xed;" horiz-adv-x="278" 
d="M209 764q28 17 42 -12l27 -57q14 -29 -17 -41l-183 -70q-28 -9 -42 15l-8 16q-14 27 12 43zM176 520q32 0 32 -32v-456q0 -32 -32 -32h-75q-32 0 -32 32v456q0 32 32 32h75z" />
    <glyph glyph-name="icircumflex" unicode="&#xee;" horiz-adv-x="278" 
d="M-25 638q-13 28 12 41l130 71q28 15 55 1l137 -72q27 -13 12 -41l-9 -18q-12 -25 -38 -16l-102 36q-25 9 -53 0l-96 -35q-27 -10 -39 15zM176 520q32 0 32 -32v-456q0 -32 -32 -32h-75q-32 0 -32 32v456q0 32 32 32h75z" />
    <glyph glyph-name="idieresis" unicode="&#xef;" horiz-adv-x="278" 
d="M37 598q-32 0 -54 22.5t-22 56.5q0 31 22.5 53t53.5 22q32 0 55 -22t23 -53q0 -33 -23 -56t-55 -23zM253 598q-31 0 -54 23t-23 56q0 31 23 53t54 22q32 0 55 -22t23 -53q0 -33 -22.5 -56t-55.5 -23zM176 520q32 0 32 -32v-456q0 -32 -32 -32h-75q-32 0 -32 32v456
q0 32 32 32h75z" />
    <glyph glyph-name="eth" unicode="&#xf0;" horiz-adv-x="626" 
d="M331 582l-89 -29q-30 -11 -41 19l-4 13q-11 31 18 40l74 25l-57 92q-10 16 -4 27t25 11h70q26 0 39 -22l41 -71l90 31q29 9 40 -20l4 -14q9 -29 -20 -40l-74 -25l53 -91q51 -85 71 -144t20 -143q0 -110 -78 -180.5t-198 -70.5q-123 0 -198.5 72.5t-75.5 190.5
q0 107 71.5 176.5t184.5 69.5q30 0 62 -10q7 -3 12.5 -3.5t9 0.5t5 3.5t1 5.5t-2.5 7zM179 249q0 -63 37 -102t95 -39q61 0 101 36t40 99v33q-9 48 -47 78.5t-94 30.5q-57 0 -94.5 -38t-37.5 -98z" />
    <glyph glyph-name="ntilde" unicode="&#xf1;" horiz-adv-x="649" 
d="M480 695q29 -5 26 -36q-6 -38 -35 -60t-68 -22q-33 0 -73.5 17.5t-51.5 17.5q-19 0 -31 -16q-10 -17 -35 -13l-32 6q-31 6 -26 37q7 40 33.5 63t63.5 22q28 -1 74.5 -18.5t59.5 -17.5q21 0 32 15q7 15 32 11zM101 0q-32 0 -32 32v456q0 32 32 32h34q27 0 36 -25l2 -7
q10 -30 38 -13q90 55 191 55q87 0 135 -55t48 -156v-287q0 -32 -31 -32h-75q-32 0 -32 32v281q0 44 -23.5 69.5t-66.5 25.5q-57 0 -132 -47q-18 -11 -18 -34v-295q0 -32 -32 -32h-74z" />
    <glyph glyph-name="ograve" unicode="&#xf2;" horiz-adv-x="642" 
d="M216 754q14 30 43 12l173 -106q26 -17 12 -44l-9 -15q-14 -25 -42 -16l-187 71q-30 12 -17 42zM36 264q0 113 80.5 189.5t204.5 76.5t204 -76.5t80 -189.5q0 -117 -80 -195.5t-204 -78.5t-204.5 78.5t-80.5 195.5zM175 260q0 -65 41 -108.5t105 -43.5t105 43.5t41 108.5
t-41 108.5t-105 43.5t-105 -43.5t-41 -108.5z" />
    <glyph glyph-name="oacute" unicode="&#xf3;" horiz-adv-x="642" 
d="M383 764q29 18 43 -12l27 -57q14 -29 -17 -41l-185 -70q-29 -9 -43 15l-8 16q-14 27 12 43zM36 264q0 113 80.5 189.5t204.5 76.5t204 -76.5t80 -189.5q0 -117 -80 -195.5t-204 -78.5t-204.5 78.5t-80.5 195.5zM175 260q0 -65 41 -108.5t105 -43.5t105 43.5t41 108.5
t-41 108.5t-105 43.5t-105 -43.5t-41 -108.5z" />
    <glyph glyph-name="ocircumflex" unicode="&#xf4;" horiz-adv-x="642" 
d="M146 638q-13 28 12 41l133 71q28 15 55 1l140 -72q27 -13 12 -41l-9 -18q-12 -26 -39 -16l-104 36q-25 9 -53 0l-98 -35q-28 -10 -40 15zM36 264q0 113 80.5 189.5t204.5 76.5t204 -76.5t80 -189.5q0 -117 -80 -195.5t-204 -78.5t-204.5 78.5t-80.5 195.5zM175 260
q0 -65 41 -108.5t105 -43.5t105 43.5t41 108.5t-41 108.5t-105 43.5t-105 -43.5t-41 -108.5z" />
    <glyph glyph-name="otilde" unicode="&#xf5;" horiz-adv-x="642" 
d="M467 695q29 -5 26 -36q-6 -38 -35 -60t-68 -22q-33 0 -73.5 17.5t-51.5 17.5q-19 0 -31 -16q-10 -17 -35 -13l-32 6q-31 6 -26 37q7 40 33.5 63t63.5 22q28 -1 74.5 -18.5t59.5 -17.5q21 0 32 15q7 15 32 11zM36 264q0 113 80.5 189.5t204.5 76.5t204 -76.5t80 -189.5
q0 -117 -80 -195.5t-204 -78.5t-204.5 78.5t-80.5 195.5zM175 260q0 -65 41 -108.5t105 -43.5t105 43.5t41 108.5t-41 108.5t-105 43.5t-105 -43.5t-41 -108.5z" />
    <glyph glyph-name="odieresis" unicode="&#xf6;" horiz-adv-x="642" 
d="M211 598q-32 0 -54 22.5t-22 56.5q0 31 22.5 53t53.5 22q32 0 55 -22t23 -53q0 -33 -23 -56t-55 -23zM427 598q-31 0 -54 23t-23 56q0 31 23 53t54 22q32 0 55 -22t23 -53q0 -33 -22.5 -56t-55.5 -23zM36 264q0 113 80.5 189.5t204.5 76.5t204 -76.5t80 -189.5
q0 -117 -80 -195.5t-204 -78.5t-204.5 78.5t-80.5 195.5zM175 260q0 -65 41 -108.5t105 -43.5t105 43.5t41 108.5t-41 108.5t-105 43.5t-105 -43.5t-41 -108.5z" />
    <glyph glyph-name="divide" unicode="&#xf7;" horiz-adv-x="509" 
d="M254 380q-31 0 -52 22t-21 55q0 30 21.5 51.5t51.5 21.5q31 0 53 -21.5t22 -51.5q0 -33 -21.5 -55t-53.5 -22zM437 329q31 0 31 -32v-46q0 -32 -31 -32h-365q-32 0 -32 32v46q0 32 32 32h365zM255 5q-31 0 -52.5 22.5t-21.5 54.5q0 30 21.5 52t52.5 22t52.5 -22t21.5 -52
q0 -32 -21.5 -54.5t-52.5 -22.5z" />
    <glyph glyph-name="oslash" unicode="&#xf8;" horiz-adv-x="642" 
d="M541 437q64 -73 64 -173q0 -117 -80 -195.5t-204 -78.5q-95 0 -168 49l-31 -31q-20 -21 -42 -1l-8 8q-23 20 -2 42l29 30q-63 74 -63 177q0 113 80.5 189.5t204.5 76.5q93 0 164 -46l27 28q21 21 42 0l9 -8q22 -22 2 -43zM175 260q0 -43 18 -76l203 208q-34 20 -75 20
q-64 0 -105 -43.5t-41 -108.5zM321 108q64 0 105 43.5t41 108.5q0 45 -20 80l-206 -210q36 -22 80 -22z" />
    <glyph glyph-name="ugrave" unicode="&#xf9;" horiz-adv-x="628" 
d="M211 754q14 30 43 12l173 -106q26 -17 12 -44l-9 -15q-14 -25 -42 -16l-187 71q-30 12 -17 42zM64 201v287q0 32 32 32h75q31 0 31 -32v-281q0 -45 21 -70t61 -25q48 0 118 39q20 10 20 33v304q0 32 31 32h75q31 0 31 -32v-456q0 -32 -31 -32h-31q-27 0 -37 25l-2 5
q-10 29 -37 13q-90 -53 -182 -53q-81 0 -128 55.5t-47 155.5z" />
    <glyph glyph-name="uacute" unicode="&#xfa;" horiz-adv-x="628" 
d="M378 764q29 18 43 -12l27 -57q14 -29 -17 -41l-185 -70q-29 -9 -43 15l-8 16q-14 27 12 43zM64 201v287q0 32 32 32h75q31 0 31 -32v-281q0 -45 21 -70t61 -25q48 0 118 39q20 10 20 33v304q0 32 31 32h75q31 0 31 -32v-456q0 -32 -31 -32h-31q-27 0 -37 25l-2 5
q-10 29 -37 13q-90 -53 -182 -53q-81 0 -128 55.5t-47 155.5z" />
    <glyph glyph-name="ucircumflex" unicode="&#xfb;" horiz-adv-x="628" 
d="M141 638q-13 28 12 41l133 71q28 15 55 1l140 -72q27 -13 12 -41l-9 -18q-12 -26 -39 -16l-104 36q-25 9 -53 0l-98 -35q-28 -10 -40 15zM64 201v287q0 32 32 32h75q31 0 31 -32v-281q0 -45 21 -70t61 -25q48 0 118 39q20 10 20 33v304q0 32 31 32h75q31 0 31 -32v-456
q0 -32 -31 -32h-31q-27 0 -37 25l-2 5q-10 29 -37 13q-90 -53 -182 -53q-81 0 -128 55.5t-47 155.5z" />
    <glyph glyph-name="udieresis" unicode="&#xfc;" horiz-adv-x="628" 
d="M206 598q-32 0 -54 22.5t-22 56.5q0 31 22.5 53t53.5 22q32 0 55 -22t23 -53q0 -33 -23 -56t-55 -23zM422 598q-31 0 -54 23t-23 56q0 31 23 53t54 22q32 0 55 -22t23 -53q0 -33 -23 -56t-55 -23zM64 201v287q0 32 32 32h75q31 0 31 -32v-281q0 -45 21 -70t61 -25
q48 0 118 39q20 10 20 33v304q0 32 31 32h75q31 0 31 -32v-456q0 -32 -31 -32h-31q-27 0 -37 25l-2 5q-10 29 -37 13q-90 -53 -182 -53q-81 0 -128 55.5t-47 155.5z" />
    <glyph glyph-name="yacute" unicode="&#xfd;" horiz-adv-x="571" 
d="M350 764q29 18 43 -12l27 -57q14 -29 -17 -41l-185 -70q-29 -9 -43 15l-8 16q-14 27 12 43zM18 484q-6 16 1 26t24 10h87q28 0 37 -26l109 -338q2 -9 7 -12t10 0t8 12l107 338q7 26 36 26h84q17 0 24 -10t1 -26l-201 -533q-32 -87 -84 -128t-136 -41q-38 0 -73 9
q-28 6 -25 37l6 47q4 31 36 27q24 -5 64 -5q67 0 100 86l7 17h-21q-22 0 -30 21z" />
    <glyph glyph-name="thorn" unicode="&#xfe;" horiz-adv-x="659" 
d="M101 -220q-32 0 -32 32v928q0 32 32 32h61q31 0 31 -32v-228q0 -17 9.5 -21.5t23.5 4.5q58 35 133 35q112 0 188 -77.5t76 -190.5q0 -114 -76 -193t-190 -79q-73 0 -129 32q-33 18 -33 -17v-193q0 -32 -32 -32h-62zM207 206q0 -20 9 -34q43 -64 126 -64q59 0 99 45
t40 109q0 62 -41 106t-98 44q-83 0 -126 -64q-9 -14 -9 -34v-108z" />
    <glyph glyph-name="ydieresis" unicode="&#xff;" horiz-adv-x="571" 
d="M178 598q-32 0 -54 22.5t-22 56.5q0 31 22.5 53t53.5 22q32 0 55 -22t23 -53q0 -33 -23 -56t-55 -23zM394 598q-31 0 -54 23t-23 56q0 31 23 53t54 22q32 0 55 -22t23 -53q0 -33 -23 -56t-55 -23zM18 484q-6 16 1 26t24 10h87q28 0 37 -26l109 -338q2 -9 7 -12t10 0t8 12
l107 338q7 26 36 26h84q17 0 24 -10t1 -26l-201 -533q-32 -87 -84 -128t-136 -41q-38 0 -73 9q-28 6 -25 37l6 47q4 31 36 27q24 -5 64 -5q67 0 100 86l7 17h-21q-22 0 -30 21z" />
    <glyph glyph-name="Amacron" unicode="&#x100;" horiz-adv-x="718" 
d="M201 870q0 32 32 32h248q32 0 32 -32v-37q0 -32 -32 -32h-248q-32 0 -32 32v37zM42 0q-16 0 -23 10t-2 26l240 654q13 40 56 40h82q43 0 57 -39l257 -655q6 -17 -0.5 -26.5t-23.5 -9.5h-88q-27 0 -37 25l-39 109q-5 12 -18 12h-288q-13 0 -17 -12l-38 -108
q-8 -26 -35 -26h-83zM250 287q-5 -18 13 -18h191q8 0 11.5 5t0.5 13l-100 274q-2 7 -6 9.5t-8 0t-6 -9.5z" />
    <glyph glyph-name="amacron" unicode="&#x101;" horiz-adv-x="580" 
d="M129 673q0 32 32 32h248q32 0 32 -32v-37q0 -32 -32 -32h-248q-32 0 -32 32v37zM35 134q0 72 60.5 114t161.5 41l96 -1q28 0 28 28q0 45 -28.5 71t-74.5 26q-71 0 -97 -58q-10 -25 -35 -25h-62q-16 0 -24.5 9.5t-5.5 24.5q16 78 79.5 122t150.5 44q110 0 171.5 -62.5
t61.5 -171.5v-264q0 -32 -32 -32h-23q-26 0 -38 22l-6 12q-13 25 -39 10q-86 -54 -177 -54q-75 0 -121 42t-46 102zM174 150q0 -24 18.5 -37.5t47.5 -13.5q54 0 123 40q18 10 18 32v5q0 27 -28 27h-93q-86 0 -86 -53z" />
    <glyph glyph-name="Abreve" unicode="&#x102;" horiz-adv-x="718" 
d="M254 936q24 0 34 -28q19 -40 71 -40q51 0 72 40q12 28 35 28h40q36 -2 30 -34q-13 -58 -60 -92t-117 -34q-66 0 -114.5 33.5t-62.5 92.5q-7 32 30 34h42zM42 0q-16 0 -23 10t-2 26l240 654q13 40 56 40h82q43 0 57 -39l257 -655q6 -17 -0.5 -26.5t-23.5 -9.5h-88
q-27 0 -37 25l-39 109q-5 12 -18 12h-288q-13 0 -17 -12l-38 -108q-8 -26 -35 -26h-83zM250 287q-5 -18 13 -18h191q8 0 11.5 5t0.5 13l-100 274q-2 7 -6 9.5t-8 0t-6 -9.5z" />
    <glyph glyph-name="abreve" unicode="&#x103;" horiz-adv-x="580" 
d="M180 742q24 0 34 -28q19 -40 71 -40q51 0 72 40q12 28 35 28h40q36 -2 30 -34q-13 -58 -60 -92t-117 -34q-66 0 -114.5 33.5t-62.5 92.5q-7 32 30 34h42zM35 134q0 72 60.5 114t161.5 41l96 -1q28 0 28 28q0 45 -28.5 71t-74.5 26q-71 0 -97 -58q-10 -25 -35 -25h-62
q-16 0 -24.5 9.5t-5.5 24.5q16 78 79.5 122t150.5 44q110 0 171.5 -62.5t61.5 -171.5v-264q0 -32 -32 -32h-23q-26 0 -38 22l-6 12q-13 25 -39 10q-86 -54 -177 -54q-75 0 -121 42t-46 102zM174 150q0 -24 18.5 -37.5t47.5 -13.5q54 0 123 40q18 10 18 32v5q0 27 -28 27h-93
q-86 0 -86 -53z" />
    <glyph glyph-name="Aogonek" unicode="&#x104;" horiz-adv-x="718" 
d="M686 -138q21 3 21 -17v-35q0 -17 -16 -21q-25 -6 -52 -6q-51 0 -83.5 27.5t-32.5 79.5q0 66 74 110q-27 0 -37 25l-39 109q-5 12 -18 12h-288q-13 0 -17 -12l-38 -108q-8 -26 -35 -26h-83q-16 0 -23 10t-2 26l240 654q13 40 56 40h82q43 0 57 -39l257 -655q9 -26 -10 -34
q-73 -46 -73 -105q0 -17 10.5 -27t26.5 -10q7 0 23 2zM454 269q8 0 11.5 5t0.5 13l-100 274q-2 7 -6 9.5t-8 0t-6 -9.5l-96 -274q-5 -18 13 -18h191z" />
    <glyph glyph-name="aogonek" unicode="&#x105;" horiz-adv-x="580" 
d="M500 3q-72 -48 -72 -105q0 -17 10.5 -27t26.5 -10q7 0 23 2q21 3 21 -17v-35q0 -17 -16 -21q-25 -6 -52 -6q-51 0 -83.5 27.5t-32.5 79.5q0 78 103 125l-4 6l-6 12q-13 25 -39 10q-86 -54 -177 -54q-75 0 -121 42t-46 102q0 72 60.5 114t161.5 41l96 -1q28 0 28 28
q0 45 -28.5 71t-74.5 26q-71 0 -97 -58q-10 -25 -35 -25h-62q-16 0 -24.5 9.5t-5.5 24.5q16 78 79.5 122t150.5 44q110 0 171.5 -62.5t61.5 -171.5v-264q0 -21 -17 -29zM381 171v5q0 27 -28 27h-93q-86 0 -86 -53q0 -24 18.5 -37.5t47.5 -13.5q54 0 123 40q18 10 18 32z" />
    <glyph glyph-name="Cacute" unicode="&#x106;" horiz-adv-x="831" 
d="M509 938q32 11 40 -20l15 -62q8 -31 -25 -36l-196 -31q-29 -3 -39 23l-4 17q-9 30 20 40zM40 368q0 160 111.5 266t279.5 106q142 0 238.5 -82t118.5 -207q5 -33 -29 -33h-87q-27 0 -35 29q-18 73 -73.5 119t-132.5 46q-106 0 -174.5 -69.5t-68.5 -174.5
q0 -108 68.5 -179t174.5 -71q75 0 128.5 34t75.5 93q11 26 37 26h86q17 0 25 -9.5t4 -25.5q-28 -107 -123.5 -176.5t-232.5 -69.5q-168 0 -279.5 107t-111.5 271z" />
    <glyph glyph-name="cacute" unicode="&#x107;" horiz-adv-x="605" 
d="M382 764q29 18 43 -12l27 -57q14 -29 -17 -41l-185 -70q-29 -9 -43 15l-8 16q-14 27 12 43zM467 320q-22 0 -36 26q-13 29 -42.5 47.5t-70.5 18.5q-61 0 -100.5 -41.5t-39.5 -110.5q0 -71 41 -111.5t98 -40.5q82 0 110 59q14 25 36 25h74q16 0 25 -9.5t5 -24.5
q-18 -76 -86.5 -122t-160.5 -46q-125 0 -204.5 78.5t-79.5 195.5q0 114 78.5 190t200.5 76q105 0 170.5 -49t82.5 -127q3 -15 -5.5 -24.5t-24.5 -9.5h-71z" />
    <glyph glyph-name="Cdotaccent" unicode="&#x10a;" horiz-adv-x="831" 
d="M423 776q-39 0 -65.5 27.5t-26.5 66.5q0 38 26.5 64.5t65.5 26.5q38 0 65.5 -27t27.5 -64q0 -39 -27.5 -66.5t-65.5 -27.5zM40 368q0 160 111.5 266t279.5 106q142 0 238.5 -82t118.5 -207q5 -33 -29 -33h-87q-27 0 -35 29q-18 73 -73.5 119t-132.5 46
q-106 0 -174.5 -69.5t-68.5 -174.5q0 -108 68.5 -179t174.5 -71q75 0 128.5 34t75.5 93q11 26 37 26h86q17 0 25 -9.5t4 -25.5q-28 -107 -123.5 -176.5t-232.5 -69.5q-168 0 -279.5 107t-111.5 271z" />
    <glyph glyph-name="cdotaccent" unicode="&#x10b;" horiz-adv-x="605" 
d="M318 588q-39 0 -65.5 27.5t-26.5 66.5q0 38 26.5 64.5t65.5 26.5q38 0 65.5 -27t27.5 -64q0 -39 -27.5 -66.5t-65.5 -27.5zM467 320q-22 0 -36 26q-13 29 -42.5 47.5t-70.5 18.5q-61 0 -100.5 -41.5t-39.5 -110.5q0 -71 41 -111.5t98 -40.5q82 0 110 59q14 25 36 25h74
q16 0 25 -9.5t5 -24.5q-18 -76 -86.5 -122t-160.5 -46q-125 0 -204.5 78.5t-79.5 195.5q0 114 78.5 190t200.5 76q105 0 170.5 -49t82.5 -127q3 -15 -5.5 -24.5t-24.5 -9.5h-71z" />
    <glyph glyph-name="Ccaron" unicode="&#x10c;" horiz-adv-x="831" 
d="M258 904l3 14q2 13 14.5 18.5t25.5 -0.5l109 -34q14 -4 27 0l109 34q14 5 26 0t15 -18l3 -14q5 -31 -15 -41l-115 -57q-37 -18 -73 0l-115 57q-21 10 -14 41zM40 368q0 160 111.5 266t279.5 106q142 0 238.5 -82t118.5 -207q5 -33 -29 -33h-87q-27 0 -35 29
q-18 73 -73.5 119t-132.5 46q-106 0 -174.5 -69.5t-68.5 -174.5q0 -108 68.5 -179t174.5 -71q75 0 128.5 34t75.5 93q11 26 37 26h86q17 0 25 -9.5t4 -25.5q-28 -107 -123.5 -176.5t-232.5 -69.5q-168 0 -279.5 107t-111.5 271z" />
    <glyph glyph-name="ccaron" unicode="&#x10d;" horiz-adv-x="605" 
d="M157 702l3 14q2 13 13.5 18t25.5 0l106 -34q13 -4 27 0l106 34q14 5 25.5 0t14.5 -18l3 -14q5 -30 -15 -40l-112 -55q-36 -18 -71 0l-112 55q-21 10 -14 40zM467 320q-22 0 -36 26q-13 29 -42.5 47.5t-70.5 18.5q-61 0 -100.5 -41.5t-39.5 -110.5q0 -71 41 -111.5
t98 -40.5q82 0 110 59q14 25 36 25h74q16 0 25 -9.5t5 -24.5q-18 -76 -86.5 -122t-160.5 -46q-125 0 -204.5 78.5t-79.5 195.5q0 114 78.5 190t200.5 76q105 0 170.5 -49t82.5 -127q3 -15 -5.5 -24.5t-24.5 -9.5h-71z" />
    <glyph glyph-name="Dcaron" unicode="&#x10e;" horiz-adv-x="785" 
d="M186 902l3 14q2 13 14.5 18.5t25.5 -0.5l109 -34q14 -4 27 0l109 34q14 5 26 0t15 -18l3 -14q5 -31 -15 -41l-115 -57q-36 -18 -73 0l-115 57q-21 10 -14 41zM125 0q-42 0 -42 42v646q0 42 42 42h236q168 0 275.5 -103t107.5 -262q0 -163 -107.5 -264t-275.5 -101h-236z
M227 136q0 -18 18 -18h116q99 0 167.5 64t68.5 183q0 120 -68.5 183.5t-167.5 63.5h-116q-18 0 -18 -18v-458z" />
    <glyph glyph-name="dcaron" unicode="&#x10f;" horiz-adv-x="662" 
d="M697 586q29 0 34 29l32 173q6 35 -28 35h-52q-30 0 -33 -30l-17 -173q-3 -34 30 -34h34zM37 262q0 116 78 192t197 76q63 0 114 -27q14 -8 23 -3t9 21v227q0 32 32 32h71q32 0 32 -32v-716q0 -32 -32 -32h-20q-26 0 -36 24l-5 9q-13 31 -37 8q-60 -51 -147 -51
q-124 0 -201.5 76t-77.5 196zM179 262q0 -64 41 -109t101 -45q40 0 73.5 19.5t51.5 50.5q8 14 8 34v97q0 21 -8 34q-19 31 -52.5 50t-72.5 19q-60 0 -101 -43.5t-41 -106.5z" />
    <glyph glyph-name="Dcroat" unicode="&#x110;" horiz-adv-x="785" 
d="M361 730q168 0 275.5 -103t107.5 -262q0 -163 -107.5 -264t-275.5 -101h-236q-42 0 -42 42v273h-32q-32 0 -32 32v43q0 32 32 32h32v266q0 42 42 42h236zM361 118q99 0 167.5 64t68.5 183q0 120 -68.5 183.5t-167.5 63.5h-116q-18 0 -18 -18v-172h119q32 0 32 -32v-43
q0 -32 -32 -32h-119v-179q0 -18 18 -18h116z" />
    <glyph glyph-name="dcroat" unicode="&#x111;" horiz-adv-x="662" 
d="M665 686q32 0 32 -32v-43q0 -32 -32 -32h-72v-547q0 -32 -32 -32h-20q-26 0 -36 24l-5 9q-13 31 -37 8q-60 -51 -147 -51q-124 0 -201.5 76t-77.5 196q0 116 78 192t197 76q63 0 114 -27q14 -8 23 -3t9 21v58h-88q-32 0 -32 32v43q0 32 32 32h88v62q0 32 32 32h71
q32 0 32 -32v-62h72zM454 212v97q0 21 -8 34q-19 31 -52.5 50t-72.5 19q-60 0 -101 -43.5t-41 -106.5q0 -64 41 -109t101 -45q40 0 73.5 19.5t51.5 50.5q8 14 8 34z" />
    <glyph glyph-name="Emacron" unicode="&#x112;" horiz-adv-x="564" 
d="M145 870q0 32 32 32h248q32 0 32 -32v-37q0 -32 -32 -32h-248q-32 0 -32 32v37zM125 0q-42 0 -42 42v646q0 42 42 42h350q31 0 31 -32v-54q0 -32 -31 -32h-231q-18 0 -18 -18v-154q0 -18 18 -18h211q32 0 32 -32v-54q0 -32 -32 -32h-211q-18 0 -18 -18v-150q0 -18 18 -18
h240q32 0 32 -31v-55q0 -32 -32 -32h-359z" />
    <glyph glyph-name="emacron" unicode="&#x113;" horiz-adv-x="596" 
d="M147 673q0 32 32 32h248q32 0 32 -32v-37q0 -32 -32 -32h-248q-32 0 -32 32v37zM36 264q0 117 77.5 191.5t195.5 74.5q105 0 179.5 -78.5t70.5 -200.5q0 -13 -8.5 -21t-22.5 -8h-322q-15 0 -22 -8.5t-1 -22.5q15 -41 48.5 -64.5t77.5 -23.5q74 0 101 46q16 23 37 23h68
q17 0 25.5 -10t2.5 -25q-23 -65 -85.5 -106t-148.5 -41q-117 0 -195 77t-78 197zM189 345q-7 -14 0 -23.5t23 -9.5h179q16 0 23 8.5t1 23.5q-31 74 -108 74q-78 0 -118 -73z" />
    <glyph glyph-name="Edotaccent" unicode="&#x116;" horiz-adv-x="564" 
d="M301 774q-39 0 -65.5 27.5t-26.5 66.5q0 38 26.5 64.5t65.5 26.5q38 0 65.5 -27t27.5 -64q0 -39 -27.5 -66.5t-65.5 -27.5zM125 0q-42 0 -42 42v646q0 42 42 42h350q31 0 31 -32v-54q0 -32 -31 -32h-231q-18 0 -18 -18v-154q0 -18 18 -18h211q32 0 32 -32v-54
q0 -32 -32 -32h-211q-18 0 -18 -18v-150q0 -18 18 -18h240q32 0 32 -31v-55q0 -32 -32 -32h-359z" />
    <glyph glyph-name="edotaccent" unicode="&#x117;" horiz-adv-x="596" 
d="M303 588q-39 0 -65.5 27.5t-26.5 66.5q0 38 26.5 64.5t65.5 26.5q38 0 65.5 -27t27.5 -64q0 -39 -27.5 -66.5t-65.5 -27.5zM36 264q0 117 77.5 191.5t195.5 74.5q105 0 179.5 -78.5t70.5 -200.5q0 -13 -8.5 -21t-22.5 -8h-322q-15 0 -22 -8.5t-1 -22.5q15 -41 48.5 -64.5
t77.5 -23.5q74 0 101 46q16 23 37 23h68q17 0 25.5 -10t2.5 -25q-23 -65 -85.5 -106t-148.5 -41q-117 0 -195 77t-78 197zM189 345q-7 -14 0 -23.5t23 -9.5h179q16 0 23 8.5t1 23.5q-31 74 -108 74q-78 0 -118 -73z" />
    <glyph glyph-name="Eogonek" unicode="&#x118;" horiz-adv-x="564" 
d="M484 118q32 0 32 -31v-55q0 -22 -18 -30q-73 -46 -73 -105q0 -17 10.5 -27t26.5 -10q7 0 23 2q21 3 21 -17v-35q0 -17 -16 -21q-25 -6 -52 -6q-51 0 -83.5 27.5t-32.5 79.5q0 66 74 110h-271q-42 0 -42 42v646q0 42 42 42h350q31 0 31 -32v-54q0 -32 -31 -32h-231
q-18 0 -18 -18v-154q0 -18 18 -18h211q32 0 32 -32v-54q0 -32 -32 -32h-211q-18 0 -18 -18v-150q0 -18 18 -18h240z" />
    <glyph glyph-name="eogonek" unicode="&#x119;" horiz-adv-x="596" 
d="M309 530q105 0 179.5 -78.5t70.5 -200.5q0 -13 -8.5 -21t-22.5 -8h-322q-15 0 -22 -8.5t-1 -22.5q15 -41 48.5 -64.5t77.5 -23.5q74 0 101 46q16 23 37 23h68q17 0 25.5 -10t2.5 -25q-17 -49 -57.5 -85t-98.5 -52q-68 -46 -68 -102q0 -17 10.5 -27t26.5 -10q7 0 23 2
q21 3 21 -17v-35q0 -17 -16 -21q-25 -6 -52 -6q-51 0 -83.5 27.5t-32.5 79.5q0 59 60 101q-105 11 -172.5 86.5t-67.5 185.5q0 117 77.5 191.5t195.5 74.5zM391 312q16 0 23 8.5t1 23.5q-31 74 -108 74q-78 0 -118 -73q-7 -14 0 -23.5t23 -9.5h179z" />
    <glyph glyph-name="Ecaron" unicode="&#x11a;" horiz-adv-x="564" 
d="M136 902l3 14q2 13 14.5 18.5t25.5 -0.5l109 -34q14 -4 27 0l109 34q14 5 26 0t15 -18l3 -14q5 -31 -15 -41l-115 -57q-36 -18 -73 0l-115 57q-21 10 -14 41zM125 0q-42 0 -42 42v646q0 42 42 42h350q31 0 31 -32v-54q0 -32 -31 -32h-231q-18 0 -18 -18v-154
q0 -18 18 -18h211q32 0 32 -32v-54q0 -32 -32 -32h-211q-18 0 -18 -18v-150q0 -18 18 -18h240q32 0 32 -31v-55q0 -32 -32 -32h-359z" />
    <glyph glyph-name="ecaron" unicode="&#x11b;" horiz-adv-x="596" 
d="M142 702l3 14q2 13 13.5 18t25.5 0l106 -34q14 -4 27 0l106 34q14 5 25.5 0t14.5 -18l3 -14q5 -30 -15 -40l-112 -55q-35 -18 -71 0l-112 55q-21 10 -14 40zM36 264q0 117 77.5 191.5t195.5 74.5q105 0 179.5 -78.5t70.5 -200.5q0 -13 -8.5 -21t-22.5 -8h-322
q-15 0 -22 -8.5t-1 -22.5q15 -41 48.5 -64.5t77.5 -23.5q74 0 101 46q16 23 37 23h68q17 0 25.5 -10t2.5 -25q-23 -65 -85.5 -106t-148.5 -41q-117 0 -195 77t-78 197zM189 345q-7 -14 0 -23.5t23 -9.5h179q16 0 23 8.5t1 23.5q-31 74 -108 74q-78 0 -118 -73z" />
    <glyph glyph-name="Gbreve" unicode="&#x11e;" horiz-adv-x="811" 
d="M318 936q24 0 34 -28q19 -40 71 -40q51 0 72 40q12 28 35 28h40q36 -2 30 -34q-13 -58 -60 -92t-117 -34q-66 0 -114.5 33.5t-62.5 92.5q-7 32 30 34h42zM40 370q0 159 111.5 264.5t275.5 105.5q126 0 218.5 -73t115.5 -187q3 -16 -5 -25t-24 -9h-76q-26 0 -34 28
q-18 63 -69.5 102.5t-125.5 39.5q-102 0 -170.5 -71t-68.5 -180t68.5 -180.5t170.5 -71.5q75 0 127 30.5t73 84.5q4 9 -1 15t-14 6h-139q-31 0 -31 31v42q0 32 31 32h256q36 0 36 -35v-6q0 -148 -92 -235.5t-246 -87.5q-164 0 -275.5 108.5t-111.5 271.5z" />
    <glyph glyph-name="gbreve" unicode="&#x11f;" horiz-adv-x="659" 
d="M227 742q24 0 34 -28q19 -40 71 -40q51 0 72 40q12 28 35 28h40q36 -2 30 -34q-13 -58 -60 -92t-117 -34q-66 0 -114.5 33.5t-62.5 92.5q-7 32 30 34h42zM36 266q0 113 78 188.5t197 75.5q84 0 145 -47q27 -20 37 9l2 4q11 24 37 24h26q32 0 32 -32v-473q0 -104 -73 -168
t-191 -64q-91 0 -154.5 38t-90.5 105q-7 16 1 26t25 10h65q19 0 38 -22q34 -46 116 -46q61 0 99.5 34t38.5 87v2q0 31 -33 12q-49 -30 -116 -30q-124 0 -201.5 75.5t-77.5 191.5zM178 266q0 -61 41 -105t101 -44q39 0 71.5 17.5t50.5 46.5q9 13 9 35v97q0 22 -9 34
q-19 30 -52 47.5t-70 17.5q-59 0 -100.5 -42.5t-41.5 -103.5z" />
    <glyph glyph-name="Gdotaccent" unicode="&#x120;" horiz-adv-x="811" 
d="M421 774q-39 0 -65.5 27.5t-26.5 66.5q0 38 26.5 64.5t65.5 26.5q38 0 65.5 -27t27.5 -64q0 -39 -27.5 -66.5t-65.5 -27.5zM40 370q0 159 111.5 264.5t275.5 105.5q126 0 218.5 -73t115.5 -187q3 -16 -5 -25t-24 -9h-76q-26 0 -34 28q-18 63 -69.5 102.5t-125.5 39.5
q-102 0 -170.5 -71t-68.5 -180t68.5 -180.5t170.5 -71.5q75 0 127 30.5t73 84.5q4 9 -1 15t-14 6h-139q-31 0 -31 31v42q0 32 31 32h256q36 0 36 -35v-6q0 -148 -92 -235.5t-246 -87.5q-164 0 -275.5 108.5t-111.5 271.5z" />
    <glyph glyph-name="gdotaccent" unicode="&#x121;" horiz-adv-x="659" 
d="M332 588q-39 0 -65.5 27.5t-26.5 66.5q0 38 26.5 64.5t65.5 26.5q38 0 65.5 -27t27.5 -64q0 -39 -27.5 -66.5t-65.5 -27.5zM36 266q0 113 78 188.5t197 75.5q84 0 145 -47q27 -20 37 9l2 4q11 24 37 24h26q32 0 32 -32v-473q0 -104 -73 -168t-191 -64q-91 0 -154.5 38
t-90.5 105q-7 16 1 26t25 10h65q19 0 38 -22q34 -46 116 -46q61 0 99.5 34t38.5 87v2q0 31 -33 12q-49 -30 -116 -30q-124 0 -201.5 75.5t-77.5 191.5zM178 266q0 -61 41 -105t101 -44q39 0 71.5 17.5t50.5 46.5q9 13 9 35v97q0 22 -9 34q-19 30 -52 47.5t-70 17.5
q-59 0 -100.5 -42.5t-41.5 -103.5z" />
    <glyph glyph-name="Gcommaaccent" unicode="&#x122;" horiz-adv-x="811" 
d="M40 370q0 159 111.5 264.5t275.5 105.5q126 0 218.5 -73t115.5 -187q3 -16 -5 -25t-24 -9h-76q-26 0 -34 28q-18 63 -69.5 102.5t-125.5 39.5q-102 0 -170.5 -71t-68.5 -180t68.5 -180.5t170.5 -71.5q75 0 127 30.5t73 84.5q4 9 -1 15t-14 6h-139q-31 0 -31 31v42
q0 32 31 32h256q36 0 36 -35v-6q0 -148 -92 -235.5t-246 -87.5q-164 0 -275.5 108.5t-111.5 271.5zM349 -62q3 29 33 29h58q17 0 24 -9.5t2 -26.5l-47 -150q-8 -26 -36 -26h-29q-35 0 -29 34z" />
    <glyph glyph-name="gcommaaccent" unicode="&#x123;" horiz-adv-x="659" 
d="M376 616q-3 -29 -33 -29h-58q-17 0 -24 9.5t-2 26.5l47 150q8 26 36 26h29q35 0 29 -34zM36 266q0 113 78 188.5t197 75.5q84 0 145 -47q27 -20 37 9l2 4q11 24 37 24h26q32 0 32 -32v-473q0 -104 -73 -168t-191 -64q-91 0 -154.5 38t-90.5 105q-7 16 1 26t25 10h65
q19 0 38 -22q34 -46 116 -46q61 0 99.5 34t38.5 87v2q0 31 -33 12q-49 -30 -116 -30q-124 0 -201.5 75.5t-77.5 191.5zM178 266q0 -61 41 -105t101 -44q39 0 71.5 17.5t50.5 46.5q9 13 9 35v97q0 22 -9 34q-19 30 -52 47.5t-70 17.5q-59 0 -100.5 -42.5t-41.5 -103.5z" />
    <glyph glyph-name="Hbar" unicode="&#x126;" horiz-adv-x="818" 
d="M766 621q32 0 32 -32v-26q0 -32 -32 -32h-31v-499q0 -32 -32 -32h-80q-32 0 -32 32v229q0 34 -35 34h-294q-35 0 -35 -34v-229q0 -32 -31 -32h-81q-32 0 -32 32v499h-33q-31 0 -31 32v26q0 32 31 32h33v77q0 32 32 32h81q31 0 31 -32v-77h364v77q0 32 32 32h80
q32 0 32 -32v-77h31zM591 460v71h-364v-71q0 -34 35 -34h294q35 0 35 34z" />
    <glyph glyph-name="hbar" unicode="&#x127;" horiz-adv-x="648" 
d="M400 530q87 0 135.5 -55t48.5 -156v-287q0 -32 -32 -32h-75q-32 0 -32 32v281q0 44 -23 69.5t-65 25.5q-58 0 -131 -47q-19 -11 -19 -34v-295q0 -32 -32 -32h-74q-32 0 -32 32v546h-33q-32 0 -32 32v43q0 32 32 32h33v63q0 32 32 32h69q32 0 32 -32v-63h129q32 0 32 -32
v-43q0 -32 -32 -32h-129v-70q0 -16 9.5 -21.5t24.5 2.5q76 41 164 41z" />
    <glyph glyph-name="Itilde" unicode="&#x128;" horiz-adv-x="311" 
d="M309 905q29 -5 26 -36q-6 -38 -35 -60t-68 -22q-33 0 -73.5 17.5t-51.5 17.5q-19 0 -31 -16q-10 -17 -35 -13l-32 6q-31 6 -26 37q7 40 33.5 63t63.5 22q28 -1 74.5 -18.5t59.5 -17.5q21 0 32 15q7 15 32 11zM196 730q31 0 31 -32v-666q0 -32 -31 -32h-81q-32 0 -32 32
v666q0 32 32 32h81z" />
    <glyph glyph-name="itilde" unicode="&#x129;" horiz-adv-x="278" 
d="M291 695q29 -5 26 -36q-6 -38 -34.5 -60t-67.5 -22q-32 0 -72.5 17.5t-51.5 17.5q-18 0 -30 -16q-10 -17 -35 -13l-32 6q-30 7 -25 37q7 40 33 63t63 22q28 -1 73.5 -18.5t58.5 -17.5q21 0 32 15q7 15 31 11zM176 520q32 0 32 -32v-456q0 -32 -32 -32h-75q-32 0 -32 32
v456q0 32 32 32h75z" />
    <glyph glyph-name="Imacron" unicode="&#x12a;" horiz-adv-x="311" 
d="M-1 870q0 32 32 32h248q32 0 32 -32v-37q0 -32 -32 -32h-248q-32 0 -32 32v37zM196 730q31 0 31 -32v-666q0 -32 -31 -32h-81q-32 0 -32 32v666q0 32 32 32h81z" />
    <glyph glyph-name="imacron" unicode="&#x12b;" horiz-adv-x="278" 
d="M-8 673q0 32 31 32h243q31 0 31 -32v-37q0 -32 -31 -32h-243q-31 0 -31 32v37zM176 520q32 0 32 -32v-456q0 -32 -32 -32h-75q-32 0 -32 32v456q0 32 32 32h75z" />
    <glyph glyph-name="Iogonek" unicode="&#x12e;" horiz-adv-x="311" 
d="M227 32q0 -22 -15 -29q-74 -47 -74 -106q0 -17 10.5 -27t26.5 -10q7 0 23 2q21 3 21 -17v-35q0 -17 -16 -21q-26 -6 -52 -6q-51 0 -83.5 27.5t-32.5 79.5q0 66 75 110q-27 3 -27 32v666q0 32 32 32h81q31 0 31 -32v-666z" />
    <glyph glyph-name="iogonek" unicode="&#x12f;" horiz-adv-x="278" 
d="M144 773q38 0 65.5 -27t27.5 -64q0 -39 -27.5 -66.5t-65.5 -27.5q-39 0 -65.5 27.5t-26.5 66.5q0 38 26.5 64.5t65.5 26.5zM176 520q32 0 32 -32v-456q0 -22 -18 -30h1q-74 -47 -74 -106q0 -17 10.5 -27t26.5 -10q7 0 23 2q21 3 21 -17v-35q0 -17 -16 -21q-26 -6 -52 -6
q-51 0 -83.5 27.5t-32.5 79.5q0 68 78 112q-23 5 -23 31v456q0 32 32 32h75z" />
    <glyph glyph-name="Idotaccent" unicode="&#x130;" horiz-adv-x="311" 
d="M155 774q-39 0 -65.5 27.5t-26.5 66.5q0 38 26.5 64.5t65.5 26.5q38 0 65.5 -27t27.5 -64q0 -39 -27.5 -66.5t-65.5 -27.5zM196 730q31 0 31 -32v-666q0 -32 -31 -32h-81q-32 0 -32 32v666q0 32 32 32h81z" />
    <glyph glyph-name="dotlessi" unicode="&#x131;" horiz-adv-x="278" 
d="M176 520q32 0 32 -32v-456q0 -32 -32 -32h-75q-32 0 -32 32v456q0 32 32 32h75z" />
    <glyph glyph-name="IJ" unicode="&#x132;" horiz-adv-x="1013" 
d="M196 730q31 0 31 -32v-666q0 -32 -31 -32h-81q-32 0 -32 32v666q0 32 32 32h81zM333 230q-3 16 5.5 25t24.5 9h76q26 0 34 -28q15 -54 59 -86t107 -32q71 0 113 46.5t42 121.5v303q0 21 -21 21h-208q-32 0 -32 32v56q0 32 32 32h334q39 0 39 -38v-406q0 -128 -82.5 -212
t-216.5 -84q-125 0 -206.5 67.5t-99.5 172.5z" />
    <glyph glyph-name="ij" unicode="&#x133;" horiz-adv-x="563" 
d="M145 588q-39 0 -65.5 27.5t-26.5 66.5q0 38 26.5 64.5t65.5 26.5q38 0 65.5 -27t27.5 -64q0 -39 -27.5 -66.5t-65.5 -27.5zM426 588q-39 0 -65.5 27.5t-26.5 66.5q0 38 26.5 64.5t65.5 26.5q38 0 65.5 -27t27.5 -64q0 -39 -27.5 -66.5t-65.5 -27.5zM176 520q32 0 32 -32
v-456q0 -32 -32 -32h-75q-32 0 -32 32v456q0 32 32 32h75zM340 -217q-25 0 -61 4q-30 5 -27 36l5 55q3 31 22 28q3 0 10 -0.5t10 -0.5q56 0 56 63v520q0 32 32 32h75q31 0 31 -32v-532q0 -78 -42 -125.5t-111 -47.5z" />
    <glyph glyph-name="Kcommaaccent" unicode="&#x136;" horiz-adv-x="669" 
d="M196 730q31 0 31 -32v-666q0 -32 -31 -32h-81q-32 0 -32 32v666q0 32 32 32h81zM251 307q-12 16 -12 34v42q0 18 12 34l230 294q14 19 39 19h93q20 0 25.5 -11.5t-7.5 -27.5l-257 -313q-10 -12 0 -25l273 -314q13 -16 7.5 -27.5t-25.5 -11.5h-107q-24 0 -38 19zM269 -62
q3 29 33 29h58q17 0 24 -9.5t2 -26.5l-47 -150q-8 -26 -36 -26h-29q-35 0 -29 34z" />
    <glyph glyph-name="kcommaaccent" unicode="&#x137;" horiz-adv-x="596" 
d="M101 0q-32 0 -32 32v716q0 32 32 32h75q31 0 31 -32v-417q0 -22 10.5 -26t24.5 12l167 185q15 18 39 18h86q21 0 25.5 -11.5t-9.5 -27.5l-144 -153q-18 -18 -3 -38l171 -252q10 -16 4.5 -27t-24.5 -11h-90q-23 0 -38 21l-109 168q-17 27 -40 4l-56 -57q-14 -14 -14 -35
v-69q0 -32 -31 -32h-75zM260 -62q3 29 33 29h58q17 0 24 -9.5t2 -26.5l-47 -150q-8 -26 -36 -26h-29q-35 0 -29 34z" />
    <glyph glyph-name="kgreenlandic" unicode="&#x138;" horiz-adv-x="596" 
d="M101 0q-32 0 -32 32v456q0 32 32 32h75q31 0 31 -32v-160q0 -22 10 -26t25 13l167 187q15 18 39 18h86q21 0 25.5 -11.5t-9.5 -27.5l-145 -153q-17 -18 -2 -39l171 -251q10 -16 4.5 -27t-24.5 -11h-90q-25 0 -38 21l-107 171q-18 26 -40 4l-58 -60q-14 -14 -14 -35v-69
q0 -32 -31 -32h-75z" />
    <glyph glyph-name="Lacute" unicode="&#x139;" horiz-adv-x="580" 
d="M267 936q32 11 40 -20l15 -62q8 -31 -25 -36l-196 -31q-29 -3 -39 23l-4 17q-9 30 20 40zM122 0q-39 0 -39 38v660q0 32 32 32h81q31 0 31 -32v-552q0 -18 18 -18h287q32 0 32 -32v-64q0 -32 -32 -32h-410z" />
    <glyph glyph-name="lacute" unicode="&#x13a;" horiz-adv-x="278" 
d="M219 986q32 11 40 -20l15 -62q8 -31 -25 -36l-196 -31q-29 -3 -39 23l-4 17q-9 30 20 40zM176 780q32 0 32 -32v-716q0 -32 -32 -32h-75q-32 0 -32 32v716q0 32 32 32h75z" />
    <glyph glyph-name="Lcommaaccent" unicode="&#x13b;" horiz-adv-x="580" 
d="M122 0q-39 0 -39 38v660q0 32 32 32h81q31 0 31 -32v-552q0 -18 18 -18h287q32 0 32 -32v-64q0 -32 -32 -32h-410zM262 -62q3 29 33 29h58q17 0 24 -9.5t2 -26.5l-47 -150q-8 -26 -36 -26h-29q-35 0 -29 34z" />
    <glyph glyph-name="lcommaaccent" unicode="&#x13c;" horiz-adv-x="278" 
d="M176 780q32 0 32 -32v-716q0 -32 -32 -32h-75q-32 0 -32 32v716q0 32 32 32h75zM78 -62q3 29 33 29h58q17 0 24 -9.5t2 -26.5l-47 -150q-8 -26 -36 -26h-29q-35 0 -29 34z" />
    <glyph glyph-name="Lcaron" unicode="&#x13d;" horiz-adv-x="580" 
d="M458 546q29 0 34 29l32 173q6 35 -28 35h-52q-30 0 -33 -30l-17 -173q-3 -34 30 -34h34zM122 0q-39 0 -39 38v660q0 32 32 32h81q31 0 31 -32v-552q0 -18 18 -18h287q32 0 32 -32v-64q0 -32 -32 -32h-410z" />
    <glyph glyph-name="lcaron" unicode="&#x13e;" horiz-adv-x="278" 
d="M321 594q29 0 34 29l32 173q6 35 -28 35h-52q-30 0 -33 -30l-17 -173q-3 -34 30 -34h34zM176 780q32 0 32 -32v-716q0 -32 -32 -32h-75q-32 0 -32 32v716q0 32 32 32h75z" />
    <glyph glyph-name="Ldot" unicode="&#x13f;" horiz-adv-x="598" 
d="M122 0q-39 0 -39 38v660q0 32 32 32h81q31 0 31 -32v-552q0 -18 18 -18h287q32 0 32 -32v-64q0 -32 -32 -32h-410zM468 323q-39 0 -65.5 27.5t-26.5 66.5q0 38 26.5 64.5t65.5 26.5q38 0 65.5 -27t27.5 -64q0 -39 -27.5 -66.5t-65.5 -27.5z" />
    <glyph glyph-name="ldot" unicode="&#x140;" horiz-adv-x="456" 
d="M176 780q32 0 32 -32v-716q0 -32 -32 -32h-75q-32 0 -32 32v716q0 32 32 32h75zM366 260q-35 0 -59 25t-24 61q0 32 24.5 56t58.5 24t58.5 -24t24.5 -56q0 -36 -24 -61t-59 -25z" />
    <glyph glyph-name="Lslash" unicode="&#x141;" horiz-adv-x="580" 
d="M532 128q32 0 32 -32v-64q0 -32 -32 -32h-410q-39 0 -39 38v236l-48 -16q-32 -10 -39 21l-10 35q-8 30 21 39l76 26v319q0 32 32 32h81q31 0 31 -32v-269l81 28q29 9 40 -20l11 -36q10 -30 -20 -41l-112 -38v-176q0 -18 18 -18h287z" />
    <glyph glyph-name="lslash" unicode="&#x142;" horiz-adv-x="278" 
d="M308 448q11 -27 -17 -38l-83 -32v-346q0 -32 -32 -32h-75q-32 0 -32 32v293l-45 -17q-28 -11 -38 18l-9 28q-9 29 18 39l74 28v327q0 32 32 32h75q32 0 32 -32v-275l52 19q27 11 38 -17z" />
    <glyph glyph-name="Nacute" unicode="&#x143;" horiz-adv-x="802" 
d="M483 936q32 11 40 -20l15 -62q8 -31 -25 -36l-196 -31q-29 -3 -39 23l-4 17q-9 30 20 40zM115 0q-32 0 -32 32v660q0 38 38 38h23q28 0 46 -22l380 -471q8 -10 15 -7.5t7 15.5v453q0 32 32 32h63q32 0 32 -32v-660q0 -38 -38 -38h-43q-28 0 -46 22l-360 437
q-8 10 -15 7.5t-7 -15.5v-419q0 -32 -32 -32h-63z" />
    <glyph glyph-name="nacute" unicode="&#x144;" horiz-adv-x="649" 
d="M396 764q29 18 43 -12l27 -57q14 -29 -17 -41l-185 -70q-29 -9 -43 15l-8 16q-14 27 12 43zM101 0q-32 0 -32 32v456q0 32 32 32h34q27 0 36 -25l2 -7q10 -30 38 -13q90 55 191 55q87 0 135 -55t48 -156v-287q0 -32 -31 -32h-75q-32 0 -32 32v281q0 44 -23.5 69.5
t-66.5 25.5q-57 0 -132 -47q-18 -11 -18 -34v-295q0 -32 -32 -32h-74z" />
    <glyph glyph-name="Ncommaaccent" unicode="&#x145;" horiz-adv-x="802" 
d="M115 0q-32 0 -32 32v660q0 38 38 38h23q28 0 46 -22l380 -471q8 -10 15 -7.5t7 15.5v453q0 32 32 32h63q32 0 32 -32v-660q0 -38 -38 -38h-43q-28 0 -46 22l-360 437q-8 10 -15 7.5t-7 -15.5v-419q0 -32 -32 -32h-63zM342 -62q3 29 33 29h58q17 0 24 -9.5t2 -26.5
l-47 -150q-8 -26 -36 -26h-29q-35 0 -29 34z" />
    <glyph glyph-name="ncommaaccent" unicode="&#x146;" horiz-adv-x="649" 
d="M101 0q-32 0 -32 32v456q0 32 32 32h34q27 0 36 -25l2 -7q10 -30 38 -13q90 55 191 55q87 0 135 -55t48 -156v-287q0 -32 -31 -32h-75q-32 0 -32 32v281q0 44 -23.5 69.5t-66.5 25.5q-57 0 -132 -47q-18 -11 -18 -34v-295q0 -32 -32 -32h-74zM268 -62q3 29 33 29h58
q17 0 24 -9.5t2 -26.5l-47 -150q-8 -26 -36 -26h-29q-35 0 -29 34z" />
    <glyph glyph-name="Ncaron" unicode="&#x147;" horiz-adv-x="802" 
d="M232 902l3 14q2 13 14.5 18.5t25.5 -0.5l109 -34q14 -4 27 0l109 34q14 5 26 0t15 -18l3 -14q5 -31 -15 -41l-115 -57q-37 -18 -73 0l-115 57q-21 10 -14 41zM115 0q-32 0 -32 32v660q0 38 38 38h23q28 0 46 -22l380 -471q8 -10 15 -7.5t7 15.5v453q0 32 32 32h63
q32 0 32 -32v-660q0 -38 -38 -38h-43q-28 0 -46 22l-360 437q-8 10 -15 7.5t-7 -15.5v-419q0 -32 -32 -32h-63z" />
    <glyph glyph-name="ncaron" unicode="&#x148;" horiz-adv-x="649" 
d="M171 702l3 14q2 13 13.5 18t25.5 0l106 -34q13 -4 27 0l106 34q14 5 25.5 0t14.5 -18l3 -14q5 -30 -15 -40l-112 -55q-36 -18 -71 0l-112 55q-21 10 -14 40zM101 0q-32 0 -32 32v456q0 32 32 32h34q27 0 36 -25l2 -7q10 -30 38 -13q90 55 191 55q87 0 135 -55t48 -156
v-287q0 -32 -31 -32h-75q-32 0 -32 32v281q0 44 -23.5 69.5t-66.5 25.5q-57 0 -132 -47q-18 -11 -18 -34v-295q0 -32 -32 -32h-74z" />
    <glyph glyph-name="napostrophe" unicode="&#x149;" horiz-adv-x="719" 
d="M-38 743q5 30 34 30h63q35 0 27 -36l-44 -188q-6 -28 -34 -28h-39q-34 0 -29 34zM101 0q-32 0 -32 32v456q0 32 32 32h34q27 0 36 -25l2 -7q10 -30 38 -13q90 55 191 55q87 0 135 -55t48 -156v-287q0 -32 -31 -32h-75q-32 0 -32 32v281q0 44 -23.5 69.5t-66.5 25.5
q-57 0 -132 -47q-18 -11 -18 -34v-295q0 -32 -32 -32h-74z" />
    <glyph glyph-name="Eng" unicode="&#x14a;" horiz-adv-x="801" 
d="M115 0q-32 0 -32 32v660q0 38 38 38h37q28 0 46 -21l360 -390q8 -10 15 -7t7 15v371q0 32 32 32h68q31 0 31 -32v-605q0 -135 -86 -216t-239 -89q-33 -2 -33 32v43q0 29 32 32q91 8 143 58t52 140v19q0 12 -9 22l-341 361q-8 9 -15 6.5t-7 -14.5v-455q0 -32 -32 -32h-67z
" />
    <glyph glyph-name="eng" unicode="&#x14b;" horiz-adv-x="649" 
d="M101 0q-32 0 -32 32v456q0 32 32 32h34q27 0 36 -25l3 -11q9 -27 33 -11q94 57 195 57q87 0 135 -55t48 -156v-363q0 -77 -42.5 -125t-110.5 -48q-25 0 -61 4q-30 5 -27 36l5 55q2 16 8 22t21 5h17q52 0 52 63v345q0 44 -23.5 69.5t-66.5 25.5q-59 0 -134 -49
q-16 -10 -16 -29v-298q0 -32 -32 -32h-74z" />
    <glyph glyph-name="Omacron" unicode="&#x14c;" horiz-adv-x="863" 
d="M275 870q0 32 32 32h248q32 0 32 -32v-37q0 -32 -32 -32h-248q-32 0 -32 32v37zM40 368q0 161 111 266.5t280 105.5t280.5 -105.5t111.5 -266.5q0 -164 -111 -271t-281 -107q-169 0 -280 107t-111 271zM188 368q0 -110 68 -180.5t175 -70.5q108 0 176 70.5t68 180.5
q0 108 -68 176.5t-176 68.5q-107 0 -175 -68.5t-68 -176.5z" />
    <glyph glyph-name="omacron" unicode="&#x14d;" horiz-adv-x="642" 
d="M163 673q0 32 32 32h248q32 0 32 -32v-37q0 -32 -32 -32h-248q-32 0 -32 32v37zM36 264q0 113 80.5 189.5t204.5 76.5t204 -76.5t80 -189.5q0 -117 -80 -195.5t-204 -78.5t-204.5 78.5t-80.5 195.5zM175 260q0 -65 41 -108.5t105 -43.5t105 43.5t41 108.5t-41 108.5
t-105 43.5t-105 -43.5t-41 -108.5z" />
    <glyph glyph-name="Ohungarumlaut" unicode="&#x150;" horiz-adv-x="863" 
d="M324 910q9 24 37 24h66q19 0 24.5 -11t-4.5 -27l-57 -89q-14 -21 -38 -21h-38q-18 0 -24.5 10t-0.5 26zM509 910q9 24 37 24h66q19 0 25 -11t-4 -27l-57 -89q-14 -21 -38 -21h-39q-18 0 -24.5 10t-0.5 26zM40 368q0 161 111 266.5t280 105.5t280.5 -105.5t111.5 -266.5
q0 -164 -111 -271t-281 -107q-169 0 -280 107t-111 271zM188 368q0 -110 68 -180.5t175 -70.5q108 0 176 70.5t68 180.5q0 108 -68 176.5t-176 68.5q-107 0 -175 -68.5t-68 -176.5z" />
    <glyph glyph-name="ohungarumlaut" unicode="&#x151;" horiz-adv-x="642" 
d="M204 713q9 24 37 24h66q19 0 24.5 -11t-4.5 -27l-57 -89q-14 -21 -38 -21h-38q-18 0 -24.5 10t-0.5 26zM389 713q9 24 37 24h66q19 0 25 -11t-4 -27l-57 -89q-14 -21 -38 -21h-39q-18 0 -24.5 10t-0.5 26zM36 264q0 113 80.5 189.5t204.5 76.5t204 -76.5t80 -189.5
q0 -117 -80 -195.5t-204 -78.5t-204.5 78.5t-80.5 195.5zM175 260q0 -65 41 -108.5t105 -43.5t105 43.5t41 108.5t-41 108.5t-105 43.5t-105 -43.5t-41 -108.5z" />
    <glyph glyph-name="OE" unicode="&#x152;" horiz-adv-x="1167" 
d="M839 304q-20 0 -20 -20v-145q0 -21 20 -21h238q32 0 32 -31v-55q0 -32 -32 -32h-368q-33 0 -33 33v34q-104 -77 -245 -77q-169 0 -280 107t-111 271q0 161 111 266.5t280 105.5q141 0 245 -76v33q0 33 33 33h352q32 0 32 -32v-55q0 -31 -32 -31h-222q-20 0 -20 -21v-148
q0 -21 20 -21h245q32 0 32 -32v-54q0 -32 -32 -32h-245zM431 117q108 0 176 70.5t68 180.5q0 108 -68 176.5t-176 68.5q-107 0 -175 -68.5t-68 -176.5q0 -110 68 -180.5t175 -70.5z" />
    <glyph glyph-name="oe" unicode="&#x153;" horiz-adv-x="1008" 
d="M36 264q0 113 80.5 189.5t204.5 76.5q108 0 182 -61q20 -17 39 0q74 61 179 61q104 0 179 -78t71 -197q-2 -33 -35 -33h-323q-15 0 -22 -8.5t-1 -22.5q16 -41 51 -65t80 -24q71 0 101 47q16 23 37 23h68q16 0 24.5 -10t3.5 -25q-22 -65 -84.5 -106t-149.5 -41
q-106 0 -177 66q-20 17 -39 1q-75 -67 -184 -67q-124 0 -204.5 78.5t-80.5 195.5zM596 344q-7 -15 0 -24t23 -9h184q15 0 22 8.5t2 22.5q-14 36 -42.5 56.5t-65.5 20.5q-39 0 -72.5 -20t-50.5 -55zM175 260q0 -65 41 -108.5t105 -43.5q43 0 79.5 19t52.5 52q8 17 5 37
q-4 20 -4 48q0 20 3 43q3 19 -6 36q-18 32 -53 50.5t-77 18.5q-64 0 -105 -43.5t-41 -108.5z" />
    <glyph glyph-name="Racute" unicode="&#x154;" horiz-adv-x="648" 
d="M384 936q32 11 40 -20l15 -62q8 -31 -25 -36l-196 -31q-29 -3 -39 23l-4 17q-9 30 20 40zM83 32v662q0 36 37 36h182q130 0 215 -68.5t85 -176.5q0 -81 -53 -140.5t-134 -78.5l-4 -1q-12 -4 -14.5 -12t6.5 -18l179 -195q14 -16 8.5 -28t-25.5 -12h-105q-24 0 -38 18
l-166 199q-10 12 -19.5 8.5t-9.5 -19.5v-174q0 -32 -31 -32h-81q-32 0 -32 32zM227 379q0 -18 18 -18h57q71 0 112 35t41 89q0 55 -41 90t-112 35h-57q-18 0 -18 -18v-213z" />
    <glyph glyph-name="racute" unicode="&#x155;" horiz-adv-x="429" 
d="M295 764q29 18 43 -12l27 -57q14 -29 -17 -41l-185 -70q-29 -9 -43 15l-8 16q-14 27 12 43zM101 0q-32 0 -32 32v456q0 32 32 32h32q26 0 36 -25l4 -11q11 -31 38 -12q85 58 156 58q17 0 25 -2q28 -4 25 -36l-8 -74q-3 -29 -36 -26q-22 2 -34 2q-51 0 -113 -43
q-19 -13 -19 -35v-284q0 -32 -31 -32h-75z" />
    <glyph glyph-name="Rcommaaccent" unicode="&#x156;" horiz-adv-x="648" 
d="M83 32v662q0 36 37 36h182q130 0 215 -68.5t85 -176.5q0 -81 -53 -140.5t-134 -78.5l-4 -1q-12 -4 -14.5 -12t6.5 -18l179 -195q14 -16 8.5 -28t-25.5 -12h-105q-24 0 -38 18l-166 199q-10 12 -19.5 8.5t-9.5 -19.5v-174q0 -32 -31 -32h-81q-32 0 -32 32zM227 379
q0 -18 18 -18h57q71 0 112 35t41 89q0 55 -41 90t-112 35h-57q-18 0 -18 -18v-213zM273 -62q3 29 33 29h58q17 0 24 -9.5t2 -26.5l-47 -150q-8 -26 -36 -26h-29q-35 0 -29 34z" />
    <glyph glyph-name="rcommaaccent" unicode="&#x157;" horiz-adv-x="429" 
d="M101 0q-32 0 -32 32v456q0 32 32 32h32q26 0 36 -25l4 -11q11 -31 38 -12q85 58 156 58q17 0 25 -2q28 -4 25 -36l-8 -74q-3 -29 -36 -26q-22 2 -34 2q-51 0 -113 -43q-19 -13 -19 -35v-284q0 -32 -31 -32h-75zM74 -62q3 29 33 29h58q17 0 24 -9.5t2 -26.5l-47 -150
q-8 -26 -36 -26h-29q-35 0 -29 34z" />
    <glyph glyph-name="Rcaron" unicode="&#x158;" horiz-adv-x="648" 
d="M133 902l3 14q2 13 14.5 18.5t25.5 -0.5l109 -34q13 -4 27 0l109 34q14 5 26 0t15 -18l3 -14q5 -31 -15 -41l-115 -57q-37 -18 -73 0l-115 57q-21 10 -14 41zM83 32v662q0 36 37 36h182q130 0 215 -68.5t85 -176.5q0 -81 -53 -140.5t-134 -78.5l-4 -1q-12 -4 -14.5 -12
t6.5 -18l179 -195q14 -16 8.5 -28t-25.5 -12h-105q-24 0 -38 18l-166 199q-10 12 -19.5 8.5t-9.5 -19.5v-174q0 -32 -31 -32h-81q-32 0 -32 32zM227 379q0 -18 18 -18h57q71 0 112 35t41 89q0 55 -41 90t-112 35h-57q-18 0 -18 -18v-213z" />
    <glyph glyph-name="rcaron" unicode="&#x159;" horiz-adv-x="429" 
d="M70 702l3 14q2 13 13.5 18t25.5 0l106 -34q14 -4 27 0l106 34q14 5 25.5 0t14.5 -18l3 -14q5 -30 -15 -40l-112 -55q-35 -18 -71 0l-112 55q-21 10 -14 40zM101 0q-32 0 -32 32v456q0 32 32 32h32q26 0 36 -25l4 -11q11 -31 38 -12q85 58 156 58q17 0 25 -2q28 -4 25 -36
l-8 -74q-3 -29 -36 -26q-22 2 -34 2q-51 0 -113 -43q-19 -13 -19 -35v-284q0 -32 -31 -32h-75z" />
    <glyph glyph-name="Sacute" unicode="&#x15a;" horiz-adv-x="635" 
d="M404 936q32 11 40 -20l15 -62q8 -31 -25 -36l-196 -31q-29 -3 -39 23l-4 17q-9 30 20 40zM34 192q-5 16 2.5 25.5t24.5 9.5h82q25 0 36 -25q40 -85 145 -85q55 0 89 21.5t34 56.5q0 34 -28.5 58t-71 36t-92 30.5t-92 40.5t-71 67t-28.5 108q0 92 70.5 148.5t181.5 56.5
q102 0 169.5 -52.5t91.5 -138.5q4 -16 -4 -25.5t-25 -9.5h-78q-25 0 -37 25q-34 74 -117 74q-48 0 -78 -21t-30 -57q0 -26 16.5 -46t43.5 -32t61.5 -24.5t71 -23.5t71 -29t61.5 -40.5t43.5 -59t16.5 -82.5q0 -95 -78.5 -151.5t-190.5 -56.5q-108 0 -183 53t-107 149z" />
    <glyph glyph-name="sacute" unicode="&#x15b;" horiz-adv-x="548" 
d="M332 764q29 18 43 -12l27 -57q14 -29 -17 -41l-185 -70q-29 -9 -43 15l-8 16q-14 27 12 43zM54 374q0 70 58 113t163 43q94 0 150.5 -41.5t72.5 -113.5q4 -15 -4.5 -24t-25.5 -9h-64q-24 0 -35 28q-19 52 -96 52q-40 0 -62 -12t-22 -33q0 -26 33 -41t80 -24t94.5 -23
t80.5 -49t33 -91q0 -75 -62 -117t-164 -42q-100 0 -166.5 42t-82.5 118q-4 16 4.5 25t24.5 9h68q24 0 35 -26q28 -60 120 -60q88 0 88 50q0 26 -33.5 41t-80.5 23.5t-94 22t-80 48.5t-33 91z" />
    <glyph glyph-name="Scedilla" unicode="&#x15e;" horiz-adv-x="635" 
d="M362 -8l-2 -8q-4 -18 16 -21q33 -6 53.5 -27t20.5 -57q0 -47 -37.5 -73t-94.5 -26q-50 0 -86 19q-22 12 -9 37l3 8q10 21 37 13q18 -7 43 -7q40 0 40 28q0 29 -40 29h-16q-14 0 -20.5 9t-2.5 23l17 53q-92 10 -156.5 62t-93.5 138q-5 16 2.5 25.5t24.5 9.5h82
q25 0 36 -25q40 -85 145 -85q55 0 89 21.5t34 56.5q0 34 -28.5 58t-71 36t-92 30.5t-92 40.5t-71 67t-28.5 108q0 92 70.5 148.5t181.5 56.5q102 0 169.5 -52.5t91.5 -138.5q4 -16 -4 -25.5t-25 -9.5h-78q-25 0 -37 25q-34 74 -117 74q-48 0 -78 -21t-30 -57q0 -26 16.5 -46
t43.5 -32t61.5 -24.5t71 -23.5t71 -29t61.5 -40.5t43.5 -59t16.5 -82.5q0 -86 -66 -141.5t-165 -64.5z" />
    <glyph glyph-name="scedilla" unicode="&#x15f;" horiz-adv-x="548" 
d="M306 -9l-2 -7q-4 -18 16 -21q33 -6 53.5 -27t20.5 -57q0 -47 -37.5 -73t-94.5 -26q-50 0 -86 19q-22 12 -9 37l3 8q10 21 37 13q18 -7 43 -7q40 0 40 28q0 29 -40 29h-16q-14 0 -20.5 9t-2.5 23l17 55q-78 11 -129 51t-64 105q-4 16 4.5 25t24.5 9h68q24 0 35 -26
q28 -60 120 -60q88 0 88 50q0 26 -33.5 41t-80.5 23.5t-94 22t-80 48.5t-33 91q0 70 58 113t163 43q94 0 150.5 -41.5t72.5 -113.5q4 -15 -4.5 -24t-25.5 -9h-64q-24 0 -35 28q-19 52 -96 52q-40 0 -62 -12t-22 -33q0 -26 33 -41t80 -24t94.5 -23t80.5 -49t33 -91
q0 -71 -55.5 -112.5t-148.5 -45.5z" />
    <glyph glyph-name="Scaron" unicode="&#x160;" horiz-adv-x="635" 
d="M153 902l3 14q2 13 14.5 18.5t25.5 -0.5l109 -34q13 -4 27 0l109 34q14 5 26 0t15 -18l3 -14q5 -31 -15 -41l-115 -57q-37 -18 -73 0l-115 57q-21 10 -14 41zM34 192q-5 16 2.5 25.5t24.5 9.5h82q25 0 36 -25q40 -85 145 -85q55 0 89 21.5t34 56.5q0 34 -28.5 58t-71 36
t-92 30.5t-92 40.5t-71 67t-28.5 108q0 92 70.5 148.5t181.5 56.5q102 0 169.5 -52.5t91.5 -138.5q4 -16 -4 -25.5t-25 -9.5h-78q-25 0 -37 25q-34 74 -117 74q-48 0 -78 -21t-30 -57q0 -26 16.5 -46t43.5 -32t61.5 -24.5t71 -23.5t71 -29t61.5 -40.5t43.5 -59t16.5 -82.5
q0 -95 -78.5 -151.5t-190.5 -56.5q-108 0 -183 53t-107 149z" />
    <glyph glyph-name="scaron" unicode="&#x161;" horiz-adv-x="548" 
d="M107 702l3 14q2 13 13.5 18t25.5 0l106 -34q13 -4 27 0l106 34q14 5 25.5 0t14.5 -18l3 -14q5 -30 -15 -40l-112 -55q-36 -18 -71 0l-112 55q-21 10 -14 40zM54 374q0 70 58 113t163 43q94 0 150.5 -41.5t72.5 -113.5q4 -15 -4.5 -24t-25.5 -9h-64q-24 0 -35 28
q-19 52 -96 52q-40 0 -62 -12t-22 -33q0 -26 33 -41t80 -24t94.5 -23t80.5 -49t33 -91q0 -75 -62 -117t-164 -42q-100 0 -166.5 42t-82.5 118q-4 16 4.5 25t24.5 9h68q24 0 35 -26q28 -60 120 -60q88 0 88 50q0 26 -33.5 41t-80.5 23.5t-94 22t-80 48.5t-33 91z" />
    <glyph glyph-name="uni0162" unicode="&#x162;" horiz-adv-x="588" 
d="M540 730q31 0 31 -32v-61q0 -32 -31 -32h-155q-20 0 -20 -20v-553q0 -32 -32 -32h-12l-4 -16q-4 -18 16 -21q33 -6 53.5 -27t20.5 -57q0 -47 -37.5 -73t-94.5 -26q-50 0 -86 19q-22 12 -9 37l3 8q10 21 37 13q18 -7 43 -7q40 0 40 28q0 29 -40 29h-16q-14 0 -20.5 9
t-2.5 23l19 61q-29 2 -29 32v553q0 20 -20 20h-146q-32 0 -32 32v61q0 32 32 32h492z" />
    <glyph glyph-name="uni0163" unicode="&#x163;" horiz-adv-x="436" 
d="M412 45q3 -29 -25 -38q-48 -14 -104 -17l-2 -6q-4 -18 16 -21q33 -6 53.5 -27t20.5 -57q0 -47 -37.5 -73t-94.5 -26q-50 0 -86 19q-22 12 -9 37l3 8q10 21 37 13q18 -7 43 -7q40 0 40 28q0 29 -40 29h-16q-14 0 -20.5 9t-2.5 23l18 59q-109 29 -109 175v218q0 12 -11 12
h-28q-31 0 -31 32v53q0 32 31 32h33q11 0 11 11v75q0 29 27 35l71 18q16 4 26 -3.5t10 -23.5v-101q0 -11 11 -11h128q32 0 32 -32v-53q0 -32 -32 -32h-128q-11 0 -11 -12v-215q0 -64 55 -64q39 0 77 11q35 8 38 -26z" />
    <glyph glyph-name="Tcaron" unicode="&#x164;" horiz-adv-x="588" 
d="M121 902l3 14q2 13 14.5 18.5t25.5 -0.5l109 -34q13 -4 27 0l109 34q14 5 26 0t15 -18l3 -14q5 -31 -15 -41l-115 -57q-37 -18 -73 0l-115 57q-21 10 -14 41zM48 605q-32 0 -32 32v61q0 32 32 32h492q31 0 31 -32v-61q0 -32 -31 -32h-155q-20 0 -20 -20v-553
q0 -32 -32 -32h-87q-32 0 -32 32v553q0 20 -20 20h-146z" />
    <glyph glyph-name="tcaron" unicode="&#x165;" horiz-adv-x="436" 
d="M358 586q29 0 34 29l32 173q6 35 -28 35h-52q-30 0 -33 -30l-17 -173q-3 -34 30 -34h34zM58 403q-31 0 -31 32v53q0 32 31 32h33q11 0 11 11v75q0 29 27 35l71 18q16 4 26 -3.5t10 -23.5v-101q0 -11 11 -11h128q32 0 32 -32v-53q0 -32 -32 -32h-128q-11 0 -11 -12v-215
q0 -64 55 -64q39 0 77 11q35 8 38 -26l6 -52q3 -29 -25 -38q-61 -17 -122 -17q-75 0 -121.5 43.5t-46.5 139.5v218q0 12 -11 12h-28z" />
    <glyph glyph-name="Tbar" unicode="&#x166;" horiz-adv-x="588" 
d="M540 730q31 0 31 -32v-61q0 -32 -31 -32h-155q-20 0 -20 -20v-163h84q34 0 34 -32v-43q0 -32 -34 -32h-84v-283q0 -32 -32 -32h-87q-32 0 -32 32v283h-83q-35 0 -35 32v43q0 32 35 32h83v163q0 20 -20 20h-146q-32 0 -32 32v61q0 32 32 32h492z" />
    <glyph glyph-name="tbar" unicode="&#x167;" horiz-adv-x="436" 
d="M412 45q3 -29 -25 -38q-61 -17 -122 -17q-75 0 -121.5 43.5t-46.5 139.5v51h-35q-32 0 -32 32v43q0 32 32 32h35v60q0 12 -11 12h-28q-31 0 -31 32v53q0 32 31 32h33q11 0 11 11v75q0 29 27 35l71 18q16 4 26 -3.5t10 -23.5v-101q0 -11 11 -11h128q32 0 32 -32v-53
q0 -32 -32 -32h-128q-11 0 -11 -12v-60h121q32 0 32 -32v-43q0 -32 -32 -32h-121v-48q0 -64 55 -64q39 0 77 11q35 8 38 -26z" />
    <glyph glyph-name="Utilde" unicode="&#x168;" horiz-adv-x="777" 
d="M545 905q29 -5 26 -36q-6 -38 -35 -60t-68 -22q-33 0 -73.5 17.5t-51.5 17.5q-19 0 -31 -16q-10 -17 -35 -13l-32 6q-31 6 -26 37q7 40 33.5 63t63.5 22q28 -1 74.5 -18.5t59.5 -17.5q21 0 32 15q7 15 32 11zM74 308v390q0 32 32 32h83q32 0 32 -32v-399q0 -81 48 -129.5
t120 -48.5q71 0 119 48.5t48 129.5v399q0 32 32 32h84q31 0 31 -32v-390q0 -140 -88.5 -229t-225.5 -89q-136 0 -225.5 89t-89.5 229z" />
    <glyph glyph-name="utilde" unicode="&#x169;" horiz-adv-x="628" 
d="M462 695q29 -5 26 -36q-6 -38 -35 -60t-68 -22q-33 0 -73.5 17.5t-51.5 17.5q-19 0 -31 -16q-10 -17 -35 -13l-32 6q-31 6 -26 37q7 40 33.5 63t63.5 22q28 -1 74.5 -18.5t59.5 -17.5q21 0 32 15q7 15 32 11zM64 201v287q0 32 32 32h75q31 0 31 -32v-281q0 -45 21 -70
t61 -25q48 0 118 39q20 10 20 33v304q0 32 31 32h75q31 0 31 -32v-456q0 -32 -31 -32h-31q-27 0 -37 25l-2 5q-10 29 -37 13q-90 -53 -182 -53q-81 0 -128 55.5t-47 155.5z" />
    <glyph glyph-name="Umacron" unicode="&#x16a;" horiz-adv-x="777" 
d="M235 870q0 32 32 32h248q32 0 32 -32v-37q0 -32 -32 -32h-248q-32 0 -32 32v37zM74 308v390q0 32 32 32h83q32 0 32 -32v-399q0 -81 48 -129.5t120 -48.5q71 0 119 48.5t48 129.5v399q0 32 32 32h84q31 0 31 -32v-390q0 -140 -88.5 -229t-225.5 -89q-136 0 -225.5 89
t-89.5 229z" />
    <glyph glyph-name="umacron" unicode="&#x16b;" horiz-adv-x="628" 
d="M158 673q0 32 32 32h248q32 0 32 -32v-37q0 -32 -32 -32h-248q-32 0 -32 32v37zM64 201v287q0 32 32 32h75q31 0 31 -32v-281q0 -45 21 -70t61 -25q48 0 118 39q20 10 20 33v304q0 32 31 32h75q31 0 31 -32v-456q0 -32 -31 -32h-31q-27 0 -37 25l-2 5q-10 29 -37 13
q-90 -53 -182 -53q-81 0 -128 55.5t-47 155.5z" />
    <glyph glyph-name="Uring" unicode="&#x16e;" horiz-adv-x="777" 
d="M390 759q-59 0 -92.5 32t-33.5 79t34 79t92 32q59 0 93 -32t34 -79t-34 -79t-93 -32zM390 831q19 0 31 11t12 28t-12 29t-31 12t-30.5 -12t-10.5 -29q-1 -17 10.5 -28t30.5 -11zM74 308v390q0 32 32 32h83q32 0 32 -32v-399q0 -81 48 -129.5t120 -48.5q71 0 119 48.5
t48 129.5v399q0 32 32 32h84q31 0 31 -32v-390q0 -140 -88.5 -229t-225.5 -89q-136 0 -225.5 89t-89.5 229z" />
    <glyph glyph-name="uring" unicode="&#x16f;" horiz-adv-x="628" 
d="M313 570q-59 0 -92.5 32t-33.5 79t34 79t92 32q59 0 93 -32t34 -79t-34 -79t-93 -32zM313 642q19 0 31 11t12 28t-12 29t-31 12t-30.5 -12t-10.5 -29q-1 -17 10.5 -28t30.5 -11zM64 201v287q0 32 32 32h75q31 0 31 -32v-281q0 -45 21 -70t61 -25q48 0 118 39q20 10 20 33
v304q0 32 31 32h75q31 0 31 -32v-456q0 -32 -31 -32h-31q-27 0 -37 25l-2 5q-10 29 -37 13q-90 -53 -182 -53q-81 0 -128 55.5t-47 155.5z" />
    <glyph glyph-name="Uhungarumlaut" unicode="&#x170;" horiz-adv-x="777" 
d="M284 910q9 24 37 24h66q19 0 24.5 -11t-4.5 -27l-57 -89q-14 -21 -38 -21h-38q-18 0 -24.5 10t-0.5 26zM469 910q9 24 37 24h66q19 0 25 -11t-4 -27l-57 -89q-14 -21 -38 -21h-39q-18 0 -24.5 10t-0.5 26zM74 308v390q0 32 32 32h83q32 0 32 -32v-399q0 -81 48 -129.5
t120 -48.5q71 0 119 48.5t48 129.5v399q0 32 32 32h84q31 0 31 -32v-390q0 -140 -88.5 -229t-225.5 -89q-136 0 -225.5 89t-89.5 229z" />
    <glyph glyph-name="uhungarumlaut" unicode="&#x171;" horiz-adv-x="628" 
d="M199 713q9 24 37 24h66q19 0 24.5 -11t-4.5 -27l-57 -89q-13 -21 -38 -21h-38q-18 0 -24.5 10t-0.5 26zM384 713q9 24 37 24h66q19 0 25 -11t-4 -27l-57 -89q-13 -21 -38 -21h-39q-18 0 -24.5 10t-0.5 26zM64 201v287q0 32 32 32h75q31 0 31 -32v-281q0 -45 21 -70
t61 -25q48 0 118 39q20 10 20 33v304q0 32 31 32h75q31 0 31 -32v-456q0 -32 -31 -32h-31q-27 0 -37 25l-2 5q-10 29 -37 13q-90 -53 -182 -53q-81 0 -128 55.5t-47 155.5z" />
    <glyph glyph-name="Uogonek" unicode="&#x172;" horiz-adv-x="777" 
d="M672 730q31 0 31 -32v-390q0 -118 -65 -202t-171 -108q-72 -46 -72 -104q0 -17 10.5 -27t26.5 -10q7 0 23 2q21 3 21 -17v-35q0 -17 -16 -21q-25 -6 -52 -6q-51 0 -83.5 27.5t-32.5 79.5q0 62 65 104q-125 11 -204 98t-79 219v390q0 32 32 32h83q32 0 32 -32v-399
q0 -81 48 -129.5t120 -48.5q71 0 119 48.5t48 129.5v399q0 32 32 32h84z" />
    <glyph glyph-name="uogonek" unicode="&#x173;" horiz-adv-x="628" 
d="M559 32q0 -22 -15 -29q-74 -47 -74 -106q0 -17 10.5 -27t26.5 -10q7 0 23 2q21 3 21 -17v-35q0 -17 -16 -21q-25 -6 -52 -6q-51 0 -83.5 27.5t-32.5 79.5q0 77 100 123q-4 4 -7 12l-2 5q-10 29 -37 13q-90 -53 -182 -53q-81 0 -128 55.5t-47 155.5v287q0 32 32 32h75
q31 0 31 -32v-281q0 -45 21 -70t61 -25q48 0 118 39q20 10 20 33v304q0 32 31 32h75q31 0 31 -32v-456z" />
    <glyph glyph-name="Wcircumflex" unicode="&#x174;" horiz-adv-x="981" 
d="M317 822q-14 29 12 42l138 74q29 15 57 1l144 -75q28 -12 13 -42l-10 -19q-12 -25 -40 -16l-107 37q-27 9 -55 0l-102 -36q-29 -10 -41 15zM16 695q-4 16 3 25.5t24 9.5h82q29 0 36 -28l105 -447q2 -11 8 -15.5t12 -0.5t9 15l131 451q7 25 34 25h64q28 0 34 -26l131 -456
q3 -11 9 -15t12 0t9 16l108 453q8 28 35 28h72q35 0 27 -35l-182 -669q-6 -26 -33 -26h-75q-27 0 -34 26l-129 463q-3 11 -9 15.5t-12 0t-9 -15.5l-132 -464q-7 -25 -34 -25h-73q-27 0 -34 26z" />
    <glyph glyph-name="wcircumflex" unicode="&#x175;" horiz-adv-x="805" 
d="M230 638q-13 28 12 41l133 71q28 15 55 1l140 -72q27 -13 12 -41l-9 -18q-12 -26 -39 -16l-104 36q-25 9 -53 0l-98 -35q-28 -10 -40 15zM20 485q-4 16 3 25.5t24 9.5h71q29 0 35 -28l69 -300q3 -14 11 -14t12 13l93 307q7 25 33 25h65q26 0 33 -25l92 -312q3 -9 8 -11.5
t9.5 1t6.5 11.5l69 305q6 28 35 28h69q37 0 27 -35l-130 -459q-7 -26 -33 -26h-96q-26 0 -34 26l-79 277q-2 9 -6.5 12t-9.5 0t-7 -12l-87 -278q-7 -25 -33 -25h-87q-27 0 -34 26z" />
    <glyph glyph-name="Ycircumflex" unicode="&#x176;" horiz-adv-x="651" 
d="M150 822q-14 29 12 42l138 74q29 15 57 1l144 -75q28 -12 13 -42l-10 -19q-12 -25 -40 -16l-107 37q-27 9 -55 0l-102 -36q-29 -10 -41 15zM14 692q-10 17 -3.5 27.5t25.5 10.5h93q26 0 38 -23l146 -287q6 -11 14.5 -11t14.5 11l146 287q12 23 38 23h81q19 0 25.5 -10.5
t-2.5 -27.5l-225 -409q-7 -14 -7 -27v-223q0 -33 -33 -33h-75q-33 0 -33 33v222q0 14 -7 28z" />
    <glyph glyph-name="ycircumflex" unicode="&#x177;" horiz-adv-x="571" 
d="M113 638q-13 28 12 41l133 71q28 15 55 1l140 -72q27 -13 12 -41l-9 -18q-12 -26 -39 -16l-104 36q-25 9 -53 0l-98 -35q-28 -10 -40 15zM18 484q-6 16 1 26t24 10h87q28 0 37 -26l109 -338q2 -9 7 -12t10 0t8 12l107 338q7 26 36 26h84q17 0 24 -10t1 -26l-201 -533
q-32 -87 -84 -128t-136 -41q-38 0 -73 9q-28 6 -25 37l6 47q4 31 36 27q24 -5 64 -5q67 0 100 86l7 17h-21q-22 0 -30 21z" />
    <glyph glyph-name="Ydieresis" unicode="&#x178;" horiz-adv-x="651" 
d="M212 764q-35 0 -58.5 24.5t-23.5 61.5q0 33 24 57t58 24t59 -24t25 -57q0 -36 -25 -61t-59 -25zM446 764q-34 0 -58.5 25t-24.5 61q0 33 25 57t58 24q35 0 60 -24t25 -57q0 -36 -24.5 -61t-60.5 -25zM14 692q-10 17 -3.5 27.5t25.5 10.5h93q26 0 38 -23l146 -287
q6 -11 14.5 -11t14.5 11l146 287q12 23 38 23h81q19 0 25.5 -10.5t-2.5 -27.5l-225 -409q-7 -14 -7 -27v-223q0 -33 -33 -33h-75q-33 0 -33 33v222q0 14 -7 28z" />
    <glyph glyph-name="Zacute" unicode="&#x179;" horiz-adv-x="657" 
d="M416 936q32 11 40 -20l15 -62q8 -31 -25 -36l-196 -31q-29 -3 -39 23l-4 17q-9 30 20 40zM57 0q-35 0 -35 32v9q0 22 14 42l365 498q8 13 4 21.5t-19 8.5h-314q-32 0 -32 31v56q0 32 32 32h515q35 0 35 -31v-7q0 -21 -14 -43l-368 -501q-9 -12 -4.5 -20.5t19.5 -8.5h343
q31 0 31 -32v-55q0 -32 -31 -32h-541z" />
    <glyph glyph-name="zacute" unicode="&#x17a;" horiz-adv-x="527" 
d="M331 764q29 18 43 -12l27 -57q14 -29 -17 -41l-185 -70q-29 -9 -43 15l-8 16q-14 27 12 43zM26 44q0 20 13 34l260 307q7 8 4.5 14.5t-13.5 6.5h-219q-32 0 -32 32v50q0 32 32 32h381q28 0 28 -28v-48q0 -20 -13 -34l-230 -275q-7 -8 -4 -14.5t14 -6.5h219q31 0 31 -32
v-50q0 -32 -31 -32h-411q-27 0 -29 28v16z" />
    <glyph glyph-name="Zdotaccent" unicode="&#x17b;" horiz-adv-x="657" 
d="M330 774q-39 0 -65.5 27.5t-26.5 66.5q0 38 26.5 64.5t65.5 26.5q38 0 65.5 -27t27.5 -64q0 -39 -27.5 -66.5t-65.5 -27.5zM57 0q-35 0 -35 32v9q0 22 14 42l365 498q8 13 4 21.5t-19 8.5h-314q-32 0 -32 31v56q0 32 32 32h515q35 0 35 -31v-7q0 -21 -14 -43l-368 -501
q-9 -12 -4.5 -20.5t19.5 -8.5h343q31 0 31 -32v-55q0 -32 -31 -32h-541z" />
    <glyph glyph-name="zdotaccent" unicode="&#x17c;" horiz-adv-x="527" 
d="M267 588q-39 0 -65.5 27.5t-26.5 66.5q0 38 26.5 64.5t65.5 26.5q38 0 65.5 -27t27.5 -64q0 -39 -27.5 -66.5t-65.5 -27.5zM26 44q0 20 13 34l260 307q7 8 4.5 14.5t-13.5 6.5h-219q-32 0 -32 32v50q0 32 32 32h381q28 0 28 -28v-48q0 -20 -13 -34l-230 -275
q-7 -8 -4 -14.5t14 -6.5h219q31 0 31 -32v-50q0 -32 -31 -32h-411q-27 0 -29 28v16z" />
    <glyph glyph-name="Zcaron" unicode="&#x17d;" horiz-adv-x="657" 
d="M165 902l3 14q2 13 14.5 18.5t25.5 -0.5l109 -34q13 -4 27 0l109 34q14 5 26 0t15 -18l3 -14q5 -31 -15 -41l-115 -57q-37 -18 -73 0l-115 57q-21 10 -14 41zM57 0q-35 0 -35 32v9q0 22 14 42l365 498q8 13 4 21.5t-19 8.5h-314q-32 0 -32 31v56q0 32 32 32h515
q35 0 35 -31v-7q0 -21 -14 -43l-368 -501q-9 -12 -4.5 -20.5t19.5 -8.5h343q31 0 31 -32v-55q0 -32 -31 -32h-541z" />
    <glyph glyph-name="zcaron" unicode="&#x17e;" horiz-adv-x="527" 
d="M106 702l3 14q2 13 13.5 18t25.5 0l106 -34q14 -4 27 0l106 34q14 5 25.5 0t14.5 -18l3 -14q5 -30 -15 -40l-112 -55q-35 -18 -71 0l-112 55q-21 10 -14 40zM26 44q0 20 13 34l260 307q7 8 4.5 14.5t-13.5 6.5h-219q-32 0 -32 32v50q0 32 32 32h381q28 0 28 -28v-48
q0 -20 -13 -34l-230 -275q-7 -8 -4 -14.5t14 -6.5h219q31 0 31 -32v-50q0 -32 -31 -32h-411q-27 0 -29 28v16z" />
    <glyph glyph-name="uni01EA" unicode="&#x1ea;" horiz-adv-x="863" 
d="M510 -3q-69 -46 -69 -103q0 -17 10.5 -27t26.5 -10q7 0 23 2q21 3 21 -17v-35q0 -17 -16 -21q-26 -6 -52 -6q-51 0 -83.5 27.5t-32.5 79.5q0 62 65 104q-159 10 -261 115t-102 262q0 161 111 266.5t280 105.5t280.5 -105.5t111.5 -266.5q0 -144 -86.5 -245.5
t-226.5 -125.5zM188 368q0 -110 68 -180.5t175 -70.5q108 0 176 70.5t68 180.5q0 108 -68 176.5t-176 68.5q-107 0 -175 -68.5t-68 -176.5z" />
    <glyph glyph-name="uni01EB" unicode="&#x1eb;" horiz-adv-x="642" 
d="M391 -3q-70 -46 -70 -103q0 -17 10.5 -27t26.5 -10q7 0 23 2q21 3 21 -17v-35q0 -17 -16 -21q-26 -6 -52 -6q-51 0 -83.5 27.5t-32.5 79.5q0 63 66 105q-110 12 -179 88.5t-69 183.5q0 113 80.5 189.5t204.5 76.5t204 -76.5t80 -189.5q0 -98 -58.5 -171.5t-155.5 -95.5z
M175 260q0 -65 41 -108.5t105 -43.5t105 43.5t41 108.5t-41 108.5t-105 43.5t-105 -43.5t-41 -108.5z" />
    <glyph glyph-name="AEacute" unicode="&#x1fc;" horiz-adv-x="950" 
d="M684 936q32 11 40 -20l15 -62q8 -31 -25 -36l-196 -31q-29 -3 -39 23l-4 17q-9 30 20 40zM16 0q-19 0 -25 11t3 27l379 669q13 23 40 23h431q31 0 31 -32v-54q0 -32 -31 -32h-224q-18 0 -18 -18v-153q0 -18 18 -18h247q31 0 31 -32v-54q0 -32 -31 -32h-247q-18 0 -18 -18
v-151q0 -18 18 -18h240q32 0 32 -31v-55q0 -32 -32 -32h-367q-34 0 -34 33v96q0 18 -18 18h-224q-15 0 -21 -13l-62 -112q-13 -22 -38 -22h-80zM281 292q-5 -9 -1 -15.5t14 -6.5h147q18 0 18 18v282q0 13 -7.5 15t-13.5 -10z" />
    <glyph glyph-name="aeacute" unicode="&#x1fd;" horiz-adv-x="935" 
d="M527 764q29 18 43 -12l27 -57q14 -29 -17 -41l-185 -70q-29 -9 -43 15l-8 16q-14 27 12 43zM35 130q0 75 60.5 117t161.5 42l91 -1q26 0 26 21v5q0 46 -28 72.5t-72 26.5q-33 0 -57.5 -15.5t-34.5 -39.5q-11 -28 -34 -28h-64q-16 0 -24.5 9.5t-5.5 26.5q17 77 80.5 120.5
t145.5 43.5q97 0 155 -52q21 -18 42 -2q73 54 170 54q104 0 179 -76.5t72 -194.5q-2 -37 -38 -37h-317q-14 0 -20.5 -8t-2.5 -21q15 -42 48.5 -66t78.5 -24q73 0 102 46q16 23 37 23h67q17 0 25.5 -10t3.5 -25q-23 -65 -85.5 -106t-149.5 -41q-105 0 -182 67q-21 18 -43 2
q-92 -69 -202 -69q-86 0 -135.5 41t-49.5 99zM527 340q-7 -13 -0.5 -21.5t20.5 -8.5h186q14 0 20.5 8.5t1.5 22.5q-13 35 -42.5 56t-67.5 21t-70 -21t-48 -57zM174 149q0 -23 19.5 -36t48.5 -13q75 0 140 50q12 9 7 21q0 1 -3 9t-4 13q-3 9 -17 9h-105q-86 0 -86 -53z" />
    <glyph glyph-name="Oslashacute" unicode="&#x1fe;" horiz-adv-x="863" 
d="M313 810l-4 17q-9 30 20 40l189 69q32 11 40 -20l15 -62q8 -31 -25 -36l-196 -31q-29 -3 -39 23zM724 622q99 -104 99 -254q0 -164 -111 -271t-281 -107q-134 0 -234 69l-46 -49q-21 -24 -46 -2l-17 16q-22 22 -2 46l45 48q-91 104 -91 250q0 161 111 266.5t280 105.5
q126 0 223 -61l33 35q21 24 45 2l19 -18q23 -21 2 -45zM188 368q0 -84 40 -146l334 358q-58 33 -131 33q-107 0 -175 -68.5t-68 -176.5zM431 117q108 0 176 70.5t68 180.5q0 88 -47 152l-338 -361q61 -42 141 -42z" />
    <glyph glyph-name="oslashacute" unicode="&#x1ff;" horiz-adv-x="642" 
d="M217 599l-8 16q-14 27 12 43l171 106q29 18 43 -12l27 -57q14 -29 -17 -41l-185 -70q-29 -9 -43 15zM541 437q64 -73 64 -173q0 -117 -80 -195.5t-204 -78.5q-95 0 -168 49l-31 -31q-20 -21 -42 -1l-8 8q-23 20 -2 42l29 30q-63 74 -63 177q0 113 80.5 189.5t204.5 76.5
q93 0 164 -46l27 28q21 21 42 0l9 -8q22 -22 2 -43zM175 260q0 -43 18 -76l203 208q-34 20 -75 20q-64 0 -105 -43.5t-41 -108.5zM321 108q64 0 105 43.5t41 108.5q0 45 -20 80l-206 -210q36 -22 80 -22z" />
    <glyph glyph-name="Scommaaccent" unicode="&#x218;" horiz-adv-x="635" 
d="M34 192q-5 16 2.5 25.5t24.5 9.5h82q25 0 36 -25q40 -85 145 -85q55 0 89 21.5t34 56.5q0 34 -28.5 58t-71 36t-92 30.5t-92 40.5t-71 67t-28.5 108q0 92 70.5 148.5t181.5 56.5q102 0 169.5 -52.5t91.5 -138.5q4 -16 -4 -25.5t-25 -9.5h-78q-25 0 -37 25q-34 74 -117 74
q-48 0 -78 -21t-30 -57q0 -26 16.5 -46t43.5 -32t61.5 -24.5t71 -23.5t71 -29t61.5 -40.5t43.5 -59t16.5 -82.5q0 -95 -78.5 -151.5t-190.5 -56.5q-108 0 -183 53t-107 149zM270 -62q3 29 33 29h58q17 0 24 -9.5t2 -26.5l-47 -150q-8 -26 -36 -26h-29q-35 0 -29 34z" />
    <glyph glyph-name="scommaaccent" unicode="&#x219;" horiz-adv-x="548" 
d="M54 374q0 70 58 113t163 43q94 0 150.5 -41.5t72.5 -113.5q4 -15 -4.5 -24t-25.5 -9h-64q-24 0 -35 28q-19 52 -96 52q-40 0 -62 -12t-22 -33q0 -26 33 -41t80 -24t94.5 -23t80.5 -49t33 -91q0 -75 -62 -117t-164 -42q-100 0 -166.5 42t-82.5 118q-4 16 4.5 25t24.5 9h68
q24 0 35 -26q28 -60 120 -60q88 0 88 50q0 26 -33.5 41t-80.5 23.5t-94 22t-80 48.5t-33 91zM214 -62q3 29 33 29h58q17 0 24 -9.5t2 -26.5l-47 -150q-8 -26 -36 -26h-29q-35 0 -29 34z" />
    <glyph glyph-name="uni021A" unicode="&#x21a;" horiz-adv-x="588" 
d="M48 605q-32 0 -32 32v61q0 32 32 32h492q31 0 31 -32v-61q0 -32 -31 -32h-155q-20 0 -20 -20v-553q0 -32 -32 -32h-87q-32 0 -32 32v553q0 20 -20 20h-146zM227 -62q3 29 33 29h58q17 0 24 -9.5t2 -26.5l-47 -150q-8 -26 -36 -26h-29q-35 0 -29 34z" />
    <glyph glyph-name="uni021B" unicode="&#x21b;" horiz-adv-x="436" 
d="M58 403q-31 0 -31 32v53q0 32 31 32h33q11 0 11 11v75q0 29 27 35l71 18q16 4 26 -3.5t10 -23.5v-101q0 -11 11 -11h128q32 0 32 -32v-53q0 -32 -32 -32h-128q-11 0 -11 -12v-215q0 -64 55 -64q39 0 77 11q35 8 38 -26l6 -52q3 -29 -25 -38q-61 -17 -122 -17
q-75 0 -121.5 43.5t-46.5 139.5v218q0 12 -11 12h-28zM191 -62q3 29 33 29h58q17 0 24 -9.5t2 -26.5l-47 -150q-8 -26 -36 -26h-29q-35 0 -29 34z" />
    <glyph glyph-name="uni0237" unicode="&#x237;" horiz-adv-x="285" 
d="M62 -217q-25 0 -61 4q-30 5 -27 36l5 55q3 31 22 28q4 0 10.5 -0.5t9.5 -0.5q56 0 56 63v520q0 32 32 32h75q31 0 31 -32v-532q0 -78 -42 -125.5t-111 -47.5z" />
    <glyph glyph-name="circumflex" unicode="&#x2c6;" horiz-adv-x="600" 
d="M136 638q-13 28 12 41l133 71q28 15 55 1l140 -72q27 -13 12 -41l-9 -18q-12 -26 -39 -16l-104 36q-25 9 -53 0l-98 -35q-28 -10 -40 15z" />
    <glyph glyph-name="caron" unicode="&#x2c7;" horiz-adv-x="600" 
d="M120 702l3 14q2 13 13.5 18t25.5 0l106 -34q14 -4 27 0l106 34q14 5 25.5 0t14.5 -18l3 -14q5 -30 -15 -40l-112 -55q-35 -18 -71 0l-112 55q-21 10 -14 40z" />
    <glyph glyph-name="breve" unicode="&#x2d8;" horiz-adv-x="600" 
d="M191 742q24 0 34 -28q19 -40 71 -40q51 0 72 40q12 28 35 28h40q36 -2 30 -34q-13 -58 -60 -92t-117 -34q-66 0 -114.5 33.5t-62.5 92.5q-7 32 30 34h42z" />
    <glyph glyph-name="dotaccent" unicode="&#x2d9;" horiz-adv-x="299" 
d="M152 622q-33 0 -56 24t-23 58q0 32 23 54.5t56 22.5t56 -22.5t23 -54.5q0 -34 -23 -58t-56 -24z" />
    <glyph glyph-name="ring" unicode="&#x2da;" horiz-adv-x="600" 
d="M149 570q-59 0 -92.5 32t-33.5 79t34 79t92 32q59 0 93 -32t34 -79t-34 -79t-93 -32zM149 642q19 0 31 11t12 28t-12 29t-31 12t-30.5 -12t-10.5 -29q-1 -17 10.5 -28t30.5 -11z" />
    <glyph glyph-name="ogonek" unicode="&#x2db;" horiz-adv-x="600" 
d="M377 -193q0 -17 -16 -21q-25 -6 -52 -6q-51 0 -83.5 27.5t-32.5 79.5q0 91 135 137l42 -24q-74 -47 -74 -106q0 -17 10.5 -27t26.5 -10q7 0 23 2q21 3 21 -17v-35z" />
    <glyph glyph-name="tilde" unicode="&#x2dc;" horiz-adv-x="600" 
d="M437 695q29 -5 26 -36q-6 -38 -35 -60t-68 -22q-33 0 -73.5 17.5t-51.5 17.5q-19 0 -31 -16q-10 -17 -35 -13l-32 6q-31 6 -26 37q7 40 33.5 63t63.5 22q28 -1 74.5 -18.5t59.5 -17.5q21 0 32 15q7 15 32 11z" />
    <glyph glyph-name="hungarumlaut" unicode="&#x2dd;" horiz-adv-x="600" 
d="M205 713q9 24 37 24h66q19 0 24.5 -11t-4.5 -27l-57 -89q-13 -21 -38 -21h-38q-18 0 -24.5 10t-0.5 26zM390 713q9 24 37 24h66q19 0 25 -11t-4 -27l-57 -89q-13 -21 -38 -21h-39q-18 0 -24.5 10t-0.5 26z" />
    <glyph glyph-name="gravecomb" unicode="&#x300;" 
d="M-367 754q14 30 43 12l173 -106q26 -17 12 -44l-9 -15q-14 -25 -42 -16l-187 71q-30 12 -17 42z" />
    <glyph glyph-name="acutecomb" unicode="&#x301;" 
d="M-211 764q29 18 43 -12l27 -57q14 -29 -17 -41l-185 -70q-29 -9 -43 15l-8 16q-14 27 12 43z" />
    <glyph glyph-name="uni0302" unicode="&#x302;" 
d="M-454 638q-13 28 12 41l133 71q28 15 55 1l140 -72q27 -13 12 -41l-9 -18q-12 -26 -39 -16l-104 36q-25 9 -53 0l-98 -35q-28 -10 -40 15z" />
    <glyph glyph-name="tildecomb" unicode="&#x303;" 
d="M-152 695q29 -5 26 -36q-6 -38 -35 -60t-68 -22q-33 0 -73.5 17.5t-51.5 17.5q-19 0 -31 -16q-10 -17 -35 -13l-32 6q-31 6 -26 37q7 40 33.5 63t63.5 22q28 -1 74.5 -18.5t59.5 -17.5q21 0 32 15q7 15 32 11z" />
    <glyph glyph-name="uni0304" unicode="&#x304;" 
d="M-443 673q0 32 32 32h248q32 0 32 -32v-37q0 -32 -32 -32h-248q-32 0 -32 32v37z" />
    <glyph glyph-name="uni0306" unicode="&#x306;" 
d="M-413 742q24 0 34 -28q19 -40 71 -40q51 0 72 40q12 28 35 28h40q36 -2 30 -34q-13 -58 -60 -92t-117 -34q-66 0 -114.5 33.5t-62.5 92.5q-7 32 30 34h42z" />
    <glyph glyph-name="uni0307" unicode="&#x307;" 
d="M-149 588q-39 0 -65.5 27.5t-26.5 66.5q0 38 26.5 64.5t65.5 26.5q38 0 65.5 -27t27.5 -64q0 -39 -27.5 -66.5t-65.5 -27.5z" />
    <glyph glyph-name="uni0308" unicode="&#x308;" 
d="M-381 598q-32 0 -54 22.5t-22 56.5q0 31 22.5 53t53.5 22q32 0 55 -22t23 -53q0 -33 -23 -56t-55 -23zM-165 598q-31 0 -54 23t-23 56q0 31 23 53t54 22q32 0 55 -22t23 -53q0 -33 -22.5 -56t-55.5 -23z" />
    <glyph glyph-name="uni030A" unicode="&#x30a;" 
d="M-150 570q-59 0 -92.5 32t-33.5 79t34 79t92 32q59 0 93 -32t34 -79t-34 -79t-93 -32zM-150 642q19 0 31 11t12 28t-12 29t-31 12t-30.5 -12t-10.5 -29q-1 -17 10.5 -28t30.5 -11z" />
    <glyph glyph-name="uni030B" unicode="&#x30b;" 
d="M-395 713q9 24 37 24h66q19 0 24.5 -11t-4.5 -27l-57 -89q-13 -21 -38 -21h-38q-18 0 -24.5 10t-0.5 26zM-210 713q9 24 37 24h66q19 0 25 -11t-4 -27l-57 -89q-13 -21 -38 -21h-39q-18 0 -24.5 10t-0.5 26z" />
    <glyph glyph-name="uni030C" unicode="&#x30c;" 
d="M-443 702l3 14q2 13 13.5 18t25.5 0l106 -34q13 -4 27 0l106 34q14 5 25.5 0t14.5 -18l3 -14q5 -30 -15 -40l-112 -55q-36 -18 -71 0l-112 55q-21 10 -14 40z" />
    <glyph glyph-name="uni0312" unicode="&#x312;" 
 />
    <glyph glyph-name="uni0326" unicode="&#x326;" 
d="M-178 -62q3 29 33 29h58q17 0 24 -9.5t2 -26.5l-47 -150q-8 -26 -36 -26h-29q-35 0 -29 34z" />
    <glyph glyph-name="uni0327" unicode="&#x327;" 
d="M-353 -93q-14 0 -20.5 9t-2.5 23l20 64h78l-5 -19q-4 -18 16 -21q33 -6 53.5 -27t20.5 -57q0 -47 -37.5 -73t-94.5 -26q-50 0 -86 19q-22 12 -9 37l3 8q10 21 37 13q18 -7 43 -7q40 0 40 28q0 29 -40 29h-16z" />
    <glyph glyph-name="uni0328" unicode="&#x328;" 
d="M-223 -193q0 -17 -16 -21q-26 -6 -52 -6q-51 0 -83.5 27.5t-32.5 79.5q0 91 135 137l42 -24q-74 -47 -74 -106q0 -17 10.5 -27t26.5 -10q7 0 23 2q21 3 21 -17v-35z" />
    <glyph glyph-name="uni0335" unicode="&#x335;" 
d="M-415 417q0 32 32 32h295q32 0 32 -32v-43q0 -32 -32 -32h-295q-32 0 -32 32v43z" />
    <glyph glyph-name="uni0336" unicode="&#x336;" 
d="M-790 405q0 32 31 32h716q32 0 32 -32v-26q0 -32 -32 -32h-716q-31 0 -31 32v26z" />
    <glyph glyph-name="uni0337" unicode="&#x337;" 
d="M-97 570q27 11 38 -17l10 -27q11 -27 -17 -38l-267 -102q-28 -11 -38 18l-9 28q-9 29 18 39z" />
    <glyph glyph-name="uni0338" unicode="&#x338;" 
d="M-78 525q21 21 42 0l9 -8q22 -22 2 -43l-443 -453q-20 -21 -42 -1l-8 8q-23 20 -2 42z" />
    <glyph glyph-name="Wgrave" unicode="&#x1e80;" horiz-adv-x="981" 
d="M367 919q9 33 41 20l189 -73q28 -12 20 -41l-7 -16q-7 -27 -38 -24l-197 36q-31 7 -24 38zM16 695q-4 16 3 25.5t24 9.5h82q29 0 36 -28l105 -447q2 -11 8 -15.5t12 -0.5t9 15l131 451q7 25 34 25h64q28 0 34 -26l131 -456q3 -11 9 -15t12 0t9 16l108 453q8 28 35 28h72
q35 0 27 -35l-182 -669q-6 -26 -33 -26h-75q-27 0 -34 26l-129 463q-3 11 -9 15.5t-12 0t-9 -15.5l-132 -464q-7 -25 -34 -25h-73q-27 0 -34 26z" />
    <glyph glyph-name="wgrave" unicode="&#x1e81;" horiz-adv-x="805" 
d="M300 754q14 30 43 12l173 -106q26 -17 12 -44l-9 -15q-14 -25 -42 -16l-187 71q-30 12 -17 42zM20 485q-4 16 3 25.5t24 9.5h71q29 0 35 -28l69 -300q3 -14 11 -14t12 13l93 307q7 25 33 25h65q26 0 33 -25l92 -312q3 -9 8 -11.5t9.5 1t6.5 11.5l69 305q6 28 35 28h69
q37 0 27 -35l-130 -459q-7 -26 -33 -26h-96q-26 0 -34 26l-79 277q-2 9 -6.5 12t-9.5 0t-7 -12l-87 -278q-7 -25 -33 -25h-87q-27 0 -34 26z" />
    <glyph glyph-name="Wacute" unicode="&#x1e82;" horiz-adv-x="981" 
d="M585 936q32 11 40 -20l15 -62q8 -31 -25 -36l-196 -31q-29 -3 -39 23l-4 17q-9 30 20 40zM16 695q-4 16 3 25.5t24 9.5h82q29 0 36 -28l105 -447q2 -11 8 -15.5t12 -0.5t9 15l131 451q7 25 34 25h64q28 0 34 -26l131 -456q3 -11 9 -15t12 0t9 16l108 453q8 28 35 28h72
q35 0 27 -35l-182 -669q-6 -26 -33 -26h-75q-27 0 -34 26l-129 463q-3 11 -9 15.5t-12 0t-9 -15.5l-132 -464q-7 -25 -34 -25h-73q-27 0 -34 26z" />
    <glyph glyph-name="wacute" unicode="&#x1e83;" horiz-adv-x="805" 
d="M467 764q29 18 43 -12l27 -57q14 -29 -17 -41l-185 -70q-29 -9 -43 15l-8 16q-14 27 12 43zM20 485q-4 16 3 25.5t24 9.5h71q29 0 35 -28l69 -300q3 -14 11 -14t12 13l93 307q7 25 33 25h65q26 0 33 -25l92 -312q3 -9 8 -11.5t9.5 1t6.5 11.5l69 305q6 28 35 28h69
q37 0 27 -35l-130 -459q-7 -26 -33 -26h-96q-26 0 -34 26l-79 277q-2 9 -6.5 12t-9.5 0t-7 -12l-87 -278q-7 -25 -33 -25h-87q-27 0 -34 26z" />
    <glyph glyph-name="Wdieresis" unicode="&#x1e84;" horiz-adv-x="981" 
d="M379 764q-35 0 -58.5 24.5t-23.5 61.5q0 33 24 57t58 24t59 -24t25 -57q0 -36 -25 -61t-59 -25zM613 764q-34 0 -58.5 25t-24.5 61q0 33 25 57t58 24q35 0 60 -24t25 -57q0 -36 -25 -61t-60 -25zM16 695q-4 16 3 25.5t24 9.5h82q29 0 36 -28l105 -447q2 -11 8 -15.5
t12 -0.5t9 15l131 451q7 25 34 25h64q28 0 34 -26l131 -456q3 -11 9 -15t12 0t9 16l108 453q8 28 35 28h72q35 0 27 -35l-182 -669q-6 -26 -33 -26h-75q-27 0 -34 26l-129 463q-3 11 -9 15.5t-12 0t-9 -15.5l-132 -464q-7 -25 -34 -25h-73q-27 0 -34 26z" />
    <glyph glyph-name="wdieresis" unicode="&#x1e85;" horiz-adv-x="805" 
d="M295 598q-32 0 -54 22.5t-22 56.5q0 31 22.5 53t53.5 22q32 0 55 -22t23 -53q0 -33 -23 -56t-55 -23zM511 598q-31 0 -54 23t-23 56q0 31 23 53t54 22q32 0 55 -22t23 -53q0 -33 -22.5 -56t-55.5 -23zM20 485q-4 16 3 25.5t24 9.5h71q29 0 35 -28l69 -300q3 -14 11 -14
t12 13l93 307q7 25 33 25h65q26 0 33 -25l92 -312q3 -9 8 -11.5t9.5 1t6.5 11.5l69 305q6 28 35 28h69q37 0 27 -35l-130 -459q-7 -26 -33 -26h-96q-26 0 -34 26l-79 277q-2 9 -6.5 12t-9.5 0t-7 -12l-87 -278q-7 -25 -33 -25h-87q-27 0 -34 26z" />
    <glyph glyph-name="uni1E9E" unicode="&#x1e9e;" horiz-adv-x="786" 
d="M109 0q-32 0 -32 32v390q0 140 88 229t219 89q94 0 163.5 -37.5t107.5 -95.5q18 -29 -2 -59l-99 -150q93 -4 147.5 -61.5t54.5 -143.5q1 -91 -62.5 -147t-173.5 -56q-87 0 -150 44.5t-89 122.5q-6 16 1.5 26t25.5 10h73q23 0 37 -25q30 -56 104 -56q43 0 69 26t26 66
q0 44 -34 71.5t-84 27.5h-55q-35 0 -35 34v12q0 21 12 42l84 138q15 26 -7 44q-45 36 -115 36q-64 0 -111 -49t-47 -129v-399q0 -32 -32 -32h-84z" />
    <glyph glyph-name="Ygrave" unicode="&#x1ef2;" horiz-adv-x="651" 
d="M200 919q9 33 41 20l189 -73q28 -12 20 -41l-7 -16q-7 -27 -38 -24l-197 36q-31 7 -24 38zM14 692q-10 17 -3.5 27.5t25.5 10.5h93q26 0 38 -23l146 -287q6 -11 14.5 -11t14.5 11l146 287q12 23 38 23h81q19 0 25.5 -10.5t-2.5 -27.5l-225 -409q-7 -14 -7 -27v-223
q0 -33 -33 -33h-75q-33 0 -33 33v222q0 14 -7 28z" />
    <glyph glyph-name="ygrave" unicode="&#x1ef3;" horiz-adv-x="571" 
d="M183 754q14 30 43 12l173 -106q26 -17 12 -44l-9 -15q-14 -25 -42 -16l-187 71q-30 12 -17 42zM18 484q-6 16 1 26t24 10h87q28 0 37 -26l109 -338q2 -9 7 -12t10 0t8 12l107 338q7 26 36 26h84q17 0 24 -10t1 -26l-201 -533q-32 -87 -84 -128t-136 -41q-38 0 -73 9
q-28 6 -25 37l6 47q4 31 36 27q24 -5 64 -5q67 0 100 86l7 17h-21q-22 0 -30 21z" />
    <glyph glyph-name="uni1EF8" unicode="&#x1ef8;" horiz-adv-x="651" 
d="M486 905q29 -5 26 -36q-6 -38 -35 -60t-68 -22q-33 0 -73.5 17.5t-51.5 17.5q-19 0 -31 -16q-10 -17 -35 -13l-32 6q-31 6 -26 37q7 40 33.5 63t63.5 22q28 -1 74.5 -18.5t59.5 -17.5q21 0 32 15q7 15 32 11zM14 692q-10 17 -3.5 27.5t25.5 10.5h93q26 0 38 -23l146 -287
q6 -11 14.5 -11t14.5 11l146 287q12 23 38 23h81q19 0 25.5 -10.5t-2.5 -27.5l-225 -409q-7 -14 -7 -27v-223q0 -33 -33 -33h-75q-33 0 -33 33v222q0 14 -7 28z" />
    <glyph glyph-name="uni1EF9" unicode="&#x1ef9;" horiz-adv-x="571" 
d="M434 695q29 -5 26 -36q-6 -38 -35 -60t-68 -22q-33 0 -73.5 17.5t-51.5 17.5q-19 0 -31 -16q-10 -17 -35 -13l-32 6q-31 6 -26 37q7 40 33.5 63t63.5 22q28 -1 74.5 -18.5t59.5 -17.5q21 0 32 15q7 15 32 11zM18 484q-6 16 1 26t24 10h87q28 0 37 -26l109 -338
q2 -9 7 -12t10 0t8 12l107 338q7 26 36 26h84q17 0 24 -10t1 -26l-201 -533q-32 -87 -84 -128t-136 -41q-38 0 -73 9q-28 6 -25 37l6 47q4 31 36 27q24 -5 64 -5q67 0 100 86l7 17h-21q-22 0 -30 21z" />
    <glyph glyph-name="endash" unicode="&#x2013;" horiz-adv-x="586" 
d="M491 331q35 0 35 -35v-41q0 -35 -35 -35h-396q-35 0 -35 35v41q0 35 35 35h396z" />
    <glyph glyph-name="emdash" unicode="&#x2014;" horiz-adv-x="701" 
d="M606 331q35 0 35 -35v-41q0 -35 -35 -35h-511q-35 0 -35 35v41q0 35 35 35h511z" />
    <glyph glyph-name="quoteleft" unicode="&#x2018;" horiz-adv-x="242" 
d="M173 510q-5 -30 -34 -30h-63q-35 0 -27 36l44 188q6 28 34 28h39q34 0 29 -34z" />
    <glyph glyph-name="quoteright" unicode="&#x2019;" horiz-adv-x="236" 
d="M74 710q5 30 34 30h63q35 0 27 -36l-44 -188q-6 -28 -34 -28h-39q-34 0 -29 34z" />
    <glyph glyph-name="quotesinglbase" unicode="&#x201a;" horiz-adv-x="244" 
d="M63 119q5 30 34 30h63q35 0 27 -36l-44 -188q-6 -28 -34 -28h-39q-34 0 -29 34z" />
    <glyph glyph-name="quotedblleft" unicode="&#x201c;" horiz-adv-x="434" 
d="M173 510q-5 -30 -34 -30h-63q-35 0 -27 36l44 188q6 28 34 28h39q34 0 29 -34zM364 510q-5 -30 -34 -30h-63q-35 0 -27 36l44 188q6 28 34 28h39q34 0 29 -34z" />
    <glyph glyph-name="quotedblright" unicode="&#x201d;" horiz-adv-x="427" 
d="M74 710q5 30 34 30h63q35 0 27 -36l-44 -188q-6 -28 -34 -28h-39q-34 0 -29 34zM265 710q5 30 34 30h63q35 0 27 -36l-44 -188q-6 -28 -34 -28h-39q-34 0 -29 34z" />
    <glyph glyph-name="quotedblbase" unicode="&#x201e;" horiz-adv-x="435" 
d="M63 119q5 30 34 30h63q35 0 27 -36l-44 -188q-6 -28 -34 -28h-39q-34 0 -29 34zM254 119q5 30 34 30h63q35 0 27 -36l-44 -188q-6 -28 -34 -28h-39q-34 0 -29 34z" />
    <glyph glyph-name="dagger" unicode="&#x2020;" horiz-adv-x="544" 
d="M35 460v32q0 30 30 30h112q34 0 34 34l-2 194q0 30 30 30h65q31 0 31 -30l-2 -194q0 -34 34 -34h112q30 0 30 -30v-32q0 -31 -30 -31h-113q-35 0 -35 -34l-5 -425q0 -30 -31 -30h-47q-30 0 -30 30l-5 425q0 34 -35 34h-113q-30 0 -30 31z" />
    <glyph glyph-name="daggerdbl" unicode="&#x2021;" horiz-adv-x="544" 
d="M35 301v27q0 30 30 30h114q34 0 34 34v47q0 35 -35 35h-113q-30 0 -30 30v27q0 30 30 30h112q34 0 34 35l-2 154q0 30 30 30h65q31 0 31 -30l-2 -154q0 -35 34 -35h112q30 0 30 -30v-27q0 -30 -30 -30h-113q-35 0 -35 -35v-47q0 -34 34 -34h114q30 0 30 -30v-27
q0 -31 -30 -31h-115q-35 0 -35 -34l-3 -266q0 -30 -31 -30h-47q-30 0 -30 30l-3 266q0 34 -35 34h-115q-30 0 -30 31z" />
    <glyph glyph-name="bullet" unicode="&#x2022;" horiz-adv-x="429" 
d="M215 146q-61 0 -105 45t-44 109q0 57 44.5 100.5t104.5 43.5t104.5 -43.5t44.5 -100.5q0 -64 -44 -109t-105 -45z" />
    <glyph glyph-name="ellipsis" unicode="&#x2026;" horiz-adv-x="795" 
d="M129 -10q-35 0 -59.5 25.5t-24.5 61.5q0 34 25 58.5t59 24.5q35 0 60.5 -24.5t25.5 -58.5q0 -36 -25.5 -61.5t-60.5 -25.5zM396 -10q-35 0 -59.5 25.5t-24.5 61.5q0 34 25 58.5t59 24.5q35 0 60.5 -24.5t25.5 -58.5q0 -36 -25.5 -61.5t-60.5 -25.5zM669 -10
q-35 0 -59.5 25.5t-24.5 61.5q0 34 25 58.5t59 24.5q35 0 60.5 -24.5t25.5 -58.5q0 -36 -25.5 -61.5t-60.5 -25.5z" />
    <glyph glyph-name="perthousand" unicode="&#x2030;" horiz-adv-x="1286" 
d="M383 549q0 -85 -49 -138.5t-127 -53.5q-79 0 -127.5 53t-48.5 139t48.5 138.5t127.5 52.5q78 0 127 -52.5t49 -138.5zM645 705q31 -14 15 -42l-318 -622q-14 -28 -42 -14l-37 18q-29 13 -15 42l319 617q14 29 43 16zM207 447q35 0 55 27t20 75q0 46 -20 73.5t-55 27.5
t-55 -27.5t-20 -73.5q0 -48 20 -75t55 -27zM685 373q79 0 127.5 -53t48.5 -138q0 -86 -48.5 -139t-127.5 -53q-78 0 -127 53.5t-49 138.5t49 138t127 53zM1080 373q79 0 127.5 -53t48.5 -138q0 -86 -48.5 -139t-127.5 -53t-127.5 53t-48.5 139q0 85 48.5 138t127.5 53z
M685 80q35 0 55 27.5t20 74.5t-20 74t-55 27q-34 0 -54 -27t-20 -74t20 -74.5t54 -27.5zM1080 80q35 0 55 27.5t20 74.5t-20 74t-55 27t-55 -27t-20 -74t20 -74.5t55 -27.5z" />
    <glyph glyph-name="guilsinglleft" unicode="&#x2039;" horiz-adv-x="313" 
d="M155 297q-23 -17 0 -35l78 -57q22 -16 22 -42v-53q0 -22 -13 -28t-30 7l-151 118q-21 17 -21 42v58q0 26 21 43l151 115q17 14 30 7t13 -29v-49q0 -26 -23 -42z" />
    <glyph glyph-name="guilsinglright" unicode="&#x203a;" horiz-adv-x="313" 
d="M102 89q-17 -14 -30 -8t-13 28v54q0 27 21 42l79 57q24 19 0 35l-78 55q-22 15 -22 42v49q0 23 12.5 29t30.5 -7l151 -115q21 -17 21 -43v-58q0 -25 -21 -42z" />
    <glyph glyph-name="fraction" unicode="&#x2044;" horiz-adv-x="369" 
d="M36 -10q-22 0 -31 12.5t-1 34.5l252 664q12 32 45 32h34q22 0 30.5 -12.5t0.5 -33.5l-252 -665q-12 -32 -45 -32h-33z" />
    <glyph glyph-name="Euro" unicode="&#x20ac;" horiz-adv-x="796" 
d="M36 261l2 9q6 28 35 28h23q13 0 13 12v11v15q1 13 -12 13h-9q-34 0 -28 34l1 8q6 29 35 29h14q11 0 14 11q31 105 117.5 165.5t208.5 60.5q101 0 181.5 -56.5t109.5 -147.5q5 -16 -3 -26t-25 -10h-80q-24 0 -36 26q-19 38 -58 62.5t-89 24.5q-119 0 -168 -95
q-3 -6 0 -10.5t10 -4.5h187q35 0 29 -34l-1 -9q-6 -28 -36 -28h-202q-13 0 -14 -12v-13v-13q2 -13 14 -13h184q17 0 25 -9t4 -25l-2 -9q-5 -29 -34 -29h-154q-7 0 -10 -4t0 -11q50 -94 164 -94q51 0 91.5 22t62.5 60q13 23 37 23h76q17 0 25 -10t3 -25q-28 -89 -106.5 -143
t-188.5 -54q-113 0 -200.5 61.5t-120.5 163.5q-3 11 -14 11h-47q-34 0 -28 35z" />
    <glyph glyph-name="trademark" unicode="&#x2122;" horiz-adv-x="788" 
d="M33 681v20q0 31 30 31h243q31 0 31 -31v-20q0 -30 -31 -30h-52q-23 0 -23 -23v-194q0 -31 -31 -31h-35q-31 0 -31 31l1 194q0 23 -24 23h-48q-30 0 -30 30zM365 434v267q0 31 31 31h20q24 0 37 -20l68 -102q19 -26 37 0l72 102q14 20 37 20h19q30 0 30 -31v-267
q0 -31 -30 -31h-27q-30 0 -30 31v137l-52 -71q-12 -17 -31 -17h-9q-20 0 -32 17l-54 73v-139q0 -31 -30 -31h-25q-31 0 -31 31z" />
    <glyph glyph-name="minus" unicode="&#x2212;" horiz-adv-x="518" 
d="M423 331q31 0 31 -32v-48q0 -32 -31 -32h-328q-32 0 -32 32v48q0 32 32 32h328z" />
    <glyph glyph-name="approxequal" unicode="&#x2248;" horiz-adv-x="547" 
d="M461 428q30 -10 24 -38q-9 -42 -41.5 -67.5t-79.5 -25.5q-36 1 -81 16.5t-66 15.5q-28 0 -43 -17q-22 -21 -39 -16l-45 11q-30 9 -27 35q2 46 31.5 75t77.5 28q40 0 93 -18.5t70 -18.5q28 0 44 16q20 22 40 16zM461 208q30 -10 24 -38q-9 -42 -41.5 -67.5t-79.5 -25.5
q-36 1 -81 16.5t-66 15.5q-28 0 -43 -17q-22 -21 -39 -16l-45 11q-30 9 -27 35q2 46 31.5 75t77.5 28q40 0 93 -18.5t70 -18.5q28 0 44 16q20 22 40 16z" />
    <glyph glyph-name="notequal" unicode="&#x2260;" horiz-adv-x="513" 
d="M64 146v47q0 31 32 31h97q17 0 20 15l13 45q5 20 -15 20h-115q-32 0 -32 32v46q0 32 32 32h151q15 0 19 15l12 42q8 27 35 27h25q36 0 27 -36l-8 -28q-6 -20 14 -20h46q32 0 32 -32v-46q0 -32 -32 -32h-81q-16 0 -19 -15l-13 -45q-6 -20 15 -20h98q32 0 32 -31v-47
q0 -32 -32 -32h-134q-16 0 -19 -15l-15 -52q-7 -27 -35 -27h-26q-36 0 -27 35l11 40q5 19 -15 19h-61q-32 0 -32 32z" />
    <glyph glyph-name="uniF8FF" unicode="&#xf8ff;" horiz-adv-x="1170" 
d="M300 573q0 22 -22 22h-58v102q0 11 -7 18t-18 7q-25 0 -25 -25v-146h108q22 0 22 22zM316 636q0 -38 26.5 -63t66.5 -25t66 25t26 63t-26 62t-66 24t-66.5 -24.5t-26.5 -61.5zM617 600q0 -9 -20 -9q-13 0 -26 6t-20 6q-22 0 -22 -20q0 -35 66 -35q32 0 51.5 14.5
t19.5 39.5q0 22 -13 35t-28 16t-28 7t-13 10q0 10 16 10q10 0 24 -5.5t21 -5.5q20 0 20 19q0 17 -17.5 25.5t-42.5 8.5q-34 0 -52 -14.5t-18 -39.5q0 -21 13 -33t28 -15t28 -7.5t13 -12.5zM449 636q0 -19 -11 -30.5t-29 -11.5t-30 12t-12 30t11.5 29.5t30.5 11.5
q18 0 29 -11.5t11 -29.5zM505 285h32v146q0 11 -7.5 18t-18.5 7t-18 -7t-7 -18v-63l-81 85h-32v-146q0 -11 7 -18.5t18 -7.5t18.5 7.5t7.5 18.5v63zM1038 334q0 -10 -20 -10q-13 0 -26 6.5t-19 6.5q-22 0 -22 -21q0 -16 18 -25.5t47 -9.5q33 0 52.5 14.5t19.5 39.5
q0 22 -13 35t-28 16t-28 7t-13 11q0 9 16 9q9 0 23.5 -5.5t21.5 -5.5q20 0 20 19q0 17 -17.5 26t-42.5 9q-71 0 -71 -54q0 -21 13 -33.5t28 -15.5t28 -7.5t13 -11.5zM312 281q14 0 20 11t0 25l-65 136h-40l-66 -136q-7 -14 0 -25t21 -11q19 0 25 15l5 13h70l5 -13
q6 -15 25 -15zM751 369q0 38 -25 61t-66 23h-75v-168h75q41 0 66 23t25 61zM912 369q0 9 -6 15t-16 6h-48v20h58q21 0 21 22q0 21 -21 21h-109v-168h109q21 0 21 20q0 21 -21 21h-58v23h48q22 0 22 20zM700 368q0 -18 -11 -29t-30 -11h-23v80h23q19 0 30 -11t11 -29z
M268 343h-42l21 51zM209 22q0 -11 7 -18t18 -7t18.5 7t7.5 18v104h35q10 0 17 6.5t7 15.5q0 10 -6.5 16t-17.5 6h-122q-22 0 -22 -22q0 -9 6 -15.5t16 -6.5h36v-104zM506 169h-57l-30 -59l-31 59h-58l62 -100v-47q0 -11 7.5 -18t18.5 -7t18 7t7 18v47zM606 42q32 0 50.5 18
t18.5 46q0 27 -18.5 45t-50.5 18h-74v-147q0 -11 8 -18t19 -7t17.5 7t6.5 18v20h23zM831 85q0 9 -6 15t-16 6h-48v20h58q22 0 22 22q0 21 -22 21h-109v-169h109q22 0 22 21q0 22 -22 22h-58v22h48q22 0 22 20zM602 84h-19v44h19q25 0 25 -22t-25 -22z" />
    <glyph glyph-name="uni00A40301" horiz-adv-x="702" 
d="M514 936q32 11 40 -20l15 -62q8 -31 -25 -36l-196 -31q-29 -3 -39 23l-4 17q-9 30 20 40zM22 230q-3 16 5.5 25t24.5 9h76q26 0 34 -28q15 -54 59 -86t107 -32q71 0 113 46.5t42 121.5v303q0 21 -21 21h-208q-32 0 -32 32v56q0 32 32 32h334q39 0 39 -38v-406
q0 -128 -82.5 -212t-216.5 -84q-125 0 -206.5 67.5t-99.5 172.5z" />
    <glyph glyph-name="A.ss01" horiz-adv-x="718" 
d="M45 0q-18 0 -24.5 10t1.5 27l276 576q7 15 1 29l-26 61q-7 17 -0.5 27t24.5 10h70q26 0 38 -24l302 -679q7 -17 0.5 -27t-24.5 -10h-86q-27 0 -37 24l-39 92q-6 14 -22 14h-273q-17 0 -23 -14l-41 -92q-10 -24 -36 -24h-81zM274 276q-8 -22 14 -22h151q23 0 15 22
l-76 176q-4 11 -12 11t-12 -11z" />
    <glyph glyph-name="Aacute.ss01" horiz-adv-x="718" 
d="M439 943q32 11 40 -20l15 -62q8 -31 -25 -36l-196 -31q-29 -3 -39 23l-4 17q-9 30 20 40zM45 0q-18 0 -24.5 10t1.5 27l276 576q7 15 1 29l-26 61q-7 17 -0.5 27t24.5 10h70q26 0 38 -24l302 -679q7 -17 0.5 -27t-24.5 -10h-86q-27 0 -37 24l-39 92q-6 14 -22 14h-273
q-17 0 -23 -14l-41 -92q-10 -24 -36 -24h-81zM274 276q-8 -22 14 -22h151q23 0 15 22l-76 176q-4 11 -12 11t-12 -11z" />
    <glyph glyph-name="Abreve.ss01" horiz-adv-x="718" 
d="M250 943q24 0 34 -28q19 -40 71 -40q51 0 72 40q12 28 35 28h40q36 -2 30 -34q-13 -58 -60 -92t-117 -34q-66 0 -114.5 33.5t-62.5 92.5q-7 32 30 34h42zM45 0q-18 0 -24.5 10t1.5 27l276 576q7 15 1 29l-26 61q-7 17 -0.5 27t24.5 10h70q26 0 38 -24l302 -679
q7 -17 0.5 -27t-24.5 -10h-86q-27 0 -37 24l-39 92q-6 14 -22 14h-273q-17 0 -23 -14l-41 -92q-10 -24 -36 -24h-81zM274 276q-8 -22 14 -22h151q23 0 15 22l-76 176q-4 11 -12 11t-12 -11z" />
    <glyph glyph-name="Acircumflex.ss01" horiz-adv-x="718" 
d="M171 829q-14 29 12 42l138 74q29 15 57 1l144 -75q28 -12 13 -42l-10 -19q-12 -25 -40 -16l-107 37q-27 9 -55 0l-102 -36q-29 -10 -41 15zM45 0q-18 0 -24.5 10t1.5 27l276 576q7 15 1 29l-26 61q-7 17 -0.5 27t24.5 10h70q26 0 38 -24l302 -679q7 -17 0.5 -27
t-24.5 -10h-86q-27 0 -37 24l-39 92q-6 14 -22 14h-273q-17 0 -23 -14l-41 -92q-10 -24 -36 -24h-81zM274 276q-8 -22 14 -22h151q23 0 15 22l-76 176q-4 11 -12 11t-12 -11z" />
    <glyph glyph-name="Adieresis.ss01" horiz-adv-x="718" 
d="M233 771q-35 0 -58.5 24.5t-23.5 61.5q0 33 24 57t58 24t59 -24t25 -57q0 -36 -25 -61t-59 -25zM467 771q-34 0 -58.5 25t-24.5 61q0 33 25 57t58 24q35 0 60 -24t25 -57q0 -37 -25 -61.5t-60 -24.5zM45 0q-18 0 -24.5 10t1.5 27l276 576q7 15 1 29l-26 61q-7 17 -0.5 27
t24.5 10h70q26 0 38 -24l302 -679q7 -17 0.5 -27t-24.5 -10h-86q-27 0 -37 24l-39 92q-6 14 -22 14h-273q-17 0 -23 -14l-41 -92q-10 -24 -36 -24h-81zM274 276q-8 -22 14 -22h151q23 0 15 22l-76 176q-4 11 -12 11t-12 -11z" />
    <glyph glyph-name="Agrave.ss01" horiz-adv-x="718" 
d="M221 926q9 33 41 20l189 -73q28 -12 20 -41l-7 -16q-7 -27 -38 -24l-197 36q-31 7 -24 38zM45 0q-18 0 -24.5 10t1.5 27l276 576q7 15 1 29l-26 61q-7 17 -0.5 27t24.5 10h70q26 0 38 -24l302 -679q7 -17 0.5 -27t-24.5 -10h-86q-27 0 -37 24l-39 92q-6 14 -22 14h-273
q-17 0 -23 -14l-41 -92q-10 -24 -36 -24h-81zM274 276q-8 -22 14 -22h151q23 0 15 22l-76 176q-4 11 -12 11t-12 -11z" />
    <glyph glyph-name="Amacron.ss01" horiz-adv-x="718" 
d="M197 877q0 32 32 32h248q32 0 32 -32v-37q0 -32 -32 -32h-248q-32 0 -32 32v37zM45 0q-18 0 -24.5 10t1.5 27l276 576q7 15 1 29l-26 61q-7 17 -0.5 27t24.5 10h70q26 0 38 -24l302 -679q7 -17 0.5 -27t-24.5 -10h-86q-27 0 -37 24l-39 92q-6 14 -22 14h-273
q-17 0 -23 -14l-41 -92q-10 -24 -36 -24h-81zM274 276q-8 -22 14 -22h151q23 0 15 22l-76 176q-4 11 -12 11t-12 -11z" />
    <glyph glyph-name="Aogonek.ss01" horiz-adv-x="718" 
d="M696 2q-72 -48 -72 -105q0 -17 10.5 -27t26.5 -10q7 0 23 2q21 3 21 -17v-35q0 -17 -16 -21q-25 -6 -52 -6q-51 0 -83.5 27.5t-32.5 79.5q0 66 75 110q-26 0 -36 24l-39 92q-6 14 -22 14h-273q-17 0 -23 -14l-41 -92q-10 -24 -36 -24h-81q-18 0 -24.5 10t1.5 27l276 576
q7 15 1 29l-26 61q-7 17 -0.5 27t24.5 10h70q26 0 38 -24l302 -679q13 -28 -11 -35zM439 254q23 0 15 22l-76 176q-4 11 -12 11t-12 -11l-80 -176q-8 -22 14 -22h151z" />
    <glyph glyph-name="Aring.ss01" horiz-adv-x="718" 
d="M352 766q-59 0 -92.5 32t-33.5 79t34 79t92 32q59 0 93 -32t34 -79t-34 -79t-93 -32zM352 838q19 0 31 11t12 28t-12 29t-31 12t-30.5 -12t-10.5 -29q-1 -17 10.5 -28t30.5 -11zM45 0q-18 0 -24.5 10t1.5 27l276 576q7 15 1 29l-26 61q-7 17 -0.5 27t24.5 10h70
q26 0 38 -24l302 -679q7 -17 0.5 -27t-24.5 -10h-86q-27 0 -37 24l-39 92q-6 14 -22 14h-273q-17 0 -23 -14l-41 -92q-10 -24 -36 -24h-81zM274 276q-8 -22 14 -22h151q23 0 15 22l-76 176q-4 11 -12 11t-12 -11z" />
    <glyph glyph-name="Atilde.ss01" horiz-adv-x="718" 
d="M507 912q29 -5 26 -36q-6 -38 -35 -60t-68 -22q-33 0 -73.5 17.5t-51.5 17.5q-19 0 -31 -16q-10 -17 -35 -13l-32 6q-31 6 -26 37q7 40 33.5 63t63.5 22q28 -1 74.5 -18.5t59.5 -17.5q21 0 32 15q7 15 32 11zM45 0q-18 0 -24.5 10t1.5 27l276 576q7 15 1 29l-26 61
q-7 17 -0.5 27t24.5 10h70q26 0 38 -24l302 -679q7 -17 0.5 -27t-24.5 -10h-86q-27 0 -37 24l-39 92q-6 14 -22 14h-273q-17 0 -23 -14l-41 -92q-10 -24 -36 -24h-81zM274 276q-8 -22 14 -22h151q23 0 15 22l-76 176q-4 11 -12 11t-12 -11z" />
    <glyph glyph-name="E.ss01" horiz-adv-x="574" 
d="M116 0q-33 0 -33 33v664q0 33 33 33h352q32 0 32 -32v-55q0 -31 -32 -31h-222q-20 0 -20 -21v-148q0 -21 20 -21h245q32 0 32 -32v-54q0 -32 -32 -32h-245q-20 0 -20 -20v-145q0 -21 20 -21h238q32 0 32 -31v-55q0 -32 -32 -32h-368z" />
    <glyph glyph-name="Eacute.ss01" horiz-adv-x="574" 
d="M400 936q32 11 40 -20l15 -62q8 -31 -25 -36l-196 -31q-29 -3 -39 23l-4 17q-9 30 20 40zM116 0q-33 0 -33 33v664q0 33 33 33h352q32 0 32 -32v-55q0 -31 -32 -31h-222q-20 0 -20 -21v-148q0 -21 20 -21h245q32 0 32 -32v-54q0 -32 -32 -32h-245q-20 0 -20 -20v-145
q0 -21 20 -21h238q32 0 32 -31v-55q0 -32 -32 -32h-368z" />
    <glyph glyph-name="Ecaron.ss01" horiz-adv-x="574" 
d="M149 902l3 14q2 13 14.5 18.5t25.5 -0.5l109 -34q13 -4 27 0l109 34q14 5 26 0t15 -18l3 -14q5 -31 -15 -41l-115 -57q-37 -18 -73 0l-115 57q-21 10 -14 41zM116 0q-33 0 -33 33v664q0 33 33 33h352q32 0 32 -32v-55q0 -31 -32 -31h-222q-20 0 -20 -21v-148
q0 -21 20 -21h245q32 0 32 -32v-54q0 -32 -32 -32h-245q-20 0 -20 -20v-145q0 -21 20 -21h238q32 0 32 -31v-55q0 -32 -32 -32h-368z" />
    <glyph glyph-name="Ecircumflex.ss01" horiz-adv-x="574" 
d="M132 822q-14 29 12 42l138 74q29 15 57 1l144 -75q28 -12 13 -42l-10 -19q-12 -25 -40 -16l-107 37q-27 9 -55 0l-102 -36q-29 -10 -41 15zM116 0q-33 0 -33 33v664q0 33 33 33h352q32 0 32 -32v-55q0 -31 -32 -31h-222q-20 0 -20 -21v-148q0 -21 20 -21h245q32 0 32 -32
v-54q0 -32 -32 -32h-245q-20 0 -20 -20v-145q0 -21 20 -21h238q32 0 32 -31v-55q0 -32 -32 -32h-368z" />
    <glyph glyph-name="Edieresis.ss01" horiz-adv-x="574" 
d="M194 764q-35 0 -58.5 24.5t-23.5 61.5q0 33 24 57t58 24t59 -24t25 -57q0 -36 -25 -61t-59 -25zM428 764q-34 0 -58.5 25t-24.5 61q0 33 25 57t58 24q35 0 60 -24t25 -57q0 -36 -24.5 -61t-60.5 -25zM116 0q-33 0 -33 33v664q0 33 33 33h352q32 0 32 -32v-55
q0 -31 -32 -31h-222q-20 0 -20 -21v-148q0 -21 20 -21h245q32 0 32 -32v-54q0 -32 -32 -32h-245q-20 0 -20 -20v-145q0 -21 20 -21h238q32 0 32 -31v-55q0 -32 -32 -32h-368z" />
    <glyph glyph-name="Edotaccent.ss01" horiz-adv-x="574" 
d="M314 774q-39 0 -65.5 27.5t-26.5 66.5q0 38 26.5 64.5t65.5 26.5q38 0 65.5 -27t27.5 -64q0 -39 -27.5 -66.5t-65.5 -27.5zM116 0q-33 0 -33 33v664q0 33 33 33h352q32 0 32 -32v-55q0 -31 -32 -31h-222q-20 0 -20 -21v-148q0 -21 20 -21h245q32 0 32 -32v-54
q0 -32 -32 -32h-245q-20 0 -20 -20v-145q0 -21 20 -21h238q32 0 32 -31v-55q0 -32 -32 -32h-368z" />
    <glyph glyph-name="Egrave.ss01" horiz-adv-x="574" 
d="M182 919q9 33 41 20l189 -73q28 -12 20 -41l-7 -16q-7 -27 -38 -24l-197 36q-31 7 -24 38zM116 0q-33 0 -33 33v664q0 33 33 33h352q32 0 32 -32v-55q0 -31 -32 -31h-222q-20 0 -20 -21v-148q0 -21 20 -21h245q32 0 32 -32v-54q0 -32 -32 -32h-245q-20 0 -20 -20v-145
q0 -21 20 -21h238q32 0 32 -31v-55q0 -32 -32 -32h-368z" />
    <glyph glyph-name="Emacron.ss01" horiz-adv-x="574" 
d="M158 870q0 32 32 32h248q32 0 32 -32v-37q0 -32 -32 -32h-248q-32 0 -32 32v37zM116 0q-33 0 -33 33v664q0 33 33 33h352q32 0 32 -32v-55q0 -31 -32 -31h-222q-20 0 -20 -21v-148q0 -21 20 -21h245q32 0 32 -32v-54q0 -32 -32 -32h-245q-20 0 -20 -20v-145q0 -21 20 -21
h238q32 0 32 -31v-55q0 -32 -32 -32h-368z" />
    <glyph glyph-name="Eogonek.ss01" horiz-adv-x="574" 
d="M246 304q-20 0 -20 -20v-145q0 -21 20 -21h238q32 0 32 -31v-55q0 -20 -14 -28q-74 -47 -74 -106q0 -17 10.5 -27t26.5 -10q7 0 23 2q21 3 21 -17v-35q0 -17 -16 -21q-25 -6 -52 -6q-51 0 -83.5 27.5t-32.5 79.5q0 65 73 109h-282q-33 0 -33 33v664q0 33 33 33h352
q32 0 32 -32v-55q0 -31 -32 -31h-222q-20 0 -20 -21v-148q0 -21 20 -21h245q32 0 32 -32v-54q0 -32 -32 -32h-245z" />
    <glyph glyph-name="G.ss01" horiz-adv-x="836" 
d="M770 356q32 0 32 -32v-42q0 -32 -32 -32h-8q-21 -116 -109.5 -188t-228.5 -72q-163 0 -273.5 107.5t-110.5 272.5q0 162 108.5 266t271.5 104q131 0 226.5 -72t118.5 -187q3 -16 -5 -25.5t-24 -9.5h-82q-26 0 -34 28q-19 63 -72 100t-128 37q-99 0 -165.5 -69t-66.5 -177
t68 -177t168 -69q158 0 203 131h-152q-32 0 -32 32v42q0 32 32 32h295z" />
    <glyph glyph-name="Gbreve.ss01" horiz-adv-x="836" 
d="M425 776q-66 0 -114.5 33.5t-62.5 92.5q-7 32 30 34h42q24 0 34 -28q19 -40 71 -40q51 0 72 40q12 28 35 28h40q36 -2 30 -34q-13 -58 -60 -92t-117 -34zM770 356q32 0 32 -32v-42q0 -32 -32 -32h-8q-21 -116 -109.5 -188t-228.5 -72q-163 0 -273.5 107.5t-110.5 272.5
q0 162 108.5 266t271.5 104q131 0 226.5 -72t118.5 -187q3 -16 -5 -25.5t-24 -9.5h-82q-26 0 -34 28q-19 63 -72 100t-128 37q-99 0 -165.5 -69t-66.5 -177t68 -177t168 -69q158 0 203 131h-152q-32 0 -32 32v42q0 32 32 32h295z" />
    <glyph glyph-name="Gcommaaccent.ss01" horiz-adv-x="836" 
d="M770 356q32 0 32 -32v-42q0 -32 -32 -32h-8q-21 -116 -109.5 -188t-228.5 -72q-163 0 -273.5 107.5t-110.5 272.5q0 162 108.5 266t271.5 104q131 0 226.5 -72t118.5 -187q3 -16 -5 -25.5t-24 -9.5h-82q-26 0 -34 28q-19 63 -72 100t-128 37q-99 0 -165.5 -69t-66.5 -177
t68 -177t168 -69q158 0 203 131h-152q-32 0 -32 32v42q0 32 32 32h295zM457 -33q17 0 24 -9.5t2 -26.5l-47 -150q-8 -26 -36 -26h-29q-35 0 -29 34l24 149q3 29 33 29h58z" />
    <glyph glyph-name="Gdotaccent.ss01" horiz-adv-x="836" 
d="M423 774q-39 0 -65.5 27.5t-26.5 66.5q0 38 26.5 64.5t65.5 26.5q38 0 65.5 -27t27.5 -64q0 -39 -27.5 -66.5t-65.5 -27.5zM770 356q32 0 32 -32v-42q0 -32 -32 -32h-8q-21 -116 -109.5 -188t-228.5 -72q-163 0 -273.5 107.5t-110.5 272.5q0 162 108.5 266t271.5 104
q131 0 226.5 -72t118.5 -187q3 -16 -5 -25.5t-24 -9.5h-82q-26 0 -34 28q-19 63 -72 100t-128 37q-99 0 -165.5 -69t-66.5 -177t68 -177t168 -69q158 0 203 131h-152q-32 0 -32 32v42q0 32 32 32h295z" />
    <glyph glyph-name="I.ss01" horiz-adv-x="436" 
d="M77 0q-31 0 -31 32v57q0 32 31 32h50q19 0 19 19v449q0 20 -19 20h-50q-31 0 -31 32v57q0 32 31 32h281q32 0 32 -32v-57q0 -32 -32 -32h-49q-19 0 -19 -20v-449q0 -19 19 -19h49q32 0 32 -32v-57q0 -32 -32 -32h-281z" />
    <glyph glyph-name="Iacute.ss01" horiz-adv-x="436" 
d="M305 936q32 11 40 -20l15 -62q8 -31 -25 -36l-196 -31q-29 -3 -39 23l-4 17q-9 30 20 40zM77 0q-31 0 -31 32v57q0 32 31 32h50q19 0 19 19v449q0 20 -19 20h-50q-31 0 -31 32v57q0 32 31 32h281q32 0 32 -32v-57q0 -32 -32 -32h-49q-19 0 -19 -20v-449q0 -19 19 -19h49
q32 0 32 -32v-57q0 -32 -32 -32h-281z" />
    <glyph glyph-name="Icircumflex.ss01" horiz-adv-x="436" 
d="M37 822q-14 29 12 42l138 74q29 15 57 1l144 -75q28 -12 13 -42l-10 -19q-12 -25 -40 -16l-107 37q-27 9 -55 0l-102 -36q-29 -10 -41 15zM77 0q-31 0 -31 32v57q0 32 31 32h50q19 0 19 19v449q0 20 -19 20h-50q-31 0 -31 32v57q0 32 31 32h281q32 0 32 -32v-57
q0 -32 -32 -32h-49q-19 0 -19 -20v-449q0 -19 19 -19h49q32 0 32 -32v-57q0 -32 -32 -32h-281z" />
    <glyph glyph-name="Idieresis.ss01" horiz-adv-x="436" 
d="M99 764q-35 0 -58.5 24.5t-23.5 61.5q0 33 24 57t58 24t59 -24t25 -57q0 -36 -25 -61t-59 -25zM333 764q-34 0 -58.5 25t-24.5 61q0 33 25 57t58 24q35 0 60 -24t25 -57q0 -36 -25 -61t-60 -25zM77 0q-31 0 -31 32v57q0 32 31 32h50q19 0 19 19v449q0 20 -19 20h-50
q-31 0 -31 32v57q0 32 31 32h281q32 0 32 -32v-57q0 -32 -32 -32h-49q-19 0 -19 -20v-449q0 -19 19 -19h49q32 0 32 -32v-57q0 -32 -32 -32h-281z" />
    <glyph glyph-name="Idotaccent.ss01" horiz-adv-x="436" 
d="M219 774q-39 0 -65.5 27.5t-26.5 66.5q0 38 26.5 64.5t65.5 26.5q38 0 65.5 -27t27.5 -64q0 -39 -27.5 -66.5t-65.5 -27.5zM77 0q-31 0 -31 32v57q0 32 31 32h50q19 0 19 19v449q0 20 -19 20h-50q-31 0 -31 32v57q0 32 31 32h281q32 0 32 -32v-57q0 -32 -32 -32h-49
q-19 0 -19 -20v-449q0 -19 19 -19h49q32 0 32 -32v-57q0 -32 -32 -32h-281z" />
    <glyph glyph-name="Igrave.ss01" horiz-adv-x="436" 
d="M87 919q9 33 41 20l189 -73q28 -12 20 -41l-7 -16q-7 -27 -38 -24l-197 36q-31 7 -24 38zM77 0q-31 0 -31 32v57q0 32 31 32h50q19 0 19 19v449q0 20 -19 20h-50q-31 0 -31 32v57q0 32 31 32h281q32 0 32 -32v-57q0 -32 -32 -32h-49q-19 0 -19 -20v-449q0 -19 19 -19h49
q32 0 32 -32v-57q0 -32 -32 -32h-281z" />
    <glyph glyph-name="Imacron.ss01" horiz-adv-x="436" 
d="M63 870q0 32 32 32h248q32 0 32 -32v-37q0 -32 -32 -32h-248q-32 0 -32 32v37zM77 0q-31 0 -31 32v57q0 32 31 32h50q19 0 19 19v449q0 20 -19 20h-50q-31 0 -31 32v57q0 32 31 32h281q32 0 32 -32v-57q0 -32 -32 -32h-49q-19 0 -19 -20v-449q0 -19 19 -19h49
q32 0 32 -32v-57q0 -32 -32 -32h-281z" />
    <glyph glyph-name="Iogonek.ss01" horiz-adv-x="436" 
d="M309 609q-19 0 -19 -20v-449q0 -19 19 -19h49q32 0 32 -32v-57q0 -32 -32 -32h-77q-74 -47 -74 -106q0 -17 10.5 -27t26.5 -10q7 0 23 2q21 3 21 -17v-35q0 -17 -16 -21q-26 -6 -52 -6q-51 0 -83.5 27.5t-32.5 79.5q0 69 80 113h-107q-31 0 -31 32v57q0 32 31 32h50
q19 0 19 19v449q0 20 -19 20h-50q-31 0 -31 32v57q0 32 31 32h281q32 0 32 -32v-57q0 -32 -32 -32h-49z" />
    <glyph glyph-name="Itilde.ss01" horiz-adv-x="436" 
d="M373 905q29 -5 26 -36q-6 -38 -35 -60t-68 -22q-33 0 -73.5 17.5t-51.5 17.5q-19 0 -31 -16q-10 -17 -35 -13l-32 6q-31 6 -26 37q7 40 33.5 63t63.5 22q28 -1 74.5 -18.5t59.5 -17.5q21 0 32 15q7 15 32 11zM77 0q-31 0 -31 32v57q0 32 31 32h50q19 0 19 19v449
q0 20 -19 20h-50q-31 0 -31 32v57q0 32 31 32h281q32 0 32 -32v-57q0 -32 -32 -32h-49q-19 0 -19 -20v-449q0 -19 19 -19h49q32 0 32 -32v-57q0 -32 -32 -32h-281z" />
    <glyph glyph-name="J.ss01" horiz-adv-x="467" 
d="M361 730q31 0 31 -32v-418q0 -136 -89 -219t-247 -92q-33 -2 -33 32v68q0 30 32 33q93 7 143 54t50 124v418q0 32 32 32h81z" />
    <glyph glyph-name="uni00A40301.ss01" horiz-adv-x="467" 
d="M400 936q32 11 40 -20l15 -62q8 -31 -25 -36l-196 -31q-29 -3 -39 23l-4 17q-9 30 20 40zM361 730q31 0 31 -32v-418q0 -136 -89 -219t-247 -92q-33 -2 -33 32v68q0 30 32 33q93 7 143 54t50 124v418q0 32 32 32h81z" />
    <glyph glyph-name="K.ss01" horiz-adv-x="694" 
d="M83 32v666q0 32 32 32h81q31 0 31 -32v-666q0 -32 -31 -32h-81q-32 0 -32 32zM242 330q-8 11 -8 28v22q0 18 8 27l245 304q14 19 39 19h87q20 0 25.5 -11.5t-7.5 -27.5l-250 -305q-10 -14 0 -28l188 -228q15 -19 39 -19h52q32 0 32 -32v-47q0 -32 -32 -32h-134
q-25 0 -40 19z" />
    <glyph glyph-name="Kcommaaccent.ss01" horiz-adv-x="694" 
d="M83 32v666q0 32 32 32h81q31 0 31 -32v-666q0 -32 -31 -32h-81q-32 0 -32 32zM242 330q-8 11 -8 28v22q0 18 8 27l245 304q14 19 39 19h87q20 0 25.5 -11.5t-7.5 -27.5l-250 -305q-10 -14 0 -28l188 -228q15 -19 39 -19h52q32 0 32 -32v-47q0 -32 -32 -32h-134
q-25 0 -40 19zM289 -62q3 29 33 29h58q17 0 24 -9.5t2 -26.5l-47 -150q-8 -26 -36 -26h-29q-35 0 -29 34z" />
    <glyph glyph-name="N.ss01" horiz-adv-x="801" 
d="M115 0q-32 0 -32 32v665q0 33 33 33h46q23 0 41 -18l354 -383q11 -12 20 -8t9 20v357q0 32 32 32h68q31 0 31 -32v-666q0 -32 -31 -32h-68q-32 0 -32 32v74q0 18 -12 29l-331 352q-11 12 -20 8.5t-9 -19.5v-444q0 -32 -32 -32h-67z" />
    <glyph glyph-name="Nacute.ss01" horiz-adv-x="801" 
d="M480 936q32 11 40 -20l15 -62q8 -31 -25 -36l-196 -31q-29 -3 -39 23l-4 17q-9 30 20 40zM115 0q-32 0 -32 32v665q0 33 33 33h46q23 0 41 -18l354 -383q11 -12 20 -8t9 20v357q0 32 32 32h68q31 0 31 -32v-666q0 -32 -31 -32h-68q-32 0 -32 32v74q0 18 -12 29l-331 352
q-11 12 -20 8.5t-9 -19.5v-444q0 -32 -32 -32h-67z" />
    <glyph glyph-name="Ncaron.ss01" horiz-adv-x="801" 
d="M229 902l3 14q2 13 14.5 18.5t25.5 -0.5l109 -34q13 -4 27 0l109 34q14 5 26 0t15 -18l3 -14q5 -31 -15 -41l-115 -57q-36 -18 -73 0l-115 57q-21 10 -14 41zM115 0q-32 0 -32 32v665q0 33 33 33h46q23 0 41 -18l354 -383q11 -12 20 -8t9 20v357q0 32 32 32h68
q31 0 31 -32v-666q0 -32 -31 -32h-68q-32 0 -32 32v74q0 18 -12 29l-331 352q-11 12 -20 8.5t-9 -19.5v-444q0 -32 -32 -32h-67z" />
    <glyph glyph-name="Ncommaaccent.ss01" horiz-adv-x="801" 
d="M115 0q-32 0 -32 32v665q0 33 33 33h46q23 0 41 -18l354 -383q11 -12 20 -8t9 20v357q0 32 32 32h68q31 0 31 -32v-666q0 -32 -31 -32h-68q-32 0 -32 32v74q0 18 -12 29l-331 352q-11 12 -20 8.5t-9 -19.5v-444q0 -32 -32 -32h-67zM334 -62q3 29 33 29h58q17 0 24 -9.5
t2 -26.5l-47 -150q-8 -26 -36 -26h-29q-35 0 -29 34z" />
    <glyph glyph-name="Ntilde.ss01" horiz-adv-x="801" 
d="M548 905q29 -5 26 -36q-6 -38 -35 -60t-68 -22q-33 0 -73.5 17.5t-51.5 17.5q-19 0 -31 -16q-10 -17 -35 -13l-32 6q-31 6 -26 37q7 40 33.5 63t63.5 22q28 -1 74.5 -18.5t59.5 -17.5q21 0 32 15q7 15 32 11zM115 0q-32 0 -32 32v665q0 33 33 33h46q23 0 41 -18l354 -383
q11 -12 20 -8t9 20v357q0 32 32 32h68q31 0 31 -32v-666q0 -32 -31 -32h-68q-32 0 -32 32v74q0 18 -12 29l-331 352q-11 12 -20 8.5t-9 -19.5v-444q0 -32 -32 -32h-67z" />
    <glyph glyph-name="Q.ss01" horiz-adv-x="863" 
d="M40 368q0 161 111 266.5t280 105.5t280.5 -105.5t111.5 -266.5q0 -136 -78 -236t-203 -130q-5 -1 -8 -4.5t-2.5 -8t5.5 -8.5l13 -11q49 -42 127 -42q31 0 61 5q33 8 38 -26l5 -46q3 -33 -26 -39q-37 -6 -83 -6q-114 0 -206 88l-81 75q-15 15 -38 19q-137 27 -222 127.5
t-85 242.5zM188 368q0 -110 68 -180.5t175 -70.5q108 0 176 70.5t68 180.5q0 108 -68 176.5t-176 68.5q-107 0 -175 -68.5t-68 -176.5z" />
    <glyph glyph-name="R.ss01" horiz-adv-x="655" 
d="M83 32v665q0 33 34 33h184q130 0 215 -68.5t85 -176.5q0 -79 -50 -135.5t-134 -82.5l-19 -5q-25 -8 -6 -26l112 -113q12 -13 30 -13l52 1q32 0 32 -32v-47q0 -32 -32 -32h-132q-19 0 -29 14l-173 206q-9 11 -17 8t-8 -17v-179q0 -32 -31 -32h-81q-32 0 -32 32zM227 385
q0 -24 24 -24h50q70 0 111.5 35t41.5 89q0 55 -41.5 90.5t-111.5 35.5h-50q-24 0 -24 -24v-202z" />
    <glyph glyph-name="Racute.ss01" horiz-adv-x="655" 
d="M396 936q32 11 40 -20l15 -62q8 -31 -25 -36l-196 -31q-29 -3 -39 23l-4 17q-9 30 20 40zM83 32v665q0 33 34 33h184q130 0 215 -68.5t85 -176.5q0 -79 -50 -135.5t-134 -82.5l-19 -5q-25 -8 -6 -26l112 -113q12 -13 30 -13l52 1q32 0 32 -32v-47q0 -32 -32 -32h-132
q-19 0 -29 14l-173 206q-9 11 -17 8t-8 -17v-179q0 -32 -31 -32h-81q-32 0 -32 32zM227 385q0 -24 24 -24h50q70 0 111.5 35t41.5 89q0 55 -41.5 90.5t-111.5 35.5h-50q-24 0 -24 -24v-202z" />
    <glyph glyph-name="Rcaron.ss01" horiz-adv-x="655" 
d="M145 902l3 14q2 13 14.5 18.5t25.5 -0.5l109 -34q13 -4 27 0l109 34q14 5 26 0t15 -18l3 -14q5 -31 -15 -41l-115 -57q-37 -18 -73 0l-115 57q-21 10 -14 41zM83 32v665q0 33 34 33h184q130 0 215 -68.5t85 -176.5q0 -79 -50 -135.5t-134 -82.5l-19 -5q-25 -8 -6 -26
l112 -113q12 -13 30 -13l52 1q32 0 32 -32v-47q0 -32 -32 -32h-132q-19 0 -29 14l-173 206q-9 11 -17 8t-8 -17v-179q0 -32 -31 -32h-81q-32 0 -32 32zM227 385q0 -24 24 -24h50q70 0 111.5 35t41.5 89q0 55 -41.5 90.5t-111.5 35.5h-50q-24 0 -24 -24v-202z" />
    <glyph glyph-name="Rcommaaccent.ss01" horiz-adv-x="655" 
d="M83 32v665q0 33 34 33h184q130 0 215 -68.5t85 -176.5q0 -79 -50 -135.5t-134 -82.5l-19 -5q-25 -8 -6 -26l112 -113q12 -13 30 -13l52 1q32 0 32 -32v-47q0 -32 -32 -32h-132q-19 0 -29 14l-173 206q-9 11 -17 8t-8 -17v-179q0 -32 -31 -32h-81q-32 0 -32 32zM227 385
q0 -24 24 -24h50q70 0 111.5 35t41.5 89q0 55 -41.5 90.5t-111.5 35.5h-50q-24 0 -24 -24v-202zM268 -62q3 29 33 29h58q17 0 24 -9.5t2 -26.5l-47 -150q-8 -26 -36 -26h-29q-35 0 -29 34z" />
    <glyph glyph-name="W.ss01" horiz-adv-x="978" 
d="M19 695q-5 16 2.5 25.5t24.5 9.5h75q28 0 35 -27l119 -469q2 -9 7 -13t10.5 -0.5t8.5 12.5l134 353q4 13 0 27l-29 81q-5 16 2 26t24 10h66q27 0 36 -26l152 -468q5 -14 13 -14t12 14l124 467q7 27 36 27h65q17 0 23.5 -9.5t2.5 -25.5l-195 -667q-7 -28 -38 -28h-50
q-29 0 -39 27l-131 371q-3 9 -8 12t-10 -0.5t-8 -11.5l-142 -372q-10 -26 -38 -26h-52q-29 0 -38 28z" />
    <glyph glyph-name="Wacute.ss01" horiz-adv-x="978" 
d="M574 936q32 11 40 -20l15 -62q8 -31 -25 -36l-196 -31q-29 -3 -39 23l-4 17q-9 30 20 40zM19 695q-5 16 2.5 25.5t24.5 9.5h75q28 0 35 -27l119 -469q2 -9 7 -13t10.5 -0.5t8.5 12.5l134 353q4 13 0 27l-29 81q-5 16 2 26t24 10h66q27 0 36 -26l152 -468q5 -14 13 -14
t12 14l124 467q7 27 36 27h65q17 0 23.5 -9.5t2.5 -25.5l-195 -667q-7 -28 -38 -28h-50q-29 0 -39 27l-131 371q-3 9 -8 12t-10 -0.5t-8 -11.5l-142 -372q-10 -26 -38 -26h-52q-29 0 -38 28z" />
    <glyph glyph-name="Wcircumflex.ss01" horiz-adv-x="978" 
d="M306 822q-14 29 12 42l138 74q29 15 57 1l144 -75q28 -12 13 -42l-10 -19q-12 -25 -40 -16l-107 37q-27 9 -55 0l-102 -36q-29 -10 -41 15zM19 695q-5 16 2.5 25.5t24.5 9.5h75q28 0 35 -27l119 -469q2 -9 7 -13t10.5 -0.5t8.5 12.5l134 353q4 13 0 27l-29 81q-5 16 2 26
t24 10h66q27 0 36 -26l152 -468q5 -14 13 -14t12 14l124 467q7 27 36 27h65q17 0 23.5 -9.5t2.5 -25.5l-195 -667q-7 -28 -38 -28h-50q-29 0 -39 27l-131 371q-3 9 -8 12t-10 -0.5t-8 -11.5l-142 -372q-10 -26 -38 -26h-52q-29 0 -38 28z" />
    <glyph glyph-name="Wdieresis.ss01" horiz-adv-x="978" 
d="M368 764q-35 0 -58.5 24.5t-23.5 61.5q0 33 24 57t58 24t59 -24t25 -57q0 -36 -25 -61t-59 -25zM602 764q-34 0 -58.5 25t-24.5 61q0 33 25 57t58 24q35 0 60 -24t25 -57q0 -36 -24.5 -61t-60.5 -25zM19 695q-5 16 2.5 25.5t24.5 9.5h75q28 0 35 -27l119 -469q2 -9 7 -13
t10.5 -0.5t8.5 12.5l134 353q4 13 0 27l-29 81q-5 16 2 26t24 10h66q27 0 36 -26l152 -468q5 -14 13 -14t12 14l124 467q7 27 36 27h65q17 0 23.5 -9.5t2.5 -25.5l-195 -667q-7 -28 -38 -28h-50q-29 0 -39 27l-131 371q-3 9 -8 12t-10 -0.5t-8 -11.5l-142 -372
q-10 -26 -38 -26h-52q-29 0 -38 28z" />
    <glyph glyph-name="Wgrave.ss01" horiz-adv-x="978" 
d="M356 919q9 33 41 20l189 -73q28 -12 20 -41l-7 -16q-7 -27 -38 -24l-197 36q-31 7 -24 38zM19 695q-5 16 2.5 25.5t24.5 9.5h75q28 0 35 -27l119 -469q2 -9 7 -13t10.5 -0.5t8.5 12.5l134 353q4 13 0 27l-29 81q-5 16 2 26t24 10h66q27 0 36 -26l152 -468q5 -14 13 -14
t12 14l124 467q7 27 36 27h65q17 0 23.5 -9.5t2.5 -25.5l-195 -667q-7 -28 -38 -28h-50q-29 0 -39 27l-131 371q-3 9 -8 12t-10 -0.5t-8 -11.5l-142 -372q-10 -26 -38 -26h-52q-29 0 -38 28z" />
    <glyph glyph-name="i.loclTRK" horiz-adv-x="278" 
d="M145 588q-39 0 -65.5 27.5t-26.5 66.5q0 38 26.5 64.5t65.5 26.5q38 0 65.5 -27t27.5 -64q0 -39 -27.5 -66.5t-65.5 -27.5zM176 520q32 0 32 -32v-456q0 -32 -32 -32h-75q-32 0 -32 32v456q0 32 32 32h75z" />
    <glyph glyph-name="uni006A0301" horiz-adv-x="285" 
d="M213 764q29 18 43 -12l27 -57q14 -29 -17 -41l-185 -70q-29 -9 -43 15l-8 16q-14 27 12 43zM62 -217q-25 0 -61 4q-30 5 -27 36l5 55q3 31 22 28q4 0 10.5 -0.5t9.5 -0.5q56 0 56 63v520q0 32 32 32h75q31 0 31 -32v-532q0 -78 -42 -125.5t-111 -47.5z" />
    <glyph glyph-name="a.ss01" horiz-adv-x="659" 
d="M37 262q0 116 78.5 192t198.5 76q85 0 148 -51q20 -15 27 7l2 9q10 25 37 25h30q32 0 32 -32v-456q0 -32 -32 -32h-24q-27 0 -37 25l-5 13q-8 21 -26 5q-63 -53 -148 -53q-125 0 -203 76t-78 196zM179 262q0 -64 41 -109t103 -45q38 0 70.5 18.5t51.5 48.5q6 10 6 24v122
q0 16 -7 25q-19 30 -51.5 48t-69.5 18q-61 0 -102.5 -43t-41.5 -107z" />
    <glyph glyph-name="aacute.ss01" horiz-adv-x="659" 
d="M389 764q29 18 43 -12l27 -57q14 -29 -17 -41l-185 -70q-29 -9 -43 15l-8 16q-14 27 12 43zM37 262q0 116 78.5 192t198.5 76q85 0 148 -51q20 -15 27 7l2 9q10 25 37 25h30q32 0 32 -32v-456q0 -32 -32 -32h-24q-27 0 -37 25l-5 13q-8 21 -26 5q-63 -53 -148 -53
q-125 0 -203 76t-78 196zM179 262q0 -64 41 -109t103 -45q38 0 70.5 18.5t51.5 48.5q6 10 6 24v122q0 16 -7 25q-19 30 -51.5 48t-69.5 18q-61 0 -102.5 -43t-41.5 -107z" />
    <glyph glyph-name="abreve.ss01" horiz-adv-x="659" 
d="M220 742q24 0 34 -28q19 -40 71 -40q51 0 72 40q12 28 35 28h40q36 -2 30 -34q-13 -58 -60 -92t-117 -34q-66 0 -114.5 33.5t-62.5 92.5q-7 32 30 34h42zM37 262q0 116 78.5 192t198.5 76q85 0 148 -51q20 -15 27 7l2 9q10 25 37 25h30q32 0 32 -32v-456q0 -32 -32 -32
h-24q-27 0 -37 25l-5 13q-8 21 -26 5q-63 -53 -148 -53q-125 0 -203 76t-78 196zM179 262q0 -64 41 -109t103 -45q38 0 70.5 18.5t51.5 48.5q6 10 6 24v122q0 16 -7 25q-19 30 -51.5 48t-69.5 18q-61 0 -102.5 -43t-41.5 -107z" />
    <glyph glyph-name="acircumflex.ss01" horiz-adv-x="659" 
d="M152 638q-13 28 12 41l133 71q28 15 55 1l140 -72q27 -13 12 -41l-9 -18q-12 -26 -39 -16l-104 36q-25 9 -53 0l-98 -35q-28 -10 -40 15zM37 262q0 116 78.5 192t198.5 76q85 0 148 -51q20 -15 27 7l2 9q10 25 37 25h30q32 0 32 -32v-456q0 -32 -32 -32h-24q-27 0 -37 25
l-5 13q-8 21 -26 5q-63 -53 -148 -53q-125 0 -203 76t-78 196zM179 262q0 -64 41 -109t103 -45q38 0 70.5 18.5t51.5 48.5q6 10 6 24v122q0 16 -7 25q-19 30 -51.5 48t-69.5 18q-61 0 -102.5 -43t-41.5 -107z" />
    <glyph glyph-name="adieresis.ss01" horiz-adv-x="659" 
d="M217 598q-32 0 -54 22.5t-22 56.5q0 31 22.5 53t53.5 22q32 0 55 -22t23 -53q0 -33 -23 -56t-55 -23zM433 598q-31 0 -54 23t-23 56q0 31 23 53t54 22q32 0 55 -22t23 -53q0 -33 -22.5 -56t-55.5 -23zM37 262q0 116 78.5 192t198.5 76q85 0 148 -51q20 -15 27 7l2 9
q10 25 37 25h30q32 0 32 -32v-456q0 -32 -32 -32h-24q-27 0 -37 25l-5 13q-8 21 -26 5q-63 -53 -148 -53q-125 0 -203 76t-78 196zM179 262q0 -64 41 -109t103 -45q38 0 70.5 18.5t51.5 48.5q6 10 6 24v122q0 16 -7 25q-19 30 -51.5 48t-69.5 18q-61 0 -102.5 -43
t-41.5 -107z" />
    <glyph glyph-name="agrave.ss01" horiz-adv-x="659" 
d="M222 754q14 30 43 12l173 -106q26 -17 12 -44l-9 -15q-13 -25 -42 -16l-187 71q-30 12 -17 42zM37 262q0 116 78.5 192t198.5 76q85 0 148 -51q20 -15 27 7l2 9q10 25 37 25h30q32 0 32 -32v-456q0 -32 -32 -32h-24q-27 0 -37 25l-5 13q-8 21 -26 5q-63 -53 -148 -53
q-125 0 -203 76t-78 196zM179 262q0 -64 41 -109t103 -45q38 0 70.5 18.5t51.5 48.5q6 10 6 24v122q0 16 -7 25q-19 30 -51.5 48t-69.5 18q-61 0 -102.5 -43t-41.5 -107z" />
    <glyph glyph-name="amacron.ss01" horiz-adv-x="659" 
d="M169 673q0 32 32 32h248q32 0 32 -32v-37q0 -32 -32 -32h-248q-32 0 -32 32v37zM37 262q0 116 78.5 192t198.5 76q85 0 148 -51q20 -15 27 7l2 9q10 25 37 25h30q32 0 32 -32v-456q0 -32 -32 -32h-24q-27 0 -37 25l-5 13q-8 21 -26 5q-63 -53 -148 -53q-125 0 -203 76
t-78 196zM179 262q0 -64 41 -109t103 -45q38 0 70.5 18.5t51.5 48.5q6 10 6 24v122q0 16 -7 25q-19 30 -51.5 48t-69.5 18q-61 0 -102.5 -43t-41.5 -107z" />
    <glyph glyph-name="aogonek.ss01" horiz-adv-x="659" 
d="M573 3q-72 -48 -72 -105q0 -17 10.5 -27t26.5 -10q7 0 23 2q21 3 21 -17v-35q0 -17 -16 -21q-26 -6 -52 -6q-51 0 -83.5 27.5t-32.5 79.5q0 79 104 125q-4 6 -5 9l-5 13q-8 21 -26 5q-63 -53 -148 -53q-125 0 -203 76t-78 196q0 116 78.5 192t198.5 76q85 0 148 -51
q20 -15 27 7l2 9q10 25 37 25h30q32 0 32 -32v-456q0 -21 -17 -29zM451 199v122q0 16 -7 25q-19 30 -51.5 48t-69.5 18q-61 0 -102.5 -43t-41.5 -107t41 -109t103 -45q38 0 70.5 18.5t51.5 48.5q6 10 6 24z" />
    <glyph glyph-name="aring.ss01" horiz-adv-x="659" 
d="M324 570q-59 0 -92.5 32t-33.5 79t34 79t92 32q59 0 93 -32t34 -79t-34 -79t-93 -32zM324 642q19 0 31 11t12 28t-12 29t-31 12t-30.5 -12t-10.5 -29q-1 -17 10.5 -28t30.5 -11zM37 262q0 116 78.5 192t198.5 76q85 0 148 -51q20 -15 27 7l2 9q10 25 37 25h30
q32 0 32 -32v-456q0 -32 -32 -32h-24q-27 0 -37 25l-5 13q-8 21 -26 5q-63 -53 -148 -53q-125 0 -203 76t-78 196zM179 262q0 -64 41 -109t103 -45q38 0 70.5 18.5t51.5 48.5q6 10 6 24v122q0 16 -7 25q-19 30 -51.5 48t-69.5 18q-61 0 -102.5 -43t-41.5 -107z" />
    <glyph glyph-name="atilde.ss01" horiz-adv-x="659" 
d="M473 695q29 -5 26 -36q-6 -38 -35 -60t-68 -22q-33 0 -73.5 17.5t-51.5 17.5q-19 0 -31 -16q-10 -17 -35 -13l-32 6q-31 6 -26 37q7 40 33.5 63t63.5 22q28 -1 74.5 -18.5t59.5 -17.5q21 0 32 15q7 15 32 11zM37 262q0 116 78.5 192t198.5 76q85 0 148 -51q20 -15 27 7
l2 9q10 25 37 25h30q32 0 32 -32v-456q0 -32 -32 -32h-24q-27 0 -37 25l-5 13q-8 21 -26 5q-63 -53 -148 -53q-125 0 -203 76t-78 196zM179 262q0 -64 41 -109t103 -45q38 0 70.5 18.5t51.5 48.5q6 10 6 24v122q0 16 -7 25q-19 30 -51.5 48t-69.5 18q-61 0 -102.5 -43
t-41.5 -107z" />
    <glyph glyph-name="k.ss01" horiz-adv-x="614" 
d="M101 0q-32 0 -32 32v716q0 32 32 32h75q31 0 31 -32v-424q0 -13 8 -16t17 7l174 187q15 18 39 18h82q21 0 26 -11.5t-9 -27.5l-158 -164q-12 -14 -2 -29l111 -155q10 -16 30 -16h48q32 0 32 -32v-53q0 -32 -32 -32h-130q-18 0 -29 16l-115 178q-13 20 -27 2l-55 -56
q-10 -10 -10 -24v-84q0 -32 -31 -32h-75z" />
    <glyph glyph-name="kcommaaccent.ss01" horiz-adv-x="614" 
d="M101 0q-32 0 -32 32v716q0 32 32 32h75q31 0 31 -32v-424q0 -13 8 -16t17 7l174 187q15 18 39 18h82q21 0 26 -11.5t-9 -27.5l-158 -164q-12 -14 -2 -29l111 -155q10 -16 30 -16h48q32 0 32 -32v-53q0 -32 -32 -32h-130q-18 0 -29 16l-115 178q-13 20 -27 2l-55 -56
q-10 -10 -10 -24v-84q0 -32 -31 -32h-75zM250 -62q3 29 33 29h58q17 0 24 -9.5t2 -26.5l-47 -150q-8 -26 -36 -26h-29q-35 0 -29 34z" />
    <glyph glyph-name="l.ss01" horiz-adv-x="363" 
d="M65 175v573q0 32 32 32h75q32 0 32 -32v-570q0 -66 55 -66q29 0 53 7q33 9 37 -23l6 -53q3 -31 -23 -38q-47 -15 -99 -15q-76 0 -122 44t-46 141z" />
    <glyph glyph-name="lacute.ss01" horiz-adv-x="363" 
d="M215 986q32 11 40 -20l15 -62q8 -31 -25 -36l-196 -31q-29 -3 -39 23l-4 17q-9 30 20 40zM65 175v573q0 32 32 32h75q32 0 32 -32v-570q0 -66 55 -66q29 0 53 7q33 9 37 -23l6 -53q3 -31 -23 -38q-47 -15 -99 -15q-76 0 -122 44t-46 141z" />
    <glyph glyph-name="lcaron.ss01" horiz-adv-x="363" 
d="M317 646q29 0 34 29l32 173q6 35 -28 35h-52q-30 0 -33 -30l-17 -173q-3 -34 30 -34h34zM65 175v573q0 32 32 32h75q32 0 32 -32v-570q0 -66 55 -66q29 0 53 7q33 9 37 -23l6 -53q3 -31 -23 -38q-47 -15 -99 -15q-76 0 -122 44t-46 141z" />
    <glyph glyph-name="lcommaaccent.ss01" horiz-adv-x="363" 
d="M65 175v573q0 32 32 32h75q32 0 32 -32v-570q0 -66 55 -66q29 0 53 7q33 9 37 -23l6 -53q3 -31 -23 -38q-47 -15 -99 -15q-76 0 -122 44t-46 141zM145 -62q3 29 33 29h58q17 0 24 -9.5t2 -26.5l-47 -150q-8 -26 -36 -26h-29q-35 0 -29 34z" />
    <glyph glyph-name="ldot.ss01" horiz-adv-x="408" 
d="M65 175v573q0 32 32 32h75q32 0 32 -32v-570q0 -66 55 -66q29 0 53 7q33 9 37 -23l6 -53q3 -31 -23 -38q-47 -15 -99 -15q-76 0 -122 44t-46 141zM335 264q-35 0 -59 25t-24 61q0 32 24.5 56t58.5 24t58.5 -24t24.5 -56q0 -36 -24 -61t-59 -25z" />
    <glyph glyph-name="lslash.ss01" horiz-adv-x="363" 
d="M355 43q3 -31 -23 -38q-47 -15 -99 -15q-76 0 -122 44t-46 141v150l-45 -17q-28 -11 -38 18l-9 28q-9 29 18 39l74 28v327q0 32 32 32h75q32 0 32 -32v-275l52 19q27 11 38 -17l10 -27q11 -27 -17 -38l-83 -32v-200q0 -66 55 -66q29 0 53 7q33 9 37 -23z" />
    <glyph glyph-name="t.ss01" horiz-adv-x="543" 
d="M54 403q-31 0 -31 32v53q0 32 32 32h24q20 0 20 20v66q0 29 27 35l71 18q16 4 25.5 -3.5t9.5 -23.5v-92q0 -20 20 -20h191q32 0 32 -32v-53q0 -32 -32 -32h-191q-20 0 -20 -20v-164q0 -54 24 -82.5t61 -28.5q67 0 94 61q13 26 37 26h66q16 0 24 -9t6 -25
q-15 -80 -72.5 -125.5t-146.5 -45.5q-103 0 -167 59.5t-64 169.5v164q0 20 -20 20h-20z" />
    <glyph glyph-name="tbar.ss01" horiz-adv-x="543" 
d="M514 195q16 0 24 -9t6 -25q-15 -80 -72.5 -125.5t-146.5 -45.5q-103 0 -167 59.5t-64 169.5v22h-37q-32 0 -32 32v43q0 32 32 32h37v35q0 20 -20 20h-20q-31 0 -31 32v53q0 32 32 32h24q20 0 20 20v66q0 29 27 35l71 18q16 4 25.5 -3.5t9.5 -23.5v-92q0 -20 20 -20h191
q32 0 32 -32v-53q0 -32 -32 -32h-191q-20 0 -20 -20v-35h120q32 0 32 -32v-43q0 -32 -32 -32h-120v-22q0 -54 24 -82.5t61 -28.5q67 0 94 61q13 26 37 26h66z" />
    <glyph glyph-name="tcaron.ss01" horiz-adv-x="543" 
d="M354 586q29 0 34 29l32 173q6 35 -28 35h-52q-30 0 -33 -30l-17 -173q-3 -34 30 -34h34zM54 403q-31 0 -31 32v53q0 32 32 32h24q20 0 20 20v66q0 29 27 35l71 18q16 4 25.5 -3.5t9.5 -23.5v-92q0 -20 20 -20h191q32 0 32 -32v-53q0 -32 -32 -32h-191q-20 0 -20 -20v-164
q0 -54 24 -82.5t61 -28.5q67 0 94 61q13 26 37 26h66q16 0 24 -9t6 -25q-15 -80 -72.5 -125.5t-146.5 -45.5q-103 0 -167 59.5t-64 169.5v164q0 20 -20 20h-20z" />
    <glyph glyph-name="uni0163.ss01" horiz-adv-x="543" 
d="M514 195q16 0 24 -9t6 -25q-14 -75 -65.5 -120t-132.5 -50l-2 -7q-4 -18 16 -21q33 -6 53.5 -27t20.5 -57q0 -47 -37.5 -73t-94.5 -26q-50 0 -86 19q-22 12 -9 37l3 8q10 21 37 13q18 -7 43 -7q40 0 40 28q0 29 -40 29h-16q-14 0 -20.5 9t-2.5 23l18 56q-80 16 -127.5 73
t-47.5 151v164q0 20 -20 20h-20q-31 0 -31 32v53q0 32 32 32h24q20 0 20 20v66q0 29 27 35l71 18q16 4 25.5 -3.5t9.5 -23.5v-92q0 -20 20 -20h191q32 0 32 -32v-53q0 -32 -32 -32h-191q-20 0 -20 -20v-164q0 -54 24 -82.5t61 -28.5q67 0 94 61q13 26 37 26h66z" />
    <glyph glyph-name="uni021B.ss01" horiz-adv-x="543" 
d="M54 403q-31 0 -31 32v53q0 32 32 32h24q20 0 20 20v66q0 29 27 35l71 18q16 4 25.5 -3.5t9.5 -23.5v-92q0 -20 20 -20h191q32 0 32 -32v-53q0 -32 -32 -32h-191q-20 0 -20 -20v-164q0 -54 24 -82.5t61 -28.5q67 0 94 61q13 26 37 26h66q16 0 24 -9t6 -25
q-15 -80 -72.5 -125.5t-146.5 -45.5q-103 0 -167 59.5t-64 169.5v164q0 20 -20 20h-20zM254 -62q3 29 33 29h58q17 0 24 -9.5t2 -26.5l-47 -150q-8 -26 -36 -26h-29q-35 0 -29 34z" />
    <glyph glyph-name="u.ss01" horiz-adv-x="613" 
d="M63 214v274q0 32 32 32h75q31 0 31 -32v-279q0 -44 29 -71t77 -26q48 0 76.5 26.5t28.5 70.5v279q0 32 32 32h75q32 0 32 -32v-274q0 -100 -68.5 -162t-175.5 -62t-175.5 62t-68.5 162z" />
    <glyph glyph-name="uacute.ss01" horiz-adv-x="613" 
d="M370 764q29 18 43 -12l27 -57q14 -29 -17 -41l-185 -70q-29 -9 -43 15l-8 16q-14 27 12 43zM63 214v274q0 32 32 32h75q31 0 31 -32v-279q0 -44 29 -71t77 -26q48 0 76.5 26.5t28.5 70.5v279q0 32 32 32h75q32 0 32 -32v-274q0 -100 -68.5 -162t-175.5 -62t-175.5 62
t-68.5 162z" />
    <glyph glyph-name="ucircumflex.ss01" horiz-adv-x="613" 
d="M133 638q-13 28 12 41l133 71q28 15 55 1l140 -72q27 -13 12 -41l-9 -18q-12 -26 -39 -16l-104 36q-25 9 -53 0l-98 -35q-28 -10 -40 15zM63 214v274q0 32 32 32h75q31 0 31 -32v-279q0 -44 29 -71t77 -26q48 0 76.5 26.5t28.5 70.5v279q0 32 32 32h75q32 0 32 -32v-274
q0 -100 -68.5 -162t-175.5 -62t-175.5 62t-68.5 162z" />
    <glyph glyph-name="udieresis.ss01" horiz-adv-x="613" 
d="M198 598q-32 0 -54 22.5t-22 56.5q0 31 22.5 53t53.5 22q32 0 55 -22t23 -53q0 -33 -23 -56t-55 -23zM414 598q-31 0 -54 23t-23 56q0 31 23 53t54 22q32 0 55 -22t23 -53q0 -33 -23 -56t-55 -23zM63 214v274q0 32 32 32h75q31 0 31 -32v-279q0 -44 29 -71t77 -26
q48 0 76.5 26.5t28.5 70.5v279q0 32 32 32h75q32 0 32 -32v-274q0 -100 -68.5 -162t-175.5 -62t-175.5 62t-68.5 162z" />
    <glyph glyph-name="ugrave.ss01" horiz-adv-x="613" 
d="M203 754q14 30 43 12l173 -106q26 -17 12 -44l-9 -15q-14 -25 -42 -16l-187 71q-30 12 -17 42zM63 214v274q0 32 32 32h75q31 0 31 -32v-279q0 -44 29 -71t77 -26q48 0 76.5 26.5t28.5 70.5v279q0 32 32 32h75q32 0 32 -32v-274q0 -100 -68.5 -162t-175.5 -62t-175.5 62
t-68.5 162z" />
    <glyph glyph-name="uhungarumlaut.ss01" horiz-adv-x="613" 
d="M191 713q9 24 37 24h66q19 0 24.5 -11t-4.5 -27l-57 -89q-13 -21 -38 -21h-38q-18 0 -24.5 10t-0.5 26zM376 713q9 24 37 24h66q19 0 25 -11t-4 -27l-57 -89q-13 -21 -38 -21h-39q-18 0 -24.5 10t-0.5 26zM63 214v274q0 32 32 32h75q31 0 31 -32v-279q0 -44 29 -71
t77 -26q48 0 76.5 26.5t28.5 70.5v279q0 32 32 32h75q32 0 32 -32v-274q0 -100 -68.5 -162t-175.5 -62t-175.5 62t-68.5 162z" />
    <glyph glyph-name="umacron.ss01" horiz-adv-x="613" 
d="M150 673q0 32 32 32h248q32 0 32 -32v-37q0 -32 -32 -32h-248q-32 0 -32 32v37zM63 214v274q0 32 32 32h75q31 0 31 -32v-279q0 -44 29 -71t77 -26q48 0 76.5 26.5t28.5 70.5v279q0 32 32 32h75q32 0 32 -32v-274q0 -100 -68.5 -162t-175.5 -62t-175.5 62t-68.5 162z" />
    <glyph glyph-name="uogonek.ss01" horiz-adv-x="613" 
d="M519 520q32 0 32 -32v-274q0 -82 -47.5 -140t-126.5 -76q-71 -47 -71 -104q0 -17 10.5 -27t26.5 -10q7 0 23 2q21 3 21 -17v-35q0 -17 -16 -21q-25 -6 -52 -6q-51 0 -83.5 27.5t-32.5 79.5q0 63 67 105q-93 11 -150 71t-57 151v274q0 32 32 32h75q31 0 31 -32v-279
q0 -44 29 -71t77 -26q48 0 76.5 26.5t28.5 70.5v279q0 32 32 32h75z" />
    <glyph glyph-name="uring.ss01" horiz-adv-x="613" 
d="M305 570q-59 0 -92.5 32t-33.5 79t34 79t92 32q59 0 93 -32t34 -79t-34 -79t-93 -32zM305 642q19 0 31 11t12 28t-12 29t-31 12t-30.5 -12t-10.5 -29q-1 -17 10.5 -28t30.5 -11zM63 214v274q0 32 32 32h75q31 0 31 -32v-279q0 -44 29 -71t77 -26q48 0 76.5 26.5
t28.5 70.5v279q0 32 32 32h75q32 0 32 -32v-274q0 -100 -68.5 -162t-175.5 -62t-175.5 62t-68.5 162z" />
    <glyph glyph-name="utilde.ss01" horiz-adv-x="613" 
d="M454 695q29 -5 26 -36q-6 -38 -35 -60t-68 -22q-33 0 -73.5 17.5t-51.5 17.5q-19 0 -31 -16q-10 -17 -35 -13l-32 6q-31 6 -26 37q7 40 33.5 63t63.5 22q28 -1 74.5 -18.5t59.5 -17.5q21 0 32 15q7 15 32 11zM63 214v274q0 32 32 32h75q31 0 31 -32v-279q0 -44 29 -71
t77 -26q48 0 76.5 26.5t28.5 70.5v279q0 32 32 32h75q32 0 32 -32v-274q0 -100 -68.5 -162t-175.5 -62t-175.5 62t-68.5 162z" />
    <glyph glyph-name="w.ss01" horiz-adv-x="810" 
d="M18 484q-5 16 2.5 26t24.5 10h70q29 0 36 -27l88 -327q2 -8 7 -11.5t10 -0.5t8 11l89 234q7 15 1 30l-18 55q-5 17 2.5 26.5t23.5 9.5h52q28 0 35 -27l101 -324q4 -14 12 -14t12 14l88 324q6 27 35 27h68q17 0 24.5 -10t2.5 -26l-147 -456q-9 -28 -38 -28h-85
q-29 0 -38 28l-59 181q-5 15 -15 15.5t-16 -15.5l-72 -182q-10 -27 -39 -27h-81q-30 0 -39 28z" />
    <glyph glyph-name="wacute.ss01" horiz-adv-x="810" 
d="M469 764q29 18 43 -12l27 -57q14 -29 -17 -41l-185 -70q-29 -9 -43 15l-8 16q-14 27 12 43zM18 484q-5 16 2.5 26t24.5 10h70q29 0 36 -27l88 -327q2 -8 7 -11.5t10 -0.5t8 11l89 234q7 15 1 30l-18 55q-5 17 2.5 26.5t23.5 9.5h52q28 0 35 -27l101 -324q4 -14 12 -14
t12 14l88 324q6 27 35 27h68q17 0 24.5 -10t2.5 -26l-147 -456q-9 -28 -38 -28h-85q-29 0 -38 28l-59 181q-5 15 -15 15.5t-16 -15.5l-72 -182q-10 -27 -39 -27h-81q-30 0 -39 28z" />
    <glyph glyph-name="wcircumflex.ss01" horiz-adv-x="810" 
d="M232 638q-13 28 12 41l133 71q28 15 55 1l140 -72q27 -13 12 -41l-9 -18q-12 -26 -39 -16l-104 36q-25 9 -53 0l-98 -35q-28 -10 -40 15zM18 484q-5 16 2.5 26t24.5 10h70q29 0 36 -27l88 -327q2 -8 7 -11.5t10 -0.5t8 11l89 234q7 15 1 30l-18 55q-5 17 2.5 26.5
t23.5 9.5h52q28 0 35 -27l101 -324q4 -14 12 -14t12 14l88 324q6 27 35 27h68q17 0 24.5 -10t2.5 -26l-147 -456q-9 -28 -38 -28h-85q-29 0 -38 28l-59 181q-5 15 -15 15.5t-16 -15.5l-72 -182q-10 -27 -39 -27h-81q-30 0 -39 28z" />
    <glyph glyph-name="wdieresis.ss01" horiz-adv-x="810" 
d="M297 598q-32 0 -54 22.5t-22 56.5q0 31 22.5 53t53.5 22q32 0 55 -22t23 -53q0 -33 -23 -56t-55 -23zM513 598q-31 0 -54 23t-23 56q0 31 23 53t54 22q32 0 55 -22t23 -53q0 -33 -22.5 -56t-55.5 -23zM18 484q-5 16 2.5 26t24.5 10h70q29 0 36 -27l88 -327q2 -8 7 -11.5
t10 -0.5t8 11l89 234q7 15 1 30l-18 55q-5 17 2.5 26.5t23.5 9.5h52q28 0 35 -27l101 -324q4 -14 12 -14t12 14l88 324q6 27 35 27h68q17 0 24.5 -10t2.5 -26l-147 -456q-9 -28 -38 -28h-85q-29 0 -38 28l-59 181q-5 15 -15 15.5t-16 -15.5l-72 -182q-10 -27 -39 -27h-81
q-30 0 -39 28z" />
    <glyph glyph-name="wgrave.ss01" horiz-adv-x="810" 
d="M302 754q14 30 43 12l173 -106q26 -17 12 -44l-9 -15q-13 -25 -42 -16l-187 71q-30 12 -17 42zM18 484q-5 16 2.5 26t24.5 10h70q29 0 36 -27l88 -327q2 -8 7 -11.5t10 -0.5t8 11l89 234q7 15 1 30l-18 55q-5 17 2.5 26.5t23.5 9.5h52q28 0 35 -27l101 -324q4 -14 12 -14
t12 14l88 324q6 27 35 27h68q17 0 24.5 -10t2.5 -26l-147 -456q-9 -28 -38 -28h-85q-29 0 -38 28l-59 181q-5 15 -15 15.5t-16 -15.5l-72 -182q-10 -27 -39 -27h-81q-30 0 -39 28z" />
    <glyph glyph-name="y.ss01" horiz-adv-x="571" 
d="M18 484q-6 16 1 26t24 10h86q28 0 36 -26l109 -339q3 -9 8 -12t10 0t8 12l107 339q9 26 36 26h85q17 0 24 -10t1 -26l-254 -679q-9 -25 -37 -25h-67q-18 0 -25 10t0 27l75 183h-17q-24 0 -33 23z" />
    <glyph glyph-name="yacute.ss01" horiz-adv-x="571" 
d="M351 764q29 18 43 -12l27 -57q14 -29 -17 -41l-185 -70q-29 -9 -43 15l-8 16q-14 27 12 43zM18 484q-6 16 1 26t24 10h86q28 0 36 -26l109 -339q3 -9 8 -12t10 0t8 12l107 339q9 26 36 26h85q17 0 24 -10t1 -26l-254 -679q-9 -25 -37 -25h-67q-18 0 -25 10t0 27l75 183
h-17q-24 0 -33 23z" />
    <glyph glyph-name="ycircumflex.ss01" horiz-adv-x="571" 
d="M114 638q-13 28 12 41l133 71q28 15 55 1l140 -72q27 -13 12 -41l-9 -18q-12 -26 -39 -16l-104 36q-25 9 -53 0l-98 -35q-28 -10 -40 15zM18 484q-6 16 1 26t24 10h86q28 0 36 -26l109 -339q3 -9 8 -12t10 0t8 12l107 339q9 26 36 26h85q17 0 24 -10t1 -26l-254 -679
q-9 -25 -37 -25h-67q-18 0 -25 10t0 27l75 183h-17q-24 0 -33 23z" />
    <glyph glyph-name="ydieresis.ss01" horiz-adv-x="571" 
d="M179 598q-32 0 -54 22.5t-22 56.5q0 31 22.5 53t53.5 22q32 0 55 -22t23 -53q0 -33 -23 -56t-55 -23zM395 598q-31 0 -54 23t-23 56q0 31 23 53t54 22q32 0 55 -22t23 -53q0 -33 -22.5 -56t-55.5 -23zM18 484q-6 16 1 26t24 10h86q28 0 36 -26l109 -339q3 -9 8 -12t10 0
t8 12l107 339q9 26 36 26h85q17 0 24 -10t1 -26l-254 -679q-9 -25 -37 -25h-67q-18 0 -25 10t0 27l75 183h-17q-24 0 -33 23z" />
    <glyph glyph-name="ygrave.ss01" horiz-adv-x="571" 
d="M184 754q14 30 43 12l173 -106q26 -17 12 -44l-9 -15q-13 -25 -42 -16l-187 71q-30 12 -17 42zM18 484q-6 16 1 26t24 10h86q28 0 36 -26l109 -339q3 -9 8 -12t10 0t8 12l107 339q9 26 36 26h85q17 0 24 -10t1 -26l-254 -679q-9 -25 -37 -25h-67q-18 0 -25 10t0 27
l75 183h-17q-24 0 -33 23z" />
    <glyph glyph-name="uni1EF9.ss01" horiz-adv-x="571" 
d="M435 695q29 -5 26 -36q-6 -38 -35 -60t-68 -22q-33 0 -73.5 17.5t-51.5 17.5q-19 0 -31 -16q-10 -17 -35 -13l-32 6q-31 6 -26 37q7 40 33.5 63t63.5 22q28 -1 74.5 -18.5t59.5 -17.5q21 0 32 15q7 15 32 11zM18 484q-6 16 1 26t24 10h86q28 0 36 -26l109 -339
q3 -9 8 -12t10 0t8 12l107 339q9 26 36 26h85q17 0 24 -10t1 -26l-254 -679q-9 -25 -37 -25h-67q-18 0 -25 10t0 27l75 183h-17q-24 0 -33 23z" />
    <glyph glyph-name="zero.zero" horiz-adv-x="767" 
d="M384 740q151 0 243 -103t92 -267q0 -169 -92 -274.5t-243 -105.5t-243 105.5t-92 274.5q0 164 92 267t243 103zM384 610q-85 0 -136.5 -67.5t-51.5 -177.5q0 -84 31 -144l241 367q-39 22 -84 22zM384 120q85 0 136.5 67.5t51.5 177.5q0 96 -41 162l-245 -377
q43 -30 98 -30z" />
    <glyph glyph-name="ampersand.ss01" horiz-adv-x="724" 
d="M35 186q0 112 122 178q28 14 8 40q-58 68 -58 137q0 86 61 140.5t164 54.5q100 0 161.5 -54t61.5 -137q0 -108 -124 -180q-29 -19 -5 -42l61 -60q11 -11 23 -9.5t19 14.5q18 34 22 65q6 30 33 30h62q34 0 31 -32q-8 -82 -57 -159q-15 -23 4 -42l72 -70q16 -15 16 -38
q0 -22 -31 -22h-74q-23 0 -39 15l-31 30q-18 18 -42 4q-90 -58 -208 -58q-114 0 -183 54t-69 141zM248 536q0 -42 48 -88q19 -19 42 -7q42 20 62 41.5t20 53.5q-1 31 -26.5 52.5t-61.5 21.5q-37 0 -60.5 -21t-23.5 -53zM174 191q0 -34 31 -56t82 -22q50 0 102 25q15 7 16 19
t-11 23l-101 97q-20 20 -58 -3q-61 -34 -61 -83z" />
    <glyph glyph-name="caroncomb.alt" 
d="M-201 586q29 0 34 29l32 173q6 35 -28 35h-52q-30 0 -33 -30l-17 -173q-3 -34 30 -34h34z" />
    <glyph glyph-name="uni0308.case" 
d="M-392 764q-35 0 -58.5 24.5t-23.5 61.5q0 33 24 57t58 24t59 -24t25 -57q0 -36 -25 -61t-59 -25zM-158 764q-34 0 -58.5 25t-24.5 61q0 33 25 57t58 24q35 0 60 -24t25 -57q0 -36 -24.5 -61t-60.5 -25z" />
    <glyph glyph-name="uni0307.case" 
d="M-149 584q-39 0 -65.5 27.5t-26.5 66.5q0 38 26.5 64.5t65.5 26.5q38 0 65.5 -27t27.5 -64q0 -39 -27.5 -66.5t-65.5 -27.5z" />
    <glyph glyph-name="gravecomb.case" 
d="M-389 919q9 33 41 20l189 -73q28 -12 20 -41l-7 -16q-7 -27 -38 -24l-197 36q-31 7 -24 38z" />
    <glyph glyph-name="acutecomb.case" 
d="M-219 936q32 11 40 -20l15 -62q8 -31 -25 -36l-196 -31q-29 -3 -39 23l-4 17q-9 30 20 40z" />
    <glyph glyph-name="uni030B.case" 
d="M-388 910q9 24 37 24h66q19 0 24.5 -11t-4.5 -27l-57 -89q-14 -21 -38 -21h-38q-18 0 -24.5 10t-0.5 26zM-203 910q9 24 37 24h66q19 0 25 -11t-4 -27l-57 -89q-14 -21 -38 -21h-39q-18 0 -24.5 10t-0.5 26z" />
    <glyph glyph-name="uni0302.case" 
d="M-459 822q-14 29 12 42l138 74q29 15 57 1l144 -75q28 -12 13 -42l-10 -19q-12 -25 -40 -16l-107 37q-27 9 -55 0l-102 -36q-29 -10 -41 15z" />
    <glyph glyph-name="uni030C.case" 
d="M-447 902l3 14q2 13 14.5 18.5t25.5 -0.5l109 -34q13 -4 27 0l109 34q14 5 26 0t15 -18l3 -14q5 -31 -15 -41l-115 -57q-37 -18 -73 0l-115 57q-21 10 -14 41z" />
    <glyph glyph-name="uni0306.case" 
d="M-409 936q24 0 34 -28q19 -40 71 -40q51 0 72 40q12 28 35 28h40q36 -2 30 -34q-13 -58 -60 -92t-117 -34q-66 0 -114.5 33.5t-62.5 92.5q-7 32 30 34h42z" />
    <glyph glyph-name="uni030A.case" 
d="M-408 759q-59 0 -92.5 32t-33.5 79t34 79t92 32q59 0 93 -32t34 -79t-34 -79t-93 -32zM-408 831q19 0 31 11t12 28t-12 29t-31 12t-30.5 -12t-10.5 -29q-1 -17 10.5 -28t30.5 -11z" />
    <glyph glyph-name="tildecomb.case" 
d="M-149 905q29 -5 26 -36q-6 -38 -35 -60t-68 -22q-33 0 -73.5 17.5t-51.5 17.5q-19 0 -31 -16q-10 -17 -35 -13l-32 6q-31 6 -26 37q7 40 33.5 63t63.5 22q28 -1 74.5 -18.5t59.5 -17.5q21 0 32 15q7 15 32 11z" />
    <glyph glyph-name="uni0304.case" 
d="M-443 870q0 32 32 32h248q32 0 32 -32v-37q0 -32 -32 -32h-248q-32 0 -32 32v37z" />
    <glyph glyph-name="uni0337.case" 
d="M-89 589q29 9 40 -20l11 -36q10 -30 -20 -41l-304 -102q-32 -10 -39 21l-10 35q-8 30 21 39z" />
    <glyph glyph-name="uni0338.case" 
d="M-11 630q21 24 45 2l19 -18q23 -21 2 -45l-602 -643q-21 -24 -46 -2l-17 16q-22 22 -2 46z" />
    <glyph glyph-name="caron.alt" horiz-adv-x="600" 
d="M198 586q29 0 34 29l32 173q6 35 -28 35h-52q-30 0 -33 -30l-17 -173q-3 -34 30 -34h34z" />
    <glyph glyph-name="acute.case" horiz-adv-x="600" 
d="M381 936q32 11 40 -20l15 -62q8 -31 -25 -36l-196 -31q-29 -3 -39 23l-4 17q-9 30 20 40z" />
    <glyph glyph-name="breve.case" horiz-adv-x="600" 
d="M191 936q24 0 34 -28q19 -40 71 -40q51 0 72 40q12 28 35 28h40q36 -2 30 -34q-13 -58 -60 -92t-117 -34q-66 0 -114.5 33.5t-62.5 92.5q-7 32 30 34h42z" />
    <glyph glyph-name="caron.case" horiz-adv-x="573" 
d="M116 902l3 14q2 13 14.5 18.5t25.5 -0.5l109 -34q14 -4 27 0l109 34q14 5 26 0t15 -18l3 -14q5 -31 -15 -41l-115 -57q-36 -18 -73 0l-115 57q-21 10 -14 41z" />
    <glyph glyph-name="circumflex.case" horiz-adv-x="563" 
d="M104 822q-14 29 12 42l138 74q29 15 57 1l144 -75q28 -12 13 -42l-10 -19q-12 -25 -40 -16l-107 37q-27 9 -55 0l-102 -36q-29 -10 -41 15z" />
    <glyph glyph-name="dieresis.case" horiz-adv-x="547" 
d="M155 764q-35 0 -58.5 24.5t-23.5 61.5q0 33 24 57t58 24t59 -24t25 -57q0 -36 -25 -61t-59 -25zM389 764q-34 0 -58.5 25t-24.5 61q0 33 25 57t58 24q35 0 60 -24t25 -57q0 -36 -25 -61t-60 -25z" />
    <glyph glyph-name="dotaccent.case" horiz-adv-x="298" 
d="M149 584q-39 0 -65.5 27.5t-26.5 66.5q0 38 26.5 64.5t65.5 26.5q38 0 65.5 -27t27.5 -64q0 -39 -27.5 -66.5t-65.5 -27.5z" />
    <glyph glyph-name="grave.case" horiz-adv-x="600" 
d="M127 919q9 33 41 20l189 -73q28 -12 20 -41l-7 -16q-7 -27 -38 -24l-197 36q-31 7 -24 38z" />
    <glyph glyph-name="hungarumlaut.case" horiz-adv-x="600" 
d="M212 910q9 24 37 24h66q19 0 24.5 -11t-4.5 -27l-57 -89q-14 -21 -38 -21h-38q-18 0 -24.5 10t-0.5 26zM397 910q9 24 37 24h66q19 0 25 -11t-4 -27l-57 -89q-14 -21 -38 -21h-39q-18 0 -24.5 10t-0.5 26z" />
    <glyph glyph-name="macron.case" horiz-adv-x="600" 
d="M157 870q0 32 32 32h248q32 0 32 -32v-37q0 -32 -32 -32h-248q-32 0 -32 32v37z" />
    <glyph glyph-name="ring.case" horiz-adv-x="557" 
d="M149 759q-59 0 -92.5 32t-33.5 79t34 79t92 32q59 0 93 -32t34 -79t-34 -79t-93 -32zM149 831q19 0 31 11t12 28t-12 29t-31 12t-30.5 -12t-10.5 -29q-1 -17 10.5 -28t30.5 -11z" />
    <glyph glyph-name="tilde.case" horiz-adv-x="600" 
d="M436 905q29 -5 26 -36q-6 -38 -35 -60t-68 -22q-33 0 -73.5 17.5t-51.5 17.5q-19 0 -31 -16q-10 -17 -35 -13l-32 6q-31 6 -26 37q7 40 33.5 63t63.5 22q28 -1 74.5 -18.5t59.5 -17.5q21 0 32 15q7 15 32 11z" />
    <glyph glyph-name="caronalt" horiz-adv-x="600" 
 />
    <glyph glyph-name="IJacute" horiz-adv-x="1024" 
d="M263 936q32 11 40 -20l15 -62q8 -31 -25 -36l-196 -31q-29 -3 -39 23l-4 17q-9 30 20 40zM842 936q32 11 40 -20l15 -62q8 -31 -25 -36l-196 -31q-29 -3 -39 23l-4 17q-9 30 20 40zM196 730q31 0 31 -32v-666q0 -32 -31 -32h-81q-32 0 -32 32v666q0 32 32 32h81zM333 230
q-3 16 5.5 25t24.5 9h76q26 0 34 -28q15 -54 59 -86t107 -32q71 0 113 46.5t42 121.5v303q0 21 -21 21h-208q-32 0 -32 32v56q0 32 32 32h334q39 0 39 -38v-406q0 -128 -82.5 -212t-216.5 -84q-125 0 -206.5 67.5t-99.5 172.5z" />
    <glyph glyph-name="ijacute" horiz-adv-x="615" 
d="M552 769q29 18 43 -12l27 -57q14 -29 -17 -41l-185 -70q-29 -9 -43 15l-8 16q-14 27 12 43zM214 764q29 18 43 -12l27 -57q14 -29 -17 -41l-185 -70q-29 -9 -43 15l-8 16q-14 27 12 43zM176 520q32 0 32 -32v-456q0 -32 -32 -32h-75q-32 0 -32 32v456q0 32 32 32h75z
M392 -217q-25 0 -61 4q-30 5 -27 36l5 55q3 31 22 28q3 0 10 -0.5t10 -0.5q56 0 56 63v520q0 32 32 32h75q31 0 31 -32v-532q0 -78 -42 -125.5t-111 -47.5z" />
    <glyph glyph-name="sign" horiz-adv-x="600" 
 />
    <glyph glyph-name="slashlong.case" horiz-adv-x="600" 
 />
    <glyph glyph-name="slashlong" horiz-adv-x="600" 
 />
    <glyph glyph-name="slashshort.case" horiz-adv-x="600" 
 />
    <glyph glyph-name="slashshort" horiz-adv-x="600" 
 />
    <glyph glyph-name="stroke" horiz-adv-x="600" 
 />
    </font>
</defs>
</svg>
