<?xml version="1.0" standalone="no"?>
<!DOCTYPE svg PUBLIC "-//W3C//DTD SVG 1.1//EN" "http://www.w3.org/Graphics/SVG/1.1/DTD/svg11.dtd" >
<svg xmlns="http://www.w3.org/2000/svg" xmlns:xlink="http://www.w3.org/1999/xlink" version="1.1">
<metadata>
Created by FontForge 20170731 at Thu Jan  4 15:35:33 2018
 By Aleksey,,,
Jorge Cisterna
</metadata>
<defs>
<font id="FibraOne-SemiBoldIt" horiz-adv-x="0" >
  <font-face 
    font-family="Fibra One SemiBold It"
    font-weight="600"
    font-style="italic"
    font-stretch="normal"
    units-per-em="1000"
    panose-1="0 0 7 0 0 0 0 0 0 0"
    ascent="800"
    descent="-200"
    x-height="520"
    cap-height="730"
    bbox="-755.281 -237 1279 982"
    underline-thickness="50"
    underline-position="-200"
    slope="-6"
    unicode-range="U+0020-FB02"
  />
<missing-glyph horiz-adv-x="600" 
 />
    <glyph glyph-name="fi" unicode="fi" horiz-adv-x="675" 
d="M97 417q-29 0 -26 29l5 45q3 29 32 29h55q10 0 12 11l8 84q10 93 56 132.5t134 39.5q42 0 88 -13q23 -7 18 -34l-10 -45q-6 -30 -36 -22q-26 8 -50 8q-36 0 -55 -15t-23 -51l-9 -84q-2 -11 10 -11h111q28 0 25 -29l-4 -45q-3 -29 -33 -29h-111q-10 0 -12 -10l-39 -381
q-3 -29 -33 -29h-63q-28 0 -25 29l39 381q2 10 -10 10h-54zM607 601q-32 0 -53 22t-21 55q0 36 27 62t65 26q31 0 53 -21.5t22 -52.5q0 -37 -28 -64t-65 -27zM626 520q29 0 26 -29l-49 -462q-3 -29 -32 -29h-63q-29 0 -26 29l48 462q3 29 33 29h63z" />
    <glyph glyph-name="fl" unicode="fl" horiz-adv-x="675" 
d="M97 417q-29 0 -26 29l5 45q3 29 32 29h55q10 0 12 11l8 84q10 93 56 132.5t134 39.5q42 0 88 -13q23 -7 18 -34l-10 -45q-6 -30 -36 -22q-26 8 -50 8q-36 0 -55 -15t-23 -51l-9 -84q-2 -11 10 -11h111q28 0 25 -29l-4 -45q-3 -29 -33 -29h-111q-10 0 -12 -10l-39 -381
q-3 -29 -33 -29h-63q-28 0 -25 29l39 381q2 10 -10 10h-54zM653 780q29 0 26 -29l-76 -722q-3 -29 -32 -29h-63q-29 0 -26 29l75 722q5 29 33 29h63z" />
    <glyph glyph-name=".notdef" horiz-adv-x="600" 
 />
    <glyph glyph-name=".null" 
 />
    <glyph glyph-name="nonmarkingreturn" horiz-adv-x="333" 
 />
    <glyph glyph-name="space" unicode=" " horiz-adv-x="246" 
 />
    <glyph glyph-name="exclam" unicode="!" horiz-adv-x="279" 
d="M253 780q28 0 25 -30l-66 -508q-3 -29 -33 -29h-34q-30 0 -27 29l41 508q3 30 32 30h62zM138 -10q-29 0 -48 20t-19 50q0 33 25 56.5t58 23.5q28 0 48 -19.5t20 -47.5q0 -33 -25.5 -58t-58.5 -25z" />
    <glyph glyph-name="quotedbl" unicode="&#x22;" horiz-adv-x="369" 
d="M198 780q27 0 25 -28l-20 -185q-1 -25 -27 -25h-32q-27 0 -25 27l20 186q1 25 28 25h31zM363 780q27 0 25 -28l-20 -185q-1 -25 -27 -25h-32q-27 0 -25 27l20 186q1 25 28 25h31z" />
    <glyph glyph-name="numbersign" unicode="#" horiz-adv-x="781" 
d="M57 206l3 34q3 29 33 29h100q27 0 36 28l22 82q4 15 -2.5 24t-22.5 9h-74q-29 0 -26 29l4 34q3 29 32 29h94q29 0 37 29l37 133q7 27 34 27h45q30 0 22 -32l-34 -123q-9 -34 24 -34h99q29 0 37 29l36 133q7 27 34 27h45q32 0 22 -32l-33 -123q-11 -34 24 -34h85
q29 0 26 -29l-4 -34q-3 -29 -32 -29h-105q-29 0 -36 -28l-23 -81q-8 -34 26 -34h79q28 0 26 -29l-3 -34q-3 -29 -33 -29h-101q-29 0 -36 -28l-33 -122q-7 -27 -34 -27h-44q-31 0 -23 32l30 112q9 33 -24 33h-99q-30 0 -36 -28l-34 -122q-7 -27 -34 -27h-44q-31 0 -23 32
l31 112q8 33 -25 33h-80q-28 0 -25 29zM333 303q-9 -34 25 -34h99q27 0 35 28l23 82q8 33 -25 33h-98q-30 0 -37 -28z" />
    <glyph glyph-name="dollar" unicode="$" horiz-adv-x="622" 
d="M60 189q-2 15 6 23.5t23 8.5h53q24 0 31 -25q21 -77 106 -95q15 -3 17 13l14 141q2 14 -10 15q-81 16 -133.5 59.5t-52.5 123.5q0 88 61.5 139.5t162.5 60.5q14 2 16 14l1 16q5 28 32 28h7q27 0 25 -28l-2 -18q-1 -11 11 -14q75 -11 127 -61.5t60 -121.5q2 -15 -6 -23.5
t-23 -8.5h-59q-23 0 -30 24q-18 64 -77 83q-15 5 -17 -12l-17 -156q-2 -13 11 -15q40 -8 70 -18.5t62 -29t49.5 -49.5t17.5 -73q0 -89 -63.5 -139t-172.5 -59q-13 -1 -15 -14l-4 -34q-3 -28 -31 -28h-7q-29 0 -26 28l5 35q2 12 -11 14q-81 14 -141 65.5t-70 130.5zM231 458
q0 -32 21 -53.5t55 -27.5q15 -3 17 11l16 148q1 7 -4.5 10t-15.5 1q-42 -4 -65.5 -29t-23.5 -60zM390 255q-15 2 -17 -12l-14 -132q-1 -7 2.5 -10t10.5 -2q103 13 103 83q0 61 -85 73z" />
    <glyph glyph-name="percent" unicode="%" horiz-adv-x="899" 
d="M88 527q0 99 53.5 156t142.5 57q67 0 110.5 -47.5t43.5 -120.5q0 -97 -53 -155.5t-141 -58.5q-66 0 -111 49.5t-45 119.5zM261 74l388 636q17 26 40 14l31 -13q27 -12 11 -39l-388 -639q-16 -27 -40 -13l-32 15q-25 14 -10 39zM180 532q0 -44 19 -68t53 -24q43 0 69 34
t26 91q0 43 -19 67.5t-54 24.5q-42 0 -68 -34t-26 -91zM537 159q0 98 53.5 155.5t141.5 57.5q68 0 111.5 -48t43.5 -121q0 -96 -53.5 -154.5t-141.5 -58.5q-66 0 -110.5 49.5t-44.5 119.5zM630 164q0 -43 18.5 -67t52.5 -24q43 0 68 34t25 92q0 43 -18 67t-52 24
q-43 0 -68.5 -34t-25.5 -92z" />
    <glyph glyph-name="ampersand" unicode="&#x26;" horiz-adv-x="749" 
d="M62 186q0 117 109 179q21 13 6 31q-38 43 -38 111q0 95 71.5 157t178.5 62q94 0 154.5 -50.5t75.5 -131.5q3 -14 -5 -23t-23 -9h-68q-22 0 -30 23q-12 36 -38.5 58t-63.5 22q-54 0 -90 -30.5t-36 -82.5q0 -43 25.5 -70t64.5 -27h46q28 0 25 -28l-5 -40q-3 -29 -31 -29
h-61q-68 0 -104.5 -30t-36.5 -78q0 -42 41 -70.5t107 -28.5q88 0 148 52.5t77 127.5q7 27 -21 27h-16q-28 0 -25 29l4 40q3 28 32 28h214q28 0 25 -28l-4 -40q-3 -29 -31 -29h-29q-24 0 -29 -24q-23 -125 -116.5 -209t-239.5 -84q-122 0 -192.5 53t-70.5 142z" />
    <glyph glyph-name="quotesingle" unicode="'" horiz-adv-x="204" 
d="M198 780q27 0 25 -28l-20 -185q-1 -25 -27 -25h-32q-27 0 -25 27l20 186q1 25 28 25h31z" />
    <glyph glyph-name="parenleft" unicode="(" horiz-adv-x="324" 
d="M351 724q22 -25 -5 -50q-152 -141 -152 -390q0 -91 23.5 -166t59.5 -118q19 -24 -6 -49l-26 -23q-27 -25 -48 -2q-56 56 -88.5 154t-32.5 192q0 167 52 280t154 196q27 24 49 -2z" />
    <glyph glyph-name="parenright" unicode=")" horiz-adv-x="324" 
d="M202 406q0 171 -83 268q-22 25 5 50l26 22q26 25 49 2q55 -55 87 -151t32 -194q0 -164 -52.5 -279t-153.5 -198q-29 -24 -49 2l-21 23q-21 25 -4 41q164 148 164 414z" />
    <glyph glyph-name="asterisk" unicode="*" horiz-adv-x="362" 
d="M337 694q14 5 25 0t12 -19l1 -6q5 -29 -26 -37l-38 -10q-18 -5 -7 -19l26 -35q18 -22 -5 -42l-5 -3q-25 -20 -40 3l-30 40q-8 13 -20 0l-37 -40q-23 -24 -42 -3l-4 3q-19 21 3 42l35 35q14 14 -4 19l-35 10q-27 8 -19 37l3 5q13 30 40 20l30 -13q16 -6 18 12l5 41
q3 31 32 31h11q30 0 27 -31l-5 -41q-1 -8 3.5 -11.5t11.5 -0.5z" />
    <glyph glyph-name="plus" unicode="+" horiz-adv-x="478" 
d="M71 278l4 39q3 29 32 29h100q19 0 21 19l10 99q3 29 33 29h41q29 0 26 -29l-10 -98q-2 -19 17 -19h98q29 0 26 -30l-4 -39q-3 -30 -32 -30h-98q-19 0 -21 -19l-11 -98q-3 -29 -32 -29h-41q-29 0 -26 29l10 98q3 19 -17 19h-100q-29 0 -26 30z" />
    <glyph glyph-name="comma" unicode="," horiz-adv-x="238" 
d="M76 107q8 27 35 27h56q32 0 23 -32l-60 -176q-7 -25 -33 -25h-36q-32 0 -24 30z" />
    <glyph glyph-name="hyphen" unicode="-" horiz-adv-x="515" 
d="M449 322q35 0 32 -35l-3 -28q-5 -35 -39 -35h-317q-17 0 -25 9.5t-6 25.5l3 28q3 35 38 35h317z" />
    <glyph glyph-name="period" unicode="." horiz-adv-x="258" 
d="M128 -10q-30 0 -50.5 21.5t-20.5 52.5q0 34 26 58.5t61 24.5q31 0 51.5 -20.5t20.5 -49.5q0 -35 -26.5 -61t-61.5 -26z" />
    <glyph glyph-name="slash" unicode="/" horiz-adv-x="489" 
d="M60 -10q-15 0 -20 9t2 22l372 693q9 19 31 19h59q15 0 20 -8.5t-2 -22.5l-365 -693q-10 -19 -31 -19h-66z" />
    <glyph glyph-name="zero" unicode="0" horiz-adv-x="764" 
d="M87 323q0 187 103 302t271 115q131 0 213 -93t82 -234q0 -189 -102.5 -306t-271.5 -117q-130 0 -212.5 95t-82.5 238zM216 329q0 -102 48 -163.5t130 -61.5q101 0 166 84t65 213q0 102 -47 163.5t-129 61.5q-102 0 -167.5 -84t-65.5 -213z" />
    <glyph glyph-name="one" unicode="1" horiz-adv-x="501" 
d="M134 505q-15 -2 -22.5 5.5t-5.5 22.5l5 52q3 25 30 31q50 9 101.5 36t87.5 61q17 17 40 17h18q28 0 25 -29l-58 -560q-3 -33 29 -33h79q29 0 26 -29l-5 -50q-3 -29 -33 -29h-362q-28 0 -25 29l5 50q3 29 32 29h94q32 0 35 33l40 375q1 16 -7 22t-22 -1q-50 -24 -107 -32z
" />
    <glyph glyph-name="two" unicode="2" horiz-adv-x="640" 
d="M126 500q-32 0 -24 30q24 96 99.5 153t185.5 57q109 0 173 -55.5t64 -142.5q0 -47 -13.5 -87t-43 -76t-58 -63t-77.5 -68q-11 -9 -17 -14l-114 -95q-13 -11 -10 -21t20 -10h269q29 0 26 -29l-5 -50q-3 -29 -32 -29h-487q-27 0 -25 29l1 13q0 20 19 36l262 229
q64 55 90 80.5t46 62t20 77.5q0 46 -32 76t-87 30q-53 0 -94.5 -29.5t-58.5 -76.5q-9 -27 -35 -27h-62z" />
    <glyph glyph-name="three" unicode="3" horiz-adv-x="660" 
d="M66 181q-3 15 5.5 24t23.5 9h66q26 0 33 -26q27 -90 150 -90q74 0 117.5 34t43.5 86q0 99 -149 99h-41q-29 0 -26 30l4 42q3 29 32 29h42q62 0 100.5 30.5t42.5 78.5q4 47 -27 76t-86 29q-115 0 -153 -88q-12 -24 -35 -24h-63q-15 0 -21.5 8.5t-1.5 22.5q30 85 101 137
t185 52q108 0 171.5 -54.5t58.5 -143.5q-6 -95 -92 -153q-22 -15 0 -27q84 -43 84 -145q0 -104 -81.5 -165.5t-212.5 -61.5q-107 0 -179 53t-92 138z" />
    <glyph glyph-name="four" unicode="4" horiz-adv-x="654" 
d="M68 141q-30 0 -27 29l3 31q3 20 16 36q106 131 173 244.5t86 222.5q5 29 31 29h65q32 0 26 -30q-37 -205 -219 -426q-11 -14 -7 -24.5t21 -10.5h153q30 0 33 29l16 158q3 29 32 29h61q29 0 26 -29l-16 -158q-3 -29 26 -29h62q29 0 26 -30l-5 -42q-3 -29 -31 -29h-62
q-30 0 -33 -30l-9 -89q-3 -29 -33 -29h-61q-28 0 -25 29l9 89q3 30 -26 30h-311z" />
    <glyph glyph-name="five" unicode="5" horiz-adv-x="618" 
d="M60 181q-3 15 5 24t23 9h68q24 0 31 -23q13 -42 48.5 -67.5t92.5 -25.5q66 0 107 36.5t41 96.5q0 57 -37.5 90t-101.5 33h-169q-54 0 -48 54l30 286q5 36 40 36h377q28 0 25 -29l-5 -54q-3 -30 -32 -30h-273q-33 0 -36 -32l-10 -99q-3 -28 25 -28h84q120 0 190 -57.5
t70 -160.5q0 -115 -76 -182.5t-209 -67.5q-107 0 -173.5 51t-86.5 140z" />
    <glyph glyph-name="six" unicode="6" horiz-adv-x="673" 
d="M87 307q0 214 97 323.5t248 109.5q91 0 154 -52.5t77 -132.5q2 -14 -6.5 -23t-22.5 -9h-66q-22 0 -31 24q-12 38 -42 61.5t-74 23.5q-79 0 -138.5 -57.5t-69.5 -164.5q0 -5 -2 -17q-2 -14 4.5 -16t19.5 8q72 57 194 57q98 0 160.5 -62.5t58.5 -154.5q-5 -104 -84 -169.5
t-204 -65.5q-128 0 -200.5 85.5t-72.5 231.5zM221 243q-11 -21 -3 -41q31 -104 148 -104q66 0 112 39t46 96q0 48 -34 79t-90 31q-57 0 -105.5 -27t-73.5 -73z" />
    <glyph glyph-name="seven" unicode="7" horiz-adv-x="565" 
d="M116 617q-29 0 -26 30l6 54q3 29 32 29h452q32 0 33 -29l2 -14q0 -27 -16 -44q-138 -147 -208.5 -285.5t-96.5 -328.5q-3 -29 -33 -29h-78q-30 0 -25 30q29 168 89 299.5t174 256.5q11 14 7 22.5t-20 8.5h-292z" />
    <glyph glyph-name="eight" unicode="8" horiz-adv-x="679" 
d="M69 195q0 111 113 178q31 19 9 43q-50 52 -50 115q0 97 74 153t202 56q103 0 168.5 -51.5t65.5 -133.5q0 -84 -71 -145q-28 -24 -3 -43q77 -56 77 -143q0 -110 -84 -172t-232 -62q-114 0 -191.5 59t-77.5 146zM264 527q0 -42 32 -69t88 -27q64 0 104 32.5t40 81.5
q0 42 -34 70t-87 28q-61 0 -102 -33t-41 -83zM194 205q0 -51 42 -83t112 -32q79 0 130.5 38t51.5 97q0 51 -42 82.5t-113 31.5q-81 0 -131 -37.5t-50 -96.5z" />
    <glyph glyph-name="nine" unicode="9" horiz-adv-x="671" 
d="M660 415q0 -199 -85 -312t-258 -113q-88 0 -152 53t-81 138q-2 15 6 24t24 9h64q22 0 29 -25q12 -43 45.5 -67t81.5 -24q143 0 192 195q1 4 2.5 11.5t2.5 11.5q4 17 -4 20.5t-21 -7.5q-78 -62 -180 -62q-95 0 -159 65t-64 149q0 124 80 191.5t214 67.5q117 0 190 -83.5
t73 -241.5zM228 490q0 -50 33.5 -84.5t95.5 -34.5q51 0 98.5 28t71.5 70q12 22 3 46q-15 57 -53.5 87t-91.5 30q-70 0 -113.5 -39t-43.5 -103z" />
    <glyph glyph-name="colon" unicode=":" horiz-adv-x="280" 
d="M174 325q-30 0 -50.5 21.5t-20.5 52.5q0 34 26.5 59t61.5 25q30 0 50.5 -20.5t20.5 -49.5q0 -36 -26.5 -62t-61.5 -26zM139 -10q-30 0 -50.5 21.5t-20.5 52.5q0 34 26 58.5t61 24.5q31 0 51 -20.5t20 -49.5q0 -35 -26.5 -61t-60.5 -26z" />
    <glyph glyph-name="semicolon" unicode=";" horiz-adv-x="274" 
d="M174 325q-31 0 -51.5 21.5t-20.5 53.5q0 35 26.5 60.5t62.5 25.5q31 0 52 -21t21 -51q0 -36 -27 -62.5t-63 -26.5zM93 107q6 27 34 27h57q33 0 22 -32l-58 -174q-8 -26 -35 -26h-35q-14 0 -20.5 8.5t-3.5 22.5z" />
    <glyph glyph-name="less" unicode="&#x3c;" horiz-adv-x="459" 
d="M88 220q-21 10 -18 34l5 44q1 23 24 34l318 149q16 7 25 1t7 -23l-7 -60q-3 -26 -27 -34l-189 -73q-14 -6 -15 -15.5t12 -14.5l174 -72q23 -9 20 -34l-6 -58q-2 -17 -12 -23t-24 1z" />
    <glyph glyph-name="equal" unicode="=" horiz-adv-x="517" 
d="M463 403q29 0 26 -29l-4 -39q-3 -29 -32 -29h-324q-29 0 -26 29l4 39q3 29 32 29h324zM443 217q30 0 27 -29l-5 -39q-3 -29 -32 -29h-323q-30 0 -27 29l4 39q3 29 33 29h323z" />
    <glyph glyph-name="greater" unicode="&#x3e;" horiz-adv-x="459" 
d="M100 76q-16 -7 -25 -1t-7 23l7 62q4 25 26 34l189 72q40 14 4 30l-174 73q-23 9 -20 33l6 57q1 16 12 22.5t24 -0.5l287 -149q19 -10 18 -34l-5 -44q-2 -25 -25 -34z" />
    <glyph glyph-name="question" unicode="?" horiz-adv-x="577" 
d="M117 520q-15 0 -21.5 9t-0.5 23q35 88 103.5 138t169.5 50q97 0 160.5 -54.5t63.5 -147.5q0 -103 -57 -161t-159 -91q-23 -8 -27 -29l-5 -29q-6 -28 -33 -28h-37q-27 0 -27 28l3 88q1 41 46 50q83 17 126.5 57.5t43.5 101.5q0 47 -30 75.5t-80 28.5q-93 0 -141 -86
q-12 -23 -35 -23h-63zM203 60q0 33 25 56.5t58 23.5q29 0 48.5 -19.5t19.5 -47.5q0 -33 -25 -58t-58 -25q-30 0 -49 20t-19 50z" />
    <glyph glyph-name="at" unicode="@" horiz-adv-x="939" 
d="M76 269q0 208 148 340t379 132q142 0 243.5 -85.5t101.5 -219.5q0 -140 -66 -220.5t-175 -80.5q-57 0 -94 44q-10 14 -27 2q-65 -49 -152 -49q-65 0 -111 45.5t-46 115.5q0 109 67.5 178t175.5 69q80 0 126 -51q11 -14 22 4l11 19q11 20 36 20h11q31 0 23 -30l-62 -219
q-19 -64 40 -64q57 0 91 59t34 145q0 102 -73 165t-192 63q-173 0 -294 -107t-121 -265q0 -112 72.5 -178t189.5 -66q83 0 155 21q21 6 31 -0.5t4 -24.5l-10 -28q-9 -28 -36 -35q-77 -23 -165 -23q-146 0 -241.5 92.5t-95.5 231.5zM375 304q0 -39 22.5 -63t59.5 -24
q77 0 122 56q14 15 20 38l13 46q8 25 0 43q-22 56 -94 56q-61 0 -102 -42t-41 -110z" />
    <glyph glyph-name="A" unicode="A" horiz-adv-x="716" 
d="M41 0q-15 0 -20.5 9.5t1.5 24.5l320 664q14 32 47 32h80q32 0 41 -31l196 -665q4 -16 -3 -25t-23 -9h-74q-25 0 -31 23l-32 119q-3 12 -15 12h-308q-13 0 -19 -12l-54 -118q-11 -24 -36 -24h-70zM266 283q-7 -17 10 -17h217q19 0 14 17l-81 300q-2 6 -5.5 8.5t-7.5 0
t-7 -8.5z" />
    <glyph glyph-name="B" unicode="B" horiz-adv-x="679" 
d="M126 0q-36 0 -33 36l70 658q3 36 40 36h231q108 0 172 -53t64 -128q0 -105 -94 -159q-29 -17 -3 -32q38 -21 59.5 -59t21.5 -85q0 -97 -76.5 -155.5t-203.5 -58.5h-248zM258 437q-2 -18 17 -18l121 1q69 0 109 31.5t40 82.5q0 43 -33.5 68t-92.5 25h-123q-18 0 -20 -18z
M225 121q-2 -18 16 -18h136q72 0 113 33.5t41 86.5q0 51 -39.5 74.5t-103.5 23.5h-124q-18 0 -20 -18z" />
    <glyph glyph-name="C" unicode="C" horiz-adv-x="830" 
d="M80 331q0 176 123 292.5t302 116.5q140 0 229.5 -82.5t98.5 -202.5q1 -14 -7.5 -22t-23.5 -8h-72q-26 0 -30 27q-9 78 -63.5 126t-141.5 48q-120 0 -203 -81t-83 -205q0 -104 65 -170t168 -66q81 0 143.5 36.5t91.5 101.5q12 24 36 24h73q14 0 20.5 -8.5t1.5 -23.5
q-40 -107 -140 -175.5t-238 -68.5q-147 0 -248.5 96.5t-101.5 244.5z" />
    <glyph glyph-name="D" unicode="D" horiz-adv-x="789" 
d="M126 0q-36 0 -33 36l70 658q3 36 40 36h239q151 0 247.5 -94.5t96.5 -235.5q0 -180 -120.5 -290t-300.5 -110h-239zM229 123q-2 -18 16 -18h131q114 0 197 76.5t83 214.5q0 110 -64.5 169.5t-160.5 59.5h-132q-18 0 -20 -18z" />
    <glyph glyph-name="E" unicode="E" horiz-adv-x="565" 
d="M126 0q-36 0 -33 36l70 658q3 36 40 36h351q29 0 26 -29l-5 -47q-3 -29 -32 -29h-245q-18 0 -20 -18l-18 -173q-2 -18 16 -18h226q29 0 26 -29l-5 -47q-3 -29 -32 -29h-226q-18 0 -20 -18l-18 -169q-2 -18 16 -18h253q29 0 26 -29l-4 -48q-3 -29 -33 -29h-359z" />
    <glyph glyph-name="F" unicode="F" horiz-adv-x="551" 
d="M119 0q-29 0 -26 29l70 665q3 36 40 36h355q29 0 26 -29l-5 -49q-3 -29 -32 -29h-248q-18 0 -20 -18l-18 -174q-2 -18 16 -18h243q29 0 26 -29l-5 -48q-3 -29 -32 -29h-243q-18 0 -20 -18l-27 -260q-3 -29 -33 -29h-67z" />
    <glyph glyph-name="G" unicode="G" horiz-adv-x="815" 
d="M80 334q0 180 122.5 293t294.5 113q130 0 215 -75t100 -185q1 -14 -7 -22.5t-23 -8.5h-62q-24 0 -29 26q-12 66 -65.5 111t-137.5 45q-115 0 -197 -82.5t-82 -210.5q0 -105 65.5 -172t165.5 -67q82 0 140.5 34.5t86.5 96.5q4 9 0.5 15t-13.5 6h-155q-29 0 -26 29l4 39
q3 29 33 29h258q17 0 25.5 -9t6.5 -24l-2 -10q-20 -143 -117 -229t-253 -86q-146 0 -247 98.5t-101 245.5z" />
    <glyph glyph-name="H" unicode="H" horiz-adv-x="824" 
d="M119 0q-29 0 -26 29l70 672q3 29 33 29h67q29 0 26 -29l-26 -249q-3 -33 29 -33h328q32 0 35 33l27 249q3 29 32 29h68q29 0 26 -29l-70 -672q-3 -29 -33 -29h-68q-28 0 -25 29l25 243q3 32 -29 32h-329q-32 0 -35 -32l-25 -243q-3 -29 -33 -29h-67z" />
    <glyph glyph-name="I" unicode="I" horiz-adv-x="306" 
d="M263 730q29 0 26 -29l-70 -672q-3 -29 -33 -29h-67q-29 0 -26 29l70 672q3 29 33 29h67z" />
    <glyph glyph-name="J" unicode="J" horiz-adv-x="695" 
d="M46 228q-1 14 7.5 22.5t23.5 8.5h63q24 0 29 -27q9 -59 52 -93.5t113 -34.5q75 0 125 49.5t58 127.5l34 317q3 24 -21 24h-221q-29 0 -26 29l5 50q3 29 33 29h333q37 0 32 -37l-43 -412q-13 -130 -95.5 -210.5t-225.5 -80.5q-115 0 -191.5 68t-84.5 170z" />
    <glyph glyph-name="K" unicode="K" horiz-adv-x="660" 
d="M263 730q29 0 26 -29l-70 -672q-3 -29 -33 -29h-67q-29 0 -26 29l70 672q3 29 33 29h67zM284 312q-12 15 -9 34l4 34q3 20 15 35l270 298q16 17 38 17h80q18 0 21.5 -11t-9.5 -25l-293 -323q-12 -12 -2 -25l243 -310q11 -14 4.5 -25t-24.5 -11h-90q-23 0 -34 17z" />
    <glyph glyph-name="L" unicode="L" horiz-adv-x="578" 
d="M127 0q-38 0 -33 37l69 664q3 29 33 29h67q29 0 26 -29l-59 -569q-2 -18 16 -18h300q29 0 26 -29l-6 -56q-3 -29 -32 -29h-407z" />
    <glyph glyph-name="M" unicode="M" horiz-adv-x="895" 
d="M119 0q-29 0 -26 29l70 664q3 37 41 37h39q28 0 42 -24l189 -328q10 -19 25 -1l263 330q20 23 47 23h37q37 0 32 -37l-69 -664q-3 -29 -32 -29h-59q-29 0 -26 29l48 460q2 13 -5.5 15t-15.5 -8l-199 -253q-17 -23 -46 -23h-5q-27 0 -41 23l-147 253q-7 10 -14 8t-9 -15
l-48 -460q-3 -29 -32 -29h-59z" />
    <glyph glyph-name="N" unicode="N" horiz-adv-x="809" 
d="M119 0q-29 0 -26 29l70 665q3 36 39 36h18q28 0 42 -21l346 -501q7 -10 14.5 -7.5t8.5 15.5l51 485q3 29 32 29h53q29 0 26 -29l-70 -665q-5 -36 -40 -36h-34q-28 0 -42 21l-333 469q-7 10 -14 7.5t-9 -14.5l-47 -454q-3 -29 -32 -29h-53z" />
    <glyph glyph-name="O" unicode="O" horiz-adv-x="865" 
d="M80 331q0 184 122.5 296.5t307.5 112.5q152 0 252.5 -94.5t100.5 -243.5q0 -179 -122 -295.5t-310 -116.5q-149 0 -250 95t-101 246zM209 340q0 -107 65 -173t171 -66q121 0 204.5 83t83.5 210q0 105 -65.5 170t-171.5 65q-120 0 -203.5 -82t-83.5 -207z" />
    <glyph glyph-name="P" unicode="P" horiz-adv-x="637" 
d="M119 0q-29 0 -26 29l70 665q3 36 40 36h175q122 0 202 -70t80 -174q0 -124 -97 -201t-240 -77h-68q-17 0 -19 -18l-17 -161q-3 -29 -33 -29h-67zM250 331q-2 -18 16 -18h70q81 0 138 49.5t57 119.5q0 64 -45.5 103.5t-116.5 39.5h-70q-18 0 -20 -18z" />
    <glyph glyph-name="Q" unicode="Q" horiz-adv-x="865" 
d="M747 112l45 -57q17 -25 -8 -46l-30 -23q-27 -21 -46 3l-47 58q-103 -57 -230 -57q-149 0 -250 95t-101 246q0 184 122.5 296.5t307.5 112.5q152 0 252.5 -94.5t100.5 -243.5q0 -174 -116 -290zM445 101q79 0 144 37l-78 98q-20 23 8 45l31 25q27 19 45 -3l76 -95
q62 78 62 186q0 105 -65.5 170t-171.5 65q-120 0 -203.5 -82t-83.5 -207q0 -107 65 -173t171 -66z" />
    <glyph glyph-name="R" unicode="R" horiz-adv-x="639" 
d="M93 29l70 668q5 33 36 33h170q119 0 196.5 -65t77.5 -163q0 -97 -67 -159.5t-161 -78.5l-5 -1q-10 -3 -13.5 -11t4.5 -17l172 -199q12 -14 6 -25.5t-25 -11.5l-90 1q-22 0 -34 16l-165 208q-8 11 -17 7.5t-10 -17.5l-19 -185q-3 -29 -33 -29h-67q-29 0 -26 29zM255 371
q-2 -18 16 -18h58q83 0 134 41t51 105q0 56 -42 90t-115 34h-58q-18 0 -20 -18z" />
    <glyph glyph-name="S" unicode="S" horiz-adv-x="631" 
d="M57 188q-4 15 4 24t24 9h68q23 0 31 -23q32 -97 159 -97q60 0 98 23.5t38 71.5q0 31 -19.5 54t-51 37t-69.5 26.5t-76 29t-69.5 37.5t-51 58t-19.5 86q0 97 69.5 156.5t184.5 59.5q100 0 168 -54t82 -134q2 -14 -6 -23t-23 -9h-65q-24 0 -32 23q-12 39 -46.5 62.5
t-86.5 23.5t-85.5 -26t-33.5 -71q0 -40 37 -66t89.5 -43t105.5 -38.5t90 -67t37 -113.5q0 -100 -77 -157t-193 -57q-106 0 -183 55t-98 143z" />
    <glyph glyph-name="T" unicode="T" horiz-adv-x="589" 
d="M110 618q-29 0 -26 29l5 54q3 29 33 29h499q29 0 26 -29l-6 -54q-3 -29 -32 -29h-165q-22 0 -25 -22l-59 -567q-3 -29 -32 -29h-74q-28 0 -25 29l58 567q3 22 -19 22h-158z" />
    <glyph glyph-name="U" unicode="U" horiz-adv-x="781" 
d="M111 307l42 394q3 29 32 29h71q29 0 26 -29l-42 -401q-10 -87 36 -141t126 -54q78 0 135.5 53t67.5 142l42 401q3 29 32 29h71q29 0 26 -29l-42 -394q-15 -143 -108 -230t-236 -87q-129 0 -211 90t-68 227z" />
    <glyph glyph-name="V" unicode="V" horiz-adv-x="708" 
d="M87 696q-4 16 3 25t23 9h79q24 0 30 -24l137 -536q2 -10 7.5 -14t12 -0.5t11.5 14.5l247 537q11 23 36 23h73q16 0 21 -9t-2 -25l-327 -667q-15 -29 -46 -29h-75q-31 0 -39 29z" />
    <glyph glyph-name="W" unicode="W" horiz-adv-x="983" 
d="M93 697q-6 33 28 33h70q28 0 31 -25l65 -474q2 -17 12 -17t17 16l185 476q10 24 36 24h65q26 0 30 -25l87 -481q2 -11 7.5 -15t12 0.5t10.5 15.5l168 479q8 26 33 26h62q34 0 21 -33l-253 -672q-9 -25 -35 -25h-67q-26 0 -30 25l-85 488q-2 11 -7.5 15t-12 0t-10.5 -15
l-187 -489q-8 -24 -35 -24h-68q-26 0 -30 25z" />
    <glyph glyph-name="X" unicode="X" horiz-adv-x="693" 
d="M39 0q-18 0 -22 10.5t8 24.5l275 322q13 16 4 31l-187 307q-9 14 -2.5 24.5t23.5 10.5h78q22 0 33 -18l137 -225q14 -23 32 0l184 225q15 18 38 18h74q18 0 22 -10.5t-8 -24.5l-256 -306q-12 -15 -3 -31l200 -323q8 -14 2 -24.5t-24 -10.5h-78q-22 0 -34 18l-147 242
q-13 22 -31 1l-200 -243q-15 -18 -37 -18h-81z" />
    <glyph glyph-name="Y" unicode="Y" horiz-adv-x="647" 
d="M90 695q-7 16 -0.5 25.5t24.5 9.5h78q23 0 32 -21l129 -301q5 -12 13.5 -12t15.5 12l191 301q13 21 37 21h69q17 0 22 -9.5t-5 -25.5l-272 -410q-9 -15 -10 -27l-23 -227q-3 -31 -35 -31h-61q-31 0 -28 31l23 226q2 16 -4 28z" />
    <glyph glyph-name="Z" unicode="Z" horiz-adv-x="657" 
d="M53 0q-33 0 -28 29l1 7q3 21 16 38l440 518q11 13 7.5 22t-18.5 9h-335q-30 0 -27 29l5 49q3 29 33 29h519q30 0 27 -28v-7q-1 -19 -16 -38l-442 -520q-11 -13 -7.5 -22t19.5 -9h366q29 0 26 -29l-4 -48q-3 -29 -33 -29h-549z" />
    <glyph glyph-name="bracketleft" unicode="[" horiz-adv-x="336" 
d="M121 -106q-22 0 -33 12.5t-9 34.5l84 797q5 42 46 42h141q34 0 31 -35l-3 -36q-3 -35 -39 -35h-59q-18 0 -20 -18l-66 -636q-2 -20 17 -20h57q34 0 31 -35l-3 -36q-3 -35 -39 -35h-136z" />
    <glyph glyph-name="backslash" unicode="\" horiz-adv-x="478" 
d="M438 24q5 -15 -2 -24.5t-23 -9.5h-43q-25 0 -31 22l-224 687q-5 15 2 24.5t23 9.5h43q24 0 31 -22z" />
    <glyph glyph-name="bracketright" unicode="]" horiz-adv-x="336" 
d="M58 -106q-34 0 -31 35l3 36q3 35 39 35h58q19 0 20 18l67 636q2 20 -18 20h-56q-35 0 -32 35l4 36q3 35 39 35h148q35 0 30 -34l-86 -818q-3 -34 -37 -34h-148z" />
    <glyph glyph-name="asciicircum" unicode="^" horiz-adv-x="470" 
d="M126 630q-11 25 16 39l137 76q31 17 61 0l128 -76q24 -13 8 -39l-7 -10q-16 -24 -39 -13l-100 44q-29 12 -59 -1l-104 -43q-25 -10 -36 13z" />
    <glyph glyph-name="underscore" unicode="_" horiz-adv-x="558" 
d="M477 0q33 0 31 -35l-2 -27q-3 -35 -39 -35h-397q-33 0 -31 35l2 27q3 35 39 35h397z" />
    <glyph glyph-name="grave" unicode="`" horiz-adv-x="600" 
d="M309 748q16 27 41 11l158 -104q23 -16 8 -40l-9 -12q-16 -24 -40 -14l-175 73q-27 11 -11 38z" />
    <glyph glyph-name="a" unicode="a" horiz-adv-x="579" 
d="M51 124q0 81 61.5 124.5t176.5 42.5l104 -1q34 0 34 42q0 45 -27.5 70t-75.5 25q-85 0 -116 -66q-12 -24 -34 -24h-53q-15 0 -21.5 8.5t-2.5 22.5q23 78 87 120t156 42q101 0 157.5 -63.5t45.5 -167.5l-28 -270q-3 -29 -32 -29h-19q-25 0 -32 22l-4 11q-10 33 -40 12
q-81 -55 -184 -55q-64 0 -108.5 40.5t-44.5 93.5zM174 143q0 -26 20.5 -40t52.5 -14q63 0 141 46q21 13 23 36l1 7q2 30 -28 30h-100q-110 0 -110 -65z" />
    <glyph glyph-name="b" unicode="b" horiz-adv-x="661" 
d="M77 29l75 722q5 29 33 29h59q29 0 26 -29l-25 -238q-2 -18 7 -22t27 6q63 33 140 33q105 0 168 -69.5t63 -173.5q0 -132 -84 -214.5t-210 -82.5q-92 0 -154 55q-12 11 -23.5 6.5t-18.5 -21.5l-2 -6q-10 -24 -35 -24h-20q-29 0 -26 29zM217 208q-3 -21 5 -37
q37 -78 134 -78q67 0 118.5 55t51.5 129q0 63 -39 106t-96 43q-95 0 -150 -76q-11 -15 -13 -37z" />
    <glyph glyph-name="c" unicode="c" horiz-adv-x="603" 
d="M511 324q-22 0 -30 25q-9 33 -41 55t-78 22q-73 0 -122.5 -52t-49.5 -133q0 -68 39 -107.5t97 -39.5q44 0 80 19t52 51q13 24 35 24h62q15 0 22 -8.5t2 -23.5q-27 -77 -95.5 -121.5t-165.5 -44.5q-107 0 -179.5 71.5t-72.5 175.5q0 127 84 210t221 83q96 0 158.5 -49.5
t71.5 -124.5q1 -15 -7.5 -23.5t-23.5 -8.5h-59z" />
    <glyph glyph-name="d" unicode="d" horiz-adv-x="661" 
d="M66 235q0 132 85 213.5t213 81.5q65 0 122 -31q33 -19 38 20l24 232q3 29 32 29h59q29 0 26 -29l-75 -722q-5 -29 -33 -29h-15q-24 0 -31 23l-3 8q-7 29 -38 7q-63 -48 -160 -48q-106 0 -175 68.5t-69 176.5zM190 246q0 -65 39.5 -108.5t99.5 -43.5q91 0 145 74
q11 17 13 38l11 109q3 23 -5 38q-18 34 -52 53.5t-77 19.5q-69 0 -121.5 -52.5t-52.5 -127.5z" />
    <glyph glyph-name="e" unicode="e" horiz-adv-x="596" 
d="M66 237q0 124 82 208.5t206 84.5q61 0 107 -21t72 -57t39 -76.5t13 -85.5q0 -63 -38 -63l-328 1q-17 0 -26 -9.5t-5 -25.5q10 -48 44.5 -75t85.5 -27q86 0 121 56q16 22 36 22h56q15 0 22 -9t0 -23q-65 -147 -245 -147q-99 0 -170.5 70.5t-71.5 176.5zM213 349
q-8 -16 -1 -26t25 -10l197 -1q18 0 26.5 10t3.5 25q-10 39 -40.5 61.5t-76.5 22.5q-88 0 -134 -82z" />
    <glyph glyph-name="f" unicode="f" horiz-adv-x="404" 
d="M97 417q-29 0 -26 29l5 45q3 29 32 29h55q10 0 12 11l8 84q10 93 56 132.5t134 39.5q42 0 88 -13q23 -7 18 -34l-10 -45q-6 -30 -36 -22q-26 8 -50 8q-36 0 -55 -15t-23 -51l-9 -84q-2 -11 10 -11h111q28 0 25 -29l-4 -45q-3 -29 -33 -29h-111q-10 0 -12 -10l-39 -381
q-3 -29 -33 -29h-63q-28 0 -25 29l39 381q2 10 -10 10h-54z" />
    <glyph glyph-name="g" unicode="g" horiz-adv-x="658" 
d="M65 240q0 128 84 209t218 81q83 0 144 -52q13 -11 24 -7.5t17 21.5l1 5q8 23 36 23h22q28 0 25 -29l-50 -474q-11 -109 -85 -170.5t-199 -61.5q-84 0 -146 39t-79 100q-4 15 3.5 24t23.5 9h55q17 0 32 -21q13 -24 45.5 -38.5t75.5 -14.5q65 0 111.5 38t52.5 96v2
q2 16 -7.5 18.5t-25.5 -7.5q-53 -32 -128 -32q-109 0 -179.5 69t-70.5 173zM190 250q0 -62 40 -105.5t100 -43.5q88 0 142 72q11 17 13 38l12 106q2 24 -6 37q-39 72 -127 72q-69 0 -121.5 -52t-52.5 -124z" />
    <glyph glyph-name="h" unicode="h" horiz-adv-x="647" 
d="M103 0q-29 0 -26 29l75 722q5 29 33 29h58q29 0 26 -29l-26 -245q-1 -18 8.5 -22.5t26.5 4.5q81 42 174 42q83 0 127 -54.5t34 -150.5l-31 -296q-3 -29 -32 -29h-63q-29 0 -26 29l30 290q5 49 -17 77t-68 28q-59 0 -152 -53q-22 -12 -25 -37l-31 -305q-5 -29 -33 -29h-62
z" />
    <glyph glyph-name="i" unicode="i" horiz-adv-x="271" 
d="M203 601q-32 0 -53 22t-21 55q0 36 27 62t65 26q31 0 53 -21.5t22 -52.5q0 -37 -28 -64t-65 -27zM222 520q29 0 26 -29l-49 -462q-3 -29 -32 -29h-63q-29 0 -26 29l48 462q3 29 33 29h63z" />
    <glyph glyph-name="j" unicode="j" horiz-adv-x="278" 
d="M207 601q-32 0 -53 22t-21 55q0 36 27 62t65 26q31 0 53 -21.5t22 -52.5q0 -37 -28 -64t-65 -27zM35 -214q-37 0 -61 4q-25 4 -20 33l10 46q4 27 26 25q14 -2 22 -2q58 0 65 67l56 532q3 29 33 29h63q28 0 25 -29l-57 -542q-8 -77 -48.5 -120t-113.5 -43z" />
    <glyph glyph-name="k" unicode="k" horiz-adv-x="587" 
d="M103 0q-29 0 -26 29l75 722q5 29 33 29h63q28 0 25 -29l-43 -426q-2 -21 9 -26t28 11l202 194q16 16 38 16h72q20 0 23.5 -11t-11.5 -25l-169 -164q-22 -22 -8 -43l154 -241q9 -15 2.5 -25.5t-24.5 -10.5h-75q-23 0 -33 19l-105 177q-16 28 -44 3l-64 -59
q-17 -14 -20 -38l-7 -73q-3 -29 -32 -29h-63z" />
    <glyph glyph-name="l" unicode="l" horiz-adv-x="271" 
d="M249 780q29 0 26 -29l-76 -722q-3 -29 -32 -29h-63q-29 0 -26 29l75 722q5 29 33 29h63z" />
    <glyph glyph-name="m" unicode="m" horiz-adv-x="1033" 
d="M103 0q-29 0 -26 29l48 462q3 29 33 29h25q21 0 30 -24l4 -12q9 -26 38 -9q93 55 195 55q72 0 130 -56q20 -19 45 -3q97 59 208 59q81 0 128 -56.5t38 -148.5l-31 -296q-3 -29 -33 -29h-63q-28 0 -25 29l29 288q5 50 -17 78.5t-69 28.5q-63 0 -153 -54q-24 -13 -24 -32
q0 -14 -1 -23l-30 -286q-3 -29 -32 -29h-63q-29 0 -26 29l30 289q5 50 -17.5 78t-68.5 28q-63 0 -151 -52q-22 -13 -25 -38l-31 -305q-5 -29 -33 -29h-62z" />
    <glyph glyph-name="n" unicode="n" horiz-adv-x="650" 
d="M103 0q-29 0 -26 29l48 462q3 29 33 29h28q26 0 30 -24l1 -7q4 -32 39 -12q91 53 199 53q80 0 125.5 -55.5t35.5 -149.5l-31 -296q-3 -29 -32 -29h-63q-29 0 -26 29l30 290q5 49 -17.5 77t-70.5 28q-67 0 -152 -53q-23 -14 -24 -37l-32 -305q-5 -29 -33 -29h-62z" />
    <glyph glyph-name="o" unicode="o" horiz-adv-x="641" 
d="M66 238q0 125 87.5 208.5t223.5 83.5q109 0 181.5 -70.5t72.5 -171.5q0 -127 -87.5 -212.5t-223.5 -85.5q-108 0 -181 71.5t-73 176.5zM187 244q0 -65 39.5 -107.5t103.5 -42.5q76 0 127.5 53t51.5 130q0 65 -39.5 107t-103.5 42q-76 0 -127.5 -53t-51.5 -129z" />
    <glyph glyph-name="p" unicode="p" horiz-adv-x="658" 
d="M80 -220q-29 0 -26 29l71 682q3 29 33 29h26q30 0 30 -25v-2q0 -34 38 -9q68 46 161 46q109 0 172 -71.5t63 -171.5q0 -128 -84.5 -212.5t-209.5 -84.5q-79 0 -131 35q-33 22 -38 -18l-20 -198q-3 -29 -33 -29h-52zM216 203q-2 -24 6 -38q39 -72 130 -72q69 0 120.5 55
t51.5 129q0 63 -39.5 106t-97.5 43q-95 0 -145 -71q-11 -14 -14 -37z" />
    <glyph glyph-name="q" unicode="q" horiz-adv-x="659" 
d="M66 235q0 137 84.5 216t217.5 79q81 0 145 -53q28 -23 40 14l2 6q11 23 36 23h20q29 0 26 -29l-71 -676q-3 -29 -32 -29h-52q-29 0 -26 29l20 192q3 36 -34 14q-49 -31 -126 -31q-110 0 -180 70t-70 175zM190 246q0 -65 40 -108.5t102 -43.5q83 0 140 71q11 15 13 38
l12 115q3 23 -5 37q-18 33 -51.5 52t-72.5 19q-72 0 -125 -52.5t-53 -127.5z" />
    <glyph glyph-name="r" unicode="r" horiz-adv-x="423" 
d="M103 0q-29 0 -26 29l48 462q3 29 33 29h26q22 0 30 -24l2 -9q7 -31 39 -9q78 52 160 52q9 0 27 -2q26 -4 19 -34l-13 -61q-6 -27 -35 -24q-16 3 -35 3q-53 0 -126 -49q-20 -13 -23 -38l-31 -296q-3 -29 -32 -29h-63z" />
    <glyph glyph-name="s" unicode="s" horiz-adv-x="546" 
d="M96 368q-1 73 56 117.5t167 44.5q93 0 150.5 -42.5t63.5 -110.5q1 -14 -7.5 -22.5t-23.5 -8.5h-53q-23 0 -29 26q-12 63 -103 63q-48 0 -75 -17t-27 -43q0 -23 22.5 -38t57 -21.5t74 -17.5t74 -25t57 -44.5t22.5 -74.5q0 -77 -64 -120.5t-173 -43.5q-89 0 -157 44
t-75 114q-3 31 30 31h56q21 0 30 -24q22 -70 125 -70q50 0 79.5 17t29.5 48q0 23 -22.5 38t-57 21.5t-74 17.5t-74 24t-57 43t-22.5 74z" />
    <glyph glyph-name="t" unicode="t" horiz-adv-x="429" 
d="M99 417q-29 0 -26 29l5 45q3 29 33 29h37q10 0 12 11l8 81q3 25 27 33l62 15q16 4 24 -3.5t6 -22.5l-11 -103q-2 -11 10 -11h142q29 0 26 -29l-5 -45q-3 -29 -32 -29h-142q-10 0 -12 -10l-25 -239q-8 -72 55 -72q35 0 85 13q32 8 32 -23v-43q0 -26 -26 -35
q-67 -18 -125 -18q-67 0 -109 44t-33 131l25 242q2 10 -10 10h-33z" />
    <glyph glyph-name="u" unicode="u" horiz-adv-x="629" 
d="M89 195l31 296q3 29 33 29h63q28 0 25 -29l-30 -290q-5 -50 16 -77.5t65 -27.5t136 45q23 10 25 36l34 314q3 29 32 29h63q28 0 25 -29l-48 -462q-3 -29 -32 -29h-26q-27 0 -30 24l-1 4q-4 30 -39 11q-91 -49 -188 -49q-73 0 -118 56.5t-36 148.5z" />
    <glyph glyph-name="v" unicode="v" horiz-adv-x="573" 
d="M73 486q-5 15 2.5 24.5t23.5 9.5h78q24 0 29 -24l83 -358q2 -12 11 -12t14 12l162 358q10 24 35 24h73q16 0 22 -9.5t-2 -24.5l-238 -460q-12 -26 -42 -26h-76q-29 0 -37 26z" />
    <glyph glyph-name="w" unicode="w" horiz-adv-x="806" 
d="M74 487q-5 33 29 33h59q26 0 29 -25l45 -322q2 -14 10 -14t14 13l134 325q10 25 36 25h55q27 0 31 -25l66 -329q2 -13 10.5 -13t13.5 14l114 326q9 25 36 25h58q33 0 20 -33l-182 -462q-10 -25 -37 -25h-75q-26 0 -31 25l-58 302q-1 9 -5.5 12t-9.5 0t-9 -12l-128 -302
q-11 -25 -36 -25h-73q-27 0 -31 25z" />
    <glyph glyph-name="x" unicode="x" horiz-adv-x="549" 
d="M51 0q-18 0 -22 10.5t8 24.5l184 222q11 13 2 25l-131 202q-9 14 -2.5 25t24.5 11h72q22 0 32 -19l83 -146q12 -19 27 0l108 146q15 19 38 19h68q18 0 22 -10t-7 -25l-172 -211q-10 -12 -2 -25l139 -213q10 -14 3.5 -25t-24.5 -11h-75q-22 0 -32 19l-90 152q-5 8 -12.5 8
t-13.5 -8l-117 -153q-13 -18 -37 -18h-73z" />
    <glyph glyph-name="y" unicode="y" horiz-adv-x="566" 
d="M72 486q-4 16 3 25t24 9h75q25 0 31 -24l83 -356q2 -9 6.5 -12t10 0t8.5 12l154 356q11 24 36 24h74q35 0 19 -34l-265 -537q-47 -96 -91.5 -130.5t-135.5 -34.5q-38 0 -71 9q-25 6 -19 34l9 38q8 30 36 24q23 -6 62 -6q38 0 65 23t50 70l13 24h-16q-20 0 -26 19z" />
    <glyph glyph-name="z" unicode="z" horiz-adv-x="526" 
d="M31 37q1 18 16 33l310 327q8 9 5.5 16t-13.5 7h-236q-29 0 -26 29l4 42q3 29 33 29h384q26 0 23 -26l-3 -39q-3 -18 -16 -33l-283 -299q-9 -10 -6.5 -16.5t14.5 -6.5h240q30 0 27 -29l-5 -42q-3 -29 -32 -29h-413q-26 0 -24 26z" />
    <glyph glyph-name="braceleft" unicode="{" horiz-adv-x="326" 
d="M257 433q-5 -40 -25 -66t-41 -31q20 -5 35 -30t11 -64l-15 -154q-7 -71 34 -85q31 -10 28 -37l-3 -36q-2 -17 -12.5 -26.5t-27.5 -7.5q-64 7 -102.5 45.5t-31.5 115.5l17 173q4 40 -27 50q-32 9 -29 36l4 40q3 28 37 37q33 8 38 52l19 175q9 77 51.5 113.5t116.5 43.5
q17 2 25.5 -7t6.5 -27l-4 -36q-3 -28 -37 -37q-23 -6 -34.5 -25t-16.5 -56z" />
    <glyph glyph-name="bar" unicode="|" horiz-adv-x="267" 
d="M114 0q-28 0 -25 29l70 672q3 29 31 29l40 -1q28 0 25 -29l-70 -672q-3 -29 -32 -29z" />
    <glyph glyph-name="braceright" unicode="}" horiz-adv-x="326" 
d="M175 589q4 37 -3 56t-30 26q-32 9 -29 36l4 36q3 37 40 34q64 -6 102 -47.5t31 -109.5l-17 -174q-4 -42 27 -52q33 -10 29 -37l-4 -42q-4 -27 -37 -36q-33 -10 -38 -50l-19 -172q-9 -84 -51.5 -118t-115.5 -43q-18 -2 -26 7t-6 27l3 36q3 27 36 37q44 14 52 85l16 152
q4 41 25 66t47 30q-24 5 -39.5 31t-11.5 68z" />
    <glyph glyph-name="asciitilde" unicode="~" horiz-adv-x="545" 
d="M493 329q26 -7 18 -34q-14 -41 -46.5 -65t-80.5 -24q-38 1 -83 19t-66 18q-29 0 -47 -21q-21 -21 -41 -16l-35 10q-28 7 -22 32q9 45 40.5 71t77.5 26q38 -1 89.5 -21t71.5 -20q31 0 48 20q22 22 44 15z" />
    <glyph glyph-name="uni00A0" unicode="&#xa0;" horiz-adv-x="246" 
 />
    <glyph glyph-name="exclamdown" unicode="&#xa1;" horiz-adv-x="266" 
d="M261 507q0 -32 -25.5 -56t-58.5 -24q-29 0 -48 19.5t-19 47.5q0 34 25 58.5t59 24.5q28 0 47.5 -20.5t19.5 -49.5zM142 -213h-62q-29 0 -26 30l66 508q4 29 34 29h33q30 0 27 -29l-40 -508q-3 -30 -32 -30z" />
    <glyph glyph-name="cent" unicode="&#xa2;" horiz-adv-x="612" 
d="M72 278q0 113 74 193t187 96q12 2 14 14l9 85q3 29 33 29h10q30 0 27 -29l-9 -85q-2 -12 13 -14q75 -10 124.5 -59t57.5 -112q1 -15 -7.5 -23.5t-23.5 -8.5h-63q-22 0 -30 25q-17 54 -70 67q-15 3 -17 -12l-30 -288q-1 -7 2.5 -10t10.5 -1q59 13 80 59q16 24 36 24h66
q15 0 22 -8.5t2 -23.5q-23 -70 -81 -111.5t-137 -51.5q-12 -2 -14 -14l-6 -60q-3 -29 -33 -29h-10q-14 0 -21.5 8t-6.5 21l7 60q2 13 -12 15q-87 13 -145.5 81.5t-58.5 162.5zM201 280q0 -52 23.5 -87t63.5 -48q15 -5 17 12l30 286q1 7 -3 11t-10 2q-54 -15 -87.5 -62
t-33.5 -114z" />
    <glyph glyph-name="sterling" unicode="&#xa3;" horiz-adv-x="671" 
d="M70 264l1 12q5 29 33 29h68q-17 59 -17 104q0 113 74 179t197 66q91 0 159 -53.5t79 -131.5q2 -15 -6 -23t-23 -8h-69q-21 0 -31 26q-12 36 -42.5 57.5t-73.5 21.5q-62 0 -100.5 -39t-38.5 -106q0 -22 11 -93h207q30 0 25 -29l-1 -12q-3 -28 -31 -28l-199 -2
q-8 -44 -46 -92q-11 -16 6 -19q10 0 15 -1q29 -2 84.5 -17.5t93.5 -15.5q74 0 95 37q15 23 33 23h37q28 0 29 -25q1 -63 -43 -105t-143 -42q-50 0 -121 20t-119 19q-42 -2 -71 -13q-38 -13 -49 20l-10 30q-10 29 15 53q73 73 80 128l-82 1q-29 2 -26 29z" />
    <glyph glyph-name="currency" unicode="&#xa4;" horiz-adv-x="641" 
d="M94 291q0 104 70 172l-31 34q-19 20 1 41l10 11q23 24 42 5l42 -44q66 39 153 39q74 0 135 -39l51 43q23 19 41 -4l9 -11q16 -22 -8 -41l-39 -34q47 -53 47 -137q0 -102 -77 -182l29 -31q20 -21 0 -41l-11 -11q-24 -22 -42 -3l-39 40q-77 -37 -148 -37q-75 0 -136 41
l-59 -44q-25 -18 -41 3l-8 11q-17 23 8 41l46 36q-45 59 -45 142zM218 292q0 -58 34 -93.5t88 -35.5q64 0 108 45t44 112q0 57 -34 92t-88 35q-63 0 -107.5 -44t-44.5 -111z" />
    <glyph glyph-name="yen" unicode="&#xa5;" horiz-adv-x="649" 
d="M121 606q-7 15 -0.5 25t23.5 10h75q25 0 32 -21l104 -258q8 -17 20 0l166 258q12 21 36 21h65q17 0 21.5 -9.5t-5.5 -25.5l-174 -255q-5 -7 -2 -12t11 -5h70q26 0 26 -29v-4q-2 -29 -32 -29h-100q-15 0 -25 -8.5t-12 -22.5l-1 -13q0 -17 15 -17h93q26 0 26 -29v-5
q0 -13 -9 -21t-23 -8h-96q-16 0 -18 -17l-11 -102q-3 -29 -32 -29h-65q-29 0 -26 29l11 102q2 17 -16 17h-114q-25 0 -25 29v5q0 13 9 21t23 8h111q19 0 19 17l1 13q3 31 -28 31h-119q-27 0 -27 29v4q2 29 33 29h86q8 0 12 5t0 12z" />
    <glyph glyph-name="brokenbar" unicode="&#xa6;" horiz-adv-x="267" 
d="M159 429q-28 0 -25 29l25 243q3 29 32 29h39q28 0 25 -29l-25 -243q-3 -29 -32 -29h-39zM184 298q29 0 26 -29l-25 -240q-3 -29 -32 -29h-39q-28 0 -25 29l25 240q3 29 32 29h38z" />
    <glyph glyph-name="section" unicode="&#xa7;" horiz-adv-x="646" 
d="M130 517q0 98 71 160.5t203 62.5q94 0 158 -52.5t79 -136.5q2 -14 -6 -22.5t-23 -8.5h-67q-22 0 -30 22q-28 87 -123 87q-60 0 -98 -28t-38 -73q0 -41 35.5 -63t86.5 -33t102.5 -26t87 -55t35.5 -108q0 -15 -9.5 -22.5t-23.5 -5.5l-68 12q-22 3 -22 17q-2 28 -29 45.5
t-66 25t-83.5 21t-82.5 30.5t-63.5 56t-25.5 95zM46 -5q-4 15 4 23.5t23 8.5h71q23 0 30 -23q30 -95 149 -95q64 0 103.5 28t39.5 73q0 42 -38 62t-92.5 28t-108.5 21t-92 55t-38 115q0 16 9.5 23.5t24.5 4.5l68 -12q17 -3 24 -28q6 -27 37 -44t72 -23.5t88 -18t86.5 -27
t65.5 -52t26 -90.5q0 -104 -77 -166t-211 -62q-104 0 -174.5 55.5t-89.5 143.5z" />
    <glyph glyph-name="dieresis" unicode="&#xa8;" horiz-adv-x="600" 
d="M213 604q-28 0 -46 19t-18 48q0 31 23.5 54t55.5 23q28 0 47 -19t19 -45q0 -33 -24.5 -56.5t-56.5 -23.5zM419 604q-27 0 -46 19.5t-19 48.5q0 31 24.5 53.5t55.5 22.5q28 0 47 -19t19 -45q0 -33 -24.5 -56.5t-56.5 -23.5z" />
    <glyph glyph-name="copyright" unicode="&#xa9;" horiz-adv-x="894" 
d="M440 -62q-150 0 -257 109t-107 261q0 181 132.5 310t317.5 129q149 0 256 -109t107 -260q0 -181 -132 -310.5t-317 -129.5zM450 26q140 0 244.5 102.5t104.5 242.5q0 121 -81 204.5t-202 83.5q-140 0 -245 -102t-105 -242q0 -122 81.5 -205.5t202.5 -83.5zM628 395
q-20 0 -29 23q-9 26 -34 42.5t-62 16.5q-58 0 -97 -43t-39 -108q0 -55 30.5 -88t77.5 -33q74 0 106 55q13 22 34 22h50q15 0 21.5 -8t1.5 -22q-25 -60 -82 -96.5t-138 -36.5q-87 0 -147.5 59t-60.5 145q0 104 69.5 173.5t182.5 69.5q77 0 129.5 -41.5t62.5 -98.5
q3 -14 -5 -22.5t-23 -8.5h-48z" />
    <glyph glyph-name="ordfeminine" unicode="&#xaa;" horiz-adv-x="456" 
d="M98 557q0 84 52.5 133.5t130.5 49.5q62 0 104 -37q8 -7 12 4l2 5q11 23 33 23h6q29 0 26 -28l-28 -268q-3 -29 -31 -29h-4q-22 0 -29 23l-1 6q-3 10 -11 3q-48 -37 -112 -37q-63 0 -106.5 43t-43.5 109zM192 565q0 -36 21 -58t55 -22q48 0 82 42q9 12 11 31l3 27
q2 21 -4 31q-23 43 -74 43q-40 0 -67 -26t-27 -68z" />
    <glyph glyph-name="guillemotleft" unicode="&#xab;" horiz-adv-x="546" 
d="M184 296q-26 -17 -3 -35l71 -56q19 -15 16 -42l-4 -46q-1 -22 -15 -28.5t-30 7.5l-134 114q-19 17 -16 42l6 55q3 28 25 43l157 106q20 14 31.5 7.5t9.5 -28.5l-4 -47q-3 -25 -27 -42zM415 296q-26 -17 -3 -35l71 -56q19 -15 16 -42l-4 -46q-1 -22 -15 -28.5t-30 7.5
l-134 114q-19 17 -16 42l6 55q3 28 25 43l157 106q20 14 31.5 7.5t9.5 -28.5l-4 -47q-3 -25 -27 -42z" />
    <glyph glyph-name="registered" unicode="&#xae;" horiz-adv-x="894" 
d="M76 308q0 118 62 219.5t166 160.5t222 59q153 0 258 -107.5t105 -261.5q0 -118 -61 -219.5t-164.5 -161t-223.5 -59.5q-152 0 -258 108t-106 262zM166 315q0 -122 81.5 -205.5t202.5 -83.5q140 0 244.5 102.5t104.5 242.5q0 121 -81 204.5t-202 83.5q-140 0 -245 -102
t-105 -242zM351 136q-29 0 -26 28l40 377q1 18 13 28.5t29 10.5h92q78 0 127.5 -39t49.5 -97q0 -98 -111 -136q-24 -10 -12 -28l73 -110q9 -14 3 -24.5t-23 -10.5l-55 1q-23 0 -31 18l-84 134h-4l-13 -124q-3 -28 -31 -28h-37zM442 382q-2 -19 17 -19h15q47 0 76.5 20
t29.5 56q0 30 -25.5 47t-67.5 17h-14q-18 0 -21 -19z" />
    <glyph glyph-name="macron" unicode="&#xaf;" horiz-adv-x="600" 
d="M232 686q3 29 31 29h246q14 0 21.5 -8t5.5 -21l-4 -34q-3 -29 -32 -29h-246q-29 0 -26 29z" />
    <glyph glyph-name="degree" unicode="&#xb0;" horiz-adv-x="411" 
d="M249 406q-65 0 -108.5 44.5t-43.5 108.5q0 74 56 127.5t131 53.5q63 0 106 -44.5t43 -107.5q0 -74 -55.5 -128t-128.5 -54zM256 478q42 0 73.5 30.5t31.5 73.5q0 36 -24 61.5t-60 25.5q-43 0 -74.5 -31t-31.5 -73q0 -37 24 -62t61 -25z" />
    <glyph glyph-name="plusminus" unicode="&#xb1;" horiz-adv-x="510" 
d="M94 339l4 39q3 29 32 29h100q19 0 21 19l10 99q3 29 33 29h41q29 0 26 -29l-10 -98q-2 -19 17 -19h98q29 0 26 -30l-4 -39q-3 -30 -32 -30h-98q-19 0 -21 -19l-11 -98q-3 -29 -32 -29h-41q-29 0 -26 29l10 98q3 19 -17 19h-100q-29 0 -26 30zM456 96q29 0 26 -29l-4 -41
q-3 -29 -32 -29h-336q-29 0 -26 29l4 41q3 29 32 29h336z" />
    <glyph glyph-name="acute" unicode="&#xb4;" horiz-adv-x="600" 
d="M464 754q28 17 39 -11l18 -47q11 -27 -19 -38l-188 -71q-29 -11 -38 13l-5 12q-10 26 15 40z" />
    <glyph glyph-name="paragraph" unicode="&#xb6;" horiz-adv-x="800" 
d="M84 469q0 116 79.5 188.5t222.5 72.5h423q28 0 25 -28l-5 -46q-3 -29 -31 -29h-34q-26 0 -29 -25l-60 -577q-3 -28 -32 -28h-50q-29 0 -26 28l61 577q3 25 -22 25h-45q-26 0 -29 -25l-60 -577q-3 -28 -32 -28h-44q-28 0 -25 28l21 198q2 26 -23 26h-33
q-123 0 -187.5 60.5t-64.5 159.5z" />
    <glyph glyph-name="periodcentered" unicode="&#xb7;" horiz-adv-x="258" 
d="M155 252q-28 0 -47.5 20.5t-19.5 49.5q0 33 25 56.5t58 23.5q28 0 48 -19.5t20 -47.5q0 -33 -25.5 -58t-58.5 -25z" />
    <glyph glyph-name="cedilla" unicode="&#xb8;" horiz-adv-x="600" 
d="M243 -91q-14 0 -20 8.5t-1 22.5l25 63h75l-7 -21q-6 -18 10 -21q64 -12 64 -75q0 -50 -39 -78t-98 -28q-49 0 -80 17q-19 12 -9 35l5 12q9 21 36 12q20 -9 45 -9q45 0 45 32q0 30 -38 30h-13z" />
    <glyph glyph-name="ordmasculine" unicode="&#xba;" horiz-adv-x="442" 
d="M98 556q0 84 55.5 134t145.5 50q73 0 119.5 -42.5t46.5 -107.5q0 -85 -55 -136.5t-147 -51.5q-72 0 -118.5 43.5t-46.5 110.5zM197 562q0 -34 20 -55t55 -21q41 0 67 27t26 67q0 34 -20.5 54.5t-55.5 20.5q-40 0 -66 -26t-26 -67z" />
    <glyph glyph-name="guillemotright" unicode="&#xbb;" horiz-adv-x="552" 
d="M191 298l-70 48q-19 13 -17 42l4 47q1 22 15 28.5t30 -7.5l135 -110q18 -15 15 -43l-4 -49q-3 -26 -25 -42l-159 -116q-19 -14 -31 -7.5t-10 28.5l5 49q3 27 25 42l83 55q27 19 4 35zM428 298l-70 48q-19 14 -16 42l3 47q1 22 15 28t30 -7l135 -111q19 -15 16 -43l-5 -48
q-3 -26 -25 -42l-158 -117q-19 -14 -31 -7.5t-10 28.5l4 50q3 26 26 42l82 55q27 19 4 35z" />
    <glyph glyph-name="onequarter" unicode="&#xbc;" horiz-adv-x="863" 
d="M120 377q-30 0 -27 29l3 20q3 30 32 30h41q13 0 14 13l13 122q1 6 -3 8.5t-9 -0.5q-14 -7 -38 -14q-15 -4 -23 3.5t-6 22.5l3 23q3 24 29 32q23 7 84 50q19 14 38 14h6q28 0 25 -29l-25 -232q-2 -13 12 -13h43q30 0 25 -30l-2 -20q-3 -29 -31 -29h-204zM175 104
q-18 20 2 42l506 486q22 22 41 3l25 -24q19 -19 -2 -41l-505 -490q-23 -21 -42 -1zM528 70q-30 0 -27 27l1 7q5 24 17 36q91 101 107 193q6 28 35 28h36q31 0 25 -30q-17 -84 -92 -172q-6 -6 -4.5 -10t9.5 -4h47q10 0 12 11l5 44q3 29 31 29h33q30 0 27 -29l-5 -44
q-1 -4 2 -7.5t8 -3.5h25q27 0 25 -29l-2 -17q-2 -29 -32 -29h-24q-10 0 -12 -11l-3 -30q-3 -29 -33 -29h-33q-28 0 -25 29l3 30q1 4 -2 7.5t-8 3.5h-146z" />
    <glyph glyph-name="onehalf" unicode="&#xbd;" horiz-adv-x="834" 
d="M87 406l3 20q3 30 32 30h36q20 0 22 20l12 115q1 6 -2.5 8t-8.5 -1q-24 -11 -42 -15q-14 -4 -22 3.5t-6 22.5l3 25q1 24 28 32q30 9 84 52q13 12 42 12h4q29 0 26 -29l-23 -225q-2 -20 18 -20h32q29 0 26 -30l-3 -20q-3 -29 -31 -29h-203q-30 0 -27 29zM176 145l506 487
q22 21 41 2l25 -25q20 -19 -3 -42l-506 -490q-21 -21 -41 -1l-24 28q-19 20 2 41zM513 27q0 15 19 31l124 106q44 37 57.5 53.5t13.5 34.5q0 37 -47 37q-40 0 -57 -33q-14 -25 -34 -25h-28q-15 0 -22 8.5t-1 23.5q17 47 56.5 74.5t97.5 27.5q53 0 87.5 -28.5t34.5 -68.5
t-21 -68.5t-82 -77.5l-32 -28q-7 -5 -5.5 -9.5t9.5 -4.5h96q28 0 26 -29l-2 -22q-3 -29 -33 -29h-231q-26 0 -26 22v5z" />
    <glyph glyph-name="threequarters" unicode="&#xbe;" horiz-adv-x="863" 
d="M91 449q-2 14 6.5 22.5t23.5 8.5h26q19 0 30 -22q13 -30 65 -30q33 0 53.5 13t20.5 38q0 37 -70 37h-20q-30 0 -27 27l1 9q4 27 31 27h21q28 0 44 13t18 34q3 42 -48 42q-39 0 -58 -29q-17 -23 -36 -23h-23q-15 0 -22.5 8.5t-1.5 22.5q18 41 56.5 67t92.5 26
q60 0 94.5 -28t34.5 -68q0 -52 -45 -85q-12 -7 0 -13q44 -21 44 -74t-48 -84.5t-120 -31.5q-55 0 -95.5 28t-47.5 65zM191 108q-18 19 3 42l506 486q22 22 40 2l27 -26q19 -20 -3 -42l-506 -490q-22 -22 -40 -1zM522 70q-14 0 -21 7t-5 20l1 7q3 22 16 36q97 106 113 193
q6 28 33 28h35q15 0 22 -8t3 -22q-17 -86 -94 -174q-12 -14 5 -14h50q11 0 13 11l5 46q3 29 32 29h33q29 0 26 -29l-5 -46q-2 -11 10 -11h23q29 0 26 -29l-1 -15q-2 -29 -32 -29h-24q-10 0 -12 -11l-3 -30q-3 -29 -32 -29h-33q-29 0 -26 29l3 30q1 4 -2 7.5t-8 3.5h-151z
" />
    <glyph glyph-name="questiondown" unicode="&#xbf;" horiz-adv-x="572" 
d="M428 464q0 -33 -25 -56.5t-58 -23.5q-29 0 -48.5 19.5t-19.5 47.5q0 33 25 58t58 25q29 0 48.5 -20.5t19.5 -49.5zM514 4q15 0 21.5 -9t0.5 -23q-33 -85 -101.5 -136.5t-171.5 -51.5q-99 0 -161.5 55t-62.5 147q0 184 216 252q21 6 26 28l5 30q8 27 34 27h37q27 0 27 -27
l-3 -88q-1 -41 -45 -50q-171 -35 -171 -159q0 -47 30 -75.5t80 -28.5q94 0 140 86q14 23 36 23h63z" />
    <glyph glyph-name="Agrave" unicode="&#xc0;" horiz-adv-x="716" 
d="M325 909q12 30 38 19l175 -72q26 -11 15 -38l-6 -14q-12 -27 -37 -21l-185 39q-30 5 -18 35zM41 0q-15 0 -20.5 9.5t1.5 24.5l320 664q14 32 47 32h80q32 0 41 -31l196 -665q4 -16 -3 -25t-23 -9h-74q-25 0 -31 23l-32 119q-3 12 -15 12h-308q-13 0 -19 -12l-54 -118
q-11 -24 -36 -24h-70zM266 283q-7 -17 10 -17h217q19 0 14 17l-81 300q-2 6 -5.5 8.5t-7.5 0t-7 -8.5z" />
    <glyph glyph-name="Aacute" unicode="&#xc1;" horiz-adv-x="716" 
d="M547 910q30 11 35 -19l8 -50q4 -28 -27 -33l-199 -29q-29 -5 -34 21l-2 12q-5 27 23 36zM41 0q-15 0 -20.5 9.5t1.5 24.5l320 664q14 32 47 32h80q32 0 41 -31l196 -665q4 -16 -3 -25t-23 -9h-74q-25 0 -31 23l-32 119q-3 12 -15 12h-308q-13 0 -19 -12l-54 -118
q-11 -24 -36 -24h-70zM266 283q-7 -17 10 -17h217q19 0 14 17l-81 300q-2 6 -5.5 8.5t-7.5 0t-7 -8.5z" />
    <glyph glyph-name="Acircumflex" unicode="&#xc2;" horiz-adv-x="716" 
d="M268 820q-10 24 15 37l143 71q30 14 52 0l134 -71q23 -13 7 -37l-10 -20q-13 -22 -37 -13l-105 38q-26 7 -50 -1l-108 -36q-25 -9 -34 12zM41 0q-15 0 -20.5 9.5t1.5 24.5l320 664q14 32 47 32h80q32 0 41 -31l196 -665q4 -16 -3 -25t-23 -9h-74q-25 0 -31 23l-32 119
q-3 12 -15 12h-308q-13 0 -19 -12l-54 -118q-11 -24 -36 -24h-70zM266 283q-7 -17 10 -17h217q19 0 14 17l-81 300q-2 6 -5.5 8.5t-7.5 0t-7 -8.5z" />
    <glyph glyph-name="Atilde" unicode="&#xc3;" horiz-adv-x="716" 
d="M602 908q29 -5 21 -33q-10 -36 -40 -56.5t-68 -20.5q-33 0 -72 19t-51 19q-22 0 -36 -16q-14 -18 -35 -14l-25 5q-13 2 -18.5 11.5t-1.5 22.5q11 38 38.5 59t63.5 20q34 0 78 -19.5t53 -19.5q24 0 36 15q12 17 33 13zM41 0q-15 0 -20.5 9.5t1.5 24.5l320 664q14 32 47 32
h80q32 0 41 -31l196 -665q4 -16 -3 -25t-23 -9h-74q-25 0 -31 23l-32 119q-3 12 -15 12h-308q-13 0 -19 -12l-54 -118q-11 -24 -36 -24h-70zM266 283q-7 -17 10 -17h217q19 0 14 17l-81 300q-2 6 -5.5 8.5t-7.5 0t-7 -8.5z" />
    <glyph glyph-name="Adieresis" unicode="&#xc4;" horiz-adv-x="716" 
d="M324 775q-30 0 -49 20.5t-19 51.5q0 33 25 57.5t59 24.5q30 0 50.5 -20t20.5 -49q0 -35 -26.5 -60t-60.5 -25zM545 775q-29 0 -49.5 21t-20.5 52q0 33 26 57t60 24q29 0 49.5 -20t20.5 -49q0 -35 -26 -60t-60 -25zM41 0q-15 0 -20.5 9.5t1.5 24.5l320 664q14 32 47 32h80
q32 0 41 -31l196 -665q4 -16 -3 -25t-23 -9h-74q-25 0 -31 23l-32 119q-3 12 -15 12h-308q-13 0 -19 -12l-54 -118q-11 -24 -36 -24h-70zM266 283q-7 -17 10 -17h217q19 0 14 17l-81 300q-2 6 -5.5 8.5t-7.5 0t-7 -8.5z" />
    <glyph glyph-name="Aring" unicode="&#xc5;" horiz-adv-x="716" 
d="M435 761q-49 0 -79.5 29t-30.5 71q0 48 36 82.5t97 34.5q50 0 81.5 -28.5t31.5 -69.5q0 -50 -36.5 -84.5t-99.5 -34.5zM442 828q21 0 35 13t15 31t-10.5 29.5t-30.5 11.5t-32.5 -13t-14.5 -32q-1 -17 9.5 -28.5t28.5 -11.5zM41 0q-15 0 -20.5 9.5t1.5 24.5l320 664
q14 32 47 32h80q32 0 41 -31l196 -665q4 -16 -3 -25t-23 -9h-74q-25 0 -31 23l-32 119q-3 12 -15 12h-308q-13 0 -19 -12l-54 -118q-11 -24 -36 -24h-70zM266 283q-7 -17 10 -17h217q19 0 14 17l-81 300q-2 6 -5.5 8.5t-7.5 0t-7 -8.5z" />
    <glyph glyph-name="AE" unicode="&#xc6;" horiz-adv-x="954" 
d="M15 0q-17 0 -21.5 10t5.5 25l450 674q13 21 38 21h438q29 0 26 -29l-6 -47q-3 -29 -31 -29h-237q-18 0 -20 -18l-18 -172q-2 -18 16 -18h260q29 0 26 -29l-5 -47q-3 -29 -32 -29h-260q-18 0 -20 -18l-18 -170q-2 -18 16 -18h253q29 0 26 -29l-5 -48q-3 -29 -32 -29h-366
q-29 0 -27 30l12 108q2 18 -16 18h-239q-15 0 -23 -12l-82 -124q-13 -20 -37 -20h-71zM303 289q-6 -9 -3 -15t13 -6h166q17 0 19 18l32 303q2 13 -5.5 15.5t-14.5 -9.5z" />
    <glyph glyph-name="Ccedilla" unicode="&#xc7;" horiz-adv-x="830" 
d="M495 626q-120 0 -203 -81t-83 -205q0 -104 65 -170t168 -66q81 0 143.5 36.5t91.5 101.5q12 24 36 24h73q14 0 20.5 -8.5t1.5 -23.5q-38 -103 -132 -170.5t-224 -73.5l-3 -8q-6 -18 10 -21q64 -12 64 -75q0 -50 -39 -78t-98 -28q-49 0 -80 17q-19 12 -9 35l5 12
q9 21 36 12q20 -9 45 -9q45 0 45 32q0 30 -38 30h-13q-14 0 -20 8.5t-1 22.5l21 54q-129 18 -213 110.5t-84 226.5q0 176 123 292.5t302 116.5q140 0 229.5 -82.5t98.5 -202.5q1 -14 -7.5 -22t-23.5 -8h-72q-26 0 -30 27q-9 78 -63.5 126t-141.5 48z" />
    <glyph glyph-name="Egrave" unicode="&#xc8;" horiz-adv-x="565" 
d="M271 909q12 30 38 19l175 -72q26 -11 15 -38l-6 -14q-12 -27 -37 -21l-185 39q-30 5 -18 35zM126 0q-36 0 -33 36l70 658q3 36 40 36h351q29 0 26 -29l-5 -47q-3 -29 -32 -29h-245q-18 0 -20 -18l-18 -173q-2 -18 16 -18h226q29 0 26 -29l-5 -47q-3 -29 -32 -29h-226
q-18 0 -20 -18l-18 -169q-2 -18 16 -18h253q29 0 26 -29l-4 -48q-3 -29 -33 -29h-359z" />
    <glyph glyph-name="Eacute" unicode="&#xc9;" horiz-adv-x="565" 
d="M493 910q30 11 35 -19l8 -50q4 -28 -27 -33l-199 -29q-29 -5 -34 21l-2 12q-5 27 23 36zM126 0q-36 0 -33 36l70 658q3 36 40 36h351q29 0 26 -29l-5 -47q-3 -29 -32 -29h-245q-18 0 -20 -18l-18 -173q-2 -18 16 -18h226q29 0 26 -29l-5 -47q-3 -29 -32 -29h-226
q-18 0 -20 -18l-18 -169q-2 -18 16 -18h253q29 0 26 -29l-4 -48q-3 -29 -33 -29h-359z" />
    <glyph glyph-name="Ecircumflex" unicode="&#xca;" horiz-adv-x="565" 
d="M214 820q-10 24 15 37l143 71q30 14 52 0l134 -71q23 -13 7 -37l-10 -20q-13 -22 -37 -13l-105 38q-26 7 -50 -1l-108 -36q-25 -9 -34 12zM126 0q-36 0 -33 36l70 658q3 36 40 36h351q29 0 26 -29l-5 -47q-3 -29 -32 -29h-245q-18 0 -20 -18l-18 -173q-2 -18 16 -18h226
q29 0 26 -29l-5 -47q-3 -29 -32 -29h-226q-18 0 -20 -18l-18 -169q-2 -18 16 -18h253q29 0 26 -29l-4 -48q-3 -29 -33 -29h-359z" />
    <glyph glyph-name="Edieresis" unicode="&#xcb;" horiz-adv-x="565" 
d="M270 775q-30 0 -49 20.5t-19 51.5q0 33 25 57.5t59 24.5q30 0 50.5 -20t20.5 -49q0 -35 -26.5 -60t-60.5 -25zM491 775q-29 0 -49.5 21t-20.5 52q0 33 26 57t60 24q29 0 49.5 -20t20.5 -49q0 -35 -26 -60t-60 -25zM126 0q-36 0 -33 36l70 658q3 36 40 36h351q29 0 26 -29
l-5 -47q-3 -29 -32 -29h-245q-18 0 -20 -18l-18 -173q-2 -18 16 -18h226q29 0 26 -29l-5 -47q-3 -29 -32 -29h-226q-18 0 -20 -18l-18 -169q-2 -18 16 -18h253q29 0 26 -29l-4 -48q-3 -29 -33 -29h-359z" />
    <glyph glyph-name="Igrave" unicode="&#xcc;" horiz-adv-x="306" 
d="M121 909q12 30 38 19l175 -72q26 -11 15 -38l-6 -14q-12 -27 -37 -21l-185 39q-30 5 -18 35zM263 730q29 0 26 -29l-70 -672q-3 -29 -33 -29h-67q-29 0 -26 29l70 672q3 29 33 29h67z" />
    <glyph glyph-name="Iacute" unicode="&#xcd;" horiz-adv-x="306" 
d="M343 910q30 11 35 -19l8 -50q4 -28 -27 -33l-199 -29q-29 -5 -34 21l-2 12q-5 27 23 36zM263 730q29 0 26 -29l-70 -672q-3 -29 -33 -29h-67q-29 0 -26 29l70 672q3 29 33 29h67z" />
    <glyph glyph-name="Icircumflex" unicode="&#xce;" horiz-adv-x="306" 
d="M64 820q-10 24 15 37l143 71q30 14 52 0l134 -71q23 -13 7 -37l-10 -20q-13 -22 -37 -13l-105 38q-26 7 -50 -1l-108 -36q-25 -9 -34 12zM263 730q29 0 26 -29l-70 -672q-3 -29 -33 -29h-67q-29 0 -26 29l70 672q3 29 33 29h67z" />
    <glyph glyph-name="Idieresis" unicode="&#xcf;" horiz-adv-x="306" 
d="M120 775q-30 0 -49 20.5t-19 51.5q0 33 25 57.5t59 24.5q30 0 50.5 -20t20.5 -49q0 -35 -26.5 -60t-60.5 -25zM341 775q-29 0 -49.5 21t-20.5 52q0 33 26 57t60 24q29 0 49.5 -20t20.5 -49q0 -35 -26 -60t-60 -25zM263 730q29 0 26 -29l-70 -672q-3 -29 -33 -29h-67
q-29 0 -26 29l70 672q3 29 33 29h67z" />
    <glyph glyph-name="Eth" unicode="&#xd0;" horiz-adv-x="789" 
d="M442 730q151 0 247.5 -94.5t96.5 -235.5q0 -180 -120.5 -290t-300.5 -110h-239q-36 0 -33 36l30 286h-39q-28 0 -26 29l4 38q2 30 32 30h40l29 275q3 36 40 36h239zM376 105q114 0 197 76.5t83 214.5q0 110 -64.5 169.5t-160.5 59.5h-132q-18 0 -20 -18l-19 -188h126
q28 0 26 -30l-4 -38q-2 -29 -32 -29h-126l-21 -199q-2 -18 16 -18h131z" />
    <glyph glyph-name="Ntilde" unicode="&#xd1;" horiz-adv-x="809" 
d="M650 908q29 -5 21 -33q-10 -36 -40 -56.5t-68 -20.5q-33 0 -72 19t-51 19q-22 0 -36 -16q-14 -18 -35 -14l-25 5q-13 2 -18.5 11.5t-1.5 22.5q11 38 38.5 59t63.5 20q33 0 77.5 -19.5t53.5 -19.5q24 0 36 15q12 17 33 13zM119 0q-29 0 -26 29l70 665q3 36 39 36h18
q28 0 42 -21l346 -501q7 -10 14.5 -7.5t8.5 15.5l51 485q3 29 32 29h53q29 0 26 -29l-70 -665q-5 -36 -40 -36h-34q-28 0 -42 21l-333 469q-7 10 -14 7.5t-9 -14.5l-47 -454q-3 -29 -32 -29h-53z" />
    <glyph glyph-name="Ograve" unicode="&#xd2;" horiz-adv-x="865" 
d="M400 909q12 30 38 19l175 -72q26 -11 15 -38l-6 -14q-12 -27 -37 -21l-185 39q-30 5 -18 35zM80 331q0 184 122.5 296.5t307.5 112.5q152 0 252.5 -94.5t100.5 -243.5q0 -179 -122 -295.5t-310 -116.5q-149 0 -250 95t-101 246zM209 340q0 -107 65 -173t171 -66
q121 0 204.5 83t83.5 210q0 105 -65.5 170t-171.5 65q-120 0 -203.5 -82t-83.5 -207z" />
    <glyph glyph-name="Oacute" unicode="&#xd3;" horiz-adv-x="865" 
d="M622 910q30 11 35 -19l8 -50q4 -28 -27 -33l-199 -29q-29 -5 -34 21l-2 12q-5 27 23 36zM80 331q0 184 122.5 296.5t307.5 112.5q152 0 252.5 -94.5t100.5 -243.5q0 -179 -122 -295.5t-310 -116.5q-149 0 -250 95t-101 246zM209 340q0 -107 65 -173t171 -66
q121 0 204.5 83t83.5 210q0 105 -65.5 170t-171.5 65q-120 0 -203.5 -82t-83.5 -207z" />
    <glyph glyph-name="Ocircumflex" unicode="&#xd4;" horiz-adv-x="865" 
d="M343 820q-10 24 15 37l143 71q30 14 52 0l134 -71q23 -13 7 -37l-10 -20q-13 -22 -37 -13l-105 38q-26 7 -50 -1l-108 -36q-25 -9 -34 12zM80 331q0 184 122.5 296.5t307.5 112.5q152 0 252.5 -94.5t100.5 -243.5q0 -179 -122 -295.5t-310 -116.5q-149 0 -250 95
t-101 246zM209 340q0 -107 65 -173t171 -66q121 0 204.5 83t83.5 210q0 105 -65.5 170t-171.5 65q-120 0 -203.5 -82t-83.5 -207z" />
    <glyph glyph-name="Otilde" unicode="&#xd5;" horiz-adv-x="865" 
d="M677 908q29 -5 21 -33q-10 -36 -40 -56.5t-68 -20.5q-33 0 -72 19t-51 19q-22 0 -36 -16q-14 -18 -35 -14l-25 5q-13 2 -18.5 11.5t-1.5 22.5q11 38 38.5 59t63.5 20q33 0 77 -19.5t54 -19.5q24 0 36 15q12 17 33 13zM80 331q0 184 122.5 296.5t307.5 112.5
q152 0 252.5 -94.5t100.5 -243.5q0 -179 -122 -295.5t-310 -116.5q-149 0 -250 95t-101 246zM209 340q0 -107 65 -173t171 -66q121 0 204.5 83t83.5 210q0 105 -65.5 170t-171.5 65q-120 0 -203.5 -82t-83.5 -207z" />
    <glyph glyph-name="Odieresis" unicode="&#xd6;" horiz-adv-x="865" 
d="M399 775q-30 0 -49 20.5t-19 51.5q0 33 25 57.5t59 24.5q30 0 50.5 -20t20.5 -49q0 -35 -26.5 -60t-60.5 -25zM620 775q-29 0 -49.5 21t-20.5 52q0 33 26 57t60 24q29 0 49.5 -20t20.5 -49q0 -35 -26 -60t-60 -25zM80 331q0 184 122.5 296.5t307.5 112.5
q152 0 252.5 -94.5t100.5 -243.5q0 -179 -122 -295.5t-310 -116.5q-149 0 -250 95t-101 246zM209 340q0 -107 65 -173t171 -66q121 0 204.5 83t83.5 210q0 105 -65.5 170t-171.5 65q-120 0 -203.5 -82t-83.5 -207z" />
    <glyph glyph-name="multiply" unicode="&#xd7;" horiz-adv-x="478" 
d="M90 146q-18 20 4 42l92 80q18 14 3 29l-74 85q-18 21 5 41l24 22q22 21 41 -1l75 -84q14 -14 30 0l96 86q23 21 42 -1l19 -22q20 -21 -3 -41l-96 -86q-17 -16 -3 -30l77 -86q18 -20 -4 -42l-25 -22q-23 -20 -42 1l-78 88q-14 15 -29 0l-92 -82q-23 -20 -42 1z" />
    <glyph glyph-name="Oslash" unicode="&#xd8;" horiz-adv-x="865" 
d="M794 610q69 -88 69 -208q0 -179 -122 -295.5t-310 -116.5q-126 0 -220 69l-50 -47q-22 -22 -42 0l-14 15q-20 20 3 42l47 44q-75 91 -75 218q0 184 122.5 296.5t307.5 112.5q132 0 228 -74l48 46q21 21 41 0l17 -16q19 -20 -3 -42zM209 340q0 -79 38 -139l401 380
q-62 48 -152 48q-120 0 -203.5 -82t-83.5 -207zM445 101q121 0 204.5 83t83.5 210q0 74 -32 127l-400 -377q62 -43 144 -43z" />
    <glyph glyph-name="Ugrave" unicode="&#xd9;" horiz-adv-x="781" 
d="M360 909q12 30 38 19l175 -72q26 -11 15 -38l-6 -14q-12 -27 -37 -21l-185 39q-30 5 -18 35zM111 307l42 394q3 29 32 29h71q29 0 26 -29l-42 -401q-10 -87 36 -141t126 -54q78 0 135.5 53t67.5 142l42 401q3 29 32 29h71q29 0 26 -29l-42 -394q-15 -143 -108 -230
t-236 -87q-129 0 -211 90t-68 227z" />
    <glyph glyph-name="Uacute" unicode="&#xda;" horiz-adv-x="781" 
d="M582 910q30 11 35 -19l8 -50q4 -28 -27 -33l-199 -29q-29 -5 -34 21l-2 12q-5 27 23 36zM111 307l42 394q3 29 32 29h71q29 0 26 -29l-42 -401q-10 -87 36 -141t126 -54q78 0 135.5 53t67.5 142l42 401q3 29 32 29h71q29 0 26 -29l-42 -394q-15 -143 -108 -230t-236 -87
q-129 0 -211 90t-68 227z" />
    <glyph glyph-name="Ucircumflex" unicode="&#xdb;" horiz-adv-x="781" 
d="M303 820q-10 24 15 37l143 71q30 14 52 0l134 -71q23 -13 7 -37l-10 -20q-13 -22 -37 -13l-105 38q-26 7 -50 -1l-108 -36q-25 -9 -34 12zM111 307l42 394q3 29 32 29h71q29 0 26 -29l-42 -401q-10 -87 36 -141t126 -54q78 0 135.5 53t67.5 142l42 401q3 29 32 29h71
q29 0 26 -29l-42 -394q-15 -143 -108 -230t-236 -87q-129 0 -211 90t-68 227z" />
    <glyph glyph-name="Udieresis" unicode="&#xdc;" horiz-adv-x="781" 
d="M359 775q-30 0 -49 20.5t-19 51.5q0 33 25 57.5t59 24.5q30 0 50.5 -20t20.5 -49q0 -35 -26.5 -60t-60.5 -25zM580 775q-29 0 -49.5 21t-20.5 52q0 33 26 57t60 24q29 0 49.5 -20t20.5 -49q0 -35 -26 -60t-60 -25zM111 307l42 394q3 29 32 29h71q29 0 26 -29l-42 -401
q-10 -87 36 -141t126 -54q78 0 135.5 53t67.5 142l42 401q3 29 32 29h71q29 0 26 -29l-42 -394q-15 -143 -108 -230t-236 -87q-129 0 -211 90t-68 227z" />
    <glyph glyph-name="Yacute" unicode="&#xdd;" horiz-adv-x="647" 
d="M520 910q30 11 35 -19l8 -50q4 -28 -27 -33l-199 -29q-29 -5 -34 21l-2 12q-5 27 23 36zM90 695q-7 16 -0.5 25.5t24.5 9.5h78q23 0 32 -21l129 -301q5 -12 13.5 -12t15.5 12l191 301q13 21 37 21h69q17 0 22 -9.5t-5 -25.5l-272 -410q-9 -15 -10 -27l-23 -227
q-3 -31 -35 -31h-61q-31 0 -28 31l23 226q2 16 -4 28z" />
    <glyph glyph-name="Thorn" unicode="&#xde;" horiz-adv-x="648" 
d="M119 0q-29 0 -26 29l70 672q3 29 33 29h67q29 0 26 -29l-6 -59q-2 -18 16 -18h67q126 0 204.5 -65.5t78.5 -177.5q0 -121 -95.5 -198t-240.5 -77h-68q-18 0 -20 -18l-6 -59q-3 -29 -33 -29h-67zM239 225q-2 -18 16 -18h70q81 0 137.5 49.5t56.5 121.5q0 63 -44.5 104
t-116.5 41h-70q-18 0 -20 -18z" />
    <glyph glyph-name="germandbls" unicode="&#xdf;" horiz-adv-x="671" 
d="M103 0q-29 0 -26 29l56 538q9 94 77.5 152t185.5 58q97 0 159.5 -64t52.5 -161l-3 -34q-3 -34 -39 -41q-76 -13 -76 -66q0 -22 17.5 -40.5t42 -33.5t49 -33.5t42 -51t17.5 -75.5q1 -93 -59.5 -140t-155.5 -47q-83 0 -133 46.5t-56 110.5q-2 31 31 31h51q23 0 29 -26
q15 -61 87 -61q38 0 62.5 19t24.5 54q0 29 -17.5 51.5t-42 38.5t-49 33.5t-42 46.5t-17.5 67q0 46 24 83t67 57q32 14 28 42q-6 39 -32.5 64t-72.5 25q-54 0 -90 -31t-41 -81l-56 -531q-3 -29 -32 -29h-63z" />
    <glyph glyph-name="agrave" unicode="&#xe0;" horiz-adv-x="579" 
d="M260 748q16 27 41 11l158 -104q23 -16 8 -40l-9 -12q-16 -24 -40 -14l-175 73q-27 11 -11 38zM51 124q0 81 61.5 124.5t176.5 42.5l104 -1q34 0 34 42q0 45 -27.5 70t-75.5 25q-85 0 -116 -66q-12 -24 -34 -24h-53q-15 0 -21.5 8.5t-2.5 22.5q23 78 87 120t156 42
q101 0 157.5 -63.5t45.5 -167.5l-28 -270q-3 -29 -32 -29h-19q-25 0 -32 22l-4 11q-10 33 -40 12q-81 -55 -184 -55q-64 0 -108.5 40.5t-44.5 93.5zM174 143q0 -26 20.5 -40t52.5 -14q63 0 141 46q21 13 23 36l1 7q2 30 -28 30h-100q-110 0 -110 -65z" />
    <glyph glyph-name="aacute" unicode="&#xe1;" horiz-adv-x="579" 
d="M432 754q28 17 39 -11l18 -47q11 -27 -19 -38l-188 -71q-29 -11 -38 13l-5 12q-10 26 15 40zM51 124q0 81 61.5 124.5t176.5 42.5l104 -1q34 0 34 42q0 45 -27.5 70t-75.5 25q-85 0 -116 -66q-12 -24 -34 -24h-53q-15 0 -21.5 8.5t-2.5 22.5q23 78 87 120t156 42
q101 0 157.5 -63.5t45.5 -167.5l-28 -270q-3 -29 -32 -29h-19q-25 0 -32 22l-4 11q-10 33 -40 12q-81 -55 -184 -55q-64 0 -108.5 40.5t-44.5 93.5zM174 143q0 -26 20.5 -40t52.5 -14q63 0 141 46q21 13 23 36l1 7q2 30 -28 30h-100q-110 0 -110 -65z" />
    <glyph glyph-name="acircumflex" unicode="&#xe2;" horiz-adv-x="579" 
d="M187 639q-11 25 14 36l139 69q29 14 51 0l130 -69q21 -11 7 -36l-10 -19q-12 -21 -36 -13l-102 37q-24 7 -49 -1l-105 -35q-24 -8 -33 12zM51 124q0 81 61.5 124.5t176.5 42.5l104 -1q34 0 34 42q0 45 -27.5 70t-75.5 25q-85 0 -116 -66q-12 -24 -34 -24h-53
q-15 0 -21.5 8.5t-2.5 22.5q23 78 87 120t156 42q101 0 157.5 -63.5t45.5 -167.5l-28 -270q-3 -29 -32 -29h-19q-25 0 -32 22l-4 11q-10 33 -40 12q-81 -55 -184 -55q-64 0 -108.5 40.5t-44.5 93.5zM174 143q0 -26 20.5 -40t52.5 -14q63 0 141 46q21 13 23 36l1 7
q2 30 -28 30h-100q-110 0 -110 -65z" />
    <glyph glyph-name="atilde" unicode="&#xe3;" horiz-adv-x="579" 
d="M505 703q29 -5 21 -33q-10 -36 -40 -56.5t-68 -20.5q-33 0 -72 19t-51 19q-22 0 -36 -16q-14 -18 -35 -14l-25 5q-13 2 -18.5 11.5t-1.5 22.5q11 38 38.5 59t63.5 20q33 0 77 -19.5t54 -19.5q24 0 36 15q12 17 33 13zM51 124q0 81 61.5 124.5t176.5 42.5l104 -1
q34 0 34 42q0 45 -27.5 70t-75.5 25q-85 0 -116 -66q-12 -24 -34 -24h-53q-15 0 -21.5 8.5t-2.5 22.5q23 78 87 120t156 42q101 0 157.5 -63.5t45.5 -167.5l-28 -270q-3 -29 -32 -29h-19q-25 0 -32 22l-4 11q-10 33 -40 12q-81 -55 -184 -55q-64 0 -108.5 40.5t-44.5 93.5z
M174 143q0 -26 20.5 -40t52.5 -14q63 0 141 46q21 13 23 36l1 7q2 30 -28 30h-100q-110 0 -110 -65z" />
    <glyph glyph-name="adieresis" unicode="&#xe4;" horiz-adv-x="579" 
d="M247 604q-28 0 -46 19t-18 48q0 31 23.5 54t55.5 23q28 0 47 -19t19 -45q0 -33 -24.5 -56.5t-56.5 -23.5zM453 604q-27 0 -46 19.5t-19 48.5q0 31 24.5 53.5t55.5 22.5q28 0 47 -19t19 -45q0 -33 -24.5 -56.5t-56.5 -23.5zM51 124q0 81 61.5 124.5t176.5 42.5l104 -1
q34 0 34 42q0 45 -27.5 70t-75.5 25q-85 0 -116 -66q-12 -24 -34 -24h-53q-15 0 -21.5 8.5t-2.5 22.5q23 78 87 120t156 42q101 0 157.5 -63.5t45.5 -167.5l-28 -270q-3 -29 -32 -29h-19q-25 0 -32 22l-4 11q-10 33 -40 12q-81 -55 -184 -55q-64 0 -108.5 40.5t-44.5 93.5z
M174 143q0 -26 20.5 -40t52.5 -14q63 0 141 46q21 13 23 36l1 7q2 30 -28 30h-100q-110 0 -110 -65z" />
    <glyph glyph-name="aring" unicode="&#xe5;" horiz-adv-x="579" 
d="M346 574q-49 0 -79.5 29t-30.5 71q0 48 36 82.5t97 34.5q50 0 81.5 -28.5t31.5 -69.5q0 -50 -36.5 -84.5t-99.5 -34.5zM353 641q21 0 35 13t15 31t-10.5 29.5t-30.5 11.5t-32.5 -13t-14.5 -32q-1 -17 9.5 -28.5t28.5 -11.5zM51 124q0 81 61.5 124.5t176.5 42.5l104 -1
q34 0 34 42q0 45 -27.5 70t-75.5 25q-85 0 -116 -66q-12 -24 -34 -24h-53q-15 0 -21.5 8.5t-2.5 22.5q23 78 87 120t156 42q101 0 157.5 -63.5t45.5 -167.5l-28 -270q-3 -29 -32 -29h-19q-25 0 -32 22l-4 11q-10 33 -40 12q-81 -55 -184 -55q-64 0 -108.5 40.5t-44.5 93.5z
M174 143q0 -26 20.5 -40t52.5 -14q63 0 141 46q21 13 23 36l1 7q2 30 -28 30h-100q-110 0 -110 -65z" />
    <glyph glyph-name="ae" unicode="&#xe6;" horiz-adv-x="941" 
d="M50 121q0 83 64 126.5t175 42.5l101 -1q26 0 27 18l1 8q4 54 -23 82.5t-75 28.5q-38 0 -68.5 -17.5t-43.5 -45.5q-13 -26 -34 -26h-53q-15 0 -22 8.5t-3 23.5q23 76 89 118.5t151 42.5q99 0 152 -61q18 -19 39 -2q81 63 182 63q97 0 166 -79t54 -186q-4 -38 -41 -38
l-330 1q-13 0 -20.5 -8t-4.5 -20q9 -51 44 -80.5t87 -29.5q85 0 120 57q16 22 36 22h56q15 0 22 -9t0 -23q-26 -64 -90 -105.5t-155 -41.5q-49 0 -96.5 19t-79.5 53q-17 18 -39 2q-99 -74 -218 -74q-73 0 -121.5 40.5t-48.5 90.5zM554 339q-6 -13 -1 -21t19 -8l214 -1
q14 0 21.5 9t3.5 24q-9 40 -39.5 64t-74.5 24q-43 0 -81.5 -24.5t-61.5 -66.5zM174 142q0 -25 21.5 -38.5t53.5 -13.5q75 0 157 57q14 9 11 26l-3 17q-3 18 -20 18h-110q-110 0 -110 -66z" />
    <glyph glyph-name="ccedilla" unicode="&#xe7;" horiz-adv-x="603" 
d="M362 426q-73 0 -122.5 -52t-49.5 -133q0 -68 39 -107.5t97 -39.5q44 0 80 19t52 51q13 24 35 24h62q15 0 22 -8.5t2 -23.5q-25 -73 -89 -117.5t-155 -48.5l-3 -8q-6 -18 10 -21q64 -12 64 -75q0 -50 -39 -78t-98 -28q-49 0 -80 17q-19 12 -9 35l5 12q9 21 36 12
q19 -9 45 -9q45 0 45 32q0 30 -38 30h-13q-14 0 -20 8.5t-1 22.5l22 56q-86 18 -140.5 85t-54.5 156q0 127 84 210t221 83q96 0 158.5 -49.5t71.5 -124.5q1 -15 -7.5 -23.5t-23.5 -8.5h-59q-22 0 -30 25q-9 33 -41 55t-78 22z" />
    <glyph glyph-name="egrave" unicode="&#xe8;" horiz-adv-x="596" 
d="M275 748q16 27 41 11l158 -104q23 -16 8 -40l-9 -12q-16 -24 -40 -14l-175 73q-27 11 -11 38zM66 237q0 124 82 208.5t206 84.5q61 0 107 -21t72 -57t39 -76.5t13 -85.5q0 -63 -38 -63l-328 1q-17 0 -26 -9.5t-5 -25.5q10 -48 44.5 -75t85.5 -27q86 0 121 56q16 22 36 22
h56q15 0 22 -9t0 -23q-65 -147 -245 -147q-99 0 -170.5 70.5t-71.5 176.5zM213 349q-8 -16 -1 -26t25 -10l197 -1q18 0 26.5 10t3.5 25q-10 39 -40.5 61.5t-76.5 22.5q-88 0 -134 -82z" />
    <glyph glyph-name="eacute" unicode="&#xe9;" horiz-adv-x="596" 
d="M447 754q28 17 39 -11l18 -47q11 -27 -19 -38l-188 -71q-29 -11 -38 13l-5 12q-10 26 15 40zM66 237q0 124 82 208.5t206 84.5q61 0 107 -21t72 -57t39 -76.5t13 -85.5q0 -63 -38 -63l-328 1q-17 0 -26 -9.5t-5 -25.5q10 -48 44.5 -75t85.5 -27q86 0 121 56q16 22 36 22
h56q15 0 22 -9t0 -23q-65 -147 -245 -147q-99 0 -170.5 70.5t-71.5 176.5zM213 349q-8 -16 -1 -26t25 -10l197 -1q18 0 26.5 10t3.5 25q-10 39 -40.5 61.5t-76.5 22.5q-88 0 -134 -82z" />
    <glyph glyph-name="ecircumflex" unicode="&#xea;" horiz-adv-x="596" 
d="M202 639q-11 25 14 36l139 69q29 14 51 0l130 -69q21 -11 7 -36l-10 -19q-13 -21 -36 -13l-102 37q-24 7 -49 -1l-105 -35q-24 -8 -33 12zM66 237q0 124 82 208.5t206 84.5q61 0 107 -21t72 -57t39 -76.5t13 -85.5q0 -63 -38 -63l-328 1q-17 0 -26 -9.5t-5 -25.5
q10 -48 44.5 -75t85.5 -27q86 0 121 56q16 22 36 22h56q15 0 22 -9t0 -23q-65 -147 -245 -147q-99 0 -170.5 70.5t-71.5 176.5zM213 349q-8 -16 -1 -26t25 -10l197 -1q18 0 26.5 10t3.5 25q-10 39 -40.5 61.5t-76.5 22.5q-88 0 -134 -82z" />
    <glyph glyph-name="edieresis" unicode="&#xeb;" horiz-adv-x="596" 
d="M262 604q-28 0 -46 19t-18 48q0 31 23.5 54t55.5 23q28 0 47 -19t19 -45q0 -33 -24.5 -56.5t-56.5 -23.5zM468 604q-27 0 -46 19.5t-19 48.5q0 31 24.5 53.5t55.5 22.5q28 0 47 -19t19 -45q0 -33 -24.5 -56.5t-56.5 -23.5zM66 237q0 124 82 208.5t206 84.5q61 0 107 -21
t72 -57t39 -76.5t13 -85.5q0 -63 -38 -63l-328 1q-17 0 -26 -9.5t-5 -25.5q10 -48 44.5 -75t85.5 -27q86 0 121 56q16 22 36 22h56q15 0 22 -9t0 -23q-65 -147 -245 -147q-99 0 -170.5 70.5t-71.5 176.5zM213 349q-8 -16 -1 -26t25 -10l197 -1q18 0 26.5 10t3.5 25
q-10 39 -40.5 61.5t-76.5 22.5q-88 0 -134 -82z" />
    <glyph glyph-name="igrave" unicode="&#xec;" horiz-adv-x="271" 
d="M114 748q16 27 41 11l158 -104q23 -16 8 -40l-9 -12q-16 -24 -40 -14l-175 73q-27 11 -11 38zM222 520q29 0 26 -29l-49 -462q-3 -29 -32 -29h-63q-29 0 -26 29l48 462q3 29 33 29h63z" />
    <glyph glyph-name="iacute" unicode="&#xed;" horiz-adv-x="271" 
d="M284 754q26 17 38 -11l18 -47q11 -27 -19 -38l-184 -71q-29 -11 -37 13l-5 12q-9 25 14 40zM222 520q29 0 26 -29l-49 -462q-3 -29 -32 -29h-63q-29 0 -26 29l48 462q3 29 33 29h63z" />
    <glyph glyph-name="icircumflex" unicode="&#xee;" horiz-adv-x="271" 
d="M46 639q-10 24 13 36l135 69q28 13 50 0l126 -69q20 -11 7 -36l-10 -19q-12 -21 -35 -13l-99 37q-24 7 -48 -1l-102 -35q-23 -8 -32 12zM222 520q29 0 26 -29l-49 -462q-3 -29 -32 -29h-63q-29 0 -26 29l48 462q3 29 33 29h63z" />
    <glyph glyph-name="idieresis" unicode="&#xef;" horiz-adv-x="271" 
d="M101 604q-28 0 -46 19t-18 48q0 31 23.5 54t55.5 23q28 0 47 -19t19 -45q0 -33 -24.5 -56.5t-56.5 -23.5zM307 604q-27 0 -46 19.5t-19 48.5q0 31 24.5 53.5t55.5 22.5q28 0 47 -19t19 -45q0 -33 -24.5 -56.5t-56.5 -23.5zM222 520q29 0 26 -29l-49 -462q-3 -29 -32 -29
h-63q-29 0 -26 29l48 462q3 29 33 29h63z" />
    <glyph glyph-name="eth" unicode="&#xf0;" horiz-adv-x="624" 
d="M401 585l-93 -30q-30 -10 -36 17l-4 16q-8 27 21 37l79 26l-47 94q-7 16 -0.5 25.5t23.5 9.5h59q22 0 32 -20l36 -76l99 32q30 10 35 -17l3 -17q7 -28 -21 -37l-85 -28l50 -105q58 -119 58 -224q0 -140 -81.5 -219t-219.5 -79q-103 0 -173 66.5t-70 169.5q0 119 79.5 196
t202.5 77q36 0 71 -15q18 -7 24 -1t0 17zM190 233q0 -62 36 -100.5t94 -38.5q67 0 117.5 41t54.5 109q1 12 1 38q-5 54 -42.5 85.5t-97.5 31.5q-68 0 -115.5 -47t-47.5 -119z" />
    <glyph glyph-name="ntilde" unicode="&#xf1;" horiz-adv-x="650" 
d="M550 703q29 -5 21 -33q-10 -36 -40 -56.5t-68 -20.5q-33 0 -72 19t-51 19q-22 0 -36 -16q-14 -18 -35 -14l-25 5q-13 2 -18.5 11.5t-1.5 22.5q11 38 38.5 59t63.5 20q34 0 78 -19.5t53 -19.5q24 0 36 15q12 17 33 13zM103 0q-29 0 -26 29l48 462q3 29 33 29h28
q26 0 30 -24l1 -7q4 -32 39 -12q91 53 199 53q80 0 125.5 -55.5t35.5 -149.5l-31 -296q-3 -29 -32 -29h-63q-29 0 -26 29l30 290q5 49 -17.5 77t-70.5 28q-67 0 -152 -53q-23 -14 -24 -37l-32 -305q-5 -29 -33 -29h-62z" />
    <glyph glyph-name="ograve" unicode="&#xf2;" horiz-adv-x="641" 
d="M292 748q16 27 41 11l158 -104q23 -16 8 -40l-9 -12q-16 -24 -40 -14l-175 73q-27 11 -11 38zM66 238q0 125 87.5 208.5t223.5 83.5q109 0 181.5 -70.5t72.5 -171.5q0 -127 -87.5 -212.5t-223.5 -85.5q-108 0 -181 71.5t-73 176.5zM187 244q0 -65 39.5 -107.5
t103.5 -42.5q76 0 127.5 53t51.5 130q0 65 -39.5 107t-103.5 42q-76 0 -127.5 -53t-51.5 -129z" />
    <glyph glyph-name="oacute" unicode="&#xf3;" horiz-adv-x="641" 
d="M464 754q28 17 39 -11l18 -47q11 -27 -19 -38l-188 -71q-29 -11 -38 13l-5 12q-10 26 15 40zM66 238q0 125 87.5 208.5t223.5 83.5q109 0 181.5 -70.5t72.5 -171.5q0 -127 -87.5 -212.5t-223.5 -85.5q-108 0 -181 71.5t-73 176.5zM187 244q0 -65 39.5 -107.5t103.5 -42.5
q76 0 127.5 53t51.5 130q0 65 -39.5 107t-103.5 42q-76 0 -127.5 -53t-51.5 -129z" />
    <glyph glyph-name="ocircumflex" unicode="&#xf4;" horiz-adv-x="641" 
d="M219 639q-11 25 14 36l139 69q29 14 51 0l130 -69q21 -11 7 -36l-10 -19q-12 -21 -36 -13l-102 37q-24 7 -49 -1l-105 -35q-24 -8 -33 12zM66 238q0 125 87.5 208.5t223.5 83.5q109 0 181.5 -70.5t72.5 -171.5q0 -127 -87.5 -212.5t-223.5 -85.5q-108 0 -181 71.5
t-73 176.5zM187 244q0 -65 39.5 -107.5t103.5 -42.5q76 0 127.5 53t51.5 130q0 65 -39.5 107t-103.5 42q-76 0 -127.5 -53t-51.5 -129z" />
    <glyph glyph-name="otilde" unicode="&#xf5;" horiz-adv-x="641" 
d="M537 703q29 -5 21 -33q-10 -36 -40 -56.5t-68 -20.5q-33 0 -72 19t-51 19q-22 0 -36 -16q-14 -18 -35 -14l-25 5q-13 2 -18.5 11.5t-1.5 22.5q11 38 38.5 59t63.5 20q33 0 77 -19.5t54 -19.5q24 0 36 15q12 17 33 13zM66 238q0 125 87.5 208.5t223.5 83.5
q109 0 181.5 -70.5t72.5 -171.5q0 -127 -87.5 -212.5t-223.5 -85.5q-108 0 -181 71.5t-73 176.5zM187 244q0 -65 39.5 -107.5t103.5 -42.5q76 0 127.5 53t51.5 130q0 65 -39.5 107t-103.5 42q-76 0 -127.5 -53t-51.5 -129z" />
    <glyph glyph-name="odieresis" unicode="&#xf6;" horiz-adv-x="641" 
d="M279 604q-28 0 -46 19t-18 48q0 31 23.5 54t55.5 23q28 0 47 -19t19 -45q0 -33 -24.5 -56.5t-56.5 -23.5zM485 604q-27 0 -46 19.5t-19 48.5q0 31 24.5 53.5t55.5 22.5q28 0 47 -19t19 -45q0 -33 -24.5 -56.5t-56.5 -23.5zM66 238q0 125 87.5 208.5t223.5 83.5
q109 0 181.5 -70.5t72.5 -171.5q0 -127 -87.5 -212.5t-223.5 -85.5q-108 0 -181 71.5t-73 176.5zM187 244q0 -65 39.5 -107.5t103.5 -42.5q76 0 127.5 53t51.5 130q0 65 -39.5 107t-103.5 42q-76 0 -127.5 -53t-51.5 -129z" />
    <glyph glyph-name="divide" unicode="&#xf7;" horiz-adv-x="523" 
d="M301 380q-26 0 -43 18.5t-17 45.5q0 29 22 51t52 22q27 0 44.5 -18t17.5 -43q0 -31 -23 -53.5t-53 -22.5zM480 318q29 0 26 -29l-5 -39q-3 -29 -31 -29h-370q-30 0 -27 29l5 39q3 29 32 29h370zM263 11q-26 0 -43.5 18.5t-17.5 45.5q0 29 22.5 51t53.5 22q26 0 43.5 -18
t17.5 -43q0 -31 -22.5 -53.5t-53.5 -22.5z" />
    <glyph glyph-name="oslash" unicode="&#xf8;" horiz-adv-x="641" 
d="M583 432q48 -62 48 -144q0 -127 -87.5 -212.5t-223.5 -85.5q-93 0 -161 54l-40 -36q-23 -21 -42 0l-7 7q-19 22 4 43l38 35q-46 63 -46 145q0 125 87.5 208.5t223.5 83.5q89 0 158 -50l34 31q21 21 41 1l8 -9q20 -20 -3 -42zM187 244q0 -37 14 -70l248 227q-34 25 -83 25
q-76 0 -127.5 -53t-51.5 -129zM330 94q76 0 127.5 53t51.5 130q0 38 -16 73l-250 -229q37 -27 87 -27z" />
    <glyph glyph-name="ugrave" unicode="&#xf9;" horiz-adv-x="629" 
d="M288 748q16 27 41 11l158 -104q23 -16 8 -40l-9 -12q-16 -24 -40 -14l-175 73q-27 11 -11 38zM89 195l31 296q3 29 33 29h63q28 0 25 -29l-30 -290q-5 -50 16 -77.5t65 -27.5t136 45q23 10 25 36l34 314q3 29 32 29h63q28 0 25 -29l-48 -462q-3 -29 -32 -29h-26
q-27 0 -30 24l-1 4q-4 30 -39 11q-91 -49 -188 -49q-73 0 -118 56.5t-36 148.5z" />
    <glyph glyph-name="uacute" unicode="&#xfa;" horiz-adv-x="629" 
d="M460 754q28 17 39 -11l18 -47q11 -27 -19 -38l-188 -71q-29 -11 -38 13l-5 12q-10 26 15 40zM89 195l31 296q3 29 33 29h63q28 0 25 -29l-30 -290q-5 -50 16 -77.5t65 -27.5t136 45q23 10 25 36l34 314q3 29 32 29h63q28 0 25 -29l-48 -462q-3 -29 -32 -29h-26
q-27 0 -30 24l-1 4q-4 30 -39 11q-91 -49 -188 -49q-73 0 -118 56.5t-36 148.5z" />
    <glyph glyph-name="ucircumflex" unicode="&#xfb;" horiz-adv-x="629" 
d="M215 639q-11 25 14 36l139 69q29 14 51 0l130 -69q21 -11 7 -36l-10 -19q-12 -21 -36 -13l-102 37q-24 7 -49 -1l-105 -35q-24 -8 -33 12zM89 195l31 296q3 29 33 29h63q28 0 25 -29l-30 -290q-5 -50 16 -77.5t65 -27.5t136 45q23 10 25 36l34 314q3 29 32 29h63
q28 0 25 -29l-48 -462q-3 -29 -32 -29h-26q-27 0 -30 24l-1 4q-4 30 -39 11q-91 -49 -188 -49q-73 0 -118 56.5t-36 148.5z" />
    <glyph glyph-name="udieresis" unicode="&#xfc;" horiz-adv-x="629" 
d="M275 604q-28 0 -46 19t-18 48q0 31 23.5 54t55.5 23q28 0 47 -19t19 -45q0 -33 -24.5 -56.5t-56.5 -23.5zM481 604q-27 0 -46 19.5t-19 48.5q0 31 24.5 53.5t55.5 22.5q28 0 47 -19t19 -45q0 -33 -24.5 -56.5t-56.5 -23.5zM89 195l31 296q3 29 33 29h63q28 0 25 -29
l-30 -290q-5 -50 16 -77.5t65 -27.5t136 45q23 10 25 36l34 314q3 29 32 29h63q28 0 25 -29l-48 -462q-3 -29 -32 -29h-26q-27 0 -30 24l-1 4q-4 30 -39 11q-91 -49 -188 -49q-73 0 -118 56.5t-36 148.5z" />
    <glyph glyph-name="yacute" unicode="&#xfd;" horiz-adv-x="566" 
d="M429 754q28 17 39 -11l18 -47q11 -27 -19 -38l-188 -71q-29 -11 -38 13l-5 12q-10 26 15 40zM72 486q-4 16 3 25t24 9h75q25 0 31 -24l83 -356q2 -9 6.5 -12t10 0t8.5 12l154 356q11 24 36 24h74q35 0 19 -34l-265 -537q-47 -96 -91.5 -130.5t-135.5 -34.5q-38 0 -71 9
q-25 6 -19 34l9 38q8 30 36 24q23 -6 62 -6q38 0 65 23t50 70l13 24h-16q-20 0 -26 19z" />
    <glyph glyph-name="thorn" unicode="&#xfe;" horiz-adv-x="658" 
d="M80 -220q-29 0 -27 29l98 927q3 29 32 29h51q29 0 26 -29l-24 -227q-1 -18 8 -22.5t26 6.5q66 37 143 37q101 0 168 -70t67 -173q0 -126 -86.5 -211.5t-207.5 -85.5q-78 0 -131 37q-15 10 -25.5 5.5t-12.5 -23.5l-20 -200q-3 -29 -33 -29h-52zM216 203q-2 -25 6 -39
q39 -71 130 -71q69 0 120.5 55t51.5 129q0 63 -39.5 106t-97.5 43q-95 0 -145 -71q-11 -14 -14 -37z" />
    <glyph glyph-name="ydieresis" unicode="&#xff;" horiz-adv-x="566" 
d="M244 604q-28 0 -46 19t-18 48q0 31 23.5 54t55.5 23q28 0 47 -19t19 -45q0 -33 -24.5 -56.5t-56.5 -23.5zM450 604q-27 0 -46 19.5t-19 48.5q0 31 24.5 53.5t55.5 22.5q28 0 47 -19t19 -45q0 -33 -24.5 -56.5t-56.5 -23.5zM72 486q-4 16 3 25t24 9h75q25 0 31 -24
l83 -356q2 -9 6.5 -12t10 0t8.5 12l154 356q11 24 36 24h74q35 0 19 -34l-265 -537q-47 -96 -91.5 -130.5t-135.5 -34.5q-38 0 -71 9q-25 6 -19 34l9 38q8 30 36 24q23 -6 62 -6q38 0 65 23t50 70l13 24h-16q-20 0 -26 19z" />
    <glyph glyph-name="Amacron" unicode="&#x100;" horiz-adv-x="716" 
d="M296 866q3 29 31 29h246q14 0 21.5 -8t5.5 -21l-4 -34q-3 -29 -32 -29h-246q-29 0 -26 29zM41 0q-15 0 -20.5 9.5t1.5 24.5l320 664q14 32 47 32h80q32 0 41 -31l196 -665q4 -16 -3 -25t-23 -9h-74q-25 0 -31 23l-32 119q-3 12 -15 12h-308q-13 0 -19 -12l-54 -118
q-11 -24 -36 -24h-70zM266 283q-7 -17 10 -17h217q19 0 14 17l-81 300q-2 6 -5.5 8.5t-7.5 0t-7 -8.5z" />
    <glyph glyph-name="amacron" unicode="&#x101;" horiz-adv-x="579" 
d="M206 686q3 29 31 29h246q14 0 21.5 -8t5.5 -21l-4 -34q-3 -29 -32 -29h-246q-29 0 -26 29zM51 124q0 81 61.5 124.5t176.5 42.5l104 -1q34 0 34 42q0 45 -27.5 70t-75.5 25q-85 0 -116 -66q-12 -24 -34 -24h-53q-15 0 -21.5 8.5t-2.5 22.5q23 78 87 120t156 42
q101 0 157.5 -63.5t45.5 -167.5l-28 -270q-3 -29 -32 -29h-19q-25 0 -32 22l-4 11q-10 33 -40 12q-81 -55 -184 -55q-64 0 -108.5 40.5t-44.5 93.5zM174 143q0 -26 20.5 -40t52.5 -14q63 0 141 46q21 13 23 36l1 7q2 30 -28 30h-100q-110 0 -110 -65z" />
    <glyph glyph-name="Abreve" unicode="&#x102;" horiz-adv-x="716" 
d="M353 928q20 0 29 -24q14 -42 69 -42q53 0 79 42q14 24 36 24l34 -1q15 0 22 -8t2 -22q-42 -119 -182 -119q-61 -1 -105.5 31t-51.5 87q-2 15 6.5 23t23.5 8zM41 0q-15 0 -20.5 9.5t1.5 24.5l320 664q14 32 47 32h80q32 0 41 -31l196 -665q4 -16 -3 -25t-23 -9h-74
q-25 0 -31 23l-32 119q-3 12 -15 12h-308q-13 0 -19 -12l-54 -118q-11 -24 -36 -24h-70zM266 283q-7 -17 10 -17h217q19 0 14 17l-81 300q-2 6 -5.5 8.5t-7.5 0t-7 -8.5z" />
    <glyph glyph-name="abreve" unicode="&#x103;" horiz-adv-x="579" 
d="M259 736q20 0 29 -24q14 -42 69 -42q53 0 79 42q14 24 36 24l34 -1q15 0 22 -8t2 -22q-42 -119 -182 -119q-61 -1 -105.5 31t-51.5 87q-2 15 6.5 23t23.5 8zM51 124q0 81 61.5 124.5t176.5 42.5l104 -1q34 0 34 42q0 45 -27.5 70t-75.5 25q-85 0 -116 -66
q-12 -24 -34 -24h-53q-15 0 -21.5 8.5t-2.5 22.5q23 78 87 120t156 42q101 0 157.5 -63.5t45.5 -167.5l-28 -270q-3 -29 -32 -29h-19q-25 0 -32 22l-4 11q-10 33 -40 12q-81 -55 -184 -55q-64 0 -108.5 40.5t-44.5 93.5zM174 143q0 -26 20.5 -40t52.5 -14q63 0 141 46
q21 13 23 36l1 7q2 30 -28 30h-100q-110 0 -110 -65z" />
    <glyph glyph-name="Aogonek" unicode="&#x104;" horiz-adv-x="716" 
d="M693 2q-83 -50 -83 -114q0 -16 10 -25.5t26 -9.5q8 0 22 2q10 1 15.5 -3t4.5 -14l-3 -28q-2 -18 -18 -21q-24 -6 -48 -6q-45 0 -74 24.5t-29 67.5q0 77 85 125q-20 3 -26 23l-32 119q-3 12 -15 12h-308q-13 0 -19 -12l-54 -118q-11 -24 -36 -24h-70q-15 0 -20.5 9.5
t1.5 24.5l320 664q14 32 47 32h80q32 0 41 -31l196 -665q8 -25 -13 -32zM493 266q19 0 14 17l-81 300q-2 6 -5.5 8.5t-7.5 0t-7 -8.5l-140 -300q-7 -17 10 -17h217z" />
    <glyph glyph-name="aogonek" unicode="&#x105;" horiz-adv-x="579" 
d="M340 530q101 0 157.5 -63.5t45.5 -167.5l-28 -270q-3 -23 -21 -27q-82 -51 -82 -114q0 -16 10 -25.5t26 -9.5q8 0 22 2q10 1 15.5 -3t4.5 -14l-3 -28q-2 -18 -18 -21q-24 -6 -48 -6q-45 0 -74 24.5t-29 67.5q0 91 116 141q0 1 -1 3t-1 3l-4 11q-10 33 -40 12
q-81 -55 -184 -55q-64 0 -108.5 40.5t-44.5 93.5q0 81 61.5 124.5t176.5 42.5l104 -1q34 0 34 42q0 45 -27.5 70t-75.5 25q-85 0 -116 -66q-12 -24 -34 -24h-53q-15 0 -21.5 8.5t-2.5 22.5q23 78 87 120t156 42zM412 178q2 30 -28 30h-100q-110 0 -110 -65q0 -26 20.5 -40
t52.5 -14q63 0 141 46q21 13 23 36z" />
    <glyph glyph-name="Cacute" unicode="&#x106;" horiz-adv-x="830" 
d="M615 913q30 11 35 -19l8 -50q4 -28 -27 -33l-199 -29q-29 -5 -34 21l-2 12q-5 27 23 36zM80 331q0 176 123 292.5t302 116.5q140 0 229.5 -82.5t98.5 -202.5q1 -14 -7.5 -22t-23.5 -8h-72q-26 0 -30 27q-9 78 -63.5 126t-141.5 48q-120 0 -203 -81t-83 -205
q0 -104 65 -170t168 -66q81 0 143.5 36.5t91.5 101.5q12 24 36 24h73q14 0 20.5 -8.5t1.5 -23.5q-40 -107 -140 -175.5t-238 -68.5q-147 0 -248.5 96.5t-101.5 244.5z" />
    <glyph glyph-name="cacute" unicode="&#x107;" horiz-adv-x="603" 
d="M463 754q28 17 39 -11l18 -47q11 -27 -19 -38l-188 -71q-29 -11 -38 13l-5 12q-10 26 15 40zM511 324q-22 0 -30 25q-9 33 -41 55t-78 22q-73 0 -122.5 -52t-49.5 -133q0 -68 39 -107.5t97 -39.5q44 0 80 19t52 51q13 24 35 24h62q15 0 22 -8.5t2 -23.5
q-27 -77 -95.5 -121.5t-165.5 -44.5q-107 0 -179.5 71.5t-72.5 175.5q0 127 84 210t221 83q96 0 158.5 -49.5t71.5 -124.5q1 -15 -7.5 -23.5t-23.5 -8.5h-59z" />
    <glyph glyph-name="Cdotaccent" unicode="&#x10a;" horiz-adv-x="830" 
d="M506 781q-32 0 -53 22t-21 55q0 36 27 62t65 26q31 0 53 -21.5t22 -52.5q0 -37 -28 -64t-65 -27zM80 331q0 176 123 292.5t302 116.5q140 0 229.5 -82.5t98.5 -202.5q1 -14 -7.5 -22t-23.5 -8h-72q-26 0 -30 27q-9 78 -63.5 126t-141.5 48q-120 0 -203 -81t-83 -205
q0 -104 65 -170t168 -66q81 0 143.5 36.5t91.5 101.5q12 24 36 24h73q14 0 20.5 -8.5t1.5 -23.5q-40 -107 -140 -175.5t-238 -68.5q-147 0 -248.5 96.5t-101.5 244.5z" />
    <glyph glyph-name="cdotaccent" unicode="&#x10b;" horiz-adv-x="603" 
d="M380 601q-32 0 -53 22t-21 55q0 36 27 62t65 26q31 0 53 -21.5t22 -52.5q0 -37 -28 -64t-65 -27zM511 324q-22 0 -30 25q-9 33 -41 55t-78 22q-73 0 -122.5 -52t-49.5 -133q0 -68 39 -107.5t97 -39.5q44 0 80 19t52 51q13 24 35 24h62q15 0 22 -8.5t2 -23.5
q-27 -77 -95.5 -121.5t-165.5 -44.5q-107 0 -179.5 71.5t-72.5 175.5q0 127 84 210t221 83q96 0 158.5 -49.5t71.5 -124.5q1 -15 -7.5 -23.5t-23.5 -8.5h-59z" />
    <glyph glyph-name="Ccaron" unicode="&#x10c;" horiz-adv-x="830" 
d="M353 890l5 14q9 27 39 18l106 -34q15 -7 31 0l113 34q31 9 34 -18l2 -14q3 -29 -17 -38l-124 -56q-35 -17 -68 0l-111 56q-20 10 -10 38zM80 331q0 176 123 292.5t302 116.5q140 0 229.5 -82.5t98.5 -202.5q1 -14 -7.5 -22t-23.5 -8h-72q-26 0 -30 27q-9 78 -63.5 126
t-141.5 48q-120 0 -203 -81t-83 -205q0 -104 65 -170t168 -66q81 0 143.5 36.5t91.5 101.5q12 24 36 24h73q14 0 20.5 -8.5t1.5 -23.5q-40 -107 -140 -175.5t-238 -68.5q-147 0 -248.5 96.5t-101.5 244.5z" />
    <glyph glyph-name="ccaron" unicode="&#x10d;" horiz-adv-x="603" 
d="M233 699l5 14q9 26 37 17l102 -33q14 -6 30 0l108 33q30 9 33 -17l2 -14q3 -27 -17 -36l-119 -54q-33 -16 -65 0l-106 54q-20 10 -10 36zM511 324q-22 0 -30 25q-9 33 -41 55t-78 22q-73 0 -122.5 -52t-49.5 -133q0 -68 39 -107.5t97 -39.5q44 0 80 19t52 51q13 24 35 24
h62q15 0 22 -8.5t2 -23.5q-27 -77 -95.5 -121.5t-165.5 -44.5q-107 0 -179.5 71.5t-72.5 175.5q0 127 84 210t221 83q96 0 158.5 -49.5t71.5 -124.5q1 -15 -7.5 -23.5t-23.5 -8.5h-59z" />
    <glyph glyph-name="Dcaron" unicode="&#x10e;" horiz-adv-x="789" 
d="M283 887l5 14q9 27 39 18l106 -34q15 -7 31 0l113 34q31 9 34 -18l2 -14q3 -29 -17 -38l-124 -56q-35 -17 -68 0l-111 56q-20 10 -10 38zM126 0q-36 0 -33 36l70 658q3 36 40 36h239q151 0 247.5 -94.5t96.5 -235.5q0 -180 -120.5 -290t-300.5 -110h-239zM229 123
q-2 -18 16 -18h131q114 0 197 76.5t83 214.5q0 110 -64.5 169.5t-160.5 59.5h-132q-18 0 -20 -18z" />
    <glyph glyph-name="dcaron" unicode="&#x10f;" horiz-adv-x="661" 
d="M740 585q28 0 35 26l47 173q9 31 -22 31h-44q-28 0 -33 -27l-34 -173q-6 -30 24 -30h27zM66 235q0 132 85 213.5t213 81.5q65 0 122 -31q33 -19 38 20l24 232q3 29 32 29h59q29 0 26 -29l-75 -722q-5 -29 -33 -29h-15q-24 0 -31 23l-3 8q-7 29 -38 7q-63 -48 -160 -48
q-106 0 -175 68.5t-69 176.5zM190 246q0 -65 39.5 -108.5t99.5 -43.5q91 0 145 74q11 17 13 38l11 109q3 23 -5 38q-18 34 -52 53.5t-77 19.5q-69 0 -121.5 -52.5t-52.5 -127.5z" />
    <glyph glyph-name="Dcroat" unicode="&#x110;" horiz-adv-x="789" 
d="M442 730q151 0 247.5 -94.5t96.5 -235.5q0 -180 -120.5 -290t-300.5 -110h-239q-36 0 -33 36l30 286h-39q-28 0 -26 29l4 38q2 30 32 30h40l29 275q3 36 40 36h239zM376 105q114 0 197 76.5t83 214.5q0 110 -64.5 169.5t-160.5 59.5h-132q-18 0 -20 -18l-19 -188h126
q28 0 26 -30l-4 -38q-2 -29 -32 -29h-126l-21 -199q-2 -18 16 -18h131z" />
    <glyph glyph-name="dcroat" unicode="&#x111;" horiz-adv-x="661" 
d="M717 683q28 0 26 -30l-4 -38q-2 -29 -32 -29h-59l-58 -557q-5 -29 -33 -29h-15q-24 0 -31 23l-3 8q-7 29 -38 7q-63 -48 -160 -48q-106 0 -175 68.5t-69 176.5q0 132 85 213.5t213 81.5q65 0 122 -31q33 -19 38 20l7 67h-116q-28 0 -26 29l4 38q2 30 32 30h116l7 68
q3 29 32 29h59q29 0 26 -29l-7 -68h59zM498 315q3 23 -5 38q-18 34 -52 53.5t-77 19.5q-69 0 -121.5 -52.5t-52.5 -127.5q0 -65 39.5 -108.5t99.5 -43.5q91 0 145 74q11 17 13 38z" />
    <glyph glyph-name="Emacron" unicode="&#x112;" horiz-adv-x="565" 
d="M242 866q3 29 31 29h246q14 0 21.5 -8t5.5 -21l-4 -34q-3 -29 -32 -29h-246q-29 0 -26 29zM126 0q-36 0 -33 36l70 658q3 36 40 36h351q29 0 26 -29l-5 -47q-3 -29 -32 -29h-245q-18 0 -20 -18l-18 -173q-2 -18 16 -18h226q29 0 26 -29l-5 -47q-3 -29 -32 -29h-226
q-18 0 -20 -18l-18 -169q-2 -18 16 -18h253q29 0 26 -29l-4 -48q-3 -29 -33 -29h-359z" />
    <glyph glyph-name="emacron" unicode="&#x113;" horiz-adv-x="596" 
d="M221 686q3 29 31 29h246q14 0 21.5 -8t5.5 -21l-4 -34q-3 -29 -32 -29h-246q-29 0 -26 29zM66 237q0 124 82 208.5t206 84.5q61 0 107 -21t72 -57t39 -76.5t13 -85.5q0 -63 -38 -63l-328 1q-17 0 -26 -9.5t-5 -25.5q10 -48 44.5 -75t85.5 -27q86 0 121 56q16 22 36 22h56
q15 0 22 -9t0 -23q-65 -147 -245 -147q-99 0 -170.5 70.5t-71.5 176.5zM213 349q-8 -16 -1 -26t25 -10l197 -1q18 0 26.5 10t3.5 25q-10 39 -40.5 61.5t-76.5 22.5q-88 0 -134 -82z" />
    <glyph glyph-name="Edotaccent" unicode="&#x116;" horiz-adv-x="565" 
d="M384 778q-32 0 -53 22t-21 55q0 36 27 62t65 26q31 0 53 -21.5t22 -52.5q0 -37 -28 -64t-65 -27zM126 0q-36 0 -33 36l70 658q3 36 40 36h351q29 0 26 -29l-5 -47q-3 -29 -32 -29h-245q-18 0 -20 -18l-18 -173q-2 -18 16 -18h226q29 0 26 -29l-5 -47q-3 -29 -32 -29h-226
q-18 0 -20 -18l-18 -169q-2 -18 16 -18h253q29 0 26 -29l-4 -48q-3 -29 -33 -29h-359z" />
    <glyph glyph-name="edotaccent" unicode="&#x117;" horiz-adv-x="596" 
d="M364 601q-32 0 -53 22t-21 55q0 36 27 62t65 26q31 0 53 -21.5t22 -52.5q0 -37 -28 -64t-65 -27zM66 237q0 124 82 208.5t206 84.5q61 0 107 -21t72 -57t39 -76.5t13 -85.5q0 -63 -38 -63l-328 1q-17 0 -26 -9.5t-5 -25.5q10 -48 44.5 -75t85.5 -27q86 0 121 56
q16 22 36 22h56q15 0 22 -9t0 -23q-65 -147 -245 -147q-99 0 -170.5 70.5t-71.5 176.5zM213 349q-8 -16 -1 -26t25 -10l197 -1q18 0 26.5 10t3.5 25q-10 39 -40.5 61.5t-76.5 22.5q-88 0 -134 -82z" />
    <glyph glyph-name="Eogonek" unicode="&#x118;" horiz-adv-x="565" 
d="M554 730q29 0 26 -29l-5 -47q-3 -29 -32 -29h-245q-18 0 -20 -18l-18 -173q-2 -18 16 -18h226q29 0 26 -29l-5 -47q-3 -29 -32 -29h-226q-18 0 -20 -18l-18 -169q-2 -18 16 -18h253q29 0 26 -29l-4 -48q-3 -23 -21 -27q-79 -50 -79 -112q0 -16 10 -25.5t26 -9.5q8 0 22 2
q10 1 15.5 -3t4.5 -14l-3 -28q-2 -18 -18 -21q-24 -6 -48 -6q-45 0 -74 24.5t-29 67.5q0 75 81 123h-279q-36 0 -33 36l70 658q3 36 40 36h351z" />
    <glyph glyph-name="eogonek" unicode="&#x119;" horiz-adv-x="596" 
d="M219 228q-17 0 -26 -9.5t-5 -25.5q10 -48 44.5 -75t85.5 -27q86 0 121 56q16 22 36 22h56q15 0 22 -9t0 -23q-51 -116 -176 -141q-74 -48 -74 -108q0 -16 10 -25.5t26 -9.5q8 0 22 2q10 1 15.5 -3t4.5 -14l-3 -28q-2 -18 -18 -21q-24 -6 -48 -6q-45 0 -74 24.5t-29 67.5
q0 69 71 117q-90 10 -152 78.5t-62 166.5q0 124 82 208.5t206 84.5q61 0 107 -21t72 -57t39 -76.5t13 -85.5q0 -63 -38 -63zM213 349q-8 -16 -1 -26t25 -10l197 -1q18 0 26.5 10t3.5 25q-10 39 -40.5 61.5t-76.5 22.5q-88 0 -134 -82z" />
    <glyph glyph-name="Ecaron" unicode="&#x11a;" horiz-adv-x="565" 
d="M231 887l5 14q9 27 39 18l106 -34q15 -7 31 0l113 34q31 9 34 -18l2 -14q3 -29 -17 -38l-124 -56q-35 -17 -68 0l-111 56q-20 10 -10 38zM126 0q-36 0 -33 36l70 658q3 36 40 36h351q29 0 26 -29l-5 -47q-3 -29 -32 -29h-245q-18 0 -20 -18l-18 -173q-2 -18 16 -18h226
q29 0 26 -29l-5 -47q-3 -29 -32 -29h-226q-18 0 -20 -18l-18 -169q-2 -18 16 -18h253q29 0 26 -29l-4 -48q-3 -29 -33 -29h-359z" />
    <glyph glyph-name="ecaron" unicode="&#x11b;" horiz-adv-x="596" 
d="M217 699l5 14q9 26 37 17l102 -33q14 -6 30 0l108 33q30 9 33 -17l2 -14q3 -27 -17 -36l-119 -54q-33 -16 -65 0l-106 54q-20 10 -10 36zM66 237q0 124 82 208.5t206 84.5q61 0 107 -21t72 -57t39 -76.5t13 -85.5q0 -63 -38 -63l-328 1q-17 0 -26 -9.5t-5 -25.5
q10 -48 44.5 -75t85.5 -27q86 0 121 56q16 22 36 22h56q15 0 22 -9t0 -23q-65 -147 -245 -147q-99 0 -170.5 70.5t-71.5 176.5zM213 349q-8 -16 -1 -26t25 -10l197 -1q18 0 26.5 10t3.5 25q-10 39 -40.5 61.5t-76.5 22.5q-88 0 -134 -82z" />
    <glyph glyph-name="Gbreve" unicode="&#x11e;" horiz-adv-x="815" 
d="M412 928q20 0 29 -24q14 -42 69 -42q54 0 79 42q13 24 36 24l34 -1q15 0 22 -8t2 -22q-42 -119 -182 -119q-61 -1 -105.5 31t-51.5 87q-2 15 6.5 23t23.5 8zM80 334q0 180 122.5 293t294.5 113q130 0 215 -75t100 -185q1 -14 -7 -22.5t-23 -8.5h-62q-24 0 -29 26
q-12 66 -65.5 111t-137.5 45q-115 0 -197 -82.5t-82 -210.5q0 -105 65.5 -172t165.5 -67q82 0 140.5 34.5t86.5 96.5q4 9 0.5 15t-13.5 6h-155q-29 0 -26 29l4 39q3 29 33 29h258q17 0 25.5 -9t6.5 -24l-2 -10q-20 -143 -117 -229t-253 -86q-146 0 -247 98.5t-101 245.5z
" />
    <glyph glyph-name="gbreve" unicode="&#x11f;" horiz-adv-x="658" 
d="M304 736q20 0 29 -24q14 -42 69 -42q54 0 79 42q13 24 36 24l34 -1q15 0 22 -8t2 -22q-42 -119 -182 -119q-61 -1 -105.5 31t-51.5 87q-2 15 6.5 23t23.5 8zM65 240q0 128 84 209t218 81q83 0 144 -52q13 -11 24 -7.5t17 21.5l1 5q8 23 36 23h22q28 0 25 -29l-50 -474
q-11 -109 -85 -170.5t-199 -61.5q-84 0 -146 39t-79 100q-4 15 3.5 24t23.5 9h55q17 0 32 -21q13 -24 45.5 -38.5t75.5 -14.5q65 0 111.5 38t52.5 96v2q2 16 -7.5 18.5t-25.5 -7.5q-53 -32 -128 -32q-109 0 -179.5 69t-70.5 173zM190 250q0 -62 40 -105.5t100 -43.5
q88 0 142 72q11 17 13 38l12 106q2 24 -6 37q-39 72 -127 72q-69 0 -121.5 -52t-52.5 -124z" />
    <glyph glyph-name="Gdotaccent" unicode="&#x120;" horiz-adv-x="815" 
d="M497 778q-32 0 -53 22t-21 55q0 36 27 62t65 26q31 0 53 -21.5t22 -52.5q0 -37 -28 -64t-65 -27zM80 334q0 180 122.5 293t294.5 113q130 0 215 -75t100 -185q1 -14 -7 -22.5t-23 -8.5h-62q-24 0 -29 26q-12 66 -65.5 111t-137.5 45q-115 0 -197 -82.5t-82 -210.5
q0 -105 65.5 -172t165.5 -67q82 0 140.5 34.5t86.5 96.5q4 9 0.5 15t-13.5 6h-155q-29 0 -26 29l4 39q3 29 33 29h258q17 0 25.5 -9t6.5 -24l-2 -10q-20 -143 -117 -229t-253 -86q-146 0 -247 98.5t-101 245.5z" />
    <glyph glyph-name="gdotaccent" unicode="&#x121;" horiz-adv-x="658" 
d="M394 601q-32 0 -53 22t-21 55q0 36 27 62t65 26q31 0 53 -21.5t22 -52.5q0 -37 -28 -64t-65 -27zM65 240q0 128 84 209t218 81q83 0 144 -52q13 -11 24 -7.5t17 21.5l1 5q8 23 36 23h22q28 0 25 -29l-50 -474q-11 -109 -85 -170.5t-199 -61.5q-84 0 -146 39t-79 100
q-4 15 3.5 24t23.5 9h55q17 0 32 -21q13 -24 45.5 -38.5t75.5 -14.5q65 0 111.5 38t52.5 96v2q2 16 -7.5 18.5t-25.5 -7.5q-53 -32 -128 -32q-109 0 -179.5 69t-70.5 173zM190 250q0 -62 40 -105.5t100 -43.5q88 0 142 72q11 17 13 38l12 106q2 24 -6 37q-39 72 -127 72
q-69 0 -121.5 -52t-52.5 -124z" />
    <glyph glyph-name="Gcommaaccent" unicode="&#x122;" horiz-adv-x="815" 
d="M80 334q0 180 122.5 293t294.5 113q130 0 215 -75t100 -185q1 -14 -7 -22.5t-23 -8.5h-62q-24 0 -29 26q-12 66 -65.5 111t-137.5 45q-115 0 -197 -82.5t-82 -210.5q0 -105 65.5 -172t165.5 -67q82 0 140.5 34.5t86.5 96.5q4 9 0.5 15t-13.5 6h-155q-29 0 -26 29l4 39
q3 29 33 29h258q17 0 25.5 -9t6.5 -24l-2 -10q-20 -143 -117 -229t-253 -86q-146 0 -247 98.5t-101 245.5zM354 -60q8 27 35 27h51q34 0 21 -33l-60 -146q-11 -24 -35 -24h-27q-31 0 -23 32z" />
    <glyph glyph-name="gcommaaccent" unicode="&#x123;" horiz-adv-x="658" 
d="M444 616q-8 -27 -35 -27h-51q-34 0 -21 33l60 146q11 24 35 24h27q31 0 23 -32zM65 240q0 128 84 209t218 81q83 0 144 -52q13 -11 24 -7.5t17 21.5l1 5q8 23 36 23h22q28 0 25 -29l-50 -474q-11 -109 -85 -170.5t-199 -61.5q-84 0 -146 39t-79 100q-4 15 3.5 24t23.5 9
h55q17 0 32 -21q13 -24 45.5 -38.5t75.5 -14.5q65 0 111.5 38t52.5 96v2q2 16 -7.5 18.5t-25.5 -7.5q-53 -32 -128 -32q-109 0 -179.5 69t-70.5 173zM190 250q0 -62 40 -105.5t100 -43.5q88 0 142 72q11 17 13 38l12 106q2 24 -6 37q-39 72 -127 72q-69 0 -121.5 -52
t-52.5 -124z" />
    <glyph glyph-name="Hbar" unicode="&#x126;" horiz-adv-x="824" 
d="M836 614q29 0 26 -29l-3 -22q-3 -29 -32 -29h-36l-53 -505q-3 -29 -33 -29h-68q-28 0 -25 29l25 243q3 32 -29 32h-329q-32 0 -35 -32l-25 -243q-3 -29 -33 -29h-67q-29 0 -26 29l53 505h-43q-29 0 -26 29l3 22q3 29 32 29h42l9 87q3 29 33 29h67q29 0 26 -29l-9 -87h393
l9 87q3 29 32 29h68q29 0 26 -29l-9 -87h37zM655 452l9 82h-392l-9 -82q-3 -33 29 -33h328q32 0 35 33z" />
    <glyph glyph-name="hbar" unicode="&#x127;" horiz-adv-x="647" 
d="M452 530q83 0 127 -54.5t34 -150.5l-31 -296q-3 -29 -32 -29h-63q-29 0 -26 29l30 290q5 49 -17 77t-68 28q-59 0 -152 -53q-22 -12 -25 -37l-31 -305q-5 -29 -33 -29h-62q-29 0 -26 29l58 556h-52q-28 0 -26 29l4 38q2 30 32 30h52l7 69q5 29 33 29h58q29 0 26 -29
l-7 -69h123q28 0 26 -30l-4 -38q-2 -29 -32 -29h-124l-8 -79q-1 -18 8.5 -22.5t26.5 4.5q81 42 174 42z" />
    <glyph glyph-name="Itilde" unicode="&#x128;" horiz-adv-x="306" 
d="M398 908q29 -5 21 -33q-10 -36 -40 -56.5t-68 -20.5q-33 0 -72 19t-51 19q-22 0 -36 -16q-14 -18 -35 -14l-25 5q-13 2 -18.5 11.5t-1.5 22.5q11 38 38.5 59t63.5 20q34 0 77.5 -19.5t53.5 -19.5q24 0 36 15q12 17 33 13zM263 730q29 0 26 -29l-70 -672q-3 -29 -33 -29
h-67q-29 0 -26 29l70 672q3 29 33 29h67z" />
    <glyph glyph-name="itilde" unicode="&#x129;" horiz-adv-x="271" 
d="M356 703q28 -5 20 -33q-10 -36 -39 -56.5t-67 -20.5q-32 0 -70 19t-50 19q-21 0 -35 -16q-14 -18 -35 -14l-24 5q-13 2 -18.5 11.5t-1.5 22.5q11 38 38 59t62 20q33 0 76 -19.5t53 -19.5q23 0 35 15q12 17 32 13zM222 520q29 0 26 -29l-49 -462q-3 -29 -32 -29h-63
q-29 0 -26 29l48 462q3 29 33 29h63z" />
    <glyph glyph-name="Imacron" unicode="&#x12a;" horiz-adv-x="306" 
d="M92 866q3 29 31 29h246q14 0 21.5 -8t5.5 -21l-4 -34q-3 -29 -32 -29h-246q-29 0 -26 29zM263 730q29 0 26 -29l-70 -672q-3 -29 -33 -29h-67q-29 0 -26 29l70 672q3 29 33 29h67z" />
    <glyph glyph-name="imacron" unicode="&#x12b;" horiz-adv-x="271" 
d="M65 686q3 29 30 29h237q14 0 21 -8t5 -21l-4 -34q-3 -29 -31 -29h-236q-28 0 -26 29zM222 520q29 0 26 -29l-49 -462q-3 -29 -32 -29h-63q-29 0 -26 29l48 462q3 29 33 29h63z" />
    <glyph glyph-name="Iogonek" unicode="&#x12e;" horiz-adv-x="306" 
d="M263 730q29 0 26 -29l-70 -672q-3 -23 -21 -27q-79 -50 -79 -112q0 -16 10 -25.5t26 -9.5q8 0 22 2q10 1 15.5 -3t4.5 -14l-3 -28q-2 -18 -18 -21q-24 -6 -48 -6q-45 0 -74 24.5t-29 67.5q0 76 83 124q-18 7 -15 28l70 672q3 29 33 29h67z" />
    <glyph glyph-name="iogonek" unicode="&#x12f;" horiz-adv-x="271" 
d="M221 766q31 0 53 -21.5t22 -52.5q0 -37 -28 -64t-65 -27q-32 0 -53 22t-21 55q0 36 27 62t65 26zM222 520q29 0 26 -29l-49 -462q-1 -19 -19 -27q-83 -50 -83 -114q0 -16 10 -25.5t26 -9.5q8 0 22 2q10 1 15.5 -3t4.5 -14l-3 -28q-2 -18 -18 -21q-24 -6 -48 -6
q-45 0 -74 24.5t-29 67.5q0 78 88 127q-15 6 -13 27l48 462q3 29 33 29h63z" />
    <glyph glyph-name="Idotaccent" unicode="&#x130;" horiz-adv-x="306" 
d="M234 778q-32 0 -53 22t-21 55q0 36 27 62t65 26q31 0 53 -21.5t22 -52.5q0 -37 -28 -64t-65 -27zM263 730q29 0 26 -29l-70 -672q-3 -29 -33 -29h-67q-29 0 -26 29l70 672q3 29 33 29h67z" />
    <glyph glyph-name="dotlessi" unicode="&#x131;" horiz-adv-x="271" 
d="M222 520q29 0 26 -29l-49 -462q-3 -29 -32 -29h-63q-29 0 -26 29l48 462q3 29 33 29h63z" />
    <glyph glyph-name="IJ" unicode="&#x132;" horiz-adv-x="1001" 
d="M263 730q29 0 26 -29l-70 -672q-3 -29 -33 -29h-67q-29 0 -26 29l70 672q3 29 33 29h67zM352 228q-1 14 7.5 22.5t23.5 8.5h63q24 0 29 -27q9 -59 52 -93.5t113 -34.5q75 0 125 49.5t58 127.5l34 317q3 24 -21 24h-221q-29 0 -26 29l5 50q3 29 33 29h333q37 0 32 -37
l-43 -412q-13 -130 -95.5 -210.5t-225.5 -80.5q-115 0 -191.5 68t-84.5 170z" />
    <glyph glyph-name="ij" unicode="&#x133;" horiz-adv-x="549" 
d="M203 601q-32 0 -53 22t-21 55q0 36 27 62t65 26q31 0 53 -21.5t22 -52.5q0 -37 -28 -64t-65 -27zM478 601q-32 0 -53 22t-21 55q0 36 27 62t65 26q31 0 53 -21.5t22 -52.5q0 -37 -28 -64t-65 -27zM222 520q29 0 26 -29l-49 -462q-3 -29 -32 -29h-63q-29 0 -26 29l48 462
q3 29 33 29h63zM306 -214q-37 0 -61 4q-25 4 -20 33l10 46q4 27 26 25q14 -2 22 -2q58 0 65 67l56 532q3 29 33 29h63q28 0 25 -29l-57 -542q-8 -77 -48.5 -120t-113.5 -43z" />
    <glyph glyph-name="Kcommaaccent" unicode="&#x136;" horiz-adv-x="660" 
d="M263 730q29 0 26 -29l-70 -672q-3 -29 -33 -29h-67q-29 0 -26 29l70 672q3 29 33 29h67zM284 312q-12 15 -9 34l4 34q3 20 15 35l270 298q16 17 38 17h80q18 0 21.5 -11t-9.5 -25l-293 -323q-12 -12 -2 -25l243 -310q11 -14 4.5 -25t-24.5 -11h-90q-23 0 -34 17zM292 -60
q8 27 35 27h51q34 0 21 -33l-60 -146q-11 -24 -35 -24h-27q-31 0 -23 32z" />
    <glyph glyph-name="kcommaaccent" unicode="&#x137;" horiz-adv-x="587" 
d="M103 0q-29 0 -26 29l75 722q5 29 33 29h63q28 0 25 -29l-43 -426q-2 -21 9 -26t28 11l202 194q16 16 38 16h72q20 0 23.5 -11t-11.5 -25l-169 -164q-22 -22 -8 -43l154 -241q9 -15 2.5 -25.5t-24.5 -10.5h-75q-23 0 -33 19l-105 177q-16 28 -44 3l-64 -59
q-17 -14 -20 -38l-7 -73q-3 -29 -32 -29h-63zM259 -60q7 27 35 27h51q34 0 21 -33l-60 -146q-10 -24 -35 -24h-27q-31 0 -23 32z" />
    <glyph glyph-name="kgreenlandic" unicode="&#x138;" horiz-adv-x="587" 
d="M103 0q-29 0 -26 29l48 462q3 29 33 29h63q28 0 25 -29l-17 -171q-3 -25 7 -29t29 14l204 199q16 16 37 16h73q19 0 22.5 -11t-10.5 -25l-167 -163q-21 -20 -7 -43l151 -242q8 -15 2 -25.5t-24 -10.5h-75q-23 0 -33 19l-102 180q-16 29 -43 4l-69 -63q-16 -16 -19 -38
l-7 -73q-3 -29 -32 -29h-63z" />
    <glyph glyph-name="Lacute" unicode="&#x139;" horiz-adv-x="578" 
d="M368 910q30 11 35 -19l8 -50q4 -28 -27 -33l-199 -29q-29 -5 -34 21l-2 12q-5 27 23 36zM127 0q-38 0 -33 37l69 664q3 29 33 29h67q29 0 26 -29l-59 -569q-2 -18 16 -18h300q29 0 26 -29l-6 -56q-3 -29 -32 -29h-407z" />
    <glyph glyph-name="lacute" unicode="&#x13a;" horiz-adv-x="271" 
d="M323 960q30 11 35 -19l8 -50q4 -28 -27 -33l-199 -29q-29 -5 -34 21l-2 12q-5 27 23 36zM249 780q29 0 26 -29l-76 -722q-3 -29 -32 -29h-63q-29 0 -26 29l75 722q5 29 33 29h63z" />
    <glyph glyph-name="Lcommaaccent" unicode="&#x13b;" horiz-adv-x="578" 
d="M127 0q-38 0 -33 37l69 664q3 29 33 29h67q29 0 26 -29l-59 -569q-2 -18 16 -18h300q29 0 26 -29l-6 -56q-3 -29 -32 -29h-407zM269 -60q7 27 35 27h51q34 0 21 -33l-60 -146q-10 -24 -35 -24h-27q-31 0 -23 32z" />
    <glyph glyph-name="lcommaaccent" unicode="&#x13c;" horiz-adv-x="271" 
d="M249 780q29 0 26 -29l-76 -722q-3 -29 -32 -29h-63q-29 0 -26 29l75 722q5 29 33 29h63zM74 -60q8 27 35 27h51q34 0 21 -33l-60 -146q-11 -24 -35 -24h-27q-31 0 -23 32z" />
    <glyph glyph-name="Lcaron" unicode="&#x13d;" horiz-adv-x="578" 
d="M503 553q28 0 35 26l47 173q9 31 -22 31h-44q-28 0 -33 -27l-34 -173q-6 -30 24 -30h27zM127 0q-38 0 -33 37l69 664q3 29 33 29h67q29 0 26 -29l-59 -569q-2 -18 16 -18h300q29 0 26 -29l-6 -56q-3 -29 -32 -29h-407z" />
    <glyph glyph-name="lcaron" unicode="&#x13e;" horiz-adv-x="271" 
d="M362 599q28 0 35 26l47 173q9 31 -22 31h-44q-28 0 -33 -27l-34 -173q-6 -30 24 -30h27zM249 780q29 0 26 -29l-76 -722q-3 -29 -32 -29h-63q-29 0 -26 29l75 722q5 29 33 29h63z" />
    <glyph glyph-name="Ldot" unicode="&#x13f;" horiz-adv-x="595" 
d="M127 0q-38 0 -33 37l69 664q3 29 33 29h67q29 0 26 -29l-59 -569q-2 -18 16 -18h300q29 0 26 -29l-6 -56q-3 -29 -32 -29h-407zM466 354q-28 0 -47.5 20.5t-19.5 49.5q0 33 25 56.5t58 23.5q28 0 48 -19.5t20 -47.5q0 -33 -25.5 -58t-58.5 -25z" />
    <glyph glyph-name="ldot" unicode="&#x140;" horiz-adv-x="433" 
d="M249 780q29 0 26 -29l-76 -722q-3 -29 -32 -29h-63q-29 0 -26 29l75 722q5 29 33 29h63zM369 270q-28 0 -47.5 20.5t-19.5 49.5q0 33 25 56.5t58 23.5q28 0 48 -19.5t20 -47.5q0 -33 -25.5 -58t-58.5 -25z" />
    <glyph glyph-name="Lslash" unicode="&#x141;" horiz-adv-x="578" 
d="M546 114q29 0 26 -29l-6 -56q-3 -29 -32 -29h-407q-38 0 -33 37l26 246l-60 -21q-29 -11 -34 18l-5 28q-6 28 22 37l86 31l34 325q3 29 33 29h67q29 0 26 -29l-29 -277l88 32q28 9 34 -18l7 -28q6 -27 -23 -38l-115 -41l-21 -199q-2 -18 16 -18h300z" />
    <glyph glyph-name="lslash" unicode="&#x142;" horiz-adv-x="271" 
d="M349 453q8 -27 -19 -39l-94 -36l-37 -349q-3 -29 -32 -29h-63q-29 0 -26 29l31 301l-52 -20q-29 -11 -37 17l-6 23q-8 28 21 39l84 31l34 331q5 29 33 29h63q29 0 26 -29l-30 -283l61 23q28 11 37 -16z" />
    <glyph glyph-name="Nacute" unicode="&#x143;" horiz-adv-x="809" 
d="M595 910q30 11 35 -19l8 -50q4 -28 -27 -33l-199 -29q-29 -5 -34 21l-2 12q-5 27 23 36zM119 0q-29 0 -26 29l70 665q3 36 39 36h18q28 0 42 -21l346 -501q7 -10 14.5 -7.5t8.5 15.5l51 485q3 29 32 29h53q29 0 26 -29l-70 -665q-5 -36 -40 -36h-34q-28 0 -42 21
l-333 469q-7 10 -14 7.5t-9 -14.5l-47 -454q-3 -29 -32 -29h-53z" />
    <glyph glyph-name="nacute" unicode="&#x144;" horiz-adv-x="650" 
d="M477 754q28 17 39 -11l18 -47q11 -27 -19 -38l-188 -71q-29 -11 -38 13l-5 12q-10 26 15 40zM103 0q-29 0 -26 29l48 462q3 29 33 29h28q26 0 30 -24l1 -7q4 -32 39 -12q91 53 199 53q80 0 125.5 -55.5t35.5 -149.5l-31 -296q-3 -29 -32 -29h-63q-29 0 -26 29l30 290
q5 49 -17.5 77t-70.5 28q-67 0 -152 -53q-23 -14 -24 -37l-32 -305q-5 -29 -33 -29h-62z" />
    <glyph glyph-name="Ncommaaccent" unicode="&#x145;" horiz-adv-x="809" 
d="M119 0q-29 0 -26 29l70 665q3 36 39 36h18q28 0 42 -21l346 -501q7 -10 14.5 -7.5t8.5 15.5l51 485q3 29 32 29h53q29 0 26 -29l-70 -665q-5 -36 -40 -36h-34q-28 0 -42 21l-333 469q-7 10 -14 7.5t-9 -14.5l-47 -454q-3 -29 -32 -29h-53zM351 -60q8 27 35 27h51
q34 0 21 -33l-60 -146q-10 -24 -35 -24h-27q-31 0 -23 32z" />
    <glyph glyph-name="ncommaaccent" unicode="&#x146;" horiz-adv-x="650" 
d="M103 0q-29 0 -26 29l48 462q3 29 33 29h28q26 0 30 -24l1 -7q4 -32 39 -12q91 53 199 53q80 0 125.5 -55.5t35.5 -149.5l-31 -296q-3 -29 -32 -29h-63q-29 0 -26 29l30 290q5 49 -17.5 77t-70.5 28q-67 0 -152 -53q-23 -14 -24 -37l-32 -305q-5 -29 -33 -29h-62zM267 -60
q7 27 35 27h51q34 0 21 -33l-60 -146q-10 -24 -35 -24h-27q-31 0 -23 32z" />
    <glyph glyph-name="Ncaron" unicode="&#x147;" horiz-adv-x="809" 
d="M333 887l5 14q9 27 39 18l106 -34q15 -7 31 0l113 34q31 9 34 -18l2 -14q3 -29 -17 -38l-124 -56q-35 -17 -68 0l-111 56q-20 10 -10 38zM119 0q-29 0 -26 29l70 665q3 36 39 36h18q28 0 42 -21l346 -501q7 -10 14.5 -7.5t8.5 15.5l51 485q3 29 32 29h53q29 0 26 -29
l-70 -665q-5 -36 -40 -36h-34q-28 0 -42 21l-333 469q-7 10 -14 7.5t-9 -14.5l-47 -454q-3 -29 -32 -29h-53z" />
    <glyph glyph-name="ncaron" unicode="&#x148;" horiz-adv-x="650" 
d="M247 699l5 14q9 26 37 17l102 -33q14 -6 30 0l108 33q30 9 33 -17l2 -14q3 -27 -17 -36l-119 -54q-33 -16 -65 0l-106 54q-20 10 -10 36zM103 0q-29 0 -26 29l48 462q3 29 33 29h28q26 0 30 -24l1 -7q4 -32 39 -12q91 53 199 53q80 0 125.5 -55.5t35.5 -149.5l-31 -296
q-3 -29 -32 -29h-63q-29 0 -26 29l30 290q5 49 -17.5 77t-70.5 28q-67 0 -152 -53q-23 -14 -24 -37l-32 -305q-5 -29 -33 -29h-62z" />
    <glyph glyph-name="napostrophe" unicode="&#x149;" horiz-adv-x="709" 
d="M48 740q8 28 36 28h55q33 0 22 -32l-60 -177q-9 -25 -35 -25h-33q-33 0 -25 31zM103 0q-29 0 -26 29l48 462q3 29 33 29h28q26 0 30 -24l1 -7q4 -32 39 -12q91 53 199 53q80 0 125.5 -55.5t35.5 -149.5l-31 -296q-3 -29 -32 -29h-63q-29 0 -26 29l30 290q5 49 -17.5 77
t-70.5 28q-67 0 -152 -53q-23 -14 -24 -37l-32 -305q-5 -29 -33 -29h-62z" />
    <glyph glyph-name="Eng" unicode="&#x14a;" horiz-adv-x="806" 
d="M119 0q-29 0 -26 29l70 665q3 36 39 36h29q27 0 41 -20l339 -411q8 -9 14.5 -6t8.5 15l41 393q3 29 33 29h57q28 0 25 -29l-63 -603q-15 -139 -103.5 -217t-249.5 -87q-15 -1 -22 6.5t-5 21.5l3 35q3 27 32 30q102 8 161.5 61t68.5 150l1 16q1 12 -6 22l-325 387
q-8 9 -14.5 6.5t-8.5 -14.5l-51 -486q-3 -29 -33 -29h-56z" />
    <glyph glyph-name="eng" unicode="&#x14b;" horiz-adv-x="650" 
d="M103 0q-29 0 -26 29l48 462q3 29 33 29h28q26 0 30 -24l2 -14q4 -24 32 -8q96 56 205 56q81 0 126 -55.5t35 -149.5l-40 -376q-9 -81 -50.5 -122t-111.5 -41q-37 0 -61 4q-26 5 -21 33l10 46q4 26 31 25q12 -2 20 -2q56 0 63 67l38 360q5 49 -17.5 77t-70.5 28
q-67 0 -156 -55q-19 -12 -20 -30l-32 -310q-3 -29 -33 -29h-62z" />
    <glyph glyph-name="Omacron" unicode="&#x14c;" horiz-adv-x="865" 
d="M371 866q3 29 31 29h246q14 0 21.5 -8t5.5 -21l-4 -34q-3 -29 -32 -29h-246q-29 0 -26 29zM80 331q0 184 122.5 296.5t307.5 112.5q152 0 252.5 -94.5t100.5 -243.5q0 -179 -122 -295.5t-310 -116.5q-149 0 -250 95t-101 246zM209 340q0 -107 65 -173t171 -66
q121 0 204.5 83t83.5 210q0 105 -65.5 170t-171.5 65q-120 0 -203.5 -82t-83.5 -207z" />
    <glyph glyph-name="omacron" unicode="&#x14d;" horiz-adv-x="641" 
d="M238 686q3 29 31 29h246q14 0 21.5 -8t5.5 -21l-4 -34q-3 -29 -32 -29h-246q-29 0 -26 29zM66 238q0 125 87.5 208.5t223.5 83.5q109 0 181.5 -70.5t72.5 -171.5q0 -127 -87.5 -212.5t-223.5 -85.5q-108 0 -181 71.5t-73 176.5zM187 244q0 -65 39.5 -107.5t103.5 -42.5
q76 0 127.5 53t51.5 130q0 65 -39.5 107t-103.5 42q-76 0 -127.5 -53t-51.5 -129z" />
    <glyph glyph-name="Ohungarumlaut" unicode="&#x150;" horiz-adv-x="865" 
d="M431 909q12 22 36 22h57q17 0 21.5 -10t-6.5 -25l-67 -91q-15 -19 -37 -19h-31q-17 0 -22 9t2 24zM606 909q12 22 36 22h57q17 0 21.5 -10t-6.5 -25l-67 -91q-15 -19 -37 -19h-31q-17 0 -22 9t2 24zM80 331q0 184 122.5 296.5t307.5 112.5q152 0 252.5 -94.5
t100.5 -243.5q0 -179 -122 -295.5t-310 -116.5q-149 0 -250 95t-101 246zM209 340q0 -107 65 -173t171 -66q121 0 204.5 83t83.5 210q0 105 -65.5 170t-171.5 65q-120 0 -203.5 -82t-83.5 -207z" />
    <glyph glyph-name="ohungarumlaut" unicode="&#x151;" horiz-adv-x="641" 
d="M292 714q12 22 36 22h57q17 0 21.5 -10t-6.5 -25l-67 -91q-15 -19 -37 -19h-31q-17 0 -22 9t2 24zM467 714q12 22 36 22h57q17 0 21.5 -10t-6.5 -25l-67 -91q-15 -19 -37 -19h-31q-17 0 -22 9t2 24zM66 238q0 125 87.5 208.5t223.5 83.5q109 0 181.5 -70.5t72.5 -171.5
q0 -127 -87.5 -212.5t-223.5 -85.5q-108 0 -181 71.5t-73 176.5zM187 244q0 -65 39.5 -107.5t103.5 -42.5q76 0 127.5 53t51.5 130q0 65 -39.5 107t-103.5 42q-76 0 -127.5 -53t-51.5 -129z" />
    <glyph glyph-name="OE" unicode="&#x152;" horiz-adv-x="1180" 
d="M1152 730q28 0 25 -29l-5 -48q-3 -29 -32 -29h-232q-23 0 -26 -22l-17 -163q-3 -23 21 -23h255q29 0 26 -29l-5 -47q-3 -29 -32 -29h-255q-23 0 -26 -23l-16 -160q-3 -22 20 -22h248q29 0 26 -29l-4 -48q-3 -29 -33 -29h-365q-30 0 -27 31l5 43q-116 -84 -272 -84
q-149 0 -250 95t-101 246q0 184 122.5 296.5t307.5 112.5q152 0 252 -95l6 54q3 31 34 31h350zM445 101q121 0 204.5 83t83.5 210q0 105 -65.5 170t-171.5 65q-120 0 -203.5 -82t-83.5 -207q0 -107 65 -173t171 -66z" />
    <glyph glyph-name="oe" unicode="&#x153;" horiz-adv-x="1017" 
d="M66 238q0 126 84.5 209t226.5 83q107 0 178 -71q19 -17 42 2q84 69 191 69q94 0 160 -74.5t58 -177.5q-1 -50 -43 -50h-328q-16 0 -25 -9.5t-5 -25.5q12 -48 48.5 -76.5t88.5 -28.5q82 0 119 59q16 22 35 22h57q15 0 21.5 -9t0.5 -23q-65 -147 -244 -147q-106 0 -175 75
q-15 19 -42 -3q-86 -72 -194 -72q-111 0 -182.5 72.5t-71.5 175.5zM629 346q-8 -16 -1.5 -25.5t22.5 -9.5l206 -1q16 0 25 10t5 25q-11 40 -40.5 63.5t-69.5 23.5q-45 0 -84.5 -22.5t-62.5 -63.5zM187 244q0 -65 39.5 -107.5t103.5 -42.5q48 0 90.5 22t63.5 60q12 22 10 39
q-1 6 -1 23q0 33 9 69q6 23 -1 40q-15 37 -51.5 58t-83.5 21q-76 0 -127.5 -53t-51.5 -129z" />
    <glyph glyph-name="Racute" unicode="&#x154;" horiz-adv-x="639" 
d="M485 910q30 11 35 -19l8 -50q4 -28 -27 -33l-199 -29q-29 -5 -34 21l-2 12q-5 27 23 36zM93 29l70 668q5 33 36 33h170q119 0 196.5 -65t77.5 -163q0 -97 -67 -159.5t-161 -78.5l-5 -1q-10 -3 -13.5 -11t4.5 -17l172 -199q12 -14 6 -25.5t-25 -11.5l-90 1q-22 0 -34 16
l-165 208q-8 11 -17 7.5t-10 -17.5l-19 -185q-3 -29 -33 -29h-67q-29 0 -26 29zM255 371q-2 -18 16 -18h58q83 0 134 41t51 105q0 56 -42 90t-115 34h-58q-18 0 -20 -18z" />
    <glyph glyph-name="racute" unicode="&#x155;" horiz-adv-x="423" 
d="M368 754q28 17 39 -11l18 -47q11 -27 -19 -38l-188 -71q-29 -11 -38 13l-5 12q-10 26 15 40zM103 0q-29 0 -26 29l48 462q3 29 33 29h26q22 0 30 -24l2 -9q7 -31 39 -9q78 52 160 52q9 0 27 -2q26 -4 19 -34l-13 -61q-6 -27 -35 -24q-16 3 -35 3q-53 0 -126 -49
q-20 -13 -23 -38l-31 -296q-3 -29 -32 -29h-63z" />
    <glyph glyph-name="Rcommaaccent" unicode="&#x156;" horiz-adv-x="639" 
d="M93 29l70 668q5 33 36 33h170q119 0 196.5 -65t77.5 -163q0 -97 -67 -159.5t-161 -78.5l-5 -1q-10 -3 -13.5 -11t4.5 -17l172 -199q12 -14 6 -25.5t-25 -11.5l-90 1q-22 0 -34 16l-165 208q-8 11 -17 7.5t-10 -17.5l-19 -185q-3 -29 -33 -29h-67q-29 0 -26 29zM255 371
q-2 -18 16 -18h58q83 0 134 41t51 105q0 56 -42 90t-115 34h-58q-18 0 -20 -18zM273 -60q8 27 35 27h51q34 0 21 -33l-60 -146q-10 -24 -35 -24h-27q-31 0 -23 32z" />
    <glyph glyph-name="rcommaaccent" unicode="&#x157;" horiz-adv-x="423" 
d="M103 0q-29 0 -26 29l48 462q3 29 33 29h26q22 0 30 -24l2 -9q7 -31 39 -9q78 52 160 52q9 0 27 -2q26 -4 19 -34l-13 -61q-6 -27 -35 -24q-16 3 -35 3q-53 0 -126 -49q-20 -13 -23 -38l-31 -296q-3 -29 -32 -29h-63zM69 -60q7 27 35 27h51q34 0 21 -33l-60 -146
q-11 -24 -35 -24h-27q-31 0 -23 32z" />
    <glyph glyph-name="Rcaron" unicode="&#x158;" horiz-adv-x="639" 
d="M223 887l5 14q9 27 39 18l106 -34q15 -7 31 0l113 34q31 9 34 -18l2 -14q3 -29 -17 -38l-124 -56q-35 -17 -68 0l-111 56q-20 10 -10 38zM93 29l70 668q5 33 36 33h170q119 0 196.5 -65t77.5 -163q0 -97 -67 -159.5t-161 -78.5l-5 -1q-10 -3 -13.5 -11t4.5 -17l172 -199
q12 -14 6 -25.5t-25 -11.5l-90 1q-22 0 -34 16l-165 208q-8 11 -17 7.5t-10 -17.5l-19 -185q-3 -29 -33 -29h-67q-29 0 -26 29zM255 371q-2 -18 16 -18h58q83 0 134 41t51 105q0 56 -42 90t-115 34h-58q-18 0 -20 -18z" />
    <glyph glyph-name="rcaron" unicode="&#x159;" horiz-adv-x="423" 
d="M138 699l5 14q9 26 37 17l102 -33q14 -6 30 0l108 33q30 9 33 -17l2 -14q3 -27 -17 -36l-119 -54q-33 -16 -65 0l-106 54q-20 10 -10 36zM103 0q-29 0 -26 29l48 462q3 29 33 29h26q22 0 30 -24l2 -9q7 -31 39 -9q78 52 160 52q9 0 27 -2q26 -4 19 -34l-13 -61
q-6 -27 -35 -24q-16 3 -35 3q-53 0 -126 -49q-20 -13 -23 -38l-31 -296q-3 -29 -32 -29h-63z" />
    <glyph glyph-name="Sacute" unicode="&#x15a;" horiz-adv-x="631" 
d="M490 910q30 11 35 -19l8 -50q4 -28 -27 -33l-199 -29q-29 -5 -34 21l-2 12q-5 27 23 36zM57 188q-4 15 4 24t24 9h68q23 0 31 -23q32 -97 159 -97q60 0 98 23.5t38 71.5q0 31 -19.5 54t-51 37t-69.5 26.5t-76 29t-69.5 37.5t-51 58t-19.5 86q0 97 69.5 156.5t184.5 59.5
q100 0 168 -54t82 -134q2 -14 -6 -23t-23 -9h-65q-24 0 -32 23q-12 39 -46.5 62.5t-86.5 23.5t-85.5 -26t-33.5 -71q0 -40 37 -66t89.5 -43t105.5 -38.5t90 -67t37 -113.5q0 -100 -77 -157t-193 -57q-106 0 -183 55t-98 143z" />
    <glyph glyph-name="sacute" unicode="&#x15b;" horiz-adv-x="546" 
d="M413 754q28 17 39 -11l18 -47q11 -27 -19 -38l-188 -71q-29 -11 -38 13l-5 12q-10 26 15 40zM96 368q-1 73 56 117.5t167 44.5q93 0 150.5 -42.5t63.5 -110.5q1 -14 -7.5 -22.5t-23.5 -8.5h-53q-23 0 -29 26q-12 63 -103 63q-48 0 -75 -17t-27 -43q0 -23 22.5 -38
t57 -21.5t74 -17.5t74 -25t57 -44.5t22.5 -74.5q0 -77 -64 -120.5t-173 -43.5q-89 0 -157 44t-75 114q-3 31 30 31h56q21 0 30 -24q22 -70 125 -70q50 0 79.5 17t29.5 48q0 23 -22.5 38t-57 21.5t-74 17.5t-74 24t-57 43t-22.5 74z" />
    <glyph glyph-name="Scedilla" unicode="&#x15e;" horiz-adv-x="631" 
d="M368 629q-52 0 -85.5 -26t-33.5 -71q0 -40 37 -66t89.5 -43t105.5 -38.5t90 -67t37 -113.5q0 -91 -64.5 -147t-166.5 -65l-3 -10q-6 -18 10 -21q64 -12 64 -75q0 -50 -39 -78t-98 -28q-49 0 -80 17q-19 12 -9 35l5 12q9 21 36 12q19 -9 45 -9q45 0 45 32q0 30 -38 30h-13
q-14 0 -20 8.5t-1 22.5l21 52q-93 9 -159 62.5t-86 133.5q-4 15 4 24t24 9h68q23 0 31 -23q32 -97 159 -97q60 0 98 23.5t38 71.5q0 31 -19.5 54t-51 37t-69.5 26.5t-76 29t-69.5 37.5t-51 58t-19.5 86q0 97 69.5 156.5t184.5 59.5q100 0 168 -54t82 -134q2 -14 -6 -23
t-23 -9h-65q-24 0 -32 23q-12 39 -46.5 62.5t-86.5 23.5z" />
    <glyph glyph-name="scedilla" unicode="&#x15f;" horiz-adv-x="546" 
d="M317 435q-48 0 -75 -17t-27 -43q0 -23 22.5 -38t57 -21.5t74 -17.5t74 -25t57 -44.5t22.5 -74.5q0 -71 -55 -114t-151 -49l-3 -9q-6 -18 10 -21q64 -12 64 -75q0 -50 -39 -78t-98 -28q-49 0 -80 17q-19 12 -9 35l5 12q9 21 36 12q20 -9 45 -9q45 0 45 32q0 30 -38 30h-13
q-14 0 -20 8.5t-1 22.5l21 53q-76 11 -128.5 52.5t-59.5 102.5q-3 31 30 31h56q21 0 30 -24q22 -70 125 -70q50 0 79.5 17t29.5 48q0 23 -22.5 38t-57 21.5t-74 17.5t-74 24t-57 43t-22.5 74q-1 73 56 117.5t167 44.5q93 0 150.5 -42.5t63.5 -110.5q1 -14 -7.5 -22.5
t-23.5 -8.5h-53q-23 0 -29 26q-12 63 -103 63z" />
    <glyph glyph-name="Scaron" unicode="&#x160;" horiz-adv-x="631" 
d="M228 887l5 14q9 27 39 18l106 -34q15 -7 31 0l113 34q31 9 34 -18l2 -14q3 -29 -17 -38l-124 -56q-35 -17 -68 0l-111 56q-20 10 -10 38zM57 188q-4 15 4 24t24 9h68q23 0 31 -23q32 -97 159 -97q60 0 98 23.5t38 71.5q0 31 -19.5 54t-51 37t-69.5 26.5t-76 29
t-69.5 37.5t-51 58t-19.5 86q0 97 69.5 156.5t184.5 59.5q100 0 168 -54t82 -134q2 -14 -6 -23t-23 -9h-65q-24 0 -32 23q-12 39 -46.5 62.5t-86.5 23.5t-85.5 -26t-33.5 -71q0 -40 37 -66t89.5 -43t105.5 -38.5t90 -67t37 -113.5q0 -100 -77 -157t-193 -57q-106 0 -183 55
t-98 143z" />
    <glyph glyph-name="scaron" unicode="&#x161;" horiz-adv-x="546" 
d="M183 699l5 14q9 26 37 17l102 -33q14 -6 30 0l108 33q30 9 33 -17l2 -14q3 -27 -17 -36l-119 -54q-33 -16 -65 0l-106 54q-20 10 -10 36zM96 368q-1 73 56 117.5t167 44.5q93 0 150.5 -42.5t63.5 -110.5q1 -14 -7.5 -22.5t-23.5 -8.5h-53q-23 0 -29 26q-12 63 -103 63
q-48 0 -75 -17t-27 -43q0 -23 22.5 -38t57 -21.5t74 -17.5t74 -25t57 -44.5t22.5 -74.5q0 -77 -64 -120.5t-173 -43.5q-89 0 -157 44t-75 114q-3 31 30 31h56q21 0 30 -24q22 -70 125 -70q50 0 79.5 17t29.5 48q0 23 -22.5 38t-57 21.5t-74 17.5t-74 24t-57 43t-22.5 74z
" />
    <glyph glyph-name="uni0162" unicode="&#x162;" horiz-adv-x="589" 
d="M621 730q29 0 26 -29l-6 -54q-3 -29 -32 -29h-165q-22 0 -25 -22l-59 -567q-3 -29 -32 -29h-1l-6 -19q-6 -18 10 -21q64 -12 64 -75q0 -50 -39 -78t-98 -28q-49 0 -80 17q-19 12 -9 35l5 12q9 21 36 12q20 -9 45 -9q45 0 45 32q0 30 -38 30h-13q-14 0 -20 8.5t-1 22.5
l24 61q-26 2 -23 29l58 567q3 22 -19 22h-158q-29 0 -26 29l5 54q3 29 33 29h499z" />
    <glyph glyph-name="uni0163" unicode="&#x163;" horiz-adv-x="429" 
d="M428 520q29 0 26 -29l-5 -45q-3 -29 -32 -29h-142q-10 0 -12 -10l-25 -239q-8 -72 55 -72q35 0 85 13q32 8 32 -23v-43q0 -26 -26 -35q-55 -15 -98 -17l-3 -9q-6 -18 10 -21q64 -12 64 -75q0 -50 -39 -78t-98 -28q-49 0 -80 17q-19 12 -9 35l5 12q9 21 36 12q20 -9 45 -9
q45 0 45 32q0 30 -38 30h-13q-14 0 -20 8.5t-1 22.5l22 56q-49 14 -75.5 56.5t-19.5 112.5l25 242q2 10 -10 10h-33q-29 0 -26 29l5 45q3 29 33 29h37q10 0 12 11l8 81q3 25 27 33l62 15q16 4 24 -3.5t6 -22.5l-11 -103q-2 -11 10 -11h142z" />
    <glyph glyph-name="Tcaron" unicode="&#x164;" horiz-adv-x="589" 
d="M221 887l5 14q9 27 39 18l106 -34q15 -7 31 0l113 34q31 9 34 -18l2 -14q3 -29 -17 -38l-124 -56q-35 -17 -68 0l-111 56q-20 10 -10 38zM110 618q-29 0 -26 29l5 54q3 29 33 29h499q29 0 26 -29l-6 -54q-3 -29 -32 -29h-165q-22 0 -25 -22l-59 -567q-3 -29 -32 -29h-74
q-28 0 -25 29l58 567q3 22 -19 22h-158z" />
    <glyph glyph-name="tcaron" unicode="&#x165;" horiz-adv-x="429" 
d="M401 592q28 0 35 26l47 173q9 31 -22 31h-44q-28 0 -33 -27l-34 -173q-6 -30 24 -30h27zM99 417q-29 0 -26 29l5 45q3 29 33 29h37q10 0 12 11l8 81q3 25 27 33l62 15q16 4 24 -3.5t6 -22.5l-11 -103q-2 -11 10 -11h142q29 0 26 -29l-5 -45q-3 -29 -32 -29h-142
q-10 0 -12 -10l-25 -239q-8 -72 55 -72q35 0 85 13q32 8 32 -23v-43q0 -26 -26 -35q-67 -18 -125 -18q-67 0 -109 44t-33 131l25 242q2 10 -10 10h-33z" />
    <glyph glyph-name="Tbar" unicode="&#x166;" horiz-adv-x="589" 
d="M621 730q29 0 26 -29l-6 -54q-3 -29 -32 -29h-165q-22 0 -25 -22l-18 -177h84q28 0 26 -30l-4 -38q-2 -29 -32 -29h-85l-30 -293q-3 -29 -32 -29h-74q-28 0 -25 29l30 293h-76q-28 0 -26 29l4 38q2 30 32 30h76l18 177q3 22 -19 22h-158q-29 0 -26 29l5 54q3 29 33 29
h499z" />
    <glyph glyph-name="tbar" unicode="&#x167;" horiz-adv-x="429" 
d="M428 520q29 0 26 -29l-5 -45q-3 -29 -32 -29h-142q-10 0 -12 -10l-8 -74h132q28 0 26 -30l-4 -38q-2 -29 -32 -29h-132l-7 -68q-8 -72 55 -72q35 0 85 13q32 8 32 -23v-43q0 -26 -26 -35q-67 -18 -125 -18q-67 0 -109 44t-33 131l7 71h-39q-28 0 -26 29l4 38q2 30 32 30
h39l8 74q2 10 -10 10h-33q-29 0 -26 29l5 45q3 29 33 29h37q10 0 12 11l8 81q3 25 27 33l62 15q16 4 24 -3.5t6 -22.5l-11 -103q-2 -11 10 -11h142z" />
    <glyph glyph-name="Utilde" unicode="&#x168;" horiz-adv-x="781" 
d="M637 908q29 -5 21 -33q-10 -36 -40 -56.5t-68 -20.5q-33 0 -72 19t-51 19q-22 0 -36 -16q-14 -18 -35 -14l-25 5q-13 2 -18.5 11.5t-1.5 22.5q11 38 38.5 59t63.5 20q33 0 77 -19.5t54 -19.5q24 0 36 15q12 17 33 13zM111 307l42 394q3 29 32 29h71q29 0 26 -29l-42 -401
q-10 -87 36 -141t126 -54q78 0 135.5 53t67.5 142l42 401q3 29 32 29h71q29 0 26 -29l-42 -394q-15 -143 -108 -230t-236 -87q-129 0 -211 90t-68 227z" />
    <glyph glyph-name="utilde" unicode="&#x169;" horiz-adv-x="629" 
d="M510 703q29 -5 21 -33q-10 -36 -40 -56.5t-68 -20.5q-33 0 -72 19t-51 19q-22 0 -36 -16q-14 -18 -35 -14l-25 5q-13 2 -18.5 11.5t-1.5 22.5q11 38 38.5 59t63.5 20q34 0 78 -19.5t53 -19.5q24 0 36 15q12 17 33 13zM89 195l31 296q3 29 33 29h63q28 0 25 -29l-30 -290
q-5 -50 16 -77.5t65 -27.5t136 45q23 10 25 36l34 314q3 29 32 29h63q28 0 25 -29l-48 -462q-3 -29 -32 -29h-26q-27 0 -30 24l-1 4q-4 30 -39 11q-91 -49 -188 -49q-73 0 -118 56.5t-36 148.5z" />
    <glyph glyph-name="Umacron" unicode="&#x16a;" horiz-adv-x="781" 
d="M331 866q3 29 31 29h246q14 0 21.5 -8t5.5 -21l-4 -34q-3 -29 -32 -29h-246q-29 0 -26 29zM111 307l42 394q3 29 32 29h71q29 0 26 -29l-42 -401q-10 -87 36 -141t126 -54q78 0 135.5 53t67.5 142l42 401q3 29 32 29h71q29 0 26 -29l-42 -394q-15 -143 -108 -230
t-236 -87q-129 0 -211 90t-68 227z" />
    <glyph glyph-name="umacron" unicode="&#x16b;" horiz-adv-x="629" 
d="M234 686q3 29 31 29h246q14 0 21.5 -8t5.5 -21l-4 -34q-3 -29 -32 -29h-246q-29 0 -26 29zM89 195l31 296q3 29 33 29h63q28 0 25 -29l-30 -290q-5 -50 16 -77.5t65 -27.5t136 45q23 10 25 36l34 314q3 29 32 29h63q28 0 25 -29l-48 -462q-3 -29 -32 -29h-26
q-27 0 -30 24l-1 4q-4 30 -39 11q-91 -49 -188 -49q-73 0 -118 56.5t-36 148.5z" />
    <glyph glyph-name="Uring" unicode="&#x16e;" horiz-adv-x="781" 
d="M470 761q-49 0 -79.5 29t-30.5 71q0 48 36 82.5t97 34.5q50 0 81.5 -28.5t31.5 -69.5q0 -50 -36.5 -84.5t-99.5 -34.5zM477 828q21 0 35 13t15 31t-10.5 29.5t-30.5 11.5t-32.5 -13t-14.5 -32q-1 -17 9.5 -28.5t28.5 -11.5zM111 307l42 394q3 29 32 29h71q29 0 26 -29
l-42 -401q-10 -87 36 -141t126 -54q78 0 135.5 53t67.5 142l42 401q3 29 32 29h71q29 0 26 -29l-42 -394q-15 -143 -108 -230t-236 -87q-129 0 -211 90t-68 227z" />
    <glyph glyph-name="uring" unicode="&#x16f;" horiz-adv-x="629" 
d="M351 574q-49 0 -79.5 29t-30.5 71q0 48 36 82.5t97 34.5q50 0 81.5 -28.5t31.5 -69.5q0 -50 -36.5 -84.5t-99.5 -34.5zM358 641q21 0 35 13t15 31t-10.5 29.5t-30.5 11.5t-32.5 -13t-14.5 -32q-1 -17 9.5 -28.5t28.5 -11.5zM89 195l31 296q3 29 33 29h63q28 0 25 -29
l-30 -290q-5 -50 16 -77.5t65 -27.5t136 45q23 10 25 36l34 314q3 29 32 29h63q28 0 25 -29l-48 -462q-3 -29 -32 -29h-26q-27 0 -30 24l-1 4q-4 30 -39 11q-91 -49 -188 -49q-73 0 -118 56.5t-36 148.5z" />
    <glyph glyph-name="Uhungarumlaut" unicode="&#x170;" horiz-adv-x="781" 
d="M391 909q12 22 36 22h57q17 0 21.5 -10t-6.5 -25l-67 -91q-15 -19 -37 -19h-31q-17 0 -22 9t2 24zM566 909q12 22 36 22h57q17 0 21.5 -10t-6.5 -25l-67 -91q-15 -19 -37 -19h-31q-17 0 -22 9t2 24zM111 307l42 394q3 29 32 29h71q29 0 26 -29l-42 -401q-10 -87 36 -141
t126 -54q78 0 135.5 53t67.5 142l42 401q3 29 32 29h71q29 0 26 -29l-42 -394q-15 -143 -108 -230t-236 -87q-129 0 -211 90t-68 227z" />
    <glyph glyph-name="uhungarumlaut" unicode="&#x171;" horiz-adv-x="629" 
d="M288 714q12 22 36 22h57q17 0 21.5 -10t-6.5 -25l-67 -91q-15 -19 -37 -19h-31q-17 0 -22 9t2 24zM463 714q12 22 36 22h57q17 0 21.5 -10t-6.5 -25l-67 -91q-15 -19 -37 -19h-31q-17 0 -22 9t2 24zM89 195l31 296q3 29 33 29h63q28 0 25 -29l-30 -290q-5 -50 16 -77.5
t65 -27.5t136 45q23 10 25 36l34 314q3 29 32 29h63q28 0 25 -29l-48 -462q-3 -29 -32 -29h-26q-27 0 -30 24l-1 4q-4 30 -39 11q-91 -49 -188 -49q-73 0 -118 56.5t-36 148.5z" />
    <glyph glyph-name="Uogonek" unicode="&#x172;" horiz-adv-x="781" 
d="M750 730q29 0 26 -29l-42 -394q-14 -125 -88 -209t-191 -103q-78 -49 -78 -111q0 -16 10 -25.5t26 -9.5q8 0 22 2q10 1 15.5 -3t4.5 -14l-3 -28q-2 -18 -18 -21q-24 -6 -48 -6q-45 0 -74 24.5t-29 67.5q0 74 77 120q-118 11 -190 99.5t-59 216.5l42 394q3 29 32 29h71
q29 0 26 -29l-42 -401q-10 -87 36 -141t126 -54q78 0 135.5 53t67.5 142l42 401q3 29 32 29h71z" />
    <glyph glyph-name="uogonek" unicode="&#x173;" horiz-adv-x="629" 
d="M582 520q28 0 25 -29l-48 -462q-1 -19 -19 -27q-83 -50 -83 -114q0 -16 10 -25.5t26 -9.5q8 0 22 2q10 1 15.5 -3t4.5 -14l-3 -28q-2 -18 -18 -21q-24 -6 -48 -6q-45 0 -74 24.5t-29 67.5q0 88 111 139q-3 9 -3 10l-1 4q-4 30 -39 11q-91 -49 -188 -49q-73 0 -118 56.5
t-36 148.5l31 296q3 29 33 29h63q28 0 25 -29l-30 -290q-5 -50 16 -77.5t65 -27.5t136 45q23 10 25 36l34 314q3 29 32 29h63z" />
    <glyph glyph-name="Wcircumflex" unicode="&#x174;" horiz-adv-x="983" 
d="M411 820q-10 24 15 37l143 71q30 14 52 0l134 -71q23 -13 7 -37l-10 -20q-13 -22 -37 -13l-105 38q-26 7 -50 -1l-108 -36q-25 -9 -34 12zM93 697q-6 33 28 33h70q28 0 31 -25l65 -474q2 -17 12 -17t17 16l185 476q10 24 36 24h65q26 0 30 -25l87 -481q2 -11 7.5 -15
t12 0.5t10.5 15.5l168 479q8 26 33 26h62q34 0 21 -33l-253 -672q-9 -25 -35 -25h-67q-26 0 -30 25l-85 488q-2 11 -7.5 15t-12 0t-10.5 -15l-187 -489q-8 -24 -35 -24h-68q-26 0 -30 25z" />
    <glyph glyph-name="wcircumflex" unicode="&#x175;" horiz-adv-x="806" 
d="M303 639q-11 25 14 36l139 69q29 14 51 0l130 -69q21 -11 7 -36l-10 -19q-12 -21 -36 -13l-102 37q-24 7 -49 -1l-105 -35q-24 -8 -33 12zM74 487q-5 33 29 33h59q26 0 29 -25l45 -322q2 -14 10 -14t14 13l134 325q10 25 36 25h55q27 0 31 -25l66 -329q2 -13 10.5 -13
t13.5 14l114 326q9 25 36 25h58q33 0 20 -33l-182 -462q-10 -25 -37 -25h-75q-26 0 -31 25l-58 302q-1 9 -5.5 12t-9.5 0t-9 -12l-128 -302q-11 -25 -36 -25h-73q-27 0 -31 25z" />
    <glyph glyph-name="Ycircumflex" unicode="&#x176;" horiz-adv-x="647" 
d="M241 820q-10 24 15 37l143 71q30 14 52 0l134 -71q23 -13 7 -37l-10 -20q-13 -22 -37 -13l-105 38q-26 7 -50 -1l-108 -36q-25 -9 -34 12zM90 695q-7 16 -0.5 25.5t24.5 9.5h78q23 0 32 -21l129 -301q5 -12 13.5 -12t15.5 12l191 301q13 21 37 21h69q17 0 22 -9.5
t-5 -25.5l-272 -410q-9 -15 -10 -27l-23 -227q-3 -31 -35 -31h-61q-31 0 -28 31l23 226q2 16 -4 28z" />
    <glyph glyph-name="ycircumflex" unicode="&#x177;" horiz-adv-x="566" 
d="M184 639q-11 25 14 36l139 69q29 14 51 0l130 -69q21 -11 7 -36l-10 -19q-13 -21 -36 -13l-102 37q-24 7 -49 -1l-105 -35q-24 -8 -33 12zM72 486q-4 16 3 25t24 9h75q25 0 31 -24l83 -356q2 -9 6.5 -12t10 0t8.5 12l154 356q11 24 36 24h74q35 0 19 -34l-265 -537
q-47 -96 -91.5 -130.5t-135.5 -34.5q-38 0 -71 9q-25 6 -19 34l9 38q8 30 36 24q23 -6 62 -6q38 0 65 23t50 70l13 24h-16q-20 0 -26 19z" />
    <glyph glyph-name="Ydieresis" unicode="&#x178;" horiz-adv-x="647" 
d="M297 775q-30 0 -49 20.5t-19 51.5q0 33 25 57.5t59 24.5q30 0 50.5 -20t20.5 -49q0 -35 -26.5 -60t-60.5 -25zM518 775q-29 0 -49.5 21t-20.5 52q0 33 26 57t60 24q29 0 49.5 -20t20.5 -49q0 -35 -26 -60t-60 -25zM90 695q-7 16 -0.5 25.5t24.5 9.5h78q23 0 32 -21
l129 -301q5 -12 13.5 -12t15.5 12l191 301q13 21 37 21h69q17 0 22 -9.5t-5 -25.5l-272 -410q-9 -15 -10 -27l-23 -227q-3 -31 -35 -31h-61q-31 0 -28 31l23 226q2 16 -4 28z" />
    <glyph glyph-name="Zacute" unicode="&#x179;" horiz-adv-x="657" 
d="M520 910q30 11 35 -19l8 -50q4 -28 -27 -33l-199 -29q-29 -5 -34 21l-2 12q-5 27 23 36zM53 0q-33 0 -28 29l1 7q3 21 16 38l440 518q11 13 7.5 22t-18.5 9h-335q-30 0 -27 29l5 49q3 29 33 29h519q30 0 27 -28v-7q-1 -19 -16 -38l-442 -520q-11 -13 -7.5 -22t19.5 -9
h366q29 0 26 -29l-4 -48q-3 -29 -33 -29h-549z" />
    <glyph glyph-name="zacute" unicode="&#x17a;" horiz-adv-x="526" 
d="M411 754q28 17 39 -11l18 -47q11 -27 -19 -38l-188 -71q-29 -11 -38 13l-5 12q-10 26 15 40zM31 37q1 18 16 33l310 327q8 9 5.5 16t-13.5 7h-236q-29 0 -26 29l4 42q3 29 33 29h384q26 0 23 -26l-3 -39q-3 -18 -16 -33l-283 -299q-9 -10 -6.5 -16.5t14.5 -6.5h240
q30 0 27 -29l-5 -42q-3 -29 -32 -29h-413q-26 0 -24 26z" />
    <glyph glyph-name="Zdotaccent" unicode="&#x17b;" horiz-adv-x="657" 
d="M411 778q-32 0 -53 22t-21 55q0 36 27 62t65 26q31 0 53 -21.5t22 -52.5q0 -37 -28 -64t-65 -27zM53 0q-33 0 -28 29l1 7q3 21 16 38l440 518q11 13 7.5 22t-18.5 9h-335q-30 0 -27 29l5 49q3 29 33 29h519q30 0 27 -28v-7q-1 -19 -16 -38l-442 -520q-11 -13 -7.5 -22
t19.5 -9h366q29 0 26 -29l-4 -48q-3 -29 -33 -29h-549z" />
    <glyph glyph-name="zdotaccent" unicode="&#x17c;" horiz-adv-x="526" 
d="M328 601q-32 0 -53 22t-21 55q0 36 27 62t65 26q31 0 53 -21.5t22 -52.5q0 -37 -28 -64t-65 -27zM31 37q1 18 16 33l310 327q8 9 5.5 16t-13.5 7h-236q-29 0 -26 29l4 42q3 29 33 29h384q26 0 23 -26l-3 -39q-3 -18 -16 -33l-283 -299q-9 -10 -6.5 -16.5t14.5 -6.5h240
q30 0 27 -29l-5 -42q-3 -29 -32 -29h-413q-26 0 -24 26z" />
    <glyph glyph-name="Zcaron" unicode="&#x17d;" horiz-adv-x="657" 
d="M258 887l5 14q9 27 39 18l106 -34q15 -7 31 0l113 34q31 9 34 -18l2 -14q3 -29 -17 -38l-124 -56q-35 -17 -68 0l-111 56q-20 10 -10 38zM53 0q-33 0 -28 29l1 7q3 21 16 38l440 518q11 13 7.5 22t-18.5 9h-335q-30 0 -27 29l5 49q3 29 33 29h519q30 0 27 -28v-7
q-1 -19 -16 -38l-442 -520q-11 -13 -7.5 -22t19.5 -9h366q29 0 26 -29l-4 -48q-3 -29 -33 -29h-549z" />
    <glyph glyph-name="zcaron" unicode="&#x17e;" horiz-adv-x="526" 
d="M181 699l5 14q9 26 37 17l102 -33q14 -6 30 0l108 33q30 9 33 -17l2 -14q3 -27 -17 -36l-119 -54q-33 -16 -65 0l-106 54q-20 10 -10 36zM31 37q1 18 16 33l310 327q8 9 5.5 16t-13.5 7h-236q-29 0 -26 29l4 42q3 29 33 29h384q26 0 23 -26l-3 -39q-3 -18 -16 -33
l-283 -299q-9 -10 -6.5 -16.5t14.5 -6.5h240q30 0 27 -29l-5 -42q-3 -29 -32 -29h-413q-26 0 -24 26z" />
    <glyph glyph-name="uni01EA" unicode="&#x1ea;" horiz-adv-x="865" 
d="M522 -2q-81 -51 -81 -113q0 -16 10 -25.5t26 -9.5q8 0 22 2q10 1 15.5 -3t4.5 -14l-3 -28q-2 -18 -18 -21q-24 -6 -48 -6q-45 0 -74 24.5t-29 67.5q0 72 73 118q-145 4 -242.5 98.5t-97.5 242.5q0 184 122.5 296.5t307.5 112.5q152 0 252.5 -94.5t100.5 -243.5
q0 -156 -94 -266.5t-247 -137.5zM209 340q0 -107 65 -173t171 -66q121 0 204.5 83t83.5 210q0 105 -65.5 170t-171.5 65q-120 0 -203.5 -82t-83.5 -207z" />
    <glyph glyph-name="uni01EB" unicode="&#x1eb;" horiz-adv-x="641" 
d="M380 -5q-78 -49 -78 -111q0 -16 10 -25.5t26 -9.5q8 0 22 2q10 1 15.5 -3t4.5 -14l-3 -28q-2 -18 -18 -21q-24 -6 -48 -6q-45 0 -74 24.5t-29 67.5q0 73 78 121q-96 12 -158 81t-62 165q0 125 87.5 208.5t223.5 83.5q109 0 181.5 -70.5t72.5 -171.5q0 -112 -69.5 -193
t-181.5 -100zM187 244q0 -65 39.5 -107.5t103.5 -42.5q76 0 127.5 53t51.5 130q0 65 -39.5 107t-103.5 42q-76 0 -127.5 -53t-51.5 -129z" />
    <glyph glyph-name="AEacute" unicode="&#x1fc;" horiz-adv-x="954" 
d="M793 910q30 11 35 -19l8 -50q4 -28 -27 -33l-199 -29q-29 -5 -34 21l-2 12q-5 27 23 36zM15 0q-17 0 -21.5 10t5.5 25l450 674q13 21 38 21h438q29 0 26 -29l-6 -47q-3 -29 -31 -29h-237q-18 0 -20 -18l-18 -172q-2 -18 16 -18h260q29 0 26 -29l-5 -47q-3 -29 -32 -29
h-260q-18 0 -20 -18l-18 -170q-2 -18 16 -18h253q29 0 26 -29l-5 -48q-3 -29 -32 -29h-366q-29 0 -27 30l12 108q2 18 -16 18h-239q-15 0 -23 -12l-82 -124q-13 -20 -37 -20h-71zM303 289q-6 -9 -3 -15t13 -6h166q17 0 19 18l32 303q2 13 -5.5 15.5t-14.5 -9.5z" />
    <glyph glyph-name="aeacute" unicode="&#x1fd;" horiz-adv-x="941" 
d="M610 754q28 17 39 -11l18 -47q11 -27 -19 -38l-188 -71q-29 -11 -38 13l-5 12q-10 26 15 40zM50 121q0 83 64 126.5t175 42.5l101 -1q26 0 27 18l1 8q4 54 -23 82.5t-75 28.5q-38 0 -68.5 -17.5t-43.5 -45.5q-13 -26 -34 -26h-53q-15 0 -22 8.5t-3 23.5q23 76 89 118.5
t151 42.5q99 0 152 -61q18 -19 39 -2q81 63 182 63q97 0 166 -79t54 -186q-4 -38 -41 -38l-330 1q-13 0 -20.5 -8t-4.5 -20q9 -51 44 -80.5t87 -29.5q85 0 120 57q16 22 36 22h56q15 0 22 -9t0 -23q-26 -64 -90 -105.5t-155 -41.5q-49 0 -96.5 19t-79.5 53q-17 18 -39 2
q-99 -74 -218 -74q-73 0 -121.5 40.5t-48.5 90.5zM554 339q-6 -13 -1 -21t19 -8l214 -1q14 0 21.5 9t3.5 24q-9 40 -39.5 64t-74.5 24q-43 0 -81.5 -24.5t-61.5 -66.5zM174 142q0 -25 21.5 -38.5t53.5 -13.5q75 0 157 57q14 9 11 26l-3 17q-3 18 -20 18h-110
q-110 0 -110 -66z" />
    <glyph glyph-name="Oslashacute" unicode="&#x1fe;" horiz-adv-x="865" 
d="M406 800l-2 12q-5 27 23 36l196 62q30 11 35 -19l8 -50q4 -28 -27 -33l-199 -29q-29 -5 -34 21zM794 610q69 -88 69 -208q0 -179 -122 -295.5t-310 -116.5q-126 0 -220 69l-50 -47q-22 -22 -42 0l-14 15q-20 20 3 42l47 44q-75 91 -75 218q0 184 122.5 296.5t307.5 112.5
q132 0 228 -74l48 46q21 21 41 0l17 -16q19 -20 -3 -42zM209 340q0 -79 38 -139l401 380q-62 48 -152 48q-120 0 -203.5 -82t-83.5 -207zM445 101q121 0 204.5 83t83.5 210q0 74 -32 127l-400 -377q62 -43 144 -43z" />
    <glyph glyph-name="oslashacute" unicode="&#x1ff;" horiz-adv-x="641" 
d="M270 600l-5 12q-10 26 15 40l178 102q28 17 39 -11l18 -47q11 -27 -19 -38l-188 -71q-29 -11 -38 13zM583 432q48 -62 48 -144q0 -127 -87.5 -212.5t-223.5 -85.5q-93 0 -161 54l-40 -36q-23 -21 -42 0l-7 7q-19 22 4 43l38 35q-46 63 -46 145q0 125 87.5 208.5
t223.5 83.5q89 0 158 -50l34 31q21 21 41 1l8 -9q20 -20 -3 -42zM187 244q0 -37 14 -70l248 227q-34 25 -83 25q-76 0 -127.5 -53t-51.5 -129zM330 94q76 0 127.5 53t51.5 130q0 38 -16 73l-250 -229q37 -27 87 -27z" />
    <glyph glyph-name="Scommaaccent" unicode="&#x218;" horiz-adv-x="631" 
d="M57 188q-4 15 4 24t24 9h68q23 0 31 -23q32 -97 159 -97q60 0 98 23.5t38 71.5q0 31 -19.5 54t-51 37t-69.5 26.5t-76 29t-69.5 37.5t-51 58t-19.5 86q0 97 69.5 156.5t184.5 59.5q100 0 168 -54t82 -134q2 -14 -6 -23t-23 -9h-65q-24 0 -32 23q-12 39 -46.5 62.5
t-86.5 23.5t-85.5 -26t-33.5 -71q0 -40 37 -66t89.5 -43t105.5 -38.5t90 -67t37 -113.5q0 -100 -77 -157t-193 -57q-106 0 -183 55t-98 143zM285 -60q7 27 35 27h51q34 0 21 -33l-60 -146q-10 -24 -35 -24h-27q-31 0 -23 32z" />
    <glyph glyph-name="scommaaccent" unicode="&#x219;" horiz-adv-x="546" 
d="M96 368q-1 73 56 117.5t167 44.5q93 0 150.5 -42.5t63.5 -110.5q1 -14 -7.5 -22.5t-23.5 -8.5h-53q-23 0 -29 26q-12 63 -103 63q-48 0 -75 -17t-27 -43q0 -23 22.5 -38t57 -21.5t74 -17.5t74 -25t57 -44.5t22.5 -74.5q0 -77 -64 -120.5t-173 -43.5q-89 0 -157 44
t-75 114q-3 31 30 31h56q21 0 30 -24q22 -70 125 -70q50 0 79.5 17t29.5 48q0 23 -22.5 38t-57 21.5t-74 17.5t-74 24t-57 43t-22.5 74zM224 -60q8 27 35 27h51q34 0 21 -33l-60 -146q-11 -24 -35 -24h-27q-31 0 -23 32z" />
    <glyph glyph-name="uni021A" unicode="&#x21a;" horiz-adv-x="589" 
d="M110 618q-29 0 -26 29l5 54q3 29 33 29h499q29 0 26 -29l-6 -54q-3 -29 -32 -29h-165q-22 0 -25 -22l-59 -567q-3 -29 -32 -29h-74q-28 0 -25 29l58 567q3 22 -19 22h-158zM227 -61q7 27 35 27h51q34 0 21 -33l-60 -146q-10 -24 -35 -24h-27q-31 0 -23 32z" />
    <glyph glyph-name="uni021B" unicode="&#x21b;" horiz-adv-x="429" 
d="M99 417q-29 0 -26 29l5 45q3 29 33 29h37q10 0 12 11l8 81q3 25 27 33l62 15q16 4 24 -3.5t6 -22.5l-11 -103q-2 -11 10 -11h142q29 0 26 -29l-5 -45q-3 -29 -32 -29h-142q-10 0 -12 -10l-25 -239q-8 -72 55 -72q35 0 85 13q32 8 32 -23v-43q0 -26 -26 -35
q-67 -18 -125 -18q-67 0 -109 44t-33 131l25 242q2 10 -10 10h-33zM194 -60q8 27 35 27h51q34 0 21 -33l-60 -146q-11 -24 -35 -24h-27q-31 0 -23 32z" />
    <glyph glyph-name="uni0237" unicode="&#x237;" horiz-adv-x="278" 
d="M35 -214q-37 0 -61 4q-25 4 -20 33l10 46q4 27 26 25q14 -2 22 -2q58 0 65 67l56 532q3 29 33 29h63q28 0 25 -29l-57 -542q-8 -77 -48.5 -120t-113.5 -43z" />
    <glyph glyph-name="circumflex" unicode="&#x2c6;" horiz-adv-x="600" 
d="M220 639q-11 25 14 36l139 69q29 14 51 0l130 -69q21 -11 7 -36l-10 -19q-13 -21 -36 -13l-102 37q-24 7 -49 -1l-105 -35q-24 -8 -33 12z" />
    <glyph glyph-name="caron" unicode="&#x2c7;" horiz-adv-x="600" 
d="M186 699l5 14q9 26 37 17l102 -33q14 -6 30 0l108 33q30 9 33 -17l2 -14q3 -27 -17 -36l-119 -54q-33 -16 -65 0l-106 54q-20 10 -10 36z" />
    <glyph glyph-name="breve" unicode="&#x2d8;" horiz-adv-x="600" 
d="M270 736q20 0 29 -24q14 -42 69 -42q54 0 79 42q13 24 36 24l34 -1q15 0 22 -8t2 -22q-42 -119 -182 -119q-61 -1 -105.5 31t-51.5 87q-2 15 6.5 23t23.5 8z" />
    <glyph glyph-name="dotaccent" unicode="&#x2d9;" horiz-adv-x="300" 
d="M218 638q-28 0 -45.5 18.5t-17.5 47.5q0 31 23 54t55 23q28 0 47 -18.5t19 -45.5q0 -33 -24 -56t-57 -23z" />
    <glyph glyph-name="ring" unicode="&#x2da;" horiz-adv-x="600" 
d="M211 574q-49 0 -79.5 29t-30.5 71q0 48 36 82.5t97 34.5q50 0 81.5 -28.5t31.5 -69.5q0 -50 -36.5 -84.5t-99.5 -34.5zM218 641q21 0 35 13t15 31t-10.5 29.5t-30.5 11.5t-32.5 -13t-14.5 -32q-1 -17 9.5 -28.5t28.5 -11.5z" />
    <glyph glyph-name="ogonek" unicode="&#x2db;" horiz-adv-x="600" 
d="M353 -193q-2 -18 -18 -21q-24 -6 -48 -6q-45 0 -74 24.5t-29 67.5q0 102 145 152l35 -23q-86 -51 -86 -116q0 -16 10 -25.5t26 -9.5q8 0 22 2q10 1 15.5 -3t4.5 -14z" />
    <glyph glyph-name="tilde" unicode="&#x2dc;" horiz-adv-x="600" 
d="M504 703q29 -5 21 -33q-10 -36 -40 -56.5t-68 -20.5q-33 0 -72 19t-51 19q-22 0 -36 -16q-14 -18 -35 -14l-25 5q-13 2 -18.5 11.5t-1.5 22.5q11 38 38.5 59t63.5 20q34 0 78 -19.5t53 -19.5q24 0 36 15q12 17 33 13z" />
    <glyph glyph-name="hungarumlaut" unicode="&#x2dd;" horiz-adv-x="600" 
d="M291 714q12 22 36 22h57q17 0 21.5 -10t-6.5 -25l-67 -91q-15 -19 -37 -19h-31q-17 0 -22 9t2 24zM466 714q12 22 36 22h57q17 0 21.5 -10t-6.5 -25l-67 -91q-15 -19 -37 -19h-31q-17 0 -22 9t2 24z" />
    <glyph glyph-name="gravecomb" unicode="&#x300;" 
d="M-291 748q16 27 41 11l158 -104q23 -16 8 -40l-9 -12q-16 -24 -40 -14l-175 73q-27 11 -11 38z" />
    <glyph glyph-name="acutecomb" unicode="&#x301;" 
d="M-136 754q28 17 39 -11l18 -47q11 -27 -19 -38l-188 -71q-29 -11 -38 13l-5 12q-10 26 15 40z" />
    <glyph glyph-name="uni0302" unicode="&#x302;" 
d="M-372 639q-11 25 14 36l139 69q29 14 51 0l130 -69q21 -11 7 -36l-10 -19q-12 -21 -36 -13l-102 37q-24 7 -49 -1l-105 -35q-24 -8 -33 12z" />
    <glyph glyph-name="tildecomb" unicode="&#x303;" 
d="M-75 703q29 -5 21 -33q-10 -36 -40 -56.5t-68 -20.5q-33 0 -72 19t-51 19q-22 0 -36 -16q-14 -18 -35 -14l-25 5q-13 2 -18.5 11.5t-1.5 22.5q11 38 38.5 59t63.5 20q33 0 77.5 -19.5t53.5 -19.5q24 0 36 15q12 17 33 13z" />
    <glyph glyph-name="uni0304" unicode="&#x304;" 
d="M-368 686q3 29 31 29h246q14 0 21.5 -8t5.5 -21l-4 -34q-3 -29 -32 -29h-246q-29 0 -26 29z" />
    <glyph glyph-name="uni0306" unicode="&#x306;" 
d="M-336 736q20 0 29 -24q14 -42 69 -42q54 0 79 42q13 24 36 24l34 -1q15 0 22 -8t2 -22q-42 -119 -182 -119q-61 -1 -105.5 31t-51.5 87q-2 15 6.5 23t23.5 8z" />
    <glyph glyph-name="uni0307" unicode="&#x307;" 
d="M-84 601q-32 0 -53 22t-21 55q0 36 27 62t65 26q31 0 53 -21.5t22 -52.5q0 -37 -28 -64t-65 -27z" />
    <glyph glyph-name="uni0308" unicode="&#x308;" 
d="M-291 604q-28 0 -46 19t-18 48q0 31 23.5 54t55.5 23q28 0 47 -19t19 -45q0 -33 -24.5 -56.5t-56.5 -23.5zM-85 604q-27 0 -46 19.5t-19 48.5q0 31 24.5 53.5t55.5 22.5q28 0 47 -19t19 -45q0 -33 -24.5 -56.5t-56.5 -23.5z" />
    <glyph glyph-name="uni030A" unicode="&#x30a;" 
d="M-93 574q-49 0 -79.5 29t-30.5 71q0 48 36 82.5t97 34.5q50 0 81.5 -28.5t31.5 -69.5q0 -50 -36.5 -84.5t-99.5 -34.5zM-86 641q21 0 35 13t15 31t-10.5 29.5t-30.5 11.5t-32.5 -13t-14.5 -32q-1 -17 9.5 -28.5t28.5 -11.5z" />
    <glyph glyph-name="uni030B" unicode="&#x30b;" 
d="M-309 714q12 22 36 22h57q17 0 21.5 -10t-6.5 -25l-67 -91q-15 -19 -37 -19h-31q-17 0 -22 9t2 24zM-134 714q12 22 36 22h57q17 0 21.5 -10t-6.5 -25l-67 -91q-15 -19 -37 -19h-31q-17 0 -22 9t2 24z" />
    <glyph glyph-name="uni030C" unicode="&#x30c;" 
d="M-357 699l5 14q9 26 37 17l102 -33q14 -6 30 0l108 33q30 9 33 -17l2 -14q3 -27 -17 -36l-119 -54q-33 -16 -65 0l-106 54q-20 10 -10 36z" />
    <glyph glyph-name="uni0312" unicode="&#x312;" 
 />
    <glyph glyph-name="uni0326" unicode="&#x326;" 
d="M-165 -60q7 27 35 27h51q34 0 21 -33l-60 -146q-10 -24 -35 -24h-27q-31 0 -23 32z" />
    <glyph glyph-name="uni0327" unicode="&#x327;" 
d="M-357 -91q-14 0 -20 8.5t-1 22.5l25 63h75l-7 -21q-6 -18 10 -21q64 -12 64 -75q0 -50 -39 -78t-98 -28q-49 0 -80 17q-19 12 -9 35l5 12q9 21 36 12q20 -9 45 -9q45 0 45 32q0 30 -38 30h-13z" />
    <glyph glyph-name="uni0328" unicode="&#x328;" 
d="M-247 -193q-2 -18 -18 -21q-24 -6 -48 -6q-45 0 -74 24.5t-29 67.5q0 102 145 152l35 -23q-86 -51 -86 -116q0 -16 10 -25.5t26 -9.5q8 0 22 2q10 1 15.5 -3t4.5 -14z" />
    <glyph glyph-name="uni0335" unicode="&#x335;" 
d="M-359 418q2 30 32 30h292q28 0 26 -30l-4 -38q-2 -29 -32 -29h-292q-28 0 -26 29z" />
    <glyph glyph-name="uni0336" unicode="&#x336;" 
d="M-752 406q3 29 32 29h724q29 0 26 -29l-3 -22q-3 -29 -32 -29h-724q-29 0 -26 29z" />
    <glyph glyph-name="uni0337" unicode="&#x337;" 
d="M-39 542q28 11 37 -16l6 -22q8 -27 -19 -39l-273 -104q-29 -11 -37 17l-6 23q-7 29 21 39z" />
    <glyph glyph-name="uni0338" unicode="&#x338;" 
d="M-25 522q21 21 41 1l8 -9q20 -20 -3 -42l-496 -453q-23 -21 -42 0l-7 7q-19 22 4 43z" />
    <glyph glyph-name="Wgrave" unicode="&#x1e80;" horiz-adv-x="983" 
d="M468 909q12 30 38 19l175 -72q26 -11 15 -38l-6 -14q-12 -27 -37 -21l-185 39q-30 5 -18 35zM93 697q-6 33 28 33h70q28 0 31 -25l65 -474q2 -17 12 -17t17 16l185 476q10 24 36 24h65q26 0 30 -25l87 -481q2 -11 7.5 -15t12 0.5t10.5 15.5l168 479q8 26 33 26h62
q34 0 21 -33l-253 -672q-9 -25 -35 -25h-67q-26 0 -30 25l-85 488q-2 11 -7.5 15t-12 0t-10.5 -15l-187 -489q-8 -24 -35 -24h-68q-26 0 -30 25z" />
    <glyph glyph-name="wgrave" unicode="&#x1e81;" horiz-adv-x="806" 
d="M376 748q16 27 41 11l158 -104q23 -16 8 -40l-9 -12q-16 -24 -40 -14l-175 73q-27 11 -11 38zM74 487q-5 33 29 33h59q26 0 29 -25l45 -322q2 -14 10 -14t14 13l134 325q10 25 36 25h55q27 0 31 -25l66 -329q2 -13 10.5 -13t13.5 14l114 326q9 25 36 25h58q33 0 20 -33
l-182 -462q-10 -25 -37 -25h-75q-26 0 -31 25l-58 302q-1 9 -5.5 12t-9.5 0t-9 -12l-128 -302q-11 -25 -36 -25h-73q-27 0 -31 25z" />
    <glyph glyph-name="Wacute" unicode="&#x1e82;" horiz-adv-x="983" 
d="M690 910q30 11 35 -19l8 -50q4 -28 -27 -33l-199 -29q-29 -5 -34 21l-2 12q-5 27 23 36zM93 697q-6 33 28 33h70q28 0 31 -25l65 -474q2 -17 12 -17t17 16l185 476q10 24 36 24h65q26 0 30 -25l87 -481q2 -11 7.5 -15t12 0.5t10.5 15.5l168 479q8 26 33 26h62
q34 0 21 -33l-253 -672q-9 -25 -35 -25h-67q-26 0 -30 25l-85 488q-2 11 -7.5 15t-12 0t-10.5 -15l-187 -489q-8 -24 -35 -24h-68q-26 0 -30 25z" />
    <glyph glyph-name="wacute" unicode="&#x1e83;" horiz-adv-x="806" 
d="M548 754q28 17 39 -11l18 -47q11 -27 -19 -38l-188 -71q-29 -11 -38 13l-5 12q-10 26 15 40zM74 487q-5 33 29 33h59q26 0 29 -25l45 -322q2 -14 10 -14t14 13l134 325q10 25 36 25h55q27 0 31 -25l66 -329q2 -13 10.5 -13t13.5 14l114 326q9 25 36 25h58q33 0 20 -33
l-182 -462q-10 -25 -37 -25h-75q-26 0 -31 25l-58 302q-1 9 -5.5 12t-9.5 0t-9 -12l-128 -302q-11 -25 -36 -25h-73q-27 0 -31 25z" />
    <glyph glyph-name="Wdieresis" unicode="&#x1e84;" horiz-adv-x="983" 
d="M467 775q-30 0 -49 20.5t-19 51.5q0 33 25 57.5t59 24.5q30 0 50.5 -20t20.5 -49q0 -35 -26.5 -60t-60.5 -25zM688 775q-29 0 -49.5 21t-20.5 52q0 33 26 57t60 24q29 0 49.5 -20t20.5 -49q0 -35 -26 -60t-60 -25zM93 697q-6 33 28 33h70q28 0 31 -25l65 -474
q2 -17 12 -17t17 16l185 476q10 24 36 24h65q26 0 30 -25l87 -481q2 -11 7.5 -15t12 0.5t10.5 15.5l168 479q8 26 33 26h62q34 0 21 -33l-253 -672q-9 -25 -35 -25h-67q-26 0 -30 25l-85 488q-2 11 -7.5 15t-12 0t-10.5 -15l-187 -489q-8 -24 -35 -24h-68q-26 0 -30 25z" />
    <glyph glyph-name="wdieresis" unicode="&#x1e85;" horiz-adv-x="806" 
d="M363 604q-28 0 -46 19t-18 48q0 31 23.5 54t55.5 23q28 0 47 -19t19 -45q0 -33 -24.5 -56.5t-56.5 -23.5zM569 604q-27 0 -46 19.5t-19 48.5q0 31 24.5 53.5t55.5 22.5q28 0 47 -19t19 -45q0 -33 -24.5 -56.5t-56.5 -23.5zM74 487q-5 33 29 33h59q26 0 29 -25l45 -322
q2 -14 10 -14t14 13l134 325q10 25 36 25h55q27 0 31 -25l66 -329q2 -13 10.5 -13t13.5 14l114 326q9 25 36 25h58q33 0 20 -33l-182 -462q-10 -25 -37 -25h-75q-26 0 -31 25l-58 302q-1 9 -5.5 12t-9.5 0t-9 -12l-128 -302q-11 -25 -36 -25h-73q-27 0 -31 25z" />
    <glyph glyph-name="uni1E9E" unicode="&#x1e9e;" horiz-adv-x="782" 
d="M113 0q-29 0 -26 29l41 394q14 144 104.5 230.5t233.5 86.5q83 0 151.5 -38.5t97.5 -92.5q15 -26 -8 -56l-124 -157q84 -3 137 -60t53 -129q0 -109 -68 -163t-184 -54q-85 0 -149.5 47.5t-79.5 114.5q-8 33 28 33h65q20 0 31 -23q12 -30 42 -47t71 -17q55 0 88 31.5
t33 77.5q0 45 -34 73t-84 28h-51q-17 0 -26.5 9.5t-7.5 25.5l1 9q1 21 16 42l110 149q17 24 0 41q-44 41 -121 41q-74 0 -130 -53.5t-66 -141.5l-41 -401q-5 -29 -33 -29h-70z" />
    <glyph glyph-name="Ygrave" unicode="&#x1ef2;" horiz-adv-x="647" 
d="M298 909q12 30 38 19l175 -72q26 -11 15 -38l-6 -14q-12 -27 -37 -21l-185 39q-30 5 -18 35zM90 695q-7 16 -0.5 25.5t24.5 9.5h78q23 0 32 -21l129 -301q5 -12 13.5 -12t15.5 12l191 301q13 21 37 21h69q17 0 22 -9.5t-5 -25.5l-272 -410q-9 -15 -10 -27l-23 -227
q-3 -31 -35 -31h-61q-31 0 -28 31l23 226q2 16 -4 28z" />
    <glyph glyph-name="ygrave" unicode="&#x1ef3;" horiz-adv-x="566" 
d="M257 748q16 27 41 11l158 -104q23 -16 8 -40l-9 -12q-16 -24 -40 -14l-175 73q-27 11 -11 38zM72 486q-4 16 3 25t24 9h75q25 0 31 -24l83 -356q2 -9 6.5 -12t10 0t8.5 12l154 356q11 24 36 24h74q35 0 19 -34l-265 -537q-47 -96 -91.5 -130.5t-135.5 -34.5q-38 0 -71 9
q-25 6 -19 34l9 38q8 30 36 24q23 -6 62 -6q38 0 65 23t50 70l13 24h-16q-20 0 -26 19z" />
    <glyph glyph-name="uni1EF8" unicode="&#x1ef8;" horiz-adv-x="647" 
d="M575 908q29 -5 21 -33q-10 -36 -40 -56.5t-68 -20.5q-33 0 -72 19t-51 19q-22 0 -36 -16q-14 -18 -35 -14l-25 5q-13 2 -18.5 11.5t-1.5 22.5q11 38 38.5 59t63.5 20q33 0 77 -19.5t54 -19.5q24 0 36 15q12 17 33 13zM90 695q-7 16 -0.5 25.5t24.5 9.5h78q23 0 32 -21
l129 -301q5 -12 13.5 -12t15.5 12l191 301q13 21 37 21h69q17 0 22 -9.5t-5 -25.5l-272 -410q-9 -15 -10 -27l-23 -227q-3 -31 -35 -31h-61q-31 0 -28 31l23 226q2 16 -4 28z" />
    <glyph glyph-name="uni1EF9" unicode="&#x1ef9;" horiz-adv-x="566" 
d="M502 703q29 -5 21 -33q-10 -36 -40 -56.5t-68 -20.5q-33 0 -72 19t-51 19q-22 0 -36 -16q-14 -18 -35 -14l-25 5q-13 2 -18.5 11.5t-1.5 22.5q11 38 38.5 59t63.5 20q34 0 78 -19.5t53 -19.5q24 0 36 15q12 17 33 13zM72 486q-4 16 3 25t24 9h75q25 0 31 -24l83 -356
q2 -9 6.5 -12t10 0t8.5 12l154 356q11 24 36 24h74q35 0 19 -34l-265 -537q-47 -96 -91.5 -130.5t-135.5 -34.5q-38 0 -71 9q-25 6 -19 34l9 38q8 30 36 24q23 -6 62 -6q38 0 65 23t50 70l13 24h-16q-20 0 -26 19z" />
    <glyph glyph-name="endash" unicode="&#x2013;" horiz-adv-x="595" 
d="M529 322q35 0 32 -35l-3 -28q-5 -35 -39 -35h-397q-17 0 -25 9.5t-6 25.5l3 28q3 35 38 35h397z" />
    <glyph glyph-name="emdash" unicode="&#x2014;" horiz-adv-x="714" 
d="M648 322q35 0 32 -35l-3 -28q-5 -35 -39 -35h-516q-17 0 -25 9.5t-6 25.5l3 28q3 35 38 35h516z" />
    <glyph glyph-name="quoteleft" unicode="&#x2018;" horiz-adv-x="234" 
d="M219 520q-7 -27 -35 -27h-56q-32 0 -23 32l60 176q7 25 33 25h36q32 0 24 -30z" />
    <glyph glyph-name="quoteright" unicode="&#x2019;" horiz-adv-x="227" 
d="M149 712q8 28 36 28h55q33 0 22 -32l-60 -177q-9 -25 -35 -25h-33q-33 0 -25 31z" />
    <glyph glyph-name="quotesinglbase" unicode="&#x201a;" horiz-adv-x="236" 
d="M76 107q8 27 35 27h56q32 0 23 -32l-60 -176q-7 -25 -33 -25h-36q-32 0 -24 30z" />
    <glyph glyph-name="quotedblleft" unicode="&#x201c;" horiz-adv-x="415" 
d="M219 520q-7 -27 -35 -27h-56q-32 0 -23 32l60 176q7 25 33 25h36q32 0 24 -30zM399 520q-7 -27 -35 -27h-56q-32 0 -23 32l60 176q7 25 33 25h36q32 0 24 -30z" />
    <glyph glyph-name="quotedblright" unicode="&#x201d;" horiz-adv-x="408" 
d="M149 712q8 28 36 28h55q33 0 22 -32l-60 -177q-9 -25 -35 -25h-33q-33 0 -25 31zM329 712q8 28 36 28h55q33 0 23 -32l-61 -177q-7 -25 -35 -25h-33q-32 0 -25 31z" />
    <glyph glyph-name="quotedblbase" unicode="&#x201e;" horiz-adv-x="416" 
d="M76 107q8 27 35 27h56q32 0 23 -32l-60 -176q-7 -25 -33 -25h-36q-32 0 -24 30zM256 107q8 27 35 27h56q32 0 23 -32l-60 -176q-7 -25 -33 -25h-36q-32 0 -24 30z" />
    <glyph glyph-name="dagger" unicode="&#x2020;" horiz-adv-x="547" 
d="M85 463l4 32q3 29 31 29h124q31 0 34 31l19 197q3 28 31 28h55q28 0 25 -28l-23 -197q-3 -31 28 -31h124q29 0 26 -29l-4 -32q-3 -28 -31 -28h-125q-32 0 -35 -32l-51 -435q-3 -28 -30 -28h-38q-29 0 -26 28l41 435q3 32 -28 32h-125q-29 0 -26 28z" />
    <glyph glyph-name="daggerdbl" unicode="&#x2021;" horiz-adv-x="547" 
d="M68 303l3 27q3 29 32 29h125q32 0 35 31l6 54q3 32 -29 32h-125q-28 0 -25 28l3 28q3 28 31 28h123q32 0 35 32l15 160q3 28 31 28h55q28 0 25 -28l-19 -160q-3 -32 29 -32h123q29 0 26 -28l-3 -28q-3 -28 -32 -28h-125q-32 0 -35 -32l-5 -54q-5 -31 28 -31h125
q28 0 25 -29l-3 -27q-3 -29 -31 -29h-126q-32 0 -35 -31l-33 -275q-3 -28 -30 -28h-38q-29 0 -26 28l26 275q3 31 -29 31h-126q-29 0 -26 29z" />
    <glyph glyph-name="bullet" unicode="&#x2022;" horiz-adv-x="426" 
d="M229 153q-54 0 -90.5 38.5t-36.5 94.5q0 60 47.5 105.5t109.5 45.5q53 0 90 -37.5t37 -89.5q0 -64 -47.5 -110.5t-109.5 -46.5z" />
    <glyph glyph-name="ellipsis" unicode="&#x2026;" horiz-adv-x="765" 
d="M128 -10q-30 0 -50.5 21.5t-20.5 52.5q0 34 26 58.5t61 24.5q31 0 51.5 -20.5t20.5 -49.5q0 -35 -26.5 -61t-61.5 -26zM382 -10q-30 0 -50.5 21.5t-20.5 52.5q0 34 26 58.5t61 24.5q31 0 51.5 -20.5t20.5 -49.5q0 -35 -26.5 -61t-61.5 -26zM643 -10q-30 0 -50.5 21.5
t-20.5 52.5q0 34 26 58.5t61 24.5q31 0 51.5 -20.5t20.5 -49.5q0 -35 -26.5 -61t-61.5 -26z" />
    <glyph glyph-name="perthousand" unicode="&#x2030;" horiz-adv-x="1291" 
d="M88 527q0 99 53.5 156t142.5 57q67 0 110.5 -47.5t43.5 -120.5q0 -97 -53 -155.5t-141 -58.5q-66 0 -111 49.5t-45 119.5zM261 74l388 636q17 26 40 14l31 -13q27 -12 11 -39l-388 -639q-16 -27 -40 -13l-32 15q-25 14 -10 39zM180 532q0 -44 19 -68t53 -24q43 0 69 34
t26 91q0 43 -19 67.5t-54 24.5q-42 0 -68 -34t-26 -91zM537 159q0 98 53.5 155.5t141.5 57.5q68 0 111.5 -48t43.5 -121q0 -96 -53.5 -154.5t-141.5 -58.5q-66 0 -110.5 49.5t-44.5 119.5zM930 159q0 97 53.5 155t140.5 58q68 0 111.5 -48t43.5 -121q0 -97 -53.5 -155
t-141.5 -58q-66 0 -110 48.5t-44 120.5zM630 164q0 -43 18.5 -67t52.5 -24q43 0 68 34t25 92q0 43 -18 67t-52 24q-43 0 -68.5 -34t-25.5 -92zM1021 164q0 -43 19 -67t53 -24q43 0 68.5 33.5t25.5 91.5q0 43 -18.5 67t-52.5 24q-43 0 -69 -34t-26 -91z" />
    <glyph glyph-name="guilsinglleft" unicode="&#x2039;" horiz-adv-x="314" 
d="M184 296q-26 -17 -3 -35l71 -56q19 -15 16 -42l-4 -46q-1 -22 -15 -28.5t-30 7.5l-134 114q-19 17 -16 42l6 55q3 28 25 43l157 106q20 14 31.5 7.5t9.5 -28.5l-4 -47q-3 -25 -27 -42z" />
    <glyph glyph-name="guilsinglright" unicode="&#x203a;" horiz-adv-x="314" 
d="M116 95q-18 -12 -30.5 -5.5t-10.5 26.5l5 50q3 27 25 42l82 55q27 19 4 35l-69 48q-19 12 -17 42l3 47q1 22 15 28t30 -7l135 -111q19 -15 16 -43l-5 -48q-3 -26 -25 -43z" />
    <glyph glyph-name="fraction" unicode="&#x2044;" horiz-adv-x="361" 
d="M27 -10q-17 0 -23 9.5t1 24.5l332 688q11 21 34 21h41q17 0 22.5 -9.5t-1.5 -24.5l-332 -688q-11 -21 -34 -21h-40z" />
    <glyph glyph-name="Euro" unicode="&#x20ac;" horiz-adv-x="792" 
d="M64 259l3 11q6 26 35 26h28q13 0 14 11l3 27q3 14 -11 14h-13q-30 0 -23 31l3 9q6 27 34 27h18q11 0 16 12q89 227 346 227q89 0 168 -57.5t97 -140.5q3 -15 -5 -23.5t-23 -8.5h-67q-24 0 -31 23q-16 42 -56 69t-94 27q-65 0 -116 -29.5t-81 -82.5q-4 -7 -1.5 -11.5
t10.5 -4.5h211q32 0 23 -31l-2 -9q-8 -27 -35 -27h-224q-13 0 -16 -12q-3 -18 -3 -27q0 -13 14 -13h205q15 0 21 -8.5t2 -23.5l-3 -10q-6 -27 -34 -27h-178q-19 0 -13 -16q19 -52 62.5 -81t105.5 -29q56 0 103.5 24.5t74.5 66.5q15 22 36 22h63q16 0 22.5 -9t-0.5 -24
q-36 -84 -117.5 -137.5t-192.5 -53.5q-105 0 -187 62.5t-106 163.5q-3 11 -14 11h-50q-30 0 -22 32z" />
    <glyph glyph-name="trademark" unicode="&#x2122;" horiz-adv-x="784" 
d="M106 683l1 20q3 28 32 28h243q28 0 25 -28l-1 -20q-3 -29 -32 -29h-49q-28 0 -31 -25l-20 -197q-3 -28 -32 -28h-34q-28 0 -25 28l22 197q3 25 -25 25h-49q-27 0 -25 29zM407 432l29 271q3 28 31 28h19q22 0 32 -18l61 -108q6 -11 16 -11.5t20 11.5l88 108q14 18 36 18
h18q28 0 25 -28l-28 -271q-3 -28 -32 -28h-24q-28 0 -25 28l16 143l-66 -75q-13 -16 -33 -16h-7q-19 0 -29 16l-50 78l-17 -146q-3 -28 -31 -28h-24q-28 0 -25 28z" />
    <glyph glyph-name="minus" unicode="&#x2212;" horiz-adv-x="527" 
d="M465 320q29 0 26 -29l-4 -41q-3 -29 -32 -29h-336q-29 0 -26 29l4 41q3 29 32 29h336z" />
    <glyph glyph-name="approxequal" unicode="&#x2248;" horiz-adv-x="549" 
d="M495 424q26 -7 18 -34q-14 -41 -46.5 -65t-80.5 -24q-38 1 -83 19t-66 18q-29 0 -47 -21q-21 -21 -41 -16l-35 10q-28 7 -22 32q9 45 40.5 71t77.5 26q38 -1 89.5 -21t71.5 -20q31 0 48 20q22 22 44 15zM482 204q26 -7 18 -34q-14 -41 -46.5 -65t-80.5 -24q-38 1 -83 19
t-66 18q-29 0 -47 -21q-21 -21 -41 -16l-35 10q-28 7 -22 32q9 45 40.5 71t77.5 26q38 -1 89.5 -21t71.5 -20q31 0 48 20q22 22 44 15z" />
    <glyph glyph-name="notequal" unicode="&#x2260;" horiz-adv-x="517" 
d="M83 149l4 39q3 29 33 29h94q17 0 23 17l20 51q9 21 -14 21h-114q-29 0 -26 29l4 39q3 29 32 29h147q16 0 22 17l21 51q9 25 35 25h27q33 0 20 -33l-14 -38q-9 -22 14 -22h52q29 0 26 -29l-4 -39q-3 -29 -32 -29h-84q-17 0 -24 -16l-20 -51q-8 -22 15 -22h103q30 0 27 -29
l-5 -39q-3 -29 -32 -29h-136q-16 0 -23 -17l-23 -60q-10 -25 -36 -25h-27q-34 0 -21 32l18 48q8 22 -14 22h-61q-30 0 -27 29z" />
    <glyph glyph-name="uniF8FF" unicode="&#xf8ff;" horiz-adv-x="1170" 
d="M300 573q0 22 -22 22h-58v102q0 11 -7 18t-18 7q-25 0 -25 -25v-146h108q22 0 22 22zM316 636q0 -38 26.5 -63t66.5 -25t66 25t26 63t-26 62t-66 24t-66.5 -24.5t-26.5 -61.5zM617 600q0 -9 -20 -9q-13 0 -26 6t-20 6q-22 0 -22 -20q0 -35 66 -35q32 0 51.5 14.5
t19.5 39.5q0 22 -13 35t-28 16t-28 7t-13 10q0 10 16 10q10 0 24 -5.5t21 -5.5q20 0 20 19q0 17 -17.5 25.5t-42.5 8.5q-34 0 -52 -14.5t-18 -39.5q0 -21 13 -33t28 -15t28 -7.5t13 -12.5zM449 636q0 -19 -11 -30.5t-29 -11.5t-30 12t-12 30t11.5 29.5t30.5 11.5
q18 0 29 -11.5t11 -29.5zM505 285h32v146q0 11 -7.5 18t-18.5 7t-18 -7t-7 -18v-63l-81 85h-32v-146q0 -11 7 -18.5t18 -7.5t18.5 7.5t7.5 18.5v63zM1038 334q0 -10 -20 -10q-13 0 -26 6.5t-19 6.5q-22 0 -22 -21q0 -16 18 -25.5t47 -9.5q33 0 52.5 14.5t19.5 39.5
q0 22 -13 35t-28 16t-28 7t-13 11q0 9 16 9q9 0 23.5 -5.5t21.5 -5.5q20 0 20 19q0 17 -17.5 26t-42.5 9q-71 0 -71 -54q0 -21 13 -33.5t28 -15.5t28 -7.5t13 -11.5zM312 281q14 0 20 11t0 25l-65 136h-40l-66 -136q-7 -14 0 -25t21 -11q19 0 25 15l5 13h70l5 -13
q6 -15 25 -15zM751 369q0 38 -25 61t-66 23h-75v-168h75q41 0 66 23t25 61zM912 369q0 9 -6 15t-16 6h-48v20h58q21 0 21 22q0 21 -21 21h-109v-168h109q21 0 21 20q0 21 -21 21h-58v23h48q22 0 22 20zM700 368q0 -18 -11 -29t-30 -11h-23v80h23q19 0 30 -11t11 -29z
M268 343h-42l21 51zM209 22q0 -11 7 -18t18 -7t18.5 7t7.5 18v104h35q10 0 17 6.5t7 15.5q0 10 -6.5 16t-17.5 6h-122q-22 0 -22 -22q0 -9 6 -15.5t16 -6.5h36v-104zM506 169h-57l-30 -59l-31 59h-58l62 -100v-47q0 -11 7.5 -18t18.5 -7t18 7t7 18v47zM606 42q32 0 50.5 18
t18.5 46q0 27 -18.5 45t-50.5 18h-74v-147q0 -11 8 -18t19 -7t17.5 7t6.5 18v20h23zM831 85q0 9 -6 15t-16 6h-48v20h58q22 0 22 22q0 21 -22 21h-109v-169h109q22 0 22 21q0 22 -22 22h-58v22h48q22 0 22 20zM602 84h-19v44h19q25 0 25 -22t-25 -22z" />
    <glyph glyph-name="uni00A40301" horiz-adv-x="695" 
d="M608 910q30 11 35 -19l8 -50q4 -28 -27 -33l-199 -29q-29 -5 -34 21l-2 12q-5 27 23 36zM46 228q-1 14 7.5 22.5t23.5 8.5h63q24 0 29 -27q9 -59 52 -93.5t113 -34.5q75 0 125 49.5t58 127.5l34 317q3 24 -21 24h-221q-29 0 -26 29l5 50q3 29 33 29h333q37 0 32 -37
l-43 -412q-13 -130 -95.5 -210.5t-225.5 -80.5q-115 0 -191.5 68t-84.5 170z" />
    <glyph glyph-name="A.ss01" horiz-adv-x="716" 
d="M43 0q-16 0 -21 9.5t4 25.5l337 576q8 15 4 29l-23 66q-5 16 2 25t24 9h62q25 0 32 -22l240 -684q5 -16 -2 -25t-23 -9h-73q-24 0 -31 22l-35 103q-4 14 -18 14h-293q-15 0 -23 -13l-59 -104q-12 -22 -36 -22h-68zM288 271q-10 -21 11 -21h178q23 0 17 21l-67 202
q-4 10 -11 10t-13 -10z" />
    <glyph glyph-name="Aacute.ss01" horiz-adv-x="716" 
d="M541 914q30 11 35 -19l8 -50q4 -28 -27 -33l-199 -29q-29 -5 -34 21l-2 12q-5 27 23 36zM43 0q-16 0 -21 9.5t4 25.5l337 576q8 15 4 29l-23 66q-5 16 2 25t24 9h62q25 0 32 -22l240 -684q5 -16 -2 -25t-23 -9h-73q-24 0 -31 22l-35 103q-4 14 -18 14h-293q-15 0 -23 -13
l-59 -104q-12 -22 -36 -22h-68zM288 271q-10 -21 11 -21h178q23 0 17 21l-67 202q-4 10 -11 10t-13 -10z" />
    <glyph glyph-name="Abreve.ss01" horiz-adv-x="716" 
d="M346 932q20 0 29 -24q14 -42 69 -42q54 0 79 42q13 24 36 24l34 -1q15 0 22 -8t2 -22q-42 -119 -182 -119q-61 -1 -105.5 31t-51.5 87q-2 15 6.5 23t23.5 8zM43 0q-16 0 -21 9.5t4 25.5l337 576q8 15 4 29l-23 66q-5 16 2 25t24 9h62q25 0 32 -22l240 -684q5 -16 -2 -25
t-23 -9h-73q-24 0 -31 22l-35 103q-4 14 -18 14h-293q-15 0 -23 -13l-59 -104q-12 -22 -36 -22h-68zM288 271q-10 -21 11 -21h178q23 0 17 21l-67 202q-4 10 -11 10t-13 -10z" />
    <glyph glyph-name="Acircumflex.ss01" horiz-adv-x="716" 
d="M261 824q-10 24 15 37l143 71q30 14 52 0l134 -71q23 -13 7 -37l-10 -20q-13 -22 -37 -13l-105 38q-26 7 -50 -1l-108 -36q-25 -9 -34 12zM43 0q-16 0 -21 9.5t4 25.5l337 576q8 15 4 29l-23 66q-5 16 2 25t24 9h62q25 0 32 -22l240 -684q5 -16 -2 -25t-23 -9h-73
q-24 0 -31 22l-35 103q-4 14 -18 14h-293q-15 0 -23 -13l-59 -104q-12 -22 -36 -22h-68zM288 271q-10 -21 11 -21h178q23 0 17 21l-67 202q-4 10 -11 10t-13 -10z" />
    <glyph glyph-name="Adieresis.ss01" horiz-adv-x="716" 
d="M317 779q-30 0 -49 20.5t-19 51.5q0 33 25 57.5t59 24.5q30 0 50.5 -20t20.5 -49q0 -35 -26.5 -60t-60.5 -25zM538 779q-29 0 -49.5 21t-20.5 52q0 33 26 57t60 24q29 0 49.5 -20t20.5 -49q0 -35 -26 -60t-60 -25zM43 0q-16 0 -21 9.5t4 25.5l337 576q8 15 4 29l-23 66
q-5 16 2 25t24 9h62q25 0 32 -22l240 -684q5 -16 -2 -25t-23 -9h-73q-24 0 -31 22l-35 103q-4 14 -18 14h-293q-15 0 -23 -13l-59 -104q-12 -22 -36 -22h-68zM288 271q-10 -21 11 -21h178q23 0 17 21l-67 202q-4 10 -11 10t-13 -10z" />
    <glyph glyph-name="Agrave.ss01" horiz-adv-x="716" 
d="M318 913q12 30 38 19l175 -72q26 -11 15 -38l-6 -14q-12 -27 -37 -21l-185 39q-30 5 -18 35zM43 0q-16 0 -21 9.5t4 25.5l337 576q8 15 4 29l-23 66q-5 16 2 25t24 9h62q25 0 32 -22l240 -684q5 -16 -2 -25t-23 -9h-73q-24 0 -31 22l-35 103q-4 14 -18 14h-293
q-15 0 -23 -13l-59 -104q-12 -22 -36 -22h-68zM288 271q-10 -21 11 -21h178q23 0 17 21l-67 202q-4 10 -11 10t-13 -10z" />
    <glyph glyph-name="Amacron.ss01" horiz-adv-x="716" 
d="M289 870q3 29 31 29h246q14 0 21.5 -8t5.5 -21l-4 -34q-3 -29 -32 -29h-246q-29 0 -26 29zM43 0q-16 0 -21 9.5t4 25.5l337 576q8 15 4 29l-23 66q-5 16 2 25t24 9h62q25 0 32 -22l240 -684q5 -16 -2 -25t-23 -9h-73q-24 0 -31 22l-35 103q-4 14 -18 14h-293
q-15 0 -23 -13l-59 -104q-12 -22 -36 -22h-68zM288 271q-10 -21 11 -21h178q23 0 17 21l-67 202q-4 10 -11 10t-13 -10z" />
    <glyph glyph-name="Aogonek.ss01" horiz-adv-x="716" 
d="M692 2q-83 -50 -83 -114q0 -16 10 -25.5t26 -9.5q8 0 22 2q10 1 15.5 -3t4.5 -14l-3 -28q-2 -18 -18 -21q-24 -6 -48 -6q-45 0 -74 24.5t-29 67.5q0 77 85 125q-19 3 -25 22l-35 103q-4 14 -18 14h-293q-15 0 -23 -13l-59 -104q-12 -22 -36 -22h-68q-16 0 -21 9.5t4 25.5
l337 576q8 15 4 29l-23 66q-5 16 2 25t24 9h62q25 0 32 -22l240 -684q8 -25 -12 -32zM477 250q23 0 17 21l-67 202q-4 10 -11 10t-13 -10l-115 -202q-10 -21 11 -21h178z" />
    <glyph glyph-name="Aring.ss01" horiz-adv-x="716" 
d="M428 765q-49 0 -79.5 29t-30.5 71q0 48 36 82.5t97 34.5q50 0 81.5 -28.5t31.5 -69.5q0 -50 -36.5 -84.5t-99.5 -34.5zM435 832q21 0 35 13t15 31t-10.5 29.5t-30.5 11.5t-32.5 -13t-14.5 -32q-1 -17 9.5 -28.5t28.5 -11.5zM43 0q-16 0 -21 9.5t4 25.5l337 576q8 15 4 29
l-23 66q-5 16 2 25t24 9h62q25 0 32 -22l240 -684q5 -16 -2 -25t-23 -9h-73q-24 0 -31 22l-35 103q-4 14 -18 14h-293q-15 0 -23 -13l-59 -104q-12 -22 -36 -22h-68zM288 271q-10 -21 11 -21h178q23 0 17 21l-67 202q-4 10 -11 10t-13 -10z" />
    <glyph glyph-name="Atilde.ss01" horiz-adv-x="716" 
d="M596 912q29 -5 21 -33q-10 -36 -40 -56.5t-68 -20.5q-33 0 -72 19t-51 19q-22 0 -36 -16q-14 -18 -35 -14l-25 5q-13 2 -18.5 11.5t-1.5 22.5q11 38 38.5 59t63.5 20q34 0 78 -19.5t53 -19.5q24 0 36 15q12 17 33 13zM43 0q-16 0 -21 9.5t4 25.5l337 576q8 15 4 29
l-23 66q-5 16 2 25t24 9h62q25 0 32 -22l240 -684q5 -16 -2 -25t-23 -9h-73q-24 0 -31 22l-35 103q-4 14 -18 14h-293q-15 0 -23 -13l-59 -104q-12 -22 -36 -22h-68zM288 271q-10 -21 11 -21h178q23 0 17 21l-67 202q-4 10 -11 10t-13 -10z" />
    <glyph glyph-name="E.ss01" horiz-adv-x="575" 
d="M120 0q-30 0 -27 31l70 668q3 31 34 31h350q28 0 25 -29l-5 -48q-3 -29 -32 -29h-232q-23 0 -26 -22l-17 -163q-3 -23 21 -23h255q29 0 26 -29l-5 -47q-3 -29 -32 -29h-255q-23 0 -26 -23l-16 -160q-3 -22 20 -22h248q29 0 26 -29l-4 -48q-3 -29 -33 -29h-365z" />
    <glyph glyph-name="Eacute.ss01" horiz-adv-x="575" 
d="M493 910q30 11 35 -19l8 -50q4 -28 -27 -33l-199 -29q-29 -5 -34 21l-2 12q-5 27 23 36zM120 0q-30 0 -27 31l70 668q3 31 34 31h350q28 0 25 -29l-5 -48q-3 -29 -32 -29h-232q-23 0 -26 -22l-17 -163q-3 -23 21 -23h255q29 0 26 -29l-5 -47q-3 -29 -32 -29h-255
q-23 0 -26 -23l-16 -160q-3 -22 20 -22h248q29 0 26 -29l-4 -48q-3 -29 -33 -29h-365z" />
    <glyph glyph-name="Ecaron.ss01" horiz-adv-x="575" 
d="M231 887l5 14q9 27 39 18l106 -34q15 -7 31 0l113 34q31 9 34 -18l2 -14q3 -29 -17 -38l-124 -56q-35 -17 -68 0l-111 56q-20 10 -10 38zM120 0q-30 0 -27 31l70 668q3 31 34 31h350q28 0 25 -29l-5 -48q-3 -29 -32 -29h-232q-23 0 -26 -22l-17 -163q-3 -23 21 -23h255
q29 0 26 -29l-5 -47q-3 -29 -32 -29h-255q-23 0 -26 -23l-16 -160q-3 -22 20 -22h248q29 0 26 -29l-4 -48q-3 -29 -33 -29h-365z" />
    <glyph glyph-name="Ecircumflex.ss01" horiz-adv-x="575" 
d="M214 820q-10 24 15 37l143 71q30 14 52 0l134 -71q23 -13 7 -37l-10 -20q-13 -22 -37 -13l-105 38q-26 7 -50 -1l-108 -36q-25 -9 -34 12zM120 0q-30 0 -27 31l70 668q3 31 34 31h350q28 0 25 -29l-5 -48q-3 -29 -32 -29h-232q-23 0 -26 -22l-17 -163q-3 -23 21 -23h255
q29 0 26 -29l-5 -47q-3 -29 -32 -29h-255q-23 0 -26 -23l-16 -160q-3 -22 20 -22h248q29 0 26 -29l-4 -48q-3 -29 -33 -29h-365z" />
    <glyph glyph-name="Edieresis.ss01" horiz-adv-x="575" 
d="M270 775q-30 0 -49 20.5t-19 51.5q0 33 25 57.5t59 24.5q30 0 50.5 -20t20.5 -49q0 -35 -26.5 -60t-60.5 -25zM491 775q-29 0 -49.5 21t-20.5 52q0 33 26 57t60 24q29 0 49.5 -20t20.5 -49q0 -35 -26 -60t-60 -25zM120 0q-30 0 -27 31l70 668q3 31 34 31h350q28 0 25 -29
l-5 -48q-3 -29 -32 -29h-232q-23 0 -26 -22l-17 -163q-3 -23 21 -23h255q29 0 26 -29l-5 -47q-3 -29 -32 -29h-255q-23 0 -26 -23l-16 -160q-3 -22 20 -22h248q29 0 26 -29l-4 -48q-3 -29 -33 -29h-365z" />
    <glyph glyph-name="Edotaccent.ss01" horiz-adv-x="575" 
d="M384 778q-32 0 -53 22t-21 55q0 36 27 62t65 26q31 0 53 -21.5t22 -52.5q0 -37 -28 -64t-65 -27zM120 0q-30 0 -27 31l70 668q3 31 34 31h350q28 0 25 -29l-5 -48q-3 -29 -32 -29h-232q-23 0 -26 -22l-17 -163q-3 -23 21 -23h255q29 0 26 -29l-5 -47q-3 -29 -32 -29h-255
q-23 0 -26 -23l-16 -160q-3 -22 20 -22h248q29 0 26 -29l-4 -48q-3 -29 -33 -29h-365z" />
    <glyph glyph-name="Egrave.ss01" horiz-adv-x="575" 
d="M271 909q12 30 38 19l175 -72q26 -11 15 -38l-6 -14q-12 -27 -37 -21l-185 39q-30 5 -18 35zM120 0q-30 0 -27 31l70 668q3 31 34 31h350q28 0 25 -29l-5 -48q-3 -29 -32 -29h-232q-23 0 -26 -22l-17 -163q-3 -23 21 -23h255q29 0 26 -29l-5 -47q-3 -29 -32 -29h-255
q-23 0 -26 -23l-16 -160q-3 -22 20 -22h248q29 0 26 -29l-4 -48q-3 -29 -33 -29h-365z" />
    <glyph glyph-name="Emacron.ss01" horiz-adv-x="575" 
d="M242 866q3 29 31 29h246q14 0 21.5 -8t5.5 -21l-4 -34q-3 -29 -32 -29h-246q-29 0 -26 29zM120 0q-30 0 -27 31l70 668q3 31 34 31h350q28 0 25 -29l-5 -48q-3 -29 -32 -29h-232q-23 0 -26 -22l-17 -163q-3 -23 21 -23h255q29 0 26 -29l-5 -47q-3 -29 -32 -29h-255
q-23 0 -26 -23l-16 -160q-3 -22 20 -22h248q29 0 26 -29l-4 -48q-3 -29 -33 -29h-365z" />
    <glyph glyph-name="Eogonek.ss01" horiz-adv-x="575" 
d="M547 730q28 0 25 -29l-5 -48q-3 -29 -32 -29h-232q-23 0 -26 -22l-17 -163q-3 -23 21 -23h255q29 0 26 -29l-5 -47q-3 -29 -32 -29h-255q-23 0 -26 -23l-16 -160q-3 -22 20 -22h248q29 0 26 -29l-4 -48q-1 -19 -18 -26q-84 -52 -84 -115q0 -16 10 -25.5t26 -9.5q8 0 22 2
q10 1 15.5 -3t4.5 -14l-3 -28q-2 -18 -18 -21q-24 -6 -48 -6q-45 0 -74 24.5t-29 67.5q0 76 84 125h-286q-30 0 -27 31l70 668q3 31 34 31h350z" />
    <glyph glyph-name="G.ss01" horiz-adv-x="840" 
d="M813 351q29 0 26 -29l-4 -39q-3 -29 -33 -29h-13q-31 -123 -127 -193.5t-238 -70.5q-144 0 -243.5 97t-100.5 246q-1 176 118.5 291.5t301.5 115.5q123 0 215 -74t100 -186q2 -31 -30 -31h-67q-26 0 -29 26q-11 68 -65 109.5t-136 41.5q-115 0 -197 -81t-82 -206
q0 -104 65 -169.5t162 -65.5q175 0 236 150h-170q-28 0 -25 29l4 39q3 29 32 29h300z" />
    <glyph glyph-name="Gbreve.ss01" horiz-adv-x="840" 
d="M509 778q-61 -1 -105.5 31t-51.5 87q-2 15 6.5 23t23.5 8l38 1q20 0 29 -24q14 -42 69 -42q54 0 79 42q13 24 36 24l34 -1q15 0 22 -8t2 -22q-42 -119 -182 -119zM813 351q29 0 26 -29l-4 -39q-3 -29 -33 -29h-13q-31 -123 -127 -193.5t-238 -70.5q-144 0 -243.5 97
t-100.5 246q-1 176 118.5 291.5t301.5 115.5q123 0 215 -74t100 -186q2 -31 -30 -31h-67q-26 0 -29 26q-11 68 -65 109.5t-136 41.5q-115 0 -197 -81t-82 -206q0 -104 65 -169.5t162 -65.5q175 0 236 150h-170q-28 0 -25 29l4 39q3 29 32 29h300z" />
    <glyph glyph-name="Gcommaaccent.ss01" horiz-adv-x="840" 
d="M813 351q29 0 26 -29l-4 -39q-3 -29 -33 -29h-13q-31 -123 -127 -193.5t-238 -70.5q-144 0 -243.5 97t-100.5 246q-1 176 118.5 291.5t301.5 115.5q123 0 215 -74t100 -186q2 -31 -30 -31h-67q-26 0 -29 26q-11 68 -65 109.5t-136 41.5q-115 0 -197 -81t-82 -206
q0 -104 65 -169.5t162 -65.5q175 0 236 150h-170q-28 0 -25 29l4 39q3 29 32 29h300zM450 -33q34 0 21 -33l-60 -146q-11 -24 -35 -24h-27q-31 0 -23 32l38 144q8 27 35 27h51z" />
    <glyph glyph-name="Gdotaccent.ss01" horiz-adv-x="840" 
d="M485 778q-32 0 -53 22t-21 55q0 36 27 62t65 26q31 0 53 -21.5t22 -52.5q0 -37 -28 -64t-65 -27zM813 351q29 0 26 -29l-4 -39q-3 -29 -33 -29h-13q-31 -123 -127 -193.5t-238 -70.5q-144 0 -243.5 97t-100.5 246q-1 176 118.5 291.5t301.5 115.5q123 0 215 -74t100 -186
q2 -31 -30 -31h-67q-26 0 -29 26q-11 68 -65 109.5t-136 41.5q-115 0 -197 -81t-82 -206q0 -104 65 -169.5t162 -65.5q175 0 236 150h-170q-28 0 -25 29l4 39q3 29 32 29h300z" />
    <glyph glyph-name="I.ss01" horiz-adv-x="421" 
d="M74 0q-29 0 -26 29l5 49q3 29 32 29h56q18 0 20 18l50 480q2 18 -16 18h-56q-29 0 -26 29l5 49q3 29 33 29h273q29 0 26 -29l-5 -49q-3 -29 -32 -29h-56q-18 0 -20 -18l-50 -480q-2 -18 16 -18h56q28 0 25 -29l-4 -49q-3 -29 -33 -29h-273z" />
    <glyph glyph-name="Iacute.ss01" horiz-adv-x="421" 
d="M403 910q30 11 35 -19l8 -50q4 -28 -27 -33l-199 -29q-29 -5 -34 21l-2 12q-5 27 23 36zM74 0q-29 0 -26 29l5 49q3 29 32 29h56q18 0 20 18l50 480q2 18 -16 18h-56q-29 0 -26 29l5 49q3 29 33 29h273q29 0 26 -29l-5 -49q-3 -29 -32 -29h-56q-18 0 -20 -18l-50 -480
q-2 -18 16 -18h56q28 0 25 -29l-4 -49q-3 -29 -33 -29h-273z" />
    <glyph glyph-name="Icircumflex.ss01" horiz-adv-x="421" 
d="M123 820q-10 24 15 37l143 71q30 14 52 0l134 -71q23 -13 7 -37l-10 -20q-13 -22 -37 -13l-105 38q-26 7 -50 -1l-108 -36q-25 -9 -34 12zM74 0q-29 0 -26 29l5 49q3 29 32 29h56q18 0 20 18l50 480q2 18 -16 18h-56q-29 0 -26 29l5 49q3 29 33 29h273q29 0 26 -29
l-5 -49q-3 -29 -32 -29h-56q-18 0 -20 -18l-50 -480q-2 -18 16 -18h56q28 0 25 -29l-4 -49q-3 -29 -33 -29h-273z" />
    <glyph glyph-name="Idieresis.ss01" horiz-adv-x="421" 
d="M179 775q-30 0 -49 20.5t-19 51.5q0 33 25 57.5t59 24.5q30 0 50.5 -20t20.5 -49q0 -35 -26.5 -60t-60.5 -25zM400 775q-29 0 -49.5 21t-20.5 52q0 33 26 57t60 24q29 0 49.5 -20t20.5 -49q0 -35 -26 -60t-60 -25zM74 0q-29 0 -26 29l5 49q3 29 32 29h56q18 0 20 18
l50 480q2 18 -16 18h-56q-29 0 -26 29l5 49q3 29 33 29h273q29 0 26 -29l-5 -49q-3 -29 -32 -29h-56q-18 0 -20 -18l-50 -480q-2 -18 16 -18h56q28 0 25 -29l-4 -49q-3 -29 -33 -29h-273z" />
    <glyph glyph-name="Idotaccent.ss01" horiz-adv-x="421" 
d="M293 778q-32 0 -53 22t-21 55q0 36 27 62t65 26q31 0 53 -21.5t22 -52.5q0 -37 -28 -64t-65 -27zM74 0q-29 0 -26 29l5 49q3 29 32 29h56q18 0 20 18l50 480q2 18 -16 18h-56q-29 0 -26 29l5 49q3 29 33 29h273q29 0 26 -29l-5 -49q-3 -29 -32 -29h-56q-18 0 -20 -18
l-50 -480q-2 -18 16 -18h56q28 0 25 -29l-4 -49q-3 -29 -33 -29h-273z" />
    <glyph glyph-name="Igrave.ss01" horiz-adv-x="421" 
d="M180 909q12 30 38 19l175 -72q26 -11 15 -38l-6 -14q-12 -27 -37 -21l-185 39q-30 5 -18 35zM74 0q-29 0 -26 29l5 49q3 29 32 29h56q18 0 20 18l50 480q2 18 -16 18h-56q-29 0 -26 29l5 49q3 29 33 29h273q29 0 26 -29l-5 -49q-3 -29 -32 -29h-56q-18 0 -20 -18
l-50 -480q-2 -18 16 -18h56q28 0 25 -29l-4 -49q-3 -29 -33 -29h-273z" />
    <glyph glyph-name="Imacron.ss01" horiz-adv-x="421" 
d="M151 866q3 29 31 29h246q14 0 21.5 -8t5.5 -21l-4 -34q-3 -29 -32 -29h-246q-29 0 -26 29zM74 0q-29 0 -26 29l5 49q3 29 32 29h56q18 0 20 18l50 480q2 18 -16 18h-56q-29 0 -26 29l5 49q3 29 33 29h273q29 0 26 -29l-5 -49q-3 -29 -32 -29h-56q-18 0 -20 -18l-50 -480
q-2 -18 16 -18h56q28 0 25 -29l-4 -49q-3 -29 -33 -29h-273z" />
    <glyph glyph-name="Iogonek.ss01" horiz-adv-x="421" 
d="M424 730q29 0 26 -29l-5 -49q-3 -29 -32 -29h-56q-18 0 -20 -18l-50 -480q-2 -18 16 -18h56q28 0 25 -29l-4 -49q-3 -29 -33 -29h-80q-86 -51 -86 -116q0 -16 10 -25.5t26 -9.5q8 0 22 2q10 1 15.5 -3t4.5 -14l-3 -28q-2 -18 -18 -21q-24 -6 -48 -6q-45 0 -74 24.5
t-29 67.5q0 80 91 129h-104q-29 0 -26 29l5 49q3 29 32 29h56q18 0 20 18l50 480q2 18 -16 18h-56q-29 0 -26 29l5 49q3 29 33 29h273z" />
    <glyph glyph-name="Itilde.ss01" horiz-adv-x="421" 
d="M458 908q29 -5 21 -33q-10 -36 -40 -56.5t-68 -20.5q-33 0 -72 19t-51 19q-22 0 -36 -16q-14 -18 -35 -14l-25 5q-13 2 -18.5 11.5t-1.5 22.5q11 38 38.5 59t63.5 20q34 0 78 -19.5t53 -19.5q24 0 36 15q12 17 33 13zM74 0q-29 0 -26 29l5 49q3 29 32 29h56q18 0 20 18
l50 480q2 18 -16 18h-56q-29 0 -26 29l5 49q3 29 33 29h273q29 0 26 -29l-5 -49q-3 -29 -32 -29h-56q-18 0 -20 -18l-50 -480q-2 -18 16 -18h56q28 0 25 -29l-4 -49q-3 -29 -33 -29h-273z" />
    <glyph glyph-name="J.ss01" horiz-adv-x="473" 
d="M441 730q29 0 26 -29l-45 -419q-31 -308 -373 -315q-30 0 -27 30l6 57q3 27 32 30q107 6 167.5 58t69.5 140l44 419q3 29 32 29h68z" />
    <glyph glyph-name="uni00A40301.ss01" horiz-adv-x="473" 
d="M514 910q30 11 35 -19l8 -50q4 -28 -27 -33l-199 -29q-29 -5 -34 21l-2 12q-5 27 23 36zM441 730q29 0 26 -29l-45 -419q-31 -308 -373 -315q-30 0 -27 30l6 57q3 27 32 30q107 6 167.5 58t69.5 140l44 419q3 29 32 29h68z" />
    <glyph glyph-name="K.ss01" horiz-adv-x="690" 
d="M93 29l70 672q3 29 33 29h67q29 0 26 -29l-70 -672q-3 -29 -33 -29h-67q-29 0 -26 29zM278 331q-7 13 -6 29l2 18q2 18 12 27l284 308q16 17 38 17h77q18 0 21.5 -11t-9.5 -25l-290 -312q-12 -14 -2 -25l174 -239q12 -18 36 -18h55q29 0 26 -29l-4 -42q-3 -29 -32 -29
h-128q-24 0 -36 18z" />
    <glyph glyph-name="Kcommaaccent.ss01" horiz-adv-x="690" 
d="M93 29l70 672q3 29 33 29h67q29 0 26 -29l-70 -672q-3 -29 -33 -29h-67q-29 0 -26 29zM278 331q-7 13 -6 29l2 18q2 18 12 27l284 308q16 17 38 17h77q18 0 21.5 -11t-9.5 -25l-290 -312q-12 -14 -2 -25l174 -239q12 -18 36 -18h55q29 0 26 -29l-4 -42q-3 -29 -32 -29
h-128q-24 0 -36 18zM285 -60q7 27 35 27h51q34 0 21 -33l-60 -146q-10 -24 -35 -24h-27q-31 0 -23 32z" />
    <glyph glyph-name="N.ss01" horiz-adv-x="806" 
d="M119 0q-29 0 -26 29l70 670q3 31 34 31h40q21 0 35 -17l332 -409q11 -13 20.5 -9t11.5 21l39 385q3 29 33 29h57q28 0 25 -29l-70 -672q-3 -29 -32 -29h-57q-29 0 -26 29l8 77q1 18 -9 30l-316 376q-10 12 -20 8.5t-11 -19.5l-49 -472q-3 -29 -33 -29h-56z" />
    <glyph glyph-name="Nacute.ss01" horiz-adv-x="806" 
d="M592 910q30 11 35 -19l8 -50q4 -28 -27 -33l-199 -29q-29 -5 -34 21l-2 12q-5 27 23 36zM119 0q-29 0 -26 29l70 670q3 31 34 31h40q21 0 35 -17l332 -409q11 -13 20.5 -9t11.5 21l39 385q3 29 33 29h57q28 0 25 -29l-70 -672q-3 -29 -32 -29h-57q-29 0 -26 29l8 77
q1 18 -9 30l-316 376q-10 12 -20 8.5t-11 -19.5l-49 -472q-3 -29 -33 -29h-56z" />
    <glyph glyph-name="Ncaron.ss01" horiz-adv-x="806" 
d="M329 887l5 14q9 27 39 18l106 -34q15 -7 31 0l113 34q31 9 34 -18l2 -14q3 -29 -17 -38l-124 -56q-35 -17 -68 0l-111 56q-20 10 -10 38zM119 0q-29 0 -26 29l70 670q3 31 34 31h40q21 0 35 -17l332 -409q11 -13 20.5 -9t11.5 21l39 385q3 29 33 29h57q28 0 25 -29
l-70 -672q-3 -29 -32 -29h-57q-29 0 -26 29l8 77q1 18 -9 30l-316 376q-10 12 -20 8.5t-11 -19.5l-49 -472q-3 -29 -33 -29h-56z" />
    <glyph glyph-name="Ncommaaccent.ss01" horiz-adv-x="806" 
d="M119 0q-29 0 -26 29l70 670q3 31 34 31h40q21 0 35 -17l332 -409q11 -13 20.5 -9t11.5 21l39 385q3 29 33 29h57q28 0 25 -29l-70 -672q-3 -29 -32 -29h-57q-29 0 -26 29l8 77q1 18 -9 30l-316 376q-10 12 -20 8.5t-11 -19.5l-49 -472q-3 -29 -33 -29h-56zM342 -60
q8 27 35 27h51q34 0 21 -33l-60 -146q-11 -24 -35 -24h-27q-31 0 -23 32z" />
    <glyph glyph-name="Ntilde.ss01" horiz-adv-x="806" 
d="M647 908q29 -5 21 -33q-10 -36 -40 -56.5t-68 -20.5q-33 0 -72 19t-51 19q-22 0 -36 -16q-14 -18 -35 -14l-25 5q-13 2 -18.5 11.5t-1.5 22.5q11 38 38.5 59t63.5 20q33 0 77 -19.5t54 -19.5q24 0 36 15q12 17 33 13zM119 0q-29 0 -26 29l70 670q3 31 34 31h40
q21 0 35 -17l332 -409q11 -13 20.5 -9t11.5 21l39 385q3 29 33 29h57q28 0 25 -29l-70 -672q-3 -29 -32 -29h-57q-29 0 -26 29l8 77q1 18 -9 30l-316 376q-10 12 -20 8.5t-11 -19.5l-49 -472q-3 -29 -33 -29h-56z" />
    <glyph glyph-name="Q.ss01" horiz-adv-x="865" 
d="M80 331q0 180 121 294.5t309 114.5q148 0 250.5 -97.5t102.5 -240.5q0 -153 -87 -258t-235 -141q-10 -3 -12.5 -10t4.5 -14l16 -15q51 -48 124 -48q34 0 61 6q35 6 35 -25l-1 -36q0 -31 -28 -37q-35 -7 -83 -7q-44 0 -98 22.5t-94 63.5l-75 77q-12 13 -31 16
q-120 20 -199.5 117t-79.5 218zM209 340q0 -106 65 -172.5t169 -66.5q123 0 206.5 83t83.5 210q0 105 -65 170t-170 65q-122 0 -205.5 -82t-83.5 -207z" />
    <glyph glyph-name="R.ss01" horiz-adv-x="646" 
d="M93 29l70 669q3 32 36 32h169q119 0 196.5 -64t77.5 -158q0 -95 -60 -157.5t-162 -84.5l-19 -4q-12 -3 -15 -10t5 -15l116 -125q12 -13 29 -13l53 1q29 0 26 -29l-4 -42q-3 -29 -33 -29h-120q-20 0 -30 13l-165 214q-7 10 -15.5 6.5t-9.5 -16.5l-19 -188q-3 -29 -33 -29
h-67q-29 0 -26 29zM255 378q-2 -25 23 -25h50q84 0 134.5 40.5t50.5 105.5q0 56 -42 91.5t-115 35.5h-50q-25 0 -28 -25z" />
    <glyph glyph-name="Racute.ss01" horiz-adv-x="646" 
d="M487 910q30 11 35 -19l8 -50q4 -28 -27 -33l-199 -29q-29 -5 -34 21l-2 12q-5 27 23 36zM93 29l70 669q3 32 36 32h169q119 0 196.5 -64t77.5 -158q0 -95 -60 -157.5t-162 -84.5l-19 -4q-12 -3 -15 -10t5 -15l116 -125q12 -13 29 -13l53 1q29 0 26 -29l-4 -42
q-3 -29 -33 -29h-120q-20 0 -30 13l-165 214q-7 10 -15.5 6.5t-9.5 -16.5l-19 -188q-3 -29 -33 -29h-67q-29 0 -26 29zM255 378q-2 -25 23 -25h50q84 0 134.5 40.5t50.5 105.5q0 56 -42 91.5t-115 35.5h-50q-25 0 -28 -25z" />
    <glyph glyph-name="Rcaron.ss01" horiz-adv-x="646" 
d="M225 887l5 14q9 27 39 18l106 -34q15 -7 31 0l113 34q31 9 34 -18l2 -14q3 -29 -17 -38l-124 -56q-35 -17 -68 0l-111 56q-20 10 -10 38zM93 29l70 669q3 32 36 32h169q119 0 196.5 -64t77.5 -158q0 -95 -60 -157.5t-162 -84.5l-19 -4q-12 -3 -15 -10t5 -15l116 -125
q12 -13 29 -13l53 1q29 0 26 -29l-4 -42q-3 -29 -33 -29h-120q-20 0 -30 13l-165 214q-7 10 -15.5 6.5t-9.5 -16.5l-19 -188q-3 -29 -33 -29h-67q-29 0 -26 29zM255 378q-2 -25 23 -25h50q84 0 134.5 40.5t50.5 105.5q0 56 -42 91.5t-115 35.5h-50q-25 0 -28 -25z" />
    <glyph glyph-name="Rcommaaccent.ss01" horiz-adv-x="646" 
d="M93 29l70 669q3 32 36 32h169q119 0 196.5 -64t77.5 -158q0 -95 -60 -157.5t-162 -84.5l-19 -4q-12 -3 -15 -10t5 -15l116 -125q12 -13 29 -13l53 1q29 0 26 -29l-4 -42q-3 -29 -33 -29h-120q-20 0 -30 13l-165 214q-7 10 -15.5 6.5t-9.5 -16.5l-19 -188q-3 -29 -33 -29
h-67q-29 0 -26 29zM255 378q-2 -25 23 -25h50q84 0 134.5 40.5t50.5 105.5q0 56 -42 91.5t-115 35.5h-50q-25 0 -28 -25zM274 -60q8 27 35 27h51q34 0 21 -33l-60 -146q-11 -24 -35 -24h-27q-31 0 -23 32z" />
    <glyph glyph-name="W.ss01" horiz-adv-x="985" 
d="M96 697q-6 33 28 33h66q25 0 29 -25l78 -493q2 -14 10.5 -14t15.5 13l181 373q6 12 3 27l-22 85q-4 15 3.5 24.5t23.5 9.5h60q24 0 29 -24l114 -494q2 -9 7 -12t10.5 0.5t8.5 12.5l184 492q10 25 35 25h57q34 0 20 -33l-263 -670q-11 -27 -39 -27h-45q-29 0 -34 26
l-96 385q-2 8 -6.5 11t-10.5 0t-10 -11l-188 -386q-12 -25 -40 -25h-47q-28 0 -33 27z" />
    <glyph glyph-name="Wacute.ss01" horiz-adv-x="985" 
d="M685 910q30 11 35 -19l8 -50q4 -28 -27 -33l-199 -29q-29 -5 -34 21l-2 12q-5 27 23 36zM96 697q-6 33 28 33h66q25 0 29 -25l78 -493q2 -14 10.5 -14t15.5 13l181 373q6 12 3 27l-22 85q-4 15 3.5 24.5t23.5 9.5h60q24 0 29 -24l114 -494q2 -9 7 -12t10.5 0.5t8.5 12.5
l184 492q10 25 35 25h57q34 0 20 -33l-263 -670q-11 -27 -39 -27h-45q-29 0 -34 26l-96 385q-2 8 -6.5 11t-10.5 0t-10 -11l-188 -386q-12 -25 -40 -25h-47q-28 0 -33 27z" />
    <glyph glyph-name="Wcircumflex.ss01" horiz-adv-x="985" 
d="M405 820q-10 24 15 37l143 71q30 14 52 0l134 -71q23 -13 7 -37l-10 -20q-13 -22 -37 -13l-105 38q-26 7 -50 -1l-108 -36q-25 -9 -34 12zM96 697q-6 33 28 33h66q25 0 29 -25l78 -493q2 -14 10.5 -14t15.5 13l181 373q6 12 3 27l-22 85q-4 15 3.5 24.5t23.5 9.5h60
q24 0 29 -24l114 -494q2 -9 7 -12t10.5 0.5t8.5 12.5l184 492q10 25 35 25h57q34 0 20 -33l-263 -670q-11 -27 -39 -27h-45q-29 0 -34 26l-96 385q-2 8 -6.5 11t-10.5 0t-10 -11l-188 -386q-12 -25 -40 -25h-47q-28 0 -33 27z" />
    <glyph glyph-name="Wdieresis.ss01" horiz-adv-x="985" 
d="M461 775q-30 0 -49 20.5t-19 51.5q0 33 25 57.5t59 24.5q30 0 50.5 -20t20.5 -49q0 -35 -26.5 -60t-60.5 -25zM682 775q-29 0 -49.5 21t-20.5 52q0 33 26 57t60 24q29 0 49.5 -20t20.5 -49q0 -35 -26 -60t-60 -25zM96 697q-6 33 28 33h66q25 0 29 -25l78 -493
q2 -14 10.5 -14t15.5 13l181 373q6 12 3 27l-22 85q-4 15 3.5 24.5t23.5 9.5h60q24 0 29 -24l114 -494q2 -9 7 -12t10.5 0.5t8.5 12.5l184 492q10 25 35 25h57q34 0 20 -33l-263 -670q-11 -27 -39 -27h-45q-29 0 -34 26l-96 385q-2 8 -6.5 11t-10.5 0t-10 -11l-188 -386
q-12 -25 -40 -25h-47q-28 0 -33 27z" />
    <glyph glyph-name="Wgrave.ss01" horiz-adv-x="985" 
d="M462 909q12 30 38 19l175 -72q26 -11 15 -38l-6 -14q-12 -27 -37 -21l-185 39q-30 5 -18 35zM96 697q-6 33 28 33h66q25 0 29 -25l78 -493q2 -14 10.5 -14t15.5 13l181 373q6 12 3 27l-22 85q-4 15 3.5 24.5t23.5 9.5h60q24 0 29 -24l114 -494q2 -9 7 -12t10.5 0.5
t8.5 12.5l184 492q10 25 35 25h57q34 0 20 -33l-263 -670q-11 -27 -39 -27h-45q-29 0 -34 26l-96 385q-2 8 -6.5 11t-10.5 0t-10 -11l-188 -386q-12 -25 -40 -25h-47q-28 0 -33 27z" />
    <glyph glyph-name="i.loclTRK" horiz-adv-x="271" 
d="M203 601q-32 0 -53 22t-21 55q0 36 27 62t65 26q31 0 53 -21.5t22 -52.5q0 -37 -28 -64t-65 -27zM222 520q29 0 26 -29l-49 -462q-3 -29 -32 -29h-63q-29 0 -26 29l48 462q3 29 33 29h63z" />
    <glyph glyph-name="uni006A0301" horiz-adv-x="278" 
d="M290 754q28 17 39 -11l18 -47q11 -27 -19 -38l-188 -71q-29 -11 -38 13l-5 12q-10 26 15 40zM35 -214q-37 0 -61 4q-25 4 -20 33l10 46q4 27 26 25q14 -2 22 -2q58 0 65 67l56 532q3 29 33 29h63q28 0 25 -29l-57 -542q-8 -77 -48.5 -120t-113.5 -43z" />
    <glyph glyph-name="a.ss01" horiz-adv-x="658" 
d="M66 235q0 134 84 214.5t217 80.5q90 0 152 -54q18 -16 26 8l5 12q9 24 36 24h24q29 0 26 -29l-48 -462q-3 -29 -33 -29h-19q-25 0 -31 24l-3 16q-5 22 -25 5q-68 -55 -159 -55q-111 0 -181.5 70t-70.5 175zM190 246q0 -65 40 -108.5t102 -43.5q88 0 143 76q6 9 8 23
l14 135q2 14 -3 23q-18 34 -51.5 54.5t-74.5 20.5q-72 0 -125 -52.5t-53 -127.5z" />
    <glyph glyph-name="aacute.ss01" horiz-adv-x="658" 
d="M471 754q28 17 39 -11l18 -47q11 -27 -19 -38l-188 -71q-29 -11 -38 13l-5 12q-10 26 15 40zM66 235q0 134 84 214.5t217 80.5q90 0 152 -54q18 -16 26 8l5 12q9 24 36 24h24q29 0 26 -29l-48 -462q-3 -29 -33 -29h-19q-25 0 -31 24l-3 16q-5 22 -25 5q-68 -55 -159 -55
q-111 0 -181.5 70t-70.5 175zM190 246q0 -65 40 -108.5t102 -43.5q88 0 143 76q6 9 8 23l14 135q2 14 -3 23q-18 34 -51.5 54.5t-74.5 20.5q-72 0 -125 -52.5t-53 -127.5z" />
    <glyph glyph-name="abreve.ss01" horiz-adv-x="658" 
d="M298 736q20 0 29 -24q14 -42 69 -42q53 0 79 42q13 24 36 24l34 -1q15 0 22 -8t2 -22q-42 -119 -182 -119q-61 -1 -105.5 31t-51.5 87q-2 15 6.5 23t23.5 8zM66 235q0 134 84 214.5t217 80.5q90 0 152 -54q18 -16 26 8l5 12q9 24 36 24h24q29 0 26 -29l-48 -462
q-3 -29 -33 -29h-19q-25 0 -31 24l-3 16q-5 22 -25 5q-68 -55 -159 -55q-111 0 -181.5 70t-70.5 175zM190 246q0 -65 40 -108.5t102 -43.5q88 0 143 76q6 9 8 23l14 135q2 14 -3 23q-18 34 -51.5 54.5t-74.5 20.5q-72 0 -125 -52.5t-53 -127.5z" />
    <glyph glyph-name="acircumflex.ss01" horiz-adv-x="658" 
d="M226 639q-11 25 14 36l139 69q29 14 51 0l130 -69q21 -11 7 -36l-10 -19q-13 -21 -36 -13l-102 37q-24 7 -49 -1l-105 -35q-24 -8 -33 12zM66 235q0 134 84 214.5t217 80.5q90 0 152 -54q18 -16 26 8l5 12q9 24 36 24h24q29 0 26 -29l-48 -462q-3 -29 -33 -29h-19
q-25 0 -31 24l-3 16q-5 22 -25 5q-68 -55 -159 -55q-111 0 -181.5 70t-70.5 175zM190 246q0 -65 40 -108.5t102 -43.5q88 0 143 76q6 9 8 23l14 135q2 14 -3 23q-18 34 -51.5 54.5t-74.5 20.5q-72 0 -125 -52.5t-53 -127.5z" />
    <glyph glyph-name="adieresis.ss01" horiz-adv-x="658" 
d="M286 604q-28 0 -46 19t-18 48q0 31 23.5 54t55.5 23q28 0 47 -19t19 -45q0 -33 -24.5 -56.5t-56.5 -23.5zM492 604q-27 0 -46 19.5t-19 48.5q0 31 24.5 53.5t55.5 22.5q28 0 47 -19t19 -45q0 -33 -24.5 -56.5t-56.5 -23.5zM66 235q0 134 84 214.5t217 80.5q90 0 152 -54
q18 -16 26 8l5 12q9 24 36 24h24q29 0 26 -29l-48 -462q-3 -29 -33 -29h-19q-25 0 -31 24l-3 16q-5 22 -25 5q-68 -55 -159 -55q-111 0 -181.5 70t-70.5 175zM190 246q0 -65 40 -108.5t102 -43.5q88 0 143 76q6 9 8 23l14 135q2 14 -3 23q-18 34 -51.5 54.5t-74.5 20.5
q-72 0 -125 -52.5t-53 -127.5z" />
    <glyph glyph-name="agrave.ss01" horiz-adv-x="658" 
d="M302 748q16 27 41 11l158 -104q23 -16 8 -40l-9 -12q-16 -24 -40 -14l-175 73q-27 11 -11 38zM66 235q0 134 84 214.5t217 80.5q90 0 152 -54q18 -16 26 8l5 12q9 24 36 24h24q29 0 26 -29l-48 -462q-3 -29 -33 -29h-19q-25 0 -31 24l-3 16q-5 22 -25 5q-68 -55 -159 -55
q-111 0 -181.5 70t-70.5 175zM190 246q0 -65 40 -108.5t102 -43.5q88 0 143 76q6 9 8 23l14 135q2 14 -3 23q-18 34 -51.5 54.5t-74.5 20.5q-72 0 -125 -52.5t-53 -127.5z" />
    <glyph glyph-name="amacron.ss01" horiz-adv-x="658" 
d="M246 686q3 29 31 29h246q14 0 21.5 -8t5.5 -21l-4 -34q-3 -29 -32 -29h-246q-29 0 -26 29zM66 235q0 134 84 214.5t217 80.5q90 0 152 -54q18 -16 26 8l5 12q9 24 36 24h24q29 0 26 -29l-48 -462q-3 -29 -33 -29h-19q-25 0 -31 24l-3 16q-5 22 -25 5q-68 -55 -159 -55
q-111 0 -181.5 70t-70.5 175zM190 246q0 -65 40 -108.5t102 -43.5q88 0 143 76q6 9 8 23l14 135q2 14 -3 23q-18 34 -51.5 54.5t-74.5 20.5q-72 0 -125 -52.5t-53 -127.5z" />
    <glyph glyph-name="aogonek.ss01" horiz-adv-x="658" 
d="M610 520q29 0 26 -29l-48 -462q-1 -19 -18 -26q-84 -52 -84 -115q0 -16 10 -25.5t26 -9.5q8 0 22 2q10 1 15.5 -3t4.5 -14l-3 -28q-2 -18 -18 -21q-24 -6 -48 -6q-45 0 -74 24.5t-29 67.5q0 91 116 141l-3 8l-3 16q-5 22 -25 5q-68 -55 -159 -55q-111 0 -181.5 70
t-70.5 175q0 134 84 214.5t217 80.5q90 0 152 -54q18 -16 26 8l5 12q9 24 36 24h24zM497 328q2 14 -3 23q-18 34 -51.5 54.5t-74.5 20.5q-72 0 -125 -52.5t-53 -127.5q0 -65 40 -108.5t102 -43.5q88 0 143 76q6 9 8 23z" />
    <glyph glyph-name="aring.ss01" horiz-adv-x="658" 
d="M385 574q-49 0 -79.5 29t-30.5 71q0 48 36 82.5t97 34.5q50 0 81.5 -28.5t31.5 -69.5q0 -50 -36.5 -84.5t-99.5 -34.5zM392 641q21 0 35 13t15 31t-10.5 29.5t-30.5 11.5t-32.5 -13t-14.5 -32q-1 -17 9.5 -28.5t28.5 -11.5zM66 235q0 134 84 214.5t217 80.5q90 0 152 -54
q18 -16 26 8l5 12q9 24 36 24h24q29 0 26 -29l-48 -462q-3 -29 -33 -29h-19q-25 0 -31 24l-3 16q-5 22 -25 5q-68 -55 -159 -55q-111 0 -181.5 70t-70.5 175zM190 246q0 -65 40 -108.5t102 -43.5q88 0 143 76q6 9 8 23l14 135q2 14 -3 23q-18 34 -51.5 54.5t-74.5 20.5
q-72 0 -125 -52.5t-53 -127.5z" />
    <glyph glyph-name="atilde.ss01" horiz-adv-x="658" 
d="M545 703q29 -5 21 -33q-10 -36 -40 -56.5t-68 -20.5q-33 0 -72 19t-51 19q-22 0 -36 -16q-14 -18 -35 -14l-25 5q-13 2 -18.5 11.5t-1.5 22.5q11 38 38.5 59t63.5 20q33 0 77 -19.5t54 -19.5q24 0 36 15q12 17 33 13zM66 235q0 134 84 214.5t217 80.5q90 0 152 -54
q18 -16 26 8l5 12q9 24 36 24h24q29 0 26 -29l-48 -462q-3 -29 -33 -29h-19q-25 0 -31 24l-3 16q-5 22 -25 5q-68 -55 -159 -55q-111 0 -181.5 70t-70.5 175zM190 246q0 -65 40 -108.5t102 -43.5q88 0 143 76q6 9 8 23l14 135q2 14 -3 23q-18 34 -51.5 54.5t-74.5 20.5
q-72 0 -125 -52.5t-53 -127.5z" />
    <glyph glyph-name="k.ss01" horiz-adv-x="613" 
d="M103 0q-29 0 -26 29l75 722q5 29 33 29h63q28 0 25 -29l-46 -444q-2 -13 5.5 -16t17.5 7l221 206q16 16 38 16h69q13 0 18.5 -5t3.5 -13.5t-11 -17.5l-181 -181q-14 -14 -5 -28l106 -158q11 -15 28 -15h49q30 0 27 -29l-5 -44q-3 -29 -32 -29h-121q-19 0 -28 16l-108 189
q-11 19 -28 2l-72 -66q-11 -11 -12 -25l-9 -87q-3 -29 -32 -29h-63z" />
    <glyph glyph-name="kcommaaccent.ss01" horiz-adv-x="613" 
d="M103 0q-29 0 -26 29l75 722q5 29 33 29h63q28 0 25 -29l-46 -444q-2 -13 5.5 -16t17.5 7l221 206q16 16 38 16h69q13 0 18.5 -5t3.5 -13.5t-11 -17.5l-181 -181q-14 -14 -5 -28l106 -158q11 -15 28 -15h49q30 0 27 -29l-5 -44q-3 -29 -32 -29h-121q-19 0 -28 16l-108 189
q-11 19 -28 2l-72 -66q-11 -11 -12 -25l-9 -87q-3 -29 -32 -29h-63zM245 -60q7 27 35 27h51q34 0 21 -33l-60 -146q-10 -24 -35 -24h-27q-31 0 -23 32z" />
    <glyph glyph-name="l.ss01" horiz-adv-x="358" 
d="M88 168l61 583q3 29 33 29h63q29 0 26 -29l-61 -580q-8 -75 54 -75q24 0 58 9q32 10 32 -21v-44q0 -27 -24 -35q-50 -15 -99 -15q-71 0 -112 44t-31 134z" />
    <glyph glyph-name="lacute.ss01" horiz-adv-x="358" 
d="M314 960q30 11 35 -19l8 -50q4 -28 -27 -33l-199 -29q-29 -5 -34 21l-2 12q-5 27 23 36zM88 168l61 583q3 29 33 29h63q29 0 26 -29l-61 -580q-8 -75 54 -75q24 0 58 9q32 10 32 -21v-44q0 -27 -24 -35q-50 -15 -99 -15q-71 0 -112 44t-31 134z" />
    <glyph glyph-name="lcaron.ss01" horiz-adv-x="358" 
d="M356 619q28 0 35 26l47 173q9 31 -22 31h-44q-28 0 -33 -27l-34 -173q-6 -30 24 -30h27zM88 168l61 583q3 29 33 29h63q29 0 26 -29l-61 -580q-8 -75 54 -75q24 0 58 9q32 10 32 -21v-44q0 -27 -24 -35q-50 -15 -99 -15q-71 0 -112 44t-31 134z" />
    <glyph glyph-name="lcommaaccent.ss01" horiz-adv-x="358" 
d="M88 168l61 583q3 29 33 29h63q29 0 26 -29l-61 -580q-8 -75 54 -75q24 0 58 9q32 10 32 -21v-44q0 -27 -24 -35q-50 -15 -99 -15q-71 0 -112 44t-31 134zM143 -60q8 27 35 27h51q34 0 21 -33l-60 -146q-11 -24 -35 -24h-27q-31 0 -23 32z" />
    <glyph glyph-name="ldot.ss01" horiz-adv-x="397" 
d="M88 168l61 583q3 29 33 29h63q29 0 26 -29l-61 -580q-8 -75 54 -75q24 0 58 9q32 10 32 -21v-44q0 -27 -24 -35q-50 -15 -99 -15q-71 0 -112 44t-31 134zM350 276q-28 0 -47.5 20.5t-19.5 49.5q0 33 25 56.5t58 23.5q28 0 48 -19.5t20 -47.5q0 -33 -25.5 -58t-58.5 -25z
" />
    <glyph glyph-name="lslash.ss01" horiz-adv-x="358" 
d="M322 105q32 10 32 -21v-44q0 -27 -24 -35q-50 -15 -99 -15q-71 0 -112 44t-31 134l17 159l-46 -17q-29 -11 -37 17l-6 23q-8 28 21 39l77 29l35 333q3 29 33 29h63q29 0 26 -29l-30 -285l67 25q28 11 37 -16l6 -22q8 -27 -19 -39l-100 -38l-22 -205q-8 -75 54 -75
q24 0 58 9z" />
    <glyph glyph-name="t.ss01" horiz-adv-x="531" 
d="M96 417q-28 0 -25 29l4 45q3 29 33 29h27q21 0 23 22l8 70q3 25 27 33l62 15q16 4 24 -3.5t6 -22.5l-10 -92q-2 -22 20 -22h195q28 0 25 -29l-4 -45q-3 -29 -33 -29h-195q-21 0 -23 -21l-19 -182q-6 -58 16.5 -89t61.5 -31q35 0 65.5 19t47.5 53q14 24 36 24h55
q15 0 21.5 -8.5t2.5 -22.5q-24 -76 -88 -122.5t-148 -46.5q-93 0 -147.5 60.5t-43.5 163.5l19 182q3 21 -20 21h-23z" />
    <glyph glyph-name="tbar.ss01" horiz-adv-x="535" 
d="M523 190q15 0 21.5 -8.5t2.5 -22.5q-24 -76 -88 -122.5t-148 -46.5q-93 0 -147.5 60.5t-43.5 163.5l4 36h-34q-28 0 -26 29l4 38q2 30 32 30h34l5 49q3 21 -20 21h-23q-28 0 -25 29l4 45q3 29 33 29h27q21 0 23 22l8 70q3 25 27 33l62 15q16 4 24 -3.5t6 -22.5l-10 -92
q-2 -22 20 -22h195q28 0 25 -29l-4 -45q-3 -29 -33 -29h-195q-21 0 -23 -21l-5 -49h137q28 0 26 -30l-4 -38q-2 -29 -32 -29h-137l-4 -36q-6 -58 16.5 -89t61.5 -31q35 0 65.5 19t47.5 53q14 24 36 24h55z" />
    <glyph glyph-name="tcaron.ss01" horiz-adv-x="535" 
d="M397 592q28 0 35 26l47 173q9 31 -22 31h-44q-28 0 -33 -27l-34 -173q-6 -30 24 -30h27zM96 417q-28 0 -25 29l4 45q3 29 33 29h27q21 0 23 22l8 70q3 25 27 33l62 15q16 4 24 -3.5t6 -22.5l-10 -92q-2 -22 20 -22h195q28 0 25 -29l-4 -45q-3 -29 -33 -29h-195
q-21 0 -23 -21l-19 -182q-6 -58 16.5 -89t61.5 -31q35 0 65.5 19t47.5 53q14 24 36 24h55q15 0 21.5 -8.5t2.5 -22.5q-24 -76 -88 -122.5t-148 -46.5q-93 0 -147.5 60.5t-43.5 163.5l19 182q3 21 -20 21h-23z" />
    <glyph glyph-name="uni0163.ss01" horiz-adv-x="535" 
d="M523 190q15 0 21.5 -8.5t2.5 -22.5q-22 -69 -76.5 -114t-128.5 -53l-3 -10q-6 -18 10 -21q64 -12 64 -75q0 -50 -39 -78t-98 -28q-49 0 -80 17q-19 12 -9 35l5 12q9 21 36 12q20 -9 45 -9q45 0 45 32q0 30 -38 30h-13q-14 0 -20 8.5t-1 22.5l21 54q-74 14 -115 72
t-32 148l19 182q3 21 -20 21h-23q-28 0 -25 29l4 45q3 29 33 29h27q21 0 23 22l8 70q3 25 27 33l62 15q16 4 24 -3.5t6 -22.5l-10 -92q-2 -22 20 -22h195q28 0 25 -29l-4 -45q-3 -29 -33 -29h-195q-21 0 -23 -21l-19 -182q-6 -58 16.5 -89t61.5 -31q35 0 65.5 19t47.5 53
q14 24 36 24h55z" />
    <glyph glyph-name="uni021B.ss01" horiz-adv-x="535" 
d="M96 417q-28 0 -25 29l4 45q3 29 33 29h27q21 0 23 22l8 70q3 25 27 33l62 15q16 4 24 -3.5t6 -22.5l-10 -92q-2 -22 20 -22h195q28 0 25 -29l-4 -45q-3 -29 -33 -29h-195q-21 0 -23 -21l-19 -182q-6 -58 16.5 -89t61.5 -31q35 0 65.5 19t47.5 53q14 24 36 24h55
q15 0 21.5 -8.5t2.5 -22.5q-24 -76 -88 -122.5t-148 -46.5q-93 0 -147.5 60.5t-43.5 163.5l19 182q3 21 -20 21h-23zM250 -60q8 27 35 27h51q34 0 21 -33l-60 -146q-11 -24 -35 -24h-27q-31 0 -23 32z" />
    <glyph glyph-name="u.ss01" horiz-adv-x="614" 
d="M90 212l29 279q3 29 33 29h63q28 0 25 -29l-29 -283q-5 -49 24.5 -80.5t82.5 -31.5t89 31.5t41 80.5l30 283q3 29 32 29h63q29 0 26 -29l-29 -279q-11 -102 -80 -162t-184 -60q-103 0 -164.5 61.5t-51.5 160.5z" />
    <glyph glyph-name="uacute.ss01" horiz-adv-x="614" 
d="M452 754q28 17 39 -11l18 -47q11 -27 -19 -38l-188 -71q-29 -11 -38 13l-5 12q-10 26 15 40zM90 212l29 279q3 29 33 29h63q28 0 25 -29l-29 -283q-5 -49 24.5 -80.5t82.5 -31.5t89 31.5t41 80.5l30 283q3 29 32 29h63q29 0 26 -29l-29 -279q-11 -102 -80 -162t-184 -60
q-103 0 -164.5 61.5t-51.5 160.5z" />
    <glyph glyph-name="ucircumflex.ss01" horiz-adv-x="614" 
d="M206 639q-11 25 14 36l139 69q29 14 51 0l130 -69q21 -11 7 -36l-10 -19q-13 -21 -36 -13l-102 37q-24 7 -49 -1l-105 -35q-24 -8 -33 12zM90 212l29 279q3 29 33 29h63q28 0 25 -29l-29 -283q-5 -49 24.5 -80.5t82.5 -31.5t89 31.5t41 80.5l30 283q3 29 32 29h63
q29 0 26 -29l-29 -279q-11 -102 -80 -162t-184 -60q-103 0 -164.5 61.5t-51.5 160.5z" />
    <glyph glyph-name="udieresis.ss01" horiz-adv-x="614" 
d="M267 604q-28 0 -46 19t-18 48q0 31 23.5 54t55.5 23q28 0 47 -19t19 -45q0 -33 -24.5 -56.5t-56.5 -23.5zM473 604q-27 0 -46 19.5t-19 48.5q0 31 24.5 53.5t55.5 22.5q28 0 47 -19t19 -45q0 -33 -24.5 -56.5t-56.5 -23.5zM90 212l29 279q3 29 33 29h63q28 0 25 -29
l-29 -283q-5 -49 24.5 -80.5t82.5 -31.5t89 31.5t41 80.5l30 283q3 29 32 29h63q29 0 26 -29l-29 -279q-11 -102 -80 -162t-184 -60q-103 0 -164.5 61.5t-51.5 160.5z" />
    <glyph glyph-name="ugrave.ss01" horiz-adv-x="614" 
d="M282 748q16 27 41 11l158 -104q23 -16 8 -40l-9 -12q-16 -24 -40 -14l-175 73q-27 11 -11 38zM90 212l29 279q3 29 33 29h63q28 0 25 -29l-29 -283q-5 -49 24.5 -80.5t82.5 -31.5t89 31.5t41 80.5l30 283q3 29 32 29h63q29 0 26 -29l-29 -279q-11 -102 -80 -162t-184 -60
q-103 0 -164.5 61.5t-51.5 160.5z" />
    <glyph glyph-name="uhungarumlaut.ss01" horiz-adv-x="614" 
d="M280 714q12 22 36 22h57q17 0 21.5 -10t-6.5 -25l-67 -91q-15 -19 -37 -19h-31q-17 0 -22 9t2 24zM455 714q12 22 36 22h57q17 0 21.5 -10t-6.5 -25l-67 -91q-15 -19 -37 -19h-31q-17 0 -22 9t2 24zM90 212l29 279q3 29 33 29h63q28 0 25 -29l-29 -283q-5 -49 24.5 -80.5
t82.5 -31.5t89 31.5t41 80.5l30 283q3 29 32 29h63q29 0 26 -29l-29 -279q-11 -102 -80 -162t-184 -60q-103 0 -164.5 61.5t-51.5 160.5z" />
    <glyph glyph-name="umacron.ss01" horiz-adv-x="614" 
d="M226 686q3 29 31 29h246q14 0 21.5 -8t5.5 -21l-4 -34q-3 -29 -32 -29h-246q-29 0 -26 29zM90 212l29 279q3 29 33 29h63q28 0 25 -29l-29 -283q-5 -49 24.5 -80.5t82.5 -31.5t89 31.5t41 80.5l30 283q3 29 32 29h63q29 0 26 -29l-29 -279q-11 -102 -80 -162t-184 -60
q-103 0 -164.5 61.5t-51.5 160.5z" />
    <glyph glyph-name="uogonek.ss01" horiz-adv-x="614" 
d="M573 520q29 0 26 -29l-29 -279q-9 -86 -59.5 -142.5t-135.5 -73.5q-80 -50 -80 -112q0 -16 10 -25.5t26 -9.5q8 0 22 2q10 1 15.5 -3t4.5 -14l-3 -28q-2 -18 -18 -21q-24 -6 -48 -6q-45 0 -74 24.5t-29 67.5q0 74 76 120q-91 9 -144 69.5t-43 151.5l29 279q3 29 33 29h63
q28 0 25 -29l-29 -283q-5 -49 24.5 -80.5t82.5 -31.5t89 31.5t41 80.5l30 283q3 29 32 29h63z" />
    <glyph glyph-name="uring.ss01" horiz-adv-x="614" 
d="M365 574q-49 0 -79.5 29t-30.5 71q0 48 36 82.5t97 34.5q50 0 81.5 -28.5t31.5 -69.5q0 -50 -36.5 -84.5t-99.5 -34.5zM372 641q21 0 35 13t15 31t-10.5 29.5t-30.5 11.5t-32.5 -13t-14.5 -32q-1 -17 9.5 -28.5t28.5 -11.5zM90 212l29 279q3 29 33 29h63q28 0 25 -29
l-29 -283q-5 -49 24.5 -80.5t82.5 -31.5t89 31.5t41 80.5l30 283q3 29 32 29h63q29 0 26 -29l-29 -279q-11 -102 -80 -162t-184 -60q-103 0 -164.5 61.5t-51.5 160.5z" />
    <glyph glyph-name="utilde.ss01" horiz-adv-x="614" 
d="M525 703q29 -5 21 -33q-10 -36 -40 -56.5t-68 -20.5q-33 0 -72 19t-51 19q-22 0 -36 -16q-14 -18 -35 -14l-25 5q-13 2 -18.5 11.5t-1.5 22.5q11 38 38.5 59t63.5 20q33 0 77 -19.5t54 -19.5q24 0 36 15q12 17 33 13zM90 212l29 279q3 29 33 29h63q28 0 25 -29l-29 -283
q-5 -49 24.5 -80.5t82.5 -31.5t89 31.5t41 80.5l30 283q3 29 32 29h63q29 0 26 -29l-29 -279q-11 -102 -80 -162t-184 -60q-103 0 -164.5 61.5t-51.5 160.5z" />
    <glyph glyph-name="w.ss01" horiz-adv-x="809" 
d="M73 487q-4 15 4 24t24 9h58q26 0 30 -25l61 -346q2 -13 10.5 -13t14.5 12l126 252q7 15 4 31l-14 55q-4 16 3.5 25t23.5 9h46q24 0 30 -24l75 -344q2 -9 6.5 -12t9.5 0t8 12l134 343q9 25 36 25h57q16 0 21.5 -9t-1.5 -25l-199 -459q-12 -27 -41 -27h-67q-29 0 -35 27
l-48 199q-3 16 -12.5 16t-17.5 -15l-100 -201q-13 -26 -42 -26h-71q-28 0 -34 27z" />
    <glyph glyph-name="wacute.ss01" horiz-adv-x="809" 
d="M550 754q28 17 39 -11l18 -47q11 -27 -19 -38l-188 -71q-29 -11 -38 13l-5 12q-10 26 15 40zM73 487q-4 15 4 24t24 9h58q26 0 30 -25l61 -346q2 -13 10.5 -13t14.5 12l126 252q7 15 4 31l-14 55q-4 16 3.5 25t23.5 9h46q24 0 30 -24l75 -344q2 -9 6.5 -12t9.5 0t8 12
l134 343q9 25 36 25h57q16 0 21.5 -9t-1.5 -25l-199 -459q-12 -27 -41 -27h-67q-29 0 -35 27l-48 199q-3 16 -12.5 16t-17.5 -15l-100 -201q-13 -26 -42 -26h-71q-28 0 -34 27z" />
    <glyph glyph-name="wcircumflex.ss01" horiz-adv-x="809" 
d="M305 639q-11 25 14 36l139 69q29 14 51 0l130 -69q21 -11 7 -36l-10 -19q-12 -21 -36 -13l-102 37q-24 7 -49 -1l-105 -35q-24 -8 -33 12zM73 487q-4 15 4 24t24 9h58q26 0 30 -25l61 -346q2 -13 10.5 -13t14.5 12l126 252q7 15 4 31l-14 55q-4 16 3.5 25t23.5 9h46
q24 0 30 -24l75 -344q2 -9 6.5 -12t9.5 0t8 12l134 343q9 25 36 25h57q16 0 21.5 -9t-1.5 -25l-199 -459q-12 -27 -41 -27h-67q-29 0 -35 27l-48 199q-3 16 -12.5 16t-17.5 -15l-100 -201q-13 -26 -42 -26h-71q-28 0 -34 27z" />
    <glyph glyph-name="wdieresis.ss01" horiz-adv-x="809" 
d="M365 604q-28 0 -46 19t-18 48q0 31 23.5 54t55.5 23q28 0 47 -19t19 -45q0 -33 -24.5 -56.5t-56.5 -23.5zM571 604q-27 0 -46 19.5t-19 48.5q0 31 24.5 53.5t55.5 22.5q28 0 47 -19t19 -45q0 -33 -24.5 -56.5t-56.5 -23.5zM73 487q-4 15 4 24t24 9h58q26 0 30 -25
l61 -346q2 -13 10.5 -13t14.5 12l126 252q7 15 4 31l-14 55q-4 16 3.5 25t23.5 9h46q24 0 30 -24l75 -344q2 -9 6.5 -12t9.5 0t8 12l134 343q9 25 36 25h57q16 0 21.5 -9t-1.5 -25l-199 -459q-12 -27 -41 -27h-67q-29 0 -35 27l-48 199q-3 16 -12.5 16t-17.5 -15l-100 -201
q-13 -26 -42 -26h-71q-28 0 -34 27z" />
    <glyph glyph-name="wgrave.ss01" horiz-adv-x="809" 
d="M380 748q16 27 41 11l158 -104q23 -16 8 -40l-9 -12q-16 -24 -40 -14l-175 73q-27 11 -11 38zM73 487q-4 15 4 24t24 9h58q26 0 30 -25l61 -346q2 -13 10.5 -13t14.5 12l126 252q7 15 4 31l-14 55q-4 16 3.5 25t23.5 9h46q24 0 30 -24l75 -344q2 -9 6.5 -12t9.5 0t8 12
l134 343q9 25 36 25h57q16 0 21.5 -9t-1.5 -25l-199 -459q-12 -27 -41 -27h-67q-29 0 -35 27l-48 199q-3 16 -12.5 16t-17.5 -15l-100 -201q-13 -26 -42 -26h-71q-28 0 -34 27z" />
    <glyph glyph-name="y.ss01" horiz-adv-x="566" 
d="M72 486q-4 16 3 25t24 9h72q24 0 30 -24l84 -357q2 -9 7 -12.5t10.5 0t9.5 12.5l158 357q9 24 35 24h72q35 0 19 -34l-333 -683q-11 -23 -36 -23h-57q-16 0 -22 9.5t2 24.5l97 186h-13q-21 0 -27 20z" />
    <glyph glyph-name="yacute.ss01" horiz-adv-x="566" 
d="M431 754q28 17 39 -11l18 -47q11 -27 -19 -38l-188 -71q-29 -11 -38 13l-5 12q-10 26 15 40zM72 486q-4 16 3 25t24 9h72q24 0 30 -24l84 -357q2 -9 7 -12.5t10.5 0t9.5 12.5l158 357q9 24 35 24h72q35 0 19 -34l-333 -683q-11 -23 -36 -23h-57q-16 0 -22 9.5t2 24.5
l97 186h-13q-21 0 -27 20z" />
    <glyph glyph-name="ycircumflex.ss01" horiz-adv-x="566" 
d="M185 639q-11 25 14 36l139 69q29 14 51 0l130 -69q21 -11 7 -36l-10 -19q-12 -21 -36 -13l-102 37q-24 7 -49 -1l-105 -35q-24 -8 -33 12zM72 486q-4 16 3 25t24 9h72q24 0 30 -24l84 -357q2 -9 7 -12.5t10.5 0t9.5 12.5l158 357q9 24 35 24h72q35 0 19 -34l-333 -683
q-11 -23 -36 -23h-57q-16 0 -22 9.5t2 24.5l97 186h-13q-21 0 -27 20z" />
    <glyph glyph-name="ydieresis.ss01" horiz-adv-x="566" 
d="M246 604q-28 0 -46 19t-18 48q0 31 23.5 54t55.5 23q28 0 47 -19t19 -45q0 -33 -24.5 -56.5t-56.5 -23.5zM452 604q-27 0 -46 19.5t-19 48.5q0 31 24.5 53.5t55.5 22.5q28 0 47 -19t19 -45q0 -33 -24.5 -56.5t-56.5 -23.5zM72 486q-4 16 3 25t24 9h72q24 0 30 -24
l84 -357q2 -9 7 -12.5t10.5 0t9.5 12.5l158 357q9 24 35 24h72q35 0 19 -34l-333 -683q-11 -23 -36 -23h-57q-16 0 -22 9.5t2 24.5l97 186h-13q-21 0 -27 20z" />
    <glyph glyph-name="ygrave.ss01" horiz-adv-x="566" 
d="M261 748q16 27 41 11l158 -104q23 -16 8 -40l-9 -12q-16 -24 -40 -14l-175 73q-27 11 -11 38zM72 486q-4 16 3 25t24 9h72q24 0 30 -24l84 -357q2 -9 7 -12.5t10.5 0t9.5 12.5l158 357q9 24 35 24h72q35 0 19 -34l-333 -683q-11 -23 -36 -23h-57q-16 0 -22 9.5t2 24.5
l97 186h-13q-21 0 -27 20z" />
    <glyph glyph-name="uni1EF9.ss01" horiz-adv-x="566" 
d="M504 703q29 -5 21 -33q-10 -36 -40 -56.5t-68 -20.5q-33 0 -72 19t-51 19q-22 0 -36 -16q-14 -18 -35 -14l-25 5q-13 2 -18.5 11.5t-1.5 22.5q11 38 38.5 59t63.5 20q34 0 78 -19.5t53 -19.5q24 0 36 15q12 17 33 13zM72 486q-4 16 3 25t24 9h72q24 0 30 -24l84 -357
q2 -9 7 -12.5t10.5 0t9.5 12.5l158 357q9 24 35 24h72q35 0 19 -34l-333 -683q-11 -23 -36 -23h-57q-16 0 -22 9.5t2 24.5l97 186h-13q-21 0 -27 20z" />
    <glyph glyph-name="zero.zero" horiz-adv-x="764" 
d="M461 740q131 0 213 -93t82 -234q0 -189 -102.5 -306t-271.5 -117q-130 0 -212.5 95t-82.5 238q0 187 103 302t271 115zM449 626q-102 0 -167.5 -84t-65.5 -213q0 -66 22 -119l303 389q-40 27 -92 27zM394 104q101 0 166 84t65 213q0 81 -31 138l-307 -397q43 -38 107 -38
z" />
    <glyph glyph-name="ampersand.ss01" horiz-adv-x="718" 
d="M56 168q0 133 147 197q32 14 12 38q-46 63 -46 126q0 91 62.5 148t176.5 57q80 0 138 -50.5t58 -119.5q0 -128 -149 -200q-32 -17 -10 -39l71 -78q21 -23 42 6q31 44 36 82q6 27 32 27h52q31 0 25 -29q-17 -88 -73 -166q-17 -24 0 -42l66 -72q12 -12 12 -29
q0 -24 -32 -24h-62q-22 0 -33 14l-36 36q-17 18 -41 3q-98 -62 -217 -62q-105 0 -168 47t-63 130zM292 531q0 -38 46 -89q16 -19 41 -7q54 23 79.5 48t25.5 62q0 33 -25 55.5t-63 22.5q-45 0 -74.5 -26.5t-29.5 -65.5zM179 182q0 -37 32.5 -60.5t86.5 -23.5q64 0 122 33
q16 7 18 19t-9 23l-106 113q-18 20 -56 -1q-46 -22 -67 -46t-21 -57z" />
    <glyph glyph-name="paragraph.ss01" horiz-adv-x="790" 
d="M824 730l-11 -104h-81l-79 -758h-125l79 758h-78l-40 -380h-160q-120 0 -184.5 61t-64.5 161q0 116 79.5 189t220.5 73h444z" />
    <glyph glyph-name="caroncomb.alt" 
d="M-158 592q28 0 35 26l47 173q9 31 -22 31h-44q-28 0 -33 -27l-34 -173q-6 -30 24 -30h27z" />
    <glyph glyph-name="uni0308.case" 
d="M-284 775q-30 0 -49 20.5t-19 51.5q0 33 25 57.5t59 24.5q30 0 50.5 -20t20.5 -49q0 -35 -26.5 -60t-60.5 -25zM-63 775q-29 0 -49.5 21t-20.5 52q0 33 26 57t60 24q29 0 49.5 -20t20.5 -49q0 -35 -26 -60t-60 -25z" />
    <glyph glyph-name="uni0307.case" 
d="M-85 594q-32 0 -53 22t-21 55q0 36 27 62t65 26q31 0 53 -21.5t22 -52.5q0 -37 -28 -64t-65 -27z" />
    <glyph glyph-name="gravecomb.case" 
d="M-295 909q12 30 38 19l175 -72q26 -11 15 -38l-6 -14q-12 -27 -37 -21l-185 39q-30 5 -18 35z" />
    <glyph glyph-name="acutecomb.case" 
d="M-119 910q30 11 35 -19l8 -50q4 -28 -27 -33l-199 -29q-29 -5 -34 21l-2 12q-5 27 23 36z" />
    <glyph glyph-name="uni030B.case" 
d="M-280 909q12 22 36 22h57q17 0 21.5 -10t-6.5 -25l-67 -91q-15 -19 -37 -19h-31q-17 0 -22 9t2 24zM-105 909q12 22 36 22h57q17 0 21.5 -10t-6.5 -25l-67 -91q-15 -19 -37 -19h-31q-17 0 -22 9t2 24z" />
    <glyph glyph-name="uni0302.case" 
d="M-357 820q-10 24 15 37l143 71q30 14 52 0l134 -71q23 -13 7 -37l-10 -20q-13 -22 -37 -13l-105 38q-26 7 -50 -1l-108 -36q-25 -9 -34 12z" />
    <glyph glyph-name="uni030C.case" 
d="M-344 887l5 14q9 27 39 18l106 -34q15 -7 31 0l113 34q31 9 34 -18l2 -14q3 -29 -17 -38l-124 -56q-35 -17 -68 0l-111 56q-20 10 -10 38z" />
    <glyph glyph-name="uni0306.case" 
d="M-310 928q20 0 29 -24q14 -42 69 -42q54 0 79 42q14 24 36 24l34 -1q15 0 22 -8t2 -22q-42 -119 -182 -119q-61 -1 -105.5 31t-51.5 87q-2 15 6.5 23t23.5 8z" />
    <glyph glyph-name="uni030A.case" 
d="M-291 761q-49 0 -79.5 29t-30.5 71q0 48 36 82.5t97 34.5q50 0 81.5 -28.5t31.5 -69.5q0 -50 -36.5 -84.5t-99.5 -34.5zM-284 828q21 0 35 13t15 31t-10.5 29.5t-30.5 11.5t-32.5 -13t-14.5 -32q-1 -17 9.5 -28.5t28.5 -11.5z" />
    <glyph glyph-name="tildecomb.case" 
d="M-51 908q29 -5 21 -33q-10 -36 -40 -56.5t-68 -20.5q-33 0 -72 19t-51 19q-22 0 -36 -16q-14 -18 -35 -14l-25 5q-13 2 -18.5 11.5t-1.5 22.5q11 38 38.5 59t63.5 20q33 0 77 -19.5t54 -19.5q24 0 36 15q12 17 33 13z" />
    <glyph glyph-name="uni0304.case" 
d="M-348 866q3 29 31 29h246q14 0 21.5 -8t5.5 -21l-4 -34q-3 -29 -32 -29h-246q-29 0 -26 29z" />
    <glyph glyph-name="uni0337.case" 
d="M-60 560q28 9 34 -18l7 -28q6 -27 -23 -38l-306 -110q-29 -11 -34 18l-5 28q-6 28 22 37z" />
    <glyph glyph-name="uni0338.case" 
d="M57 625q21 21 41 0l17 -16q19 -20 -3 -42l-680 -642q-22 -22 -42 0l-14 15q-20 20 3 42z" />
    <glyph glyph-name="caron.alt" horiz-adv-x="600" 
d="M272 592q28 0 35 26l47 173q9 31 -22 31h-44q-28 0 -33 -27l-34 -173q-6 -30 24 -30h27z" />
    <glyph glyph-name="acute.case" horiz-adv-x="600" 
d="M481 910q30 11 35 -19l8 -50q4 -28 -27 -33l-199 -29q-29 -5 -34 21l-2 12q-5 27 23 36z" />
    <glyph glyph-name="breve.case" horiz-adv-x="600" 
d="M290 928q20 0 29 -24q14 -42 69 -42q54 0 79 42q13 24 36 24l34 -1q15 0 22 -8t2 -22q-42 -119 -182 -119q-61 -1 -105.5 31t-51.5 87q-2 15 6.5 23t23.5 8z" />
    <glyph glyph-name="caron.case" horiz-adv-x="551" 
d="M199 887l5 14q9 27 39 18l106 -34q15 -7 31 0l113 34q31 9 34 -18l2 -14q3 -29 -17 -38l-124 -56q-35 -17 -68 0l-111 56q-20 10 -10 38z" />
    <glyph glyph-name="circumflex.case" horiz-adv-x="543" 
d="M186 820q-10 24 15 37l143 71q30 14 52 0l134 -71q23 -13 7 -37l-10 -20q-13 -22 -37 -13l-105 38q-26 7 -50 -1l-108 -36q-25 -9 -34 12z" />
    <glyph glyph-name="dieresis.case" horiz-adv-x="504" 
d="M220 775q-30 0 -49 20.5t-19 51.5q0 33 25 57.5t59 24.5q30 0 50.5 -20t20.5 -49q0 -35 -26.5 -60t-60.5 -25zM441 775q-29 0 -49.5 21t-20.5 52q0 33 26 57t60 24q29 0 49.5 -20t20.5 -49q0 -35 -26 -60t-60 -25z" />
    <glyph glyph-name="dotaccent.case" horiz-adv-x="293" 
d="M208 594q-32 0 -53 22t-21 55q0 36 27 62t65 26q31 0 53 -21.5t22 -52.5q0 -37 -28 -64t-65 -27z" />
    <glyph glyph-name="grave.case" horiz-adv-x="600" 
d="M234 909q12 30 38 19l175 -72q26 -11 15 -38l-6 -14q-12 -27 -37 -21l-185 39q-30 5 -18 35z" />
    <glyph glyph-name="hungarumlaut.case" horiz-adv-x="600" 
d="M320 909q12 22 36 22h57q17 0 21.5 -10t-6.5 -25l-67 -91q-15 -19 -37 -19h-31q-17 0 -22 9t2 24zM495 909q12 22 36 22h57q17 0 21.5 -10t-6.5 -25l-67 -91q-15 -19 -37 -19h-31q-17 0 -22 9t2 24z" />
    <glyph glyph-name="macron.case" horiz-adv-x="600" 
d="M252 866q3 29 31 29h246q14 0 21.5 -8t5.5 -21l-4 -34q-3 -29 -32 -29h-246q-29 0 -26 29z" />
    <glyph glyph-name="ring.case" horiz-adv-x="521" 
d="M230 761q-49 0 -79.5 29t-30.5 71q0 48 36 82.5t97 34.5q50 0 81.5 -28.5t31.5 -69.5q0 -50 -36.5 -84.5t-99.5 -34.5zM237 828q21 0 35 13t15 31t-10.5 29.5t-30.5 11.5t-32.5 -13t-14.5 -32q-1 -17 9.5 -28.5t28.5 -11.5z" />
    <glyph glyph-name="tilde.case" horiz-adv-x="600" 
d="M523 908q29 -5 21 -33q-10 -36 -40 -56.5t-68 -20.5q-33 0 -72 19t-51 19q-22 0 -36 -16q-14 -18 -35 -14l-25 5q-13 2 -18.5 11.5t-1.5 22.5q11 38 38.5 59t63.5 20q33 0 77 -19.5t54 -19.5q24 0 36 15q12 17 33 13z" />
    <glyph glyph-name="caronalt" horiz-adv-x="600" 
 />
    <glyph glyph-name="IJacute" horiz-adv-x="1015" 
d="M942 910q30 11 35 -19l8 -50q4 -28 -27 -33l-199 -29q-29 -5 -34 21l-2 12q-5 27 23 36zM360 909q30 11 35 -19l8 -50q4 -28 -27 -33l-199 -29q-29 -5 -34 21l-2 12q-5 27 23 36zM263 730q29 0 26 -29l-70 -672q-3 -29 -33 -29h-67q-29 0 -26 29l70 672q3 29 33 29h67z
M352 228q-1 14 7.5 22.5t23.5 8.5h63q24 0 29 -27q9 -59 52 -93.5t113 -34.5q75 0 125 49.5t58 127.5l34 317q3 24 -21 24h-221q-29 0 -26 29l5 50q3 29 33 29h333q37 0 32 -37l-43 -412q-13 -130 -95.5 -210.5t-225.5 -80.5q-115 0 -191.5 68t-84.5 170z" />
    <glyph glyph-name="ijacute" horiz-adv-x="593" 
d="M615 759q28 17 39 -11l18 -47q11 -27 -19 -38l-188 -71q-29 -11 -38 13l-5 12q-10 26 15 40zM290 754q28 17 39 -11l18 -47q11 -27 -19 -38l-188 -71q-29 -11 -38 13l-5 12q-10 26 15 40zM222 520q29 0 26 -29l-49 -462q-3 -29 -32 -29h-63q-29 0 -26 29l48 462
q3 29 33 29h63zM349 -214q-37 0 -61 4q-25 4 -20 33l10 46q4 27 26 25q14 -2 22 -2q58 0 65 67l56 532q3 29 33 29h63q28 0 25 -29l-57 -542q-8 -77 -48.5 -120t-113.5 -43z" />
    <glyph glyph-name="sign" horiz-adv-x="600" 
 />
    <glyph glyph-name="slashlong.case" horiz-adv-x="600" 
 />
    <glyph glyph-name="slashlong" horiz-adv-x="600" 
 />
    <glyph glyph-name="slashshort.case" horiz-adv-x="600" 
 />
    <glyph glyph-name="slashshort" horiz-adv-x="600" 
 />
    <glyph glyph-name="stroke" horiz-adv-x="600" 
 />
    </font>
</defs>
</svg>
