<?xml version="1.0" standalone="no"?>
<!DOCTYPE svg PUBLIC "-//W3C//DTD SVG 1.1//EN" "http://www.w3.org/Graphics/SVG/1.1/DTD/svg11.dtd" >
<svg xmlns="http://www.w3.org/2000/svg" xmlns:xlink="http://www.w3.org/1999/xlink" version="1.1">
<metadata>
Created by FontForge 20170731 at Tue Jun  5 18:41:50 2018
 By Aleksey,,,
(c) 2015-2017 Apple Inc. All rights reserved.
</metadata>
<defs>
<font id="SFCompactText-MediumItalic" horiz-adv-x="0" >
  <font-face 
    font-family="SF Compact Text"
    font-weight="500"
    font-style="italic"
    font-stretch="normal"
    units-per-em="2048"
    panose-1="2 1 6 4 3 2 2 6 2 4"
    ascent="1638"
    descent="-410"
    x-height="1058"
    cap-height="1365"
    bbox="-494 -494 2629 2092"
    underline-thickness="50"
    underline-position="-175"
    slope="-10"
    unicode-range="U+0020-FB02"
  />
<missing-glyph horiz-adv-x="2048" 
d="M-55 -494l45 244h1848l-45 -244h-1848zM22 -54l45 244h1848l-45 -244h-1848zM100 386l44 244h1848l-44 -244h-1848zM177 826l44 244h1848l-44 -244h-1848zM254 1266l45 244h1848l-45 -244h-1848zM332 1706l44 244h1848l-44 -244h-1848z" />
    <glyph glyph-name=".notdef" horiz-adv-x="2048" 
d="M-55 -494l45 244h1848l-45 -244h-1848zM22 -54l45 244h1848l-45 -244h-1848zM100 386l44 244h1848l-44 -244h-1848zM177 826l44 244h1848l-44 -244h-1848zM254 1266l45 244h1848l-45 -244h-1848zM332 1706l44 244h1848l-44 -244h-1848z" />
    <glyph glyph-name=".null" 
 />
    <glyph glyph-name="nonmarkingreturn" 
 />
    <glyph glyph-name="space" unicode=" " horiz-adv-x="457" 
 />
    <glyph glyph-name="exclam" unicode="!" horiz-adv-x="659" 
d="M374 1366h246l-200 -937h-179zM130 127q0 67 45 109.5t115 42.5q72 0 116.5 -41.5t44.5 -106.5q0 -66 -45.5 -108t-118.5 -42q-68 0 -112.5 41t-44.5 105z" />
    <glyph glyph-name="quotedbl" unicode="&#x22;" horiz-adv-x="950" 
d="M304 1365h243l-137 -601h-180zM749 1365h244l-138 -601h-180z" />
    <glyph glyph-name="numbersign" unicode="#" horiz-adv-x="1263" 
d="M1257 831h-223l-85 -284h220l-47 -172h-219l-108 -375h-172l109 375h-286l-109 -375h-172l108 375h-207l47 172h211l86 284h-209l47 172h207l105 362h173l-106 -362h287l104 362h172l-105 -362h219zM575 845l-93 -311h302l92 311h-301z" />
    <glyph glyph-name="dollar" unicode="$" horiz-adv-x="1171" 
d="M703 564l-65 -372q106 5 172.5 57t66.5 136q0 67 -44.5 107t-129.5 72zM632 819l62 352q-92 -5 -157 -51t-65 -127q0 -59 41 -99.5t119 -74.5zM1153 973h-199q1 1 1 15q0 63 -40 107t-106 64l-68 -381l44 -16q56 -21 95.5 -38.5t84 -47.5t71.5 -64t45 -85t18 -113
q0 -189 -137.5 -297t-354.5 -108h-2l-25 -142h-117l27 152q-161 27 -260.5 122t-99.5 226q0 26 4 42h206q-2 -12 -2 -21q0 -63 50 -114t134 -71l71 400l-8 3q-69 24 -123 53t-105 71.5t-79 104t-28 136.5q0 119 63 207.5t167.5 132.5t235.5 44h10l26 145h117l-28 -158
q140 -29 227 -118.5t87 -216.5q0 -4 -1 -18.5t-1 -15.5z" />
    <glyph glyph-name="percent" unicode="%" horiz-adv-x="1541" 
d="M1242 528q-61 0 -99.5 -64.5t-38.5 -167.5q0 -72 26.5 -113t73.5 -41q63 0 100.5 63t37.5 168q0 72 -26.5 113.5t-73.5 41.5zM933 289q0 181 86.5 291.5t229.5 110.5q117 0 190.5 -85.5t73.5 -222.5q0 -182 -87.5 -292.5t-230.5 -110.5q-119 0 -190.5 84.5t-71.5 224.5z
M443 1224q-62 0 -100.5 -64.5t-38.5 -168.5q0 -72 27 -112.5t74 -40.5q63 0 100.5 63t37.5 168q0 72 -27 113.5t-73 41.5zM133 985q0 181 87 291.5t229 110.5q118 0 191.5 -85.5t73.5 -222.5q0 -182 -87.5 -292.5t-230.5 -110.5q-120 0 -191.5 84.5t-71.5 224.5zM248 0
l494 712l428 653h210l-485 -693l-437 -672h-210z" />
    <glyph glyph-name="ampersand" unicode="&#x26;" horiz-adv-x="1412" 
d="M1147 738h191q-9 -95 -21 -152q-37 -202 -189 -370l158 -224l-238 -1l-70 100q-181 -118 -396 -118q-210 0 -338 106t-128 280q0 130 89 229t278 180l27 12q-67 100 -94.5 168.5t-27.5 133.5q0 131 105.5 213t272.5 82q159 0 256.5 -76t97.5 -200q0 -110 -74.5 -195.5
t-237.5 -161.5l-10 -5t-17.5 -8.5t-11.5 -5.5l254 -354q84 114 109 252q13 53 15 115zM598 147q81 0 156 24t128 67l-283 404l-22 -10q-246 -105 -246 -261q0 -98 75 -161t192 -63zM587 1069q0 -85 94 -214q1 0 10.5 3.5t10.5 4.5q224 90 224 226q0 56 -47 92.5t-118 36.5
q-76 0 -125 -42t-49 -107z" />
    <glyph glyph-name="quotesingle" unicode="'" horiz-adv-x="504" 
d="M304 1365h243l-137 -601h-180z" />
    <glyph glyph-name="parenleft" unicode="(" horiz-adv-x="750" 
d="M646 1437h208q-49 -44 -100 -109.5t-109 -170t-103 -224.5t-74.5 -281.5t-29.5 -331.5q0 -208 34 -356t101 -276h-210q-65 114 -108.5 281.5t-43.5 333.5q0 202 38.5 387.5t103 326t138.5 245.5t155 175z" />
    <glyph glyph-name="parenright" unicode=")" horiz-adv-x="750" 
d="M240 1437h210q66 -114 109.5 -281t43.5 -334q0 -163 -26 -316.5t-68.5 -274.5t-100 -228t-117 -183t-123.5 -132h-208q49 45 100 110t109 170t102.5 224.5t74 281t29.5 332.5q0 208 -34 355.5t-101 275.5z" />
    <glyph glyph-name="asterisk" unicode="*" horiz-adv-x="984" 
d="M881 674l-233 218l-17 -317l-160 24l71 307l-283 -146l-61 157l305 90l-267 171l99 133l234 -220l16 319l160 -24l-73 -310l285 148l61 -156l-307 -90l269 -171z" />
    <glyph glyph-name="plus" unicode="+" horiz-adv-x="1171" 
d="M1092 453h-396l-77 -432h-195l77 432h-397l33 195h396l75 417h195l-74 -417h397z" />
    <glyph glyph-name="comma" unicode="," horiz-adv-x="516" 
d="M155 -362h-192l189 601h243z" />
    <glyph glyph-name="hyphen" unicode="-" horiz-adv-x="868" 
d="M764 458h-632l34 208h633z" />
    <glyph glyph-name="hyphen" unicode="&#x2011;" horiz-adv-x="868" 
d="M764 458h-632l34 208h633z" />
    <glyph glyph-name="period" unicode="." horiz-adv-x="570" 
d="M81 139q0 71 45.5 116.5t112.5 45.5q70 0 116 -45.5t46 -116.5q0 -70 -46 -114t-116 -44q-66 0 -112 44.5t-46 113.5z" />
    <glyph glyph-name="slash" unicode="/" horiz-adv-x="750" 
d="M104 -311h-203l808 1748h203z" />
    <glyph glyph-name="zero" unicode="0" horiz-adv-x="1244" 
d="M420 775l-20 -110q-16 -89 -16 -167q-1 -163 56 -243.5t166 -80.5q123 0 205.5 105t118.5 310l19 112q17 99 17 171q1 151 -57.5 235t-169.5 84q-237 0 -319 -416zM180 704l16 96q47 279 187.5 435t361.5 156q208 0 324.5 -138t116.5 -398q0 -106 -16 -193l-18 -98
q-52 -277 -190.5 -434t-359.5 -157q-209 0 -324 135.5t-115 390.5q0 107 17 205z" />
    <glyph glyph-name="one" unicode="1" horiz-adv-x="966" 
d="M609 0h-230l204 1140h-15l-325 -185l34 222l337 188h236z" />
    <glyph glyph-name="two" unicode="2" horiz-adv-x="1164" 
d="M447 997h-212l1 18q7 162 132.5 269.5t321.5 107.5q185 0 304 -99t119 -267q0 -69 -21 -132t-63.5 -122t-87 -106t-111.5 -106l-391 -351l-3 -14h600l-34 -195h-908l28 172l561 518q47 44 76 74t64 73t52 86t17 85q0 76 -56 132.5t-157 56.5q-99 0 -161.5 -56t-70.5 -137
v-7z" />
    <glyph glyph-name="three" unicode="3" horiz-adv-x="1173" 
d="M480 622l30 183q39 -2 100 -2q79 0 142 21t104.5 69.5t41.5 117.5q0 90 -63.5 141t-160.5 51q-89 0 -143 -41.5t-69 -104.5h-219q15 146 133 240.5t306 94.5q118 0 214 -37.5t157 -117.5t61 -190q0 -146 -90 -233.5t-212 -99.5l-2 -14q119 -25 185 -109t66 -208
q0 -181 -138.5 -294.5t-358.5 -113.5q-212 0 -338.5 105.5t-126.5 254.5q0 25 4 47h216v-20q0 -75 69 -133t182 -58q112 0 186 61.5t74 160.5q0 103 -74.5 163.5t-188.5 63.5z" />
    <glyph glyph-name="four" unicode="4" horiz-adv-x="1252" 
d="M818 1365h331l-157 -904h200l-31 -193h-201l-48 -268h-215l48 268h-647l29 198q224 329 691 899zM348 461h430l129 711h-14q-372 -459 -543 -700z" />
    <glyph glyph-name="five" unicode="5" horiz-adv-x="1196" 
d="M146 378h208q-2 -14 -2 -21q0 -72 63.5 -131t170.5 -59q126 0 211.5 84.5t85.5 217.5q0 116 -65.5 181.5t-169.5 65.5q-65 0 -127 -25.5t-99 -72.5h-211l179 747h762l-30 -195h-574l-96 -381h15q38 49 111.5 76t153.5 27q164 0 269 -113t105 -297q0 -222 -144.5 -365.5
t-381.5 -143.5q-106 0 -192 30.5t-138.5 80.5t-80.5 110.5t-28 123.5q0 27 5 60z" />
    <glyph glyph-name="six" unicode="6" horiz-adv-x="1214" 
d="M637 -26q-221 0 -346.5 150.5t-125.5 406.5q0 285 93 489q79 179 213.5 274.5t311.5 95.5q169 0 286 -97t120 -239q0 -20 -1 -25h-206q-7 70 -67.5 117.5t-147.5 47.5q-144 0 -240.5 -128.5t-121.5 -337.5h15q41 69 122.5 112.5t180.5 43.5q174 0 289.5 -116.5
t115.5 -294.5q0 -211 -138.5 -355t-352.5 -144zM654 711q-112 0 -186.5 -78.5t-74.5 -193.5t71 -193t179 -78q116 0 189 83t73 211q0 109 -70 179t-181 70z" />
    <glyph glyph-name="seven" unicode="7" horiz-adv-x="1127" 
d="M238 1365h906l-25 -187l-745 -1178h-252l745 1155l2 15h-659z" />
    <glyph glyph-name="eight" unicode="8" horiz-adv-x="1239" 
d="M889 702q115 -34 181 -122.5t66 -206.5q0 -176 -140.5 -288t-363.5 -112q-222 0 -361.5 108t-139.5 280q0 143 100.5 246.5t255.5 120.5l3 14q-199 98 -199 290q0 157 127 258.5t324 101.5q193 0 316.5 -98t123.5 -252q0 -124 -83 -216.5t-208 -107.5zM630 153
q122 0 201 68.5t79 174.5q0 101 -76 167t-193 66q-119 0 -198 -71.5t-79 -178.5q0 -101 74 -163.5t192 -62.5zM728 804q101 0 167 61t66 155q0 88 -59.5 142t-156.5 54q-101 0 -167 -61.5t-66 -155.5q0 -86 60.5 -140.5t155.5 -54.5z" />
    <glyph glyph-name="nine" unicode="9" horiz-adv-x="1206" 
d="M689 1392q220 0 341.5 -141t121.5 -390q0 -240 -59 -410q-62 -230 -195 -352.5t-332 -122.5q-180 0 -300 99t-124 239q-1 19 0 30h209q2 -76 67.5 -123.5t160.5 -47.5q138 0 225 123.5t117 347.5h-13q-34 -66 -119.5 -112t-183.5 -46q-174 0 -289 119t-115 299
q0 207 138.5 347.5t349.5 140.5zM671 663q112 0 185.5 78.5t73.5 193.5t-68.5 190t-176.5 75q-111 0 -184 -83.5t-73 -204.5q0 -109 68 -179t175 -70z" />
    <glyph glyph-name="colon" unicode=":" horiz-adv-x="574" 
d="M202 805q0 71 45.5 116.5t112.5 45.5q70 0 116 -45.5t46 -116.5q0 -70 -46.5 -114t-115.5 -44q-66 0 -112 44.5t-46 113.5zM83 139q0 71 45.5 116.5t112.5 45.5q70 0 116 -45.5t46 -116.5q0 -70 -46 -114t-116 -44q-66 0 -112 44.5t-46 113.5z" />
    <glyph glyph-name="semicolon" unicode=";" horiz-adv-x="562" 
d="M230 805q0 72 45.5 117t112.5 45q69 0 115 -45.5t46 -116.5q0 -70 -46 -114t-115 -44q-66 0 -112 44.5t-46 113.5zM170 -362h-192l188 601h244z" />
    <glyph glyph-name="less" unicode="&#x3c;" horiz-adv-x="1171" 
d="M186 441l28 168l907 519l-42 -243l-649 -356l-2 -12l532 -332l-39 -230z" />
    <glyph glyph-name="equal" unicode="=" horiz-adv-x="1171" 
d="M1008 245h-889l31 195h886zM1074 660h-885l33 195h885z" />
    <glyph glyph-name="greater" unicode="&#x3e;" horiz-adv-x="1171" 
d="M1033 604l-27 -163l-904 -486l40 239l649 337l3 12l-528 350l40 222z" />
    <glyph glyph-name="question" unicode="?" horiz-adv-x="1070" 
d="M323 127q0 67 45.5 109.5t115.5 42.5q71 0 115.5 -41t44.5 -107t-45.5 -108t-118.5 -42q-68 0 -112.5 41t-44.5 105zM213 1022q15 164 129 267.5t310 103.5q184 0 304.5 -91t120.5 -253q0 -63 -19.5 -116.5t-57.5 -95.5t-77.5 -72t-93.5 -61q-79 -47 -113 -71.5
t-56.5 -58.5t-28.5 -84l-11 -59h-205l10 64q14 114 64 182t176 140q51 30 76.5 47t57 45t44.5 58.5t13 67.5q0 79 -60.5 124t-150.5 45q-95 0 -151.5 -51t-70.5 -131h-210z" />
    <glyph glyph-name="at" unicode="@" horiz-adv-x="1745" 
d="M1057 277q-25 -62 -84.5 -101.5t-148.5 -39.5q-114 0 -185 74.5t-71 194.5q0 45 8 95l16 87q26 142 107 221.5t199 79.5q87 0 141.5 -47t60.5 -109h8l23 131h162l-82 -469q-3 -15 -3 -35q0 -43 28.5 -68.5t73.5 -25.5q75 0 134 69t82 212l5 32q7 41 7 107
q0 150 -75.5 262.5t-203 170t-286.5 57.5q-243 0 -420.5 -151t-226.5 -414l-8 -42q-13 -73 -13 -147q0 -139 45.5 -246.5t128 -174t191.5 -100t242 -33.5q128 0 193 20l-24 -139q-66 -22 -192 -22q-161 0 -296 43.5t-235.5 127.5t-156.5 215.5t-56 298.5q0 76 16 168l10 55
q58 320 276.5 502t525.5 182q164 0 300.5 -49t227.5 -133.5t141 -197.5t50 -242q0 -86 -8 -129l-8 -49q-33 -186 -138.5 -284.5t-245.5 -98.5q-85 0 -148.5 41.5t-76.5 100.5h-10zM751 499q-7 -35 -7 -71q0 -65 36.5 -106.5t105.5 -41.5q61 0 104.5 43t59.5 134l14 82
q5 32 5 52q0 62 -37.5 106t-103.5 44q-59 0 -102.5 -45.5t-62.5 -138.5z" />
    <glyph glyph-name="A" unicode="A" horiz-adv-x="1281" 
d="M-27 0l708 1365h263l229 -1365h-240l-55 372h-479l-188 -372h-238zM779 1121h-15l-281 -567h375z" />
    <glyph glyph-name="B" unicode="B" horiz-adv-x="1298" 
d="M111 0l241 1365h499q105 0 182.5 -25t121.5 -69t64.5 -96.5t20.5 -114.5q0 -131 -85 -223.5t-196 -114.5l-2 -13q109 -17 178.5 -95t69.5 -202q0 -194 -149.5 -303t-409.5 -109h-535zM548 1185l-71 -391h246q124 0 202.5 60.5t78.5 167.5q0 83 -57 123t-175 40h-224z
M447 618l-78 -435h277q145 0 236.5 63.5t91.5 177.5q0 92 -67.5 143t-206.5 51h-253z" />
    <glyph glyph-name="C" unicode="C" horiz-adv-x="1308" 
d="M434 833l-35 -173q-13 -72 -13 -147q0 -152 82.5 -240.5t230.5 -88.5q115 0 194 58.5t100 157.5h220q-6 -34 -7 -39q-30 -171 -172.5 -279.5t-352.5 -108.5q-245 0 -385.5 144t-140.5 396q0 84 9 138l42 221q45 243 197 381.5t384 138.5q221 0 364 -124t143 -301
q0 -43 -6 -61h-218q2 31 1 41q-9 103 -89.5 170t-198.5 67q-136 0 -225 -88t-124 -263z" />
    <glyph glyph-name="D" unicode="D" horiz-adv-x="1369" 
d="M352 1365h426q260 0 401 -143t141 -383q0 -83 -10 -143q-1 -8 -13 -72t-14 -74q-52 -266 -241.5 -408t-505.5 -142h-425zM547 1165l-173 -965h151q214 0 352.5 93.5t177.5 279.5q22 112 24 131q8 47 8 120q0 172 -98 256.5t-282 84.5h-160z" />
    <glyph glyph-name="E" unicode="E" horiz-adv-x="1151" 
d="M992 200l-34 -200h-847l241 1365h844l-34 -200h-615l-69 -374h584l-32 -188h-583l-74 -403h619z" />
    <glyph glyph-name="F" unicode="F" horiz-adv-x="1125" 
d="M339 0h-228l243 1365h842l-34 -199h-614l-74 -409h563l-33 -195h-563z" />
    <glyph glyph-name="G" unicode="G" horiz-adv-x="1362" 
d="M207 876q46 246 202.5 381t389.5 135q126 0 227.5 -38t163 -99.5t93.5 -135t32 -149.5q0 -29 -2 -35h-221v27q-2 36 -19.5 73t-51 72.5t-92 57.5t-133.5 22q-145 0 -237.5 -91t-125.5 -261l-37 -179q-13 -81 -13 -145q0 -164 89.5 -249.5t229.5 -85.5q116 0 205.5 57
t108.5 155l27 147h-313l31 177h532l-58 -326q-34 -192 -183.5 -302.5t-363.5 -110.5q-110 0 -204 31t-169.5 93.5t-119 167.5t-43.5 241q0 81 12 153z" />
    <glyph glyph-name="H" unicode="H" horiz-adv-x="1437" 
d="M340 0h-229l241 1365h228l-99 -563h622l99 563h229l-241 -1365h-228l107 601h-622z" />
    <glyph glyph-name="I" unicode="I" horiz-adv-x="586" 
d="M339 0h-228l241 1365h228z" />
    <glyph glyph-name="J" unicode="J" horiz-adv-x="1067" 
d="M1065 1365l-174 -987q-35 -198 -147.5 -301.5t-287.5 -103.5q-177 0 -293 98t-116 259q0 44 7 70h214q-1 -15 -1 -36q0 -76 51.5 -125t135.5 -49q173 0 213 217l169 958h229z" />
    <glyph glyph-name="K" unicode="K" horiz-adv-x="1305" 
d="M581 1365l-118 -632h14l665 632h282l-631 -612l397 -753h-259l-318 619l-194 -175l-80 -444h-228l241 1365h229z" />
    <glyph glyph-name="L" unicode="L" horiz-adv-x="1059" 
d="M971 204l-34 -204h-826l241 1365h228l-207 -1161h598z" />
    <glyph glyph-name="M" unicode="M" horiz-adv-x="1653" 
d="M322 0h-211l241 1365h229l241 -922h9l568 922h249l-241 -1365h-211l171 953h-12l-507 -815h-135l-210 815h-13z" />
    <glyph glyph-name="N" unicode="N" horiz-adv-x="1430" 
d="M1183 0h-199l-468 970h-11l-174 -970h-220l241 1365h202l463 -968h12l175 968h220z" />
    <glyph glyph-name="O" unicode="O" horiz-adv-x="1392" 
d="M432 835l-33 -174q-14 -73 -14 -146q0 -153 86.5 -243.5t241.5 -90.5q142 0 233 91.5t124 273.5l34 184q8 50 8 128q0 148 -88 238.5t-239 90.5q-135 0 -227 -85.5t-126 -266.5zM167 674l37 202q44 245 201.5 380.5t387.5 135.5q248 0 399.5 -143t151.5 -392
q0 -87 -14 -162l-38 -203q-46 -250 -197.5 -384.5t-404.5 -134.5q-235 0 -385.5 138t-150.5 378q0 112 13 185z" />
    <glyph glyph-name="P" unicode="P" horiz-adv-x="1216" 
d="M339 0h-228l241 1366h469q198 0 308 -105t110 -275q0 -49 -7 -94q-29 -198 -169 -306t-390 -108h-249zM773 1176h-225l-90 -500h222q155 0 232.5 63.5t91.5 165.5q6 30 6 66q0 95 -59.5 150t-177.5 55z" />
    <glyph glyph-name="Q" unicode="Q" horiz-adv-x="1407" 
d="M168 680l35 190q43 246 200.5 384t385.5 138q248 0 399.5 -143.5t151.5 -397.5q0 -79 -15 -162l-36 -191q-49 -271 -227 -403l134 -230h-229l-82 134q-90 -26 -194 -26q-154 0 -274.5 59.5t-192 179t-71.5 283.5q0 98 15 185zM854 412l83 -134q95 83 129 259l36 196
q8 44 8 130q0 150 -88.5 238t-237.5 88q-137 0 -228.5 -86.5t-125.5 -265.5l-35 -182q-14 -82 -14 -152q0 -157 88 -245t242 -88q31 0 71 7l-142 235h214z" />
    <glyph glyph-name="R" unicode="R" horiz-adv-x="1291" 
d="M340 0h-229l241 1366h489q198 0 305.5 -98.5t107.5 -266.5q0 -47 -5 -77q-17 -140 -102 -236.5t-212 -135.5l184 -552h-240l-167 520q-30 -2 -64 -2h-216zM785 1172h-237l-84 -464h232q287 0 318 221q5 28 5 58q0 88 -58.5 136.5t-175.5 48.5z" />
    <glyph glyph-name="S" unicode="S" horiz-adv-x="1234" 
d="M106 395h218q-1 -7 -1 -22q0 -85 81.5 -146t210.5 -61q120 0 196.5 55t76.5 148q0 34 -12.5 62t-31 47t-51.5 37.5t-61 30t-72 26.5l-80 29q-57 20 -103.5 42t-94.5 56t-80 73t-52.5 94.5t-20.5 119.5q0 126 66.5 219.5t176.5 140t248 46.5q127 0 232 -45t167.5 -129.5
t62.5 -193.5q0 -5 -1 -20t-1 -16h-210v2q0 2 0.5 6t0.5 8q0 89 -74 141t-179 52q-103 0 -178.5 -49t-75.5 -138q0 -73 59.5 -120t174.5 -89l96 -34q58 -21 100 -40t88 -50.5t74.5 -67.5t47.5 -90t19 -119q0 -200 -144.5 -313.5t-373.5 -113.5q-216 0 -359 106.5t-143 270.5
q0 24 3 45z" />
    <glyph glyph-name="T" unicode="T" horiz-adv-x="1126" 
d="M609 0h-228l207 1163h-402l34 202h1030l-32 -202h-402z" />
    <glyph glyph-name="U" unicode="U" horiz-adv-x="1388" 
d="M565 1365l-144 -823q-8 -34 -8 -89q0 -121 76 -193.5t207 -72.5q121 0 204 69t108 207l160 902h232l-166 -944q-39 -220 -185 -333.5t-362 -113.5q-145 0 -258.5 50t-182 152.5t-68.5 242.5q0 57 13 128l143 818h231z" />
    <glyph glyph-name="V" unicode="V" horiz-adv-x="1270" 
d="M702 0h-265l-229 1365h248l146 -1111h12l543 1111h252z" />
    <glyph glyph-name="W" unicode="W" horiz-adv-x="1803" 
d="M549 0h-227l-89 1365h240l27 -1038h13l458 1038h194l97 -1038h13l401 1038h241l-571 -1365h-222l-110 987h-12z" />
    <glyph glyph-name="X" unicode="X" horiz-adv-x="1253" 
d="M1118 1365h269l-570 -683l331 -682h-255l-243 511l-11 1l-404 -512h-264l553 689l-314 676h261l223 -509l11 -1z" />
    <glyph glyph-name="Y" unicode="Y" horiz-adv-x="1166" 
d="M730 541l-96 -541h-229l96 536l-323 829h243l220 -605h12l425 605h256z" />
    <glyph glyph-name="Z" unicode="Z" horiz-adv-x="1217" 
d="M73 0l28 167l853 985l2 15h-678l34 198h955l-26 -171l-852 -981l-2 -15h706l-34 -198h-986z" />
    <glyph glyph-name="bracketleft" unicode="[" horiz-adv-x="750" 
d="M381 1437h497l-29 -173h-286l-250 -1403h287l-30 -173h-498z" />
    <glyph glyph-name="backslash" unicode="\" horiz-adv-x="750" 
d="M602 -298h-202l-189 1720h202z" />
    <glyph glyph-name="bracketright" unicode="]" horiz-adv-x="750" 
d="M244 1437h497l-309 -1749h-497l31 188h287l248 1389h-287z" />
    <glyph glyph-name="asciicircum" unicode="^" horiz-adv-x="875" 
d="M881 797h-194l-106 382h-11l-245 -382h-196l373 568h203z" />
    <glyph glyph-name="underscore" unicode="_" horiz-adv-x="957" 
d="M833 -273h-922l33 180h923z" />
    <glyph glyph-name="grave" unicode="`" horiz-adv-x="1000" 
d="M789 1228h-157l-250 354h211z" />
    <glyph glyph-name="a" unicode="a" horiz-adv-x="1121" 
d="M407 -16q-136 0 -226.5 80t-90.5 217q0 21 2 33q11 145 122 226t307 81h270l11 69q4 18 4 41q0 68 -48 116t-148 48q-81 0 -131 -31.5t-65 -81.5h-213q21 127 132 210t293 83q187 0 290 -91t103 -248q0 -49 -16 -139l-105 -597h-212l25 140h-13q-31 -64 -107 -110
t-184 -46zM313 307q0 -65 46 -106t125 -41q94 0 167 53.5t89 136.5l22 121h-232q-106 0 -161.5 -46.5t-55.5 -117.5z" />
    <glyph glyph-name="b" unicode="b" horiz-adv-x="1215" 
d="M675 -16q-119 0 -204.5 66t-105.5 155h-12l-37 -205h-222l255 1437h224l-101 -558h15q15 35 37.5 66t58 61t89 48t117.5 18q163 0 261 -106t98 -287q0 -82 -9 -134l-30 -157q-32 -186 -144 -295t-290 -109zM405 434q0 -117 69.5 -186t161.5 -69q103 0 171.5 71t89.5 185
l23 126q4 24 4 88q0 110 -59.5 173t-165.5 63t-176.5 -74t-91.5 -198l-20 -123q-6 -35 -6 -56z" />
    <glyph glyph-name="c" unicode="c" horiz-adv-x="1086" 
d="M120 397q0 64 13 147l24 131q35 197 161 299t311 102q187 0 302.5 -97.5t115.5 -252.5q0 -19 -1 -24h-212v13q0 66 -54.5 119.5t-151.5 53.5q-98 0 -167 -65t-91 -186l-20 -111q-10 -50 -10 -100q0 -119 57 -185t170 -66q84 0 138 34.5t67 89.5h216
q-23 -150 -142.5 -233.5t-290.5 -83.5q-199 0 -317 112t-118 303z" />
    <glyph glyph-name="d" unicode="d" horiz-adv-x="1218" 
d="M597 1072q124 0 207.5 -67.5t96.5 -151.5h14l103 584h224l-254 -1437h-221l31 174h-15q-26 -74 -104 -130.5t-195 -56.5q-164 0 -265.5 107.5t-101.5 289.5q0 82 11 133l31 156q34 182 147 290.5t291 108.5zM871 634q0 119 -69.5 184.5t-162.5 65.5q-105 0 -171.5 -70
t-90.5 -187l-25 -124q-6 -34 -6 -84q0 -113 61.5 -177t166.5 -64q107 0 177 73.5t92 199.5l23 123q5 29 5 60z" />
    <glyph glyph-name="e" unicode="e" horiz-adv-x="1117" 
d="M545 -18q-190 0 -308.5 106.5t-118.5 305.5q0 62 16 153l24 126q33 193 164 298t319 105q111 0 196 -38.5t132.5 -103t67.5 -144t10 -165.5q0 -18 -26 -148h-680q-9 -36 -9 -86q0 -96 55.5 -160.5t171.5 -64.5q85 0 141 34.5t72 87.5h215q-19 -124 -140 -215t-302 -91z
M833 627q3 12 3 23q19 105 -34.5 176t-166.5 71q-92 0 -161 -54t-92 -159l-13 -57h464z" />
    <glyph glyph-name="f" unicode="f" horiz-adv-x="780" 
d="M161 0l155 869h-169l30 181h171l9 65q23 166 119 244.5t274 78.5q70 0 135 -12l-29 -168q-38 6 -94 6q-82 0 -126.5 -36t-59.5 -116l-11 -62h239l-32 -181h-235l-154 -869h-222z" />
    <glyph glyph-name="g" unicode="g" horiz-adv-x="1219" 
d="M596 1072q123 0 204 -60.5t106 -154.5h13l36 199h221l-184 -1053q-69 -390 -501 -390q-196 0 -311 91.5t-115 218.5q0 3 0.5 7t0.5 8v3h212q0 -9 2 -13q3 -54 66 -94.5t156 -40.5q126 0 191.5 62t87.5 190l24 141h-14q-30 -72 -106.5 -118t-186.5 -46q-155 0 -263 110
t-108 294q0 76 14 144l20 98q27 136 94 229t153 134t188 41zM871 639q0 112 -64.5 178.5t-168.5 66.5q-101 0 -169 -70.5t-92 -195.5l-14 -76q-11 -53 -11 -100q0 -117 62 -182.5t172 -65.5q98 0 168.5 72t92.5 195l15 84q9 48 9 94z" />
    <glyph glyph-name="h" unicode="h" horiz-adv-x="1222" 
d="M95 0l253 1437h223l-100 -547h14q41 88 120 136t189 48q156 0 241 -93t85 -233q0 -54 -21 -184l-100 -564h-224l102 577q12 62 12 118q0 86 -45 139.5t-139 53.5q-114 0 -186 -79t-94 -205l-107 -604h-223z" />
    <glyph glyph-name="i" unicode="i" horiz-adv-x="573" 
d="M107 0l187 1058h223l-187 -1058h-223zM300 1369q0 63 42 102t107 39q66 0 106 -38t40 -98q0 -61 -42.5 -100t-109.5 -39q-63 0 -103 37.5t-40 96.5z" />
    <glyph glyph-name="j" unicode="j" horiz-adv-x="573" 
d="M517 1058l-192 -1084q-32 -178 -128 -261.5t-274 -83.5q-57 0 -109 13l35 181q36 -9 78 -9q70 0 115.5 41t58.5 114l192 1089h224zM300 1369q0 63 42 102t107 39t105.5 -37.5t40.5 -98.5t-42 -100t-109 -39q-63 0 -103.5 37.5t-40.5 96.5z" />
    <glyph glyph-name="k" unicode="k" horiz-adv-x="1117" 
d="M386 404l-72 -404h-220l253 1437h219l-138 -786h14l458 407h281l-496 -432l319 -626h-240l-252 508z" />
    <glyph glyph-name="l" unicode="l" horiz-adv-x="573" 
d="M106 0l255 1437h223l-254 -1437h-224z" />
    <glyph glyph-name="m" unicode="m" horiz-adv-x="1801" 
d="M94 0l186 1058h217l-31 -175h14q36 86 111.5 138.5t183.5 52.5q110 0 184.5 -52.5t102.5 -142.5h13q39 84 117 139.5t198 55.5q151 0 230 -89t79 -229q0 -60 -21 -186l-101 -570h-223l102 583q11 57 11 113q0 88 -39 140t-123 52q-96 0 -158 -74t-84 -202l-109 -612h-219
l104 583q10 65 10 115q0 85 -39 137.5t-127 52.5q-107 0 -171 -75t-86 -202l-108 -611h-224z" />
    <glyph glyph-name="n" unicode="n" horiz-adv-x="1216" 
d="M94 0l186 1058h219l-30 -168h14q43 86 120.5 135t188.5 49q158 0 240 -92t82 -233q0 -67 -21 -185l-100 -564h-224l102 577q12 70 12 118q0 87 -45.5 140t-135.5 53q-114 0 -184.5 -77.5t-93.5 -206.5l-106 -604h-224z" />
    <glyph glyph-name="o" unicode="o" horiz-adv-x="1162" 
d="M376 631l-20 -114q-10 -52 -10 -102q0 -112 63.5 -179.5t173.5 -67.5q102 0 167.5 69.5t88.5 198.5l21 121q5 39 5 92q0 108 -63 174t-171 66q-98 0 -165.5 -65t-89.5 -193zM134 550l21 119q33 189 163.5 298t315.5 109q207 0 332 -118.5t125 -319.5q0 -71 -11 -127
l-23 -120q-37 -193 -162 -301t-327 -108q-197 0 -321.5 114.5t-124.5 309.5q0 85 12 144z" />
    <glyph glyph-name="p" unicode="p" horiz-adv-x="1214" 
d="M669 -15q-123 0 -204.5 67.5t-97.5 152.5h-14l-97 -556h-223l247 1409h222l-32 -179h15q31 81 105.5 137t193.5 56q163 0 263.5 -106t100.5 -287q0 -79 -10 -134l-30 -157q-29 -183 -143.5 -293t-295.5 -110zM400 434q0 -121 69.5 -188t159.5 -67q106 0 175.5 71.5
t89.5 184.5l24 126q5 37 5 88q0 110 -62 173t-168 63t-176 -73.5t-92 -198.5l-21 -123q-4 -25 -4 -56z" />
    <glyph glyph-name="q" unicode="q" horiz-adv-x="1215" 
d="M598 1072q123 0 206 -66.5t99 -152.5h15l36 205h220l-252 -1409h-223l97 523h-15q-31 -74 -105.5 -129t-189.5 -55q-163 0 -266 107t-103 287q0 82 11 135l33 156q34 179 147.5 289t289.5 110zM869 636q0 119 -69 183.5t-160 64.5q-104 0 -172 -73t-90 -184l-26 -124
q-6 -28 -6 -84q0 -112 62.5 -176t167.5 -64q106 0 176 73.5t91 198.5l22 122q4 21 4 63z" />
    <glyph glyph-name="r" unicode="r" horiz-adv-x="813" 
d="M94 0l186 1058h212l-32 -176h14q29 81 105 136.5t184 55.5q44 0 98 -15l-43 -209q-41 18 -103 18q-127 0 -199.5 -81t-96.5 -215l-102 -572h-223z" />
    <glyph glyph-name="s" unicode="s" horiz-adv-x="1054" 
d="M198 755q0 145 104 233t294 88q182 0 291 -87.5t109 -207.5v-26h-200v12q0 53 -53.5 98t-145.5 45q-85 0 -134.5 -37.5t-49.5 -93.5q0 -16 3.5 -29.5t12.5 -25.5t16.5 -21t24.5 -18.5t27.5 -15t33.5 -14t34.5 -12.5t39 -12.5t38.5 -12.5q66 -21 112.5 -43.5t89 -57.5
t64.5 -85.5t22 -116.5q0 -161 -118.5 -248.5t-310.5 -87.5q-181 0 -303.5 87.5t-122.5 225.5q0 16 1 19h204q0 -2 0.5 -8.5t0.5 -9.5q10 -60 72 -100.5t157 -40.5t147.5 38.5t52.5 103.5q0 27 -12 49.5t-27 36t-48 28.5t-54 22t-67 21q-32 10 -54 18t-57 23t-59 30.5
t-51.5 39.5t-44 51t-28 63.5t-11.5 78.5z" />
    <glyph glyph-name="t" unicode="t" horiz-adv-x="782" 
d="M338 1050l47 264h217l-46 -264h226l-32 -181h-223l-84 -472q-17 -89 -17 -123q0 -54 30 -78t94 -24q72 0 115 10l-30 -175q-54 -15 -153 -15q-287 0 -287 213q0 44 13 120l97 544h-156l32 181h157z" />
    <glyph glyph-name="u" unicode="u" horiz-adv-x="1206" 
d="M1162 1058l-186 -1058h-213l31 173h-15q-40 -83 -119 -136t-189 -53q-154 0 -241.5 89.5t-87.5 233.5q0 75 20 181l104 570h222l-102 -573q-13 -67 -13 -125q0 -87 49 -135.5t142 -48.5q113 0 182 76.5t91 205.5l106 600h219z" />
    <glyph glyph-name="v" unicode="v" horiz-adv-x="1074" 
d="M338 0l-172 1058h231l97 -833h11l376 833h231l-523 -1058h-251z" />
    <glyph glyph-name="w" unicode="w" horiz-adv-x="1525" 
d="M1579 1058l-461 -1058h-236l-64 779h-9l-312 -779h-243l-113 1058h224l48 -827h11l329 827h205l63 -827h11l322 827h225z" />
    <glyph glyph-name="x" unicode="x" horiz-adv-x="1052" 
d="M699 0l-172 380h-8l-290 -380h-245l423 531l-255 527h243l169 -387h10l292 387h252l-438 -533l259 -525h-240z" />
    <glyph glyph-name="y" unicode="y" horiz-adv-x="1093" 
d="M1132 1058l-528 -1051q-1 -2 -12 -22t-21 -38.5t-10 -20.5q-88 -170 -179.5 -233.5t-252.5 -63.5q-74 0 -130 14l35 178q41 -11 94 -11q70 0 114.5 32.5t80.5 107.5l28 64l-185 1044h231l112 -834h12l373 834h238z" />
    <glyph glyph-name="z" unicode="z" horiz-adv-x="996" 
d="M45 0l30 170l645 695l3 14h-542l32 179h807l-31 -177l-636 -684l-3 -14h540l-32 -183h-813z" />
    <glyph glyph-name="braceleft" unicode="{" horiz-adv-x="750" 
d="M291 592l-5 -27q82 -9 121.5 -68.5t21.5 -162.5q-54 -292 -54 -316q-4 -62 9 -94t52.5 -47.5t119.5 -15.5h42l-29 -173h-86q-177 0 -255 67t-67 208q0 50 48 304q19 107 -9.5 153.5t-126.5 46.5l37 223q98 0 142.5 45.5t64.5 153.5l38 206q15 82 44 143t67.5 98.5
t92 60.5t110.5 31.5t131 8.5h78l-29 -173h-42q-122 0 -176.5 -51t-72.5 -151l-45 -250q-20 -110 -73.5 -162t-148.5 -58z" />
    <glyph glyph-name="bar" unicode="|" horiz-adv-x="750" 
d="M353 -311h-202l309 1748h202z" />
    <glyph glyph-name="braceright" unicode="}" horiz-adv-x="750" 
d="M527 565l5 27q-82 8 -121.5 67.5t-21.5 162.5q50 259 50 286q4 62 -9 93.5t-53 47t-121 15.5h-41l29 173h85q178 0 256.5 -67t67.5 -207q0 -51 -12.5 -129t-25 -137.5t-12.5 -65.5q-5 -74 27.5 -107.5t115.5 -33.5l-38 -223q-97 0 -142.5 -46t-64.5 -154l-43 -236
q-18 -102 -56.5 -171t-99 -106t-129 -51.5t-161.5 -14.5h-77l29 174h42q122 0 177 51t72 151l50 280q19 110 73 162t149 59z" />
    <glyph glyph-name="asciitilde" unicode="~" horiz-adv-x="1167" 
d="M839 480q-61 0 -113 23.5t-88.5 57t-69.5 67t-70.5 57t-75.5 23.5q-52 0 -88 -41.5t-45 -110.5h-173q3 149 83.5 248t213.5 99q61 0 113 -23.5t88.5 -56.5t69 -66t70.5 -56.5t78 -23.5q54 0 88 39.5t43 103.5h174q-9 -147 -89.5 -243.5t-208.5 -96.5z" />
    <glyph glyph-name="nonbreakingspace" unicode="&#xa0;" horiz-adv-x="457" 
 />
    <glyph glyph-name="exclamdown" unicode="&#xa1;" horiz-adv-x="658" 
d="M580 932q0 -67 -45.5 -109.5t-114.5 -42.5q-72 0 -116.5 41.5t-44.5 107.5t45.5 107.5t118.5 41.5q68 0 112.5 -41t44.5 -105zM336 -306h-247l201 937h178z" />
    <glyph glyph-name="cent" unicode="&#xa2;" horiz-adv-x="1171" 
d="M177 545q0 68 14 147l23 132q31 184 149 286t290 111l41 232h180l-45 -249q127 -32 201 -122t74 -207q0 -19 -1 -24h-208q1 2 1 13q0 67 -56.5 120.5t-154.5 53.5t-167.5 -65t-90.5 -187l-20 -112q-10 -57 -10 -100q0 -119 58 -185.5t170 -66.5q83 0 136.5 35t66.5 90
h217q-21 -139 -133.5 -222.5t-269.5 -87.5h-1l-39 -221h-180l41 235q-133 36 -209.5 140.5t-76.5 253.5z" />
    <glyph glyph-name="sterling" unicode="&#xa3;" horiz-adv-x="1171" 
d="M1201 1346l-32 -186q-42 21 -108.5 35t-132.5 14q-125 0 -201.5 -54.5t-93.5 -160.5q-6 -40 -6 -99t9 -145h380l-23 -125h-346q1 -16 1 -47q0 -60 -7 -96q-16 -94 -67 -170t-119 -111l-2 -15h600l-32 -186h-932l30 176q116 20 202.5 103t106.5 196q6 36 6 96q0 18 -2 54
h-238l23 125h205q-10 110 -10 164q0 75 6 110q63 373 512 373q72 0 150.5 -16t120.5 -35z" />
    <glyph glyph-name="currency" unicode="&#xa4;" horiz-adv-x="1171" 
d="M396 652q0 -97 67 -165t162 -68t161.5 68t66.5 165q0 96 -67 164t-161 68q-95 0 -162 -68t-67 -164zM919 114l-131 173q-74 -37 -169 -37q-138 0 -240 88l-202 -151l-103 133l200 152q-40 83 -40 186q0 135 90 241l-140 186l129 112l138 -185q81 43 183 43q134 0 238 -92
l213 160l105 -135l-215 -159q41 -84 41 -184q0 -138 -99 -249l129 -172z" />
    <glyph glyph-name="yen" unicode="&#xa5;" horiz-adv-x="1171" 
d="M1338 1365l-534 -731h232l-19 -110h-284l-26 -143h284l-19 -110h-284l-49 -271h-228l49 271h-288l19 110h288l26 143h-288l19 110h233l-282 731h243l217 -605h12l423 605h256z" />
    <glyph glyph-name="brokenbar" unicode="&#xa6;" horiz-adv-x="750" 
d="M548 787h-202l114 650h202zM353 -311h-202l119 672h202z" />
    <glyph glyph-name="section" unicode="&#xa7;" horiz-adv-x="984" 
d="M43 86h190v-4q1 -80 61.5 -122t152.5 -42q86 0 136 39.5t50 99.5q0 56 -45 90t-153 78q-1 1 -8 4t-8 3q-66 27 -113 54t-89 65t-63.5 88.5t-21.5 113.5q0 105 64 173.5t157 97.5l1 8q-49 34 -86 94t-37 143q0 151 111 237.5t282 86.5q158 0 267.5 -91.5t107.5 -230.5
q0 -10 -4 -36h-188q2 16 2 20q2 73 -56.5 117t-135.5 44q-74 0 -127.5 -35t-53.5 -99q0 -65 49.5 -105t157.5 -83q71 -29 118.5 -56t91.5 -64t65.5 -85.5t21.5 -108.5q0 -105 -58 -180t-148 -111v-8q105 -83 105 -207q0 -104 -56 -180.5t-146.5 -114t-201.5 -37.5
q-103 0 -193 37.5t-147 112t-55 169.5q0 15 3 25zM583 370q60 16 103.5 65.5t43.5 114.5q0 57 -42.5 97.5t-125.5 73.5q-47 18 -66 23q-64 -11 -111 -61.5t-47 -111.5q0 -56 42 -96t122 -76q27 -12 81 -29z" />
    <glyph glyph-name="dieresis" unicode="&#xa8;" horiz-adv-x="1000" 
d="M478 1231q-52 0 -85.5 32t-33.5 83q0 50 33.5 82.5t85.5 32.5q51 0 85 -32.5t34 -82.5q0 -51 -34 -83t-85 -32zM862 1231q-52 0 -85.5 32t-33.5 83q0 50 33.5 82.5t85.5 32.5q51 0 85 -32.5t34 -82.5q0 -51 -33.5 -83t-85.5 -32z" />
    <glyph glyph-name="copyright" unicode="&#xa9;" horiz-adv-x="1723" 
d="M894 -66q-207 0 -369 91.5t-249 249.5t-87 354q0 43 7 106l13 103q21 172 119.5 307.5t256 212t346.5 76.5q156 0 289.5 -54t226 -146t144.5 -217.5t52 -266.5q0 -47 -6 -95l-13 -102q-23 -182 -122.5 -323t-257.5 -218.5t-350 -77.5zM316 623q0 -251 160.5 -408
t416.5 -157q242 0 410.5 139.5t196.5 368.5l12 106q5 31 5 69q0 245 -168.5 406.5t-422.5 161.5q-237 0 -401.5 -139t-189.5 -349l-13 -105q-6 -45 -6 -93zM576 592q0 33 9 96l18 100q23 133 109 208t222 75q138 0 218.5 -72t80.5 -171q0 -21 -3 -30h-145v17
q0 48 -40.5 86.5t-107.5 38.5q-73 0 -122.5 -49t-65.5 -139l-13 -74q-7 -41 -7 -70q0 -87 41 -135t124 -48q58 0 96.5 24.5t48.5 66.5h149q-17 -104 -98.5 -165t-204.5 -61q-142 0 -225.5 81.5t-83.5 220.5z" />
    <glyph glyph-name="ordfeminine" unicode="&#xaa;" horiz-adv-x="926" 
d="M406 483q-114 0 -187 68.5t-72 178.5q0 20 1 29q10 124 103.5 188.5t250.5 64.5h217l8 50q1 5 1 27q0 60 -41.5 95t-111.5 35q-119 0 -154 -88h-189q19 110 113 179.5t245 69.5q152 0 240.5 -75t88.5 -211q0 -49 -16 -126l-82 -471h-189l20 113h-12q-29 -56 -91.5 -91.5
t-142.5 -35.5zM346 751q0 -51 35.5 -81t92.5 -30q74 0 132.5 43t69.5 106l16 88h-184q-73 0 -117.5 -34.5t-44.5 -91.5z" />
    <glyph glyph-name="guillemotleft" unicode="&#xab;" horiz-adv-x="1321" 
d="M177 565l415 404h224l-417 -415l-1 -6l259 -393h-217l-265 402zM651 565l415 404h225l-418 -415l-1 -6l259 -393h-216l-266 402z" />
    <glyph glyph-name="logicalnot" unicode="&#xac;" horiz-adv-x="1171" 
d="M1030 91h-198l64 359h-787l32 187h985z" />
    <glyph glyph-name="registered" unicode="&#xae;" horiz-adv-x="1215" 
d="M204 894q0 15 2 35l4 26q11 210 146.5 338t350.5 128t353.5 -133.5t138.5 -342.5q0 -19 -2 -37l-4 -29q-14 -215 -148 -340t-351 -125q-218 0 -354 131.5t-136 348.5zM307 893q0 -172 107 -274.5t281 -102.5t279 99t117 271l3 29q2 14 2 28q0 167 -109 271.5t-282 104.5
q-175 0 -281 -101.5t-112 -271.5l-3 -24q-2 -16 -2 -29zM584 668h-107l93 520h194q78 0 120.5 -39.5t42.5 -110.5q0 -1 -0.5 -8.5t-0.5 -12.5q-5 -52 -37 -90t-82 -56l70 -203h-112l-59 189h-26h-63zM739 1100h-78l-30 -159h77q99 0 111 76q1 6 1 20q0 28 -21.5 45.5
t-59.5 17.5z" />
    <glyph glyph-name="macron" unicode="&#xaf;" horiz-adv-x="1000" 
d="M959 1245h-612l22 131h612z" />
    <glyph glyph-name="degree" unicode="&#xb0;" horiz-adv-x="722" 
d="M487 805q-122 0 -206.5 84t-84.5 205q0 122 84 205t207 83q122 0 205.5 -83t83.5 -205t-84 -205.5t-205 -83.5zM486 949q58 0 99.5 42.5t41.5 102.5t-41 102t-100 42q-58 0 -99.5 -42.5t-41.5 -101.5t42 -102t99 -43z" />
    <glyph glyph-name="plusminus" unicode="&#xb1;" horiz-adv-x="1171" 
d="M723 648l-47 -264h-192l48 264h-383l31 180h382l45 250h191l-44 -250h385l-30 -180h-386zM1021 106h-960l30 175h959z" />
    <glyph glyph-name="two.sups" unicode="&#xb2;" horiz-adv-x="746" 
d="M461 1491h-188l1 25q6 112 93.5 181.5t221.5 69.5q135 0 217 -67t82 -177q0 -77 -46 -147.5t-148 -149.5l-210 -167l-2 -12h357l-30 -167h-623l26 160l351 291q65 53 93 93.5t28 79.5q0 43 -29 70t-76 27t-80 -28t-37 -72z" />
    <glyph glyph-name="three.sups" unicode="&#xb3;" horiz-adv-x="762" 
d="M458 1261l23 146h74q66 0 104 29t38 79q0 41 -29.5 67.5t-75.5 26.5t-77 -22t-39 -60h-200q15 110 101.5 175t217.5 65q135 0 218 -62t83 -162q0 -86 -53.5 -145t-141.5 -67l-1 -9q77 -16 120 -67.5t42 -129.5q0 -116 -96.5 -190t-247.5 -74q-145 0 -235.5 70.5
t-90.5 183.5q0 13 3 34h201v-17q0 -43 36 -71.5t89 -28.5q57 0 93 31.5t36 79.5q0 53 -37 84.5t-99 32.5z" />
    <glyph glyph-name="acute" unicode="&#xb4;" horiz-adv-x="1000" 
d="M401 1228l287 354h208l-333 -354h-162z" />
    <glyph glyph-name="mugreek" unicode="&#xb5;" horiz-adv-x="1261" 
d="M31 -351l251 1409h224l-112 -618q-6 -39 -6 -76q0 -84 48 -136t137 -52q99 0 173 69t95 185l111 628h219l-137 -770q-5 -24 -5 -50q0 -37 17.5 -51.5t58.5 -14.5q17 0 44 5l-30 -175q-38 -11 -97 -11q-187 0 -200 154q-1 3 -2 17.5t-1 17.5h-10q-106 -196 -271 -196
q-78 0 -127.5 31t-64.5 81h-11l-82 -447h-222z" />
    <glyph glyph-name="mugreek" unicode="&#x3bc;" horiz-adv-x="1261" 
d="M31 -351l251 1409h224l-112 -618q-6 -39 -6 -76q0 -84 48 -136t137 -52q99 0 173 69t95 185l111 628h219l-137 -770q-5 -24 -5 -50q0 -37 17.5 -51.5t58.5 -14.5q17 0 44 5l-30 -175q-38 -11 -97 -11q-187 0 -200 154q-1 3 -2 17.5t-1 17.5h-10q-106 -196 -271 -196
q-78 0 -127.5 31t-64.5 81h-11l-82 -447h-222z" />
    <glyph glyph-name="paragraph" unicode="&#xb6;" horiz-adv-x="1367" 
d="M728 -210h-213l119 667l-19 3q-47 7 -96.5 27.5t-99.5 58t-89 86t-63.5 117.5t-24.5 147q0 24 4 41q10 197 157.5 312.5t370.5 115.5h232zM889 -210l278 1575h214l-278 -1575h-214z" />
    <glyph glyph-name="periodcentered" unicode="&#xb7;" horiz-adv-x="569" 
d="M187 760q0 73 46.5 119t114.5 46q71 0 118 -46t47 -119q0 -71 -47 -116t-118 -45q-68 0 -114.5 45t-46.5 116z" />
    <glyph glyph-name="cedilla" unicode="&#xb8;" horiz-adv-x="1000" 
d="M271 -152l49 164h144l-42 -136q80 -2 129.5 -41.5t49.5 -111.5q0 -9 -1 -13q-4 -93 -73.5 -142.5t-178.5 -49.5q-87 0 -156 24l20 115q58 -17 125 -17q104 0 106 64v4q0 63 -130 63h-52z" />
    <glyph glyph-name="one.sups" unicode="&#xb9;" horiz-adv-x="612" 
d="M571 880h-211l120 678h-11l-205 -119l31 189l216 121h212z" />
    <glyph glyph-name="ordmasculine" unicode="&#xba;" horiz-adv-x="952" 
d="M395 1018l-16 -91q-8 -60 -8 -83q0 -88 49 -141.5t136 -53.5q79 0 128 54t66 153l17 98q4 30 4 71q0 84 -49.5 136.5t-133.5 52.5q-79 0 -128 -51.5t-65 -144.5zM183 956l16 95q27 148 132.5 238.5t259.5 90.5q171 0 276 -97.5t105 -265.5q0 -56 -9 -107l-19 -95
q-31 -158 -134 -245t-268 -87q-163 0 -266 94t-103 254q0 81 10 125z" />
    <glyph glyph-name="guillemotright" unicode="&#xbb;" horiz-adv-x="1321" 
d="M727 558l-413 -403h-227l418 415l1 6l-260 393h215l268 -403zM1209 558l-413 -403h-227l418 415l1 6l-260 393h215l268 -403z" />
    <glyph glyph-name="onequarter" unicode="&#xbc;" horiz-adv-x="1962" 
d="M501 497h-211l120 678h-11l-205 -119l31 189l216 121h212zM407 0l494 712l428 653h210l-485 -693l-437 -672h-210zM1575 869h299l-97 -559h127l-28 -164h-128l-25 -146h-192l27 146h-415l28 169q130 197 404 554zM1356 306h229l74 404h-10q-230 -306 -292 -397z" />
    <glyph glyph-name="onehalf" unicode="&#xbd;" horiz-adv-x="1978" 
d="M501 497h-211l120 678h-11l-205 -119l31 189l216 121h212zM407 0l494 712l428 653h210l-485 -693l-437 -672h-210zM1504 611h-188l1 25q6 112 93.5 181.5t221.5 69.5q135 0 217 -67t82 -177q0 -77 -46 -147.5t-148 -149.5l-210 -167l-2 -12h357l-30 -167h-623l26 160
l351 291q65 53 93 93.5t28 79.5q0 43 -29 70t-76 27t-80 -28t-37 -72z" />
    <glyph glyph-name="threequarters" unicode="&#xbe;" horiz-adv-x="2093" 
d="M388 878l23 146h74q66 0 104 29t38 79q0 41 -29.5 67.5t-75.5 26.5t-77 -22t-39 -60h-200q15 110 101.5 175t217.5 65q135 0 218 -62t83 -162q0 -86 -53.5 -145t-141.5 -67l-1 -9q77 -16 120 -67.5t42 -129.5q0 -116 -96.5 -190t-247.5 -74q-145 0 -235.5 70.5
t-90.5 183.5q0 13 3 34h201v-17q0 -43 36 -71.5t89 -28.5q57 0 93 31.5t36 79.5q0 53 -37 84.5t-99 32.5zM538 0l494 712l428 653h210l-485 -693l-437 -672h-210zM1706 869h299l-97 -559h127l-28 -164h-128l-25 -146h-192l27 146h-415l28 169q130 197 404 554zM1487 306h229
l74 404h-10q-230 -306 -292 -397z" />
    <glyph glyph-name="questiondown" unicode="&#xbf;" horiz-adv-x="1070" 
d="M801 954q0 -67 -45 -109.5t-115 -42.5q-71 0 -116 41.5t-45 106.5q0 66 45.5 108t118.5 42q68 0 112.5 -41t44.5 -105zM912 56q-7 -77 -38 -142.5t-83.5 -117t-134 -81t-182.5 -29.5q-118 0 -212.5 37t-154 116t-59.5 190q0 66 20.5 120.5t60 96.5t77 69.5t90.5 58.5
q101 57 127 80q61 52 71 134l11 59h206l-11 -64q-14 -119 -65.5 -185.5t-173.5 -136.5q-35 -20 -47 -27t-42 -27t-42.5 -33.5t-30 -35t-24 -45t-6.5 -50.5q0 -80 61 -124.5t150 -44.5q95 0 152 51.5t70 130.5h210z" />
    <glyph glyph-name="Agrave" unicode="&#xc0;" horiz-adv-x="1281" 
d="M-27 0l708 1365h263l229 -1365h-240l-55 372h-479l-188 -372h-238zM779 1121h-15l-281 -567h375zM914 1507h-157l-223 322h199z" />
    <glyph glyph-name="Aacute" unicode="&#xc1;" horiz-adv-x="1281" 
d="M-27 0l708 1365h263l229 -1365h-240l-55 372h-479l-188 -372h-238zM779 1121h-15l-281 -567h375zM721 1507l295 322h211l-335 -322h-171z" />
    <glyph glyph-name="Acircumflex" unicode="&#xc2;" horiz-adv-x="1281" 
d="M-27 0l708 1365h263l229 -1365h-240l-55 372h-479l-188 -372h-238zM779 1121h-15l-281 -567h375zM478 1494l292 239h190l220 -239h-193l-123 136h-14l-169 -136h-203z" />
    <glyph glyph-name="Atilde" unicode="&#xc3;" horiz-adv-x="1281" 
d="M-27 0l708 1365h263l229 -1365h-240l-55 372h-479l-188 -372h-238zM779 1121h-15l-281 -567h375zM955 1458q-39 0 -69.5 11.5t-49.5 27.5t-35 32t-35 27.5t-40 11.5q-65 0 -75 -93h-128q6 89 58.5 150.5t137.5 61.5q50 0 88.5 -18t57 -39t41 -39t45.5 -18q63 0 74 100
h128q-5 -88 -59 -151.5t-139 -63.5z" />
    <glyph glyph-name="Adieresis" unicode="&#xc4;" horiz-adv-x="1281" 
d="M-27 0l708 1365h263l229 -1365h-240l-55 372h-479l-188 -372h-238zM779 1121h-15l-281 -567h375zM556 1578q0 45 32 77.5t79 32.5t79 -32.5t32 -77.5q0 -46 -32 -78.5t-79 -32.5t-79 32.5t-32 78.5zM916 1578q0 46 31.5 78t78.5 32t79 -32.5t32 -77.5q0 -46 -32 -78.5
t-79 -32.5t-78.5 32.5t-31.5 78.5z" />
    <glyph glyph-name="Aring" unicode="&#xc5;" horiz-adv-x="1281" 
d="M-27 0l708 1365h263l229 -1365h-240l-55 372h-479l-188 -372h-238zM779 1121h-15l-281 -567h375zM863 1575q41 0 69 28t28 69t-28 69t-69 28t-69.5 -28t-28.5 -69t28.5 -69t69.5 -28zM861 1471q-85 0 -143 58t-58 143q0 86 60 143.5t144 57.5q85 0 143 -58.5t58 -142.5
q0 -86 -59.5 -143.5t-144.5 -57.5z" />
    <glyph glyph-name="AE" unicode="&#xc6;" horiz-adv-x="1865" 
d="M1012 1115l-412 -564h326l106 564h-20zM828 0l66 364h-409l-278 -364h-259l995 1366h967l-33 -198h-618l-69 -376h585l-30 -188h-587l-74 -406h621l-33 -198h-844z" />
    <glyph glyph-name="Ccedilla" unicode="&#xc7;" horiz-adv-x="1308" 
d="M602 -485q-86 0 -156 25l19 115q56 -18 125 -18q105 0 106 64q1 1 1 4q0 64 -130 64h-52l9 76l40 139q-195 33 -302 171.5t-107 358.5q0 84 9 137l42 221q45 244 197 382t384 138q221 0 364 -124t143 -300q0 -43 -6 -61h-218q2 31 1 41q-9 103 -89.5 169.5t-198.5 66.5
q-137 0 -225.5 -87.5t-123.5 -262.5l-35 -173q-13 -74 -13 -147q0 -152 82.5 -240.5t230.5 -88.5q115 0 194 58.5t100 157.5h220q-6 -34 -7 -39q-30 -165 -165.5 -273t-334.5 -115l-30 -101q83 -2 131 -42.5t48 -110.5q0 -2 -0.5 -6t-0.5 -7q-5 -90 -72.5 -141t-179.5 -51z
" />
    <glyph glyph-name="Egrave" unicode="&#xc8;" horiz-adv-x="1151" 
d="M992 200l-34 -200h-847l241 1365h844l-34 -200h-615l-69 -374h584l-32 -188h-583l-74 -403h619zM866 1507h-157l-223 322h199z" />
    <glyph glyph-name="Eacute" unicode="&#xc9;" horiz-adv-x="1151" 
d="M992 200l-34 -200h-847l241 1365h844l-34 -200h-615l-69 -374h584l-32 -188h-583l-74 -403h619zM673 1507l295 322h211l-335 -322h-171z" />
    <glyph glyph-name="Ecircumflex" unicode="&#xca;" horiz-adv-x="1151" 
d="M992 200l-34 -200h-847l241 1365h844l-34 -200h-615l-69 -374h584l-32 -188h-583l-74 -403h619zM430 1494l292 239h190l220 -239h-193l-123 136h-14l-169 -136h-203z" />
    <glyph glyph-name="Edieresis" unicode="&#xcb;" horiz-adv-x="1151" 
d="M992 200l-34 -200h-847l241 1365h844l-34 -200h-615l-69 -374h584l-32 -188h-583l-74 -403h619zM508 1578q0 45 32 77.5t79 32.5t79 -32.5t32 -77.5q0 -46 -32 -78.5t-79 -32.5t-79 32.5t-32 78.5zM868 1578q0 46 31.5 78t78.5 32t79 -32.5t32 -77.5q0 -46 -32 -78.5
t-79 -32.5t-78.5 32.5t-31.5 78.5z" />
    <glyph glyph-name="Igrave" unicode="&#xcc;" horiz-adv-x="586" 
d="M339 0h-228l241 1365h228zM574 1507h-157l-223 322h199z" />
    <glyph glyph-name="Iacute" unicode="&#xcd;" horiz-adv-x="586" 
d="M339 0h-228l241 1365h228zM381 1507l295 322h211l-335 -322h-171z" />
    <glyph glyph-name="Icircumflex" unicode="&#xce;" horiz-adv-x="586" 
d="M339 0h-228l241 1365h228zM138 1494l292 239h190l220 -239h-193l-123 136h-14l-169 -136h-203z" />
    <glyph glyph-name="Idieresis" unicode="&#xcf;" horiz-adv-x="586" 
d="M339 0h-228l241 1365h228zM216 1578q0 45 32 77.5t79 32.5t79 -32.5t32 -77.5q0 -46 -32 -78.5t-79 -32.5t-79 32.5t-32 78.5zM576 1578q0 46 31.5 78t78.5 32t79 -32.5t32 -77.5q0 -46 -32 -78.5t-79 -32.5t-78.5 32.5t-31.5 78.5z" />
    <glyph glyph-name="Eth" unicode="&#xd0;" horiz-adv-x="1467" 
d="M451 1365h425q260 0 401 -143t141 -383q0 -83 -10 -143q-1 -9 -12.5 -73.5t-13.5 -73.5q-50 -265 -241 -407t-507 -142h-425l106 590h-165l35 209h164zM646 1165l-67 -366h269l-35 -209h-269l-72 -390h151q214 0 354 93.5t176 279.5q2 8 12.5 65t11.5 66q8 47 8 120
q0 172 -98 256.5t-282 84.5h-159z" />
    <glyph glyph-name="Ntilde" unicode="&#xd1;" horiz-adv-x="1430" 
d="M1183 0h-199l-468 970h-11l-174 -970h-220l241 1365h202l463 -968h12l175 968h220zM1047 1458q-39 0 -69.5 11.5t-49.5 27.5t-35 32t-35 27.5t-40 11.5q-65 0 -75 -93h-128q6 89 58.5 150.5t137.5 61.5q50 0 88.5 -18t57 -39t41 -39t45.5 -18q63 0 74 100h128
q-5 -88 -59 -151.5t-139 -63.5z" />
    <glyph glyph-name="Ograve" unicode="&#xd2;" horiz-adv-x="1392" 
d="M432 835l-33 -174q-14 -73 -14 -146q0 -153 86.5 -243.5t241.5 -90.5q142 0 233 91.5t124 273.5l34 184q8 50 8 128q0 148 -88 238.5t-239 90.5q-135 0 -227 -85.5t-126 -266.5zM167 674l37 202q44 245 201.5 380.5t387.5 135.5q248 0 399.5 -143t151.5 -392
q0 -87 -14 -162l-38 -203q-46 -250 -197.5 -384.5t-404.5 -134.5q-235 0 -385.5 138t-150.5 378q0 112 13 185zM972 1507h-157l-223 322h199z" />
    <glyph glyph-name="Oacute" unicode="&#xd3;" horiz-adv-x="1392" 
d="M432 835l-33 -174q-14 -73 -14 -146q0 -153 86.5 -243.5t241.5 -90.5q142 0 233 91.5t124 273.5l34 184q8 50 8 128q0 148 -88 238.5t-239 90.5q-135 0 -227 -85.5t-126 -266.5zM167 674l37 202q44 245 201.5 380.5t387.5 135.5q248 0 399.5 -143t151.5 -392
q0 -87 -14 -162l-38 -203q-46 -250 -197.5 -384.5t-404.5 -134.5q-235 0 -385.5 138t-150.5 378q0 112 13 185zM779 1507l295 322h211l-335 -322h-171z" />
    <glyph glyph-name="Ocircumflex" unicode="&#xd4;" horiz-adv-x="1392" 
d="M432 835l-33 -174q-14 -73 -14 -146q0 -153 86.5 -243.5t241.5 -90.5q142 0 233 91.5t124 273.5l34 184q8 50 8 128q0 148 -88 238.5t-239 90.5q-135 0 -227 -85.5t-126 -266.5zM167 674l37 202q44 245 201.5 380.5t387.5 135.5q248 0 399.5 -143t151.5 -392
q0 -87 -14 -162l-38 -203q-46 -250 -197.5 -384.5t-404.5 -134.5q-235 0 -385.5 138t-150.5 378q0 112 13 185zM536 1494l292 239h190l220 -239h-193l-123 136h-14l-169 -136h-203z" />
    <glyph glyph-name="Otilde" unicode="&#xd5;" horiz-adv-x="1392" 
d="M432 835l-33 -174q-14 -73 -14 -146q0 -153 86.5 -243.5t241.5 -90.5q142 0 233 91.5t124 273.5l34 184q8 50 8 128q0 148 -88 238.5t-239 90.5q-135 0 -227 -85.5t-126 -266.5zM167 674l37 202q44 245 201.5 380.5t387.5 135.5q248 0 399.5 -143t151.5 -392
q0 -87 -14 -162l-38 -203q-46 -250 -197.5 -384.5t-404.5 -134.5q-235 0 -385.5 138t-150.5 378q0 112 13 185zM1013 1458q-39 0 -69.5 11.5t-49.5 27.5t-35 32t-35 27.5t-40 11.5q-65 0 -75 -93h-128q6 89 58.5 150.5t137.5 61.5q50 0 88.5 -18t57 -39t41 -39t45.5 -18
q63 0 74 100h128q-5 -88 -59 -151.5t-139 -63.5z" />
    <glyph glyph-name="Odieresis" unicode="&#xd6;" horiz-adv-x="1392" 
d="M432 835l-33 -174q-14 -73 -14 -146q0 -153 86.5 -243.5t241.5 -90.5q142 0 233 91.5t124 273.5l34 184q8 50 8 128q0 148 -88 238.5t-239 90.5q-135 0 -227 -85.5t-126 -266.5zM167 674l37 202q44 245 201.5 380.5t387.5 135.5q248 0 399.5 -143t151.5 -392
q0 -87 -14 -162l-38 -203q-46 -250 -197.5 -384.5t-404.5 -134.5q-235 0 -385.5 138t-150.5 378q0 112 13 185zM614 1578q0 45 32 77.5t79 32.5t79 -32.5t32 -77.5q0 -46 -32 -78.5t-79 -32.5t-79 32.5t-32 78.5zM974 1578q0 46 31.5 78t78.5 32t79 -32.5t32 -77.5
q0 -46 -32 -78.5t-79 -32.5t-78.5 32.5t-31.5 78.5z" />
    <glyph glyph-name="multiply" unicode="&#xd7;" horiz-adv-x="1171" 
d="M1095 793l-359 -291l253 -315l-146 -127l-253 316l-344 -289l-113 154l344 288l-249 312l145 126l250 -312l359 290z" />
    <glyph glyph-name="Oslash" unicode="&#xd8;" horiz-adv-x="1389" 
d="M164 674l37 202q44 245 201.5 380.5t387.5 135.5q136 0 246.5 -45t182.5 -131l111 105l98 -98l-134 -125q47 -105 47 -240q0 -87 -14 -162l-38 -204q-46 -250 -197.5 -384.5t-404.5 -134.5q-130 0 -237.5 44t-178.5 128l-112 -107l-93 103l129 122q-44 99 -44 226
q0 112 13 185zM1107 824q0 48 -7 79l-663 -594q85 -127 275 -127q142 0 232 91t123 273l31 166q9 46 9 112zM1056 1055q-85 131 -274 131q-135 0 -227 -85.5t-126 -265.5l-34 -174q-12 -67 -13 -130q0 -37 8 -72z" />
    <glyph glyph-name="Ugrave" unicode="&#xd9;" horiz-adv-x="1388" 
d="M565 1365l-144 -823q-8 -34 -8 -89q0 -121 76 -193.5t207 -72.5q121 0 204 69t108 207l160 902h232l-166 -944q-39 -220 -185 -333.5t-362 -113.5q-145 0 -258.5 50t-182 152.5t-68.5 242.5q0 57 13 128l143 818h231zM977 1507h-157l-223 322h199z" />
    <glyph glyph-name="Uacute" unicode="&#xda;" horiz-adv-x="1388" 
d="M565 1365l-144 -823q-8 -34 -8 -89q0 -121 76 -193.5t207 -72.5q121 0 204 69t108 207l160 902h232l-166 -944q-39 -220 -185 -333.5t-362 -113.5q-145 0 -258.5 50t-182 152.5t-68.5 242.5q0 57 13 128l143 818h231zM784 1507l295 322h211l-335 -322h-171z" />
    <glyph glyph-name="Ucircumflex" unicode="&#xdb;" horiz-adv-x="1388" 
d="M565 1365l-144 -823q-8 -34 -8 -89q0 -121 76 -193.5t207 -72.5q121 0 204 69t108 207l160 902h232l-166 -944q-39 -220 -185 -333.5t-362 -113.5q-145 0 -258.5 50t-182 152.5t-68.5 242.5q0 57 13 128l143 818h231zM541 1494l292 239h190l220 -239h-193l-123 136h-14
l-169 -136h-203z" />
    <glyph glyph-name="Udieresis" unicode="&#xdc;" horiz-adv-x="1388" 
d="M565 1365l-144 -823q-8 -34 -8 -89q0 -121 76 -193.5t207 -72.5q121 0 204 69t108 207l160 902h232l-166 -944q-39 -220 -185 -333.5t-362 -113.5q-145 0 -258.5 50t-182 152.5t-68.5 242.5q0 57 13 128l143 818h231zM619 1578q0 45 32 77.5t79 32.5t79 -32.5t32 -77.5
q0 -46 -32 -78.5t-79 -32.5t-79 32.5t-32 78.5zM979 1578q0 46 31.5 78t78.5 32t79 -32.5t32 -77.5q0 -46 -32 -78.5t-79 -32.5t-78.5 32.5t-31.5 78.5z" />
    <glyph glyph-name="Yacute" unicode="&#xdd;" horiz-adv-x="1166" 
d="M730 541l-96 -541h-229l96 536l-323 829h243l220 -605h12l425 605h256zM670 1507l295 322h211l-335 -322h-171z" />
    <glyph glyph-name="Thorn" unicode="&#xde;" horiz-adv-x="1222" 
d="M351 1365h224l-43 -246h240q197 0 304.5 -96.5t107.5 -261.5q0 -44 -7 -87q-27 -192 -165 -294t-386 -102h-240l-50 -278h-226zM722 926h-221l-83 -456h213q155 0 228.5 55t89.5 155q7 35 7 62q0 184 -234 184z" />
    <glyph glyph-name="germandbls" unicode="&#xdf;" horiz-adv-x="1317" 
d="M337 0h-224l203 1146q25 144 140.5 226t289.5 82q201 0 330 -105.5t129 -277.5q0 -75 -28 -140t-73 -107t-95.5 -67.5t-99.5 -31.5l-2 -11q129 -24 211 -113t82 -245q0 -92 -35 -167t-94.5 -122.5t-136.5 -73.5t-163 -26q-79 0 -153 18t-110 39l32 180q27 -16 85 -30.5
t115 -14.5q101 0 171.5 57.5t70.5 162.5q0 116 -82.5 183t-198.5 68l-66 1l34 200h61q115 0 187.5 61t72.5 165q0 98 -69 152t-175 54q-90 0 -145 -43.5t-70 -127.5z" />
    <glyph glyph-name="agrave" unicode="&#xe0;" horiz-adv-x="1121" 
d="M407 -16q-136 0 -226.5 80t-90.5 217q0 21 2 33q11 145 122 226t307 81h270l11 69q4 18 4 41q0 68 -48 116t-148 48q-81 0 -131 -31.5t-65 -81.5h-213q21 127 132 210t293 83q187 0 290 -91t103 -248q0 -49 -16 -139l-105 -597h-212l25 140h-13q-31 -64 -107 -110
t-184 -46zM313 307q0 -65 46 -106t125 -41q94 0 167 53.5t89 136.5l22 121h-232q-106 0 -161.5 -46.5t-55.5 -117.5zM798 1228h-157l-250 354h211z" />
    <glyph glyph-name="aacute" unicode="&#xe1;" horiz-adv-x="1121" 
d="M407 -16q-136 0 -226.5 80t-90.5 217q0 21 2 33q11 145 122 226t307 81h270l11 69q4 18 4 41q0 68 -48 116t-148 48q-81 0 -131 -31.5t-65 -81.5h-213q21 127 132 210t293 83q187 0 290 -91t103 -248q0 -49 -16 -139l-105 -597h-212l25 140h-13q-31 -64 -107 -110
t-184 -46zM313 307q0 -65 46 -106t125 -41q94 0 167 53.5t89 136.5l22 121h-232q-106 0 -161.5 -46.5t-55.5 -117.5zM556 1228l287 354h208l-333 -354h-162z" />
    <glyph glyph-name="acircumflex" unicode="&#xe2;" horiz-adv-x="1121" 
d="M407 -16q-136 0 -226.5 80t-90.5 217q0 21 2 33q11 145 122 226t307 81h270l11 69q4 18 4 41q0 68 -48 116t-148 48q-81 0 -131 -31.5t-65 -81.5h-213q21 127 132 210t293 83q187 0 290 -91t103 -248q0 -49 -16 -139l-105 -597h-212l25 140h-13q-31 -64 -107 -110
t-184 -46zM313 307q0 -65 46 -106t125 -41q94 0 167 53.5t89 136.5l22 121h-232q-106 0 -161.5 -46.5t-55.5 -117.5zM350 1228l301 364h171l176 -364h-176l-101 239h-9l-185 -239h-177z" />
    <glyph glyph-name="atilde" unicode="&#xe3;" horiz-adv-x="1121" 
d="M407 -16q-136 0 -226.5 80t-90.5 217q0 21 2 33q11 145 122 226t307 81h270l11 69q4 18 4 41q0 68 -48 116t-148 48q-81 0 -131 -31.5t-65 -81.5h-213q21 127 132 210t293 83q187 0 290 -91t103 -248q0 -49 -16 -139l-105 -597h-212l25 140h-13q-31 -64 -107 -110
t-184 -46zM313 307q0 -65 46 -106t125 -41q94 0 167 53.5t89 136.5l22 121h-232q-106 0 -161.5 -46.5t-55.5 -117.5zM813 1222q-42 0 -74.5 14.5t-53 35.5t-37.5 42t-36.5 35.5t-41.5 14.5q-72 0 -82 -108h-131q9 108 66.5 178.5t149.5 70.5q43 0 77 -14.5t54.5 -35.5
t37.5 -42t35.5 -35.5t39.5 -14.5q34 0 55.5 29t27.5 79h130q-7 -104 -67 -176.5t-150 -72.5z" />
    <glyph glyph-name="adieresis" unicode="&#xe4;" horiz-adv-x="1121" 
d="M407 -16q-136 0 -226.5 80t-90.5 217q0 21 2 33q11 145 122 226t307 81h270l11 69q4 18 4 41q0 68 -48 116t-148 48q-81 0 -131 -31.5t-65 -81.5h-213q21 127 132 210t293 83q187 0 290 -91t103 -248q0 -49 -16 -139l-105 -597h-212l25 140h-13q-31 -64 -107 -110
t-184 -46zM313 307q0 -65 46 -106t125 -41q94 0 167 53.5t89 136.5l22 121h-232q-106 0 -161.5 -46.5t-55.5 -117.5zM514 1220q-52 0 -85.5 32t-33.5 83q0 50 33.5 82.5t85.5 32.5q51 0 85 -32.5t34 -82.5q0 -51 -34 -83t-85 -32zM898 1220q-52 0 -85.5 32t-33.5 83
q0 50 33.5 82.5t85.5 32.5q51 0 85 -32.5t34 -82.5q0 -51 -33.5 -83t-85.5 -32z" />
    <glyph glyph-name="aring" unicode="&#xe5;" horiz-adv-x="1121" 
d="M407 -16q-136 0 -226.5 80t-90.5 217q0 21 2 33q11 145 122 226t307 81h270l11 69q4 18 4 41q0 68 -48 116t-148 48q-81 0 -131 -31.5t-65 -81.5h-213q21 127 132 210t293 83q187 0 290 -91t103 -248q0 -49 -16 -139l-105 -597h-212l25 140h-13q-31 -64 -107 -110
t-184 -46zM313 307q0 -65 46 -106t125 -41q94 0 167 53.5t89 136.5l22 121h-232q-106 0 -161.5 -46.5t-55.5 -117.5zM714 1325q41 0 70 28.5t29 68.5q0 41 -29 69.5t-70 28.5t-70.5 -28.5t-29.5 -69.5q0 -40 29.5 -68.5t70.5 -28.5zM712 1218q-85 0 -143 59.5t-58 144.5
q0 86 59.5 144.5t144.5 58.5t143 -59t58 -144q0 -86 -60 -145t-144 -59z" />
    <glyph glyph-name="ae" unicode="&#xe6;" horiz-adv-x="1769" 
d="M1206 -18q-128 0 -223 56.5t-139 162.5h-6q-125 -219 -393 -219q-166 0 -260.5 81.5t-94.5 226.5q0 158 113.5 244t320.5 86h266l13 74q3 24 3 39q0 66 -48 114.5t-149 48.5q-80 0 -130 -32t-65 -82h-213q20 130 134 212t283 82q226 0 322 -143h6q59 68 149 105.5
t197 37.5q90 0 163 -26.5t119 -70.5t75.5 -102.5t38.5 -122t1 -129.5q0 -22 -24 -148h-678q-10 -52 -10 -85q0 -97 55 -161.5t170 -64.5q85 0 141 35t72 87h214q-17 -123 -135.5 -214.5t-287.5 -91.5zM313 307q0 -64 45.5 -104t125.5 -40q96 0 168 55.5t89 144.5l22 110
h-233q-106 0 -161.5 -47.5t-55.5 -118.5zM1481 627q0 2 1.5 11.5t1.5 11.5q18 105 -36.5 176t-165.5 71q-94 0 -165 -54.5t-93 -157.5q-4 -19 -7 -33.5t-4 -19t-1 -5.5h469z" />
    <glyph glyph-name="ccedilla" unicode="&#xe7;" horiz-adv-x="1085" 
d="M452 -485q-87 0 -156 25l19 115q57 -18 125 -18q105 0 106 64q1 1 1 4q0 64 -130 64h-57l10 76l50 152q-141 35 -221 139.5t-80 260.5q0 68 14 147l23 131q35 197 161.5 299t311.5 102q187 0 302.5 -97.5t115.5 -252.5q0 -14 -2 -24h-208q1 2 1 13q0 66 -56.5 119.5
t-153.5 53.5q-99 0 -168 -65t-91 -186l-20 -111q-10 -57 -10 -100q0 -119 57 -185t171 -66q83 0 136 34.5t67 89.5h217q-22 -144 -136 -227.5t-279 -88.5h-13l-38 -110q81 -2 132.5 -42t51.5 -111q0 -2 -0.5 -6t-0.5 -7q-5 -92 -74 -142t-178 -50z" />
    <glyph glyph-name="egrave" unicode="&#xe8;" horiz-adv-x="1117" 
d="M545 -18q-190 0 -308.5 106.5t-118.5 305.5q0 62 16 153l24 126q33 193 164 298t319 105q111 0 196 -38.5t132.5 -103t67.5 -144t10 -165.5q0 -18 -26 -148h-680q-9 -36 -9 -86q0 -96 55.5 -160.5t171.5 -64.5q85 0 141 34.5t72 87.5h215q-19 -124 -140 -215t-302 -91z
M833 627q3 12 3 23q19 105 -34.5 176t-166.5 71q-92 0 -161 -54t-92 -159l-13 -57h464zM820 1228h-157l-250 354h211z" />
    <glyph glyph-name="eacute" unicode="&#xe9;" horiz-adv-x="1117" 
d="M545 -18q-190 0 -308.5 106.5t-118.5 305.5q0 62 16 153l24 126q33 193 164 298t319 105q111 0 196 -38.5t132.5 -103t67.5 -144t10 -165.5q0 -18 -26 -148h-680q-9 -36 -9 -86q0 -96 55.5 -160.5t171.5 -64.5q85 0 141 34.5t72 87.5h215q-19 -124 -140 -215t-302 -91z
M833 627q3 12 3 23q19 105 -34.5 176t-166.5 71q-92 0 -161 -54t-92 -159l-13 -57h464zM578 1228l287 354h208l-333 -354h-162z" />
    <glyph glyph-name="ecircumflex" unicode="&#xea;" horiz-adv-x="1117" 
d="M545 -18q-190 0 -308.5 106.5t-118.5 305.5q0 62 16 153l24 126q33 193 164 298t319 105q111 0 196 -38.5t132.5 -103t67.5 -144t10 -165.5q0 -18 -26 -148h-680q-9 -36 -9 -86q0 -96 55.5 -160.5t171.5 -64.5q85 0 141 34.5t72 87.5h215q-19 -124 -140 -215t-302 -91z
M833 627q3 12 3 23q19 105 -34.5 176t-166.5 71q-92 0 -161 -54t-92 -159l-13 -57h464zM377 1228l301 364h171l176 -364h-176l-101 239h-9l-185 -239h-177z" />
    <glyph glyph-name="edieresis" unicode="&#xeb;" horiz-adv-x="1117" 
d="M545 -18q-190 0 -308.5 106.5t-118.5 305.5q0 62 16 153l24 126q33 193 164 298t319 105q111 0 196 -38.5t132.5 -103t67.5 -144t10 -165.5q0 -18 -26 -148h-680q-9 -36 -9 -86q0 -96 55.5 -160.5t171.5 -64.5q85 0 141 34.5t72 87.5h215q-19 -124 -140 -215t-302 -91z
M833 627q3 12 3 23q19 105 -34.5 176t-166.5 71q-92 0 -161 -54t-92 -159l-13 -57h464zM536 1220q-52 0 -85.5 32t-33.5 83q0 50 33.5 82.5t85.5 32.5q51 0 85 -32.5t34 -82.5q0 -51 -34 -83t-85 -32zM920 1220q-52 0 -85.5 32t-33.5 83q0 50 33.5 82.5t85.5 32.5
q51 0 85 -32.5t34 -82.5q0 -51 -33.5 -83t-85.5 -32z" />
    <glyph glyph-name="igrave" unicode="&#xec;" horiz-adv-x="573" 
d="M106 0l188 1058h223l-188 -1058h-223zM555 1228h-157l-250 354h211z" />
    <glyph glyph-name="iacute" unicode="&#xed;" horiz-adv-x="573" 
d="M106 0l188 1058h223l-188 -1058h-223zM313 1228l287 354h208l-333 -354h-162z" />
    <glyph glyph-name="icircumflex" unicode="&#xee;" horiz-adv-x="573" 
d="M106 0l188 1058h223l-188 -1058h-223zM112 1228l301 364h171l176 -364h-176l-101 239h-9l-185 -239h-177z" />
    <glyph glyph-name="idieresis" unicode="&#xef;" horiz-adv-x="573" 
d="M106 0l188 1058h223l-188 -1058h-223zM271 1220q-52 0 -85.5 32t-33.5 83q0 50 33.5 82.5t85.5 32.5q51 0 85 -32.5t34 -82.5q0 -51 -34 -83t-85 -32zM655 1220q-52 0 -85.5 32t-33.5 83q0 50 33.5 82.5t85.5 32.5q51 0 85 -32.5t34 -82.5q0 -51 -33.5 -83t-85.5 -32z
" />
    <glyph glyph-name="eth" unicode="&#xf0;" horiz-adv-x="1206" 
d="M1045 396q-17 -88 -54 -162t-94.5 -132t-141.5 -91t-185 -33q-204 0 -327.5 121.5t-123.5 320.5q0 60 12 123q1 11 10.5 60t10.5 52q33 173 154.5 273.5t287.5 100.5q111 0 182 -42t109 -102l8 -1q0 1 -1.5 33.5t-3.5 37.5q-1 58 -23.5 124.5t-57.5 122.5l-292 -70
l-20 121l239 55q-78 100 -169 180l200 66q90 -65 174 -187l251 60l25 -117l-204 -45q115 -210 96 -475q0 -69 -15 -144zM628 853q-108 0 -178 -72t-90 -192l-12 -77q-8 -48 -8 -89q0 -114 60.5 -183.5t169.5 -69.5q106 0 173 70t89 193l14 87q9 45 9 92q0 113 -62 177
t-165 64z" />
    <glyph glyph-name="ntilde" unicode="&#xf1;" horiz-adv-x="1216" 
d="M94 0l186 1058h219l-30 -168h14q43 86 120.5 135t188.5 49q158 0 240 -92t82 -233q0 -67 -21 -185l-100 -564h-224l102 577q12 70 12 118q0 87 -45.5 140t-135.5 53q-114 0 -184.5 -77.5t-93.5 -206.5l-106 -604h-224zM892 1217q-42 0 -74.5 14.5t-53 35.5t-37.5 42
t-36.5 35.5t-41.5 14.5q-72 0 -82 -108h-131q9 108 66.5 178.5t149.5 70.5q43 0 77 -14.5t54.5 -35.5t37.5 -42t35.5 -35.5t39.5 -14.5q34 0 55.5 29t27.5 79h130q-7 -104 -67 -176.5t-150 -72.5z" />
    <glyph glyph-name="ograve" unicode="&#xf2;" horiz-adv-x="1162" 
d="M376 631l-20 -114q-10 -52 -10 -102q0 -112 63.5 -179.5t173.5 -67.5q102 0 167.5 69.5t88.5 198.5l21 121q5 39 5 92q0 108 -63 174t-171 66q-98 0 -165.5 -65t-89.5 -193zM134 550l21 119q33 189 163.5 298t315.5 109q207 0 332 -118.5t125 -319.5q0 -71 -11 -127
l-23 -120q-37 -193 -162 -301t-327 -108q-197 0 -321.5 114.5t-124.5 309.5q0 85 12 144zM842 1228h-157l-250 354h211z" />
    <glyph glyph-name="oacute" unicode="&#xf3;" horiz-adv-x="1162" 
d="M376 631l-20 -114q-10 -52 -10 -102q0 -112 63.5 -179.5t173.5 -67.5q102 0 167.5 69.5t88.5 198.5l21 121q5 39 5 92q0 108 -63 174t-171 66q-98 0 -165.5 -65t-89.5 -193zM134 550l21 119q33 189 163.5 298t315.5 109q207 0 332 -118.5t125 -319.5q0 -71 -11 -127
l-23 -120q-37 -193 -162 -301t-327 -108q-197 0 -321.5 114.5t-124.5 309.5q0 85 12 144zM600 1228l287 354h208l-333 -354h-162z" />
    <glyph glyph-name="ocircumflex" unicode="&#xf4;" horiz-adv-x="1162" 
d="M376 631l-20 -114q-10 -52 -10 -102q0 -112 63.5 -179.5t173.5 -67.5q102 0 167.5 69.5t88.5 198.5l21 121q5 39 5 92q0 108 -63 174t-171 66q-98 0 -165.5 -65t-89.5 -193zM134 550l21 119q33 189 163.5 298t315.5 109q207 0 332 -118.5t125 -319.5q0 -71 -11 -127
l-23 -120q-37 -193 -162 -301t-327 -108q-197 0 -321.5 114.5t-124.5 309.5q0 85 12 144zM399 1228l301 364h171l176 -364h-176l-101 239h-9l-185 -239h-177z" />
    <glyph glyph-name="otilde" unicode="&#xf5;" horiz-adv-x="1162" 
d="M376 631l-20 -114q-10 -52 -10 -102q0 -112 63.5 -179.5t173.5 -67.5q102 0 167.5 69.5t88.5 198.5l21 121q5 39 5 92q0 108 -63 174t-171 66q-98 0 -165.5 -65t-89.5 -193zM134 550l21 119q33 189 163.5 298t315.5 109q207 0 332 -118.5t125 -319.5q0 -71 -11 -127
l-23 -120q-37 -193 -162 -301t-327 -108q-197 0 -321.5 114.5t-124.5 309.5q0 85 12 144zM856 1217q-42 0 -74.5 14.5t-53 35.5t-37.5 42t-36.5 35.5t-41.5 14.5q-72 0 -82 -108h-131q9 108 66.5 178.5t149.5 70.5q43 0 77 -14.5t54.5 -35.5t37.5 -42t35.5 -35.5t39.5 -14.5
q34 0 55.5 29t27.5 79h130q-7 -104 -67 -176.5t-150 -72.5z" />
    <glyph glyph-name="odieresis" unicode="&#xf6;" horiz-adv-x="1162" 
d="M376 631l-20 -114q-10 -52 -10 -102q0 -112 63.5 -179.5t173.5 -67.5q102 0 167.5 69.5t88.5 198.5l21 121q5 39 5 92q0 108 -63 174t-171 66q-98 0 -165.5 -65t-89.5 -193zM134 550l21 119q33 189 163.5 298t315.5 109q207 0 332 -118.5t125 -319.5q0 -71 -11 -127
l-23 -120q-37 -193 -162 -301t-327 -108q-197 0 -321.5 114.5t-124.5 309.5q0 85 12 144zM558 1220q-52 0 -85.5 32t-33.5 83q0 50 33.5 82.5t85.5 32.5q51 0 85 -32.5t34 -82.5q0 -51 -34 -83t-85 -32zM942 1220q-52 0 -85.5 32t-33.5 83q0 50 33.5 82.5t85.5 32.5
q51 0 85 -32.5t34 -82.5q0 -51 -33.5 -83t-85.5 -32z" />
    <glyph glyph-name="divide" unicode="&#xf7;" horiz-adv-x="1171" 
d="M506 961q0 65 43.5 106t111.5 41q69 0 112 -40t43 -103t-44.5 -103.5t-114.5 -40.5q-66 0 -108.5 39.5t-42.5 100.5zM402 140q0 64 43.5 105.5t110.5 41.5q69 0 112 -40t43 -104q0 -63 -44 -103.5t-114 -40.5q-66 0 -108.5 39.5t-42.5 101.5zM1093 461h-987l31 180h988z
" />
    <glyph glyph-name="oslash" unicode="&#xf8;" horiz-adv-x="1163" 
d="M131 552l20 117q34 189 164 298t315 109q221 0 347 -134l125 113l89 -100l-141 -126q37 -86 37 -191q0 -71 -11 -127l-23 -120q-37 -193 -162 -301t-327 -108q-206 0 -330 122l-127 -114l-83 100l136 121q-41 85 -41 197q0 85 12 144zM372 631l-20 -112q-9 -49 -9 -88
q0 -32 5 -52l474 411q-62 99 -195 99q-98 0 -165.5 -65t-89.5 -193zM390 258q63 -88 189 -88q102 0 168 69.5t88 198.5l21 119q4 22 4 71q0 12 -2 32z" />
    <glyph glyph-name="ugrave" unicode="&#xf9;" horiz-adv-x="1206" 
d="M1162 1058l-186 -1058h-213l31 173h-15q-40 -83 -119 -136t-189 -53q-154 0 -241.5 89.5t-87.5 233.5q0 75 20 181l104 570h222l-102 -573q-13 -67 -13 -125q0 -87 49 -135.5t142 -48.5q113 0 182 76.5t91 205.5l106 600h219zM865 1228h-157l-250 354h211z" />
    <glyph glyph-name="uacute" unicode="&#xfa;" horiz-adv-x="1206" 
d="M1162 1058l-186 -1058h-213l31 173h-15q-40 -83 -119 -136t-189 -53q-154 0 -241.5 89.5t-87.5 233.5q0 75 20 181l104 570h222l-102 -573q-13 -67 -13 -125q0 -87 49 -135.5t142 -48.5q113 0 182 76.5t91 205.5l106 600h219zM624 1228l287 354h208l-333 -354h-162z" />
    <glyph glyph-name="ucircumflex" unicode="&#xfb;" horiz-adv-x="1206" 
d="M1162 1058l-186 -1058h-213l31 173h-15q-40 -83 -119 -136t-189 -53q-154 0 -241.5 89.5t-87.5 233.5q0 75 20 181l104 570h222l-102 -573q-13 -67 -13 -125q0 -87 49 -135.5t142 -48.5q113 0 182 76.5t91 205.5l106 600h219zM423 1228l301 364h171l176 -364h-176
l-101 239h-9l-185 -239h-177z" />
    <glyph glyph-name="udieresis" unicode="&#xfc;" horiz-adv-x="1206" 
d="M1162 1058l-186 -1058h-213l31 173h-15q-40 -83 -119 -136t-189 -53q-154 0 -241.5 89.5t-87.5 233.5q0 75 20 181l104 570h222l-102 -573q-13 -67 -13 -125q0 -87 49 -135.5t142 -48.5q113 0 182 76.5t91 205.5l106 600h219zM582 1220q-52 0 -85.5 32t-33.5 83
q0 50 33.5 82.5t85.5 32.5q51 0 85 -32.5t34 -82.5q0 -51 -34 -83t-85 -32zM966 1220q-52 0 -85.5 32t-33.5 83q0 50 33.5 82.5t85.5 32.5q51 0 85 -32.5t34 -82.5q0 -51 -33.5 -83t-85.5 -32z" />
    <glyph glyph-name="yacute" unicode="&#xfd;" horiz-adv-x="1093" 
d="M1132 1058l-528 -1051q-1 -2 -12 -22t-21 -38.5t-10 -20.5q-88 -170 -179.5 -233.5t-252.5 -63.5q-74 0 -130 14l35 178q41 -11 94 -11q70 0 114.5 32.5t80.5 107.5l28 64l-185 1044h231l112 -834h12l373 834h238zM568 1228l287 354h208l-333 -354h-162z" />
    <glyph glyph-name="thorn" unicode="&#xfe;" horiz-adv-x="1208" 
d="M680 -15q-120 0 -207.5 60t-112.5 160h-8l-97 -556h-224l316 1788h218l-97 -558h14q41 92 120 142.5t184 50.5q165 0 261 -107.5t96 -293.5q0 -66 -10 -126l-30 -157q-32 -187 -146.5 -295t-276.5 -108zM399 434q0 -112 65.5 -183.5t168.5 -71.5q95 0 165.5 70t91.5 186
l23 126q5 27 5 75q0 118 -57.5 183.5t-161.5 65.5q-109 0 -181 -72t-93 -200l-21 -123q-5 -48 -5 -56z" />
    <glyph glyph-name="ydieresis" unicode="&#xff;" horiz-adv-x="1093" 
d="M1132 1058l-528 -1051q-1 -2 -12 -22t-21 -38.5t-10 -20.5q-88 -170 -179.5 -233.5t-252.5 -63.5q-74 0 -130 14l35 178q41 -11 94 -11q70 0 114.5 32.5t80.5 107.5l28 64l-185 1044h231l112 -834h12l373 834h238zM526 1220q-52 0 -85.5 32t-33.5 83q0 50 33.5 82.5
t85.5 32.5q51 0 85 -32.5t34 -82.5q0 -51 -34 -83t-85 -32zM910 1220q-52 0 -85.5 32t-33.5 83q0 50 33.5 82.5t85.5 32.5q51 0 85 -32.5t34 -82.5q0 -51 -33.5 -83t-85.5 -32z" />
    <glyph glyph-name="Amacron" unicode="&#x100;" horiz-adv-x="1281" 
d="M-27 0l708 1365h263l229 -1365h-240l-55 372h-479l-188 -372h-238zM779 1121h-15l-281 -567h375zM1166 1628l-24 -124h-621l24 124h621z" />
    <glyph glyph-name="amacron" unicode="&#x101;" horiz-adv-x="1121" 
d="M407 -16q-136 0 -226.5 80t-90.5 217q0 21 2 33q11 145 122 226t307 81h270l11 69q4 18 4 41q0 68 -48 116t-148 48q-81 0 -131 -31.5t-65 -81.5h-213q21 127 132 210t293 83q187 0 290 -91t103 -248q0 -49 -16 -139l-105 -597h-212l25 140h-13q-31 -64 -107 -110
t-184 -46zM313 307q0 -65 46 -106t125 -41q94 0 167 53.5t89 136.5l22 121h-232q-106 0 -161.5 -46.5t-55.5 -117.5zM994 1250h-612l22 131h612z" />
    <glyph glyph-name="Abreve" unicode="&#x102;" horiz-adv-x="1281" 
d="M-27 0l708 1365h263l229 -1365h-240l-55 372h-479l-188 -372h-238zM779 1121h-15l-281 -567h375zM544 1756h142v-4q0 -63 42 -103.5t123 -40.5q76 0 130 41t66 107h143q-16 -126 -114.5 -203t-244.5 -77q-122 0 -206 67.5t-84 172.5q0 1 3 40z" />
    <glyph glyph-name="abreve" unicode="&#x103;" horiz-adv-x="1121" 
d="M407 -16q-136 0 -226.5 80t-90.5 217q0 21 2 33q11 145 122 226t307 81h270l11 69q4 18 4 41q0 68 -48 116t-148 48q-81 0 -131 -31.5t-65 -81.5h-213q21 127 132 210t293 83q187 0 290 -91t103 -248q0 -49 -16 -139l-105 -597h-212l25 140h-13q-31 -64 -107 -110
t-184 -46zM313 307q0 -65 46 -106t125 -41q94 0 167 53.5t89 136.5l22 121h-232q-106 0 -161.5 -46.5t-55.5 -117.5zM424 1510h138q-2 -14 -2 -25q0 -59 39 -96.5t109 -37.5t118.5 41.5t62.5 117.5h138q-16 -132 -110.5 -211t-227.5 -79q-120 0 -196 65t-76 165q0 27 7 60z
" />
    <glyph glyph-name="Aogonek" unicode="&#x104;" horiz-adv-x="1281" 
d="M1001 -372q-93 0 -150.5 51t-53.5 133q5 146 161 218v5h-31l-49 337h-479l-188 -372h-238l708 1365h263l223 -1327q-83 -22 -136.5 -66.5t-54.5 -109.5q-1 -40 25.5 -62.5t76.5 -22.5q45 0 79 8l-24 -137q-44 -20 -132 -20zM779 1121h-15l-281 -567h375z" />
    <glyph glyph-name="aogonek" unicode="&#x105;" horiz-adv-x="1121" 
d="M313 310q0 -65 46 -106t125 -41q94 0 166.5 54t88.5 137l24 119h-233q-106 0 -161.5 -46.5t-55.5 -116.5zM844 -366q-63 -22 -136 -22q-92 0 -152 51t-48 146q5 39 20.5 70t42.5 56t48 39.5t57 36.5l15 9l20 120h-13q-31 -64 -107 -110t-184 -46q-136 0 -226.5 80
t-90.5 217q0 30 2 47q15 138 125.5 215t303.5 77h269l12 70q4 18 4 41q0 69 -48 117t-148 48q-81 0 -131 -32t-65 -82h-213q21 127 132.5 209.5t292.5 82.5q187 0 290 -91.5t103 -248.5q0 -47 -16 -137l-101 -572q-33 -11 -63.5 -25t-65 -35t-58 -50.5t-27.5 -62.5
q-6 -42 21.5 -64.5t76.5 -22.5q46 0 81 8z" />
    <glyph glyph-name="Cacute" unicode="&#x106;" horiz-adv-x="1308" 
d="M434 833l-35 -173q-13 -72 -13 -147q0 -152 82.5 -240.5t230.5 -88.5q115 0 194 58.5t100 157.5h220q-6 -34 -7 -39q-30 -171 -172.5 -279.5t-352.5 -108.5q-245 0 -385.5 144t-140.5 396q0 84 9 138l42 221q45 243 197 381.5t384 138.5q221 0 364 -124t143 -301
q0 -43 -6 -61h-218q2 31 1 41q-9 103 -89.5 170t-198.5 67q-136 0 -225 -88t-124 -263zM732 1507l295 322h211l-335 -322h-171z" />
    <glyph glyph-name="cacute" unicode="&#x107;" horiz-adv-x="1086" 
d="M120 397q0 64 13 147l24 131q35 197 161 299t311 102q187 0 302.5 -97.5t115.5 -252.5q0 -19 -1 -24h-212v13q0 66 -54.5 119.5t-151.5 53.5q-98 0 -167 -65t-91 -186l-20 -111q-10 -50 -10 -100q0 -119 57 -185t170 -66q84 0 138 34.5t67 89.5h216
q-23 -150 -142.5 -233.5t-290.5 -83.5q-199 0 -317 112t-118 303zM570 1228l287 354h208l-333 -354h-162z" />
    <glyph glyph-name="Ccircumflex" unicode="&#x108;" horiz-adv-x="1308" 
d="M434 833l-35 -173q-13 -72 -13 -147q0 -152 82.5 -240.5t230.5 -88.5q115 0 194 58.5t100 157.5h220q-6 -34 -7 -39q-30 -171 -172.5 -279.5t-352.5 -108.5q-245 0 -385.5 144t-140.5 396q0 84 9 138l42 221q45 243 197 381.5t384 138.5q221 0 364 -124t143 -301
q0 -43 -6 -61h-218q2 31 1 41q-9 103 -89.5 170t-198.5 67q-136 0 -225 -88t-124 -263zM481 1494l292 239h190l220 -239h-193l-123 136h-14l-169 -136h-203z" />
    <glyph glyph-name="ccircumflex" unicode="&#x109;" horiz-adv-x="1086" 
d="M120 397q0 64 13 147l24 131q35 197 161 299t311 102q187 0 302.5 -97.5t115.5 -252.5q0 -19 -1 -24h-212v13q0 66 -54.5 119.5t-151.5 53.5q-98 0 -167 -65t-91 -186l-20 -111q-10 -50 -10 -100q0 -119 57 -185t170 -66q84 0 138 34.5t67 89.5h216
q-23 -150 -142.5 -233.5t-290.5 -83.5q-199 0 -317 112t-118 303zM369 1228l301 364h171l176 -364h-176l-101 239h-9l-185 -239h-177z" />
    <glyph glyph-name="Cdotaccent" unicode="&#x10a;" horiz-adv-x="1308" 
d="M434 833l-35 -173q-13 -72 -13 -147q0 -152 82.5 -240.5t230.5 -88.5q115 0 194 58.5t100 157.5h220q-6 -34 -7 -39q-30 -171 -172.5 -279.5t-352.5 -108.5q-245 0 -385.5 144t-140.5 396q0 84 9 138l42 221q45 243 197 381.5t384 138.5q221 0 364 -124t143 -301
q0 -43 -6 -61h-218q2 31 1 41q-9 103 -89.5 170t-198.5 67q-136 0 -225 -88t-124 -263zM743 1602q0 50 35 85.5t84 35.5t83.5 -35.5t34.5 -85.5t-34.5 -85.5t-83.5 -35.5t-84 35.5t-35 85.5z" />
    <glyph glyph-name="cdotaccent" unicode="&#x10b;" horiz-adv-x="1086" 
d="M120 397q0 64 13 147l24 131q35 197 161 299t311 102q187 0 302.5 -97.5t115.5 -252.5q0 -19 -1 -24h-212v13q0 66 -54.5 119.5t-151.5 53.5q-98 0 -167 -65t-91 -186l-20 -111q-10 -50 -10 -100q0 -119 57 -185t170 -66q84 0 138 34.5t67 89.5h216
q-23 -150 -142.5 -233.5t-290.5 -83.5q-199 0 -317 112t-118 303zM606 1363q0 51 34.5 86t83.5 35q50 0 84.5 -35t34.5 -86t-34.5 -86t-84.5 -35q-49 0 -83.5 35t-34.5 86z" />
    <glyph glyph-name="Ccaron" unicode="&#x10c;" horiz-adv-x="1308" 
d="M434 833l-35 -173q-13 -72 -13 -147q0 -152 82.5 -240.5t230.5 -88.5q115 0 194 58.5t100 157.5h220q-6 -34 -7 -39q-30 -171 -172.5 -279.5t-352.5 -108.5q-245 0 -385.5 144t-140.5 396q0 84 9 138l42 221q45 243 197 381.5t384 138.5q221 0 364 -124t143 -301
q0 -43 -6 -61h-218q2 31 1 41q-9 103 -89.5 170t-198.5 67q-136 0 -225 -88t-124 -263zM1240 1735l-292 -239h-190l-220 239h193l123 -136h14l169 136h203z" />
    <glyph glyph-name="ccaron" unicode="&#x10d;" horiz-adv-x="1086" 
d="M120 397q0 64 13 147l24 131q35 197 161 299t311 102q187 0 302.5 -97.5t115.5 -252.5q0 -19 -1 -24h-212v13q0 66 -54.5 119.5t-151.5 53.5q-98 0 -167 -65t-91 -186l-20 -111q-10 -50 -10 -100q0 -119 57 -185t170 -66q84 0 138 34.5t67 89.5h216
q-23 -150 -142.5 -233.5t-290.5 -83.5q-199 0 -317 112t-118 303zM1078 1589l-297 -364h-171l-179 364h173l105 -239h8l182 239h179z" />
    <glyph glyph-name="Dcaron" unicode="&#x10e;" horiz-adv-x="1369" 
d="M352 1365h426q260 0 401 -143t141 -383q0 -83 -10 -143q-1 -8 -13 -72t-14 -74q-52 -266 -241.5 -408t-505.5 -142h-425zM547 1165l-173 -965h151q214 0 352.5 93.5t177.5 279.5q22 112 24 131q8 47 8 120q0 172 -98 256.5t-282 84.5h-160zM1243 1735l-292 -239h-190
l-220 239h193l123 -136h14l169 136h203z" />
    <glyph glyph-name="dcaron" unicode="&#x10f;" horiz-adv-x="1420" 
d="M1410 1437h203l-145 -489h-152zM597 1072q124 0 207.5 -67.5t96.5 -151.5h14l103 584h224l-254 -1437h-221l31 174h-15q-26 -74 -104 -130.5t-195 -56.5q-164 0 -265.5 107.5t-101.5 289.5q0 82 11 133l31 156q34 182 147 290.5t291 108.5zM871 634q0 119 -69.5 184.5
t-162.5 65.5q-105 0 -171.5 -70t-90.5 -187l-25 -124q-6 -34 -6 -84q0 -113 61.5 -177t166.5 -64q107 0 177 73.5t92 199.5l23 123q5 29 5 60z" />
    <glyph glyph-name="Dcroat" unicode="&#x110;" horiz-adv-x="1467" 
d="M451 1365h425q260 0 401 -143t141 -383q0 -83 -10 -143q-1 -9 -12.5 -73.5t-13.5 -73.5q-50 -265 -241 -407t-507 -142h-425l106 590h-165l35 209h164zM646 1165l-67 -366h269l-35 -209h-269l-72 -390h151q214 0 354 93.5t176 279.5q2 8 12.5 65t11.5 66q8 47 8 120
q0 172 -98 256.5t-282 84.5h-159z" />
    <glyph glyph-name="dcroat" unicode="&#x111;" horiz-adv-x="1226" 
d="M871 634q0 119 -69.5 184.5t-162.5 65.5q-105 0 -171.5 -70t-90.5 -187l-25 -124q-6 -38 -6 -84q0 -113 61.5 -177t166.5 -64q106 0 176.5 74t92.5 199l23 123q5 29 5 60zM783 174q-26 -74 -104 -130.5t-195 -56.5q-164 0 -265.5 107.5t-101.5 289.5q0 83 11 133l31 156
q34 182 147 290.5t291 108.5q124 0 208 -67.5t97 -151.5h14l54 307h-215l25 147h221l23 130h213l-23 -130h158l-25 -147h-153l-206 -1160h-221l31 174h-15z" />
    <glyph glyph-name="Emacron" unicode="&#x112;" horiz-adv-x="1151" 
d="M992 200l-34 -200h-847l241 1365h844l-34 -200h-615l-69 -374h584l-32 -188h-583l-74 -403h619zM1118 1628l-24 -124h-621l24 124h621z" />
    <glyph glyph-name="emacron" unicode="&#x113;" horiz-adv-x="1117" 
d="M545 -18q-190 0 -308.5 106.5t-118.5 305.5q0 62 16 153l24 126q33 193 164 298t319 105q111 0 196 -38.5t132.5 -103t67.5 -144t10 -165.5q0 -18 -26 -148h-680q-9 -36 -9 -86q0 -96 55.5 -160.5t171.5 -64.5q85 0 141 34.5t72 87.5h215q-19 -124 -140 -215t-302 -91z
M833 627q3 12 3 23q19 105 -34.5 176t-166.5 71q-92 0 -161 -54t-92 -159l-13 -57h464zM1016 1250h-612l22 131h612z" />
    <glyph glyph-name="Ebreve" unicode="&#x114;" horiz-adv-x="1151" 
d="M992 200l-34 -200h-847l241 1365h844l-34 -200h-615l-69 -374h584l-32 -188h-583l-74 -403h619zM496 1756h142v-4q0 -63 42 -103.5t123 -40.5q76 0 130 41t66 107h143q-16 -126 -114.5 -203t-244.5 -77q-122 0 -206 67.5t-84 172.5q0 1 3 40z" />
    <glyph glyph-name="ebreve" unicode="&#x115;" horiz-adv-x="1117" 
d="M545 -18q-190 0 -308.5 106.5t-118.5 305.5q0 62 16 153l24 126q33 193 164 298t319 105q111 0 196 -38.5t132.5 -103t67.5 -144t10 -165.5q0 -18 -26 -148h-680q-9 -36 -9 -86q0 -96 55.5 -160.5t171.5 -64.5q85 0 141 34.5t72 87.5h215q-19 -124 -140 -215t-302 -91z
M833 627q3 12 3 23q19 105 -34.5 176t-166.5 71q-92 0 -161 -54t-92 -159l-13 -57h464zM446 1510h138q-2 -14 -2 -25q0 -59 39 -96.5t109 -37.5t118.5 41.5t62.5 117.5h138q-16 -132 -110.5 -211t-227.5 -79q-120 0 -196 65t-76 165q0 27 7 60z" />
    <glyph glyph-name="Edotaccent" unicode="&#x116;" horiz-adv-x="1151" 
d="M992 200l-34 -200h-847l241 1365h844l-34 -200h-615l-69 -374h584l-32 -188h-583l-74 -403h619zM684 1602q0 50 35 85.5t84 35.5t83.5 -35.5t34.5 -85.5t-34.5 -85.5t-83.5 -35.5t-84 35.5t-35 85.5z" />
    <glyph glyph-name="edotaccent" unicode="&#x117;" horiz-adv-x="1117" 
d="M545 -18q-190 0 -308.5 106.5t-118.5 305.5q0 62 16 153l24 126q33 193 164 298t319 105q111 0 196 -38.5t132.5 -103t67.5 -144t10 -165.5q0 -18 -26 -148h-680q-9 -36 -9 -86q0 -96 55.5 -160.5t171.5 -64.5q85 0 141 34.5t72 87.5h215q-19 -124 -140 -215t-302 -91z
M833 627q3 12 3 23q19 105 -34.5 176t-166.5 71q-92 0 -161 -54t-92 -159l-13 -57h464zM614 1363q0 51 34.5 86t83.5 35q50 0 84.5 -35t34.5 -86t-34.5 -86t-84.5 -35q-49 0 -83.5 35t-34.5 86z" />
    <glyph glyph-name="Eogonek" unicode="&#x118;" horiz-adv-x="1151" 
d="M766 -370q-92 0 -149.5 43.5t-53.5 129.5q3 120 115 191v6h-567l241 1365h844l-34 -200h-615l-69 -373h584l-31 -189h-585l-74 -403h621l-26 -153q-88 -21 -155 -66.5t-70 -117.5q-1 -41 26.5 -63t76.5 -22q38 0 76 8l-23 -137q-57 -19 -132 -19z" />
    <glyph glyph-name="eogonek" unicode="&#x119;" horiz-adv-x="1118" 
d="M524 -16q-184 -2 -295 104t-111 306q0 62 16 153l24 126q33 193 164 298t319 105q111 0 196 -38.5t132 -103t67 -143.5t11 -166q0 -23 -25 -148h-681q-9 -36 -9 -86q0 -96 55.5 -160.5t171.5 -64.5q85 0 141 34.5t72 87.5h215q-15 -71 -49 -116t-99 -102
q-12 -11 -41.5 -37t-43.5 -40.5t-33 -37t-28.5 -45.5t-12.5 -48q-6 -46 22.5 -72t74.5 -26q42 0 82 10l-24 -141q-53 -21 -133 -21q-91 0 -148.5 53t-51.5 138q7 117 136 202l-7 8q-13 -9 -46 -18.5t-61 -10.5zM833 627q3 12 3 23q18 105 -35 176t-165 71q-93 0 -162 -54
t-92 -159l-13 -57h464z" />
    <glyph glyph-name="Ecaron" unicode="&#x11a;" horiz-adv-x="1151" 
d="M992 200l-34 -200h-847l241 1365h844l-34 -200h-615l-69 -374h584l-32 -188h-583l-74 -403h619zM1181 1735l-292 -239h-190l-220 239h193l123 -136h14l169 136h203z" />
    <glyph glyph-name="ecaron" unicode="&#x11b;" horiz-adv-x="1117" 
d="M545 -18q-190 0 -308.5 106.5t-118.5 305.5q0 62 16 153l24 126q33 193 164 298t319 105q111 0 196 -38.5t132.5 -103t67.5 -144t10 -165.5q0 -18 -26 -148h-680q-9 -36 -9 -86q0 -96 55.5 -160.5t171.5 -64.5q85 0 141 34.5t72 87.5h215q-19 -124 -140 -215t-302 -91z
M833 627q3 12 3 23q19 105 -34.5 176t-166.5 71q-92 0 -161 -54t-92 -159l-13 -57h464zM1086 1589l-297 -364h-171l-179 364h173l105 -239h8l182 239h179z" />
    <glyph glyph-name="Gcircumflex" unicode="&#x11c;" horiz-adv-x="1362" 
d="M207 876q46 246 202.5 381t389.5 135q126 0 227.5 -38t163 -99.5t93.5 -135t32 -149.5q0 -29 -2 -35h-221v27q-2 36 -19.5 73t-51 72.5t-92 57.5t-133.5 22q-145 0 -237.5 -91t-125.5 -261l-37 -179q-13 -81 -13 -145q0 -164 89.5 -249.5t229.5 -85.5q116 0 205.5 57
t108.5 155l27 147h-313l31 177h532l-58 -326q-34 -192 -183.5 -302.5t-363.5 -110.5q-110 0 -204 31t-169.5 93.5t-119 167.5t-43.5 241q0 81 12 153zM486 1494l292 239h190l220 -239h-193l-123 136h-14l-169 -136h-203z" />
    <glyph glyph-name="gcircumflex" unicode="&#x11d;" horiz-adv-x="1219" 
d="M596 1072q123 0 204 -60.5t106 -154.5h13l36 199h221l-184 -1053q-69 -390 -501 -390q-196 0 -311 91.5t-115 218.5q0 3 0.5 7t0.5 8v3h212q0 -9 2 -13q3 -54 66 -94.5t156 -40.5q126 0 191.5 62t87.5 190l24 141h-14q-30 -72 -106.5 -118t-186.5 -46q-155 0 -263 110
t-108 294q0 76 14 144l20 98q27 136 94 229t153 134t188 41zM871 639q0 112 -64.5 178.5t-168.5 66.5q-101 0 -169 -70.5t-92 -195.5l-14 -76q-11 -53 -11 -100q0 -117 62 -182.5t172 -65.5q98 0 168.5 72t92.5 195l15 84q9 48 9 94zM415 1228l301 364h171l176 -364h-176
l-101 239h-9l-185 -239h-177z" />
    <glyph glyph-name="Gbreve" unicode="&#x11e;" horiz-adv-x="1362" 
d="M207 876q46 246 202.5 381t389.5 135q126 0 227.5 -38t163 -99.5t93.5 -135t32 -149.5q0 -29 -2 -35h-221v27q-2 36 -19.5 73t-51 72.5t-92 57.5t-133.5 22q-145 0 -237.5 -91t-125.5 -261l-37 -179q-13 -81 -13 -145q0 -164 89.5 -249.5t229.5 -85.5q116 0 205.5 57
t108.5 155l27 147h-313l31 177h532l-58 -326q-34 -192 -183.5 -302.5t-363.5 -110.5q-110 0 -204 31t-169.5 93.5t-119 167.5t-43.5 241q0 81 12 153zM552 1756h142v-4q0 -63 42 -103.5t123 -40.5q76 0 130 41t66 107h143q-16 -126 -114.5 -203t-244.5 -77q-122 0 -206 67.5
t-84 172.5q0 1 3 40z" />
    <glyph glyph-name="gbreve" unicode="&#x11f;" horiz-adv-x="1219" 
d="M596 1072q123 0 204 -60.5t106 -154.5h13l36 199h221l-184 -1053q-69 -390 -501 -390q-196 0 -311 91.5t-115 218.5q0 3 0.5 7t0.5 8v3h212q0 -9 2 -13q3 -54 66 -94.5t156 -40.5q126 0 191.5 62t87.5 190l24 141h-14q-30 -72 -106.5 -118t-186.5 -46q-155 0 -263 110
t-108 294q0 76 14 144l20 98q27 136 94 229t153 134t188 41zM871 639q0 112 -64.5 178.5t-168.5 66.5q-101 0 -169 -70.5t-92 -195.5l-14 -76q-11 -53 -11 -100q0 -117 62 -182.5t172 -65.5q98 0 168.5 72t92.5 195l15 84q9 48 9 94zM484 1510h138q-2 -14 -2 -25
q0 -59 39 -96.5t109 -37.5t118.5 41.5t62.5 117.5h138q-16 -132 -110.5 -211t-227.5 -79q-120 0 -196 65t-76 165q0 27 7 60z" />
    <glyph glyph-name="Gdotaccent" unicode="&#x120;" horiz-adv-x="1362" 
d="M207 876q46 246 202.5 381t389.5 135q126 0 227.5 -38t163 -99.5t93.5 -135t32 -149.5q0 -29 -2 -35h-221v27q-2 36 -19.5 73t-51 72.5t-92 57.5t-133.5 22q-145 0 -237.5 -91t-125.5 -261l-37 -179q-13 -81 -13 -145q0 -164 89.5 -249.5t229.5 -85.5q116 0 205.5 57
t108.5 155l27 147h-313l31 177h532l-58 -326q-34 -192 -183.5 -302.5t-363.5 -110.5q-110 0 -204 31t-169.5 93.5t-119 167.5t-43.5 241q0 81 12 153zM740 1602q0 50 35 85.5t84 35.5t83.5 -35.5t34.5 -85.5t-34.5 -85.5t-83.5 -35.5t-84 35.5t-35 85.5z" />
    <glyph glyph-name="gdotaccent" unicode="&#x121;" horiz-adv-x="1219" 
d="M596 1072q123 0 204 -60.5t106 -154.5h13l36 199h221l-184 -1053q-69 -390 -501 -390q-196 0 -311 91.5t-115 218.5q0 3 0.5 7t0.5 8v3h212q0 -9 2 -13q3 -54 66 -94.5t156 -40.5q126 0 191.5 62t87.5 190l24 141h-14q-30 -72 -106.5 -118t-186.5 -46q-155 0 -263 110
t-108 294q0 76 14 144l20 98q27 136 94 229t153 134t188 41zM871 639q0 112 -64.5 178.5t-168.5 66.5q-101 0 -169 -70.5t-92 -195.5l-14 -76q-11 -53 -11 -100q0 -117 62 -182.5t172 -65.5q98 0 168.5 72t92.5 195l15 84q9 48 9 94zM652 1363q0 51 34.5 86t83.5 35
q50 0 84.5 -35t34.5 -86t-34.5 -86t-84.5 -35q-49 0 -83.5 35t-34.5 86z" />
    <glyph glyph-name="Gcommaaccent" unicode="&#x122;" horiz-adv-x="1362" 
d="M207 876q46 246 202.5 381t389.5 135q126 0 227.5 -38t163 -99.5t93.5 -135t32 -149.5q0 -29 -2 -35h-221v27q-2 36 -19.5 73t-51 72.5t-92 57.5t-133.5 22q-145 0 -237.5 -91t-125.5 -261l-37 -179q-13 -81 -13 -145q0 -164 89.5 -249.5t229.5 -85.5q116 0 205.5 57
t108.5 155l27 147h-313l31 177h532l-58 -326q-34 -192 -183.5 -302.5t-363.5 -110.5q-110 0 -204 31t-169.5 93.5t-119 167.5t-43.5 241q0 81 12 153zM625 -452h-152l81 315h177z" />
    <glyph glyph-name="gcommaaccent" unicode="&#x123;" horiz-adv-x="1218" 
d="M758 1583h159l-85 -335h-188zM596 1072q123 0 204 -60.5t106 -154.5h13l36 199h221l-184 -1053q-69 -390 -501 -390q-196 0 -311 91.5t-115 218.5q0 3 0.5 7t0.5 8v3h212q0 -9 2 -13q3 -54 66 -94.5t156 -40.5q126 0 191.5 62t87.5 190l24 141h-14q-30 -72 -106.5 -118
t-186.5 -46q-155 0 -263 110t-108 294q0 76 14 144l20 98q27 136 94 229t153 134t188 41zM871 639q0 112 -64.5 178.5t-168.5 66.5q-101 0 -169 -70.5t-92 -195.5l-14 -76q-11 -53 -11 -100q0 -117 62 -182.5t172 -65.5q98 0 168.5 72t92.5 195l15 84q9 48 9 94z" />
    <glyph glyph-name="Hcircumflex" unicode="&#x124;" horiz-adv-x="1437" 
d="M340 0h-229l241 1365h228l-99 -563h622l99 563h229l-241 -1365h-228l107 601h-622zM560 1494l292 239h190l220 -239h-193l-123 136h-14l-169 -136h-203z" />
    <glyph glyph-name="hcircumflex" unicode="&#x125;" horiz-adv-x="1222" 
d="M95 0l253 1437h223l-100 -547h14q41 88 120 136t189 48q156 0 241 -93t85 -233q0 -54 -21 -184l-100 -564h-224l102 577q12 62 12 118q0 86 -45 139.5t-139 53.5q-114 0 -186 -79t-94 -205l-107 -604h-223zM124 1566l292 239h190l220 -239h-193l-123 136h-14l-169 -136
h-203z" />
    <glyph glyph-name="Hbar" unicode="&#x126;" horiz-adv-x="1438" 
d="M480 788h622l34 186h-622zM447 587l-106 -587h-228l172 974h-97l34 201h97l34 190h229l-35 -190h623l34 190h228l-35 -190h96l-34 -201h-95l-172 -974h-224l101 587h-622z" />
    <glyph glyph-name="hbar" unicode="&#x127;" horiz-adv-x="1222" 
d="M425 604l-107 -604h-223l207 1166h-131l26 147h130l21 124h223l-23 -124h221l-26 -147h-221l-51 -276h14q41 88 120 136t189 48q156 0 241 -93t85 -233q0 -52 -21 -184l-100 -564h-224l102 577q12 62 12 118q0 86 -45 139.5t-139 53.5q-114 0 -186 -79t-94 -205z" />
    <glyph glyph-name="Itilde" unicode="&#x128;" horiz-adv-x="586" 
d="M339 0h-228l241 1365h228zM615 1458q-39 0 -69.5 11.5t-49.5 27.5t-35 32t-35 27.5t-40 11.5q-65 0 -75 -93h-128q6 89 58.5 150.5t137.5 61.5q50 0 88.5 -18t57 -39t41 -39t45.5 -18q63 0 74 100h128q-5 -88 -59 -151.5t-139 -63.5z" />
    <glyph glyph-name="itilde" unicode="&#x129;" horiz-adv-x="573" 
d="M106 0l188 1058h223l-188 -1058h-223zM569 1217q-42 0 -74.5 14.5t-53 35.5t-37.5 42t-36.5 35.5t-41.5 14.5q-72 0 -82 -108h-131q9 108 66.5 178.5t149.5 70.5q43 0 77 -14.5t54.5 -35.5t37.5 -42t35.5 -35.5t39.5 -14.5q34 0 55.5 29t27.5 79h130q-7 -104 -67 -176.5
t-150 -72.5z" />
    <glyph glyph-name="Imacron" unicode="&#x12a;" horiz-adv-x="586" 
d="M339 0h-228l241 1365h228zM826 1628l-24 -124h-621l24 124h621z" />
    <glyph glyph-name="imacron" unicode="&#x12b;" horiz-adv-x="573" 
d="M106 0l188 1058h223l-188 -1058h-223zM751 1250h-612l22 131h612z" />
    <glyph glyph-name="Ibreve" unicode="&#x12c;" horiz-adv-x="586" 
d="M339 0h-228l241 1365h228zM204 1756h142v-4q0 -63 42 -103.5t123 -40.5q76 0 130 41t66 107h143q-16 -126 -114.5 -203t-244.5 -77q-122 0 -206 67.5t-84 172.5q0 1 3 40z" />
    <glyph glyph-name="ibreve" unicode="&#x12d;" horiz-adv-x="573" 
d="M106 0l188 1058h223l-188 -1058h-223zM181 1510h138q-2 -14 -2 -25q0 -59 39 -96.5t109 -37.5t118.5 41.5t62.5 117.5h138q-16 -132 -110.5 -211t-227.5 -79q-120 0 -196 65t-76 165q0 27 7 60z" />
    <glyph glyph-name="Iogonek" unicode="&#x12e;" horiz-adv-x="586" 
d="M301 -350q-49 -22 -135 -22q-97 0 -151.5 51.5t-50.5 131.5q5 154 175 224v5h-21l234 1326h228l-234 -1324q-90 -26 -144.5 -72.5t-55.5 -108.5q-2 -42 24.5 -63.5t74.5 -21.5q47 0 78 9z" />
    <glyph glyph-name="iogonek" unicode="&#x12f;" horiz-adv-x="573" 
d="M300 1369q0 63 42 102t107 39q66 0 106 -38t40 -98q0 -61 -42.5 -100t-109.5 -39q-63 0 -103 37.5t-40 96.5zM285 -369q-51 -19 -131 -19q-107 0 -165.5 53t-50.5 139q13 137 175 220l182 1034h223l-183 -1032q-47 -12 -89 -31.5t-79.5 -57t-41.5 -82.5q-4 -42 24 -68
t78 -26q47 0 82 8z" />
    <glyph glyph-name="Idotaccent" unicode="&#x130;" horiz-adv-x="586" 
d="M339 0h-228l241 1365h228zM392 1602q0 50 35 85.5t84 35.5t83.5 -35.5t34.5 -85.5t-34.5 -85.5t-83.5 -35.5t-84 35.5t-35 85.5z" />
    <glyph glyph-name="dotlessi" unicode="&#x131;" horiz-adv-x="573" 
d="M106 0l188 1058h223l-188 -1058h-223z" />
    <glyph glyph-name="IJ" unicode="&#x132;" horiz-adv-x="1653" 
d="M339 0h-228l241 1365h228zM1650 1365l-174 -987q-35 -198 -147.5 -301.5t-287.5 -103.5q-177 0 -293 98t-116 259q0 44 7 70h214q-1 -15 -1 -36q0 -76 51.5 -125t135.5 -49q173 0 213 217l169 958h229z" />
    <glyph glyph-name="ij" unicode="&#x133;" horiz-adv-x="1138" 
d="M107 0l187 1058h223l-187 -1058h-223zM300 1369q0 63 42 102t107 39q66 0 106 -38t40 -98q0 -61 -42.5 -100t-109.5 -39q-63 0 -103 37.5t-40 96.5zM1070 1058l-192 -1084q-32 -178 -128 -261.5t-274 -83.5q-57 0 -109 13l35 181q36 -9 78 -9q70 0 115.5 41t58.5 114
l192 1089h224zM853 1369q0 63 42 102t107 39t105.5 -37.5t40.5 -98.5t-42 -100t-109 -39q-63 0 -103.5 37.5t-40.5 96.5z" />
    <glyph glyph-name="Jcircumflex" unicode="&#x134;" horiz-adv-x="1067" 
d="M1065 1365l-174 -987q-35 -198 -147.5 -301.5t-287.5 -103.5q-177 0 -293 98t-116 259q0 44 7 70h214q-1 -15 -1 -36q0 -76 51.5 -125t135.5 -49q173 0 213 217l169 958h229zM617 1494l292 239h190l220 -239h-193l-123 136h-14l-169 -136h-203z" />
    <glyph glyph-name="jcircumflex" unicode="&#x135;" horiz-adv-x="573" 
d="M517 1058l-192 -1084q-32 -178 -128 -261.5t-274 -83.5q-57 0 -109 13l35 181q36 -9 78 -9q70 0 115.5 41t58.5 114l192 1089h224zM105 1228l301 364h171l176 -364h-176l-101 239h-9l-185 -239h-177z" />
    <glyph glyph-name="Kcommaaccent" unicode="&#x136;" horiz-adv-x="1305" 
d="M581 1365l-118 -632h14l665 632h282l-631 -612l397 -753h-259l-318 619l-194 -175l-80 -444h-228l241 1365h229zM543 -452h-152l81 315h177z" />
    <glyph glyph-name="kcommaaccent" unicode="&#x137;" horiz-adv-x="1117" 
d="M386 404l-72 -404h-220l253 1437h219l-138 -786h14l458 407h281l-496 -432l319 -626h-240l-252 508zM463 -452h-152l81 315h177z" />
    <glyph glyph-name="Lacute" unicode="&#x139;" horiz-adv-x="1059" 
d="M971 204l-34 -204h-826l241 1365h228l-207 -1161h598zM377 1507l295 322h211l-335 -322h-171z" />
    <glyph glyph-name="lacute" unicode="&#x13a;" horiz-adv-x="573" 
d="M106 0l255 1437h223l-254 -1437h-224zM379 1579l295 322h211l-335 -322h-171z" />
    <glyph glyph-name="Lcommaaccent" unicode="&#x13b;" horiz-adv-x="1059" 
d="M971 204l-34 -204h-826l241 1365h228l-207 -1161h598zM454 -452h-152l81 315h177z" />
    <glyph glyph-name="lcommaaccent" unicode="&#x13c;" horiz-adv-x="573" 
d="M106 0l255 1437h223l-254 -1437h-224zM186 -452h-152l81 315h177z" />
    <glyph glyph-name="Lcaron" unicode="&#x13d;" horiz-adv-x="1059" 
d="M821 1426h204l-145 -489h-152zM971 204l-34 -204h-826l241 1365h228l-207 -1161h598z" />
    <glyph glyph-name="lcaron" unicode="&#x13e;" horiz-adv-x="762" 
d="M752 1437h203l-145 -489h-152zM106 0l255 1437h223l-254 -1437h-224z" />
    <glyph glyph-name="Lslash" unicode="&#x141;" horiz-adv-x="1082" 
d="M957 0h-827l93 522l-137 -71l35 210l137 71l113 634h228l-90 -498l381 197l-35 -213l-382 -195l-82 -452h600z" />
    <glyph glyph-name="lslash" unicode="&#x142;" horiz-adv-x="651" 
d="M369 0h-223l104 583l-164 -95l35 203l164 96l115 650h223l-90 -505l162 96l-36 -210l-162 -95z" />
    <glyph glyph-name="Nacute" unicode="&#x143;" horiz-adv-x="1430" 
d="M1183 0h-199l-468 970h-11l-174 -970h-220l241 1365h202l463 -968h12l175 968h220zM813 1507l295 322h211l-335 -322h-171z" />
    <glyph glyph-name="nacute" unicode="&#x144;" horiz-adv-x="1216" 
d="M94 0l186 1058h219l-30 -168h14q43 86 120.5 135t188.5 49q158 0 240 -92t82 -233q0 -67 -21 -185l-100 -564h-224l102 577q12 70 12 118q0 87 -45.5 140t-135.5 53q-114 0 -184.5 -77.5t-93.5 -206.5l-106 -604h-224zM636 1228l287 354h208l-333 -354h-162z" />
    <glyph glyph-name="Ncommaaccent" unicode="&#x145;" horiz-adv-x="1430" 
d="M1183 0h-199l-468 970h-11l-174 -970h-220l241 1365h202l463 -968h12l175 968h220zM627 -452h-152l81 315h177z" />
    <glyph glyph-name="ncommaaccent" unicode="&#x146;" horiz-adv-x="1216" 
d="M94 0l186 1058h219l-30 -168h14q43 86 120.5 135t188.5 49q158 0 240 -92t82 -233q0 -67 -21 -185l-100 -564h-224l102 577q12 70 12 118q0 87 -45.5 140t-135.5 53q-114 0 -184.5 -77.5t-93.5 -206.5l-106 -604h-224zM507 -452h-152l81 315h177z" />
    <glyph glyph-name="Ncaron" unicode="&#x147;" horiz-adv-x="1430" 
d="M1183 0h-199l-468 970h-11l-174 -970h-220l241 1365h202l463 -968h12l175 968h220zM1321 1735l-292 -239h-190l-220 239h193l123 -136h14l169 136h203z" />
    <glyph glyph-name="ncaron" unicode="&#x148;" horiz-adv-x="1216" 
d="M94 0l186 1058h219l-30 -168h14q43 86 120.5 135t188.5 49q158 0 240 -92t82 -233q0 -67 -21 -185l-100 -564h-224l102 577q12 70 12 118q0 87 -45.5 140t-135.5 53q-114 0 -184.5 -77.5t-93.5 -206.5l-106 -604h-224zM1144 1589l-297 -364h-171l-179 364h173l105 -239h8
l182 239h179z" />
    <glyph glyph-name="Omacron" unicode="&#x14c;" horiz-adv-x="1392" 
d="M432 835l-33 -174q-14 -73 -14 -146q0 -153 86.5 -243.5t241.5 -90.5q142 0 233 91.5t124 273.5l34 184q8 50 8 128q0 148 -88 238.5t-239 90.5q-135 0 -227 -85.5t-126 -266.5zM167 674l37 202q44 245 201.5 380.5t387.5 135.5q248 0 399.5 -143t151.5 -392
q0 -87 -14 -162l-38 -203q-46 -250 -197.5 -384.5t-404.5 -134.5q-235 0 -385.5 138t-150.5 378q0 112 13 185zM1224 1628l-24 -124h-621l24 124h621z" />
    <glyph glyph-name="omacron" unicode="&#x14d;" horiz-adv-x="1162" 
d="M376 631l-20 -114q-10 -52 -10 -102q0 -112 63.5 -179.5t173.5 -67.5q102 0 167.5 69.5t88.5 198.5l21 121q5 39 5 92q0 108 -63 174t-171 66q-98 0 -165.5 -65t-89.5 -193zM134 550l21 119q33 189 163.5 298t315.5 109q207 0 332 -118.5t125 -319.5q0 -71 -11 -127
l-23 -120q-37 -193 -162 -301t-327 -108q-197 0 -321.5 114.5t-124.5 309.5q0 85 12 144zM1038 1250h-612l22 131h612z" />
    <glyph glyph-name="Obreve" unicode="&#x14e;" horiz-adv-x="1392" 
d="M432 835l-33 -174q-14 -73 -14 -146q0 -153 86.5 -243.5t241.5 -90.5q142 0 233 91.5t124 273.5l34 184q8 50 8 128q0 148 -88 238.5t-239 90.5q-135 0 -227 -85.5t-126 -266.5zM167 674l37 202q44 245 201.5 380.5t387.5 135.5q248 0 399.5 -143t151.5 -392
q0 -87 -14 -162l-38 -203q-46 -250 -197.5 -384.5t-404.5 -134.5q-235 0 -385.5 138t-150.5 378q0 112 13 185zM602 1756h142v-4q0 -63 42 -103.5t123 -40.5q76 0 130 41t66 107h143q-16 -126 -114.5 -203t-244.5 -77q-122 0 -206 67.5t-84 172.5q0 1 3 40z" />
    <glyph glyph-name="obreve" unicode="&#x14f;" horiz-adv-x="1162" 
d="M376 631l-20 -114q-10 -52 -10 -102q0 -112 63.5 -179.5t173.5 -67.5q102 0 167.5 69.5t88.5 198.5l21 121q5 39 5 92q0 108 -63 174t-171 66q-98 0 -165.5 -65t-89.5 -193zM134 550l21 119q33 189 163.5 298t315.5 109q207 0 332 -118.5t125 -319.5q0 -71 -11 -127
l-23 -120q-37 -193 -162 -301t-327 -108q-197 0 -321.5 114.5t-124.5 309.5q0 85 12 144zM468 1510h138q-2 -14 -2 -25q0 -59 39 -96.5t109 -37.5t118.5 41.5t62.5 117.5h138q-16 -132 -110.5 -211t-227.5 -79q-120 0 -196 65t-76 165q0 27 7 60z" />
    <glyph glyph-name="Ohungarumlaut" unicode="&#x150;" horiz-adv-x="1392" 
d="M432 835l-33 -174q-14 -73 -14 -146q0 -153 86.5 -243.5t241.5 -90.5q142 0 233 91.5t124 273.5l34 184q8 50 8 128q0 148 -88 238.5t-239 90.5q-135 0 -227 -85.5t-126 -266.5zM167 674l37 202q44 245 201.5 380.5t387.5 135.5q248 0 399.5 -143t151.5 -392
q0 -87 -14 -162l-38 -203q-46 -250 -197.5 -384.5t-404.5 -134.5q-235 0 -385.5 138t-150.5 378q0 112 13 185zM609 1507l294 322h210l-337 -322h-167zM968 1507l294 322h210l-337 -322h-167z" />
    <glyph glyph-name="ohungarumlaut" unicode="&#x151;" horiz-adv-x="1162" 
d="M376 631l-20 -114q-10 -52 -10 -102q0 -112 63.5 -179.5t173.5 -67.5q102 0 167.5 69.5t88.5 198.5l21 121q5 39 5 92q0 108 -63 174t-171 66q-98 0 -165.5 -65t-89.5 -193zM134 550l21 119q33 189 163.5 298t315.5 109q207 0 332 -118.5t125 -319.5q0 -71 -11 -127
l-23 -120q-37 -193 -162 -301t-327 -108q-197 0 -321.5 114.5t-124.5 309.5q0 85 12 144zM461 1228l267 333h210l-334 -333h-143zM789 1228l270 333h207l-332 -333h-145z" />
    <glyph glyph-name="OE" unicode="&#x152;" horiz-adv-x="2014" 
d="M167 674l37 202q44 246 197.5 381t374.5 135q151 0 261 -62t159 -168h6l35 204h824l-33 -198h-619l-69 -382h583l-32 -188h-583l-73 -400h619l-34 -198h-820l25 141h-5q-61 -84 -159.5 -126t-212.5 -42q-223 0 -359.5 133.5t-136.5 384.5q0 100 15 183zM432 833l-34 -174
q-13 -73 -13 -144q0 -158 86.5 -246.5t237.5 -88.5q304 0 365 364l32 186q8 45 8 112q0 150 -87 246t-239 96q-138 0 -231 -88.5t-125 -262.5z" />
    <glyph glyph-name="oe" unicode="&#x153;" horiz-adv-x="1849" 
d="M1284 -18q-123 0 -215 51.5t-133 149.5h-6q-49 -95 -147.5 -148t-224.5 -53q-193 0 -314.5 115.5t-121.5 318.5q0 66 12 134l21 124q32 185 158.5 293.5t308.5 108.5q124 0 224.5 -52t145.5 -152h5q57 98 153 151t223 53q91 0 164.5 -27t120.5 -72t77 -103.5t40 -121
t3 -125.5l-25 -150h-681q0 -8 -5 -28q-4 -23 -4 -54q0 -100 55.5 -164.5t171.5 -64.5q85 0 141.5 35t71.5 87h215q-17 -122 -139.5 -214t-294.5 -92zM374 631l-20 -112q-10 -60 -10 -99q0 -114 63 -182t171 -68q105 0 171 69.5t88 198.5l21 119q5 34 5 83q0 114 -62.5 181.5
t-169.5 67.5q-100 0 -167 -64.5t-90 -193.5zM1564 627q3 12 3 23q18 106 -35.5 176.5t-164.5 70.5q-92 0 -161 -53.5t-93 -159.5l-13 -57h464z" />
    <glyph glyph-name="Racute" unicode="&#x154;" horiz-adv-x="1291" 
d="M340 0h-229l241 1366h489q198 0 305.5 -98.5t107.5 -266.5q0 -47 -5 -77q-17 -140 -102 -236.5t-212 -135.5l184 -552h-240l-167 520q-30 -2 -64 -2h-216zM785 1172h-237l-84 -464h232q287 0 318 221q5 28 5 58q0 88 -58.5 136.5t-175.5 48.5zM678 1507l295 322h211
l-335 -322h-171z" />
    <glyph glyph-name="racute" unicode="&#x155;" horiz-adv-x="813" 
d="M94 0l186 1058h212l-32 -176h14q29 81 105 136.5t184 55.5q44 0 98 -15l-43 -209q-41 18 -103 18q-127 0 -199.5 -81t-96.5 -215l-102 -572h-223zM446 1228l287 354h208l-333 -354h-162z" />
    <glyph glyph-name="Rcommaaccent" unicode="&#x156;" horiz-adv-x="1291" 
d="M340 0h-229l241 1366h489q198 0 305.5 -98.5t107.5 -266.5q0 -47 -5 -77q-17 -140 -102 -236.5t-212 -135.5l184 -552h-240l-167 520q-30 -2 -64 -2h-216zM785 1172h-237l-84 -464h232q287 0 318 221q5 28 5 58q0 88 -58.5 136.5t-175.5 48.5zM494 -452h-152l81 315h177z
" />
    <glyph glyph-name="rcommaaccent" unicode="&#x157;" horiz-adv-x="813" 
d="M94 0l186 1058h212l-32 -176h14q29 81 105 136.5t184 55.5q44 0 98 -15l-43 -209q-41 18 -103 18q-127 0 -199.5 -81t-96.5 -215l-102 -572h-223zM179 -452h-152l81 315h177z" />
    <glyph glyph-name="Rcaron" unicode="&#x158;" horiz-adv-x="1291" 
d="M340 0h-229l241 1366h489q198 0 305.5 -98.5t107.5 -266.5q0 -47 -5 -77q-17 -140 -102 -236.5t-212 -135.5l184 -552h-240l-167 520q-30 -2 -64 -2h-216zM785 1172h-237l-84 -464h232q287 0 318 221q5 28 5 58q0 88 -58.5 136.5t-175.5 48.5zM1186 1735l-292 -239h-190
l-220 239h193l123 -136h14l169 136h203z" />
    <glyph glyph-name="rcaron" unicode="&#x159;" horiz-adv-x="813" 
d="M94 0l186 1058h212l-32 -176h14q29 81 105 136.5t184 55.5q44 0 98 -15l-43 -209q-41 18 -103 18q-127 0 -199.5 -81t-96.5 -215l-102 -572h-223zM954 1589l-297 -364h-171l-179 364h173l105 -239h8l182 239h179z" />
    <glyph glyph-name="Sacute" unicode="&#x15a;" horiz-adv-x="1234" 
d="M106 395h218q-1 -7 -1 -22q0 -85 81.5 -146t210.5 -61q120 0 196.5 55t76.5 148q0 34 -12.5 62t-31 47t-51.5 37.5t-61 30t-72 26.5l-80 29q-57 20 -103.5 42t-94.5 56t-80 73t-52.5 94.5t-20.5 119.5q0 126 66.5 219.5t176.5 140t248 46.5q127 0 232 -45t167.5 -129.5
t62.5 -193.5q0 -5 -1 -20t-1 -16h-210v2q0 2 0.5 6t0.5 8q0 89 -74 141t-179 52q-103 0 -178.5 -49t-75.5 -138q0 -73 59.5 -120t174.5 -89l96 -34q58 -21 100 -40t88 -50.5t74.5 -67.5t47.5 -90t19 -119q0 -200 -144.5 -313.5t-373.5 -113.5q-216 0 -359 106.5t-143 270.5
q0 24 3 45zM690 1507l295 322h211l-335 -322h-171z" />
    <glyph glyph-name="sacute" unicode="&#x15b;" horiz-adv-x="1054" 
d="M198 755q0 145 104 233t294 88q182 0 291 -87.5t109 -207.5v-26h-200v12q0 53 -53.5 98t-145.5 45q-85 0 -134.5 -37.5t-49.5 -93.5q0 -16 3.5 -29.5t12.5 -25.5t16.5 -21t24.5 -18.5t27.5 -15t33.5 -14t34.5 -12.5t39 -12.5t38.5 -12.5q66 -21 112.5 -43.5t89 -57.5
t64.5 -85.5t22 -116.5q0 -161 -118.5 -248.5t-310.5 -87.5q-181 0 -303.5 87.5t-122.5 225.5q0 16 1 19h204q0 -2 0.5 -8.5t0.5 -9.5q10 -60 72 -100.5t157 -40.5t147.5 38.5t52.5 103.5q0 27 -12 49.5t-27 36t-48 28.5t-54 22t-67 21q-32 10 -54 18t-57 23t-59 30.5
t-51.5 39.5t-44 51t-28 63.5t-11.5 78.5zM551 1228l287 354h208l-333 -354h-162z" />
    <glyph glyph-name="Scircumflex" unicode="&#x15c;" horiz-adv-x="1234" 
d="M106 395h218q-1 -7 -1 -22q0 -85 81.5 -146t210.5 -61q120 0 196.5 55t76.5 148q0 34 -12.5 62t-31 47t-51.5 37.5t-61 30t-72 26.5l-80 29q-57 20 -103.5 42t-94.5 56t-80 73t-52.5 94.5t-20.5 119.5q0 126 66.5 219.5t176.5 140t248 46.5q127 0 232 -45t167.5 -129.5
t62.5 -193.5q0 -5 -1 -20t-1 -16h-210v2q0 2 0.5 6t0.5 8q0 89 -74 141t-179 52q-103 0 -178.5 -49t-75.5 -138q0 -73 59.5 -120t174.5 -89l96 -34q58 -21 100 -40t88 -50.5t74.5 -67.5t47.5 -90t19 -119q0 -200 -144.5 -313.5t-373.5 -113.5q-216 0 -359 106.5t-143 270.5
q0 24 3 45zM447 1494l292 239h190l220 -239h-193l-123 136h-14l-169 -136h-203z" />
    <glyph glyph-name="scircumflex" unicode="&#x15d;" horiz-adv-x="1054" 
d="M198 755q0 145 104 233t294 88q182 0 291 -87.5t109 -207.5v-26h-200v12q0 53 -53.5 98t-145.5 45q-85 0 -134.5 -37.5t-49.5 -93.5q0 -16 3.5 -29.5t12.5 -25.5t16.5 -21t24.5 -18.5t27.5 -15t33.5 -14t34.5 -12.5t39 -12.5t38.5 -12.5q66 -21 112.5 -43.5t89 -57.5
t64.5 -85.5t22 -116.5q0 -161 -118.5 -248.5t-310.5 -87.5q-181 0 -303.5 87.5t-122.5 225.5q0 16 1 19h204q0 -2 0.5 -8.5t0.5 -9.5q10 -60 72 -100.5t157 -40.5t147.5 38.5t52.5 103.5q0 27 -12 49.5t-27 36t-48 28.5t-54 22t-67 21q-32 10 -54 18t-57 23t-59 30.5
t-51.5 39.5t-44 51t-28 63.5t-11.5 78.5zM350 1228l301 364h171l176 -364h-176l-101 239h-9l-185 -239h-177z" />
    <glyph glyph-name="Scedilla" unicode="&#x15e;" horiz-adv-x="1234" 
d="M540 -485q-84 0 -156 25l20 115q56 -18 125 -18q104 0 106 64v4q0 64 -130 64h-52l10 76l39 136q-178 24 -288.5 126t-110.5 243q0 24 3 45h218q-1 -7 -1 -22q0 -85 81.5 -146t210.5 -61q120 0 196.5 55t76.5 148q0 34 -12.5 62t-31 47t-51 37.5t-60.5 30t-72 26.5
l-81 29q-57 20 -103.5 42t-94.5 56t-80 73t-52.5 94.5t-20.5 119.5q0 126 66.5 219.5t176.5 140t248 46.5q127 0 232 -45t167.5 -129.5t62.5 -193.5q0 -5 -1 -20t-1 -16h-210v2q0 2 0.5 6t0.5 8q0 89 -74 141.5t-179 52.5q-103 0 -178.5 -49.5t-75.5 -138.5q0 -73 59.5 -120
t174.5 -89l96 -34q58 -21 100 -40t88 -50.5t74.5 -67.5t47.5 -90t19 -119q0 -191 -132.5 -303t-345.5 -123l-31 -101q80 -2 129.5 -41.5t49.5 -111.5q0 -8 -1 -13q-4 -92 -73.5 -142t-178.5 -50z" />
    <glyph glyph-name="scedilla" unicode="&#x15f;" horiz-adv-x="1054" 
d="M431 -485q-86 0 -155 25l19 115q57 -18 125 -18q105 0 106 64v4q0 64 -129 64h-53l10 76l43 146q-143 24 -232 106.5t-89 197.5q0 3 0.5 10t0.5 8h204q0 -5 2 -17q9 -60 71 -101t158 -41q94 0 147 39.5t53 103.5q0 26 -11 47t-25 34.5t-43.5 27t-51 21t-62.5 20.5
q-10 3 -16 5q-46 14 -78 26t-78.5 38t-76 56t-51 78t-21.5 106q0 145 104 233t294 88q182 0 291 -87.5t109 -207.5v-25h-200v12q0 53 -53.5 97.5t-145.5 44.5q-85 0 -134.5 -37.5t-49.5 -93.5q0 -16 3.5 -29.5t12.5 -25t16.5 -20.5t24.5 -18.5t27.5 -15t33.5 -14t34.5 -12.5
t39 -12.5t38.5 -12.5q66 -21 112.5 -43.5t89.5 -57t65 -85t22 -116.5q0 -152 -107.5 -239.5t-285.5 -95.5l-33 -110q80 -2 129 -42t49 -111q0 -8 -1 -13q-4 -92 -73.5 -142t-178.5 -50z" />
    <glyph glyph-name="Scaron" unicode="&#x160;" horiz-adv-x="1234" 
d="M106 395h218q-1 -7 -1 -22q0 -85 81.5 -146t210.5 -61q120 0 196.5 55t76.5 148q0 34 -12.5 62t-31 47t-51.5 37.5t-61 30t-72 26.5l-80 29q-57 20 -103.5 42t-94.5 56t-80 73t-52.5 94.5t-20.5 119.5q0 126 66.5 219.5t176.5 140t248 46.5q127 0 232 -45t167.5 -129.5
t62.5 -193.5q0 -5 -1 -20t-1 -16h-210v2q0 2 0.5 6t0.5 8q0 89 -74 141t-179 52q-103 0 -178.5 -49t-75.5 -138q0 -73 59.5 -120t174.5 -89l96 -34q58 -21 100 -40t88 -50.5t74.5 -67.5t47.5 -90t19 -119q0 -200 -144.5 -313.5t-373.5 -113.5q-216 0 -359 106.5t-143 270.5
q0 24 3 45zM1198 1735l-292 -239h-190l-220 239h193l123 -136h14l169 136h203z" />
    <glyph glyph-name="scaron" unicode="&#x161;" horiz-adv-x="1054" 
d="M198 755q0 145 104 233t294 88q182 0 291 -87.5t109 -207.5v-26h-200v12q0 53 -53.5 98t-145.5 45q-85 0 -134.5 -37.5t-49.5 -93.5q0 -16 3.5 -29.5t12.5 -25.5t16.5 -21t24.5 -18.5t27.5 -15t33.5 -14t34.5 -12.5t39 -12.5t38.5 -12.5q66 -21 112.5 -43.5t89 -57.5
t64.5 -85.5t22 -116.5q0 -161 -118.5 -248.5t-310.5 -87.5q-181 0 -303.5 87.5t-122.5 225.5q0 16 1 19h204q0 -2 0.5 -8.5t0.5 -9.5q10 -60 72 -100.5t157 -40.5t147.5 38.5t52.5 103.5q0 27 -12 49.5t-27 36t-48 28.5t-54 22t-67 21q-32 10 -54 18t-57 23t-59 30.5
t-51.5 39.5t-44 51t-28 63.5t-11.5 78.5zM1059 1589l-297 -364h-171l-179 364h173l105 -239h8l182 239h179z" />
    <glyph glyph-name="Tcedilla" unicode="&#x162;" horiz-adv-x="1124" 
d="M439 0h-56l208 1163h-405l34 202h1030l-32 -202h-399l-208 -1163h-28l-38 -127q80 -2 129 -42t49 -111q0 -8 -1 -13q-4 -92 -73.5 -142t-178.5 -50q-84 0 -156 25l20 115q56 -18 125 -18q104 0 106 64v4q0 64 -130 64h-52l10 76z" />
    <glyph glyph-name="tcedilla" unicode="&#x163;" horiz-adv-x="781" 
d="M336 -478q-87 0 -156 25l19 115q57 -18 125 -18q105 0 106 64v4q0 64 -129 64h-52l9 76l53 169q-116 48 -116 184q0 44 13 120l97 544h-156l32 181h156l48 264h217l-46 -264h226l-32 -181h-223l-84 -472q-17 -89 -17 -123q0 -54 30 -78t94 -24q72 0 115 10l-30 -175
q-54 -15 -153 -15q-23 0 -34 1l-38 -113q80 -2 129.5 -41.5t49.5 -111.5q0 -3 -2 -13q-4 -92 -73.5 -142t-177.5 -50z" />
    <glyph glyph-name="Tcaron" unicode="&#x164;" horiz-adv-x="1126" 
d="M609 0h-228l207 1163h-402l34 202h1030l-32 -202h-402zM1157 1735l-292 -239h-190l-220 239h193l123 -136h14l169 136h203z" />
    <glyph glyph-name="tcaron" unicode="&#x165;" horiz-adv-x="809" 
d="M827 1685h204l-145 -489h-152zM338 1050l47 264h217l-46 -264h226l-32 -181h-223l-84 -472q-17 -89 -17 -123q0 -54 30 -78t94 -24q72 0 115 10l-30 -175q-54 -15 -153 -15q-287 0 -287 213q0 44 13 120l97 544h-156l32 181h157z" />
    <glyph glyph-name="Tbar" unicode="&#x166;" horiz-adv-x="1126" 
d="M945 614h-227l-109 -614h-229l110 614h-232l27 157h232l71 392h-402l34 202h1030l-32 -202h-402l-71 -392h227z" />
    <glyph glyph-name="tbar" unicode="&#x167;" horiz-adv-x="788" 
d="M634 11q-62 -14 -152 -14q-287 0 -287 213q0 49 13 120l33 182h-138l25 147h138l36 201h-156l32 181h156l50 273h217l-48 -273h226l-31 -181h-224l-36 -201h181l-25 -147h-182l-19 -110q-18 -94 -18 -123q0 -51 28.5 -76.5t96.5 -25.5q73 0 115 10z" />
    <glyph glyph-name="Utilde" unicode="&#x168;" horiz-adv-x="1388" 
d="M565 1365l-144 -823q-8 -34 -8 -89q0 -121 76 -193.5t207 -72.5q121 0 204 69t108 207l160 902h232l-166 -944q-39 -220 -185 -333.5t-362 -113.5q-145 0 -258.5 50t-182 152.5t-68.5 242.5q0 57 13 128l143 818h231zM1018 1458q-39 0 -69.5 11.5t-49.5 27.5t-35 32
t-35 27.5t-40 11.5q-65 0 -75 -93h-128q6 89 58.5 150.5t137.5 61.5q50 0 88.5 -18t57 -39t41 -39t45.5 -18q63 0 74 100h128q-5 -88 -59 -151.5t-139 -63.5z" />
    <glyph glyph-name="utilde" unicode="&#x169;" horiz-adv-x="1206" 
d="M1162 1058l-186 -1058h-213l31 173h-15q-40 -83 -119 -136t-189 -53q-154 0 -241.5 89.5t-87.5 233.5q0 75 20 181l104 570h222l-102 -573q-13 -67 -13 -125q0 -87 49 -135.5t142 -48.5q113 0 182 76.5t91 205.5l106 600h219zM880 1217q-42 0 -74.5 14.5t-53 35.5
t-37.5 42t-36.5 35.5t-41.5 14.5q-72 0 -82 -108h-131q9 108 66.5 178.5t149.5 70.5q43 0 77 -14.5t54.5 -35.5t37.5 -42t35.5 -35.5t39.5 -14.5q34 0 55.5 29t27.5 79h130q-7 -104 -67 -176.5t-150 -72.5z" />
    <glyph glyph-name="Umacron" unicode="&#x16a;" horiz-adv-x="1388" 
d="M565 1365l-144 -823q-8 -34 -8 -89q0 -121 76 -193.5t207 -72.5q121 0 204 69t108 207l160 902h232l-166 -944q-39 -220 -185 -333.5t-362 -113.5q-145 0 -258.5 50t-182 152.5t-68.5 242.5q0 57 13 128l143 818h231zM1229 1628l-24 -124h-621l24 124h621z" />
    <glyph glyph-name="umacron" unicode="&#x16b;" horiz-adv-x="1206" 
d="M1162 1058l-186 -1058h-213l31 173h-15q-40 -83 -119 -136t-189 -53q-154 0 -241.5 89.5t-87.5 233.5q0 75 20 181l104 570h222l-102 -573q-13 -67 -13 -125q0 -87 49 -135.5t142 -48.5q113 0 182 76.5t91 205.5l106 600h219zM1062 1250h-612l22 131h612z" />
    <glyph glyph-name="Ubreve" unicode="&#x16c;" horiz-adv-x="1388" 
d="M565 1365l-144 -823q-8 -34 -8 -89q0 -121 76 -193.5t207 -72.5q121 0 204 69t108 207l160 902h232l-166 -944q-39 -220 -185 -333.5t-362 -113.5q-145 0 -258.5 50t-182 152.5t-68.5 242.5q0 57 13 128l143 818h231zM607 1756h142v-4q0 -63 42 -103.5t123 -40.5
q76 0 130 41t66 107h143q-16 -126 -114.5 -203t-244.5 -77q-122 0 -206 67.5t-84 172.5q0 1 3 40z" />
    <glyph glyph-name="ubreve" unicode="&#x16d;" horiz-adv-x="1206" 
d="M1162 1058l-186 -1058h-213l31 173h-15q-40 -83 -119 -136t-189 -53q-154 0 -241.5 89.5t-87.5 233.5q0 75 20 181l104 570h222l-102 -573q-13 -67 -13 -125q0 -87 49 -135.5t142 -48.5q113 0 182 76.5t91 205.5l106 600h219zM492 1510h138q-2 -14 -2 -25q0 -59 39 -96.5
t109 -37.5t118.5 41.5t62.5 117.5h138q-16 -132 -110.5 -211t-227.5 -79q-120 0 -196 65t-76 165q0 27 7 60z" />
    <glyph glyph-name="Uring" unicode="&#x16e;" horiz-adv-x="1388" 
d="M565 1365l-144 -823q-8 -34 -8 -89q0 -121 76 -193.5t207 -72.5q121 0 204 69t108 207l160 902h232l-166 -944q-39 -220 -185 -333.5t-362 -113.5q-145 0 -258.5 50t-182 152.5t-68.5 242.5q0 57 13 128l143 818h231zM926 1575q41 0 69 28t28 69t-28 69t-69 28t-69.5 -28
t-28.5 -69t28.5 -69t69.5 -28zM924 1471q-85 0 -143 58t-58 143q0 86 60 143.5t144 57.5q85 0 143 -58.5t58 -142.5q0 -86 -59.5 -143.5t-144.5 -57.5z" />
    <glyph glyph-name="uring" unicode="&#x16f;" horiz-adv-x="1206" 
d="M1162 1058l-186 -1058h-213l31 173h-15q-40 -83 -119 -136t-189 -53q-154 0 -241.5 89.5t-87.5 233.5q0 75 20 181l104 570h222l-102 -573q-13 -67 -13 -125q0 -87 49 -135.5t142 -48.5q113 0 182 76.5t91 205.5l106 600h219zM782 1325q41 0 70 28.5t29 68.5
q0 41 -29 69.5t-70 28.5t-70.5 -28.5t-29.5 -69.5q0 -40 29.5 -68.5t70.5 -28.5zM780 1218q-85 0 -143 59.5t-58 144.5q0 86 59.5 144.5t144.5 58.5t143 -59t58 -144q0 -86 -60 -145t-144 -59z" />
    <glyph glyph-name="Uhungarumlaut" unicode="&#x170;" horiz-adv-x="1388" 
d="M565 1365l-144 -823q-8 -34 -8 -89q0 -121 76 -193.5t207 -72.5q121 0 204 69t108 207l160 902h232l-166 -944q-39 -220 -185 -333.5t-362 -113.5q-145 0 -258.5 50t-182 152.5t-68.5 242.5q0 57 13 128l143 818h231zM614 1507l294 322h210l-337 -322h-167zM973 1507
l294 322h210l-337 -322h-167z" />
    <glyph glyph-name="uhungarumlaut" unicode="&#x171;" horiz-adv-x="1206" 
d="M1162 1058l-186 -1058h-213l31 173h-15q-40 -83 -119 -136t-189 -53q-154 0 -241.5 89.5t-87.5 233.5q0 75 20 181l104 570h222l-102 -573q-13 -67 -13 -125q0 -87 49 -135.5t142 -48.5q113 0 182 76.5t91 205.5l106 600h219zM485 1228l267 333h210l-334 -333h-143z
M813 1228l270 333h207l-332 -333h-145z" />
    <glyph glyph-name="Uogonek" unicode="&#x172;" horiz-adv-x="1393" 
d="M1025 71q-9 -8 -45.5 -39.5t-47.5 -42.5t-32.5 -35t-31 -44.5t-13.5 -43.5q-9 -51 19 -75t82 -24q43 0 75 9l-24 -144q-57 -20 -130 -20q-101 1 -159.5 55t-41.5 149q19 114 134 189l-2 13q-76 -42 -184 -42q-120 0 -221 51t-164.5 153t-63.5 237q0 64 12 130l144 818
h231l-145 -823q-8 -34 -8 -89q0 -120 76 -193t206 -73q123 0 206 68.5t108 207.5l160 902h231l-166 -944q-37 -208 -205 -350z" />
    <glyph glyph-name="uogonek" unicode="&#x173;" horiz-adv-x="1206" 
d="M955 -227l-24 -141q-62 -20 -137 -20q-98 0 -156 51.5t-53 138.5q1 24 9.5 47.5t17 40.5t28.5 38t29 30t36 29t31.5 22.5t32.5 21.5l25 142h-15q-39 -84 -118.5 -136.5t-190.5 -52.5q-154 0 -241 89.5t-87 238.5q0 70 20 176l103 570h223l-102 -573q-13 -67 -13 -123
q0 -89 49 -137.5t143 -48.5q113 0 181.5 77t90.5 205l105 600h220l-182 -1032q-81 -20 -142.5 -67.5t-65.5 -102.5q-4 -43 23 -67t77 -24q46 0 83 8z" />
    <glyph glyph-name="Wcircumflex" unicode="&#x174;" horiz-adv-x="1803" 
d="M549 0h-227l-89 1365h240l27 -1038h13l458 1038h194l97 -1038h13l401 1038h241l-571 -1365h-222l-110 987h-12zM739 1494l292 239h190l220 -239h-193l-123 136h-14l-169 -136h-203z" />
    <glyph glyph-name="wcircumflex" unicode="&#x175;" horiz-adv-x="1525" 
d="M1579 1058l-461 -1058h-236l-64 779h-9l-312 -779h-243l-113 1058h224l48 -827h11l329 827h205l63 -827h11l322 827h225zM564 1228l301 364h171l176 -364h-176l-101 239h-9l-185 -239h-177z" />
    <glyph glyph-name="Ycircumflex" unicode="&#x176;" horiz-adv-x="1166" 
d="M730 541l-96 -541h-229l96 536l-323 829h243l220 -605h12l425 605h256zM427 1494l292 239h190l220 -239h-193l-123 136h-14l-169 -136h-203z" />
    <glyph glyph-name="ycircumflex" unicode="&#x177;" horiz-adv-x="1093" 
d="M1132 1058l-528 -1051q-1 -2 -12 -22t-21 -38.5t-10 -20.5q-88 -170 -179.5 -233.5t-252.5 -63.5q-74 0 -130 14l35 178q41 -11 94 -11q70 0 114.5 32.5t80.5 107.5l28 64l-185 1044h231l112 -834h12l373 834h238zM367 1228l301 364h171l176 -364h-176l-101 239h-9
l-185 -239h-177z" />
    <glyph glyph-name="Ydieresis" unicode="&#x178;" horiz-adv-x="1166" 
d="M730 541l-96 -541h-229l96 536l-323 829h243l220 -605h12l425 605h256zM505 1578q0 45 32 77.5t79 32.5t79 -32.5t32 -77.5q0 -46 -32 -78.5t-79 -32.5t-79 32.5t-32 78.5zM865 1578q0 46 31.5 78t78.5 32t79 -32.5t32 -77.5q0 -46 -32 -78.5t-79 -32.5t-78.5 32.5
t-31.5 78.5z" />
    <glyph glyph-name="Zacute" unicode="&#x179;" horiz-adv-x="1217" 
d="M73 0l28 167l853 985l2 15h-678l34 198h955l-26 -171l-852 -981l-2 -15h706l-34 -198h-986zM711 1507l295 322h211l-335 -322h-171z" />
    <glyph glyph-name="zacute" unicode="&#x17a;" horiz-adv-x="996" 
d="M45 0l30 170l645 695l3 14h-542l32 179h807l-31 -177l-636 -684l-3 -14h540l-32 -183h-813zM524 1228l287 354h208l-333 -354h-162z" />
    <glyph glyph-name="Zdotaccent" unicode="&#x17b;" horiz-adv-x="1217" 
d="M73 0l28 167l853 985l2 15h-678l34 198h955l-26 -171l-852 -981l-2 -15h706l-34 -198h-986zM722 1602q0 50 35 85.5t84 35.5t83.5 -35.5t34.5 -85.5t-34.5 -85.5t-83.5 -35.5t-84 35.5t-35 85.5z" />
    <glyph glyph-name="zdotaccent" unicode="&#x17c;" horiz-adv-x="996" 
d="M45 0l30 170l645 695l3 14h-542l32 179h807l-31 -177l-636 -684l-3 -14h540l-32 -183h-813zM560 1363q0 51 34.5 86t83.5 35q50 0 84.5 -35t34.5 -86t-34.5 -86t-84.5 -35q-49 0 -83.5 35t-34.5 86z" />
    <glyph glyph-name="Zcaron" unicode="&#x17d;" horiz-adv-x="1217" 
d="M73 0l28 167l853 985l2 15h-678l34 198h955l-26 -171l-852 -981l-2 -15h706l-34 -198h-986zM1219 1735l-292 -239h-190l-220 239h193l123 -136h14l169 136h203z" />
    <glyph glyph-name="zcaron" unicode="&#x17e;" horiz-adv-x="996" 
d="M45 0l30 170l645 695l3 14h-542l32 179h807l-31 -177l-636 -684l-3 -14h540l-32 -183h-813zM1032 1589l-297 -364h-171l-179 364h173l105 -239h8l182 239h179z" />
    <glyph glyph-name="uni04D8" unicode="&#x18f;" horiz-adv-x="1366" 
d="M674 -26q-241 0 -375.5 148t-134.5 386q0 57 12 134q7 46 16 80h874l1 7q10 60 10 123q0 161 -86 245t-223 84q-125 0 -201.5 -61t-96.5 -155h-220q3 27 7 39q12 74 50 141t100.5 123.5t160.5 90t218 33.5q111 0 204 -33t165.5 -97.5t113 -169.5t40.5 -240q0 -78 -9 -137
l-43 -221q-47 -249 -201.5 -384.5t-381.5 -135.5zM677 182q139 0 226.5 81.5t119.5 231.5l10 43h-644q0 -6 -0.5 -19.5t-0.5 -17.5q-2 -140 71 -229.5t218 -89.5z" />
    <glyph glyph-name="uni04D8" unicode="&#x4d8;" horiz-adv-x="1366" 
d="M674 -26q-241 0 -375.5 148t-134.5 386q0 57 12 134q7 46 16 80h874l1 7q10 60 10 123q0 161 -86 245t-223 84q-125 0 -201.5 -61t-96.5 -155h-220q3 27 7 39q12 74 50 141t100.5 123.5t160.5 90t218 33.5q111 0 204 -33t165.5 -97.5t113 -169.5t40.5 -240q0 -78 -9 -137
l-43 -221q-47 -249 -201.5 -384.5t-381.5 -135.5zM677 182q139 0 226.5 81.5t119.5 231.5l10 43h-644q0 -6 -0.5 -19.5t-0.5 -17.5q-2 -140 71 -229.5t218 -89.5z" />
    <glyph glyph-name="florin" unicode="&#x192;" horiz-adv-x="1171" 
d="M577 847l71 232q52 171 155 249t272 78q107 0 174 -26l-32 -176q-58 19 -136 19q-84 0 -137.5 -42t-82.5 -135l-61 -199h267l-28 -156h-287l-119 -388q-52 -171 -155 -249t-272 -78q-108 0 -174 25l31 176q60 -18 138 -18q84 0 137.5 42.5t81.5 134.5l109 355h-244
l29 156h263z" />
    <glyph glyph-name="Ohorn" unicode="&#x1a0;" horiz-adv-x="1435" 
d="M432 836l-34 -175q-13 -76 -13 -146q0 -153 87 -243t243 -90q142 0 232 91t123 273l34 185q8 50 8 127q0 149 -88 239t-239 90q-136 0 -228 -85.5t-125 -265.5zM1293 492q-47 -250 -199 -384.5t-404 -134.5q-235 0 -385.5 138t-150.5 378q0 112 13 185l37 203
q44 245 201.5 380t387.5 135q139 0 255 -44q109 -37 162 -37q75 0 112.5 38.5t51.5 108.5l16 108h184l-19 -127q-50 -289 -289 -285h-1q79 -122 79 -296q0 -87 -14 -162z" />
    <glyph glyph-name="ohorn" unicode="&#x1a1;" horiz-adv-x="1191" 
d="M568 -16q-126 0 -225.5 48t-159.5 145.5t-60 230.5q0 88 11 144l21 117q34 186 163 296.5t316 110.5q64 0 157.5 -19.5t132.5 -19.5q68 0 103 34t48 103l28 157h184l-29 -167q-24 -134 -73.5 -200t-157.5 -75l-3 -9q67 -106 67 -242q0 -65 -11 -127l-23 -118
q-36 -191 -160 -300t-329 -109zM376 631l-20 -114q-10 -60 -10 -102q0 -110 63 -178.5t174 -68.5q103 0 169 71t87 197l21 121q5 35 5 92q0 106 -62.5 173t-171.5 67q-99 0 -166 -66.5t-89 -191.5z" />
    <glyph glyph-name="Uhorn" unicode="&#x1af;" horiz-adv-x="1539" 
d="M687 -26q-145 0 -259 50t-182 152.5t-68 242.5q0 62 12 128l144 818h230l-145 -823q-7 -40 -7 -89q0 -120 76 -193t207 -73q121 0 204 69t108 207l161 902h222q67 0 101 35t47 103l19 115h183l-22 -134q-21 -126 -100.5 -205t-205.5 -79h-40l-139 -779
q-39 -220 -185 -333.5t-361 -113.5z" />
    <glyph glyph-name="uhorn" unicode="&#x1b0;" horiz-adv-x="1330" 
d="M779 173q-40 -83 -119 -136t-189 -53q-154 0 -241.5 89.5t-87.5 233.5q0 75 20 181l103 570h223l-102 -573q-13 -67 -13 -125q0 -87 49 -135.5t142 -48.5q113 0 182 76.5t91 205.5l106 600h193q67 0 98 34t44 103l24 136h184l-27 -157q-23 -132 -100 -206t-206 -74h-19
l-159 -894h-212l31 173h-15z" />
    <glyph glyph-name="uni01C4" unicode="&#x1c4;" horiz-adv-x="2579" 
d="M352 1365h426q260 0 401 -143t141 -383q0 -83 -10 -143q-1 -8 -13 -72t-14 -74q-52 -266 -241.5 -408t-505.5 -142h-425zM547 1165l-173 -965h151q214 0 352.5 93.5t177.5 279.5q22 112 24 131q8 47 8 120q0 172 -98 256.5t-282 84.5h-160zM1435 0l28 167l853 985l2 15
h-678l34 198h955l-26 -171l-852 -981l-2 -15h706l-34 -198h-986zM2581 1735l-292 -239h-190l-220 239h193l123 -136h14l169 136h203z" />
    <glyph glyph-name="uni01C5" unicode="&#x1c5;" horiz-adv-x="2374" 
d="M352 1365h426q260 0 401 -143t141 -383q0 -83 -10 -143q-1 -8 -13 -72t-14 -74q-52 -266 -241.5 -408t-505.5 -142h-425zM547 1165l-173 -965h151q214 0 352.5 93.5t177.5 279.5q22 112 24 131q8 47 8 120q0 172 -98 256.5t-282 84.5h-160zM1422 0l30 170l645 695l3 14
h-542l32 179h807l-31 -177l-636 -684l-3 -14h540l-32 -183h-813zM2409 1589l-297 -364h-171l-179 364h173l105 -239h8l182 239h179z" />
    <glyph glyph-name="uni01C6" unicode="&#x1c6;" horiz-adv-x="2208" 
d="M597 1072q124 0 207.5 -67.5t96.5 -151.5h14l103 584h224l-254 -1437h-221l31 174h-15q-26 -74 -104 -130.5t-195 -56.5q-164 0 -265.5 107.5t-101.5 289.5q0 82 11 133l31 156q34 182 147 290.5t291 108.5zM871 634q0 119 -69.5 184.5t-162.5 65.5q-105 0 -171.5 -70
t-90.5 -187l-25 -124q-6 -34 -6 -84q0 -113 61.5 -177t166.5 -64q107 0 177 73.5t92 199.5l23 123q5 29 5 60zM1257 0l30 170l645 695l3 14h-542l32 179h807l-31 -177l-636 -684l-3 -14h540l-32 -183h-813zM2244 1589l-297 -364h-171l-179 364h173l105 -239h8l182 239h179z
" />
    <glyph glyph-name="uni01C7" unicode="&#x1c7;" horiz-adv-x="2121" 
d="M971 204l-34 -204h-826l241 1365h228l-207 -1161h598zM2119 1365l-174 -987q-35 -198 -147.5 -301.5t-287.5 -103.5q-177 0 -293 98t-116 259q0 44 7 70h214q-1 -15 -1 -36q0 -76 51.5 -125t135.5 -49q173 0 213 217l169 958h229z" />
    <glyph glyph-name="uni01C8" unicode="&#x1c8;" horiz-adv-x="1694" 
d="M971 204l-34 -204h-826l241 1365h228l-207 -1161h598zM1627 1058l-192 -1084q-32 -178 -128 -261.5t-274 -83.5q-57 0 -109 13l35 181q36 -9 78 -9q70 0 115.5 41t58.5 114l192 1089h224zM1410 1369q0 63 42 102t107 39t105.5 -37.5t40.5 -98.5t-42 -100t-109 -39
q-63 0 -103.5 37.5t-40.5 96.5z" />
    <glyph glyph-name="uni01C9" unicode="&#x1c9;" horiz-adv-x="1160" 
d="M106 0l255 1437h223l-254 -1437h-224zM1093 1058l-192 -1084q-32 -178 -128 -261.5t-274 -83.5q-57 0 -109 13l35 181q36 -9 78 -9q70 0 115.5 41t58.5 114l192 1089h224zM876 1369q0 63 42 102t107 39t105.5 -37.5t40.5 -98.5t-42 -100t-109 -39q-63 0 -103.5 37.5
t-40.5 96.5z" />
    <glyph glyph-name="uni01CA" unicode="&#x1ca;" horiz-adv-x="2470" 
d="M1156 0h-199l-468 970h-11l-174 -970h-220l241 1365h202l463 -968h12l175 968h220zM2468 1365l-174 -987q-35 -198 -147.5 -301.5t-287.5 -103.5q-177 0 -293 98t-116 259q0 44 7 70h214q-1 -15 -1 -36q0 -76 51.5 -125t135.5 -49q173 0 213 217l169 958h229z" />
    <glyph glyph-name="uni01CB" unicode="&#x1cb;" horiz-adv-x="2011" 
d="M1183 0h-199l-468 970h-11l-174 -970h-220l241 1365h202l463 -968h12l175 968h220zM1944 1058l-192 -1084q-32 -178 -128 -261.5t-274 -83.5q-57 0 -109 13l35 181q36 -9 78 -9q70 0 115.5 41t58.5 114l192 1089h224zM1727 1369q0 63 42 102t107 39t105.5 -37.5
t40.5 -98.5t-42 -100t-109 -39q-63 0 -103.5 37.5t-40.5 96.5z" />
    <glyph glyph-name="uni01CC" unicode="&#x1cc;" horiz-adv-x="1801" 
d="M94 0l186 1058h219l-30 -168h14q43 86 120.5 135t188.5 49q158 0 240 -92t82 -233q0 -67 -21 -185l-100 -564h-224l102 577q12 70 12 118q0 87 -45.5 140t-135.5 53q-114 0 -184.5 -77.5t-93.5 -206.5l-106 -604h-224zM1733 1058l-192 -1084q-32 -178 -128 -261.5
t-274 -83.5q-57 0 -109 13l35 181q36 -9 78 -9q70 0 115.5 41t58.5 114l192 1089h224zM1516 1369q0 63 42 102t107 39t105.5 -37.5t40.5 -98.5t-42 -100t-109 -39q-63 0 -103.5 37.5t-40.5 96.5z" />
    <glyph glyph-name="Acaron" unicode="&#x1cd;" horiz-adv-x="1281" 
d="M-27 0l708 1365h263l229 -1365h-240l-55 372h-479l-188 -372h-238zM779 1121h-15l-281 -567h375zM1229 1735l-292 -239h-190l-220 239h193l123 -136h14l169 136h203z" />
    <glyph glyph-name="acaron" unicode="&#x1ce;" horiz-adv-x="1121" 
d="M407 -16q-136 0 -226.5 80t-90.5 217q0 21 2 33q11 145 122 226t307 81h270l11 69q4 18 4 41q0 68 -48 116t-148 48q-81 0 -131 -31.5t-65 -81.5h-213q21 127 132 210t293 83q187 0 290 -91t103 -248q0 -49 -16 -139l-105 -597h-212l25 140h-13q-31 -64 -107 -110
t-184 -46zM313 307q0 -65 46 -106t125 -41q94 0 167 53.5t89 136.5l22 121h-232q-106 0 -161.5 -46.5t-55.5 -117.5zM1060 1589l-297 -364h-171l-179 364h173l105 -239h8l182 239h179z" />
    <glyph glyph-name="Icaron" unicode="&#x1cf;" horiz-adv-x="586" 
d="M339 0h-228l241 1365h228zM889 1735l-292 -239h-190l-220 239h193l123 -136h14l169 136h203z" />
    <glyph glyph-name="icaron" unicode="&#x1d0;" horiz-adv-x="573" 
d="M106 0l188 1058h223l-188 -1058h-223zM821 1589l-297 -364h-171l-179 364h173l105 -239h8l182 239h179z" />
    <glyph glyph-name="Ocaron" unicode="&#x1d1;" horiz-adv-x="1392" 
d="M432 835l-33 -174q-14 -73 -14 -146q0 -153 86.5 -243.5t241.5 -90.5q142 0 233 91.5t124 273.5l34 184q8 50 8 128q0 148 -88 238.5t-239 90.5q-135 0 -227 -85.5t-126 -266.5zM167 674l37 202q44 245 201.5 380.5t387.5 135.5q248 0 399.5 -143t151.5 -392
q0 -87 -14 -162l-38 -203q-46 -250 -197.5 -384.5t-404.5 -134.5q-235 0 -385.5 138t-150.5 378q0 112 13 185zM1287 1735l-292 -239h-190l-220 239h193l123 -136h14l169 136h203z" />
    <glyph glyph-name="ocaron" unicode="&#x1d2;" horiz-adv-x="1162" 
d="M376 631l-20 -114q-10 -52 -10 -102q0 -112 63.5 -179.5t173.5 -67.5q102 0 167.5 69.5t88.5 198.5l21 121q5 39 5 92q0 108 -63 174t-171 66q-98 0 -165.5 -65t-89.5 -193zM134 550l21 119q33 189 163.5 298t315.5 109q207 0 332 -118.5t125 -319.5q0 -71 -11 -127
l-23 -120q-37 -193 -162 -301t-327 -108q-197 0 -321.5 114.5t-124.5 309.5q0 85 12 144zM1108 1589l-297 -364h-171l-179 364h173l105 -239h8l182 239h179z" />
    <glyph glyph-name="Ucaron" unicode="&#x1d3;" horiz-adv-x="1388" 
d="M565 1365l-144 -823q-8 -34 -8 -89q0 -121 76 -193.5t207 -72.5q121 0 204 69t108 207l160 902h232l-166 -944q-39 -220 -185 -333.5t-362 -113.5q-145 0 -258.5 50t-182 152.5t-68.5 242.5q0 57 13 128l143 818h231zM1292 1735l-292 -239h-190l-220 239h193l123 -136h14
l169 136h203z" />
    <glyph glyph-name="ucaron" unicode="&#x1d4;" horiz-adv-x="1206" 
d="M1162 1058l-186 -1058h-213l31 173h-15q-40 -83 -119 -136t-189 -53q-154 0 -241.5 89.5t-87.5 233.5q0 75 20 181l104 570h222l-102 -573q-13 -67 -13 -125q0 -87 49 -135.5t142 -48.5q113 0 182 76.5t91 205.5l106 600h219zM1132 1589l-297 -364h-171l-179 364h173
l105 -239h8l182 239h179z" />
    <glyph glyph-name="Udieresismacron" unicode="&#x1d5;" horiz-adv-x="1388" 
d="M565 1365l-144 -823q-8 -34 -8 -89q0 -121 76 -193.5t207 -72.5q121 0 204 69t108 207l160 902h232l-166 -944q-39 -220 -185 -333.5t-362 -113.5q-145 0 -258.5 50t-182 152.5t-68.5 242.5q0 57 13 128l143 818h231zM1267 1903l-24 -124h-606l24 124h606zM1089 1467
q-47 0 -78.5 32.5t-31.5 78.5t31.5 78t78.5 32t79 -32.5t32 -77.5q0 -46 -32 -78.5t-79 -32.5zM730 1467q-47 0 -79 32.5t-32 78.5q0 45 32 77.5t79 32.5t79 -32.5t32 -77.5q0 -46 -32 -78.5t-79 -32.5z" />
    <glyph glyph-name="udieresismacron" unicode="&#x1d6;" horiz-adv-x="1206" 
d="M1162 1058l-186 -1058h-213l31 173h-15q-40 -83 -119 -136t-189 -53q-154 0 -241.5 89.5t-87.5 233.5q0 75 20 181l104 570h222l-102 -573q-13 -67 -13 -125q0 -87 49 -135.5t142 -48.5q113 0 182 76.5t91 205.5l106 600h219zM1109 1595h-612l27 131h612zM569 1214
q-51 0 -85 32.5t-34 82.5q0 51 34 83.5t85 32.5q52 0 85.5 -32.5t33.5 -83.5q0 -50 -33.5 -82.5t-85.5 -32.5zM953 1214q-51 0 -84.5 32.5t-33.5 82.5q0 51 33.5 83.5t84.5 32.5q52 0 86 -32.5t34 -83.5q0 -50 -34 -82.5t-86 -32.5z" />
    <glyph glyph-name="Udieresisacute" unicode="&#x1d7;" horiz-adv-x="1388" 
d="M565 1365l-144 -823q-8 -34 -8 -89q0 -121 76 -193.5t207 -72.5q121 0 204 69t108 207l160 902h232l-166 -944q-39 -220 -185 -333.5t-362 -113.5q-145 0 -258.5 50t-182 152.5t-68.5 242.5q0 57 13 128l143 818h231zM817 1751l263 193h232l-300 -193h-195zM619 1579
q0 47 32 79.5t79 32.5t79 -32.5t32 -79.5t-32 -79.5t-79 -32.5t-79 32.5t-32 79.5zM979 1579q0 47 31.5 79.5t78.5 32.5t79 -32.5t32 -79.5t-32 -79.5t-79 -32.5t-78.5 32.5t-31.5 79.5z" />
    <glyph glyph-name="udieresisacute" unicode="&#x1d8;" horiz-adv-x="1206" 
d="M1162 1058l-186 -1058h-213l31 173h-15q-40 -83 -119 -136t-189 -53q-154 0 -241.5 89.5t-87.5 233.5q0 75 20 181l104 570h222l-102 -573q-13 -67 -13 -125q0 -87 49 -135.5t142 -48.5q113 0 182 76.5t91 205.5l106 600h219zM450 1329q0 51 34 83.5t85 32.5
q52 0 85.5 -32.5t33.5 -83.5q0 -50 -33.5 -82.5t-85.5 -32.5q-51 0 -85 32.5t-34 82.5zM835 1329q0 51 33.5 83.5t84.5 32.5q52 0 86 -32.5t34 -83.5q0 -50 -34 -82.5t-86 -32.5q-51 0 -84.5 32.5t-33.5 82.5zM685 1544l282 353h201l-323 -353h-160z" />
    <glyph glyph-name="Udieresiscaron" unicode="&#x1d9;" horiz-adv-x="1388" 
d="M565 1365l-144 -823q-8 -34 -8 -89q0 -121 76 -193.5t207 -72.5q121 0 204 69t108 207l160 902h232l-166 -944q-39 -220 -185 -333.5t-362 -113.5q-145 0 -258.5 50t-182 152.5t-68.5 242.5q0 57 13 128l143 818h231zM1325 1944l-301 -198h-178l-219 198h200l113 -117h9
l162 117h214zM730 1467q-47 0 -79 32.5t-32 78.5q0 45 32 77.5t79 32.5t79 -32.5t32 -77.5q0 -46 -32 -78.5t-79 -32.5zM1089 1467q-47 0 -78.5 32.5t-31.5 78.5t31.5 78t78.5 32t79 -32.5t32 -77.5q0 -46 -32 -78.5t-79 -32.5z" />
    <glyph glyph-name="udieresiscaron" unicode="&#x1da;" horiz-adv-x="1206" 
d="M1162 1058l-186 -1058h-213l31 173h-15q-40 -83 -119 -136t-189 -53q-154 0 -241.5 89.5t-87.5 233.5q0 75 20 181l104 570h222l-102 -573q-13 -67 -13 -125q0 -87 49 -135.5t142 -48.5q113 0 182 76.5t91 205.5l106 600h219zM727 1537l-186 364h173l105 -238h9l181 238
h180l-305 -364h-157zM569 1214q-51 0 -85 32.5t-34 82.5q0 51 34 83.5t85 32.5q52 0 85.5 -32.5t33.5 -83.5q0 -50 -33.5 -82.5t-85.5 -32.5zM953 1214q-51 0 -84.5 32.5t-33.5 82.5q0 51 33.5 83.5t84.5 32.5q52 0 86 -32.5t34 -83.5q0 -50 -34 -82.5t-86 -32.5z" />
    <glyph glyph-name="Udieresisgrave" unicode="&#x1db;" horiz-adv-x="1388" 
d="M565 1365l-144 -823q-8 -34 -8 -89q0 -121 76 -193.5t207 -72.5q121 0 204 69t108 207l160 902h232l-166 -944q-39 -220 -185 -333.5t-362 -113.5q-145 0 -258.5 50t-182 152.5t-68.5 242.5q0 57 13 128l143 818h231zM619 1944h215l199 -193h-174zM619 1578q0 45 32 77.5
t79 32.5t79 -32.5t32 -77.5q0 -46 -32 -78.5t-79 -32.5t-79 32.5t-32 78.5zM979 1578q0 46 31.5 78t78.5 32t79 -32.5t32 -77.5q0 -46 -32 -78.5t-79 -32.5t-78.5 32.5t-31.5 78.5z" />
    <glyph glyph-name="udieresisgrave" unicode="&#x1dc;" horiz-adv-x="1206" 
d="M1162 1058l-186 -1058h-213l31 173h-15q-40 -83 -119 -136t-189 -53q-154 0 -241.5 89.5t-87.5 233.5q0 75 20 181l104 570h222l-102 -573q-13 -67 -13 -125q0 -87 49 -135.5t142 -48.5q113 0 182 76.5t91 205.5l106 600h219zM441 1897h203l220 -353h-160zM450 1329
q0 51 34 83.5t85 32.5q53 0 86.5 -32.5t33.5 -83.5q0 -50 -34 -82.5t-86 -32.5q-51 0 -85 33t-34 82zM835 1329q0 51 33 83.5t83 32.5q54 0 88 -32.5t34 -83.5q0 -50 -34 -82.5t-88 -32.5q-50 0 -83 33t-33 82z" />
    <glyph glyph-name="uni04D9" unicode="&#x1dd;" horiz-adv-x="1117" 
d="M631 1076q186 0 304 -106.5t118 -304.5q0 -64 -16 -155l-21 -114q-35 -202 -168 -308.5t-330 -106.5q-107 0 -189 38.5t-128 103.5t-65 146.5t-9 170.5q0 14 9.5 68t13.5 72h680q9 36 9 86q0 96 -54.5 160.5t-166.5 64.5q-89 0 -146 -33.5t-73 -88.5h-215q23 127 142 217
t305 90zM338 430q-3 -12 -3 -23q-19 -105 34 -176t161 -71q96 0 166.5 54t92.5 159l13 57h-464z" />
    <glyph glyph-name="uni04D9" unicode="&#x4d9;" horiz-adv-x="1117" 
d="M631 1076q186 0 304 -106.5t118 -304.5q0 -64 -16 -155l-21 -114q-35 -202 -168 -308.5t-330 -106.5q-107 0 -189 38.5t-128 103.5t-65 146.5t-9 170.5q0 14 9.5 68t13.5 72h680q9 36 9 86q0 96 -54.5 160.5t-166.5 64.5q-89 0 -146 -33.5t-73 -88.5h-215q23 127 142 217
t305 90zM338 430q-3 -12 -3 -23q-19 -105 34 -176t161 -71q96 0 166.5 54t92.5 159l13 57h-464z" />
    <glyph glyph-name="uni04D9" unicode="&#x259;" horiz-adv-x="1117" 
d="M631 1076q186 0 304 -106.5t118 -304.5q0 -64 -16 -155l-21 -114q-35 -202 -168 -308.5t-330 -106.5q-107 0 -189 38.5t-128 103.5t-65 146.5t-9 170.5q0 14 9.5 68t13.5 72h680q9 36 9 86q0 96 -54.5 160.5t-166.5 64.5q-89 0 -146 -33.5t-73 -88.5h-215q23 127 142 217
t305 90zM338 430q-3 -12 -3 -23q-19 -105 34 -176t161 -71q96 0 166.5 54t92.5 159l13 57h-464z" />
    <glyph glyph-name="Adieresismacron" unicode="&#x1de;" horiz-adv-x="1281" 
d="M-27 0l708 1365h263l229 -1365h-240l-55 372h-479l-188 -372h-238zM779 1121h-15l-281 -567h375zM1204 1903l-24 -124h-606l24 124h606zM1026 1467q-47 0 -78.5 32.5t-31.5 78.5t31.5 78t78.5 32t79 -32.5t32 -77.5q0 -46 -32 -78.5t-79 -32.5zM667 1467q-47 0 -79 32.5
t-32 78.5q0 45 32 77.5t79 32.5t79 -32.5t32 -77.5q0 -46 -32 -78.5t-79 -32.5z" />
    <glyph glyph-name="adieresismacron" unicode="&#x1df;" horiz-adv-x="1121" 
d="M407 -16q-136 0 -226.5 80t-90.5 217q0 21 2 33q11 145 122 226t307 81h270l11 69q4 18 4 41q0 68 -48 116t-148 48q-81 0 -131 -31.5t-65 -81.5h-213q21 127 132 210t293 83q187 0 290 -91t103 -248q0 -49 -16 -139l-105 -597h-212l25 140h-13q-31 -64 -107 -110
t-184 -46zM313 307q0 -65 46 -106t125 -41q94 0 167 53.5t89 136.5l22 121h-232q-106 0 -161.5 -46.5t-55.5 -117.5zM1041 1595h-612l27 131h612zM501 1214q-51 0 -85 32.5t-34 82.5q0 51 34 83.5t85 32.5q52 0 85.5 -32.5t33.5 -83.5q0 -50 -33.5 -82.5t-85.5 -32.5z
M885 1214q-51 0 -84.5 32.5t-33.5 82.5q0 51 33.5 83.5t84.5 32.5q52 0 86 -32.5t34 -83.5q0 -50 -34 -82.5t-86 -32.5z" />
    <glyph glyph-name="Adotmacron" unicode="&#x1e0;" horiz-adv-x="1281" 
d="M-27 0l708 1365h263l229 -1365h-240l-55 372h-479l-188 -372h-238zM779 1121h-15l-281 -567h375zM729 1573q0 48 33 81.5t81 33.5t81.5 -33.5t33.5 -81.5q0 -49 -33.5 -82t-81.5 -33t-81 33t-33 82zM1197 1903l-24 -124h-606l24 124h606z" />
    <glyph glyph-name="adotmacron" unicode="&#x1e1;" horiz-adv-x="1121" 
d="M407 -16q-136 0 -226.5 80t-90.5 217q0 21 2 33q11 145 122 226t307 81h270l11 69q4 18 4 41q0 68 -48 116t-148 48q-81 0 -131 -31.5t-65 -81.5h-213q21 127 132 210t293 83q187 0 290 -91t103 -248q0 -49 -16 -139l-105 -597h-212l25 140h-13q-31 -64 -107 -110
t-184 -46zM313 307q0 -65 46 -106t125 -41q94 0 167 53.5t89 136.5l22 121h-232q-106 0 -161.5 -46.5t-55.5 -117.5zM1047 1595h-612l23 131h612zM582 1344q0 51 34.5 86t83.5 35q50 0 84.5 -35t34.5 -86t-34.5 -86t-84.5 -35q-49 0 -83.5 35t-34.5 86z" />
    <glyph glyph-name="AEmacron" unicode="&#x1e2;" horiz-adv-x="1865" 
d="M1012 1115l-412 -564h326l106 564h-20zM828 0l66 364h-409l-278 -364h-259l995 1366h967l-33 -198h-618l-69 -376h585l-30 -188h-587l-74 -406h621l-33 -198h-844zM1855 1629l-24 -124h-621l24 124h621z" />
    <glyph glyph-name="aemacron" unicode="&#x1e3;" horiz-adv-x="1769" 
d="M1206 -18q-128 0 -223 56.5t-139 162.5h-6q-125 -219 -393 -219q-166 0 -260.5 81.5t-94.5 226.5q0 158 113.5 244t320.5 86h266l13 74q3 24 3 39q0 66 -48 114.5t-149 48.5q-80 0 -130 -32t-65 -82h-213q20 130 134 212t283 82q226 0 322 -143h6q59 68 149 105.5
t197 37.5q90 0 163 -26.5t119 -70.5t75.5 -102.5t38.5 -122t1 -129.5q0 -22 -24 -148h-678q-10 -52 -10 -85q0 -97 55 -161.5t170 -64.5q85 0 141 35t72 87h214q-17 -123 -135.5 -214.5t-287.5 -91.5zM313 307q0 -64 45.5 -104t125.5 -40q96 0 168 55.5t89 144.5l22 110
h-233q-106 0 -161.5 -47.5t-55.5 -118.5zM1481 627q0 2 1.5 11.5t1.5 11.5q18 105 -36.5 176t-165.5 71q-94 0 -165 -54.5t-93 -157.5q-4 -19 -7 -33.5t-4 -19t-1 -5.5h469zM1308 1250h-612l22 131h612z" />
    <glyph glyph-name="Gcaron" unicode="&#x1e6;" horiz-adv-x="1362" 
d="M207 876q46 246 202.5 381t389.5 135q126 0 227.5 -38t163 -99.5t93.5 -135t32 -149.5q0 -29 -2 -35h-221v27q-2 36 -19.5 73t-51 72.5t-92 57.5t-133.5 22q-145 0 -237.5 -91t-125.5 -261l-37 -179q-13 -81 -13 -145q0 -164 89.5 -249.5t229.5 -85.5q116 0 205.5 57
t108.5 155l27 147h-313l31 177h532l-58 -326q-34 -192 -183.5 -302.5t-363.5 -110.5q-110 0 -204 31t-169.5 93.5t-119 167.5t-43.5 241q0 81 12 153zM1237 1735l-292 -239h-190l-220 239h193l123 -136h14l169 136h203z" />
    <glyph glyph-name="gcaron" unicode="&#x1e7;" horiz-adv-x="1219" 
d="M596 1072q123 0 204 -60.5t106 -154.5h13l36 199h221l-184 -1053q-69 -390 -501 -390q-196 0 -311 91.5t-115 218.5q0 3 0.5 7t0.5 8v3h212q0 -9 2 -13q3 -54 66 -94.5t156 -40.5q126 0 191.5 62t87.5 190l24 141h-14q-30 -72 -106.5 -118t-186.5 -46q-155 0 -263 110
t-108 294q0 76 14 144l20 98q27 136 94 229t153 134t188 41zM871 639q0 112 -64.5 178.5t-168.5 66.5q-101 0 -169 -70.5t-92 -195.5l-14 -76q-11 -53 -11 -100q0 -117 62 -182.5t172 -65.5q98 0 168.5 72t92.5 195l15 84q9 48 9 94zM1124 1589l-297 -364h-171l-179 364h173
l105 -239h8l182 239h179z" />
    <glyph glyph-name="Kcaron" unicode="&#x1e8;" horiz-adv-x="1305" 
d="M581 1365l-118 -632h14l665 632h282l-631 -612l397 -753h-259l-318 619l-194 -175l-80 -444h-228l241 1365h229zM1228 1735l-292 -239h-190l-220 239h193l123 -136h14l169 136h203z" />
    <glyph glyph-name="kcaron" unicode="&#x1e9;" horiz-adv-x="1117" 
d="M386 404l-72 -404h-220l253 1437h219l-138 -786h14l458 407h281l-496 -432l319 -626h-240l-252 508zM874 1807l-292 -239h-190l-220 239h193l123 -136h14l169 136h203z" />
    <glyph glyph-name="Oogonek" unicode="&#x1ea;" horiz-adv-x="1389" 
d="M1058 -224l-25 -144q-60 -20 -130 -20q-94 1 -150.5 50t-52.5 132q5 128 132 210l-4 14q-29 -17 -78 -28.5t-90 -11.5q-96 0 -184.5 32t-161.5 93.5t-116.5 163t-43.5 228.5q0 106 13 179l37 202q44 245 201.5 380.5t386.5 135.5q250 0 401 -143t151 -399q0 -75 -14 -155
l-37 -203q-25 -139 -75 -227t-131 -165q-21 -19 -57.5 -50t-57.5 -50.5t-45 -45t-35 -49.5t-12 -50q-2 -44 25.5 -66t76.5 -22q42 0 76 9zM432 835l-34 -174q-13 -73 -13 -146q0 -152 87.5 -242.5t241.5 -90.5q291 0 356 364l34 185q8 47 8 127q0 148 -87.5 238t-238.5 90
q-137 0 -228.5 -85t-125.5 -266z" />
    <glyph glyph-name="oogonek" unicode="&#x1eb;" horiz-adv-x="1162" 
d="M725 -388q-99 1 -155 55t-44 149q14 105 128 182l-4 12q-42 -25 -128 -25q-169 0 -284 115.5t-115 312.5q0 82 11 139l21 117q34 187 163.5 297t317.5 110q204 0 329.5 -117t125.5 -327q0 -63 -11 -121l-23 -118q-34 -176 -177 -307q-8 -7 -41.5 -35t-42.5 -36t-31.5 -31
t-30.5 -36.5t-17 -34.5t-12 -42q-6 -50 21 -77t80 -27q46 0 76 9l-25 -144q-55 -20 -132 -20zM376 631l-20 -112q-10 -60 -10 -103q0 -110 63 -178t174 -68q103 0 169 71t87 197l21 119q5 35 5 92q0 106 -62.5 173t-171.5 67q-100 0 -167 -66.5t-88 -191.5z" />
    <glyph glyph-name="Oogonekmacron" unicode="&#x1ec;" horiz-adv-x="1389" 
d="M1058 -224l-25 -144q-60 -20 -130 -20q-94 1 -150.5 50t-52.5 132q5 128 132 210l-4 14q-29 -17 -78 -28.5t-90 -11.5q-96 0 -184.5 32t-161.5 93.5t-116.5 163t-43.5 228.5q0 106 13 179l37 202q44 245 201.5 380.5t386.5 135.5q250 0 401 -143t151 -399q0 -75 -14 -155
l-37 -203q-25 -139 -75 -227t-131 -165q-21 -19 -57.5 -50t-57.5 -50.5t-45 -45t-35 -49.5t-12 -50q-2 -44 25.5 -66t76.5 -22q42 0 76 9zM432 835l-34 -174q-13 -73 -13 -146q0 -152 87.5 -242.5t241.5 -90.5q291 0 356 364l34 185q8 47 8 127q0 148 -87.5 238t-238.5 90
q-137 0 -228.5 -85t-125.5 -266zM1224 1628l-24 -124h-621l24 124h621z" />
    <glyph glyph-name="oogonekmacron" unicode="&#x1ed;" horiz-adv-x="1162" 
d="M725 -388q-99 1 -155 55t-44 149q14 105 128 182l-4 12q-42 -25 -128 -25q-169 0 -284 115.5t-115 312.5q0 82 11 139l21 117q34 187 163.5 297t317.5 110q204 0 329.5 -117t125.5 -327q0 -63 -11 -121l-23 -118q-34 -176 -177 -307q-8 -7 -41.5 -35t-42.5 -36t-31.5 -31
t-30.5 -36.5t-17 -34.5t-12 -42q-6 -50 21 -77t80 -27q46 0 76 9l-25 -144q-55 -20 -132 -20zM376 631l-20 -112q-10 -60 -10 -103q0 -110 63 -178t174 -68q103 0 169 71t87 197l21 119q5 35 5 92q0 106 -62.5 173t-171.5 67q-100 0 -167 -66.5t-88 -191.5zM1038 1250h-612
l22 131h612z" />
    <glyph glyph-name="uni01F1" unicode="&#x1f1;" horiz-adv-x="2579" 
d="M352 1365h426q260 0 401 -143t141 -383q0 -83 -10 -143q-1 -8 -13 -72t-14 -74q-52 -266 -241.5 -408t-505.5 -142h-425zM547 1165l-173 -965h151q214 0 352.5 93.5t177.5 279.5q22 112 24 131q8 47 8 120q0 172 -98 256.5t-282 84.5h-160zM1435 0l28 167l853 985l2 15
h-678l34 198h955l-26 -171l-852 -981l-2 -15h706l-34 -198h-986z" />
    <glyph glyph-name="uni01F2" unicode="&#x1f2;" horiz-adv-x="2374" 
d="M352 1365h426q260 0 401 -143t141 -383q0 -83 -10 -143q-1 -8 -13 -72t-14 -74q-52 -266 -241.5 -408t-505.5 -142h-425zM547 1165l-173 -965h151q214 0 352.5 93.5t177.5 279.5q22 112 24 131q8 47 8 120q0 172 -98 256.5t-282 84.5h-160zM1422 0l30 170l645 695l3 14
h-542l32 179h807l-31 -177l-636 -684l-3 -14h540l-32 -183h-813z" />
    <glyph glyph-name="uni01F3" unicode="&#x1f3;" horiz-adv-x="2208" 
d="M597 1072q124 0 207.5 -67.5t96.5 -151.5h14l103 584h224l-254 -1437h-221l31 174h-15q-26 -74 -104 -130.5t-195 -56.5q-164 0 -265.5 107.5t-101.5 289.5q0 82 11 133l31 156q34 182 147 290.5t291 108.5zM871 634q0 119 -69.5 184.5t-162.5 65.5q-105 0 -171.5 -70
t-90.5 -187l-25 -124q-6 -34 -6 -84q0 -113 61.5 -177t166.5 -64q107 0 177 73.5t92 199.5l23 123q5 29 5 60zM1257 0l30 170l645 695l3 14h-542l32 179h807l-31 -177l-636 -684l-3 -14h540l-32 -183h-813z" />
    <glyph glyph-name="Gacute" unicode="&#x1f4;" horiz-adv-x="1362" 
d="M207 876q46 246 202.5 381t389.5 135q126 0 227.5 -38t163 -99.5t93.5 -135t32 -149.5q0 -29 -2 -35h-221v27q-2 36 -19.5 73t-51 72.5t-92 57.5t-133.5 22q-145 0 -237.5 -91t-125.5 -261l-37 -179q-13 -81 -13 -145q0 -164 89.5 -249.5t229.5 -85.5q116 0 205.5 57
t108.5 155l27 147h-313l31 177h532l-58 -326q-34 -192 -183.5 -302.5t-363.5 -110.5q-110 0 -204 31t-169.5 93.5t-119 167.5t-43.5 241q0 81 12 153zM729 1507l295 322h211l-335 -322h-171z" />
    <glyph glyph-name="gacute" unicode="&#x1f5;" horiz-adv-x="1219" 
d="M596 1072q123 0 204 -60.5t106 -154.5h13l36 199h221l-184 -1053q-69 -390 -501 -390q-196 0 -311 91.5t-115 218.5q0 3 0.5 7t0.5 8v3h212q0 -9 2 -13q3 -54 66 -94.5t156 -40.5q126 0 191.5 62t87.5 190l24 141h-14q-30 -72 -106.5 -118t-186.5 -46q-155 0 -263 110
t-108 294q0 76 14 144l20 98q27 136 94 229t153 134t188 41zM871 639q0 112 -64.5 178.5t-168.5 66.5q-101 0 -169 -70.5t-92 -195.5l-14 -76q-11 -53 -11 -100q0 -117 62 -182.5t172 -65.5q98 0 168.5 72t92.5 195l15 84q9 48 9 94zM616 1228l287 354h208l-333 -354h-162z
" />
    <glyph glyph-name="Ngrave" unicode="&#x1f8;" horiz-adv-x="1430" 
d="M1183 0h-199l-468 970h-11l-174 -970h-220l241 1365h202l463 -968h12l175 968h220zM1006 1507h-157l-223 322h199z" />
    <glyph glyph-name="ngrave" unicode="&#x1f9;" horiz-adv-x="1216" 
d="M94 0l186 1058h219l-30 -168h14q43 86 120.5 135t188.5 49q158 0 240 -92t82 -233q0 -67 -21 -185l-100 -564h-224l102 577q12 70 12 118q0 87 -45.5 140t-135.5 53q-114 0 -184.5 -77.5t-93.5 -206.5l-106 -604h-224zM878 1228h-157l-250 354h211z" />
    <glyph glyph-name="Aringacute" unicode="&#x1fa;" horiz-adv-x="1281" 
d="M-27 0l708 1365h263l229 -1365h-240l-55 372h-479l-188 -372h-238zM779 1121h-15l-281 -567h375zM800 1809l116 133h204l-156 -133h-164zM848 1414q-75 0 -127 50t-52 125q0 74 51.5 123.5t127.5 49.5q75 0 126.5 -49.5t51.5 -123.5q0 -75 -51.5 -125t-126.5 -50z
M765 1589q0 -35 24 -59t59 -24q36 0 59.5 24t23.5 59t-23.5 58.5t-59.5 23.5q-35 0 -59 -23.5t-24 -58.5z" />
    <glyph glyph-name="aringacute" unicode="&#x1fb;" horiz-adv-x="1121" 
d="M407 -16q-136 0 -226.5 80t-90.5 217q0 21 2 33q11 145 122 226t307 81h270l11 69q4 18 4 41q0 68 -48 116t-148 48q-81 0 -131 -31.5t-65 -81.5h-213q21 127 132 210t293 83q187 0 290 -91t103 -248q0 -49 -16 -139l-105 -597h-212l25 140h-13q-31 -64 -107 -110
t-184 -46zM313 307q0 -65 46 -106t125 -41q94 0 167 53.5t89 136.5l22 121h-232q-106 0 -161.5 -46.5t-55.5 -117.5zM713 1324q41 0 69 28t28 69t-28 69t-69 28t-70 -28t-29 -69t28.5 -69t70.5 -28zM711 1221q-85 0 -143 58t-58 142q0 86 60 143.5t144 57.5q85 0 143 -58
t58 -142q0 -86 -59.5 -143.5t-144.5 -57.5zM854 1712h-180l210 188h225z" />
    <glyph glyph-name="AEacute" unicode="&#x1fc;" horiz-adv-x="1865" 
d="M1012 1115l-412 -564h326l106 564h-20zM828 0l66 364h-409l-278 -364h-259l995 1366h967l-33 -198h-618l-69 -376h585l-30 -188h-587l-74 -406h621l-33 -198h-844zM1410 1508l295 322h211l-335 -322h-171z" />
    <glyph glyph-name="aeacute" unicode="&#x1fd;" horiz-adv-x="1769" 
d="M1206 -18q-128 0 -223 56.5t-139 162.5h-6q-125 -219 -393 -219q-166 0 -260.5 81.5t-94.5 226.5q0 158 113.5 244t320.5 86h266l13 74q3 24 3 39q0 66 -48 114.5t-149 48.5q-80 0 -130 -32t-65 -82h-213q20 130 134 212t283 82q226 0 322 -143h6q59 68 149 105.5
t197 37.5q90 0 163 -26.5t119 -70.5t75.5 -102.5t38.5 -122t1 -129.5q0 -22 -24 -148h-678q-10 -52 -10 -85q0 -97 55 -161.5t170 -64.5q85 0 141 35t72 87h214q-17 -123 -135.5 -214.5t-287.5 -91.5zM313 307q0 -64 45.5 -104t125.5 -40q96 0 168 55.5t89 144.5l22 110
h-233q-106 0 -161.5 -47.5t-55.5 -118.5zM1481 627q0 2 1.5 11.5t1.5 11.5q18 105 -36.5 176t-165.5 71q-94 0 -165 -54.5t-93 -157.5q-4 -19 -7 -33.5t-4 -19t-1 -5.5h469zM870 1228l287 354h208l-333 -354h-162z" />
    <glyph glyph-name="Oslashacute" unicode="&#x1fe;" horiz-adv-x="1389" 
d="M164 674l37 202q44 245 201.5 380.5t387.5 135.5q136 0 246.5 -45t182.5 -131l111 105l98 -98l-134 -125q47 -105 47 -240q0 -87 -14 -162l-38 -204q-46 -250 -197.5 -384.5t-404.5 -134.5q-130 0 -237.5 44t-178.5 128l-112 -107l-93 103l129 122q-44 99 -44 226
q0 112 13 185zM1107 824q0 48 -7 79l-663 -594q85 -127 275 -127q142 0 232 91t123 273l31 166q9 46 9 112zM1056 1055q-85 131 -274 131q-135 0 -227 -85.5t-126 -265.5l-34 -174q-12 -67 -13 -130q0 -37 8 -72zM777 1507l295 322h211l-335 -322h-171z" />
    <glyph glyph-name="oslashacute" unicode="&#x1ff;" horiz-adv-x="1163" 
d="M131 552l20 117q34 189 164 298t315 109q221 0 347 -134l125 113l89 -100l-141 -126q37 -86 37 -191q0 -71 -11 -127l-23 -120q-37 -193 -162 -301t-327 -108q-206 0 -330 122l-127 -114l-83 100l136 121q-41 85 -41 197q0 85 12 144zM372 631l-20 -112q-9 -49 -9 -88
q0 -32 5 -52l474 411q-62 99 -195 99q-98 0 -165.5 -65t-89.5 -193zM390 258q63 -88 189 -88q102 0 168 69.5t88 198.5l21 119q4 22 4 71q0 12 -2 32zM598 1228l287 354h208l-333 -354h-162z" />
    <glyph glyph-name="Adblgrave" unicode="&#x200;" horiz-adv-x="1281" 
d="M-27 0l708 1365h263l229 -1365h-240l-55 372h-479l-188 -372h-238zM779 1121h-15l-281 -567h375zM745 1507h-156l-224 322h200zM1074 1507h-156l-224 322h200z" />
    <glyph glyph-name="adblgrave" unicode="&#x201;" horiz-adv-x="1121" 
d="M407 -16q-136 0 -226.5 80t-90.5 217q0 21 2 33q11 145 122 226t307 81h270l11 69q4 18 4 41q0 68 -48 116t-148 48q-81 0 -131 -31.5t-65 -81.5h-213q21 127 132 210t293 83q187 0 290 -91t103 -248q0 -49 -16 -139l-105 -597h-212l25 140h-13q-31 -64 -107 -110
t-184 -46zM313 307q0 -65 46 -106t125 -41q94 0 167 53.5t89 136.5l22 121h-232q-106 0 -161.5 -46.5t-55.5 -117.5zM601 1228h-141l-268 333h196zM925 1228h-141l-265 333h196z" />
    <glyph glyph-name="Ainvertedbreve" unicode="&#x202;" horiz-adv-x="1281" 
d="M-27 0l708 1365h263l229 -1365h-240l-55 372h-479l-188 -372h-238zM779 1121h-15l-281 -567h375zM1161 1478h-142v4q0 63 -41.5 103t-123.5 40q-76 0 -130 -40.5t-66 -106.5h-143q16 126 114.5 203t244.5 77q123 0 207 -67.5t84 -172.5q0 -14 -4 -40z" />
    <glyph glyph-name="ainvertedbreve" unicode="&#x203;" horiz-adv-x="1121" 
d="M407 -16q-136 0 -226.5 80t-90.5 217q0 21 2 33q11 145 122 226t307 81h270l11 69q4 18 4 41q0 68 -48 116t-148 48q-81 0 -131 -31.5t-65 -81.5h-213q21 127 132 210t293 83q187 0 290 -91t103 -248q0 -49 -16 -139l-105 -597h-212l25 140h-13q-31 -64 -107 -110
t-184 -46zM313 307q0 -65 46 -106t125 -41q94 0 167 53.5t89 136.5l22 121h-232q-106 0 -161.5 -46.5t-55.5 -117.5zM988 1232h-138q2 7 2 25q0 58 -39 95.5t-109 37.5t-118.5 -41.5t-62.5 -116.5h-138q16 132 110.5 211t228.5 79q120 0 195.5 -65t75.5 -166q0 -27 -7 -59z
" />
    <glyph glyph-name="Edblgrave" unicode="&#x204;" horiz-adv-x="1151" 
d="M992 200l-34 -200h-847l241 1365h844l-34 -200h-615l-69 -374h584l-32 -188h-583l-74 -403h619zM697 1507h-156l-224 322h200zM1026 1507h-156l-224 322h200z" />
    <glyph glyph-name="edblgrave" unicode="&#x205;" horiz-adv-x="1117" 
d="M545 -18q-190 0 -308.5 106.5t-118.5 305.5q0 62 16 153l24 126q33 193 164 298t319 105q111 0 196 -38.5t132.5 -103t67.5 -144t10 -165.5q0 -18 -26 -148h-680q-9 -36 -9 -86q0 -96 55.5 -160.5t171.5 -64.5q85 0 141 34.5t72 87.5h215q-19 -124 -140 -215t-302 -91z
M833 627q3 12 3 23q19 105 -34.5 176t-166.5 71q-92 0 -161 -54t-92 -159l-13 -57h464zM623 1228h-141l-268 333h196zM947 1228h-141l-265 333h196z" />
    <glyph glyph-name="Einvertedbreve" unicode="&#x206;" horiz-adv-x="1151" 
d="M992 200l-34 -200h-847l241 1365h844l-34 -200h-615l-69 -374h584l-32 -188h-583l-74 -403h619zM1113 1478h-142v4q0 63 -41.5 103t-123.5 40q-76 0 -130 -40.5t-66 -106.5h-143q16 126 114.5 203t244.5 77q123 0 207 -67.5t84 -172.5q0 -14 -4 -40z" />
    <glyph glyph-name="einvertedbreve" unicode="&#x207;" horiz-adv-x="1117" 
d="M545 -18q-190 0 -308.5 106.5t-118.5 305.5q0 62 16 153l24 126q33 193 164 298t319 105q111 0 196 -38.5t132.5 -103t67.5 -144t10 -165.5q0 -18 -26 -148h-680q-9 -36 -9 -86q0 -96 55.5 -160.5t171.5 -64.5q85 0 141 34.5t72 87.5h215q-19 -124 -140 -215t-302 -91z
M833 627q3 12 3 23q19 105 -34.5 176t-166.5 71q-92 0 -161 -54t-92 -159l-13 -57h464zM1015 1232h-138q2 7 2 25q0 58 -39 95.5t-109 37.5t-118.5 -41.5t-62.5 -116.5h-138q16 132 110.5 211t228.5 79q120 0 195.5 -65t75.5 -166q0 -27 -7 -59z" />
    <glyph glyph-name="Idblgrave" unicode="&#x208;" horiz-adv-x="586" 
d="M339 0h-228l241 1365h228zM405 1507h-156l-224 322h200zM734 1507h-156l-224 322h200z" />
    <glyph glyph-name="idblgrave" unicode="&#x209;" horiz-adv-x="573" 
d="M106 0l188 1058h223l-188 -1058h-223zM358 1228h-141l-268 333h196zM682 1228h-141l-265 333h196z" />
    <glyph glyph-name="Iinvertedbreve" unicode="&#x20a;" horiz-adv-x="586" 
d="M339 0h-228l241 1365h228zM821 1478h-142v4q0 63 -41.5 103t-123.5 40q-76 0 -130 -40.5t-66 -106.5h-143q16 126 114.5 203t244.5 77q123 0 207 -67.5t84 -172.5q0 -14 -4 -40z" />
    <glyph glyph-name="iinvertedbreve" unicode="&#x20b;" horiz-adv-x="573" 
d="M106 0l188 1058h223l-188 -1058h-223zM750 1232h-138q2 7 2 25q0 58 -39 95.5t-109 37.5t-118.5 -41.5t-62.5 -116.5h-138q16 132 110.5 211t228.5 79q120 0 195.5 -65t75.5 -166q0 -27 -7 -59z" />
    <glyph glyph-name="Odblgrave" unicode="&#x20c;" horiz-adv-x="1392" 
d="M432 835l-33 -174q-14 -73 -14 -146q0 -153 86.5 -243.5t241.5 -90.5q142 0 233 91.5t124 273.5l34 184q8 50 8 128q0 148 -88 238.5t-239 90.5q-135 0 -227 -85.5t-126 -266.5zM167 674l37 202q44 245 201.5 380.5t387.5 135.5q248 0 399.5 -143t151.5 -392
q0 -87 -14 -162l-38 -203q-46 -250 -197.5 -384.5t-404.5 -134.5q-235 0 -385.5 138t-150.5 378q0 112 13 185zM803 1507h-156l-224 322h200zM1132 1507h-156l-224 322h200z" />
    <glyph glyph-name="odblgrave" unicode="&#x20d;" horiz-adv-x="1162" 
d="M376 631l-20 -114q-10 -52 -10 -102q0 -112 63.5 -179.5t173.5 -67.5q102 0 167.5 69.5t88.5 198.5l21 121q5 39 5 92q0 108 -63 174t-171 66q-98 0 -165.5 -65t-89.5 -193zM134 550l21 119q33 189 163.5 298t315.5 109q207 0 332 -118.5t125 -319.5q0 -71 -11 -127
l-23 -120q-37 -193 -162 -301t-327 -108q-197 0 -321.5 114.5t-124.5 309.5q0 85 12 144zM645 1228h-141l-268 333h196zM969 1228h-141l-265 333h196z" />
    <glyph glyph-name="Oinvertedbreve" unicode="&#x20e;" horiz-adv-x="1392" 
d="M432 835l-33 -174q-14 -73 -14 -146q0 -153 86.5 -243.5t241.5 -90.5q142 0 233 91.5t124 273.5l34 184q8 50 8 128q0 148 -88 238.5t-239 90.5q-135 0 -227 -85.5t-126 -266.5zM167 674l37 202q44 245 201.5 380.5t387.5 135.5q248 0 399.5 -143t151.5 -392
q0 -87 -14 -162l-38 -203q-46 -250 -197.5 -384.5t-404.5 -134.5q-235 0 -385.5 138t-150.5 378q0 112 13 185zM1219 1478h-142v4q0 63 -41.5 103t-123.5 40q-76 0 -130 -40.5t-66 -106.5h-143q16 126 114.5 203t244.5 77q123 0 207 -67.5t84 -172.5q0 -14 -4 -40z" />
    <glyph glyph-name="oinvertedbreve" unicode="&#x20f;" horiz-adv-x="1162" 
d="M376 631l-20 -114q-10 -52 -10 -102q0 -112 63.5 -179.5t173.5 -67.5q102 0 167.5 69.5t88.5 198.5l21 121q5 39 5 92q0 108 -63 174t-171 66q-98 0 -165.5 -65t-89.5 -193zM134 550l21 119q33 189 163.5 298t315.5 109q207 0 332 -118.5t125 -319.5q0 -71 -11 -127
l-23 -120q-37 -193 -162 -301t-327 -108q-197 0 -321.5 114.5t-124.5 309.5q0 85 12 144zM1037 1232h-138q2 7 2 25q0 58 -39 95.5t-109 37.5t-118.5 -41.5t-62.5 -116.5h-138q16 132 110.5 211t228.5 79q120 0 195.5 -65t75.5 -166q0 -27 -7 -59z" />
    <glyph glyph-name="Rdblgrave" unicode="&#x210;" horiz-adv-x="1291" 
d="M340 0h-229l241 1366h489q198 0 305.5 -98.5t107.5 -266.5q0 -47 -5 -77q-17 -140 -102 -236.5t-212 -135.5l184 -552h-240l-167 520q-30 -2 -64 -2h-216zM785 1172h-237l-84 -464h232q287 0 318 221q5 28 5 58q0 88 -58.5 136.5t-175.5 48.5zM702 1507h-156l-224 322
h200zM1031 1507h-156l-224 322h200z" />
    <glyph glyph-name="rdblgrave" unicode="&#x211;" horiz-adv-x="813" 
d="M94 0l186 1058h212l-32 -176h14q29 81 105 136.5t184 55.5q44 0 98 -15l-43 -209q-41 18 -103 18q-127 0 -199.5 -81t-96.5 -215l-102 -572h-223zM491 1228h-141l-268 333h196zM815 1228h-141l-265 333h196z" />
    <glyph glyph-name="Rinvertedbreve" unicode="&#x212;" horiz-adv-x="1291" 
d="M340 0h-229l241 1366h489q198 0 305.5 -98.5t107.5 -266.5q0 -47 -5 -77q-17 -140 -102 -236.5t-212 -135.5l184 -552h-240l-167 520q-30 -2 -64 -2h-216zM785 1172h-237l-84 -464h232q287 0 318 221q5 28 5 58q0 88 -58.5 136.5t-175.5 48.5zM1118 1478h-142v4
q0 63 -41.5 103t-123.5 40q-76 0 -130 -40.5t-66 -106.5h-143q16 126 114.5 203t244.5 77q123 0 207 -67.5t84 -172.5q0 -14 -4 -40z" />
    <glyph glyph-name="rinvertedbreve" unicode="&#x213;" horiz-adv-x="813" 
d="M94 0l186 1058h212l-32 -176h14q29 81 105 136.5t184 55.5q44 0 98 -15l-43 -209q-41 18 -103 18q-127 0 -199.5 -81t-96.5 -215l-102 -572h-223zM883 1232h-138q2 7 2 25q0 58 -39 95.5t-109 37.5t-118.5 -41.5t-62.5 -116.5h-138q16 132 110.5 211t228.5 79
q120 0 195.5 -65t75.5 -166q0 -27 -7 -59z" />
    <glyph glyph-name="Udblgrave" unicode="&#x214;" horiz-adv-x="1388" 
d="M565 1365l-144 -823q-8 -34 -8 -89q0 -121 76 -193.5t207 -72.5q121 0 204 69t108 207l160 902h232l-166 -944q-39 -220 -185 -333.5t-362 -113.5q-145 0 -258.5 50t-182 152.5t-68.5 242.5q0 57 13 128l143 818h231zM808 1507h-156l-224 322h200zM1137 1507h-156
l-224 322h200z" />
    <glyph glyph-name="udblgrave" unicode="&#x215;" horiz-adv-x="1206" 
d="M1162 1058l-186 -1058h-213l31 173h-15q-40 -83 -119 -136t-189 -53q-154 0 -241.5 89.5t-87.5 233.5q0 75 20 181l104 570h222l-102 -573q-13 -67 -13 -125q0 -87 49 -135.5t142 -48.5q113 0 182 76.5t91 205.5l106 600h219zM668 1228h-141l-268 333h196zM992 1228h-141
l-265 333h196z" />
    <glyph glyph-name="Uinvertedbreve" unicode="&#x216;" horiz-adv-x="1388" 
d="M565 1365l-144 -823q-8 -34 -8 -89q0 -121 76 -193.5t207 -72.5q121 0 204 69t108 207l160 902h232l-166 -944q-39 -220 -185 -333.5t-362 -113.5q-145 0 -258.5 50t-182 152.5t-68.5 242.5q0 57 13 128l143 818h231zM1224 1478h-142v4q0 63 -41.5 103t-123.5 40
q-76 0 -130 -40.5t-66 -106.5h-143q16 126 114.5 203t244.5 77q123 0 207 -67.5t84 -172.5q0 -14 -4 -40z" />
    <glyph glyph-name="uinvertedbreve" unicode="&#x217;" horiz-adv-x="1206" 
d="M1162 1058l-186 -1058h-213l31 173h-15q-40 -83 -119 -136t-189 -53q-154 0 -241.5 89.5t-87.5 233.5q0 75 20 181l104 570h222l-102 -573q-13 -67 -13 -125q0 -87 49 -135.5t142 -48.5q113 0 182 76.5t91 205.5l106 600h219zM1061 1232h-138q2 7 2 25q0 58 -39 95.5
t-109 37.5t-118.5 -41.5t-62.5 -116.5h-138q16 132 110.5 211t228.5 79q120 0 195.5 -65t75.5 -166q0 -27 -7 -59z" />
    <glyph glyph-name="Scommaaccent" unicode="&#x218;" horiz-adv-x="1234" 
d="M106 395h218q-1 -7 -1 -22q0 -85 81.5 -146t210.5 -61q120 0 196.5 55t76.5 148q0 34 -12.5 62t-31 47t-51.5 37.5t-61 30t-72 26.5l-80 29q-57 20 -103.5 42t-94.5 56t-80 73t-52.5 94.5t-20.5 119.5q0 126 66.5 219.5t176.5 140t248 46.5q127 0 232 -45t167.5 -129.5
t62.5 -193.5q0 -5 -1 -20t-1 -16h-210v2q0 2 0.5 6t0.5 8q0 89 -74 141t-179 52q-103 0 -178.5 -49t-75.5 -138q0 -73 59.5 -120t174.5 -89l96 -34q58 -21 100 -40t88 -50.5t74.5 -67.5t47.5 -90t19 -119q0 -200 -144.5 -313.5t-373.5 -113.5q-216 0 -359 106.5t-143 270.5
q0 24 3 45zM505 -452h-152l81 315h177z" />
    <glyph glyph-name="scommaaccent" unicode="&#x219;" horiz-adv-x="1054" 
d="M198 755q0 145 104 233t294 88q182 0 291 -87.5t109 -207.5v-26h-200v12q0 53 -53.5 98t-145.5 45q-85 0 -134.5 -37.5t-49.5 -93.5q0 -16 3.5 -29.5t12.5 -25.5t16.5 -21t24.5 -18.5t27.5 -15t33.5 -14t34.5 -12.5t39 -12.5t38.5 -12.5q66 -21 112.5 -43.5t89 -57.5
t64.5 -85.5t22 -116.5q0 -161 -118.5 -248.5t-310.5 -87.5q-181 0 -303.5 87.5t-122.5 225.5q0 16 1 19h204q0 -2 0.5 -8.5t0.5 -9.5q10 -60 72 -100.5t157 -40.5t147.5 38.5t52.5 103.5q0 27 -12 49.5t-27 36t-48 28.5t-54 22t-67 21q-32 10 -54 18t-57 23t-59 30.5
t-51.5 39.5t-44 51t-28 63.5t-11.5 78.5zM426 -452h-152l81 315h177z" />
    <glyph glyph-name="Tcommaaccent" unicode="&#x21a;" horiz-adv-x="1126" 
d="M609 0h-228l207 1163h-402l34 202h1030l-32 -202h-402zM463 -452h-152l81 315h177z" />
    <glyph glyph-name="tcommaaccent" unicode="&#x21b;" horiz-adv-x="782" 
d="M338 1050l47 264h217l-46 -264h226l-32 -181h-223l-84 -472q-17 -89 -17 -123q0 -54 30 -78t94 -24q72 0 115 10l-30 -175q-54 -15 -153 -15q-287 0 -287 213q0 44 13 120l97 544h-156l32 181h157zM374 -452h-152l81 315h177z" />
    <glyph glyph-name="Hcaron" unicode="&#x21e;" horiz-adv-x="1437" 
d="M340 0h-229l241 1365h228l-99 -563h622l99 563h229l-241 -1365h-228l107 601h-622zM1311 1735l-292 -239h-190l-220 239h193l123 -136h14l169 136h203z" />
    <glyph glyph-name="hcaron" unicode="&#x21f;" horiz-adv-x="1222" 
d="M95 0l253 1437h223l-100 -547h14q41 88 120 136t189 48q156 0 241 -93t85 -233q0 -54 -21 -184l-100 -564h-224l102 577q12 62 12 118q0 86 -45 139.5t-139 53.5q-114 0 -186 -79t-94 -205l-107 -604h-223zM875 1807l-292 -239h-190l-220 239h193l123 -136h14l169 136
h203z" />
    <glyph glyph-name="Adotaccent" unicode="&#x226;" horiz-adv-x="1281" 
d="M-27 0l708 1365h263l229 -1365h-240l-55 372h-479l-188 -372h-238zM779 1121h-15l-281 -567h375zM732 1602q0 50 35 85.5t84 35.5t83.5 -35.5t34.5 -85.5t-34.5 -85.5t-83.5 -35.5t-84 35.5t-35 85.5z" />
    <glyph glyph-name="adotaccent" unicode="&#x227;" horiz-adv-x="1121" 
d="M407 -16q-136 0 -226.5 80t-90.5 217q0 21 2 33q11 145 122 226t307 81h270l11 69q4 18 4 41q0 68 -48 116t-148 48q-81 0 -131 -31.5t-65 -81.5h-213q21 127 132 210t293 83q187 0 290 -91t103 -248q0 -49 -16 -139l-105 -597h-212l25 140h-13q-31 -64 -107 -110
t-184 -46zM313 307q0 -65 46 -106t125 -41q94 0 167 53.5t89 136.5l22 121h-232q-106 0 -161.5 -46.5t-55.5 -117.5zM590 1363q0 51 34.5 86t83.5 35q50 0 84.5 -35t34.5 -86t-34.5 -86t-84.5 -35q-49 0 -83.5 35t-34.5 86z" />
    <glyph glyph-name="Ecedilla" unicode="&#x228;" horiz-adv-x="1151" 
d="M446 0h-335l241 1365h844l-34 -200h-615l-69 -373h584l-31 -189h-585l-74 -403h620l-33 -200h-369l-39 -127q80 -2 129.5 -41.5t49.5 -111.5q0 -2 -0.5 -6t-0.5 -7q-5 -92 -74 -142t-178 -50q-84 0 -156 25l19 115q57 -18 126 -18q104 0 105 64q1 1 1 4q0 64 -130 64h-52
l10 76z" />
    <glyph glyph-name="ecedilla" unicode="&#x229;" horiz-adv-x="1117" 
d="M833 627q3 12 3 23q19 105 -34.5 176t-166.5 71q-92 0 -161 -54t-92 -159l-13 -57h464zM460 -485q-87 0 -156 25l19 115q57 -18 125 -18q105 0 106 64q1 1 1 4q0 64 -130 64h-52l9 76l44 148q-142 31 -225 133.5t-83 267.5q0 62 16 153l24 126q33 193 164 298t319 105
q111 0 196 -38.5t132 -103t67 -143.5t11 -166q0 -23 -25 -148h-681q-9 -36 -9 -86q0 -96 55.5 -160.5t171.5 -64.5q85 0 141 34.5t72 87.5h215q-19 -119 -133.5 -210t-286.5 -97l-33 -108q80 -2 129.5 -41.5t49.5 -111.5q0 -2 -0.5 -6t-0.5 -7q-5 -92 -74 -142t-178 -50z
" />
    <glyph glyph-name="Odieresismacron" unicode="&#x22a;" horiz-adv-x="1392" 
d="M432 835l-33 -174q-14 -73 -14 -146q0 -153 86.5 -243.5t241.5 -90.5q142 0 233 91.5t124 273.5l34 184q8 50 8 128q0 148 -88 238.5t-239 90.5q-135 0 -227 -85.5t-126 -266.5zM167 674l37 202q44 245 201.5 380.5t387.5 135.5q248 0 399.5 -143t151.5 -392
q0 -87 -14 -162l-38 -203q-46 -250 -197.5 -384.5t-404.5 -134.5q-235 0 -385.5 138t-150.5 378q0 112 13 185zM1262 1903l-24 -124h-606l24 124h606zM1084 1467q-47 0 -78.5 32.5t-31.5 78.5t31.5 78t78.5 32t79 -32.5t32 -77.5q0 -46 -32 -78.5t-79 -32.5zM725 1467
q-47 0 -79 32.5t-32 78.5q0 45 32 77.5t79 32.5t79 -32.5t32 -77.5q0 -46 -32 -78.5t-79 -32.5z" />
    <glyph glyph-name="odieresismacron" unicode="&#x22b;" horiz-adv-x="1162" 
d="M376 631l-20 -114q-10 -52 -10 -102q0 -112 63.5 -179.5t173.5 -67.5q102 0 167.5 69.5t88.5 198.5l21 121q5 39 5 92q0 108 -63 174t-171 66q-98 0 -165.5 -65t-89.5 -193zM134 550l21 119q33 189 163.5 298t315.5 109q207 0 332 -118.5t125 -319.5q0 -71 -11 -127
l-23 -120q-37 -193 -162 -301t-327 -108q-197 0 -321.5 114.5t-124.5 309.5q0 85 12 144zM1085 1595h-612l27 131h612zM545 1214q-51 0 -85 32.5t-34 82.5q0 51 34 83.5t85 32.5q52 0 85.5 -32.5t33.5 -83.5q0 -50 -33.5 -82.5t-85.5 -32.5zM929 1214q-51 0 -84.5 32.5
t-33.5 82.5q0 51 33.5 83.5t84.5 32.5q52 0 86 -32.5t34 -83.5q0 -50 -34 -82.5t-86 -32.5z" />
    <glyph glyph-name="Otildemacron" unicode="&#x22c;" horiz-adv-x="1392" 
d="M432 835l-33 -174q-14 -73 -14 -146q0 -153 86.5 -243.5t241.5 -90.5q142 0 233 91.5t124 273.5l34 184q8 50 8 128q0 148 -88 238.5t-239 90.5q-135 0 -227 -85.5t-126 -266.5zM167 674l37 202q44 245 201.5 380.5t387.5 135.5q248 0 399.5 -143t151.5 -392
q0 -87 -14 -162l-38 -203q-46 -250 -197.5 -384.5t-404.5 -134.5q-235 0 -385.5 138t-150.5 378q0 112 13 185zM1260 1903l-24 -124h-606l24 124h606zM1012 1458q-47 0 -83 17t-54 38t-41.5 38t-49.5 17q-65 0 -75 -93h-128q6 90 58.5 151t138.5 61q50 0 88.5 -18t56.5 -39
t40.5 -39t45.5 -18q63 0 74 100h128q-5 -88 -59 -151.5t-140 -63.5z" />
    <glyph glyph-name="otildemacron" unicode="&#x22d;" horiz-adv-x="1162" 
d="M376 631l-20 -114q-10 -52 -10 -102q0 -112 63.5 -179.5t173.5 -67.5q102 0 167.5 69.5t88.5 198.5l21 121q5 39 5 92q0 108 -63 174t-171 66q-98 0 -165.5 -65t-89.5 -193zM134 550l21 119q33 189 163.5 298t315.5 109q207 0 332 -118.5t125 -319.5q0 -71 -11 -127
l-23 -120q-37 -193 -162 -301t-327 -108q-197 0 -321.5 114.5t-124.5 309.5q0 85 12 144zM1089 1595h-612l26 131h612zM855 1191q-42 0 -75 14.5t-53 35.5t-37 41.5t-36.5 35t-41.5 14.5q-71 0 -83 -108h-130q8 108 65.5 178.5t149.5 70.5q43 0 77 -14.5t54.5 -35.5
t37.5 -42t36 -35.5t40 -14.5q34 0 55.5 29t26.5 79h130q-7 -103 -67 -175.5t-149 -72.5z" />
    <glyph glyph-name="Odotaccent" unicode="&#x22e;" horiz-adv-x="1392" 
d="M432 835l-33 -174q-14 -73 -14 -146q0 -153 86.5 -243.5t241.5 -90.5q142 0 233 91.5t124 273.5l34 184q8 50 8 128q0 148 -88 238.5t-239 90.5q-135 0 -227 -85.5t-126 -266.5zM167 674l37 202q44 245 201.5 380.5t387.5 135.5q248 0 399.5 -143t151.5 -392
q0 -87 -14 -162l-38 -203q-46 -250 -197.5 -384.5t-404.5 -134.5q-235 0 -385.5 138t-150.5 378q0 112 13 185zM790 1602q0 50 35 85.5t84 35.5t83.5 -35.5t34.5 -85.5t-34.5 -85.5t-83.5 -35.5t-84 35.5t-35 85.5z" />
    <glyph glyph-name="odotaccent" unicode="&#x22f;" horiz-adv-x="1162" 
d="M376 631l-20 -114q-10 -52 -10 -102q0 -112 63.5 -179.5t173.5 -67.5q102 0 167.5 69.5t88.5 198.5l21 121q5 39 5 92q0 108 -63 174t-171 66q-98 0 -165.5 -65t-89.5 -193zM134 550l21 119q33 189 163.5 298t315.5 109q207 0 332 -118.5t125 -319.5q0 -71 -11 -127
l-23 -120q-37 -193 -162 -301t-327 -108q-197 0 -321.5 114.5t-124.5 309.5q0 85 12 144zM636 1363q0 51 34.5 86t83.5 35q50 0 84.5 -35t34.5 -86t-34.5 -86t-84.5 -35q-49 0 -83.5 35t-34.5 86z" />
    <glyph glyph-name="Odotaccentmacron" unicode="&#x230;" horiz-adv-x="1392" 
d="M432 835l-33 -174q-14 -73 -14 -146q0 -153 86.5 -243.5t241.5 -90.5q142 0 233 91.5t124 273.5l34 184q8 50 8 128q0 148 -88 238.5t-239 90.5q-135 0 -227 -85.5t-126 -266.5zM167 674l37 202q44 245 201.5 380.5t387.5 135.5q248 0 399.5 -143t151.5 -392
q0 -87 -14 -162l-38 -203q-46 -250 -197.5 -384.5t-404.5 -134.5q-235 0 -385.5 138t-150.5 378q0 112 13 185zM787 1573q0 48 33 81.5t81 33.5t81.5 -33.5t33.5 -81.5q0 -49 -33.5 -82t-81.5 -33t-81 33t-33 82zM1255 1903l-24 -124h-606l24 124h606z" />
    <glyph glyph-name="odotaccentmacron" unicode="&#x231;" horiz-adv-x="1162" 
d="M376 631l-20 -114q-10 -52 -10 -102q0 -112 63.5 -179.5t173.5 -67.5q102 0 167.5 69.5t88.5 198.5l21 121q5 39 5 92q0 108 -63 174t-171 66q-98 0 -165.5 -65t-89.5 -193zM134 550l21 119q33 189 163.5 298t315.5 109q207 0 332 -118.5t125 -319.5q0 -71 -11 -127
l-23 -120q-37 -193 -162 -301t-327 -108q-197 0 -321.5 114.5t-124.5 309.5q0 85 12 144zM1091 1595h-612l23 131h612zM626 1344q0 51 34.5 86t83.5 35q50 0 84.5 -35t34.5 -86t-34.5 -86t-84.5 -35q-49 0 -83.5 35t-34.5 86z" />
    <glyph glyph-name="Ymacron" unicode="&#x232;" horiz-adv-x="1166" 
d="M730 541l-96 -541h-229l96 536l-323 829h243l220 -605h12l425 605h256zM1115 1628l-24 -124h-621l24 124h621z" />
    <glyph glyph-name="ymacron" unicode="&#x233;" horiz-adv-x="1093" 
d="M1132 1058l-528 -1051q-1 -2 -12 -22t-21 -38.5t-10 -20.5q-88 -170 -179.5 -233.5t-252.5 -63.5q-74 0 -130 14l35 178q41 -11 94 -11q70 0 114.5 32.5t80.5 107.5l28 64l-185 1044h231l112 -834h12l373 834h238zM1006 1250h-612l22 131h612z" />
    <glyph glyph-name="dotlessj" unicode="&#x237;" horiz-adv-x="598" 
d="M530 1058l-192 -1081q-31 -178 -127.5 -261.5t-273.5 -83.5q-54 0 -109 12l35 182q34 -9 77 -9q70 0 115.5 41t58.5 113l192 1087h224z" />
    <glyph glyph-name="quoteright" unicode="&#x2bc;" horiz-adv-x="639" 
d="M416 764h-192l189 601h243z" />
    <glyph glyph-name="quoteright" unicode="&#x2019;" horiz-adv-x="639" 
d="M416 764h-192l189 601h243z" />
    <glyph glyph-name="circumflex" unicode="&#x2c6;" horiz-adv-x="1000" 
d="M320 1228l301 364h171l176 -364h-176l-101 239h-9l-185 -239h-177z" />
    <glyph glyph-name="caron" unicode="&#x2c7;" horiz-adv-x="1000" 
d="M1042 1587l-297 -364h-171l-179 364h173l105 -239h8l182 239h179z" />
    <glyph glyph-name="breve" unicode="&#x2d8;" horiz-adv-x="1000" 
d="M404 1508h138q-2 -14 -2 -25q0 -59 39 -96.5t109 -37.5t118.5 41.5t62.5 117.5h138q-16 -132 -110.5 -211t-227.5 -79q-120 0 -196 65t-76 165q0 27 7 60z" />
    <glyph glyph-name="dotaccent" unicode="&#x2d9;" horiz-adv-x="1000" 
d="M549 1394q0 61 39 99t96 38q58 0 96.5 -38t38.5 -99q0 -60 -39 -98t-96 -38t-96 38t-39 98z" />
    <glyph glyph-name="ring" unicode="&#x2da;" horiz-adv-x="1000" 
d="M674 1326q41 0 70 28.5t29 68.5q0 41 -29 69.5t-70 28.5t-70.5 -28.5t-29.5 -69.5q0 -40 29.5 -68.5t70.5 -28.5zM672 1219q-85 0 -143 59.5t-58 144.5q0 86 59.5 144.5t144.5 58.5t143 -59t58 -144q0 -86 -60 -145t-144 -59z" />
    <glyph glyph-name="ogonek" unicode="&#x2db;" horiz-adv-x="1000" 
d="M569 78q-64 -42 -114 -103.5t-50 -122.5q0 -46 31.5 -79t106.5 -33q2 0 18 0.5t17 0.5l-9 -128q-32 -10 -86 -10q-106 0 -175 55t-69 154q0 124 116 220q7 7 41 32t44 30z" />
    <glyph glyph-name="tilde" unicode="&#x2dc;" horiz-adv-x="1000" 
d="M789 1215q-42 0 -74.5 14.5t-53 35.5t-37.5 42t-36.5 35.5t-41.5 14.5q-72 0 -82 -108h-131q9 108 66.5 178.5t149.5 70.5q43 0 77 -14.5t54.5 -35.5t37.5 -42t35.5 -35.5t39.5 -14.5q34 0 55.5 29t27.5 79h130q-7 -104 -67 -176.5t-150 -72.5z" />
    <glyph glyph-name="hungarumlaut" unicode="&#x2dd;" horiz-adv-x="1000" 
d="M304 1228l267 333h210l-334 -333h-143zM632 1228l270 333h207l-332 -333h-145z" />
    <glyph glyph-name="gravecmb" unicode="&#x300;" 
d="M266 1228h-157l-250 354h211z" />
    <glyph glyph-name="acutecmb" unicode="&#x301;" 
d="M25 1228l287 354h208l-333 -354h-162z" />
    <glyph glyph-name="circumflexcmb" unicode="&#x302;" 
d="M-176 1228l301 364h171l176 -364h-176l-101 239h-9l-185 -239h-177z" />
    <glyph glyph-name="tildecmb" unicode="&#x303;" 
d="M281 1217q-42 0 -74.5 14.5t-53 35.5t-37.5 42t-36.5 35.5t-41.5 14.5q-72 0 -82 -108h-131q9 108 66.5 178.5t149.5 70.5q43 0 77 -14.5t54.5 -35.5t37.5 -42t35.5 -35.5t39.5 -14.5q34 0 55.5 29t27.5 79h130q-7 -104 -67 -176.5t-150 -72.5z" />
    <glyph glyph-name="macroncmb" unicode="&#x304;" 
d="M463 1250h-612l22 131h612z" />
    <glyph glyph-name="brevecmb" unicode="&#x306;" 
d="M-107 1510h138q-2 -14 -2 -25q0 -59 39 -96.5t109 -37.5t118.5 41.5t62.5 117.5h138q-16 -132 -110.5 -211t-227.5 -79q-120 0 -196 65t-76 165q0 27 7 60z" />
    <glyph glyph-name="dotaccentcmb" unicode="&#x307;" 
d="M61 1363q0 51 34.5 86t83.5 35q50 0 84.5 -35t34.5 -86t-34.5 -86t-84.5 -35q-49 0 -83.5 35t-34.5 86z" />
    <glyph glyph-name="dieresiscmb" unicode="&#x308;" 
d="M-17 1220q-52 0 -85.5 32t-33.5 83q0 50 33.5 82.5t85.5 32.5q51 0 85 -32.5t34 -82.5q0 -51 -34 -83t-85 -32zM367 1220q-52 0 -85.5 32t-33.5 83q0 50 33.5 82.5t85.5 32.5q51 0 85 -32.5t34 -82.5q0 -51 -33.5 -83t-85.5 -32z" />
    <glyph glyph-name="hookabovecmb" unicode="&#x309;" 
d="M28 1451l16 112q42 17 116 17q89 0 144 -45t55 -114q0 -157 -194 -235l-58 93q64 31 89 58t25 60q0 28 -28 49t-67 21q-59 0 -98 -16z" />
    <glyph glyph-name="ringcmb" unicode="&#x30a;" 
d="M183 1325q41 0 70 28.5t29 68.5q0 41 -29 69.5t-70 28.5t-70.5 -28.5t-29.5 -69.5q0 -40 29.5 -68.5t70.5 -28.5zM181 1218q-85 0 -143 59.5t-58 144.5q0 86 59.5 144.5t144.5 58.5t143 -59t58 -144q0 -86 -60 -145t-144 -59z" />
    <glyph glyph-name="hungarumlautcmb" unicode="&#x30b;" 
d="M-115 1228l267 333h210l-334 -333h-143zM213 1228l270 333h207l-332 -333h-145z" />
    <glyph glyph-name="caroncmb" unicode="&#x30c;" 
d="M533 1589l-297 -364h-171l-179 364h173l105 -239h8l182 239h179z" />
    <glyph glyph-name="dblgravecmb" unicode="&#x30f;" 
d="M69 1228h-141l-268 333h196zM393 1228h-141l-265 333h196z" />
    <glyph glyph-name="invertedbrevecmb" unicode="&#x311;" 
d="M462 1232h-138q2 7 2 25q0 58 -39 95.5t-109 37.5t-118.5 -41.5t-62.5 -116.5h-138q16 132 110.5 211t228.5 79q120 0 195.5 -65t75.5 -166q0 -27 -7 -59z" />
    <glyph glyph-name="horncmb" unicode="&#x31b;" 
d="M98 918l31 183q31 -29 82 -29q63 2 94.5 37.5t43.5 100.5l27 157h185l-31 -176q-22 -129 -99 -215t-203 -86q-92 0 -130 28z" />
    <glyph glyph-name="dotbelowcmb" unicode="&#x323;" 
d="M-226 -233q0 53 33.5 85.5t86.5 32.5t86.5 -32.5t33.5 -85.5q0 -54 -33.5 -85.5t-86.5 -31.5t-86.5 31.5t-33.5 85.5z" />
    <glyph glyph-name="dieresisbelowcmb" unicode="&#x324;" 
d="M-295 -345q-52 0 -85.5 32t-33.5 83q0 50 33.5 82.5t85.5 32.5q51 0 85 -32.5t34 -82.5q0 -51 -34 -83t-85 -32zM89 -345q-52 0 -85.5 32t-33.5 83q0 50 33.5 82.5t85.5 32.5q51 0 85 -32.5t34 -82.5q0 -51 -33.5 -83t-85.5 -32z" />
    <glyph glyph-name="ringbelowcmb" unicode="&#x325;" 
d="M-109 -387q41 0 70 28.5t29 68.5q0 41 -29 69.5t-70 28.5t-70.5 -28.5t-29.5 -69.5q0 -40 29.5 -68.5t70.5 -28.5zM-111 -494q-85 0 -143 59.5t-58 144.5q0 86 59.5 144.5t144.5 58.5t143 -59t58 -144q0 -86 -60 -145t-144 -59z" />
    <glyph glyph-name="commabelowcmb" unicode="&#x326;" 
d="M-101 -452h-152l81 315h177z" />
    <glyph glyph-name="cedillacmb" unicode="&#x327;" 
d="M-188 -152l49 164h144l-42 -136q80 -2 129.5 -41.5t49.5 -111.5q0 -9 -1 -13q-4 -93 -73.5 -142.5t-178.5 -49.5q-87 0 -156 24l20 115q58 -17 125 -17q104 0 106 64v4q0 63 -130 63h-52z" />
    <glyph glyph-name="ogonekcmb" unicode="&#x328;" 
d="M26 47q-64 -42 -114 -103.5t-50 -122.5q0 -46 31.5 -79t106.5 -33q2 0 18 0.5t17 0.5l-9 -128q-32 -10 -86 -10q-106 0 -175 55t-69 154q0 124 116 220q7 7 41 32t44 30z" />
    <glyph glyph-name="circumflexbelowcmb" unicode="&#x32d;" 
d="M-494 -404l301 261h190l210 -261h-193l-119 151h-14l-176 -151h-199z" />
    <glyph glyph-name="brevebelowcmb" unicode="&#x32e;" 
d="M-398 -113h138q-2 -14 -2 -25q0 -58 39 -95.5t109 -37.5t118.5 41.5t62.5 116.5h138q-16 -131 -110.5 -210t-227.5 -79q-120 0 -196 64.5t-76 165.5q0 27 7 59z" />
    <glyph glyph-name="tildebelowcmb" unicode="&#x330;" 
d="M-8 -437q-40 0 -72.5 16.5t-53 40.5t-39 47.5t-39.5 40t-44 16.5q-63 0 -80 -111h-139q11 119 69.5 190t148.5 71q42 0 76 -16.5t56.5 -40t41.5 -47.5t39.5 -40.5t41.5 -16.5q33 0 54 34.5t27 77.5h139q-6 -108 -70 -185t-156 -77z" />
    <glyph glyph-name="macronbelowcmb" unicode="&#x331;" 
d="M175 -334h-612l22 131h612z" />
    <glyph glyph-name="macronbelowcmb" unicode="&#x332;" 
d="M175 -334h-612l22 131h612z" />
    <glyph glyph-name="greekquestionmark" unicode="&#x37e;" horiz-adv-x="562" 
d="M230 805q0 72 45.5 117t112.5 45q69 0 115 -45.5t46 -116.5q0 -70 -46 -114t-115 -44q-66 0 -112 44.5t-46 113.5zM170 -362h-192l188 601h244z" />
    <glyph glyph-name="tonosgreek" unicode="&#x384;" horiz-adv-x="902" 
d="M409 1216l170 375h222l-233 -375h-159z" />
    <glyph glyph-name="dieresistonosgreek" unicode="&#x385;" horiz-adv-x="1221" 
d="M360 1331q0 52 33 84t86 32q54 0 87 -32t33 -84q0 -50 -33.5 -82.5t-86.5 -32.5q-52 0 -85.5 32.5t-33.5 82.5zM957 1331q0 52 33 84t84 32q55 0 88.5 -32t33.5 -84q0 -51 -34 -83t-88 -32q-51 0 -84 32.5t-33 82.5zM650 1216l106 375h222l-169 -375h-159z" />
    <glyph glyph-name="Alphatonosgreek" unicode="&#x386;" horiz-adv-x="1352" 
d="M44 0l708 1365h263l229 -1365h-240l-55 372h-479l-188 -372h-238zM850 1121h-15l-281 -567h375zM195 990l170 375h222l-233 -375h-159z" />
    <glyph glyph-name="anoteleia" unicode="&#x387;" horiz-adv-x="569" 
d="M212 896q0 73 46.5 119t114.5 46q71 0 118 -46t47 -119q0 -71 -47 -116t-118 -45q-68 0 -114.5 45t-46.5 116z" />
    <glyph glyph-name="Epsilontonosgreek" unicode="&#x388;" horiz-adv-x="1498" 
d="M1312 200l-34 -200h-847l241 1365h844l-34 -200h-615l-69 -374h584l-32 -188h-583l-74 -403h619zM162 990l170 375h222l-233 -375h-159z" />
    <glyph glyph-name="Etatonosgreek" unicode="&#x389;" horiz-adv-x="1782" 
d="M660 0h-229l241 1365h228l-99 -563h622l99 563h229l-241 -1365h-228l107 601h-622zM162 990l170 375h222l-233 -375h-159z" />
    <glyph glyph-name="Iotatonosgreek" unicode="&#x38a;" horiz-adv-x="932" 
d="M659 0h-228l241 1365h228zM162 990l170 375h222l-233 -375h-159z" />
    <glyph glyph-name="Omicrontonosgreek" unicode="&#x38c;" horiz-adv-x="1648" 
d="M689 835l-33 -174q-14 -73 -14 -146q0 -153 86.5 -243.5t241.5 -90.5q142 0 233 91.5t124 273.5l34 184q8 50 8 128q0 148 -88 238.5t-239 90.5q-135 0 -227 -85.5t-126 -266.5zM424 674l37 202q44 245 201.5 380.5t387.5 135.5q248 0 399.5 -143t151.5 -392
q0 -87 -14 -162l-38 -203q-46 -250 -197.5 -384.5t-404.5 -134.5q-235 0 -385.5 138t-150.5 378q0 112 13 185zM162 990l170 375h222l-233 -375h-159z" />
    <glyph glyph-name="Upsilontonosgreek" unicode="&#x38e;" horiz-adv-x="1641" 
d="M1206 541l-96 -541h-229l96 536l-323 829h243l220 -605h12l425 605h256zM162 990l170 375h222l-233 -375h-159z" />
    <glyph glyph-name="Omegatonosgreek" unicode="&#x38f;" horiz-adv-x="1666" 
d="M982 0l38 226q121 42 201.5 147.5t109.5 262.5l13 77q19 100 19 170q0 146 -85 224.5t-234 78.5q-150 0 -243 -89t-123 -253l-25 -141q-12 -64 -12 -129q0 -117 46 -208t124 -131l-40 -235h-471l35 206h237l1 11q-73 62 -115.5 157t-42.5 215q0 66 12 138l29 163
q42 237 202 369.5t397 132.5q259 0 399.5 -135t140.5 -363q0 -82 -19 -180l-20 -107q-25 -134 -88.5 -227t-179.5 -163v-11h229l-35 -206h-500zM162 990l170 375h222l-233 -375h-159z" />
    <glyph glyph-name="iotadieresistonosgreek" unicode="&#x390;" horiz-adv-x="663" 
d="M280 1058h221l-114 -648q-19 -106 -19 -136q0 -54 30 -78t95 -24q72 0 115 10l-30 -175q-54 -15 -153 -15q-288 0 -288 213q0 47 14 120zM37 1331q0 52 33 84t86 32q54 0 87 -32t33 -84q0 -50 -33.5 -82.5t-86.5 -32.5q-52 0 -85.5 32.5t-33.5 82.5zM634 1331q0 52 33 84
t84 32q55 0 88.5 -32t33.5 -84q0 -51 -34 -83t-88 -32q-51 0 -84 32.5t-33 82.5zM327 1216l106 375h222l-169 -375h-159z" />
    <glyph glyph-name="Alphagreek" unicode="&#x391;" horiz-adv-x="1281" 
d="M-27 0l708 1365h263l229 -1365h-240l-55 372h-479l-188 -372h-238zM779 1121h-15l-281 -567h375z" />
    <glyph glyph-name="Betagreek" unicode="&#x392;" horiz-adv-x="1298" 
d="M111 0l241 1365h499q105 0 182.5 -25t121.5 -69t64.5 -96.5t20.5 -114.5q0 -131 -85 -223.5t-196 -114.5l-2 -13q109 -17 178.5 -95t69.5 -202q0 -194 -149.5 -303t-409.5 -109h-535zM548 1185l-71 -391h246q124 0 202.5 60.5t78.5 167.5q0 83 -57 123t-175 40h-224z
M447 618l-78 -435h277q145 0 236.5 63.5t91.5 177.5q0 92 -67.5 143t-206.5 51h-253z" />
    <glyph glyph-name="Gammagreek" unicode="&#x393;" horiz-adv-x="1105" 
d="M111 0l243 1366h821l-33 -200h-594l-209 -1166h-228z" />
    <glyph glyph-name="Deltagreek" unicode="&#x394;" horiz-adv-x="1283" 
d="M1172 133l-23 -133h-1151l23 133l661 1233h264zM781 1124h-15l-493 -943h662z" />
    <glyph glyph-name="Deltagreek" unicode="&#x2206;" horiz-adv-x="1283" 
d="M1172 133l-23 -133h-1151l23 133l661 1233h264zM781 1124h-15l-493 -943h662z" />
    <glyph glyph-name="Epsilongreek" unicode="&#x395;" horiz-adv-x="1151" 
d="M992 200l-34 -200h-847l241 1365h844l-34 -200h-615l-69 -374h584l-32 -188h-583l-74 -403h619z" />
    <glyph glyph-name="Zetagreek" unicode="&#x396;" horiz-adv-x="1224" 
d="M73 0l28 167l853 985l2 15h-678l34 198h955l-26 -171l-852 -981l-2 -15h706l-34 -198h-986z" />
    <glyph glyph-name="Etagreek" unicode="&#x397;" horiz-adv-x="1442" 
d="M340 0h-229l241 1365h228l-99 -563h622l99 563h229l-241 -1365h-228l107 601h-622z" />
    <glyph glyph-name="Thetagreek" unicode="&#x398;" horiz-adv-x="1418" 
d="M696 -27q-241 0 -391.5 139.5t-151.5 379.5q0 105 15 184l34 187q44 246 201.5 387.5t406.5 141.5q163 0 287.5 -59t197.5 -178t76 -283q2 -91 -16 -184l-35 -188q-96 -527 -624 -527zM723 181q158 0 249 90.5t125 281.5l33 179q9 52 9 134q-2 148 -91.5 234.5
t-245.5 86.5q-149 0 -242 -83t-128 -270l-34 -179q-13 -73 -13 -141q-1 -159 88.5 -246t249.5 -87zM981 587h-469l32 196h470z" />
    <glyph glyph-name="Iotagreek" unicode="&#x399;" horiz-adv-x="591" 
d="M339 0h-228l241 1365h228z" />
    <glyph glyph-name="Kappagreek" unicode="&#x39a;" horiz-adv-x="1310" 
d="M581 1365l-118 -632h14l665 632h282l-631 -612l397 -753h-259l-318 619l-194 -175l-80 -444h-228l241 1365h229z" />
    <glyph glyph-name="Lambdagreek" unicode="&#x39b;" horiz-adv-x="1246" 
d="M-27 0l690 1365h264l211 -1365h-240l-137 1105h-15l-535 -1105h-238z" />
    <glyph glyph-name="Mugreek" unicode="&#x39c;" horiz-adv-x="1664" 
d="M322 0h-211l241 1365h229l241 -922h9l568 922h249l-241 -1365h-211l171 953h-12l-507 -815h-135l-210 815h-13z" />
    <glyph glyph-name="Nugreek" unicode="&#x39d;" horiz-adv-x="1435" 
d="M1183 0h-199l-468 970h-11l-174 -970h-220l241 1365h202l463 -968h12l175 968h220z" />
    <glyph glyph-name="Xigreek" unicode="&#x39e;" horiz-adv-x="1194" 
d="M264 1160l36 205h942l-36 -205h-942zM249 593l34 196h770l-34 -196h-770zM58 0l35 205h942l-35 -205h-942z" />
    <glyph glyph-name="Omicrongreek" unicode="&#x39f;" horiz-adv-x="1391" 
d="M432 835l-33 -174q-14 -73 -14 -146q0 -153 86.5 -243.5t241.5 -90.5q142 0 233 91.5t124 273.5l34 184q8 50 8 128q0 148 -88 238.5t-239 90.5q-135 0 -227 -85.5t-126 -266.5zM167 674l37 202q44 245 201.5 380.5t387.5 135.5q248 0 399.5 -143t151.5 -392
q0 -87 -14 -162l-38 -203q-46 -250 -197.5 -384.5t-404.5 -134.5q-235 0 -385.5 138t-150.5 378q0 112 13 185z" />
    <glyph glyph-name="Pigreek" unicode="&#x3a0;" horiz-adv-x="1417" 
d="M340 0h-229l241 1365h1059l-241 -1365h-228l207 1165h-602z" />
    <glyph glyph-name="Rhogreek" unicode="&#x3a1;" horiz-adv-x="1224" 
d="M339 0h-228l241 1366h469q198 0 308 -105t110 -275q0 -49 -7 -94q-29 -198 -169 -306t-390 -108h-249zM773 1176h-225l-90 -500h222q155 0 232.5 63.5t91.5 165.5q6 30 6 66q0 95 -59.5 150t-177.5 55z" />
    <glyph glyph-name="Sigmagreek" unicode="&#x3a3;" horiz-adv-x="1194" 
d="M1036 0h-966l25 150l486 539l-288 525l26 151h933l-34 -199h-634l-2 -13l245 -449l-7 -39l-413 -452l-2 -13h664z" />
    <glyph glyph-name="Taugreek" unicode="&#x3a4;" horiz-adv-x="1139" 
d="M609 0h-228l207 1163h-402l34 202h1030l-32 -202h-402z" />
    <glyph glyph-name="Upsilongreek" unicode="&#x3a5;" horiz-adv-x="1166" 
d="M730 541l-96 -541h-229l96 536l-323 829h243l220 -605h12l425 605h256z" />
    <glyph glyph-name="Phigreek" unicode="&#x3a6;" horiz-adv-x="1676" 
d="M1622 756q0 -72 -16 -169q-44 -261 -229 -405t-487 -144l-22 -118h-222l23 125q-238 36 -375 183t-137 368q0 84 25 209q53 236 235 366t472 130l23 125h222l-23 -131q237 -36 374 -180.5t137 -358.5zM863 1114q-183 0 -304 -94.5t-158 -263.5q-17 -99 -17 -159
q0 -151 83.5 -244t238.5 -120zM917 227q194 1 317 108.5t153 295.5q10 61 10 116q0 304 -322 361z" />
    <glyph glyph-name="Chigreek" unicode="&#x3a7;" horiz-adv-x="1253" 
d="M1118 1365h269l-570 -683l331 -682h-255l-243 511l-11 1l-404 -512h-264l553 689l-314 676h261l223 -509l11 -1z" />
    <glyph glyph-name="Psigreek" unicode="&#x3a8;" horiz-adv-x="1533" 
d="M589 0l53 299q-204 28 -308 128.5t-104 290.5q0 61 14 136l90 511h220l-94 -534q-12 -68 -12 -100q0 -112 56 -165t172 -64l154 863h219l-154 -867q151 0 226.5 73.5t106.5 239.5l97 554h220l-102 -582q-43 -237 -183.5 -358.5t-388.5 -126.5h-10l-53 -298h-219z" />
    <glyph glyph-name="Omegagreek" unicode="&#x3a9;" horiz-adv-x="1423" 
d="M739 0l38 226q121 42 201.5 147.5t109.5 262.5l13 77q19 100 19 170q0 146 -85 224.5t-234 78.5q-150 0 -243 -89t-123 -253l-25 -141q-12 -64 -12 -129q0 -117 46 -208t124 -131l-40 -235h-471l35 206h237l1 11q-73 62 -115.5 157t-42.5 215q0 66 12 138l29 163
q42 237 202 369.5t397 132.5q259 0 399.5 -135t140.5 -363q0 -82 -19 -180l-20 -107q-25 -134 -88.5 -227t-179.5 -163v-11h229l-35 -206h-500z" />
    <glyph glyph-name="Omegagreek" unicode="&#x2126;" horiz-adv-x="1423" 
d="M739 0l38 226q121 42 201.5 147.5t109.5 262.5l13 77q19 100 19 170q0 146 -85 224.5t-234 78.5q-150 0 -243 -89t-123 -253l-25 -141q-12 -64 -12 -129q0 -117 46 -208t124 -131l-40 -235h-471l35 206h237l1 11q-73 62 -115.5 157t-42.5 215q0 66 12 138l29 163
q42 237 202 369.5t397 132.5q259 0 399.5 -135t140.5 -363q0 -82 -19 -180l-20 -107q-25 -134 -88.5 -227t-179.5 -163v-11h229l-35 -206h-500z" />
    <glyph glyph-name="Iotadieresisgreek" unicode="&#x3aa;" horiz-adv-x="591" 
d="M339 0h-228l241 1365h228zM216 1578q0 45 32 77.5t79 32.5t79 -32.5t32 -77.5q0 -46 -32 -78.5t-79 -32.5t-79 32.5t-32 78.5zM576 1578q0 46 31.5 78t78.5 32t79 -32.5t32 -77.5q0 -46 -32 -78.5t-79 -32.5t-78.5 32.5t-31.5 78.5z" />
    <glyph glyph-name="Upsilondieresisgreek" unicode="&#x3ab;" horiz-adv-x="1165" 
d="M730 541l-96 -541h-229l96 536l-323 829h243l220 -605h12l425 605h256zM505 1578q0 45 32 77.5t79 32.5t79 -32.5t32 -77.5q0 -46 -32 -78.5t-79 -32.5t-79 32.5t-32 78.5zM865 1578q0 46 31.5 78t78.5 32t79 -32.5t32 -77.5q0 -46 -32 -78.5t-79 -32.5t-78.5 32.5
t-31.5 78.5z" />
    <glyph glyph-name="alphatonosgreek" unicode="&#x3ac;" horiz-adv-x="1237" 
d="M470 -15q-157 0 -253 100.5t-96 284.5q0 70 12 141q2 16 16 84t18 79q44 194 155 296t268 102q124 0 207 -55t100 -142h11l32 183h211l-136 -769q-6 -30 -6 -51q0 -35 17.5 -50.5t61.5 -15.5q16 0 41 5l-30 -175q-40 -11 -90 -11q-201 0 -210 160v7h-13
q-37 -80 -125 -126.5t-191 -46.5zM563 175q105 0 170.5 69.5t92.5 219.5l21 113q7 36 7 72q0 99 -57 164.5t-158 65.5q-90 0 -161 -67.5t-94 -193.5q0 -2 -6 -31t-11 -57.5t-5 -30.5q-9 -53 -9 -92q0 -110 57 -171t153 -61zM602 1216l170 375h222l-233 -375h-159z" />
    <glyph glyph-name="epsilontonosgreek" unicode="&#x3ad;" horiz-adv-x="1124" 
d="M534 -19q-199 0 -310 78t-111 218q0 103 58.5 173.5t163.5 95.5l3 11q-119 67 -119 204q0 145 118 229.5t316 84.5q206 0 318 -87t120 -246h-211q-28 152 -226 152q-102 0 -160.5 -39t-58.5 -110q0 -127 201 -127h108l-31 -179h-184q-187 0 -187 -131q0 -140 214 -140
q224 0 287 174h216q-94 -361 -525 -361zM596 1216l170 375h222l-233 -375h-159z" />
    <glyph glyph-name="etatonosgreek" unicode="&#x3ae;" horiz-adv-x="1301" 
d="M179 0l136 761q5 33 5 47q0 39 -18.5 58.5t-60.5 19.5q-20 0 -40 -5l30 176q43 10 95 10q187 0 206 -177q0 -3 2 -9h14q57 100 135.5 146.5t193.5 46.5q145 0 233.5 -86.5t88.5 -241.5q0 -63 -15 -151l-169 -953h-225l166 933q12 70 12 115q0 98 -48.5 148t-132.5 50
q-107 0 -180.5 -74t-99.5 -221l-104 -593h-224zM589 1216l170 375h222l-233 -375h-159z" />
    <glyph glyph-name="iotatonosgreek" unicode="&#x3af;" horiz-adv-x="663" 
d="M280 1058h221l-114 -648q-19 -106 -19 -136q0 -54 30 -78t95 -24q72 0 115 10l-30 -175q-54 -15 -153 -15q-288 0 -288 213q0 47 14 120zM326 1216l170 375h222l-233 -375h-159z" />
    <glyph glyph-name="upsilondieresistonosgreek" unicode="&#x3b0;" horiz-adv-x="1156" 
d="M544 -16q-200 0 -303 93t-103 265q0 68 11 127l105 589h218l-105 -597q-10 -68 -10 -107q0 -178 193 -178q107 0 176 72.5t99 236.5q28 153 28 302q0 150 -32 271h212q38 -111 38 -293q0 -150 -22 -278q-42 -254 -173.5 -378.5t-331.5 -124.5zM298 1331q0 52 33 84t86 32
q54 0 87 -32t33 -84q0 -50 -33.5 -82.5t-86.5 -32.5q-52 0 -85.5 32.5t-33.5 82.5zM895 1331q0 52 33 84t84 32q55 0 88.5 -32t33.5 -84q0 -51 -34 -83t-88 -32q-51 0 -84 32.5t-33 82.5zM588 1216l106 375h222l-169 -375h-159z" />
    <glyph glyph-name="alphagreek" unicode="&#x3b1;" horiz-adv-x="1237" 
d="M470 -15q-157 0 -253 100.5t-96 284.5q0 70 12 141q2 16 16 84t18 79q44 194 155 296t268 102q124 0 207 -55t100 -142h11l32 183h211l-136 -769q-6 -30 -6 -51q0 -35 17.5 -50.5t61.5 -15.5q16 0 41 5l-30 -175q-40 -11 -90 -11q-201 0 -210 160v7h-13
q-37 -80 -125 -126.5t-191 -46.5zM563 175q105 0 170.5 69.5t92.5 219.5l21 113q7 36 7 72q0 99 -57 164.5t-158 65.5q-90 0 -161 -67.5t-94 -193.5q0 -2 -6 -31t-11 -57.5t-5 -30.5q-9 -53 -9 -92q0 -110 57 -171t153 -61z" />
    <glyph glyph-name="betagreek" unicode="&#x3b2;" horiz-adv-x="1232" 
d="M31 -351l240 1357q44 248 157.5 364t328.5 116q174 0 283.5 -90t109.5 -241q0 -142 -65 -237t-179 -135l-2 -12q105 -24 165.5 -113.5t60.5 -210.5q0 -196 -121 -329.5t-323 -133.5q-129 0 -213.5 55t-115.5 150h-10l-95 -540h-221zM643 176q123 0 193 78t70 201
q0 108 -70.5 174t-196.5 66h-62l29 182h87q123 0 185.5 59t62.5 172q0 192 -198 192q-100 0 -160.5 -67t-88.5 -218l-94 -520q-8 -55 -8 -82q0 -105 67.5 -171t183.5 -66z" />
    <glyph glyph-name="gammagreek" unicode="&#x3b3;" horiz-adv-x="1100" 
d="M492 -351h-220l58 320l-159 1089h218l106 -841h10q191 213 267.5 384.5t76.5 363.5q0 59 -5 93h222q6 -33 6 -80q0 -243 -123.5 -484.5t-399.5 -525.5z" />
    <glyph glyph-name="deltagreek" unicode="&#x3b4;" horiz-adv-x="1135" 
d="M540 -18q-89 0 -165 25.5t-136 75.5t-94 132.5t-34 189.5q0 57 15 135q36 187 145.5 300t271.5 120h2l2 9q-147 98 -147 221q0 119 89.5 193.5t247.5 74.5q114 0 216.5 -31t159.5 -79l-42 -173q-68 44 -153.5 70.5t-161.5 26.5q-64 0 -100 -25.5t-36 -67.5
q0 -36 30.5 -70t116.5 -92q161 -117 224.5 -217.5t63.5 -236.5q0 -56 -16 -139q-42 -213 -171 -327.5t-328 -114.5zM548 163q112 0 181.5 71t96.5 221q13 70 13 116q0 123 -63.5 180t-165.5 57t-171 -69.5t-96 -218.5q-14 -73 -14 -124q0 -118 63 -175.5t156 -57.5z" />
    <glyph glyph-name="epsilongreek" unicode="&#x3b5;" horiz-adv-x="1127" 
d="M534 -18q-199 0 -310 78t-111 218q0 103 58.5 173.5t163.5 95.5l3 11q-119 67 -119 204q0 145 118 229.5t316 84.5q206 0 318 -87t120 -246h-211q-28 152 -226 152q-102 0 -160.5 -39t-58.5 -110q0 -127 201 -127h108l-31 -179h-184q-187 0 -187 -131q0 -140 214 -140
q224 0 287 174h216q-94 -361 -525 -361z" />
    <glyph glyph-name="zetagreek" unicode="&#x3b6;" horiz-adv-x="906" 
d="M645 -399l-147 92q88 95 88 177q0 47 -38 85t-132 93q-165 97 -228 197.5t-63 235.5q0 214 137 406t394 345l2 9h-385l32 196h733l-31 -189q-345 -188 -500.5 -369t-155.5 -374q0 -84 39 -148.5t154 -137.5q147 -91 202.5 -154.5t55.5 -154.5q0 -69 -38 -149.5
t-119 -159.5z" />
    <glyph glyph-name="etagreek" unicode="&#x3b7;" horiz-adv-x="1301" 
d="M179 0l136 761q5 33 5 47q0 39 -18.5 58.5t-60.5 19.5q-20 0 -40 -5l30 176q43 10 95 10q187 0 206 -177q0 -3 2 -9h14q57 100 135.5 146.5t193.5 46.5q145 0 233.5 -86.5t88.5 -241.5q0 -63 -15 -151l-169 -953h-225l166 933q12 70 12 115q0 98 -48.5 148t-132.5 50
q-107 0 -180.5 -74t-99.5 -221l-104 -593h-224z" />
    <glyph glyph-name="thetagreek" unicode="&#x3b8;" horiz-adv-x="1163" 
d="M553 -18q-418 0 -418 435q0 105 36 306l25 145q53 303 183.5 446.5t345.5 143.5q419 0 419 -432q0 -97 -41 -330l-20 -122q-52 -304 -183 -448t-347 -144zM403 815h503q27 145 27 211q0 136 -50.5 193t-158.5 57q-114 0 -187 -87t-119 -298q-12 -49 -15 -76zM346 415
q0 -135 51 -193t158 -58q116 0 190 87.5t116 298.5q4 11 14 73h-504q-25 -132 -25 -208z" />
    <glyph glyph-name="iotagreek" unicode="&#x3b9;" horiz-adv-x="663" 
d="M280 1058h221l-114 -648q-19 -106 -19 -136q0 -54 30 -78t95 -24q72 0 115 10l-30 -175q-54 -15 -153 -15q-288 0 -288 213q0 47 14 120z" />
    <glyph glyph-name="kappagreek" unicode="&#x3ba;" horiz-adv-x="1146" 
d="M93 0l186 1058h207l-81 -458h11l382 340q83 75 137 101t117 26q52 0 94 -10l-31 -176q-18 5 -44 5q-38 0 -62.5 -12t-67.5 -51l-200 -184l294 -639h-205l-245 512l-226 -189l-58 -323h-208z" />
    <glyph glyph-name="lambdagreek" unicode="&#x3bb;" horiz-adv-x="1130" 
d="M10 0l561 975l-14 84q-21 122 -62 170.5t-127 48.5q-15 0 -37 -2l32 178q34 4 49 4q101 0 163 -30t103.5 -106.5t65.5 -215.5l150 -841q11 -57 34.5 -76t69.5 -19q22 0 37 5l-31 -175q-32 -9 -79 -9t-80 7t-64 27.5t-51 62t-31 105.5l-79 465h-11l-361 -658h-238z" />
    <glyph glyph-name="nugreek" unicode="&#x3bd;" horiz-adv-x="1100" 
d="M581 0h-254l-156 1058h218l106 -841h10q188 213 266 385t78 363q0 59 -5 93h222q6 -33 6 -80q0 -235 -115 -466.5t-376 -511.5z" />
    <glyph glyph-name="xigreek" unicode="&#x3be;" horiz-adv-x="937" 
d="M649 -399l-149 94q47 57 66 96t19 77q0 46 -36 85t-138 96q-172 97 -233 178.5t-61 195.5q0 131 83 221.5t226 111.5l2 11q-149 71 -149 222q0 108 64.5 178t195.5 91l3 11h-231l33 196h727l-32 -184l-104 -12q-247 -28 -344.5 -84.5t-97.5 -158.5q0 -162 306 -162h92
l-30 -183h-195q-162 0 -240 -58.5t-78 -160.5q0 -72 42 -124t162 -127q106 -64 160 -112t71.5 -88.5t17.5 -98.5q0 -139 -152 -311z" />
    <glyph glyph-name="omicrongreek" unicode="&#x3bf;" horiz-adv-x="1155" 
d="M373 631l-20 -114q-10 -52 -10 -102q0 -112 63.5 -179.5t173.5 -67.5q102 0 167.5 69.5t88.5 198.5l21 121q5 39 5 92q0 108 -63 174t-171 66q-98 0 -165.5 -65t-89.5 -193zM131 550l21 119q33 189 163.5 298t315.5 109q207 0 332 -118.5t125 -319.5q0 -71 -11 -127
l-23 -120q-37 -193 -162 -301t-327 -108q-197 0 -321.5 114.5t-124.5 309.5q0 85 12 144z" />
    <glyph glyph-name="pigreek" unicode="&#x3c0;" horiz-adv-x="1371" 
d="M231 0l152 862h-203l35 196h1184l-34 -196h-189l-101 -559q-5 -35 -5 -56q0 -39 17.5 -57t58.5 -18q28 0 51 5l-30 -173q-41 -12 -102 -12q-219 0 -219 194q0 39 9 86l104 590h-359l-152 -862h-217z" />
    <glyph glyph-name="rhogreek" unicode="&#x3c1;" horiz-adv-x="1193" 
d="M659 -16q-135 0 -217.5 56.5t-101.5 150.5h-14l-97 -542h-222l166 944q44 244 168.5 363.5t337.5 119.5q203 0 326 -108t123 -302q0 -68 -36 -262q-34 -195 -155 -307.5t-278 -112.5zM606 179q215 0 269 294q22 131 22 176q0 112 -60 172t-170 60q-106 0 -174 -71
t-90 -194q-1 -5 -13 -72.5t-13 -71.5q-6 -50 -6 -66q0 -104 62.5 -165.5t172.5 -61.5z" />
    <glyph glyph-name="sigmafinalgreek" unicode="&#x3c2;" horiz-adv-x="1076" 
d="M662 -399l-148 94q84 104 84 182q0 42 -35 78.5t-139 100.5q-156 98 -220.5 200.5t-64.5 249.5q0 47 5 100q26 218 155 344t332 126q195 0 305.5 -86.5t119.5 -245.5q0 -13 -1 -19h-212v6q-17 157 -210 157q-104 0 -176 -74t-91 -204q-6 -39 -6 -85q0 -107 42.5 -168
t168.5 -143q148 -96 196 -155t48 -141q0 -145 -153 -317z" />
    <glyph glyph-name="sigmagreek" unicode="&#x3c3;" horiz-adv-x="1249" 
d="M565 -16q-208 0 -326.5 113t-118.5 310q0 53 9 102q0 2 4 27.5t8.5 54t5.5 33.5q34 210 169 322t363 112h610l-33 -196h-282l-1 -12q46 -44 71 -116.5t25 -152.5q0 -51 -8 -102q-2 -13 -11.5 -59t-12.5 -56q-40 -175 -162.5 -277.5t-309.5 -102.5zM641 862
q-223 0 -269 -253q-19 -95 -19 -111q-10 -56 -10 -91q0 -110 58 -176.5t167 -66.5q103 0 175 69.5t96 207.5q18 108 18 111q7 42 7 72q0 107 -58.5 172.5t-164.5 65.5z" />
    <glyph glyph-name="taugreek" unicode="&#x3c4;" horiz-adv-x="1026" 
d="M188 1058h872l-35 -196h-352l-82 -465q-17 -95 -17 -123q0 -54 30 -78t95 -24q72 0 115 10l-30 -175q-54 -15 -153 -15q-288 0 -288 213q0 47 14 120l95 537h-299z" />
    <glyph glyph-name="upsilongreek" unicode="&#x3c5;" horiz-adv-x="1156" 
d="M544 -16q-200 0 -303 93t-103 265q0 68 11 127l105 589h218l-105 -597q-10 -68 -10 -107q0 -178 193 -178q107 0 176 72.5t99 236.5q28 153 28 302q0 150 -32 271h212q38 -111 38 -293q0 -150 -22 -278q-42 -254 -173.5 -378.5t-331.5 -124.5z" />
    <glyph glyph-name="phigreek" unicode="&#x3c6;" horiz-adv-x="1506" 
d="M517 -351l60 334q-201 17 -330 145t-129 317q0 65 10 126q38 251 188 378t454 127l42 238h210l-44 -245q207 -17 333.5 -143t126.5 -318q0 -66 -10 -127q-19 -123 -63.5 -214t-120.5 -157.5t-190.5 -100.5t-267.5 -35l-60 -325h-209zM612 164l131 726q-178 -2 -274 -75.5
t-125 -249.5q-8 -44 -8 -107q0 -124 71 -202.5t205 -91.5zM946 887l-131 -726q181 2 275.5 77t123.5 249q8 51 8 108q0 125 -71.5 202.5t-204.5 89.5z" />
    <glyph glyph-name="chigreek" unicode="&#x3c7;" horiz-adv-x="1157" 
d="M550 155h-9l-376 -506h-232l536 720l-132 403q-22 67 -47.5 90.5t-75.5 23.5q-17 0 -49 -6l31 175q50 12 105 12q94 0 141.5 -41t80.5 -149l101 -321h11l371 502h232l-533 -718l133 -406q21 -64 48 -88.5t70 -24.5q24 0 51 5l-30 -175q-41 -11 -99 -11q-94 0 -143 41
t-79 136z" />
    <glyph glyph-name="psigreek" unicode="&#x3c8;" horiz-adv-x="1480" 
d="M1375 507q-41 -266 -192.5 -394.5t-418.5 -128.5l-59 -335h-217l61 339q-408 30 -408 370q0 64 28 217l85 483h218l-88 -504q-25 -144 -25 -188q0 -168 221 -188l203 1136h216l-202 -1139q149 0 240 88t120 281q21 129 21 233q0 156 -32 281h211q39 -109 39 -298
q0 -133 -21 -253z" />
    <glyph glyph-name="omegagreek" unicode="&#x3c9;" horiz-adv-x="1555" 
d="M1019 -16q-110 0 -177.5 58t-79.5 156h-9q-53 -115 -124 -164.5t-178 -49.5q-159 0 -239 100t-80 276q0 80 27 224q49 275 224 474h240q-110 -127 -171.5 -256.5t-91.5 -305.5q-14 -84 -14 -137q0 -103 34.5 -144t116.5 -41q64 0 112 52t67 156l64 374h208l-60 -360
q-5 -26 -5 -72q0 -150 125 -150q173 0 220 280q17 100 17 203q0 203 -104 401h224q99 -167 99 -379q0 -117 -22 -236q-42 -228 -150 -343.5t-273 -115.5z" />
    <glyph glyph-name="iotadieresisgreek" unicode="&#x3ca;" horiz-adv-x="663" 
d="M280 1058h221l-114 -648q-19 -106 -19 -136q0 -54 30 -78t95 -24q72 0 115 10l-30 -175q-54 -15 -153 -15q-288 0 -288 213q0 47 14 120zM245 1237q-52 0 -85.5 32t-33.5 83q0 50 33.5 82.5t85.5 32.5q51 0 85 -32.5t34 -82.5q0 -51 -34 -83t-85 -32zM629 1237
q-52 0 -85.5 32t-33.5 83q0 50 33.5 82.5t85.5 32.5q51 0 85 -32.5t34 -82.5q0 -51 -33.5 -83t-85.5 -32z" />
    <glyph glyph-name="upsilondieresisgreek" unicode="&#x3cb;" horiz-adv-x="1156" 
d="M544 -16q-200 0 -303 93t-103 265q0 68 11 127l105 589h218l-105 -597q-10 -68 -10 -107q0 -178 193 -178q107 0 176 72.5t99 236.5q28 153 28 302q0 150 -32 271h212q38 -111 38 -293q0 -150 -22 -278q-42 -254 -173.5 -378.5t-331.5 -124.5zM523 1237q-52 0 -85.5 32
t-33.5 83q0 50 33.5 82.5t85.5 32.5q51 0 85 -32.5t34 -82.5q0 -51 -34 -83t-85 -32zM907 1237q-52 0 -85.5 32t-33.5 83q0 50 33.5 82.5t85.5 32.5q51 0 85 -32.5t34 -82.5q0 -51 -33.5 -83t-85.5 -32z" />
    <glyph glyph-name="omicrontonosgreek" unicode="&#x3cc;" horiz-adv-x="1155" 
d="M373 631l-20 -114q-10 -52 -10 -102q0 -112 63.5 -179.5t173.5 -67.5q102 0 167.5 69.5t88.5 198.5l21 121q5 39 5 92q0 108 -63 174t-171 66q-98 0 -165.5 -65t-89.5 -193zM131 550l21 119q33 189 163.5 298t315.5 109q207 0 332 -118.5t125 -319.5q0 -71 -11 -127
l-23 -120q-37 -193 -162 -301t-327 -108q-197 0 -321.5 114.5t-124.5 309.5q0 85 12 144zM589 1216l170 375h222l-233 -375h-159z" />
    <glyph glyph-name="upsilontonosgreek" unicode="&#x3cd;" horiz-adv-x="1156" 
d="M544 -16q-200 0 -303 93t-103 265q0 68 11 127l105 589h218l-105 -597q-10 -68 -10 -107q0 -178 193 -178q107 0 176 72.5t99 236.5q28 153 28 302q0 150 -32 271h212q38 -111 38 -293q0 -150 -22 -278q-42 -254 -173.5 -378.5t-331.5 -124.5zM596 1216l170 375h222
l-233 -375h-159z" />
    <glyph glyph-name="omegatonosgreek" unicode="&#x3ce;" horiz-adv-x="1555" 
d="M1019 -16q-110 0 -177.5 58t-79.5 156h-9q-53 -115 -124 -164.5t-178 -49.5q-159 0 -239 100t-80 276q0 80 27 224q49 275 224 474h240q-110 -127 -171.5 -256.5t-91.5 -305.5q-14 -84 -14 -137q0 -103 34.5 -144t116.5 -41q64 0 112 52t67 156l64 374h208l-60 -360
q-5 -26 -5 -72q0 -150 125 -150q173 0 220 280q17 100 17 203q0 203 -104 401h224q99 -167 99 -379q0 -117 -22 -236q-42 -228 -150 -343.5t-273 -115.5zM821 1216l170 375h222l-233 -375h-159z" />
    <glyph glyph-name="uni0400" unicode="&#x400;" horiz-adv-x="1171" 
d="M1002 200l-34 -200h-847l241 1365h844l-34 -200h-615l-69 -374h584l-32 -188h-583l-74 -403h619zM876 1507h-157l-223 322h199z" />
    <glyph glyph-name="Iocyrillic" unicode="&#x401;" horiz-adv-x="1171" 
d="M1002 200l-34 -200h-847l241 1365h844l-34 -200h-615l-69 -374h584l-32 -188h-583l-74 -403h619zM518 1578q0 45 32 77.5t79 32.5t79 -32.5t32 -77.5q0 -46 -32 -78.5t-79 -32.5t-79 32.5t-32 78.5zM878 1578q0 46 31.5 78t78.5 32t79 -32.5t32 -77.5q0 -46 -32 -78.5
t-79 -32.5t-78.5 32.5t-31.5 78.5z" />
    <glyph glyph-name="Djecyrillic" unicode="&#x402;" horiz-adv-x="1555" 
d="M962 -14q-89 0 -133 14l33 190q35 -11 96 -11q126 0 197 76t71 183q0 87 -63 143.5t-178 56.5q-80 0 -155.5 -31.5t-122.5 -76.5l-94 -530h-228l207 1164h-403l34 201h1030l-33 -201h-400l-78 -432h9q117 102 289 102q199 0 309 -107t110 -270q0 -93 -33.5 -177
t-94.5 -150t-157 -105t-212 -39z" />
    <glyph glyph-name="Gjecyrillic" unicode="&#x403;" horiz-adv-x="1105" 
d="M349 0h-228l241 1365h839l-35 -200h-610zM693 1507l295 322h211l-335 -322h-171z" />
    <glyph glyph-name="Ecyrillic" unicode="&#x404;" horiz-adv-x="1328" 
d="M1216 362q-12 -61 -37.5 -116t-69.5 -105.5t-102 -87t-139.5 -58t-176.5 -21.5q-111 0 -205 33t-166.5 97.5t-113.5 169t-41 238.5q0 90 11 151l40 209q47 249 200.5 384.5t380.5 135.5q116 0 214 -36t161 -95.5t97.5 -135.5t34.5 -157q0 -28 -2 -39h-220q0 15 -1 22
q-8 92 -82.5 162.5t-205.5 70.5q-138 0 -224 -82.5t-120 -236.5q-1 -1 -9 -39t-8 -39h525l-31 -187h-523q0 -1 -0.5 -3t-0.5 -3q-6 -42 -6 -88q0 -81 24 -143.5t67 -100.5t98 -57.5t121 -19.5q126 0 202 61t95 155h220q-3 -27 -7 -39z" />
    <glyph glyph-name="Dzecyrillic" unicode="&#x405;" horiz-adv-x="1230" 
d="M116 395h218q-1 -7 -1 -22q0 -85 81.5 -146t210.5 -61q120 0 196.5 55t76.5 148q0 34 -12.5 62t-31 47t-51.5 37.5t-61 30t-72 26.5l-80 29q-57 20 -103.5 42t-94.5 56t-80 73t-52.5 94.5t-20.5 119.5q0 126 66.5 219.5t176.5 140t248 46.5q127 0 232 -45t167.5 -129.5
t62.5 -193.5q0 -5 -1 -20t-1 -16h-210v2q0 2 0.5 6t0.5 8q0 89 -74 141t-179 52q-103 0 -178.5 -49t-75.5 -138q0 -73 59.5 -120t174.5 -89l96 -34q58 -21 100 -40t88 -50.5t74.5 -67.5t47.5 -90t19 -119q0 -200 -144.5 -313.5t-373.5 -113.5q-216 0 -359 106.5t-143 270.5
q0 24 3 45z" />
    <glyph glyph-name="Icyrillic" unicode="&#x406;" horiz-adv-x="606" 
d="M349 0h-228l241 1365h228z" />
    <glyph glyph-name="Yicyrillic" unicode="&#x407;" horiz-adv-x="606" 
d="M349 0h-228l241 1365h228zM226 1578q0 45 32 77.5t79 32.5t79 -32.5t32 -77.5q0 -46 -32 -78.5t-79 -32.5t-79 32.5t-32 78.5zM586 1578q0 46 31.5 78t78.5 32t79 -32.5t32 -77.5q0 -46 -32 -78.5t-79 -32.5t-78.5 32.5t-31.5 78.5z" />
    <glyph glyph-name="Jecyrillic" unicode="&#x408;" horiz-adv-x="1079" 
d="M1075 1365l-174 -987q-35 -198 -147.5 -301.5t-287.5 -103.5q-177 0 -293 98t-116 259q0 44 7 70h214q-1 -15 -1 -36q0 -76 51.5 -125t135.5 -49q173 0 213 217l169 958h229z" />
    <glyph glyph-name="Ljecyrillic" unicode="&#x409;" horiz-adv-x="1999" 
d="M586 855q-37 -175 -67 -295t-66 -223t-72.5 -165t-84.5 -106t-104 -61.5t-129 -17.5q-48 0 -78 13l35 210q22 -9 49 -9q70 0 118.5 60t92.5 203t100 422l92 479h881l-84 -471h240q191 0 304 -104t113 -282q0 -50 -7 -93q-29 -200 -170 -307.5t-388 -107.5h-477l207 1164
h-442zM1461 704h-225l-90 -505h222q141 0 225.5 59.5t97.5 168.5q7 33 7 66q0 104 -64 157.5t-173 53.5z" />
    <glyph glyph-name="Njecyrillic" unicode="&#x40a;" horiz-adv-x="2072" 
d="M957 0l114 642h-604l-114 -642h-229l241 1365h228l-93 -522h605l93 522h228l-93 -522h251q192 0 304 -97.5t112 -257.5q0 -46 -11 -98q-32 -187 -173 -288.5t-384 -101.5h-475zM1216 194h225q143 0 227 57.5t96 163.5q5 27 5 55q0 87 -62 134t-175 47h-233z" />
    <glyph glyph-name="Tshecyrillic" unicode="&#x40b;" horiz-adv-x="1600" 
d="M754 743q60 42 143 66.5t166 24.5q220 0 315 -126.5t54 -359.5l-61 -348h-227l63 354q24 139 -28.5 211t-179.5 72q-76 0 -155 -27t-134 -71l-96 -539h-227l206 1163h-404l35 202h1031l-35 -202h-400l-76 -420h10z" />
    <glyph glyph-name="Kjecyrillic" unicode="&#x40c;" horiz-adv-x="1281" 
d="M1258 1829l-335 -322h-171l295 322h211zM1412 1365l-670 -674l438 -691h-259l-390 606h-74l-108 -606h-228l241 1365h228l-100 -570h74l573 570h275z" />
    <glyph glyph-name="uni040D" unicode="&#x40d;" horiz-adv-x="1457" 
d="M978 0l175 970h-10l-813 -970h-209l241 1365h222l-175 -968h11l812 968h209l-241 -1365h-222zM1004 1508h-157l-223 322h199z" />
    <glyph glyph-name="Ushortcyrillic" unicode="&#x40e;" horiz-adv-x="1177" 
d="M1007 1756h142q-20 -127 -116.5 -203.5t-259.5 -76.5q-152 0 -228 79t-55 201h142q-12 -71 28.5 -113.5t131.5 -42.5q93 0 148 42t67 114zM1091 1365h244l-580 -1001q-58 -102 -105 -166.5t-105.5 -115.5t-126.5 -73t-155 -22q-59 0 -107 13l30 203q47 -10 89 -10
q72 0 126 37.5t112 119.5l-325 1015h246l222 -759h10z" />
    <glyph glyph-name="Dzhecyrillic" unicode="&#x40f;" horiz-adv-x="1448" 
d="M554 0h-433l241 1365h228l-207 -1163h614l207 1163h228l-241 -1365h-433l-50 -286h-204z" />
    <glyph glyph-name="Acyrillic" unicode="&#x410;" horiz-adv-x="1301" 
d="M-17 0l708 1365h263l229 -1365h-240l-55 372h-479l-188 -372h-238zM789 1121h-15l-281 -567h375z" />
    <glyph glyph-name="Becyrillic" unicode="&#x411;" horiz-adv-x="1260" 
d="M599 0h-476l241 1365h852l-34 -200h-625l-59 -327h249q198 0 308 -98t110 -258q0 -36 -7 -89q-28 -189 -168 -291t-391 -102zM384 199h225q155 0 232 58t89 150q6 27 6 60q0 84 -58 133.5t-176 49.5h-236z" />
    <glyph glyph-name="Vecyrillic" unicode="&#x412;" horiz-adv-x="1318" 
d="M121 0l241 1365h499q105 0 182.5 -25t121.5 -69t64.5 -96.5t20.5 -114.5q0 -131 -85 -223.5t-196 -114.5l-2 -13q109 -17 178.5 -95t69.5 -202q0 -194 -149.5 -303t-409.5 -109h-535zM558 1185l-71 -391h246q124 0 202.5 60.5t78.5 167.5q0 83 -57 123t-175 40h-224z
M457 618l-78 -435h277q145 0 236.5 63.5t91.5 177.5q0 92 -67.5 143t-206.5 51h-253z" />
    <glyph glyph-name="Gecyrillic" unicode="&#x413;" horiz-adv-x="1105" 
d="M349 0h-228l241 1365h839l-35 -200h-610z" />
    <glyph glyph-name="Decyrillic" unicode="&#x414;" horiz-adv-x="1461" 
d="M964 202l172 962h-472l-65 -308q-61 -289 -105 -428.5t-116 -214.5l-2 -11h588zM131 -286h-204l84 488h112q97 62 147 199.5t122 484.5l97 479h908l-207 -1163h174l-84 -488h-203l50 286h-946z" />
    <glyph glyph-name="Iecyrillic" unicode="&#x415;" horiz-adv-x="1171" 
d="M1002 200l-34 -200h-847l241 1365h844l-34 -200h-615l-69 -374h584l-32 -188h-583l-74 -403h619z" />
    <glyph glyph-name="Zhecyrillic" unicode="&#x416;" horiz-adv-x="1882" 
d="M2017 1365l-640 -671l398 -694h-258l-353 606h-74l-107 -606h-222l108 606h-74l-548 -606h-284l656 733l-403 632h256l355 -570h74l101 570h222l-101 -570h74l547 570h273z" />
    <glyph glyph-name="Zecyrillic" unicode="&#x417;" horiz-adv-x="1191" 
d="M453 612l33 195h166q127 0 197.5 56t70.5 153q0 87 -64.5 134.5t-167.5 47.5q-105 0 -164.5 -46t-77.5 -115h-219q27 161 147.5 258t319.5 97q89 0 167.5 -21.5t141 -64t98.5 -112t36 -157.5q0 -139 -90 -226t-212 -98l-2 -14q115 -25 183 -106t68 -193
q0 -197 -142.5 -312.5t-361.5 -115.5q-214 0 -348.5 101.5t-134.5 262.5q0 22 4 46h214q-1 -7 -1 -17q0 -76 74 -134.5t198 -58.5q125 0 196 66t71 173q0 91 -65.5 146t-181.5 55h-153z" />
    <glyph glyph-name="Iicyrillic" unicode="&#x418;" horiz-adv-x="1457" 
d="M978 0l175 970h-10l-813 -970h-209l241 1365h222l-175 -968h11l812 968h209l-241 -1365h-222z" />
    <glyph glyph-name="Iishortcyrillic" unicode="&#x419;" horiz-adv-x="1457" 
d="M978 0l175 970h-10l-813 -970h-209l241 1365h222l-175 -968h11l812 968h209l-241 -1365h-222zM627 1755h142q-12 -71 28.5 -113.5t131.5 -42.5q93 0 148 42t67 114h142q-20 -127 -116.5 -203.5t-259.5 -76.5q-152 0 -228 79t-55 201z" />
    <glyph glyph-name="Kacyrillic" unicode="&#x41a;" horiz-adv-x="1278" 
d="M1409 1365l-670 -674l438 -691h-259l-390 606h-74l-108 -606h-228l241 1365h228l-100 -570h74l573 570h275z" />
    <glyph glyph-name="Elcyrillic" unicode="&#x41b;" horiz-adv-x="1369" 
d="M380 886l92 479h882l-241 -1365h-229l207 1164h-442l-63 -309q-22 -108 -39.5 -184t-38.5 -160t-40.5 -140.5t-44.5 -116t-51 -97.5t-59 -73.5t-70 -54.5t-82 -30.5t-98 -11.5q-59 0 -78 13l35 210q14 -9 49 -9q38 0 69 16t58 55t48.5 89t45 133t43.5 172t47 220z" />
    <glyph glyph-name="Emcyrillic" unicode="&#x41c;" horiz-adv-x="1673" 
d="M332 0h-211l241 1365h229l241 -922h9l568 922h249l-241 -1365h-211l171 953h-12l-507 -815h-135l-210 815h-13z" />
    <glyph glyph-name="Encyrillic" unicode="&#x41d;" horiz-adv-x="1457" 
d="M350 0h-229l241 1365h228l-99 -563h622l99 563h229l-241 -1365h-228l107 601h-622z" />
    <glyph glyph-name="Ocyrillic" unicode="&#x41e;" horiz-adv-x="1411" 
d="M442 835l-33 -174q-14 -73 -14 -146q0 -153 86.5 -243.5t241.5 -90.5q142 0 233 91.5t124 273.5l34 184q8 50 8 128q0 148 -88 238.5t-239 90.5q-135 0 -227 -85.5t-126 -266.5zM177 674l37 202q44 245 201.5 380.5t387.5 135.5q248 0 399.5 -143t151.5 -392
q0 -87 -14 -162l-38 -203q-46 -250 -197.5 -384.5t-404.5 -134.5q-235 0 -385.5 138t-150.5 378q0 112 13 185z" />
    <glyph glyph-name="Pecyrillic" unicode="&#x41f;" horiz-adv-x="1439" 
d="M1183 0h-229l207 1163h-605l-207 -1163h-228l241 1365h1062z" />
    <glyph glyph-name="Ercyrillic" unicode="&#x420;" horiz-adv-x="1236" 
d="M349 0h-228l241 1366h469q198 0 308 -105t110 -275q0 -49 -7 -94q-29 -198 -169 -306t-390 -108h-249zM783 1176h-225l-90 -500h222q155 0 232.5 63.5t91.5 165.5q6 30 6 66q0 95 -59.5 150t-177.5 55z" />
    <glyph glyph-name="Escyrillic" unicode="&#x421;" horiz-adv-x="1328" 
d="M444 833l-35 -173q-13 -72 -13 -147q0 -152 82.5 -240.5t230.5 -88.5q115 0 194 58.5t100 157.5h220q-6 -34 -7 -39q-30 -171 -172.5 -279.5t-352.5 -108.5q-245 0 -385.5 144t-140.5 396q0 84 9 138l42 221q45 243 197 381.5t384 138.5q221 0 364 -124t143 -301
q0 -43 -6 -61h-218q2 31 1 41q-9 103 -89.5 170t-198.5 67q-136 0 -225 -88t-124 -263z" />
    <glyph glyph-name="Tecyrillic" unicode="&#x422;" horiz-adv-x="1131" 
d="M612 0h-228l207 1163h-402l34 202h1030l-32 -202h-402z" />
    <glyph glyph-name="Ucyrillic" unicode="&#x423;" horiz-adv-x="1177" 
d="M1091 1365h244l-580 -1001q-58 -102 -105 -166.5t-105.5 -115.5t-126.5 -73t-155 -22q-59 0 -107 13l30 203q47 -10 89 -10q72 0 126 37.5t112 119.5l-325 1015h246l222 -759h10z" />
    <glyph glyph-name="Efcyrillic" unicode="&#x424;" horiz-adv-x="1623" 
d="M1071 1235q243 -30 375.5 -177t110.5 -347q0 -10 -2 -32l-14 -86q-33 -210 -195.5 -335t-435.5 -125h-32l-23 -143h-221l25 149q-244 30 -376.5 177.5t-110.5 347.5q0 16 3 31l13 86q33 210 195.5 335t436.5 125h31l24 134h220zM400 672q-19 -150 60.5 -235t233.5 -107
l128 719q-368 -5 -414 -308l-7 -52q-1 -6 -1 -17zM1328 686q2 12 2 17q19 149 -61 234t-233 107l-129 -718q369 3 414 308z" />
    <glyph glyph-name="Xacyrillic" unicode="&#x425;" horiz-adv-x="1273" 
d="M1128 1365h269l-570 -683l331 -682h-255l-243 511l-11 1l-404 -512h-264l553 689l-314 676h261l223 -509l11 -1z" />
    <glyph glyph-name="Tsecyrillic" unicode="&#x426;" horiz-adv-x="1497" 
d="M1315 -286h-203l50 286h-1041l241 1365h228l-206 -1163h614l206 1163h228l-207 -1163h175z" />
    <glyph glyph-name="Checyrillic" unicode="&#x427;" horiz-adv-x="1391" 
d="M1134 0h-228l104 586h-10q-18 -10 -51.5 -23.5t-109.5 -30t-152 -16.5q-234 0 -341.5 125.5t-66.5 363.5l64 360h229l-68 -379q-48 -270 234 -270q76 0 151.5 18.5t110.5 34.5t46 24l101 572h228z" />
    <glyph glyph-name="Shacyrillic" unicode="&#x428;" horiz-adv-x="1969" 
d="M121 0l241 1365h228l-207 -1163h453l207 1163h228l-207 -1163h454l207 1163h228l-241 -1365h-1591z" />
    <glyph glyph-name="Shchacyrillic" unicode="&#x429;" horiz-adv-x="2018" 
d="M1838 -286h-204l50 286h-1563l241 1365h228l-206 -1163h453l207 1163h228l-206 -1163h453l206 1163h229l-207 -1163h175z" />
    <glyph glyph-name="Hardsigncyrillic" unicode="&#x42a;" horiz-adv-x="1442" 
d="M900 704h-225l-91 -505h222q155 0 233 63t91 165q7 35 7 66q0 97 -60 154t-177 57zM323 0l206 1162h-340l34 203h569l-84 -471h240q197 0 307 -106.5t110 -279.5q0 -50 -7 -93q-28 -199 -168 -307t-390 -108h-477z" />
    <glyph glyph-name="Yericyrillic" unicode="&#x42b;" horiz-adv-x="1724" 
d="M698 704h-224l-91 -505h222q155 0 232.5 63t90.5 165q7 35 7 66q0 94 -58 152.5t-179 58.5zM121 0l241 1365h228l-84 -471h240q198 0 308 -106.5t110 -279.5q0 -45 -8 -93q-29 -203 -170.5 -309t-387.5 -106h-477zM1467 0h-228l241 1365h228z" />
    <glyph glyph-name="Softsigncyrillic" unicode="&#x42c;" horiz-adv-x="1236" 
d="M698 704h-224l-91 -505h222q155 0 232.5 63t90.5 165q7 35 7 66q0 94 -58 152.5t-179 58.5zM121 0l241 1365h228l-84 -471h240q198 0 308 -106.5t110 -279.5q0 -45 -8 -93q-29 -203 -170.5 -309t-387.5 -106h-477z" />
    <glyph glyph-name="Ereversedcyrillic" unicode="&#x42d;" horiz-adv-x="1328" 
d="M636 -26q-116 0 -214 36t-161 95.5t-97.5 135.5t-34.5 157q0 28 2 39h220q0 -15 1 -22q8 -92 82.5 -162.5t205.5 -70.5q138 0 224 83t120 237q1 3 11 49t10 48h-528l31 187h525q4 35 4 75q0 158 -87 239t-223 81q-126 0 -202 -61t-95 -155h-220q3 27 7 39q15 77 53 144
t100 123t158 88.5t214 32.5q111 0 205.5 -33t166.5 -97.5t113 -168t41 -236.5q0 -88 -10 -153l-41 -210q-47 -249 -200.5 -384.5t-380.5 -135.5z" />
    <glyph glyph-name="IUcyrillic" unicode="&#x42e;" horiz-adv-x="1904" 
d="M1201 -27q-151 0 -269 59.5t-187.5 178t-69.5 278.5q0 43 5 100q1 4 1 12h-224l-107 -601h-229l241 1365h228l-99 -563h220q9 33 19 100q48 233 201.5 361.5t373.5 128.5q244 0 392.5 -143t148.5 -391q0 -87 -14 -162l-38 -204q-46 -250 -195.5 -384.5t-397.5 -134.5z
M953 836l-33 -175q-14 -82 -14 -146q0 -153 84.5 -243.5t234.5 -90.5q280 0 346 365l34 185q9 50 9 127q0 149 -85 239t-232 90q-132 0 -221 -85t-123 -266z" />
    <glyph glyph-name="IAcyrillic" unicode="&#x42f;" horiz-adv-x="1304" 
d="M702 704h246l85 469h-239q-150 0 -230.5 -58.5t-92.5 -149.5q-6 -30 -6 -67q0 -89 60 -141.5t177 -52.5zM694 514l-399 -514h-263l441 563q-115 38 -176 124t-61 201q0 42 8 90q27 183 169.5 285t386.5 102h490l-240 -1365h-228l91 514h-219z" />
    <glyph glyph-name="acyrillic" unicode="&#x430;" horiz-adv-x="1129" 
d="M407 -16q-136 0 -226.5 80t-90.5 217q0 21 2 33q11 145 122 226t307 81h270l11 69q4 18 4 41q0 68 -48 116t-148 48q-81 0 -131 -31.5t-65 -81.5h-213q21 127 132 210t293 83q187 0 290 -91t103 -248q0 -49 -16 -139l-105 -597h-212l25 140h-13q-31 -64 -107 -110
t-184 -46zM313 307q0 -65 46 -106t125 -41q94 0 167 53.5t89 136.5l22 121h-232q-106 0 -161.5 -46.5t-55.5 -117.5z" />
    <glyph glyph-name="becyrillic" unicode="&#x431;" horiz-adv-x="1166" 
d="M373 590q0 -15 -17 -83q-8 -43 -8 -91q0 -111 62.5 -178.5t174.5 -67.5q102 0 166.5 71t89.5 197q1 2 9.5 45t8.5 45q4 26 4 78q0 106 -61.5 173t-165.5 67q-103 0 -170 -65t-93 -191zM705 1027q172 0 278.5 -115t106.5 -306q0 -50 -9 -107q0 -3 -10 -51t-11 -51
q-37 -192 -161.5 -302.5t-328.5 -110.5q-201 0 -322 118t-122 317q0 83 17 169l16 86q34 184 79 307.5t117.5 214.5t177 135t251.5 50l80 3q123 5 145 53h192q-32 -115 -111 -173.5t-229 -64.5l-92 -5q-113 -4 -189 -45t-120.5 -112t-77.5 -188h11q94 178 312 178z" />
    <glyph glyph-name="vecyrillic" unicode="&#x432;" horiz-adv-x="1132" 
d="M107 0l186 1058h451q146 0 227.5 -65.5t81.5 -180.5q0 -92 -64.5 -163t-155.5 -86l-1 -8q87 -15 139.5 -70.5t52.5 -140.5q0 -152 -121 -248t-315 -96h-481zM484 896l-49 -274h190q92 0 150 43t58 112q0 59 -39 89t-105 30h-205zM409 468l-55 -306h216q108 0 171 46.5
t63 123.5q0 68 -46.5 102t-130.5 34h-218z" />
    <glyph glyph-name="gecyrillic" unicode="&#x433;" horiz-adv-x="926" 
d="M942 878h-458l-156 -878h-224l186 1058h682z" />
    <glyph glyph-name="decyrillic" unicode="&#x434;" horiz-adv-x="1269" 
d="M786 180l125 698h-365l-49 -214q-51 -224 -85 -324t-80 -150l-2 -10h456zM114 -285h-194l80 465h88q69 37 109 135t97 351l84 392h785l-156 -878h162l-80 -465h-194l50 285h-781z" />
    </font>
</defs>
</svg>
